<svg data-name="Group 1235" xmlns="http://www.w3.org/2000/svg" width="110.365" height="32.937"><g data-name="Group 1241"><g data-name="Group 1236"><g data-name="Group 1235"><path data-name="Path 835" d="M101.576 0H7.784c-.282 0-.563.007-.848.011a13.565 13.565 0 00-1.848.145 6.712 6.712 0 00-1.752.516 5.952 5.952 0 00-1.493.971A5.222 5.222 0 00.757 2.978a5.035 5.035 0 00-.576 1.567 9.554 9.554 0 00-.165 1.648c-.009.253-.01.506-.015.758v19.035c0 .255.006.5.015.759a9.537 9.537 0 00.165 1.648 5.021 5.021 0 00.576 1.569 5.183 5.183 0 001.086 1.329 5.8 5.8 0 001.493.971 6.685 6.685 0 001.752.519 13.7 13.7 0 001.848.146c.285.006.565.009.848.009h94.792c.281 0 .569 0 .85-.009a13.5 13.5 0 001.845-.146 6.79 6.79 0 001.76-.519 5.787 5.787 0 001.491-.971 5.356 5.356 0 001.09-1.329 5.032 5.032 0 00.571-1.569 10.025 10.025 0 00.172-1.648v-.759c.006-.3.006-.6.006-.9V7.852c0-.3 0-.6-.006-.9v-.758a10.044 10.044 0 00-.172-1.648 5.045 5.045 0 00-.571-1.567 5.4 5.4 0 00-1.09-1.335 5.942 5.942 0 00-1.491-.971 6.818 6.818 0 00-1.76-.516 13.375 13.375 0 00-1.845-.145c-.281 0-.569-.009-.85-.011h-1z" fill="#a2a2a2"/><path data-name="Path 836" d="M7.714 32.216c-.281 0-.556 0-.835-.009a13.042 13.042 0 01-1.726-.134 5.883 5.883 0 01-1.531-.451 5.015 5.015 0 01-1.29-.837 4.436 4.436 0 01-.942-1.15 4.342 4.342 0 01-.5-1.364 9.134 9.134 0 01-.154-1.544 66.26 66.26 0 01-.014-.752V6.952s.008-.569.014-.736a9.1 9.1 0 01.153-1.541 4.388 4.388 0 01.5-1.369 4.494 4.494 0 01.938-1.151 5.166 5.166 0 011.3-.842A5.832 5.832 0 015.154.865 13.064 13.064 0 016.886.73L7.72.72h94.932l.843.011a12.789 12.789 0 011.717.133 6 6 0 011.544.451 5.139 5.139 0 011.285.837 4.663 4.663 0 01.946 1.156 4.421 4.421 0 01.494 1.358 9.651 9.651 0 01.151 1.554v.733c.006.309.006.6.006.9v17.232c0 .3 0 .591-.006.885v.766a9.454 9.454 0 01-.158 1.526 4.4 4.4 0 01-.5 1.375 4.6 4.6 0 01-.939 1.141 5 5 0 01-1.292.842 5.865 5.865 0 01-1.541.453 12.9 12.9 0 01-1.727.134c-.271.006-.554.009-.83.009h-1z"/></g></g><g data-name="Group 1240"><g data-name="Group 1238"><g data-name="Group 1237" fill="#fff"><path data-name="Path 837" d="M20.395 16.716a4.074 4.074 0 011.941-3.419 4.171 4.171 0 00-3.286-1.777c-1.383-.145-2.724.828-3.428.828s-1.8-.814-2.972-.789a4.377 4.377 0 00-3.683 2.245c-1.592 2.758-.4 6.81 1.121 9.039.762 1.091 1.655 2.31 2.822 2.267 1.142-.048 1.569-.729 2.948-.729s1.765.729 2.957.7c1.225-.021 2-1.1 2.734-2.2a9.021 9.021 0 001.25-2.546 3.939 3.939 0 01-2.404-3.619z"/><path data-name="Path 838" d="M18.147 10.055a4.013 4.013 0 00.917-2.875 4.082 4.082 0 00-2.641 1.367 3.815 3.815 0 00-.942 2.768 3.377 3.377 0 002.666-1.26z"/></g></g><g data-name="Group 1239" fill="#fff"><path data-name="Path 839" d="M46.663 22.347h-3.9l-.933 2.76h-1.651l3.691-10.225h1.715l3.692 10.225h-1.679zm-3.495-1.275h3.089l-1.52-4.486h-.043z"/><path data-name="Path 840" d="M57.25 21.384c0 2.316-1.24 3.805-3.111 3.805a2.527 2.527 0 01-2.346-1.3h-.035v3.692h-1.53v-9.926h1.481v1.24h.028a2.645 2.645 0 012.374-1.317c1.892 0 3.139 1.495 3.139 3.806zm-1.573 0c0-1.509-.78-2.5-1.97-2.5-1.169 0-1.956 1.013-1.956 2.5s.786 2.508 1.956 2.508c1.191 0 1.975-.986 1.975-2.508z"/><path data-name="Path 841" d="M65.455 21.384c0 2.316-1.24 3.805-3.111 3.805a2.527 2.527 0 01-2.346-1.3h-.035v3.692h-1.53v-9.926h1.481v1.24h.029a2.644 2.644 0 012.373-1.317c1.892 0 3.139 1.495 3.139 3.806zm-1.573 0c0-1.509-.781-2.5-1.97-2.5-1.169 0-1.956 1.013-1.956 2.5s.786 2.508 1.956 2.508c1.19 0 1.97-.986 1.97-2.508z"/><path data-name="Path 842" d="M70.878 22.262c.114 1.014 1.1 1.68 2.445 1.68 1.289 0 2.217-.665 2.217-1.58 0-.794-.56-1.269-1.885-1.594l-1.325-.319c-1.878-.454-2.749-1.331-2.749-2.757 0-1.764 1.537-2.976 3.72-2.976 2.161 0 3.642 1.212 3.692 2.976h-1.544c-.093-1.02-.936-1.636-2.169-1.636s-2.077.623-2.077 1.53c0 .723.539 1.149 1.857 1.474l1.126.277c2.1.5 2.97 1.339 2.97 2.835 0 1.913-1.524 3.111-3.947 3.111-2.268 0-3.8-1.17-3.9-3.019z"/><path data-name="Path 843" d="M80.461 15.892v1.764h1.417v1.212h-1.417v4.11c0 .639.283.936.907.936a4.676 4.676 0 00.5-.035v1.2a4.185 4.185 0 01-.85.071c-1.509 0-2.1-.567-2.1-2.012v-4.27h-1.084v-1.212h1.084v-1.764z"/><path data-name="Path 844" d="M82.698 21.384c0-2.346 1.382-3.82 3.536-3.82s3.537 1.474 3.537 3.82-1.368 3.819-3.537 3.819-3.536-1.47-3.536-3.819zm5.514 0c0-1.609-.738-2.559-1.978-2.559s-1.976.957-1.976 2.559.736 2.558 1.976 2.558 1.978-.943 1.978-2.558z"/><path data-name="Path 845" d="M91.032 17.655h1.46v1.269h.035a1.778 1.778 0 011.793-1.346 2.366 2.366 0 01.524.057v1.431a2.15 2.15 0 00-.688-.092 1.542 1.542 0 00-1.594 1.715v4.422h-1.53z"/><path data-name="Path 846" d="M101.9 22.921a2.992 2.992 0 01-3.211 2.282c-2.169 0-3.514-1.453-3.514-3.784s1.353-3.855 3.45-3.855c2.063 0 3.36 1.417 3.36 3.677v.525H96.72v.092a1.941 1.941 0 002.005 2.111 1.687 1.687 0 001.722-1.048zm-5.174-2.225h3.728a1.793 1.793 0 00-1.829-1.892 1.888 1.888 0 00-1.899 1.892z"/></g></g></g><g data-name="Group 1243"><g data-name="Group 1242" fill="#fff"><path data-name="Path 847" d="M42.978 7.189a2.173 2.173 0 012.311 2.441 2.184 2.184 0 01-2.311 2.472h-1.775V7.189zm-1.012 4.218h.926a1.768 1.768 0 000-3.524h-.926z"/><path data-name="Path 848" d="M46.157 10.247a1.757 1.757 0 111.75 1.928 1.7 1.7 0 01-1.75-1.928zm2.744 0c0-.8-.361-1.274-.995-1.274s-.994.47-.994 1.274.358 1.277.994 1.277.99-.471.99-1.277z"/><path data-name="Path 849" d="M54.293 12.1h-.759l-.767-2.731h-.058l-.763 2.731h-.752l-1.017-3.7h.742l.665 2.829h.054L52.4 8.4h.7l.762 2.829h.058l.66-2.829h.732z"/><path data-name="Path 850" d="M56.175 8.395h.7v.589h.055a1.111 1.111 0 011.107-.66 1.206 1.206 0 011.283 1.379v2.4h-.732V9.886c0-.6-.259-.893-.8-.893a.851.851 0 00-.885.94v2.17h-.732z"/><path data-name="Path 851" d="M60.49 6.947h.732v5.155h-.732z"/><path data-name="Path 852" d="M62.239 10.247a1.757 1.757 0 111.75 1.928 1.7 1.7 0 01-1.75-1.928zm2.744 0c0-.8-.361-1.274-.995-1.274s-.994.47-.994 1.274.358 1.277.994 1.277.995-.471.995-1.277z"/><path data-name="Path 853" d="M66.507 11.053c0-.667.5-1.052 1.379-1.107l1-.058v-.32c0-.391-.259-.613-.759-.613-.408 0-.692.15-.773.412h-.708c.075-.637.674-1.045 1.515-1.045.93 0 1.454.463 1.454 1.246v2.534h-.7v-.521h-.058a1.248 1.248 0 01-1.114.582 1.12 1.12 0 01-1.236-1.11zm2.385-.316v-.31l-.906.058c-.511.035-.742.208-.742.535s.289.528.688.528a.874.874 0 00.96-.811z"/><path data-name="Path 854" d="M70.581 10.246c0-1.172.6-1.914 1.539-1.914a1.224 1.224 0 011.137.651h.054V6.947h.732v5.155h-.7v-.586h-.058a1.286 1.286 0 01-1.164.647c-.945 0-1.54-.742-1.54-1.917zm.756 0c0 .786.371 1.26.991 1.26s1-.48 1-1.257-.385-1.26-1-1.26-.991.478-.991 1.257z"/><path data-name="Path 855" d="M77.07 10.247a1.757 1.757 0 111.75 1.928 1.7 1.7 0 01-1.75-1.928zm2.744 0c0-.8-.361-1.274-.995-1.274s-.994.47-.994 1.274.358 1.277.994 1.277.995-.471.995-1.277z"/><path data-name="Path 856" d="M81.55 8.395h.7v.589h.055a1.11 1.11 0 011.106-.66 1.206 1.206 0 011.284 1.379v2.4h-.729V9.886c0-.6-.259-.893-.8-.893a.85.85 0 00-.885.94v2.17h-.732z"/><path data-name="Path 857" d="M88.834 7.472v.94h.8v.617h-.8v1.906c0 .389.16.559.524.559a2.478 2.478 0 00.279-.017v.609a2.338 2.338 0 01-.4.038c-.814 0-1.138-.287-1.138-1V9.028h-.589v-.617h.589v-.94z"/><path data-name="Path 858" d="M90.636 6.947h.725V8.99h.058a1.142 1.142 0 011.131-.664 1.222 1.222 0 011.277 1.384v2.394h-.733V9.889c0-.592-.276-.893-.793-.893a.866.866 0 00-.933.94v2.166h-.732z"/><path data-name="Path 859" d="M98.094 11.101a1.506 1.506 0 01-1.607 1.073 1.684 1.684 0 01-1.713-1.914 1.71 1.71 0 011.71-1.937c1.031 0 1.653.7 1.653 1.869v.255H95.52v.041a.98.98 0 00.987 1.062.889.889 0 00.882-.45zM95.52 9.906h1.872a.9.9 0 00-.912-.961.948.948 0 00-.96.961z"/></g></g></svg>