<svg xmlns="http://www.w3.org/2000/svg" width="80" height="80"><defs><clipPath id="a"><path data-name="Path 12702" d="M0 36.63h80v-80H0z" transform="translate(0 43.37)" fill="none"/></clipPath><clipPath id="b"><path data-name="Path 12704" d="M1.44-17.734v28.726A40.007 40.007 0 0038.776 36.63a39.994 39.994 0 0039.987-40 39.992 39.992 0 00-39.987-40A40.006 40.006 0 001.44-17.734" transform="translate(-1.44 43.37)" fill="none"/></clipPath><clipPath id="c"><path data-name="Path 12706" d="M30.359-32.125a4.48 4.48 0 004.48 4.479 4.48 4.48 0 004.479-4.479 4.479 4.479 0 00-4.479-4.48 4.479 4.479 0 00-4.48 4.48" transform="translate(-30.359 36.605)" fill="none"/></clipPath><linearGradient id="d" x1=".7" y1=".267" x2=".811" y2=".267" gradientUnits="objectBoundingBox"><stop offset="0" stop-color="#ffd262"/><stop offset=".1" stop-color="#ffd262"/><stop offset=".2" stop-color="#ffd262"/><stop offset=".3" stop-color="#ffd262"/><stop offset=".4" stop-color="#ffd262"/><stop offset=".5" stop-color="#ffd262"/><stop offset=".6" stop-color="#ffd262"/><stop offset=".7" stop-color="#ffd262"/><stop offset=".8" stop-color="#ffd262"/><stop offset=".9" stop-color="#ffd262"/><stop offset="1" stop-color="#ffd262"/></linearGradient></defs><g data-name="Group 2799"><g data-name="Group 2782" clip-path="url(#a)"><g data-name="Group 2780"><path data-name="Path 12700" d="M80 39.999a40 40 0 01-40 40 40 40 0 01-40-40 40 40 0 0140-40 40 40 0 0140 40" fill="#ff7a6a"/></g><g data-name="Group 2781"><path data-name="Path 12701" d="M80 39.999a40 40 0 01-40 40 40 40 0 01-40-40 40 40 0 0140-40 40 40 0 0140 40" fill="#4191ce"/></g></g><g data-name="Group 2783" transform="translate(2.677)" clip-path="url(#b)"><path data-name="Path 12703" d="M87.925 57.644H-20.676v42.879h108.6z" fill="#ffc76a"/></g><g data-name="Group 2785" transform="translate(55.945 12.466)" clip-path="url(#c)"><g data-name="Group 2784"><path data-name="Path 12705" d="M-30.359-11.584h80.63v80.63h-80.63z" transform="translate(-26.082 -.994)" fill="url(#d)"/></g></g><g data-name="Group 2786"><path data-name="Path 12707" d="M33.437 51.326l.809 4.532h-7.658l.809-4.532z" fill="#d8d8da"/></g><g data-name="Group 2787"><path data-name="Path 12708" d="M53.754 53.041l.5 2.813h-4.75l.502-2.813z" fill="#ececed"/></g><g data-name="Group 2788"><path data-name="Path 12709" d="M50.932 46.989l.985 6.1h-1.825l-.5 2.813H34.15l-.809-4.536h-2.949l.708-4.38 3.778-2.034 2.2-5.966h7.589l2.683 5.732z" fill="#85868a"/></g><g data-name="Group 2789"><path data-name="Path 12710" d="M34.031 20.105l1.993-3.813 10.759-2.026 1.375 5.839h1.995l2.344 10.941h4.42l3.125 12.189h4.367l3.318 12.818h-13.37l-.5-2.815h-1.928l-.983-6.1-3.584-2.268-2.685-5.729h-7.586l-2.2 5.966-3.78 2.034-.706 4.378h-3.093l-.807 4.534H12.277l3.316-12.818h6.053l3.125-12.192h2.733l2.342-10.938z" fill="#d8d8da"/></g><g data-name="Group 2790"><path data-name="Path 12711" d="M27.584 31.045h5.735l-5.304-2.012z" fill="#c4c5c7"/></g><g data-name="Group 2791"><path data-name="Path 12712" d="M20.058 43.11l.587 4.508 1.153-4.508z" fill="#c4c5c7"/></g><g data-name="Group 2792"><path data-name="Path 12713" d="M52.392 31.02l.983 4.59.4-4.59z" fill="#c4c5c7"/></g><g data-name="Group 2793"><path data-name="Path 12714" d="M59.905 43.138h-8.846l8.366-1.872z" fill="#c4c5c7"/></g><g data-name="Group 2794"><path data-name="Path 12715" d="M39.048 31.04h5.28l-4.016-1.262z" fill="#c4c5c7"/></g><g data-name="Group 2795"><path data-name="Path 12716" d="M37.802 20.186h10.385l-2.485-1.262z" fill="#c4c5c7"/></g><g data-name="Group 2796"><path data-name="Path 12717" d="M29.33 51.326l.528 4.532h-3.257l.809-4.532z" fill="#ececed"/></g><g data-name="Group 2798" clip-path="url(#a)"><g data-name="Group 2797"><path data-name="Path 12718" d="M70.262 57.864H9.739a1.91 1.91 0 011.784-2.016h56.955a1.91 1.91 0 011.784 2.016" fill="#9b9c9f"/></g></g></g></svg>