<svg xmlns="http://www.w3.org/2000/svg" xmlns:xlink="http://www.w3.org/1999/xlink" width="80" height="80" viewBox="0 0 80 80">
  <defs>
    <clipPath id="clip-path">
      <path id="Path_12702" data-name="Path 12702" d="M0,36.63H80v-80H0Z" transform="translate(0 43.37)" fill="none"/>
    </clipPath>
    <clipPath id="clip-path-2">
      <path id="Path_12704" data-name="Path 12704" d="M1.44-17.734V10.992A40.007,40.007,0,0,0,38.776,36.63h0a39.994,39.994,0,0,0,39.987-40h0a39.992,39.992,0,0,0-39.987-40h0A40.006,40.006,0,0,0,1.44-17.734" transform="translate(-1.44 43.37)" fill="none"/>
    </clipPath>
    <clipPath id="clip-path-3">
      <path id="Path_12706" data-name="Path 12706" d="M30.359-32.125a4.48,4.48,0,0,0,4.48,4.479h0a4.48,4.48,0,0,0,4.479-4.479h0a4.479,4.479,0,0,0-4.479-4.48h0a4.479,4.479,0,0,0-4.48,4.48" transform="translate(-30.359 36.605)" fill="none"/>
    </clipPath>
    <linearGradient id="linear-gradient" x1="0.7" y1="0.267" x2="0.811" y2="0.267" gradientUnits="objectBoundingBox">
      <stop offset="0" stop-color="#ffd262"/>
      <stop offset="0.1" stop-color="#ffd262"/>
      <stop offset="0.2" stop-color="#ffd262"/>
      <stop offset="0.3" stop-color="#ffd262"/>
      <stop offset="0.4" stop-color="#ffd262"/>
      <stop offset="0.5" stop-color="#ffd262"/>
      <stop offset="0.6" stop-color="#ffd262"/>
      <stop offset="0.7" stop-color="#ffd262"/>
      <stop offset="0.8" stop-color="#ffd262"/>
      <stop offset="0.9" stop-color="#ffd262"/>
      <stop offset="1" stop-color="#ffd262"/>
    </linearGradient>
  </defs>
  <g id="batCave-icon" transform="translate(-47 -2548.371)">
    <g id="Group_2799" data-name="Group 2799" transform="translate(47 2548.371)">
      <g id="Group_2782" data-name="Group 2782" clip-path="url(#clip-path)">
        <g id="Group_2780" data-name="Group 2780" transform="translate(0 -0.001)">
          <path id="Path_12700" data-name="Path 12700" d="M36.63,18.315a40,40,0,0,1-40,40,40,40,0,0,1-40-40,40,40,0,0,1,40-40,40,40,0,0,1,40,40" transform="translate(43.37 21.685)" fill="#ff7a6a"/>
        </g>
        <g id="Group_2781" data-name="Group 2781" transform="translate(0 -0.001)">
          <path id="Path_12701" data-name="Path 12701" d="M36.63,18.315a40,40,0,0,1-40,40,40,40,0,0,1-40-40,40,40,0,0,1,40-40,40,40,0,0,1,40,40" transform="translate(43.37 21.685)" fill="#4191ce"/>
        </g>
      </g>
      <g id="Group_2783" data-name="Group 2783" transform="translate(2.677)" clip-path="url(#clip-path-2)">
        <path id="Path_12703" data-name="Path 12703" d="M98.829-12.12H-9.772V30.759h108.6Z" transform="translate(-10.904 69.764)" fill="#ffc76a"/>
      </g>
      <g id="Group_2785" data-name="Group 2785" transform="translate(55.945 12.466)" clip-path="url(#clip-path-3)">
        <g id="Group_2784" data-name="Group 2784" transform="translate(-56.441 -12.578)">
          <path id="Path_12705" data-name="Path 12705" d="M-30.359-11.584h80.63v80.63h-80.63Z" transform="translate(30.359 11.584)" fill="url(#linear-gradient)"/>
        </g>
      </g>
      <g id="Group_2786" data-name="Group 2786" transform="translate(26.588 51.326)">
        <path id="Path_12707" data-name="Path 12707" d="M3.165,0l.809,4.532H-3.684L-2.875,0Z" transform="translate(3.684)" fill="#d8d8da"/>
      </g>
      <g id="Group_2787" data-name="Group 2787" transform="translate(49.504 53.041)">
        <path id="Path_12708" data-name="Path 12708" d="M1.964,0l.5,2.813H-2.286L-1.784,0Z" transform="translate(2.286)" fill="#ececed"/>
      </g>
      <g id="Group_2788" data-name="Group 2788" transform="translate(30.393 38.986)">
        <path id="Path_12709" data-name="Path 12709" d="M9.491,3.7l.985,6.1H8.651l-.5,2.813H-7.291L-8.1,8.077h-2.949l.708-4.38,3.778-2.034,2.2-5.966H3.226L5.909,1.429Z" transform="translate(11.048 4.303)" fill="#85868a"/>
      </g>
      <g id="Group_2789" data-name="Group 2789" transform="translate(12.274 14.266)">
        <path id="Path_12710" data-name="Path 12710" d="M10.054,2.7l1.993-3.813L22.806-3.139,24.181,2.7h1.995l2.344,10.941H32.94L36.065,25.83h4.367L43.75,38.648H30.38l-.5-2.815H27.952l-.983-6.1-3.584-2.268L20.7,21.736H13.114l-2.2,5.966-3.78,2.034-.706,4.378H3.335l-.807,4.534H-11.7L-8.384,25.83h6.053L.794,13.638H3.527L5.869,2.7Z" transform="translate(11.703 3.139)" fill="#d8d8da"/>
      </g>
      <g id="Group_2790" data-name="Group 2790" transform="translate(27.584 29.033)">
        <path id="Path_12711" data-name="Path 12711" d="M0,.93H5.735L.431-1.082Z" transform="translate(0 1.082)" fill="#c4c5c7"/>
      </g>
      <g id="Group_2791" data-name="Group 2791" transform="translate(20.058 43.11)">
        <path id="Path_12712" data-name="Path 12712" d="M0,0,.587,4.508,1.74,0Z" fill="#c4c5c7"/>
      </g>
      <g id="Group_2792" data-name="Group 2792" transform="translate(52.392 31.02)">
        <path id="Path_12713" data-name="Path 12713" d="M0,0,.983,4.59,1.383,0Z" fill="#c4c5c7"/>
      </g>
      <g id="Group_2793" data-name="Group 2793" transform="translate(51.059 41.266)">
        <path id="Path_12714" data-name="Path 12714" d="M4.088.865H-4.758L3.608-1.007Z" transform="translate(4.758 1.007)" fill="#c4c5c7"/>
      </g>
      <g id="Group_2794" data-name="Group 2794" transform="translate(39.048 29.778)">
        <path id="Path_12715" data-name="Path 12715" d="M0,.583H5.28L1.264-.679Z" transform="translate(0 0.679)" fill="#c4c5c7"/>
      </g>
      <g id="Group_2795" data-name="Group 2795" transform="translate(37.802 18.924)">
        <path id="Path_12716" data-name="Path 12716" d="M0,.583H10.385L7.9-.679Z" transform="translate(0 0.679)" fill="#c4c5c7"/>
      </g>
      <g id="Group_2796" data-name="Group 2796" transform="translate(26.601 51.326)">
        <path id="Path_12717" data-name="Path 12717" d="M1.261,0l.528,4.532H-1.468L-.659,0Z" transform="translate(1.468)" fill="#ececed"/>
      </g>
      <g id="Group_2798" data-name="Group 2798" clip-path="url(#clip-path)">
        <g id="Group_2797" data-name="Group 2797" transform="translate(9.739 55.848)">
          <path id="Path_12718" data-name="Path 12718" d="M27.712.923H-32.811a1.91,1.91,0,0,1,1.784-2.016H25.928A1.91,1.91,0,0,1,27.712.923" transform="translate(32.811 1.093)" fill="#9b9c9f"/>
        </g>
      </g>
    </g>
  </g>
</svg>
