<svg xmlns="http://www.w3.org/2000/svg" width="20.764" height="13.988"><g data-name="Group 2215" fill="#fff"><path data-name="Path 12169" d="M17.157 5.923a4.471 4.471 0 012.383.7l.066-1.661a.492.492 0 00-.262-.459l-3.322-1.77L14.558.154a.319.319 0 00-.284-.153h-1.86a.15.15 0 00-.153.153v.809a.15.15 0 00.153.153h1.377l.9 1.574a3.4 3.4 0 00-1.2.809 4.54 4.54 0 01-4.9.743 30.035 30.035 0 00-7.147-1.6.217.217 0 00-.241.262l.153 1.071a.3.3 0 00.109.175l1.464.765-.241 1.114a4.378 4.378 0 01.918-.087 4.449 4.449 0 014.459 4.459h4.634a4.468 4.468 0 014.458-4.478z"/><path data-name="Path 12170" d="M17.31 2.864h.262a.243.243 0 00.244-.241V1.006a.243.243 0 00-.241-.241h-.306a1.05 1.05 0 10.044 2.1z"/><path data-name="Path 12171" d="M3.607 6.776a3.606 3.606 0 103.606 3.607 3.61 3.61 0 00-3.606-3.607zm0 4.94a1.333 1.333 0 110-2.666 1.333 1.333 0 010 2.666z"/><path data-name="Path 12172" d="M17.158 6.776a3.606 3.606 0 103.607 3.607 3.61 3.61 0 00-3.607-3.607zm0 4.94a1.333 1.333 0 111.333-1.333 1.338 1.338 0 01-1.333 1.333z"/></g></svg>