<svg id="bike" xmlns="http://www.w3.org/2000/svg" width="20.764" height="13.988" viewBox="0 0 20.764 13.988">
  <g id="Group_2215" data-name="Group 2215">
    <path id="Path_12169" data-name="Path 12169" d="M30.979,25.809a4.471,4.471,0,0,1,2.383.7l.066-1.661a.492.492,0,0,0-.262-.459l-3.322-1.77-1.464-2.579a.319.319,0,0,0-.284-.153H26.236a.15.15,0,0,0-.153.153v.809a.15.15,0,0,0,.153.153h1.377l.9,1.574a3.4,3.4,0,0,0-1.2.809,4.54,4.54,0,0,1-4.9.743,30.035,30.035,0,0,0-7.147-1.6.217.217,0,0,0-.241.262l.153,1.071a.3.3,0,0,0,.109.175l1.464.765-.241,1.114a4.378,4.378,0,0,1,.918-.087,4.449,4.449,0,0,1,4.459,4.459h4.634A4.468,4.468,0,0,1,30.979,25.809Z" transform="translate(-13.822 -19.886)" fill="#fff"/>
    <path id="Path_12170" data-name="Path 12170" d="M49.494,23.685h.262A.243.243,0,0,0,50,23.444V21.827a.243.243,0,0,0-.241-.241h-.306a1.05,1.05,0,1,0,.044,2.1Z" transform="translate(-32.184 -20.821)" fill="#fff"/>
    <path id="Path_12171" data-name="Path 12171" d="M15.962,34.947a3.606,3.606,0,1,0,3.606,3.607A3.61,3.61,0,0,0,15.962,34.947Zm0,4.94a1.333,1.333,0,1,1,0-2.666,1.333,1.333,0,0,1,0,2.666Z" transform="translate(-12.355 -28.171)" fill="#fff"/>
    <path id="Path_12172" data-name="Path 12172" d="M46.084,34.947a3.606,3.606,0,1,0,3.607,3.607A3.61,3.61,0,0,0,46.084,34.947Zm0,4.94a1.333,1.333,0,1,1,1.333-1.333A1.338,1.338,0,0,1,46.084,39.887Z" transform="translate(-28.926 -28.171)" fill="#fff"/>
  </g>
</svg>
