<svg xmlns="http://www.w3.org/2000/svg" width="19.331" height="13.089" viewBox="0 0 19.331 13.089">
  <path id="camp" d="M16.111,19.75l.134.376a.7.7,0,0,1,.059.175l2.316,6.551.979,2.762.786,2.245.346.976h8.612a.659.659,0,0,0,.566-.259.728.728,0,0,0,.071-.722L25.875,20.226a.7.7,0,0,0-.645-.476Zm-1.207.73-4.16,11.779a.439.439,0,0,0,.045.4.385.385,0,0,0,.348.171h3.818V20.618Zm1.427,4.014v8.345h2.949l-.173-.467h0l-.786-2.241-.987-2.766v-.05h0Z" transform="translate(-10.714 -19.75)" fill="#fff"/>
</svg>
