<svg xmlns="http://www.w3.org/2000/svg" width="29.899" height="19.423" viewBox="0 0 29.899 19.423">
  <path id="capm-icon" d="M19.062,19.75l.207.557a1.014,1.014,0,0,1,.091.26l3.582,9.721,1.514,4.1,1.216,3.331.535,1.449h13.32a1.01,1.01,0,0,0,.985-1.455l-6.35-17.256a1.071,1.071,0,0,0-1-.706Zm-1.867,1.084L10.76,38.312a.629.629,0,0,0,.069.6.6.6,0,0,0,.539.254h5.906V21.038ZM19.4,26.79V39.173h4.562L23.7,38.48h0L22.48,35.155,20.954,31.05v-.074h0Z" transform="translate(-10.714 -19.75)" fill="#fff"/>
</svg>
