<svg xmlns="http://www.w3.org/2000/svg" width="19.007" height="19.065"><path d="M12.787 5.112a.682.682 0 01-.189.943.7.7 0 01-.377.111H6.79v1.867l5.349 10.026a.677.677 0 01-.281.919.662.662 0 01-.319.077H.682A.677.677 0 010 18.378a.667.667 0 01.106-.319l5.32-10.026V.739a.682.682 0 111.359 0h5.435a.677.677 0 01.677.677.687.687 0 01-.111.377l-1.112 1.659zm6.108 12.9l-2.717-4.073a.682.682 0 00-.561-.3h-1.655l-1.842-3.067a.653.653 0 00-.614-.329.677.677 0 00-.58.372l-.595 1.19 3 5.625a2.031 2.031 0 01.116 1.635h4.88a.672.672 0 00.677-.677.687.687 0 00-.108-.377z" fill="#fff"/></svg>