<svg xmlns="http://www.w3.org/2000/svg" width="23.858" height="23.931"><path d="M16.051 6.417a.856.856 0 01-.237 1.184.88.88 0 01-.474.14H8.52v2.343l6.714 12.585a.85.85 0 01-.352 1.153.832.832 0 01-.4.1H.856a.85.85 0 01-.856-.85.838.838 0 01.134-.4l6.678-12.585V.928a.856.856 0 111.706 0h6.824a.85.85 0 01.85.85.862.862 0 01-.14.474l-1.397 2.087zm7.669 16.191l-3.412-5.112a.856.856 0 00-.7-.382h-2.081l-2.307-3.843a.82.82 0 00-.771-.413.85.85 0 00-.729.467l-.747 1.493 3.764 7.061a2.55 2.55 0 01.146 2.052h6.125a.844.844 0 00.85-.85.862.862 0 00-.138-.473z" fill="#fff"/></svg>