<svg xmlns="http://www.w3.org/2000/svg" width="19.007" height="19.065" viewBox="0 0 19.007 19.065">
  <path id="climb" d="M28.567,20.773h0a.682.682,0,0,1-.189.943.7.7,0,0,1-.377.111H22.57v1.867L27.919,33.72h0a.677.677,0,0,1-.281.919.662.662,0,0,1-.319.077H16.462a.677.677,0,0,1-.682-.677.667.667,0,0,1,.106-.319l5.32-10.026V16.4h0a.682.682,0,1,1,1.359,0H28a.677.677,0,0,1,.677.677.687.687,0,0,1-.111.377l-1.112,1.659Zm6.108,12.9L31.958,29.6h0a.682.682,0,0,0-.561-.3H29.742L27.9,26.233h0a.653.653,0,0,0-.614-.329h0a.677.677,0,0,0-.58.372l-.595,1.19,3,5.625h0a2.031,2.031,0,0,1,.116,1.635h4.88a.672.672,0,0,0,.677-.677A.687.687,0,0,0,34.676,33.672Z" transform="translate(-15.78 -15.661)" fill="#fff"/>
</svg>
