<svg xmlns="http://www.w3.org/2000/svg" width="23.858" height="23.931" viewBox="0 0 23.858 23.931">
  <path id="climbing-icon" d="M31.831,22.078h0a.856.856,0,0,1-.237,1.184.88.88,0,0,1-.474.14H24.3v2.343l6.714,12.585h0a.85.85,0,0,1-.352,1.153.832.832,0,0,1-.4.1H16.636a.85.85,0,0,1-.856-.85.838.838,0,0,1,.134-.4l6.678-12.585V16.589h0a.856.856,0,1,1,1.706,0h6.824a.85.85,0,0,1,.85.85.862.862,0,0,1-.14.474L30.435,20ZM39.5,38.269l-3.412-5.112h0a.856.856,0,0,0-.7-.382H33.307L31,28.932h0a.82.82,0,0,0-.771-.413h0a.85.85,0,0,0-.729.467l-.747,1.493,3.764,7.061h0a2.55,2.55,0,0,1,.146,2.052h6.125a.844.844,0,0,0,.85-.85A.862.862,0,0,0,39.5,38.269Z" transform="translate(-15.78 -15.661)" fill="#fff"/>
</svg>
