<svg xmlns="http://www.w3.org/2000/svg" width="10.827" height="19.615" viewBox="0 0 10.827 19.615">
  <path id="Culture" d="M33.471,15.6a2.557,2.557,0,0,0-.554-2.353,2.672,2.672,0,0,0-1.952-.823H25.172a.375.375,0,0,0-.332.533,14.479,14.479,0,0,1,1.441,4.262c0,1.441-3.55,1.509-3.55,4.97,0,2.285,1.551,4.88,2.6,6.368a1.948,1.948,0,0,1-.153,2.442.635.635,0,0,0,.486,1.04H29.72a.639.639,0,0,0,.49-1.04,1.944,1.944,0,0,1-.158-2.442c1.044-1.487,2.6-4.083,2.6-6.368a3.555,3.555,0,0,0-.622-2.131.58.58,0,0,1-.043-.6A19.5,19.5,0,0,0,33.471,15.6Zm-2.31,2.749a.592.592,0,0,1-.852.247c-.665-.426-1.219-.8-1.219-1.355a10.83,10.83,0,0,1,.955-3.2.584.584,0,0,1,.554-.354h.49a1.279,1.279,0,0,1,1,.486,1.206,1.206,0,0,1,.2,1.091A19.606,19.606,0,0,1,31.161,18.344Z" transform="translate(-22.73 -12.42)" fill="#fff"/>
</svg>
