<svg xmlns="http://www.w3.org/2000/svg" width="10.827" height="19.615"><path d="M10.741 3.18a2.557 2.557 0 00-.554-2.353A2.672 2.672 0 008.235.004H2.442a.375.375 0 00-.332.533 14.479 14.479 0 011.441 4.262c0 1.441-3.55 1.509-3.55 4.97 0 2.285 1.551 4.88 2.6 6.368a1.948 1.948 0 01-.153 2.442.635.635 0 00.486 1.04H6.99a.639.639 0 00.49-1.04 1.944 1.944 0 01-.158-2.442c1.044-1.487 2.6-4.083 2.6-6.368A3.555 3.555 0 009.3 7.638a.58.58 0 01-.043-.6 19.5 19.5 0 001.484-3.858zm-2.31 2.749a.592.592 0 01-.852.247c-.665-.426-1.219-.8-1.219-1.355a10.83 10.83 0 01.955-3.2.584.584 0 01.554-.354h.49a1.279 1.279 0 011 .486 1.206 1.206 0 01.2 1.091 19.606 19.606 0 01-1.128 3.08z" fill="#fff"/></svg>