<svg xmlns="http://www.w3.org/2000/svg" width="14.675" height="14"><path d="M.987 9.26c.234.194.426.438.407.6a2.739 2.739 0 00-.017.3 2.7 2.7 0 002.656 2.732 2.6 2.6 0 00.529-.054.92.92 0 01.832.282 2.6 2.6 0 003.969-.091.777.777 0 01.813-.245 2.58 2.58 0 00.742.109 2.7 2.7 0 002.656-2.732 2.747 2.747 0 00-.045-.494.977.977 0 01.3-.817 2.776 2.776 0 00-.142-4.116c-.234-.194-.426-.438-.407-.6a2.732 2.732 0 00.017-.3 2.7 2.7 0 00-2.656-2.732 2.6 2.6 0 00-.529.054.92.92 0 01-.832-.282 2.6 2.6 0 00-3.887 0 .92.92 0 01-.832.282 2.6 2.6 0 00-.529-.054 2.7 2.7 0 00-2.656 2.732 2.764 2.764 0 00.033.427.848.848 0 01-.367.711 2.774 2.774 0 00-.056 4.289zm2.8-2.023c.059-.1.209-.106.347.014l1.386.977a.418.418 0 00.216.069.583.583 0 00.365-.2l4.434-4.439c.277-.3.547-.408.723-.292a.329.329 0 01.148.227.429.429 0 01-.109.334l-5.332 6.474a.364.364 0 01-.277.146.348.348 0 01-.3-.2L3.823 7.526a.3.3 0 01-.037-.289z" fill="#ff7f00"/></svg>