<svg xmlns="http://www.w3.org/2000/svg" width="14.675" height="14" viewBox="0 0 14.675 14">
  <path id="email-cheker" d="M.987,20.982c.234.194.426.438.407.6a2.739,2.739,0,0,0-.017.3,2.7,2.7,0,0,0,2.656,2.732,2.6,2.6,0,0,0,.529-.054.92.92,0,0,1,.832.282,2.6,2.6,0,0,0,3.969-.091.777.777,0,0,1,.813-.245,2.58,2.58,0,0,0,.742.109,2.7,2.7,0,0,0,2.656-2.732,2.747,2.747,0,0,0-.045-.494.977.977,0,0,1,.3-.817,2.776,2.776,0,0,0-.142-4.116c-.234-.194-.426-.438-.407-.6a2.732,2.732,0,0,0,.017-.3,2.7,2.7,0,0,0-2.656-2.732,2.6,2.6,0,0,0-.529.054.92.92,0,0,1-.832-.282,2.6,2.6,0,0,0-3.887,0,.92.92,0,0,1-.832.282,2.6,2.6,0,0,0-.529-.054,2.7,2.7,0,0,0-2.656,2.732,2.764,2.764,0,0,0,.033.427.848.848,0,0,1-.367.711,2.774,2.774,0,0,0-.056,4.289Zm2.8-2.023c.059-.1.209-.106.347.014l1.386.977a.418.418,0,0,0,.216.069.583.583,0,0,0,.365-.2l4.434-4.439c.277-.3.547-.408.723-.292a.329.329,0,0,1,.148.227.429.429,0,0,1-.109.334L5.965,22.123a.364.364,0,0,1-.277.146.348.348,0,0,1-.3-.2L3.823,19.248A.3.3,0,0,1,3.786,18.959Z" transform="translate(0 -11.722)" fill="#ff7f00"/>
</svg>
