<svg xmlns="http://www.w3.org/2000/svg" width="78" height="40"><g data-name="Group 2340"><g data-name="Group 2339"><path data-name="Path 12381" d="M1.837 8.77L75.806.025a1.77 1.77 0 012.174 2.11l-4.417 27.796c-.382 2.4-3.007 2.437-3.007 2.437H20.561l-4.387 7.635-4.224-7.635h-4.3a3.57 3.57 0 01-3.167-2.394L.092 11.352a1.912 1.912 0 011.745-2.581" fill="#111"/><path data-name="Path 12382" d="M37.101 22.43h2.076V10.815c0-.353-.4-.472-.6-.472a.589.589 0 00-.6.368c-.067.133-.9 4.373-.9 4.594z" fill="#fff"/><path data-name="Path 12383" d="M27.174 14.178v12.947c0 .362.4.483.6.483a.587.587 0 00.6-.377c.066-.135.9-4.465.9-4.688v-.845a4.044 4.044 0 002.576.84c2.938 0 3.966-2.186 3.966-4.329a3.744 3.744 0 00-3.932-4.046 4.376 4.376 0 00-2.623.819v-.877zm2.128 4.333a2.071 2.071 0 012.072-2.263c1.356 0 1.857 1.112 1.857 2.305a2.1 2.1 0 01-1.949 2.36 2.2 2.2 0 01-1.98-2.4" fill="#fff"/><path data-name="Path 12384" d="M54.247 15.982a5.69 5.69 0 011.359.233 10.184 10.184 0 00-.811-1.944c-.3-.029-.432-.043-.565-.043a2.72 2.72 0 00-2.456 1.3l-1.676-.541v7.4h2.141v-3.993a2.142 2.142 0 012.008-2.412" fill="#fff"/><path data-name="Path 12385" d="M63.593 17.94a3.722 3.722 0 00-3.933-3.714 3.992 3.992 0 00-4.163 4.239c0 2.4 1.609 3.917 4.362 3.917a10.4 10.4 0 003.254-.585.512.512 0 00.332-.483.621.621 0 00-.781-.6 8.364 8.364 0 01-2.074.293c-1.493 0-2.721-.659-2.787-1.915.829-.073 4.961-.512 5.725-.761.149-.042.065-.263.065-.393m-2.073-.542h-3.668a1.9 1.9 0 011.875-1.578 1.722 1.722 0 011.793 1.578" fill="#fff"/><path data-name="Path 12386" d="M68.322 15.982a5.7 5.7 0 011.36.233 10.147 10.147 0 00-.811-1.944c-.3-.029-.433-.043-.565-.043a2.725 2.725 0 00-2.457 1.3l-1.676-.541v7.4h2.142v-3.993a2.143 2.143 0 012.008-2.412" fill="#fff"/><path data-name="Path 12387" d="M10.259 19.096c.83-.073 4.961-.512 5.725-.762.15-.042.068-.262.068-.394a3.724 3.724 0 00-3.935-3.713 3.994 3.994 0 00-4.165 4.239c0 2.4 1.609 3.917 4.365 3.917a10.414 10.414 0 003.253-.583.516.516 0 00.332-.483.622.622 0 00-.78-.6 8.478 8.478 0 01-2.074.293c-1.494 0-2.721-.659-2.789-1.915m1.926-3.275a1.722 1.722 0 011.792 1.58h-3.668a1.9 1.9 0 011.876-1.58" fill="#fff"/><path data-name="Path 12388" d="M16.244 14.227h3.306l1.6 2.06 1.615-2.06h3.292l-3.292 4.067 3.251 4.091h-3.251l-1.615-2.06-1.6 2.06h-3.29l3.29-4.091z" fill="#ffd900"/><path data-name="Path 12389" d="M42.819 18.404a2.2 2.2 0 001.98 2.4 2.1 2.1 0 001.95-2.362c0-1.192-.5-2.3-1.858-2.3a2.071 2.071 0 00-2.073 2.265m6.546-.2c0 2.34-1.776 4.178-4.6 4.178-2.687 0-4.563-1.766-4.563-4.036 0-2.368 1.86-4.12 4.647-4.12 2.638 0 4.515 1.737 4.515 3.978" fill="#fff"/></g></g></svg>