<svg xmlns="http://www.w3.org/2000/svg" width="78" height="40" viewBox="0 0 78 40">
  <g id="Explorer" transform="translate(-858 -720)">
    <g id="Group_2340" data-name="Group 2340" transform="translate(858 720)">
      <g id="Group_2339" data-name="Group 2339" transform="translate(0 0)">
        <path id="Path_12381" data-name="Path 12381" d="M31.208,38.139l73.969-8.745a1.77,1.77,0,0,1,2.174,2.11L102.934,59.3c-.382,2.4-3.007,2.437-3.007,2.437H49.932l-4.387,7.635-4.224-7.635-4.3,0a3.57,3.57,0,0,1-3.167-2.394L29.463,40.721a1.912,1.912,0,0,1,1.745-2.581" transform="translate(-29.371 -29.369)" fill="#111"/>
        <path id="Path_12382" data-name="Path 12382" d="M96.77,60.346h2.076V48.731c0-.353-.4-.472-.6-.472a.589.589,0,0,0-.6.368c-.067.133-.9,4.373-.9,4.594Z" transform="translate(-59.669 -37.916)" fill="#fff"/>
        <path id="Path_12383" data-name="Path 12383" d="M78.82,55.23V68.177c0,.362.4.483.6.483a.587.587,0,0,0,.6-.377c.066-.135.9-4.465.9-4.688v-.845a4.044,4.044,0,0,0,2.576.84c2.938,0,3.966-2.186,3.966-4.329a3.744,3.744,0,0,0-3.932-4.046,4.376,4.376,0,0,0-2.623.819v-.877Zm2.128,4.333A2.071,2.071,0,0,1,83.02,57.3c1.356,0,1.857,1.112,1.857,2.305a2.1,2.1,0,0,1-1.949,2.36,2.2,2.2,0,0,1-1.98-2.4" transform="translate(-51.646 -41.052)" fill="#fff"/>
        <path id="Path_12384" data-name="Path 12384" d="M124.616,57.042a5.69,5.69,0,0,1,1.359.233,10.184,10.184,0,0,0-.811-1.944c-.3-.029-.432-.043-.565-.043a2.72,2.72,0,0,0-2.456,1.3l-1.676-.541v7.4h2.141V59.454a2.142,2.142,0,0,1,2.008-2.412" transform="translate(-70.369 -41.06)" fill="#fff"/>
        <path id="Path_12385" data-name="Path 12385" d="M138.441,59a3.722,3.722,0,0,0-3.933-3.714,3.992,3.992,0,0,0-4.163,4.239c0,2.4,1.609,3.917,4.362,3.917a10.4,10.4,0,0,0,3.254-.585.512.512,0,0,0,.332-.483.621.621,0,0,0-.781-.6,8.364,8.364,0,0,1-2.074.293c-1.493,0-2.721-.659-2.787-1.915.829-.073,4.961-.512,5.725-.761.149-.042.065-.263.065-.393m-2.073-.542H132.7a1.9,1.9,0,0,1,1.875-1.578,1.722,1.722,0,0,1,1.793,1.578" transform="translate(-74.848 -41.06)" fill="#fff"/>
        <path id="Path_12386" data-name="Path 12386" d="M150.457,57.042a5.7,5.7,0,0,1,1.36.233,10.147,10.147,0,0,0-.811-1.944c-.3-.029-.433-.043-.565-.043a2.725,2.725,0,0,0-2.457,1.3l-1.676-.541v7.4h2.142V59.454a2.143,2.143,0,0,1,2.008-2.412" transform="translate(-82.135 -41.06)" fill="#fff"/>
        <path id="Path_12387" data-name="Path 12387" d="M45.9,60.156c.83-.073,4.961-.512,5.725-.762.15-.042.068-.262.068-.394a3.724,3.724,0,0,0-3.935-3.713,3.994,3.994,0,0,0-4.165,4.239c0,2.4,1.609,3.917,4.365,3.917a10.414,10.414,0,0,0,3.253-.583.516.516,0,0,0,.332-.483.622.622,0,0,0-.78-.6,8.478,8.478,0,0,1-2.074.293c-1.494,0-2.721-.659-2.789-1.915m1.926-3.275a1.722,1.722,0,0,1,1.792,1.58H45.95a1.9,1.9,0,0,1,1.876-1.58" transform="translate(-35.641 -41.06)" fill="#fff"/>
        <path id="Path_12388" data-name="Path 12388" d="M58.939,55.285h3.306l1.6,2.06,1.615-2.06h3.292L65.46,59.352l3.251,4.091H65.46l-1.615-2.06-1.6,2.06h-3.29l3.29-4.091Z" transform="translate(-42.695 -41.058)" fill="#ffd900"/>
        <path id="Path_12389" data-name="Path 12389" d="M105.155,59.464a2.2,2.2,0,0,0,1.98,2.4,2.1,2.1,0,0,0,1.95-2.362c0-1.192-.5-2.3-1.858-2.3a2.071,2.071,0,0,0-2.073,2.265m6.546-.2c0,2.34-1.776,4.178-4.6,4.178-2.687,0-4.563-1.766-4.563-4.036,0-2.368,1.86-4.12,4.647-4.12,2.638,0,4.515,1.737,4.515,3.978" transform="translate(-62.336 -41.06)" fill="#fff"/>
      </g>
    </g>
  </g>
</svg>
