<svg xmlns="http://www.w3.org/2000/svg" width="22" height="22"><path d="M11.974 4.999l-.317.007-.29.033-.27.066-.243.074-.223.093-.2.106-.176.126-.168.139-.142.139-.128.159-.115.166-.087.173-.088.179-.067.179-.054.179-.04.179-.033.179-.02.172-.014.166v1.619h-1.26v2.251h1.26v6.38h2.65v-6.38h1.786l.236-2.251h-2.022V7.805l.013-.152.034-.119.047-.106.061-.08.074-.066.087-.039.081-.026.081-.014.081-.006h1.422V5.005l-1.955-.007zm-.971-5l.694.026.681.06.667.106.661.146.64.186.627.219.6.259.593.292.566.319.54.358.526.392.505.411.472.452.439.472.418.5.4.524.357.552.324.564.29.591.256.6.223.625.189.644.142.65.1.677.061.677.027.7-.027.7-.061.677-.1.677-.142.65-.189.644-.223.624-.256.6-.29.591-.324.564-.357.551-.4.524-.418.5-.439.472-.472.444-.505.418-.526.392-.54.359-.566.319-.593.292-.6.259-.627.219-.64.186-.661.146-.667.106-.681.059-.694.027-.694-.027-.688-.059-.668-.106-.654-.146-.647-.186-.621-.219-.613-.259-.587-.292-.567-.319-.546-.359-.526-.392-.492-.418-.472-.444-.452-.472-.418-.5-.384-.524-.357-.551-.324-.564-.3-.591-.257-.6-.215-.624-.189-.644-.142-.65-.108-.677-.067-.677-.02-.7.02-.7.067-.677.108-.677.142-.65.189-.644.215-.625.257-.6.3-.591.324-.564.357-.552.384-.524.418-.5.452-.472.472-.452.492-.411.526-.392.546-.358.567-.319.587-.292.613-.259.621-.219.647-.186.654-.146.668-.106.688-.06.694-.026z" fill="#fff" fill-rule="evenodd"/></svg>