<svg xmlns="http://www.w3.org/2000/svg" width="32.517" height="31.576"><g fill="none" stroke="#fff" stroke-width="2"><path data-name="Icon ionic-ios-heart" d="M23.301 1h-.076a8.347 8.347 0 00-6.969 3.815A8.347 8.347 0 009.287 1h-.073A8.294 8.294 0 00.998 9.29a17.857 17.857 0 003.507 9.735c4.42 6.037 11.754 11.318 11.754 11.318s7.336-5.281 11.752-11.319a17.857 17.857 0 003.507-9.735A8.294 8.294 0 0023.301 1z"/><path data-name="Icon ionic-ios-heart" d="M23.301 1h-.076a8.347 8.347 0 00-6.969 3.815A8.347 8.347 0 009.287 1h-.073A8.294 8.294 0 00.998 9.29a17.857 17.857 0 003.507 9.735c4.42 6.037 11.754 11.318 11.754 11.318s7.336-5.281 11.752-11.319a17.857 17.857 0 003.507-9.735A8.294 8.294 0 0023.301 1z"/></g></svg>