<svg xmlns="http://www.w3.org/2000/svg" width="32.517" height="31.576" viewBox="0 0 32.517 31.576">
  <g id="Favourite" transform="translate(0.413 0.413)">
    <path id="Icon_ionic-ios-heart" data-name="Icon ionic-ios-heart" d="M25.676,3.938H25.6a8.347,8.347,0,0,0-6.969,3.815,8.347,8.347,0,0,0-6.969-3.815h-.073a8.294,8.294,0,0,0-8.216,8.29,17.857,17.857,0,0,0,3.507,9.735C11.3,28,18.634,33.281,18.634,33.281S25.97,28,30.386,21.962a17.857,17.857,0,0,0,3.507-9.735A8.294,8.294,0,0,0,25.676,3.938Z" transform="translate(-3.375 -3.938)" fill="#eb5a3c" opacity="0"/>
    <path id="Icon_ionic-ios-heart-2" data-name="Icon ionic-ios-heart" d="M25.676,3.938H25.6a8.347,8.347,0,0,0-6.969,3.815,8.347,8.347,0,0,0-6.969-3.815h-.073a8.294,8.294,0,0,0-8.216,8.29,17.857,17.857,0,0,0,3.507,9.735C11.3,28,18.634,33.281,18.634,33.281S25.97,28,30.386,21.962a17.857,17.857,0,0,0,3.507-9.735A8.294,8.294,0,0,0,25.676,3.938Z" transform="translate(-2.788 -3.351)" fill="none" stroke="#fff" stroke-width="2"/>
    <path id="Icon_ionic-ios-heart-3" data-name="Icon ionic-ios-heart" d="M25.676,3.938H25.6a8.347,8.347,0,0,0-6.969,3.815,8.347,8.347,0,0,0-6.969-3.815h-.073a8.294,8.294,0,0,0-8.216,8.29,17.857,17.857,0,0,0,3.507,9.735C11.3,28,18.634,33.281,18.634,33.281S25.97,28,30.386,21.962a17.857,17.857,0,0,0,3.507-9.735A8.294,8.294,0,0,0,25.676,3.938Z" transform="translate(-2.788 -3.351)" fill="none" stroke="#fff" stroke-width="2"/>
  </g>
</svg>
