<svg xmlns="http://www.w3.org/2000/svg" width="40" height="40"><g fill="#fff" fill-rule="evenodd"><path data-name="Path 2" d="M15.449 23.359h.048l.373.024.349.065.349.081.333.244.309.228.286.2.254.2.206.211.175.2.127.22.087.236.032.22.016.211-.016.374-.079.325-.111.3-.159.268-.2.228-.246.211-.294.171-.333.155-.381.106-.428.073-.468.057-.516.008-.428-.016-.4-.081-.389-.114-.357-.155-.317-.2-.286-.236-.238-.26-.2-.293-.151-.309-.1-.333-.016-.358.032-.325.1-.317.167-.3.222-.268.27-.26.309-.228.357-.2.4-.155.421-.122.436-.073.452-.033z"/><path data-name="Path 3" d="M14.945 12.064h.047l.323.056.308.1.315.176.292.232.26.28.237.32.205.36.173.391.134.431.079.431.024.367v.336l-.039.336-.079.3-.1.288-.134.256-.158.224-.166.176-.189.136-.2.088-.213.064-.237.016h-.016l-.323-.048-.308-.12-.315-.184-.276-.232-.268-.288-.244-.328-.205-.367-.181-.391-.134-.423-.079-.447-.024-.352v-.344l.039-.32.063-.3.11-.28.134-.256.15-.224.213-.2.237-.152.26-.088.284-.032z"/><path data-name="Path 4" d="M25.847 14.259l-.171.038-.152.1-.1.149-.038.188v3.377h-3.373l-.19.038-.152.1-.1.15-.028.169v.965l.028.188.1.15.152.1.19.038h3.373v3.377l.038.169.1.15.152.1.171.038h.959l.19-.038.142-.1.095-.15.038-.169v-3.377h3.391l.182-.038.142-.1.1-.15.038-.188v-.965l-.038-.169-.1-.15-.142-.1-.182-.038h-3.391v-3.377l-.038-.188-.095-.149-.142-.1-.19-.038zM15.635 9.934l-.646.038-.655.113-.665.187-.56.235-.541.282-.5.318-.465.366-.4.4-.351.431-.3.45-.237.489-.171.487-.114.517-.038.516.038.609.114.573.161.553.237.516.3.489.351.431.4.395.437.346.5.291.532.235.57.178.608.113.617.046-.057.329-.028.31.038.4.1.394.19.375h-.076l-.665.028-.636.085-.627.131-.6.169-.571.225-.551.262-.494.3-.465.338-.418.375-.37.413-.313.44-.247.478-.2.5-.133.516-.038.5.029.365.076.357.114.337.161.338.247.376.3.356.361.319.418.29.456.272.5.244.56.207.6.177.655.141.674.094.693.066.712.028.636-.028.608-.066.608-.094.57-.15.628-.215.579-.254.532-.31.475-.346.427-.376.361-.431.313-.451.256-.469.171-.507.114-.525.038-.534-.029-.554-.047-.506-.1-.479-.142-.45-.209-.413-.237-.4-.285-.376-.351-.356-.408-.357-.465-.346-.237-.179-.228-.188-.209-.2-.19-.187-.163-.188-.152-.16-.095-.15-.076-.131-.028-.094v-.112l.019-.113.019-.1.038-.113.066-.113.085-.113.123-.141.163-.15.2-.168.256-.207.418-.376.38-.384.323-.413.266-.422.2-.451.152-.469.095-.47.029-.487-.029-.581-.085-.545-.152-.525-.19-.478-.237-.451-.285-.384h.475l.152-.028.123-.066 1.33-.957.114-.1.057-.141.029-.132-.029-.15-.076-.13-.095-.113-.123-.056-.152-.028zM20.005 0l1.263.055 1.235.113 1.216.188 1.207.263 1.159.337 1.14.395 1.1.478 1.073.526 1.026.591.989.647.95.713.912.752.864.816.807.863.76.9.712.946.647 1 .589 1.023.532 1.079.475 1.1.4 1.136.332 1.164.266 1.191.19 1.229.114 1.238.038 1.258-.038 1.266-.114 1.239-.19 1.228-.266 1.182-.332 1.164-.4 1.144-.475 1.1-.532 1.079-.589 1.023-.647 1-.712.948-.76.9-.807.863-.864.816-.912.75-.95.714-.989.647-1.026.591-1.073.525-1.1.47-1.14.4-1.159.338-1.207.263-1.216.187-1.235.113-1.263.047-1.263-.047-1.255-.113-1.216-.187-1.187-.263-1.178-.338-1.121-.4-1.112-.47-1.064-.525-1.045-.591-.988-.647-.95-.714-.9-.75-.865-.816-.807-.863-.769-.9-.693-.948-.655-1-.589-1.023-.532-1.079-.465-1.1-.4-1.144-.342-1.164-.256-1.182-.19-1.228-.123-1.239-.038-1.266.038-1.258.123-1.238.19-1.229.256-1.191.342-1.164.4-1.136.465-1.1.532-1.079.589-1.023.655-1 .693-.946.769-.9.807-.863.865-.816.9-.752.95-.713.988-.647 1.045-.591 1.064-.526 1.112-.478 1.121-.395 1.178-.337 1.187-.263 1.216-.188 1.255-.113L20.005 0z"/></g></svg>