<svg xmlns="http://www.w3.org/2000/svg" width="17.797" height="15.111"><g fill="#fff"><path data-name="Path 826" d="M17.783 11.631v.825H9.03c-1.227 0-1.869-.58-3.061-.825a12.773 12.773 0 00-3.065-.37h-2.9a14.594 14.594 0 01.892-5.046V.6a.6.6 0 01.6-.6H8.01a.593.593 0 01.58.6v1.562H7.366a.228.228 0 00-.228.245.223.223 0 00.228.232H8.61v1.156a2.574 2.574 0 000 .37h-.04l-1.151.259a.272.272 0 00-.183.29.245.245 0 00.29.17l1.151-.263a3.489 3.489 0 00.611 1.316l-.892.7a.228.228 0 00-.107.214.219.219 0 00.245.214.245.245 0 00.138-.045l.924-.732.031-.031a1.271 1.271 0 00.214.2c.294.245.616.509.964.812l-.076.076-.718.892a.245.245 0 00-.062.183.223.223 0 00.245.214.183.183 0 00.17-.089l.736-.892a.156.156 0 00.045-.107c.415.321.857.642 1.3.964a.219.219 0 00-.089.076l-.629.995a.245.245 0 00.076.321.223.223 0 00.321-.062l.629-1.008a.25.25 0 00.031-.107 10.637 10.637 0 001.405.825.285.285 0 00-.045.062l-.491 1.053a.245.245 0 10.446.2l.491-1.071a.089.089 0 000-.062 4.078 4.078 0 001.022.277l.674.076a1.7 1.7 0 011.379.977 3.44 3.44 0 01.12.571z"/><path data-name="Path 827" d="M2.94 12.737a12.692 12.692 0 013.038.366c1.2.241 1.838.821 3.065.821h8.751v.291a.892.892 0 01-.892.892h-.352l-.134-.535h-.268l-.134.535h-1.063l-.134-.535h-.268l-.134.535h-1.066l-.134-.535h-.263l-.134.535h-1.066l-.134-.535h-.268l-.134.535H10.15l-.134-.535h-.268l-.134.535h-.946l-2.2-.714a.625.625 0 00-.678.241l-.339.473h-.91l-.134-.535h-.268l-.129.535H2.945l-.129-.535h-.268l-.134.535H1.348l-.134-.535H.946l-.134.535H.607a.593.593 0 01-.593-.611v-1.781z"/></g></svg>