<svg xmlns="http://www.w3.org/2000/svg" width="17.797" height="15.111" viewBox="0 0 17.797 15.111">
  <g id="hike" transform="translate(-244.618 -516.64)">
    <path id="Path_826" data-name="Path 826" d="M33.273,30.131v.825H24.52c-1.227,0-1.869-.58-3.061-.825a12.773,12.773,0,0,0-3.065-.37h-2.9a14.594,14.594,0,0,1,.892-5.046V19.1a.6.6,0,0,1,.6-.6h6.514a.593.593,0,0,1,.58.6v1.562H22.856a.228.228,0,0,0-.228.245.223.223,0,0,0,.228.232H24.1v1.156a2.574,2.574,0,0,0,0,.37H24.06l-1.151.259a.272.272,0,0,0-.183.29.245.245,0,0,0,.29.17l1.151-.263h0a3.489,3.489,0,0,0,.611,1.316l-.892.7a.228.228,0,0,0-.107.214.219.219,0,0,0,.245.214.245.245,0,0,0,.138-.045l.924-.732.031-.031a1.271,1.271,0,0,0,.214.2c.294.245.616.509.964.812l-.076.076-.718.892a.245.245,0,0,0-.062.183.223.223,0,0,0,.245.214.183.183,0,0,0,.17-.089l.736-.892a.156.156,0,0,0,.045-.107c.415.321.857.642,1.3.964a.219.219,0,0,0-.089.076l-.629.995a.245.245,0,0,0,.076.321.223.223,0,0,0,.321-.062l.629-1.008a.25.25,0,0,0,.031-.107,10.637,10.637,0,0,0,1.405.825.285.285,0,0,0-.045.062l-.491,1.053a.245.245,0,1,0,.446.2l.491-1.071a.089.089,0,0,0,0-.062,4.078,4.078,0,0,0,1.022.277l.674.076a1.7,1.7,0,0,1,1.379.977,3.44,3.44,0,0,1,.12.571Z" transform="translate(229.128 498.14)" fill="#fff"/>
    <path id="Path_827" data-name="Path 827" d="M18.446,47.022a12.692,12.692,0,0,1,3.038.366c1.2.241,1.838.821,3.065.821H33.3V48.5a.892.892,0,0,1-.892.892h-.352l-.134-.535h-.268l-.134.535H30.457l-.134-.535h-.268l-.134.535H28.855l-.134-.535h-.263l-.134.535H27.258l-.134-.535h-.268l-.134.535H25.656l-.134-.535h-.268l-.134.535h-.946l-2.2-.714a.625.625,0,0,0-.678.241l-.339.473h-.91l-.134-.535h-.268l-.129.535H18.451l-.129-.535h-.268l-.134.535H16.854l-.134-.535h-.268l-.134.535h-.205a.593.593,0,0,1-.593-.611V47Z" transform="translate(229.112 482.355)" fill="#fff"/>
  </g>
</svg>
