<svg xmlns="http://www.w3.org/2000/svg" width="24.214" height="20.657"><g fill="#fff"><path data-name="Path 863" d="M24.196 15.937v1.131h-11.91c-1.669 0-2.543-.795-4.164-1.131a17.263 17.263 0 00-4.17-.507H0a20.123 20.123 0 011.21-6.914v-7.7a.816.816 0 01.813-.819h8.867a.81.81 0 01.789.819v2.14h-1.657a.309.309 0 00-.228.1.313.313 0 00-.082.236.307.307 0 00.087.226.3.3 0 00.223.092h1.688V5.2a3.554 3.554 0 000 .507h-.049l-1.566.355a.373.373 0 00-.249.4.334.334 0 00.395.232l1.566-.361a4.8 4.8 0 00.832 1.8l-1.214.966a.312.312 0 00-.146.293.3.3 0 00.1.222.3.3 0 00.232.072.332.332 0 00.188-.061l1.257-1 .042-.043a1.735 1.735 0 00.291.269c.4.336.838.7 1.311 1.113l-.1.1-.977 1.223a.338.338 0 00-.085.251.307.307 0 00.1.22.3.3 0 00.23.074.248.248 0 00.231-.122l1-1.223a.215.215 0 00.061-.147c.565.44 1.166.88 1.766 1.32a.3.3 0 00-.121.1l-.856 1.363a.338.338 0 00.1.44.3.3 0 00.437-.086l.856-1.382a.344.344 0 00.042-.147 14.448 14.448 0 001.912 1.131.391.391 0 00-.061.086l-.668 1.443a.336.336 0 00.167.443.332.332 0 00.44-.168l.668-1.467a.123.123 0 000-.086 5.518 5.518 0 001.39.379l.917.1a2.308 2.308 0 011.876 1.339 4.743 4.743 0 01.171.789z"/><path data-name="Path 864" d="M3.999 17.405a17.155 17.155 0 014.134.5c1.639.33 2.5 1.125 4.17 1.125h11.91v.4a1.218 1.218 0 01-1.214 1.227h-.48l-.182-.734h-.364l-.182.734h-1.449l-.182-.734h-.361l-.182.734h-1.454l-.182-.734h-.358l-.182.734H15.99l-.182-.734h-.364l-.182.734H13.81l-.182-.734h-.364l-.182.734h-1.283l-2.99-.983a.847.847 0 00-.923.33l-.461.648H6.186l-.182-.734H5.64l-.176.734H4.007l-.176-.734h-.364l-.182.734H1.834l-.182-.734h-.364l-.182.734H.827a.8.8 0 01-.58-.247.816.816 0 01-.228-.591v-2.44z"/></g></svg>