<svg xmlns="http://www.w3.org/2000/svg" width="24.214" height="20.657" viewBox="0 0 24.214 20.657">
  <g id="hiking-icon" transform="translate(-9.393 -11.379)">
    <path id="Path_863" data-name="Path 863" d="M39.686,34.437v1.131H27.776c-1.669,0-2.543-.795-4.164-1.131a17.263,17.263,0,0,0-4.17-.507H15.49A20.123,20.123,0,0,1,16.7,27.016v-7.7a.816.816,0,0,1,.813-.819H26.38a.81.81,0,0,1,.789.819v2.14H25.512a.309.309,0,0,0-.228.1.313.313,0,0,0-.082.236.307.307,0,0,0,.087.226.3.3,0,0,0,.223.092H27.2V23.7a3.554,3.554,0,0,0,0,.507h-.049l-1.566.355a.373.373,0,0,0-.249.4.334.334,0,0,0,.395.232l1.566-.361h0a4.8,4.8,0,0,0,.832,1.8l-1.214.966a.312.312,0,0,0-.146.293.3.3,0,0,0,.1.222.3.3,0,0,0,.232.072.332.332,0,0,0,.188-.061l1.257-1,.042-.043a1.735,1.735,0,0,0,.291.269c.4.336.838.7,1.311,1.113l-.1.1-.977,1.223a.338.338,0,0,0-.085.251.307.307,0,0,0,.1.22.3.3,0,0,0,.23.074.248.248,0,0,0,.231-.122l1-1.223a.215.215,0,0,0,.061-.147c.565.44,1.166.88,1.766,1.32a.3.3,0,0,0-.121.1l-.856,1.363a.338.338,0,0,0,.1.44.3.3,0,0,0,.437-.086l.856-1.382a.344.344,0,0,0,.042-.147,14.448,14.448,0,0,0,1.912,1.131.391.391,0,0,0-.061.086l-.668,1.443a.336.336,0,0,0,.167.443.332.332,0,0,0,.44-.168l.668-1.467a.123.123,0,0,0,0-.086,5.518,5.518,0,0,0,1.39.379l.917.1a2.308,2.308,0,0,1,1.876,1.339A4.743,4.743,0,0,1,39.686,34.437Z" transform="translate(-6.097 -7.121)" fill="#fff"/>
    <path id="Path_864" data-name="Path 864" d="M19.5,47.031a17.155,17.155,0,0,1,4.134.5c1.639.33,2.5,1.125,4.17,1.125h11.91v.4A1.218,1.218,0,0,1,38.5,50.283h-.48l-.182-.734h-.364l-.182.734H35.843l-.182-.734H35.3l-.182.734H33.664l-.182-.734h-.358l-.182.734H31.491l-.182-.734h-.364l-.182.734H29.311l-.182-.734h-.364l-.182.734H27.3L24.31,49.3a.847.847,0,0,0-.923.33l-.461.648H21.687l-.182-.734h-.364l-.176.734H19.508l-.176-.734h-.364l-.182.734H17.335l-.182-.734h-.364l-.182.734h-.279a.8.8,0,0,1-.58-.247.816.816,0,0,1-.228-.591V47Z" transform="translate(-6.108 -18.247)" fill="#fff"/>
  </g>
</svg>
