<svg xmlns="http://www.w3.org/2000/svg" width="27.781" height="27.781" viewBox="0 0 27.781 27.781">
  <g id="ifb-blue" transform="translate(-1210.271 -690.213)">
    <circle id="Ellipse_147" data-name="Ellipse 147" cx="10.5" cy="10.5" r="10.5" transform="translate(1214 695)" fill="#fff"/>
    <g id="Group_2028" data-name="Group 2028" transform="translate(0 15)">
      <g id="Group_1" data-name="Group 1" transform="translate(1210.271 675.213)">
        <path id="Path_1" data-name="Path 1" d="M185.852,705.808l-.4.008-.366.041-.34.084-.307.093-.281.117-.255.133-.222.16-.213.176-.179.176-.162.2-.145.209-.11.218-.111.226-.085.226-.068.227-.051.226-.042.226-.026.218-.017.21v2.045h-1.592v2.842h1.592v8.056h3.346v-8.056h2.256l.3-2.842h-2.553v-1.676l.016-.192.043-.151.059-.134.077-.1.094-.084.11-.05.1-.033.1-.017.1-.008h1.8v-2.766l-2.469-.008Zm-1.226-6.313.877.033.861.076.842.134.835.184.809.235.792.277.757.327.749.369.715.4.682.452.664.5.638.519.6.57.554.6.528.629.5.661.451.7.409.712.366.746.323.762.281.789.239.813.179.821.127.855.077.855.035.881-.035.88-.077.855-.127.855-.179.821-.239.813-.281.788-.323.763-.366.746-.409.712-.451.7-.5.662-.528.629-.554.6-.6.561-.638.528-.664.495-.682.453-.715.4-.749.369-.757.327-.792.277-.809.235-.835.184-.842.134-.861.075-.877.034-.876-.034-.869-.075-.843-.134-.826-.184-.817-.235-.784-.277-.774-.327-.741-.369-.715-.4-.689-.453-.664-.495-.621-.528-.6-.561-.57-.6-.528-.629-.485-.662-.451-.7-.409-.712-.374-.746-.324-.763-.272-.788-.239-.813-.179-.821-.136-.855-.085-.855-.026-.88.026-.881.085-.855.136-.855.179-.821.239-.813.272-.789.324-.762.374-.746.409-.712.451-.7.485-.661.528-.629.57-.6.6-.57.621-.519.664-.5.689-.452.715-.4.741-.369.774-.327.784-.277.817-.235.826-.184.843-.134.869-.076.876-.033Z" transform="translate(-170.732 -699.495)" fill="#91b9b4" fill-rule="evenodd"/>
      </g>
    </g>
  </g>
</svg>
