<svg xmlns="http://www.w3.org/2000/svg" width="27.78" height="27.78" viewBox="0 0 27.78 27.78">
  <g id="imail-blue" transform="translate(-1276 -690.152)">
    <circle id="Ellipse_149" data-name="Ellipse 149" cx="13.89" cy="13.89" r="13.89" transform="translate(1276 690.152)" fill="#91b9b4"/>
    <g id="Group_2025" data-name="Group 2025" transform="translate(1281 622)">
      <path id="Path_6327" data-name="Path 6327" d="M357.582,101.721l-5.371,5.336,5.371,5.336a1.538,1.538,0,0,0,.156-.667v-9.338A1.538,1.538,0,0,0,357.582,101.721Z" transform="translate(-340.029 -24.831)" fill="#fff"/>
      <path id="Path_6328" data-name="Path 6328" d="M34.786,82.986l6.864-6.83A1.538,1.538,0,0,0,40.983,76h-14.6a1.538,1.538,0,0,0-.667.156l6.864,6.83A1.558,1.558,0,0,0,34.786,82.986Z" transform="translate(-24.831)" fill="#fff"/>
      <path id="Path_6329" data-name="Path 6329" d="M.156,101.721a1.538,1.538,0,0,0-.156.667v9.338a1.538,1.538,0,0,0,.156.667l5.371-5.336Z" transform="translate(0 -24.831)" fill="#fff"/>
      <path id="Path_6330" data-name="Path 6330" d="M35.52,277.971a2.6,2.6,0,0,1-3.668,0l-.76-.76-5.371,5.336a1.538,1.538,0,0,0,.667.156h14.6a1.538,1.538,0,0,0,.667-.156l-5.371-5.336Z" transform="translate(-24.831 -194.252)" fill="#fff"/>
    </g>
  </g>
</svg>
