<svg xmlns="http://www.w3.org/2000/svg" width="27.78" height="27.78"><g transform="translate(-1276 -690.152)"><circle data-name="Ellipse 149" cx="13.89" cy="13.89" r="13.89" transform="translate(1276 690.152)" fill="#91b9b4"/><g data-name="Group 2025" fill="#fff"><path data-name="Path 6327" d="M1298.553 698.89l-5.371 5.336 5.371 5.336a1.538 1.538 0 00.156-.667v-9.338a1.538 1.538 0 00-.156-.667z"/><path data-name="Path 6328" d="M1290.955 704.986l6.864-6.83a1.538 1.538 0 00-.667-.156h-14.6a1.538 1.538 0 00-.667.156l6.864 6.83a1.558 1.558 0 002.206 0z"/><path data-name="Path 6329" d="M1281.156 698.89a1.538 1.538 0 00-.156.667v9.338a1.538 1.538 0 00.156.667l5.371-5.336z"/><path data-name="Path 6330" d="M1291.689 705.719a2.6 2.6 0 01-3.668 0l-.76-.76-5.371 5.336a1.538 1.538 0 00.667.156h14.6a1.538 1.538 0 00.667-.156l-5.371-5.336z"/></g></g></svg>