<svg id="instagram" xmlns="http://www.w3.org/2000/svg" width="22" height="22" viewBox="0 0 22 22">
  <path id="Path_5" data-name="Path 5" d="M136.734,713.036l.3.02.291.06.27.1.254.133.237.167.21.2.178.213.14.22.119.247.081.246.054.267.016.28-.016.287-.065.286-.086.26-.129.247-.151.233-.183.207-.21.18-.227.153-.248.133-.264.087-.28.06-.291.02-.3-.02-.275-.06-.27-.087-.248-.133-.227-.153-.2-.18-.189-.207-.151-.233-.124-.247-.092-.26-.054-.286-.022-.287.016-.28.049-.267.092-.246.108-.247.14-.22.183-.213.21-.2.232-.167.254-.133.275-.1.291-.06.3-.02Z" transform="translate(-125.735 -704.237)" fill="#fff" fill-rule="evenodd"/>
  <path id="Path_6" data-name="Path 6" d="M143.955,708.915h.266v2.1l-2,.007-.005-2.1,1.743-.007Z" transform="translate(-128.456 -702.771)" fill="#fff" fill-rule="evenodd"/>
  <path id="Path_7" data-name="Path 7" d="M128.162,704.05l-.3.02-.287.054-.281.089-.265.116-.248.157-.215.177-.209.2-.171.224-.149.246-.127.259-.088.279-.056.293-.016.3v7.679l.016.306.056.286.088.279.127.266.149.238.171.225.209.2.215.177.248.15.265.116.281.088.287.062.3.02h7.675l.3-.02.292-.062.276-.088.27-.116.243-.15.226-.177.2-.2.176-.225.154-.238.116-.266.088-.279.055-.286.023-.306v-7.679l-.023-.3-.055-.293-.088-.279-.116-.259-.154-.246-.176-.224-.2-.2-.226-.177-.243-.157-.27-.116-.276-.089-.292-.054-.3-.02ZM132,699.3l.7.027.684.061.668.1.657.15.64.184.629.217.607.266.59.286.563.32.546.361.518.395.507.409.475.45.436.47.42.5.4.524.353.552.326.559.287.593.265.607.22.627.182.64.149.654.1.675.066.681.017.695-.017.7-.066.681-.1.674-.149.654-.182.633-.22.627-.265.606-.287.593-.326.565-.353.552-.4.518-.42.5-.436.477-.475.443-.507.415-.518.388-.546.361-.563.32-.59.293-.607.258-.629.218-.64.191-.657.143-.668.1-.684.061-.7.027-.695-.027-.69-.061-.668-.1-.651-.143-.646-.191-.624-.218-.612-.258-.585-.293-.568-.32-.546-.361-.518-.388-.5-.415-.475-.443-.447-.477-.42-.5-.386-.518-.359-.552-.326-.565-.292-.593-.259-.606-.215-.627-.187-.633-.144-.654-.1-.674-.072-.681-.017-.7.017-.695.072-.681.1-.675.144-.654.187-.64.215-.627.259-.607.292-.593.326-.559.359-.552.386-.524.42-.5.447-.47.475-.45.5-.409.518-.395.546-.361.568-.32.585-.286.612-.266.624-.217.646-.184.651-.15.668-.1.69-.061L132,699.3Z" transform="translate(-121 -699.301)" fill="#fff" fill-rule="evenodd"/>
  <path id="Path_8" data-name="Path 8" d="M130.157,714.562h1.806l-.1.3-.08.315-.043.315-.016.335.021.362.053.355.091.342.128.328.16.308.187.288.214.268.24.241.256.221.289.188.3.161.321.127.337.094.353.06.358.02.363-.02.342-.06.342-.094.321-.127.3-.161.283-.188.267-.221.235-.241.214-.268.187-.288.16-.308.128-.328.091-.342.053-.355.021-.362-.011-.335-.053-.315-.075-.315-.107-.3h1.811V719.6l-.021.208-.053.208-.085.181-.112.161-.139.141-.166.121-.182.087-.192.054-.214.02h-7.433l-.2-.02-.2-.054-.182-.087-.16-.121-.139-.141-.112-.161-.085-.181-.053-.208-.021-.208v-5.038Z" transform="translate(-124.086 -704.76)" fill="#fff" fill-rule="evenodd"/>
</svg>
