<svg xmlns="http://www.w3.org/2000/svg" width="27.729" height="27.729" viewBox="0 0 27.729 27.729">
  <g id="itwitter-blue" transform="translate(-1243.271 -690.213)">
    <circle id="Ellipse_148" data-name="Ellipse 148" cx="10.5" cy="10.5" r="10.5" transform="translate(1247 694)" fill="#fff"/>
    <path id="Subtraction_1" data-name="Subtraction 1" d="M13.865,27.729a13.864,13.864,0,0,1-9.8-23.668A13.864,13.864,0,1,1,23.668,23.668,13.77,13.77,0,0,1,13.865,27.729ZM6.471,18.87h0a9,9,0,0,0,4.941,1.464,9.144,9.144,0,0,0,9.169-9.291c0-.137,0-.274-.01-.422a6.526,6.526,0,0,0,1.614-1.695,6.7,6.7,0,0,1-1.856.515,3.243,3.243,0,0,0,1.417-1.805,6.357,6.357,0,0,1-2.043.79,3.213,3.213,0,0,0-5.573,2.233,3.312,3.312,0,0,0,.075.744,9.119,9.119,0,0,1-6.64-3.416A3.349,3.349,0,0,0,7.123,9.64a3.275,3.275,0,0,0,1.43,2.714,3.143,3.143,0,0,1-1.454-.4v.035A3.274,3.274,0,0,0,9.68,15.2a3.16,3.16,0,0,1-.845.108,2.7,2.7,0,0,1-.61-.057,3.257,3.257,0,0,0,3.01,2.275,6.454,6.454,0,0,1-3.994,1.393A5.844,5.844,0,0,1,6.471,18.87Z" transform="translate(1243.271 690.213)" fill="#91b9b4"/>
  </g>
</svg>
