<svg xmlns="http://www.w3.org/2000/svg" width="27.729" height="27.729"><g transform="translate(-1243.271 -690.213)"><circle data-name="Ellipse 148" cx="10.5" cy="10.5" r="10.5" transform="translate(1247 694)" fill="#fff"/><path data-name="Subtraction 1" d="M1257.136 717.942a13.864 13.864 0 01-9.8-23.668 13.864 13.864 0 1119.603 19.607 13.77 13.77 0 01-9.803 4.061zm-7.394-8.859a9 9 0 004.941 1.464 9.144 9.144 0 009.169-9.291c0-.137 0-.274-.01-.422a6.526 6.526 0 001.614-1.695 6.7 6.7 0 01-1.856.515 3.243 3.243 0 001.417-1.805 6.357 6.357 0 01-2.043.79 3.213 3.213 0 00-5.573 2.233 3.312 3.312 0 00.075.744 9.119 9.119 0 01-6.64-3.416 3.349 3.349 0 00-.442 1.653 3.275 3.275 0 001.43 2.714 3.143 3.143 0 01-1.454-.4v.035a3.274 3.274 0 002.581 3.211 3.16 3.16 0 01-.845.108 2.7 2.7 0 01-.61-.057 3.257 3.257 0 003.01 2.275 6.454 6.454 0 01-3.994 1.393 5.844 5.844 0 01-.77-.049z" fill="#91b9b4"/></g></svg>