<svg xmlns="http://www.w3.org/2000/svg" width="194" height="44"><g fill="#fff"><path data-name="Path 287" d="M91.758 6.21l.918-3.6 1 3.6zm3.126 4.363h2.408L94.299.119h-3.113l-2.754 10.454h2.221l.585-2.294h3.006zm-10.15 0h2.394V.149h-2.394zM80.597 7.55c0 .64-.346.953-1.21.953h-1.729V6.284h1.729c.865 0 1.21.313 1.21.968zm-2.94-5.331h1.463c.865 0 1.211.283 1.211.923v.3c0 .64-.346.968-1.211.968h-1.463zm3.924 3.053a2.232 2.232 0 001.144-2.129v-.3c0-1.638-.825-2.7-3.605-2.7h-3.858v10.424h4.124c2.78 0 3.6-1.087 3.6-2.725v-.3a2.2 2.2 0 00-1.41-2.278m-13.156.938l.918-3.6 1 3.6zm3.126 4.363h2.408L70.961.111h-3.113l-2.754 10.454h2.222l.585-2.294h3.006zM58.909 2.211h1.516c.9 0 1.2.4 1.2 1.1v.3c0 .685-.292 1.087-1.2 1.087h-1.516zm5.281 8.354l-1.955-4.006c1.291-.417 1.783-1.429 1.783-2.948v-.3c0-2.04-.865-3.172-3.419-3.172h-4.084v10.424h2.394V6.78h.931l1.7 3.783zM49.677 6.202l.918-3.6 1 3.6zm3.126 4.363h2.408L52.218.111h-3.111l-2.754 10.454h2.222l.585-2.294h3.006zm-13.608 0h2.394V.149h-2.394zm-4.137-4.289c0 1.742-.359 2.218-1.716 2.218h-1.756V2.21h1.756c1.357 0 1.716.476 1.716 2.219zM33.342.14h-4.151v10.424h4.151c3.312 0 4.11-1.087 4.11-5.064v-.3c0-3.961-.8-5.063-4.11-5.063m-12.025 0h-2.394v5.525c0 3.8.759 5.048 4.018 5.048h.266c3.272 0 4.017-1.444 4.017-5.048V.137H24.83v6.388c0 1.474-.306 2.115-1.623 2.115h-.266c-1.3 0-1.623-.64-1.623-2.115zm-8.966 6.061l.918-3.6 1 3.6zm3.126 4.363h2.408L14.892.107h-3.113L9.025 10.561h2.221l.586-2.294h3.006zM4.463 4.173c-1.25-.09-1.9-.149-1.9-1.072 0-.745.253-1.028 2.182-1.028a20.891 20.891 0 012.847.342v-2A14.344 14.344 0 004.2-.017C1.167-.017.13 1.219.13 3.334c0 2.71 2.009 3.1 3.365 3.172 1.476.1 2.142.134 2.142 1.072 0 .745-.266 1.057-2.275 1.057a25.043 25.043 0 01-3.365-.343v2a17.712 17.712 0 003.924.417c3.086 0 4.15-1.251 4.15-3.365 0-2.815-2.049-3.068-3.6-3.172"/><path data-name="Path 288" d="M114.847 24.268c0 2.916-.957 4.274-4.323 4.274h-4.851v-9.346h4.851c3.365 0 4.323 1.358 4.323 4.274zm3.96 0v-.8c0-5.312-2.046-8.228-8.084-8.228h-9.009v27.958h3.96v-10.7h3.366l5.115 10.7h4.488l-5.445-10.9c4.125-.719 5.61-3.475 5.61-8.028"/><path data-name="Path 289" d="M140.037 31.058c0 7.429-1.122 8.987-5.51 8.987h-.66c-4.422 0-5.544-1.558-5.544-8.987v-2.876c0-7.429 1.122-8.986 5.544-8.986h.66c4.389 0 5.51 1.557 5.51 8.986zm3.96-1.038v-.8c0-10.9-1.98-13.979-9.47-13.979h-.66c-7.524 0-9.5 3.075-9.5 13.979v.8c0 11.183 1.98 13.979 9.5 13.979h.66c7.49 0 9.47-3.035 9.47-13.979"/><path data-name="Path 290" d="M162.107 31.737h-6.2l2.97-11.942zm7.227 11.623l-7.821-28.118h-5.016l-7.26 28.118h3.762l1.914-7.709h8.25l2.079 7.709z"/><path data-name="Path 291" d="M190.04 30.579c0 7.109-1.122 8.667-5.51 8.667h-5.412v-20.05h5.412c4.389 0 5.51 1.557 5.51 8.667zm3.96-.959v-.8c0-10.5-1.98-13.58-9.47-13.58h-9.372v27.958h9.372c7.49 0 9.47-3.035 9.47-13.58"/><path data-name="Path 292" d="M15.674 31.059c0 7.429-1.122 8.987-5.51 8.987h-.66c-4.422 0-5.544-1.558-5.544-8.987v-2.876c0-7.429 1.122-8.987 5.544-8.987h.66c4.389 0 5.51 1.558 5.51 8.987zm3.96-1.038v-.8c0-10.9-1.98-13.979-9.47-13.979h-.66c-7.524 0-9.5 3.075-9.5 13.979v.8C.004 41.204 1.984 44 9.504 44h.66c7.491 0 9.47-3.036 9.47-13.979"/><path data-name="Path 293" d="M43.295 19.196v-3.954h-16.17V43.2h3.96V32.057h9.57v-3.954h-9.57v-8.907z"/><path data-name="Path 294" d="M66.434 19.196v-3.954H50.265V43.2h3.96V32.057h9.57v-3.954h-9.57v-8.907z"/><path data-name="Rectangle 211" d="M74.576 28.419h18.883v3.682H74.576z"/></g></svg>