<svg xmlns="http://www.w3.org/2000/svg" width="185" height="42"><g fill="#ff7f00"><path data-name="Path 287" d="M87.502 5.928l.875-3.44.952 3.44zm2.981 4.165h2.3L89.929.114h-2.968l-2.626 9.979h2.118l.558-2.189h2.867zm-9.679 0h2.283V.143h-2.28zm-3.945-2.886c0 .611-.33.91-1.154.91h-1.649V5.999h1.649c.825 0 1.154.3 1.154.924zm-2.8-5.089h1.4c.825 0 1.155.27 1.155.881v.284c0 .611-.33.924-1.155.924h-1.4zm3.742 2.914a2.132 2.132 0 001.091-2.033v-.284c0-1.564-.786-2.573-3.438-2.573h-3.679v9.95h3.932c2.651 0 3.438-1.038 3.438-2.6v-.285A2.1 2.1 0 0077.8 5.032m-12.546.9l.875-3.44.951 3.44zm2.981 4.165h2.3L67.681.118h-2.974l-2.626 9.979H64.2l.558-2.189h2.867zM56.184 2.123h1.446c.863 0 1.142.384 1.142 1.052v.285c0 .654-.279 1.037-1.142 1.037h-1.446zm5.036 7.974l-1.865-3.824c1.231-.4 1.7-1.364 1.7-2.814v-.285c0-1.947-.824-3.028-3.26-3.028h-3.894v9.95h2.283V6.485h.888l1.624 3.611zM47.38 5.932l.875-3.44.951 3.44zm2.981 4.165h2.3L49.807.118h-2.969l-2.626 9.979h2.119l.558-2.189h2.867zm-12.976 0h2.283V.147h-2.283zM33.44 6.003c0 1.663-.343 2.118-1.637 2.118h-1.674v-6h1.674c1.294 0 1.637.455 1.637 2.118zM31.803.146h-3.958v9.95h3.958c3.159 0 3.92-1.038 3.92-4.833v-.284c0-3.781-.761-4.833-3.92-4.833m-11.467 0h-2.283V5.42c0 3.625.723 4.819 3.831 4.819h.254c3.12 0 3.831-1.379 3.831-4.819V.146h-2.283v6.1c0 1.407-.292 2.019-1.547 2.019h-.254c-1.243 0-1.548-.611-1.548-2.019zm-8.55 5.786l.875-3.44.951 3.44zm2.981 4.165h2.3L14.213.118h-2.968l-2.626 9.979h2.118l.558-2.189h2.867zm-10.5-6.1c-1.193-.085-1.814-.142-1.814-1.023 0-.711.241-.981 2.081-.981a19.915 19.915 0 012.715.327V.42A13.665 13.665 0 004.014.007c-2.892 0-3.882 1.18-3.882 3.2 0 2.587 1.915 2.956 3.209 3.028 1.408.1 2.042.128 2.042 1.023 0 .711-.254 1.009-2.169 1.009A23.857 23.857 0 01.005 7.94v1.9a16.873 16.873 0 003.742.4c2.943 0 3.958-1.194 3.958-3.212C7.705 4.341 5.751 4.1 4.267 4"/><path data-name="Path 288" d="M109.518 23.169c0 2.783-.913 4.079-4.122 4.079h-4.626v-8.921h4.626c3.209 0 4.122 1.3 4.122 4.079zm3.776 0v-.762c0-5.071-1.951-7.854-7.709-7.854h-8.591V41.24h3.776V31.019h3.21l4.878 10.218h4.28l-5.192-10.408c3.933-.686 5.349-3.317 5.349-7.663"/><path data-name="Path 289" d="M133.541 29.647c0 7.091-1.07 8.578-5.255 8.578h-.63c-4.217 0-5.287-1.487-5.287-8.578v-2.744c0-7.091 1.07-8.578 5.287-8.578h.63c4.185 0 5.255 1.487 5.255 8.578zm3.776-.991v-.763c0-10.408-1.888-13.344-9.031-13.344h-.63c-7.175 0-9.063 2.936-9.063 13.344v.763c0 10.675 1.888 13.344 9.063 13.344h.63c7.143 0 9.031-2.9 9.031-13.344"/><path data-name="Path 290" d="M154.587 30.294h-5.916l2.832-11.4zm6.891 11.094l-7.458-26.84h-4.783l-6.923 26.84h3.587l1.825-7.358h7.867l1.982 7.358z"/><path data-name="Path 291" d="M181.224 29.189c0 6.786-1.07 8.273-5.255 8.273h-5.161V18.323h5.161c4.185 0 5.255 1.487 5.255 8.273zM185 28.27v-.763c0-10.027-1.888-12.962-9.031-12.962h-8.937v26.687h8.937c7.143 0 9.031-2.9 9.031-12.962"/><path data-name="Path 292" d="M14.947 29.647c0 7.091-1.07 8.578-5.255 8.578h-.629c-4.217 0-5.287-1.487-5.287-8.578v-2.745c0-7.091 1.07-8.578 5.287-8.578h.629c4.185 0 5.255 1.487 5.255 8.578zm3.776-.991v-.762c0-10.408-1.888-13.344-9.031-13.344h-.629C1.888 14.55 0 17.486 0 27.894v.762C0 39.331 1.888 42 9.063 42h.629c7.143 0 9.031-2.9 9.031-13.344"/><path data-name="Path 293" d="M41.286 18.328v-3.774H25.867v26.687h3.776V30.6h9.126v-3.772h-9.126v-8.5z"/><path data-name="Path 294" d="M63.352 18.328v-3.774H47.933v26.687h3.776V30.6h9.126v-3.772h-9.126v-8.5z"/><path data-name="Rectangle 211" d="M71.116 27.127h18.007v3.514H71.116z"/></g></svg>