<svg data-name="Ministry of Culture" xmlns="http://www.w3.org/2000/svg" width="64" height="40"><defs><clipPath id="a"><path data-name="Rectangle 213" fill="none" d="M0 0h64v40H0z"/></clipPath></defs><path data-name="Path 295" d="M2.994 23.796l-.577-.586-.577.586.577.586z" fill="#fff"/><path data-name="Path 296" d="M.483 23.796l.577.586.576-.586-.576-.586z" fill="#fff"/><path data-name="Path 297" d="M12.68 23.75l-.577-.586-.577.586.577.586z" fill="#fff"/><g data-name="Group 502"><g data-name="Group 501" clip-path="url(#a)"><path data-name="Path 298" d="M1.616 28.03a2.144 2.144 0 01-.375-.033 1.2 1.2 0 01-.318-.1.583.583 0 01-.217-.179.456.456 0 01-.079-.275.564.564 0 01.143-.371 1.349 1.349 0 01.388-.3 2.678 2.678 0 01.559-.218 4.038 4.038 0 01.656-.124l.018 1.475a2.138 2.138 0 01-.775.128m10.854-.67a1.686 1.686 0 01-.466.065.9.9 0 01-.6-.174.632.632 0 01-.208-.514.935.935 0 01.231-.645.734.734 0 01.573-.261.63.63 0 01.568.32 2.474 2.474 0 01.263 1.035 1.02 1.02 0 01-.365.174m.655-1.566a1.178 1.178 0 00-1.094-.733 1.2 1.2 0 00-.554.133 1.381 1.381 0 00-.448.367 1.8 1.8 0 00-.3.549 2 2 0 00-.112.674 1.341 1.341 0 00.347.984 1.273 1.273 0 00.955.353 1.614 1.614 0 00.521-.082 1.41 1.41 0 00.43-.229v.641c0 .122-.2.214-.61.275s-7.343.092-8.143.092H3.9a1.02 1.02 0 01-.656-.169.675.675 0 01-.194-.564l.037-3.105-.73.128v.559a4.091 4.091 0 00-1.741.724 1.486 1.486 0 00-.623 1.2 1.139 1.139 0 00.12.527 1.137 1.137 0 00.323.39 1.452 1.452 0 00.475.237 2.006 2.006 0 00.586.083 1.824 1.824 0 00.914-.22q.157 1.036 1.488 1.035h.213c.326 0 6.946 0 7.192-.014s.465-.025.656-.05a4.607 4.607 0 00.494-.088 1.994 1.994 0 00.383-.133.99.99 0 00.509-.481 2.267 2.267 0 00.147-.921 4.885 4.885 0 00-.374-2.161" fill="#fff"/></g></g><path data-name="Path 299" d="M24.4 24.72l-.577-.586-.577.586.577.586z" fill="#fff"/><path data-name="Path 300" d="M25.748 24.72l-.577-.586-.577.586.577.586z" fill="#fff"/><path data-name="Path 301" d="M35.175 24.574l-.577-.586-.577.586.577.586z" fill="#fff"/><path data-name="Path 302" d="M35.272 26.341l.577-.586-.577-.585-.576.585z" fill="#fff"/><path data-name="Path 303" d="M34.501 25.755l-.577-.585-.577.585.577.586z" fill="#fff"/><g data-name="Group 504"><g data-name="Group 503" clip-path="url(#a)"><path data-name="Path 304" d="M24.497 28.596q-.85-.274-.85-.908a.879.879 0 01.064-.338.888.888 0 01.18-.276.808.808 0 01.273-.183.869.869 0 01.333-.064.879.879 0 01.333.064.8.8 0 01.272.183.874.874 0 01.18.276.865.865 0 01.065.338q0 .633-.85.908m18.725-4.737l.027 4.489a.3.3 0 01-.1.22.722.722 0 01-.25.146 1.618 1.618 0 01-.346.077c-.129.015-6.581.022-6.722.022-.732 0-1.1-.188-1.1-.567 0-.048.012-.179.036-.394s.053-.448.083-.705l-.628-.074q-.018.12-.037.276t-.045.311l-.056.307-.047.251a.635.635 0 01-.364.458c-.194.092-6.818.137-7.224.137-.185 0-.361 0-.527-.008s-.321-.016-.462-.028a1.47 1.47 0 00.481-1.118 1.737 1.737 0 00-.116-.636 1.662 1.662 0 00-.314-.518 1.508 1.508 0 00-.462-.348 1.25 1.25 0 00-.558-.128 1.256 1.256 0 00-.559.128 1.509 1.509 0 00-.462.348 1.662 1.662 0 00-.314.518 1.734 1.734 0 00-.115.636 1.447 1.447 0 00.48 1.118c-.148.012-.3.021-.471.028s-6.672.008-6.85.008a1 1 0 01-.652-.168.707.707 0 01-.2-.564l.037-4.351-.73.128.037 4.5q.019 1.282 1.506 1.283c.345 0 7.018-.028 7.349-.083a5.538 5.538 0 00.942-.239 5.573 5.573 0 00.941.239 6.3 6.3 0 001.017.083c.388 0 7.055-.055 7.336-.161a1.179 1.179 0 00.6-.454 1.529 1.529 0 001.44.615c.23 0 6.769-.023 6.976-.069a1.663 1.663 0 00.554-.23 1.253 1.253 0 00.4-.421 1.261 1.261 0 00.152-.646l.038-4.544z" fill="#fff"/></g></g><path data-name="Path 305" d="M45.112 23.804l.047 5.865h.641l.047-6z" fill="#fff"/><g data-name="Group 506"><g data-name="Group 505" clip-path="url(#a)" fill="#fff"><path data-name="Path 306" d="M50.795 25.3l-.573-.578.573-.577.573.577zm.3 3.051a2.367 2.367 0 00-.07-.591 1.542 1.542 0 00-.2-.468.992.992 0 00-.3-.306.719.719 0 00-.388-.111.78.78 0 00-.374.1.966.966 0 00-.31.261 1.357 1.357 0 00-.207.385 1.379 1.379 0 00-.079.467.738.738 0 00.249.6 1.1 1.1 0 00.72.206 1.578 1.578 0 00.37-.042 1.006 1.006 0 00.305-.119.766.766 0 00.207-.174.323.323 0 00.079-.206m-1.644-3.051l-.572-.578.572-.577.573.577zm2.272 2.969a1.354 1.354 0 01-.424 1.049 1.66 1.66 0 01-1.164.39 1.688 1.688 0 01-1.191-.38 1.428 1.428 0 01-.406-1.1 2.71 2.71 0 01.129-.846 2.533 2.533 0 01.346-.7 1.7 1.7 0 01.508-.476 1.173 1.173 0 01.613-.174 1.2 1.2 0 01.623.174 1.655 1.655 0 01.5.476 2.475 2.475 0 01.337.71 2.95 2.95 0 01.125.875"/><path data-name="Path 307" d="M51.458 30.751a6.465 6.465 0 00.923-.421 4.787 4.787 0 00.735-.5 2.609 2.609 0 00.484-.522.9.9 0 00.176-.5 1.462 1.462 0 00-.065-.376 4.3 4.3 0 00-.18-.5q-.116-.27-.272-.563t-.333-.568l.664-.367a4.207 4.207 0 01.61 1.136 3.49 3.49 0 01.222 1.164 2.284 2.284 0 01-.665 1.58 4.684 4.684 0 01-1.875 1.159z"/></g></g><path data-name="Path 308" d="M55.595 23.804l.047 5.865h.641l.047-6z" fill="#fff"/><g data-name="Group 508"><g data-name="Group 507" clip-path="url(#a)" fill="#fff"><path data-name="Path 309" d="M58.533 25.694l-.573-.577.573-.577.573.577zm-1.69 5.057a6.469 6.469 0 00.923-.421 4.751 4.751 0 00.734-.5 2.617 2.617 0 00.485-.522.9.9 0 00.175-.5 1.454 1.454 0 00-.064-.376 4.275 4.275 0 00-.18-.5 8.364 8.364 0 00-.605-1.131l.665-.367a4.233 4.233 0 01.61 1.136 3.489 3.489 0 01.222 1.164 2.283 2.283 0 01-.665 1.58 4.685 4.685 0 01-1.875 1.158z"/><path data-name="Path 310" d="M62.485 28.826a1.758 1.758 0 00.5-.073 1.173 1.173 0 00.383-.183 2.45 2.45 0 00-.273-1.119.727.727 0 00-.651-.394.733.733 0 00-.587.266 1.035 1.035 0 00-.226.7.774.774 0 00.226.6.876.876 0 00.623.211m-1.469 1.9q2-.276 2.3-1.438a1.378 1.378 0 01-.43.211 1.781 1.781 0 01-.521.074 1.239 1.239 0 01-.979-.422 1.623 1.623 0 01-.369-1.109 2.188 2.188 0 01.111-.709 1.788 1.788 0 01.305-.563 1.363 1.363 0 01.461-.371 1.281 1.281 0 01.581-.133 1.256 1.256 0 011.122.646 3.449 3.449 0 01.4 1.818 2.684 2.684 0 01-.189 1.016 2.56 2.56 0 01-.536.825 2.879 2.879 0 01-.836.59 3.664 3.664 0 01-1.09.316z"/></g></g><path data-name="Path 311" d="M4.338 32.794l-1.665 2.845-1.664-2.845H.255L0 38.262h.739l.188-4.165 1.517 2.549h.394l1.541-2.582.181 4.2h.77l-.255-5.468z" fill="#fff"/><path data-name="Path 312" d="M6.306 34.45h.737v3.812h-.737zm.364-1.68l.585.585-.585.585-.586-.585z" fill="#fff"/><g data-name="Group 510"><g data-name="Group 509" clip-path="url(#a)"><path data-name="Path 313" d="M8.038 38.287v-3.518c0-.051 0-.131-.009-.238h.7l.025.565c.049-.065.109-.135.179-.214a1.25 1.25 0 01.261-.214 1.532 1.532 0 01.362-.162 1.565 1.565 0 01.468-.065 1.353 1.353 0 011.1.429 1.757 1.757 0 01.357 1.163v2.254h-.733v-2.2a1.113 1.113 0 00-.227-.772.836.836 0 00-.644-.246 1 1 0 00-.529.129 1 1 0 00-.338.335 1.457 1.457 0 00-.183.469 2.5 2.5 0 00-.057.537v1.745z" fill="#fff"/></g></g><path data-name="Path 314" d="M12.372 34.45h.737v3.812h-.737zm.364-1.68l.585.585-.585.585-.585-.585z" fill="#fff"/><g data-name="Group 512"><g data-name="Group 511" clip-path="url(#a)" fill="#fff"><path data-name="Path 315" d="M14.324 37.343a1.534 1.534 0 00.49.323 1.665 1.665 0 00.658.121 1.421 1.421 0 00.611-.117.387.387 0 00.244-.368.453.453 0 00-.052-.222.478.478 0 00-.18-.165 1.528 1.528 0 00-.334-.134q-.208-.061-.517-.134a3.158 3.158 0 01-.436-.129 1.409 1.409 0 01-.387-.214 1.036 1.036 0 01-.278-.322.927.927 0 01-.105-.457.887.887 0 01.127-.481 1.1 1.1 0 01.337-.347 1.63 1.63 0 01.477-.214 2.046 2.046 0 01.549-.073 2.408 2.408 0 01.827.126 1.907 1.907 0 01.608.351l-.4.5a1.5 1.5 0 00-.427-.259 1.6 1.6 0 00-.6-.1 1.186 1.186 0 00-.562.113.389.389 0 00-.212.372.385.385 0 00.281.36 4.639 4.639 0 00.736.222 4.521 4.521 0 01.5.15 1.5 1.5 0 01.407.218.986.986 0 01.278.328 1.008 1.008 0 01.1.469.935.935 0 01-.13.5 1.163 1.163 0 01-.35.361 1.675 1.675 0 01-.5.218 2.452 2.452 0 01-.6.072 2.1 2.1 0 01-1.612-.573z"/><path data-name="Path 316" d="M18.249 35.137h-.683v-.605h.683v-1.228h.732v1.228h1.108v.605h-1.108v1.85a1 1 0 00.143.623.5.5 0 00.4.169.839.839 0 00.35-.065 1.1 1.1 0 00.277-.195l.334.445a1.564 1.564 0 01-.485.327 1.56 1.56 0 01-.59.1 1.109 1.109 0 01-.883-.323 1.509 1.509 0 01-.281-1.01z"/><path data-name="Path 317" d="M21.114 38.287v-3.522c0-.048 0-.127-.009-.234h.7l.025.606a2 2 0 01.171-.214 1.317 1.317 0 01.256-.214 1.646 1.646 0 01.351-.165 1.4 1.4 0 01.46-.069 1.409 1.409 0 01.225.016 1.193 1.193 0 01.191.048l-.164.679a1.053 1.053 0 00-.374-.057 1.07 1.07 0 00-.436.088 1.047 1.047 0 00-.346.247 1.2 1.2 0 00-.233.367 1.173 1.173 0 00-.084.444v1.979z"/><path data-name="Path 318" d="M24.223 39.208a.979.979 0 00.187.129.553.553 0 00.261.056.424.424 0 00.224-.056.56.56 0 00.172-.174 1.77 1.77 0 00.145-.282q.071-.165.159-.384l.1-.242-1.693-3.724h.838l1.22 2.836 1.076-2.836h.8l-1.515 3.659q-.105.259-.215.57a3.628 3.628 0 01-.274.589 1.639 1.639 0 01-.4.465.938.938 0 01-.594.185 1.3 1.3 0 01-.48-.077 1.136 1.136 0 01-.342-.206z"/><path data-name="Path 319" d="M31.319 37.77a1.188 1.188 0 00.53-.116 1.243 1.243 0 00.4-.308 1.31 1.31 0 00.249-.436 1.538 1.538 0 00.086-.505 1.516 1.516 0 00-.086-.5 1.343 1.343 0 00-.253-.441 1.3 1.3 0 00-.4-.31 1.147 1.147 0 00-.526-.117 1.172 1.172 0 00-.529.117 1.25 1.25 0 00-.4.307 1.331 1.331 0 00-.249.436 1.551 1.551 0 00-.086.505 1.507 1.507 0 00.086.5 1.33 1.33 0 00.253.436 1.283 1.283 0 00.4.311 1.155 1.155 0 00.525.116m0 .63a2.016 2.016 0 01-.806-.158 1.907 1.907 0 01-.631-.431 2.028 2.028 0 01-.414-.634 1.95 1.95 0 01-.152-.771 1.949 1.949 0 01.152-.772 2.022 2.022 0 01.414-.634 1.934 1.934 0 01.631-.433 2.029 2.029 0 01.806-.157 2.006 2.006 0 01.8.157 1.98 1.98 0 01.635.433 2.008 2.008 0 01.419.634 1.978 1.978 0 01.151.772 1.979 1.979 0 01-.151.771 2.015 2.015 0 01-.419.634 1.953 1.953 0 01-.635.431 1.994 1.994 0 01-.8.158"/><path data-name="Path 320" d="M34.439 35.137h-.685v-.606h.685v-.307a1.782 1.782 0 01.11-.658 1.291 1.291 0 01.293-.457 1.159 1.159 0 01.42-.262 1.432 1.432 0 01.5-.086 1.92 1.92 0 01.591.093 1.408 1.408 0 01.532.319l-.366.469a.989.989 0 00-.643-.25.667.667 0 00-.508.2 1 1 0 00-.192.695v.242h1.084v.606h-1.084v3.15h-.732z"/><path data-name="Path 321" d="M43.301 37.343a1.947 1.947 0 01-.277.332 2.572 2.572 0 01-.457.35 2.764 2.764 0 01-.618.279 2.5 2.5 0 01-.773.113 2.806 2.806 0 01-1.1-.21 2.513 2.513 0 01-.854-.585 2.674 2.674 0 01-.558-.889 3.059 3.059 0 01-.2-1.119 3.044 3.044 0 01.2-1.106 2.782 2.782 0 01.558-.9 2.578 2.578 0 01.858-.61 2.7 2.7 0 011.112-.223 2.623 2.623 0 01.774.105 2.6 2.6 0 01.6.263 2.318 2.318 0 01.44.343 2.573 2.573 0 01.3.355l-.555.468a3.247 3.247 0 00-.231-.286 1.6 1.6 0 00-.321-.27 1.884 1.884 0 00-.431-.2 1.8 1.8 0 00-.562-.081 1.828 1.828 0 00-.8.17 1.8 1.8 0 00-.6.46 2.019 2.019 0 00-.379.679 2.554 2.554 0 00-.13.823 2.472 2.472 0 00.134.82 2 2 0 00.379.667 1.74 1.74 0 00.594.445 1.855 1.855 0 00.782.162 1.9 1.9 0 00.63-.094 1.815 1.815 0 00.448-.222 1.719 1.719 0 00.3-.263l.2-.222z"/><path data-name="Path 322" d="M44.066 34.531h.734v2.2a1.121 1.121 0 00.219.772.822.822 0 00.635.238.983.983 0 00.526-.129 1.034 1.034 0 00.338-.336 1.368 1.368 0 00.183-.468 2.726 2.726 0 00.052-.537v-1.745h.734v3.526c0 .079 0 .156.008.231h-.7l-.025-.558a2.86 2.86 0 01-.179.21 1.236 1.236 0 01-.261.205 1.624 1.624 0 01-.359.158 1.544 1.544 0 01-.463.065 1.334 1.334 0 01-1.092-.424 1.765 1.765 0 01-.351-1.159z"/></g></g><path data-name="Rectangle 219" fill="#fff" d="M48.492 32.794h.739v5.468h-.739z"/><g data-name="Group 514"><g data-name="Group 513" clip-path="url(#a)" fill="#fff"><path data-name="Path 323" d="M50.556 35.137h-.683v-.605h.683v-1.228h.732v1.228h1.108v.605h-1.108v1.85a1 1 0 00.143.623.5.5 0 00.4.169.836.836 0 00.35-.065 1.1 1.1 0 00.277-.195l.334.445a1.56 1.56 0 01-.484.327 1.568 1.568 0 01-.591.1 1.109 1.109 0 01-.883-.323 1.509 1.509 0 01-.281-1.01z"/><path data-name="Path 324" d="M53.251 34.531h.734v2.2a1.12 1.12 0 00.219.772.822.822 0 00.634.238.984.984 0 00.526-.129 1.034 1.034 0 00.338-.336 1.356 1.356 0 00.183-.468 2.726 2.726 0 00.052-.537v-1.745h.734v3.526c0 .079 0 .156.009.231h-.7l-.025-.558a2.86 2.86 0 01-.179.21 1.242 1.242 0 01-.261.205 1.628 1.628 0 01-.359.158 1.544 1.544 0 01-.463.065 1.333 1.333 0 01-1.091-.424 1.765 1.765 0 01-.351-1.159z"/><path data-name="Path 325" d="M57.689 38.287v-3.522c0-.048 0-.127-.009-.234h.7l.025.606a2 2 0 01.171-.214 1.308 1.308 0 01.256-.214 1.635 1.635 0 01.352-.165 1.4 1.4 0 01.459-.069 1.407 1.407 0 01.225.016 1.2 1.2 0 01.191.048l-.164.679a1.053 1.053 0 00-.374-.057 1.068 1.068 0 00-.436.088 1.06 1.06 0 00-.346.247 1.215 1.215 0 00-.232.367 1.173 1.173 0 00-.084.444v1.979z"/><path data-name="Path 326" d="M63.242 36.081a1.214 1.214 0 00-.309-.742 1 1 0 00-.782-.307 1.169 1.169 0 00-.468.089 1.127 1.127 0 00-.355.234 1.068 1.068 0 00-.227.335 1.081 1.081 0 00-.09.392zm.66 1.656a2.424 2.424 0 01-.2.186 1.671 1.671 0 01-.338.218 2.655 2.655 0 01-.489.181 2.44 2.44 0 01-.64.077 2.149 2.149 0 01-.806-.146 1.771 1.771 0 01-.628-.412 1.835 1.835 0 01-.4-.638 2.28 2.28 0 01-.143-.824 2.131 2.131 0 01.139-.771 1.826 1.826 0 01.391-.622 1.852 1.852 0 01.6-.417 1.862 1.862 0 01.761-.154 1.766 1.766 0 01.839.186 1.653 1.653 0 01.574.493 2.1 2.1 0 01.329.7 3.186 3.186 0 01.105.823h-2.988a1.139 1.139 0 00.11.461 1.171 1.171 0 00.273.363 1.3 1.3 0 00.39.242 1.225 1.225 0 00.465.088 1.7 1.7 0 00.79-.162 1.592 1.592 0 00.447-.315z"/><path data-name="Path 327" d="M50.697 2.468c-.4 5.377.089 10.733-.04 16.157-.024 1 .1 2.064.027 3.066-.009.118-.044.208-.225.211a2.453 2.453 0 00-.749 0c-.08-.718-.05-1.274-.115-1.893a37.948 37.948 0 01-.074-3.922c-.02-2.519-.235-5.085-.05-7.6a31.863 31.863 0 00.027-3.263 23.66 23.66 0 01-.039-2.752 5.016 5.016 0 011.236-.008"/><path data-name="Path 328" d="M5.702.954c.443.043.638.174.673.667.051.738-.058 1.141.022 1.864.264 2.406-.3 4.845-.049 7.252.135 1.272.006 2.416.051 3.694.068 1.9-.019 4.055-.066 6.284H.362a5.662 5.662 0 01-.107-2.161 5.933 5.933 0 00.05-1.025c-.013-1.4.074-2.646.063-4.046a16.025 16.025 0 00-.151-2.461c-.12-.718.066-1.976-.042-2.7-.135-.9-.207-6.3-.159-7.338 0 0 4.984-.1 5.686-.034"/><path data-name="Path 329" d="M16.65 2.215c-.343-.126-.291.275-.286.487 0 .195 0 .317-.005.579-.007.52.038 1.938.044 2.45.01.862.065 1.613.051 2.291a60.411 60.411 0 00.018 3.831c.132 3.178-.023 6.364.073 9.523.008.274.182.35.435.414l.37.061c-.012-2.706.2-5.543.031-8.241-.072-1.125-.029-2.249-.032-3.378 0-1.082-.009-2.165.011-3.247.012-.657.005-1.313-.016-1.969a9.19 9.19 0 00-.2-2.6c-.134-.132-.263-.123-.489-.207"/><path data-name="Path 330" d="M10.753 19.628c.363-.008.292-.275.289-.49 0-.2.045-.32.05-.583.01-.524-.027-1.955-.031-2.471-.006-.868-.057-1.626-.038-2.31a60.646 60.646 0 000-3.862c-.115-3.205.057-6.416-.022-9.6-.008-.276-.19-.29-.5-.3l-.433.02c0 2.729.028 5.632.067 8.536.016 1.137 0 2.023 0 3.16 0 1.091.021 1.962.019 3.054 0 .578-.027 1.216-.033 2.019a9.609 9.609 0 00.147 2.618.516.516 0 00.489.212"/><path data-name="Path 331" d="M18.61 21.301c-.332-.042-.377-.19-.366-.566.034-1.117-.038-3.5-.158-4.959a19.253 19.253 0 01.088-3.976 20.909 20.909 0 00-.051-2.7c-.007-1.474.084-2.627.077-3.622 0-.612-.023-1.226-.052-1.838a45.971 45.971 0 01-.016-1.974 2.256 2.256 0 01.528-.015 1.84 1.84 0 01.7.18 15.111 15.111 0 01.1 2.5c0 .4-.028 2.074 0 2.475.045.668.021 1.341.026 2.012.005.855.057 1.707.056 2.562 0 1.085-.093 2.163-.118 3.247-.05 2 .2 4.574.183 6.243 0 .332.035.51-.322.51l-.67-.083"/><path data-name="Path 332" d="M48.854 20.386c.068-.829-.111-2.11-.114-2.777 0-.39-.045-2.006-.021-2.4.042-.647.01-1.3.01-1.948 0-.827.046-1.653.037-2.48-.011-1.05-.114-2.093-.15-3.141-.077-2.182.247-5.085.112-6.623A8.837 8.837 0 0046.75.884a23.416 23.416 0 00-.114 3.917c.015.962-.071 2.08-.051 3.507a30.072 30.072 0 01.18 3.258 17.2 17.2 0 00-.06 3.849c.178 1.827.113 4.825.136 4.865z"/><path data-name="Path 333" d="M54.666 20.433c.088-2.257.076-3.624.113-5.572.027-1.375-.2-3.119-.168-4.567a45.755 45.755 0 00-.134-6.035c-.048-.555.033-1.6.011-2.159-.014-.374-.028-.855-.043-1.228a9.439 9.439 0 003.261.095 23.379 23.379 0 016.025.014 3.743 3.743 0 01.248 1.475 24.2 24.2 0 00-.019 2.684c.053 1.535-.236 2.892-.236 5.061 0 1.425.216 2.361.265 3.31.051.976-.12 1.794-.057 3.343.039.955.017 3.458.034 3.687 0 0-6.762.039-8.2-.132a2.758 2.758 0 00-1.1.024"/><path data-name="Path 334" d="M42.297.054c.037 3.371.068 7.108.235 10.154.056 1.015.027 2.288.067 3.447.018.515-.072 1.545-.113 2.23-.033.555-.019 1.11-.005 1.666a14.712 14.712 0 01-.024 1.847 3.6 3.6 0 00-1.1 0 4.547 4.547 0 01-.035-1.347c.071-4.045-.213-7-.146-10.726a46.734 46.734 0 00-.113-4.066 16.871 16.871 0 01.082-3.257A9.108 9.108 0 0142.3.054"/><path data-name="Path 335" d="M53.65.234c.1 1.739.023 2.884.057 4.38.03 1.314.176 2.433.1 3.941-.069 1.3.065 2.6.093 3.908q.041 1.9.066 3.8c.022.982.045 1.871.046 2.855 0 .164-.02.516-.018.681a2.914 2.914 0 00-.689-.036 6.655 6.655 0 01-1.772-.072c-.212-.048-.034-3.476-.027-3.791q.033-1.932.021-3.864c-.005-1.3-.129-2.686-.154-3.988-.025-1.318.048-2.553.013-3.87s-.075-2.459-.109-3.788c-.008-.271.249-.412.681-.3.574.157 1.176-.031 1.7.135"/><path data-name="Path 336" d="M8.642 1.867a.867.867 0 01.7.874c.011.637 0 1.2-.016 1.755-.017.619-.036 1.224-.028 1.9.034 2.751.154 5.378.03 8.227-.105 2.413.119 4.768.093 6.98-.741-.042-1.618-.108-2.334-.141.2-4.083.073-7.948.026-12.2-.027-2.39.369-4.254.033-7.437a6.208 6.208 0 011.492.042"/><path data-name="Path 337" d="M21.771 7.616a9.091 9.091 0 011.579-.762 2.971 2.971 0 00-2.57.223c-.712.449-.474 1.689-.566 2.484a5.1 5.1 0 011.556-1.944m-1.292 10.965c-.036.794.012 1.435.027 2.36a13.527 13.527 0 012.041.064c.755.046 1.555-.036 2.312.065a7.042 7.042 0 00-4.38-2.489m3.887-5.971a13.025 13.025 0 00-.274 1.295 94.5 94.5 0 01-.17 1.173.363.363 0 01-.134-.183 6.278 6.278 0 01-.326-2.371c.141-2.279.959-2.884.963-2.878-.368-.208-1.109.65-1.5 1.191-.52.724-.43 1.221-.5 2.344-.278-.055-.554-.516-.572-.856a5.083 5.083 0 011.554-4.063 4.175 4.175 0 00-1.18.2 2.976 2.976 0 00-1.553 1.454c-.726 1.4-.263 3.075-.364 4.608-.058.884.072 1.754.063 2.64-.007.668-.177.793.5.853a6.542 6.542 0 01.793.121 7.534 7.534 0 013.97 2.211c.178-2.046.2-3.931.2-5.986 0-.811.135-2.55-.411-3.244s-.936 1.027-1.065 1.49m16.077-1.674c-.051-1.455-.04-4.2.07-5.664.124-1.625-.281-4.084-1.187-4.031a24.194 24.194 0 00-2.444.085c-.635.031-1.445.035-2.079.088a19.326 19.326 0 01-2.3-.047c-1.361 0-2.535.11-3.9.111a56.67 56.67 0 01-4.1-.132 38.984 38.984 0 00-3.945-.238c-.184.005-.291.831-.327 1.842-.035.975-.1 3.085-.018 4.1a2.951 2.951 0 012.092-1.081 7.993 7.993 0 011.922.011 4.738 4.738 0 00-.815-.755 1.674 1.674 0 00-.754-.4c-.348-.05-.71-.017-1.061-.036a1.935 1.935 0 011.8-.633c.593.082 1.588 1.1 1.946.825.4-.31.242-1.529.769-1.661.43-.108.714 1.516.92 1.874a3.019 3.019 0 011.982-1.139c.406-.047 1.657.1 1.826.694a2.69 2.69 0 00-2.583 1.132 3.981 3.981 0 014.013.538 3.78 3.78 0 01.767.82 1.078 1.078 0 01.274.868c-.521-.1-1-.991-1.9-1.265a3.969 3.969 0 00-2.315.042c1.71.275 4.072 2.532 3.256 4.381-.264.6-.337.2-.43-.3a2.852 2.852 0 00-.566-1.325 7.1 7.1 0 00-.826-.932 2.939 2.939 0 00-1.506-.606c1.1.307 1.809 2.481 1.9 2.713a5.123 5.123 0 01.241 1.807c.009.345.037 1.544-.4 1.659a6.142 6.142 0 00-2-4.565 5.627 5.627 0 01.521 3.141 3.939 3.939 0 01-.389 1.6c-.057.117-.276.651-.363.669-.276.062-.129-1.625-.172-1.922-.051-.368-.721-2.861-1.424-2.249-.358.311-.176 1.712-.131 2.336.053.766.147 1.883.16 2.651a35.027 35.027 0 00.28 4.308c1.841-.983 9.944-5.1 11.1-1.7 0 .108-.063.031-.063.031-.792-1.176-2.954-.57-4.035-.24a27.83 27.83 0 00-5.51 2.508c2.866.007 7.283 0 10.556 0a1.326 1.326 0 001.332-1.366 55.867 55.867 0 01-.034-1.921c0-.8.042-1.671.064-2.47.044-1.6-.167-2.547-.224-4.145"/><path data-name="Path 338" d="M45.423 1.605a.218.218 0 01.189.21c.054 2.212.1 4.2.246 6.489a19.329 19.329 0 01-.029 3.31c-.176 1.4.185 2.537.085 3.946-.132 1.858.145 3.384.039 5.243l-2.327.05c-.192.007-.366-.174-.339-.618s-.011-2.359-.011-3.8a39.661 39.661 0 00.032-4.372c-.079-.788.11-1.628.063-2.42a106.98 106.98 0 01-.159-4.124c-.018-.848 0-2.152-.025-2.985-.02-.581.109-1.008.431-1.152.37-.165 1.385.161 1.8.217"/><path data-name="Path 339" d="M11.837 18.558c-.023.537-.034.721-.034.923 0 .135.121.158.23.219.074.039.7.17.9.214a3.088 3.088 0 00.613.062c.6-.009 1.2.2 1.8.141a.149.149 0 00.056-.019.519.519 0 00.264-.444c.07-.508-.07-.951.008-1.876s.009-3.43.015-4.033c.038-4.564-.224-4.639-.107-8.161a16.622 16.622 0 00-.128-2.956 8.443 8.443 0 01-.116-1.819.348.348 0 00-.323-.415c-1-.051-3.091.107-3.091.107a5.087 5.087 0 00-.107 1.515c.021.431-.063 1.14-.063 1.571 0 .487-.033.971-.011 1.455.06 1.3.1 2.606.055 3.909-.1 3.3.191 5.215.063 8.459z"/></g></g></svg>