<svg xmlns="http://www.w3.org/2000/svg" width="30" height="30" viewBox="0 0 30 30">
  <g id="photo" transform="translate(-1528 -624)">
    <circle id="Ellipse_124" data-name="Ellipse 124" cx="15" cy="15" r="15" transform="translate(1528 624)" fill="#00a38b"/>
    <g id="Group_1267" data-name="Group 1267" transform="translate(1535 632.415)">
      <path id="Path_801" data-name="Path 801" d="M454.833,473.1h-1.84l-.256-1.618a.7.7,0,0,0-.7-.6h-3.782a.713.713,0,0,0-.7.6L447.3,473.1h-2.487v-.306a.494.494,0,0,0-.495-.495h-1.414a.493.493,0,0,0-.493.495v.323a1.88,1.88,0,0,0-1.857,1.892v7a1.9,1.9,0,0,0,1.907,1.907h12.352a1.9,1.9,0,0,0,1.909-1.907v-7A1.881,1.881,0,0,0,454.833,473.1Zm-10.6,8.263a.613.613,0,0,1-1.227,0v-5.691a.613.613,0,1,1,1.227,0Zm4.43-9.234a.189.189,0,0,1,.187-.187h2.59a.189.189,0,0,1,.187.187v.8a.189.189,0,0,1-.187.187h-2.59a.189.189,0,0,1-.187-.187Zm1.482,10.188a3.8,3.8,0,1,1,3.8-3.8A3.8,3.8,0,0,1,450.148,482.316Z" transform="translate(-440.557 -470.885)" fill="#fff"/>
      <path id="Path_802" data-name="Path 802" d="M446.871,474.209a1.7,1.7,0,1,0,1.7,1.7A1.709,1.709,0,0,0,446.871,474.209Z" transform="translate(-437.042 -468.034)" fill="#fff"/>
    </g>
  </g>
</svg>
