<svg xmlns="http://www.w3.org/2000/svg" width="30" height="30"><g transform="translate(-1528 -624)"><circle data-name="Ellipse 124" cx="15" cy="15" r="15" transform="translate(1528 624)" fill="#00a38b"/><g data-name="Group 1267" fill="#fff"><path data-name="Path 801" d="M1549.276 634.63h-1.84l-.256-1.618a.7.7 0 00-.7-.6h-3.782a.713.713 0 00-.7.6l-.255 1.618h-2.487v-.306a.494.494 0 00-.495-.495h-1.414a.493.493 0 00-.493.495v.323a1.88 1.88 0 00-1.857 1.892v7a1.9 1.9 0 001.907 1.907h12.352a1.9 1.9 0 001.909-1.907v-7a1.881 1.881 0 00-1.889-1.909zm-10.6 8.263a.614.614 0 01-1.227 0v-5.691a.614.614 0 111.227 0zm4.43-9.234a.189.189 0 01.187-.187h2.59a.189.189 0 01.187.187v.8a.189.189 0 01-.187.187h-2.59a.189.189 0 01-.187-.187zm1.482 10.188a3.8 3.8 0 113.8-3.8 3.8 3.8 0 01-3.797 3.799z"/><path data-name="Path 802" d="M1544.829 638.59a1.7 1.7 0 101.7 1.7 1.709 1.709 0 00-1.7-1.7z"/></g></g></svg>