<svg data-name="Group 1230" xmlns="http://www.w3.org/2000/svg" width="110.364" height="32.896"><defs><linearGradient id="a" x1=".915" y1="1.782" x2="-.383" y2="1.113" gradientUnits="objectBoundingBox"><stop offset="0" stop-color="#00a0ff"/><stop offset=".007" stop-color="#00a1ff"/><stop offset=".26" stop-color="#00beff"/><stop offset=".512" stop-color="#00d2ff"/><stop offset=".76" stop-color="#00dfff"/><stop offset="1" stop-color="#00e3ff"/></linearGradient><linearGradient id="b" x1="1.076" y1="2.938" x2="-1.305" y2="2.938" gradientUnits="objectBoundingBox"><stop offset="0" stop-color="#ffe000"/><stop offset=".409" stop-color="#ffbd00"/><stop offset=".775" stop-color="orange"/><stop offset="1" stop-color="#ff9c00"/></linearGradient><linearGradient id="c" x1=".862" y1="1.443" x2="-.501" y2="-.327" gradientUnits="objectBoundingBox"><stop offset="0" stop-color="#ff3a44"/><stop offset="1" stop-color="#c31162"/></linearGradient><linearGradient id="d" x1="-.188" y1="4.163" x2=".421" y2="3.373" gradientUnits="objectBoundingBox"><stop offset="0" stop-color="#32a071"/><stop offset=".068" stop-color="#2da771"/><stop offset=".476" stop-color="#15cf74"/><stop offset=".801" stop-color="#06e775"/><stop offset="1" stop-color="#00f076"/></linearGradient></defs><rect data-name="Rectangle 427" width="110.101" height="32.896" rx="5"/><g data-name="Group 1231"><g data-name="Group 1230"><path data-name="Path 818" d="M106.277.654a3.437 3.437 0 013.434 3.434v24.525a3.437 3.437 0 01-3.434 3.434H4.088a3.437 3.437 0 01-3.434-3.434V4.088A3.437 3.437 0 014.088.654h102.189m0-.654H4.088A4.1 4.1 0 000 4.088v24.525a4.1 4.1 0 004.088 4.088h102.189a4.1 4.1 0 004.088-4.088V4.088A4.1 4.1 0 00106.277 0z" fill="#a6a6a6"/></g></g><g data-name="Group 1232" fill="#fff" stroke="#fff" stroke-miterlimit="10" stroke-width=".2"><path data-name="Path 819" d="M38.766 8.374a2.214 2.214 0 01-.609 1.637 2.377 2.377 0 01-1.8.726 2.562 2.562 0 110-5.124 2.532 2.532 0 011.006.205 2.022 2.022 0 01.768.548l-.431.432a1.66 1.66 0 00-1.343-.582 1.959 1.959 0 101.37 3.371 1.547 1.547 0 00.411-.994h-1.781v-.589h2.376a2.033 2.033 0 01.033.37z"/><path data-name="Path 820" d="M42.533 6.326H40.3v1.556h2.014v.589H40.3v1.556h2.233v.6H39.67V5.723h2.863z"/><path data-name="Path 821" d="M45.19 10.628h-.63v-4.3h-1.37v-.6h3.371v.6h-1.37z"/><path data-name="Path 822" d="M49 10.628V5.723h.629v4.905z"/><path data-name="Path 823" d="M52.425 10.628h-.63v-4.3h-1.37v-.6h3.371v.6h-1.37z"/><path data-name="Path 824" d="M60.177 9.993a2.545 2.545 0 01-3.6 0 2.649 2.649 0 010-3.637 2.539 2.539 0 013.593 0 2.641 2.641 0 010 3.634zm-3.131-.41a1.887 1.887 0 002.665 0 2.09 2.09 0 000-2.815 1.885 1.885 0 00-2.665 0 2.092 2.092 0 000 2.815z"/><path data-name="Path 825" d="M61.784 10.628V5.723h.767l2.384 3.815h.028l-.028-.945v-2.87h.631v4.905h-.658l-2.494-4h-.027l.027.946v3.055z"/></g><path data-name="Path 826" d="M55.702 17.782a3.477 3.477 0 103.49 3.478 3.428 3.428 0 00-3.49-3.478zm0 5.584a2.113 2.113 0 111.962-2.107 2.011 2.011 0 01-1.962 2.107zm-7.614-5.584a3.477 3.477 0 103.49 3.478 3.428 3.428 0 00-3.49-3.478zm0 5.584a2.112 2.112 0 111.963-2.107 2.011 2.011 0 01-1.963 2.107zm-9.057-4.517v1.475h3.53a3.074 3.074 0 01-.8 1.857 3.611 3.611 0 01-2.726 1.08 3.925 3.925 0 010-7.849 3.767 3.767 0 012.661 1.053l1.041-1.04a5.148 5.148 0 00-3.7-1.489 5.4 5.4 0 100 10.8 4.938 4.938 0 003.767-1.515 4.875 4.875 0 001.278-3.451 4.765 4.765 0 00-.079-.921zm37.041 1.145a3.233 3.233 0 00-2.977-2.213 3.305 3.305 0 00-3.28 3.478 3.4 3.4 0 003.451 3.477 3.458 3.458 0 002.9-1.541l-1.185-.791a1.984 1.984 0 01-1.712.961 1.769 1.769 0 01-1.689-1.049l4.649-1.924zm-4.742 1.159a1.907 1.907 0 011.817-2.028 1.346 1.346 0 011.291.737zm-3.78 3.371h1.528V14.305H67.55zm-2.5-5.966h-.052a2.412 2.412 0 00-1.831-.777 3.48 3.48 0 000 6.955 2.371 2.371 0 001.831-.791h.052v.5c0 1.331-.711 2.042-1.857 2.042a1.924 1.924 0 01-1.752-1.239l-1.33.553a3.312 3.312 0 003.082 2.054c1.791 0 3.305-1.054 3.305-3.622v-6.241h-1.449zm-1.751 4.807a2.115 2.115 0 010-4.214 2.124 2.124 0 010 4.214zm19.932-9.06h-3.656v10.22H81.1v-3.872h2.13a3.179 3.179 0 100-6.348zm.039 4.926H81.1v-3.5h2.17a1.752 1.752 0 110 3.5zm9.427-1.468a2.865 2.865 0 00-2.721 1.565l1.355.566a1.445 1.445 0 011.394-.75 1.469 1.469 0 011.6 1.315v.1a3.377 3.377 0 00-1.591-.394c-1.46 0-2.945.8-2.945 2.3a2.362 2.362 0 002.534 2.251 2.15 2.15 0 001.946-1h.054v.789h1.472V20.59a2.8 2.8 0 00-3.101-2.827zm-.184 5.6c-.5 0-1.2-.25-1.2-.868 0-.788.867-1.091 1.617-1.091a2.721 2.721 0 011.394.342 1.849 1.849 0 01-1.814 1.618zm8.652-5.378l-1.752 4.431h-.052l-1.815-4.431h-1.643l2.721 6.193-1.552 3.445h1.591l4.195-9.638zm-13.742 6.54h1.525V14.306h-1.525z" fill="#fff"/><g data-name="Group 1234"><path data-name="Path 827" d="M93.539 78.1a1.637 1.637 0 00-.379 1.149v18.08a1.636 1.636 0 00.379 1.149l.061.059 10.128-10.128v-.239L93.6 78.038z" transform="translate(-85.008 -71.935)" fill="url(#a)"/><path data-name="Path 828" d="M109.462 93.29l-3.376-3.377v-.239l3.376-3.377.077.043 4 2.273a1.241 1.241 0 010 2.36l-4 2.273z" transform="translate(-87.367 -73.442)" fill="url(#b)"/><path data-name="Path 829" d="M107.265 94.027l-3.453-3.453-10.189 10.189a1.33 1.33 0 001.7.05l11.943-6.785" transform="translate(-85.092 -74.222)" fill="url(#c)"/><path data-name="Path 830" d="M107.265 84.774l-11.943-6.785a1.329 1.329 0 00-1.7.05l10.189 10.189z" transform="translate(-85.092 -71.875)" fill="url(#d)"/><g data-name="Group 1233"><path data-name="Path 831" d="M22.096 19.729L10.23 26.471a1.361 1.361 0 01-1.637.009l-.061.061.06.059a1.36 1.36 0 001.637-.009l11.943-6.785z" opacity=".2" style="isolation:isolate"/><path data-name="Path 832" d="M8.531 26.422a1.637 1.637 0 01-.379-1.149v.119a1.636 1.636 0 00.379 1.149l.061-.061z" opacity=".12" style="isolation:isolate"/></g><path data-name="Path 833" d="M26.171 17.413l-4.076 2.316.077.076 4-2.273a1.436 1.436 0 00.858-1.18 1.524 1.524 0 01-.859 1.061z" opacity=".12" style="isolation:isolate"/><path data-name="Path 834" d="M10.229 6.233l15.942 9.058a1.523 1.523 0 01.858 1.061 1.436 1.436 0 00-.858-1.18L10.229 6.114c-1.142-.649-2.077-.11-2.077 1.2v.119c0-1.308.94-1.849 2.077-1.2z" fill="#fff" opacity=".25" style="isolation:isolate"/></g></svg>