<svg xmlns="http://www.w3.org/2000/svg" width="72" height="72"><g data-name="QR Code"><g data-name="Group 2315" fill="#fff"><path data-name="Path 12186" d="M0 0h2.919v17.514H0z"/><path data-name="Path 12187" d="M0 17.27h2.919v2.919H0z"/><path data-name="Path 12188" d="M0 23.027h2.919v2.919H0z"/><path data-name="Path 12189" d="M0 37.339h2.919v11.68H0z"/><path data-name="Path 12190" d="M0 51.779h2.919v5.835H0z"/><path data-name="Path 12191" d="M0 57.405h2.919v8.757H0z"/><path data-name="Path 12192" d="M0 66.162h2.919V72H0z"/><path data-name="Path 12193" d="M2.919 0h2.919v2.919H2.919z"/><path data-name="Path 12194" d="M2.919 17.27h2.919v2.919H2.919z"/><path data-name="Path 12195" d="M2.919 31.662h2.919v2.92H2.919z"/><path data-name="Path 12196" d="M2.919 40.297h2.919v2.919H2.919z"/><path data-name="Path 12197" d="M2.919 51.81h2.919v2.919H2.919z"/><path data-name="Path 12198" d="M2.919 69.081h2.919V72H2.919z"/><path data-name="Path 12199" d="M5.838 0h2.919v2.919H5.838z"/><path data-name="Path 12200" d="M5.838 5.838h2.919v8.757H5.838z"/><path data-name="Path 12201" d="M5.838 17.27h2.919v2.919H5.838z"/><path data-name="Path 12202" d="M5.838 25.889h2.919v5.838H5.838z"/><path data-name="Path 12203" d="M5.838 34.54h2.919v2.919H5.838z"/><path data-name="Path 12204" d="M5.838 43.149h2.919v5.838H5.838z"/><path data-name="Path 12205" d="M5.838 51.81h2.919v2.919H5.838z"/><path data-name="Path 12206" d="M5.838 57.405h2.919v8.757H5.838z"/><path data-name="Path 12207" d="M5.838 69.081h2.919V72H5.838z"/><path data-name="Path 12208" d="M8.757 0h2.914v2.919H8.757z"/><path data-name="Path 12209" d="M8.757 5.838h2.914v8.757H8.757z"/><path data-name="Path 12210" d="M8.757 17.27h2.914v2.919H8.757z"/><path data-name="Path 12211" d="M8.757 23.013h2.914v5.838H8.757z"/><path data-name="Path 12212" d="M8.757 31.662h2.914v2.92H8.757z"/><path data-name="Path 12213" d="M8.757 43.176h2.914v2.919H8.757z"/><path data-name="Path 12214" d="M8.757 51.81h2.914v2.919H8.757z"/><path data-name="Path 12215" d="M8.757 57.405h2.914v8.757H8.757z"/><path data-name="Path 12216" d="M8.757 69.081h2.914V72H8.757z"/><path data-name="Path 12217" d="M11.678 0h2.919v2.919h-2.919z"/><path data-name="Path 12218" d="M11.678 5.838h2.919v8.757h-2.919z"/><path data-name="Path 12219" d="M11.678 17.27h2.919v2.919h-2.919z"/><path data-name="Path 12220" d="M11.678 23.013h2.919v5.838h-2.919z"/><path data-name="Path 12221" d="M11.678 31.643h2.919v5.838h-2.919z"/><path data-name="Path 12222" d="M11.678 43.149h2.919v5.838h-2.919z"/><path data-name="Path 12223" d="M11.678 51.81h2.919v2.919h-2.919z"/><path data-name="Path 12224" d="M11.678 57.405h2.919v8.757h-2.919z"/><path data-name="Path 12225" d="M11.678 69.081h2.919V72h-2.919z"/><path data-name="Path 12226" d="M14.392 0h2.919v2.919h-2.919z"/><path data-name="Path 12227" d="M14.392 17.27h2.919v2.919h-2.919z"/><path data-name="Path 12228" d="M14.392 23.027h2.919v2.919h-2.919z"/><path data-name="Path 12229" d="M14.392 28.783h2.919v2.919h-2.919z"/><path data-name="Path 12230" d="M14.392 31.662h2.919v2.92h-2.919z"/><path data-name="Path 12231" d="M14.392 40.272h2.919v5.838h-2.919z"/><path data-name="Path 12232" d="M14.392 51.81h2.919v2.919h-2.919z"/><path data-name="Path 12233" d="M14.392 69.081h2.919V72h-2.919z"/><path data-name="Path 12234" d="M17.27 0h2.919v17.514H17.27z"/><path data-name="Path 12235" d="M17.27 17.27h2.919v2.919H17.27z"/><path data-name="Path 12236" d="M17.27 23.027h2.919v2.919H17.27z"/><path data-name="Path 12237" d="M17.27 28.783h2.919v2.919H17.27z"/><path data-name="Path 12238" d="M17.27 34.54h2.919v2.919H17.27z"/><path data-name="Path 12239" d="M17.27 40.297h2.919v2.919H17.27z"/><path data-name="Path 12240" d="M17.27 46.054h2.919v2.919H17.27z"/><path data-name="Path 12241" d="M17.27 51.779h2.919v5.835H17.27z"/><path data-name="Path 12242" d="M17.27 57.405h2.919v8.757H17.27z"/><path data-name="Path 12243" d="M17.27 66.162h2.919V72H17.27z"/><path data-name="Path 12244" d="M20.149 23.027h2.919v2.919h-2.919z"/><path data-name="Path 12245" d="M20.149 31.662h2.919v2.92h-2.919z"/><path data-name="Path 12246" d="M20.149 40.245h2.919v8.757h-2.919z"/><path data-name="Path 12247" d="M23.027 0h2.919v8.757h-2.919z"/><path data-name="Path 12248" d="M23.027 11.676h2.919v2.919h-2.919z"/><path data-name="Path 12249" d="M23.027 17.27h2.919v2.919h-2.919z"/><path data-name="Path 12250" d="M23.027 23.013h2.919v5.838h-2.919z"/><path data-name="Path 12251" d="M23.027 34.519h2.919v5.838h-2.919z"/><path data-name="Path 12252" d="M23.027 46.054h2.919v2.919h-2.919z"/><path data-name="Path 12253" d="M23.027 48.869h2.919v8.757h-2.919z"/><path data-name="Path 12254" d="M23.027 57.405h2.919v5.838h-2.919z"/><path data-name="Path 12255" d="M23.027 69.081h2.919V72h-2.919z"/><path data-name="Path 12256" d="M25.905 2.919h2.919v2.919h-2.919z"/><path data-name="Path 12257" d="M25.905 11.676h2.919v2.919h-2.919z"/><path data-name="Path 12258" d="M25.905 31.544h2.919v17.514h-2.919z"/><path data-name="Path 12259" d="M25.905 54.689h2.919v2.922h-2.919z"/><path data-name="Path 12260" d="M25.905 60.322h2.919v5.838h-2.919z"/><path data-name="Path 12261" d="M25.905 66.162h2.919V72h-2.919z"/><path data-name="Path 12262" d="M28.783 0h2.919v2.919h-2.919z"/><path data-name="Path 12263" d="M28.783 14.392h2.919v2.919h-2.919z"/><path data-name="Path 12264" d="M28.783 17.259h2.919v5.838h-2.919z"/><path data-name="Path 12265" d="M28.783 31.662h2.919v2.92h-2.919z"/><path data-name="Path 12266" d="M28.783 40.297h2.919v2.919h-2.919z"/><path data-name="Path 12267" d="M28.783 60.322h2.919v2.919h-2.919z"/><path data-name="Path 12268" d="M31.662 5.838h2.916v2.919h-2.916z"/><path data-name="Path 12269" d="M31.662 11.506h2.916v5.838h-2.916z"/><path data-name="Path 12270" d="M31.662 20.136h2.916v5.838h-2.916z"/><path data-name="Path 12271" d="M31.662 31.662h2.916v2.92h-2.916z"/><path data-name="Path 12272" d="M31.662 40.272h2.916v5.838h-2.916z"/><path data-name="Path 12273" d="M31.662 48.869h2.916v8.757h-2.916z"/><path data-name="Path 12274" d="M31.662 57.405h2.916v8.757h-2.916z"/><path data-name="Path 12275" d="M31.662 66.162h2.916V72h-2.916z"/><path data-name="Path 12276" d="M34.544 2.919h2.919v8.757h-2.919z"/><path data-name="Path 12277" d="M34.544 14.392h2.919v2.919h-2.919z"/><path data-name="Path 12278" d="M34.544 17.27h2.919v2.919h-2.919z"/><path data-name="Path 12279" d="M34.544 23.013h2.919v5.838h-2.919z"/><path data-name="Path 12280" d="M34.544 31.643h2.919v5.838h-2.919z"/><path data-name="Path 12281" d="M34.544 40.297h2.919v2.919h-2.919z"/><path data-name="Path 12282" d="M34.544 46.054h2.919v2.919h-2.919z"/><path data-name="Path 12283" d="M34.544 48.902h2.919v5.838h-2.919z"/><path data-name="Path 12284" d="M34.544 57.405h2.919v2.919h-2.919z"/><path data-name="Path 12285" d="M34.544 69.081h2.919V72h-2.919z"/><path data-name="Path 12286" d="M37.419 5.838h2.919v5.838h-2.919z"/><path data-name="Path 12287" d="M37.419 14.392h2.919v2.919h-2.919z"/><path data-name="Path 12288" d="M37.419 20.149h2.919v2.919h-2.919z"/><path data-name="Path 12289" d="M37.419 25.889h2.919v5.838h-2.919z"/><path data-name="Path 12290" d="M37.419 37.415h2.919v2.919h-2.919z"/><path data-name="Path 12291" d="M37.419 46.054h2.919v2.919h-2.919z"/><path data-name="Path 12292" d="M37.419 51.779h2.919v5.835h-2.919z"/><path data-name="Path 12293" d="M37.419 60.322h2.919v5.838h-2.919z"/><path data-name="Path 12294" d="M40.297 0h2.919v2.919h-2.919z"/><path data-name="Path 12295" d="M40.297 5.838h2.919v2.919h-2.919z"/><path data-name="Path 12296" d="M40.297 14.392h2.919v2.919h-2.919z"/><path data-name="Path 12297" d="M40.297 17.259h2.919v5.838h-2.919z"/><path data-name="Path 12298" d="M40.297 25.905h2.919v2.919h-2.919z"/><path data-name="Path 12299" d="M40.297 51.81h2.919v2.919h-2.919z"/><path data-name="Path 12300" d="M40.297 60.322h2.919v2.919h-2.919z"/><path data-name="Path 12301" d="M40.297 66.162h2.919v2.919h-2.919z"/><path data-name="Path 12302" d="M43.176 20.149h2.919v2.919h-2.919z"/><path data-name="Path 12303" d="M43.176 25.889h2.919v5.838h-2.919z"/><path data-name="Path 12304" d="M43.176 31.573h2.919v14.595h-2.919z"/><path data-name="Path 12305" d="M43.176 54.689h2.919v2.922h-2.919z"/><path data-name="Path 12306" d="M43.176 57.405h2.919v5.838h-2.919z"/><path data-name="Path 12307" d="M46.054 2.919h2.919v2.919h-2.919z"/><path data-name="Path 12308" d="M46.054 8.757h2.919v8.757h-2.919z"/><path data-name="Path 12309" d="M46.054 17.221h2.919v14.595h-2.919z"/><path data-name="Path 12310" d="M46.054 31.621h2.919v8.757h-2.919z"/><path data-name="Path 12311" d="M46.054 46.054h2.919v2.919h-2.919z"/><path data-name="Path 12312" d="M46.054 48.869h2.919v8.757h-2.919z"/><path data-name="Path 12313" d="M46.054 57.405h2.919v8.757h-2.919z"/><path data-name="Path 12314" d="M46.054 69.081h2.919V72h-2.919z"/><path data-name="Path 12315" d="M48.932 23.013h2.919v5.838h-2.919z"/><path data-name="Path 12316" d="M48.932 37.339h2.919v11.68h-2.919z"/><path data-name="Path 12317" d="M48.932 57.405h2.919v2.919h-2.919z"/><path data-name="Path 12318" d="M48.932 63.242h2.919v2.919h-2.919z"/><path data-name="Path 12319" d="M48.932 69.081h2.919V72h-2.919z"/><path data-name="Path 12320" d="M51.81 0h2.919v17.514H51.81z"/><path data-name="Path 12321" d="M51.81 17.27h2.919v2.919H51.81z"/><path data-name="Path 12322" d="M51.81 28.783h2.919v2.919H51.81z"/><path data-name="Path 12323" d="M51.81 34.54h2.919v2.919H51.81z"/><path data-name="Path 12324" d="M51.81 40.297h2.919v2.919H51.81z"/><path data-name="Path 12325" d="M51.81 46.054h2.919v2.919H51.81z"/><path data-name="Path 12326" d="M51.81 51.81h2.919v2.919H51.81z"/><path data-name="Path 12327" d="M51.81 57.405h2.919v5.838H51.81z"/><path data-name="Path 12328" d="M54.689 0h2.918v2.919h-2.919z"/><path data-name="Path 12329" d="M54.689 17.27h2.918v2.919h-2.919z"/><path data-name="Path 12330" d="M54.689 25.889h2.918v5.838h-2.919z"/><path data-name="Path 12331" d="M54.689 31.662h2.918v2.92h-2.919z"/><path data-name="Path 12332" d="M54.689 43.149h2.918v5.838h-2.919z"/><path data-name="Path 12333" d="M54.689 57.405h2.918v2.919h-2.919z"/><path data-name="Path 12334" d="M54.689 66.162h2.918v2.919h-2.919z"/><path data-name="Path 12335" d="M57.405 0h2.919v2.919h-2.919z"/><path data-name="Path 12336" d="M57.405 5.838h2.919v8.757h-2.919z"/><path data-name="Path 12337" d="M57.405 17.27h2.919v2.919h-2.919z"/><path data-name="Path 12338" d="M57.405 23.013h2.919v5.838h-2.919z"/><path data-name="Path 12339" d="M57.405 37.392h2.919v5.838h-2.919z"/><path data-name="Path 12340" d="M57.405 46.054h2.919v2.919h-2.919z"/><path data-name="Path 12341" d="M57.405 48.869h2.919v8.757h-2.919z"/><path data-name="Path 12342" d="M57.405 57.405h2.919v2.919h-2.919z"/><path data-name="Path 12343" d="M57.405 63.242h2.919v2.919h-2.919z"/><path data-name="Path 12344" d="M57.405 66.162h2.919v2.919h-2.919z"/><path data-name="Path 12345" d="M60.324 0h2.919v2.919h-2.919z"/><path data-name="Path 12346" d="M60.324 5.838h2.919v8.757h-2.919z"/><path data-name="Path 12347" d="M60.324 17.27h2.919v2.919h-2.919z"/><path data-name="Path 12348" d="M60.324 25.889h2.919v5.838h-2.919z"/><path data-name="Path 12349" d="M60.324 31.662h2.919v2.92h-2.919z"/><path data-name="Path 12350" d="M60.324 40.272h2.919v5.838h-2.919z"/><path data-name="Path 12351" d="M60.324 63.242h2.919v2.919h-2.919z"/><path data-name="Path 12352" d="M60.324 69.081h2.919V72h-2.919z"/><path data-name="Path 12353" d="M63.243 0h2.919v2.919h-2.919z"/><path data-name="Path 12354" d="M63.243 5.838h2.919v8.757h-2.919z"/><path data-name="Path 12355" d="M63.243 17.27h2.919v2.919h-2.919z"/><path data-name="Path 12356" d="M63.243 23.013h2.919v5.838h-2.919z"/><path data-name="Path 12357" d="M63.243 31.662h2.919v2.92h-2.919z"/><path data-name="Path 12358" d="M63.243 40.245h2.919v8.757h-2.919z"/><path data-name="Path 12359" d="M63.243 48.932h2.919v2.919h-2.919z"/><path data-name="Path 12360" d="M63.243 63.242h2.919v2.919h-2.919z"/><path data-name="Path 12361" d="M63.243 66.162h2.919v2.919h-2.919z"/><path data-name="Path 12362" d="M66.161 0h2.919v2.919h-2.919z"/><path data-name="Path 12363" d="M66.161 17.27h2.919v2.919h-2.919z"/><path data-name="Path 12364" d="M66.161 23.013h2.919v5.838h-2.919z"/><path data-name="Path 12365" d="M66.161 31.662h2.919v2.92h-2.919z"/><path data-name="Path 12366" d="M66.161 37.392h2.919v5.838h-2.919z"/><path data-name="Path 12367" d="M66.161 46.054h2.919v2.919h-2.919z"/><path data-name="Path 12368" d="M66.161 48.932h2.919v2.919h-2.919z"/><path data-name="Path 12369" d="M66.161 54.689h2.919v2.922h-2.919z"/><path data-name="Path 12370" d="M66.161 60.322h2.919v5.838h-2.919z"/><path data-name="Path 12371" d="M66.161 66.162h2.919v2.919h-2.919z"/><path data-name="Path 12372" d="M69.081 0H72v17.514h-2.919z"/><path data-name="Path 12373" d="M69.081 17.27H72v2.919h-2.919z"/><path data-name="Path 12374" d="M69.081 23.027H72v2.919h-2.919z"/><path data-name="Path 12375" d="M69.081 28.783H72v2.919h-2.919z"/><path data-name="Path 12376" d="M69.081 31.643H72v5.838h-2.919z"/><path data-name="Path 12377" d="M69.081 40.272H72v5.838h-2.919z"/><path data-name="Path 12378" d="M69.081 51.779H72v5.835h-2.919z"/><path data-name="Path 12379" d="M69.081 60.322H72v5.838h-2.919z"/><path data-name="Path 12380" d="M69.081 66.162H72V72h-2.919z"/></g></g></svg>