<svg xmlns="http://www.w3.org/2000/svg" width="32.524" height="27.875" viewBox="0 0 32.524 27.875">
  <path id="share" d="M34.749,17.6,23.538,6.944a.569.569,0,0,0-.445-.194c-.35.016-.795.266-.795.646v5.342a.343.343,0,0,1-.286.331c-11.148,1.735-15.844,10.208-17.5,19-.064.347.4.67.612.4,4.068-5.205,9.018-8.6,16.845-8.667a.4.4,0,0,1,.334.387v5.245a.68.68,0,0,0,1.152.428L34.741,19.024a.9.9,0,0,0,.278-.678A1.091,1.091,0,0,0,34.749,17.6Z" transform="translate(-3.496 -5.749)" fill="none" stroke="#fff" stroke-width="2"/>
</svg>
