<svg aria-hidden="true" style="position: absolute; width: 0; height: 0; overflow: hidden;" version="1.1" xmlns="http://www.w3.org/2000/svg" xmlns:xlink="http://www.w3.org/1999/xlink">
<defs>
<symbol id="icon-facebook" viewBox="0 0 32 32">
<path fill="#fff" style="fill: var(--color1, #fff)" d="M17.417 7.271l-0.461 0.010-0.422 0.048-0.393 0.096-0.353 0.108-0.324 0.135-0.291 0.154-0.256 0.183-0.244 0.202-0.207 0.202-0.186 0.231-0.167 0.241-0.127 0.252-0.128 0.26-0.097 0.26-0.079 0.26-0.058 0.26-0.048 0.26-0.029 0.25-0.020 0.241v2.355h-1.833v3.274h1.833v9.28h3.855v-9.28h2.598l0.343-3.274h-2.941v-1.93l0.019-0.221 0.049-0.173 0.068-0.154 0.089-0.116 0.108-0.096 0.127-0.057 0.118-0.038 0.118-0.020 0.118-0.009h2.068v-3.188l-2.844-0.010zM16.004-0.001l1.009 0.038 0.991 0.087 0.97 0.154 0.961 0.212 0.931 0.271 0.912 0.319 0.873 0.377 0.863 0.425 0.823 0.464 0.785 0.521 0.765 0.57 0.735 0.598 0.687 0.657 0.639 0.687 0.608 0.727 0.582 0.762 0.519 0.803 0.471 0.82 0.422 0.86 0.372 0.873 0.324 0.909 0.275 0.937 0.207 0.945 0.145 0.985 0.089 0.985 0.039 1.018-0.039 1.018-0.089 0.985-0.145 0.985-0.207 0.945-0.275 0.937-0.324 0.908-0.372 0.873-0.422 0.86-0.471 0.82-0.519 0.801-0.582 0.762-0.608 0.727-0.639 0.687-0.687 0.646-0.735 0.608-0.765 0.57-0.785 0.522-0.823 0.464-0.863 0.425-0.873 0.377-0.912 0.319-0.931 0.271-0.961 0.212-0.97 0.154-0.991 0.086-1.009 0.039-1.009-0.039-1.001-0.086-0.972-0.154-0.951-0.212-0.941-0.271-0.903-0.319-0.892-0.377-0.854-0.425-0.825-0.464-0.794-0.522-0.765-0.57-0.716-0.608-0.687-0.646-0.657-0.687-0.608-0.727-0.559-0.762-0.519-0.801-0.471-0.82-0.436-0.86-0.374-0.873-0.313-0.908-0.275-0.937-0.207-0.945-0.157-0.985-0.097-0.985-0.029-1.018 0.029-1.018 0.097-0.985 0.157-0.985 0.207-0.945 0.275-0.937 0.313-0.909 0.374-0.873 0.436-0.86 0.471-0.82 0.519-0.803 0.559-0.762 0.608-0.727 0.657-0.687 0.687-0.657 0.716-0.598 0.765-0.57 0.794-0.521 0.825-0.464 0.854-0.425 0.892-0.377 0.903-0.319 0.941-0.271 0.951-0.212 0.972-0.154 1.001-0.087 1.009-0.038z"></path>
</symbol>
<symbol id="icon-instagram" viewBox="0 0 32 32">
<path fill="#fff" style="fill: var(--color1, #fff)" d="M15.999 12.799l0.436 0.029 0.423 0.087 0.393 0.145 0.369 0.193 0.345 0.243 0.305 0.291 0.259 0.31 0.204 0.32 0.173 0.359 0.118 0.358 0.079 0.388 0.023 0.407-0.023 0.417-0.095 0.416-0.125 0.378-0.188 0.359-0.22 0.339-0.266 0.301-0.305 0.262-0.33 0.223-0.361 0.193-0.384 0.127-0.407 0.087-0.423 0.029-0.436-0.029-0.4-0.087-0.393-0.127-0.361-0.193-0.33-0.223-0.291-0.262-0.275-0.301-0.22-0.339-0.18-0.359-0.134-0.378-0.079-0.416-0.032-0.417 0.023-0.407 0.071-0.388 0.134-0.358 0.157-0.359 0.204-0.32 0.266-0.31 0.305-0.291 0.337-0.243 0.369-0.193 0.4-0.145 0.423-0.087 0.436-0.029z"></path>
<path fill="#fff" style="fill: var(--color1, #fff)" d="M22.544 8.937h0.387v3.055l-2.909 0.010-0.007-3.055 2.535-0.010z"></path>
<path fill="#fff" style="fill: var(--color1, #fff)" d="M10.417 6.908l-0.436 0.029-0.417 0.079-0.409 0.129-0.385 0.169-0.361 0.228-0.313 0.257-0.304 0.291-0.249 0.326-0.217 0.358-0.185 0.377-0.128 0.406-0.081 0.426-0.023 0.436v11.169l0.023 0.445 0.081 0.416 0.128 0.406 0.185 0.387 0.217 0.346 0.249 0.327 0.304 0.291 0.313 0.257 0.361 0.218 0.385 0.169 0.409 0.128 0.417 0.090 0.436 0.029h11.164l0.436-0.029 0.425-0.090 0.401-0.128 0.393-0.169 0.353-0.218 0.329-0.257 0.291-0.291 0.256-0.327 0.224-0.346 0.169-0.387 0.128-0.406 0.080-0.416 0.033-0.445v-11.169l-0.033-0.436-0.080-0.426-0.128-0.406-0.169-0.377-0.224-0.358-0.256-0.326-0.291-0.291-0.329-0.257-0.353-0.228-0.393-0.169-0.401-0.129-0.425-0.079-0.436-0.029zM16-0.001l1.018 0.039 0.995 0.089 0.972 0.145 0.956 0.218 0.931 0.268 0.915 0.316 0.883 0.387 0.858 0.416 0.819 0.465 0.794 0.525 0.753 0.575 0.737 0.595 0.691 0.655 0.634 0.684 0.611 0.727 0.582 0.762 0.513 0.803 0.474 0.813 0.417 0.863 0.385 0.883 0.32 0.912 0.265 0.931 0.217 0.951 0.145 0.982 0.096 0.991 0.025 1.011-0.025 1.018-0.096 0.991-0.145 0.98-0.217 0.951-0.265 0.921-0.32 0.912-0.385 0.881-0.417 0.863-0.474 0.822-0.513 0.803-0.582 0.753-0.611 0.727-0.634 0.694-0.691 0.644-0.737 0.604-0.753 0.564-0.794 0.525-0.819 0.465-0.858 0.426-0.883 0.375-0.915 0.317-0.931 0.278-0.956 0.208-0.972 0.145-0.995 0.089-1.018 0.039-1.011-0.039-1.004-0.089-0.972-0.145-0.947-0.208-0.94-0.278-0.908-0.317-0.89-0.375-0.851-0.426-0.826-0.465-0.794-0.525-0.753-0.564-0.727-0.604-0.691-0.644-0.65-0.694-0.611-0.727-0.561-0.753-0.522-0.803-0.474-0.822-0.425-0.863-0.377-0.881-0.313-0.912-0.272-0.921-0.209-0.951-0.145-0.98-0.105-0.991-0.025-1.018 0.025-1.011 0.105-0.991 0.145-0.982 0.209-0.951 0.272-0.931 0.313-0.912 0.377-0.883 0.425-0.863 0.474-0.813 0.522-0.803 0.561-0.762 0.611-0.727 0.65-0.684 0.691-0.655 0.727-0.595 0.753-0.575 0.794-0.525 0.826-0.465 0.851-0.416 0.89-0.387 0.908-0.316 0.94-0.268 0.947-0.218 0.972-0.145 1.004-0.089 1.011-0.039z"></path>
<path fill="#fff" style="fill: var(--color1, #fff)" d="M8.831 14.257h2.627l-0.145 0.436-0.116 0.458-0.063 0.458-0.023 0.487 0.031 0.527 0.077 0.516 0.132 0.497 0.186 0.477 0.233 0.448 0.272 0.419 0.311 0.39 0.349 0.351 0.372 0.321 0.42 0.273 0.436 0.234 0.467 0.185 0.49 0.137 0.513 0.087 0.521 0.029 0.528-0.029 0.497-0.087 0.497-0.137 0.467-0.185 0.436-0.234 0.412-0.273 0.388-0.321 0.342-0.351 0.311-0.39 0.272-0.419 0.233-0.448 0.186-0.477 0.132-0.497 0.077-0.516 0.031-0.527-0.016-0.487-0.077-0.458-0.109-0.458-0.156-0.436h2.634v7.328l-0.031 0.303-0.077 0.303-0.124 0.263-0.163 0.234-0.202 0.205-0.241 0.176-0.265 0.127-0.279 0.079-0.311 0.029h-10.812l-0.291-0.029-0.291-0.079-0.265-0.127-0.233-0.176-0.202-0.205-0.163-0.234-0.124-0.263-0.077-0.303-0.031-0.303v-7.328z"></path>
</symbol>
<symbol id="icon-twitter" viewBox="0 0 32 32">
<path fill="#fff" style="fill: var(--color1, #fff)" d="M16 32c-8.836-0-15.999-7.164-15.999-16 0-4.418 1.791-8.418 4.686-11.313v0c2.903-2.941 6.933-4.762 11.389-4.762 8.837 0 16 7.163 16 16 0 4.456-1.822 8.486-4.761 11.388l-0.002 0.002c-2.879 2.895-6.865 4.687-11.269 4.687-0.016 0-0.031-0-0.047-0h0.002zM7.468 21.776v0c1.602 1.059 3.567 1.69 5.68 1.69 0.008 0 0.015 0 0.023-0h-0.001c0.009 0 0.019 0 0.029 0 5.828 0 10.553-4.725 10.553-10.553 0-0.059-0-0.119-0.001-0.178l0 0.009c0-0.157 0-0.317-0.012-0.487 0.735-0.54 1.353-1.187 1.844-1.927l0.017-0.028c-0.623 0.283-1.346 0.491-2.103 0.591l-0.039 0.004c0.772-0.473 1.351-1.197 1.628-2.056l0.007-0.027c-0.678 0.416-1.468 0.732-2.311 0.904l-0.047 0.008c-0.679-0.733-1.647-1.19-2.722-1.19-2.048 0-3.708 1.66-3.708 3.708 0 0.021 0 0.041 0 0.062l-0-0.003c-0 0.013-0 0.029-0 0.045 0 0.288 0.032 0.569 0.092 0.839l-0.005-0.025c-3.107-0.169-5.835-1.662-7.65-3.92l-0.016-0.020c-0.318 0.547-0.507 1.204-0.509 1.905v0.001c0 0.001 0 0.002 0 0.003 0 1.293 0.649 2.435 1.64 3.117l0.013 0.008c-0.619-0.017-1.195-0.187-1.696-0.473l0.018 0.009v0.042c0 0.002 0 0.005 0 0.008 0 1.804 1.263 3.313 2.954 3.691l0.025 0.005c-0.284 0.079-0.61 0.125-0.947 0.125-0.010 0-0.019-0-0.029-0h0.001c-0.019 0-0.042 0.001-0.065 0.001-0.226 0-0.447-0.024-0.659-0.070l0.021 0.004c0.485 1.499 1.848 2.574 3.468 2.622l0.006 0c-1.254 0.999-2.861 1.604-4.609 1.607h-0.001c-0.021 0-0.046 0-0.070 0-0.288 0-0.573-0.018-0.851-0.053l0.033 0.003z"></path>
</symbol>
<symbol id="icon-miscellaneous_services" viewBox="0 0 24 24">
<path d="M14.156 13.688l1.406-2.391q0.141-0.281-0.094-0.469l-1.453-1.125q0.047-0.375 0.047-0.703t-0.047-0.703l1.453-1.125q0.234-0.234 0.094-0.469l-1.406-2.438q-0.141-0.234-0.422-0.141l-1.734 0.703q-0.563-0.422-1.172-0.703l-0.281-1.828q-0.047-0.281-0.328-0.281h-2.813q-0.281 0-0.328 0.281l-0.281 1.875q-0.656 0.234-1.172 0.656l-1.734-0.703q-0.281-0.094-0.422 0.188l-1.406 2.391q-0.188 0.281 0.047 0.469l1.5 1.125q-0.047 0.375-0.047 0.703t0.047 0.703l-1.5 1.125q-0.234 0.234-0.047 0.469l1.406 2.438q0.141 0.234 0.422 0.141l1.734-0.703q0.563 0.422 1.172 0.703l0.281 1.828q0.047 0.281 0.328 0.281h2.813q0.281 0 0.328-0.281l0.281-1.875q0.656-0.234 1.172-0.656l1.734 0.703q0.281 0.094 0.422-0.188zM8.813 11.016q-0.844 0-1.43-0.586t-0.586-1.43 0.586-1.43 1.43-0.586 1.43 0.586 0.586 1.43-0.586 1.43-1.43 0.586zM21.938 18.656l-0.984-0.703q0-0.141 0.023-0.234t0.023-0.234q0-0.234-0.047-0.422l0.938-0.75q0.188-0.141 0.047-0.281l-0.891-1.547q-0.047-0.188-0.281-0.094l-1.078 0.422q-0.375-0.281-0.797-0.422l-0.141-1.172q-0.047-0.234-0.234-0.234h-1.781q-0.188 0-0.234 0.188l-0.141 1.219q-0.234 0.047-0.422 0.164t-0.328 0.258l-1.125-0.469q-0.188-0.047-0.281 0.094l-0.891 1.594q-0.094 0.141 0.047 0.281l0.938 0.75q-0.047 0.188-0.047 0.422t0.047 0.422l-0.938 0.75q-0.141 0.141-0.047 0.281l0.891 1.547q0.094 0.188 0.281 0.094l1.125-0.422q0.328 0.281 0.75 0.422l0.141 1.172q0.047 0.188 0.234 0.188h1.781q0.234 0 0.234-0.188l0.188-1.172 0.375-0.188t0.375-0.234l1.125 0.422q0.141 0.094 0.234-0.094l0.938-1.547q0.094-0.141-0.047-0.281zM17.625 18.844q-0.563 0-0.961-0.398t-0.398-0.961 0.398-0.961 0.961-0.398 0.961 0.398 0.398 0.961-0.398 0.961-0.961 0.398z"></path>
</symbol>
<symbol id="icon-img-icon" viewBox="0 0 32 32">
<path fill="none" stroke="" style="stroke: var(--color1, )" stroke-linejoin="miter" stroke-linecap="butt" stroke-miterlimit="10" stroke-width="2.237" d="M1.119 1.119h29.824v29.763h-29.824v-29.763z"></path>
<path fill="none" stroke="" style="stroke: var(--color1, )" stroke-linejoin="miter" stroke-linecap="butt" stroke-miterlimit="10" stroke-width="2.237" d="M1.119 21.541l7.904-7.895 6.784 6.771"></path>
<path fill="none" stroke="" style="stroke: var(--color1, )" stroke-linejoin="miter" stroke-linecap="butt" stroke-miterlimit="10" stroke-width="2.237" d="M4.44 30.946l19.74-19.695 6.768 6.753"></path>
</symbol>

<symbol id="icon-map-icons" viewBox="0 0 32 32">
<path fill="none" stroke="" style="stroke: var(--color1, )" stroke-linejoin="miter" stroke-linecap="butt" stroke-miterlimit="10" stroke-width="2.2409" d="M1.12 1.12h29.859v29.759h-29.859v-29.759z"></path>
<path fill="none" stroke="" style="stroke: var(--color1, )" stroke-linejoin="miter" stroke-linecap="butt" stroke-miterlimit="10" stroke-width="2.2409" d="M1.119 23.184l14.736-14.687-7.383-7.361"></path>
<path fill="none" stroke="" style="stroke: var(--color1, )" stroke-linejoin="miter" stroke-linecap="butt" stroke-miterlimit="10" stroke-width="2.2409" d="M23.7 31.001l-10.504-10.468-10.393 10.357"></path>
<path fill="none" stroke="" style="stroke: var(--color1, )" stroke-linejoin="miter" stroke-linecap="butt" stroke-miterlimit="10" stroke-width="2.2409" d="M18.109 1.137l7.272 7.249-7.32 7.299 12.94 12.897"></path>
</symbol>
<symbol id="icon-Plane" viewBox="0 0 24 32">
<path fill="#fff" style="fill: var(--color1, #fff)" d="M0 31.997l4.719-32 19.281 25.226-13.358-1.94z"></path>
</symbol>
<symbol id="icon-share" viewBox="0 0 37 32">
<path fill="none" stroke="#fff" style="stroke: var(--color1, #fff)" stroke-linejoin="miter" stroke-linecap="butt" stroke-miterlimit="4" stroke-width="2.296" d="M35.878 13.605l-12.87-12.233c-0.12-0.137-0.296-0.223-0.492-0.223-0.007 0-0.014 0-0.020 0l0.001-0c-0.402 0.018-0.913 0.305-0.913 0.742v6.133c-0.004 0.191-0.144 0.348-0.326 0.38l-0.002 0c-12.798 1.992-18.189 11.719-20.090 21.812-0.073 0.398 0.459 0.769 0.703 0.459 4.67-5.975 10.352-9.873 19.338-9.95 0.216 0.037 0.379 0.221 0.383 0.444v6.022c0.036 0.401 0.37 0.713 0.778 0.713 0.212 0 0.404-0.085 0.545-0.222l-0 0 12.956-12.442c0.197-0.188 0.32-0.454 0.32-0.747 0-0.011-0-0.022-0.001-0.033l0 0.002c0-0.009 0-0.020 0-0.031 0-0.317-0.118-0.606-0.312-0.827l0.001 0.001z"></path>
</symbol>
<symbol id="icon-Favourite" viewBox="0 0 33 32">
<path fill="" stroke="" style="" stroke-linejoin="miter" stroke-linecap="butt" stroke-miterlimit="4" stroke-width="2.0269" d="M23.614 1.013h-0.077c-2.949 0.015-5.54 1.536-7.043 3.834l-0.020 0.032c-1.523-2.33-4.113-3.851-7.060-3.866h-0.076c-4.607 0.045-8.324 3.789-8.326 8.401v0c0.2 3.737 1.503 7.134 3.588 9.913l-0.034-0.047c4.479 6.118 11.912 11.47 11.912 11.47s7.434-5.352 11.91-11.471c2.051-2.731 3.355-6.129 3.552-9.82l0.002-0.045c-0.003-4.613-3.721-8.356-8.323-8.4l-0.004-0z"></path>
</symbol>
<symbol id="icon-back-arrow" viewBox="0 0 18 32">
<path fill="none" stroke="" style="" stroke-linejoin="miter" stroke-linecap="butt" stroke-miterlimit="4" stroke-width="3.187" d="M17.127 1.126l-14.873 14.873 14.873 14.873"></path>
</symbol>
<symbol id="icon-warning-icon" viewBox="0 0 14 32">
<path fill="#ff2d16" style="fill: var(--color1, #ff2d16)" d="M0 0v20.873h13.714v-20.873z"></path>
<path fill="#ff2d16" style="fill: var(--color1, #ff2d16)" d="M0 22.384l6.682 9.616 7.032-9.616z"></path>
<path fill="#fff" style="fill: var(--color2, #fff)" d="M5.125 5.283v-2.089h3.411v2.089l-0.851 8.252h-1.727zM5.182 14.763h3.296v2.765h-3.296z"></path>
</symbol>
</defs>
</svg>
