<svg aria-hidden="true" style="position: absolute; width: 0; height: 0; overflow: hidden;" version="1.1" xmlns="http://www.w3.org/2000/svg" xmlns:xlink="http://www.w3.org/1999/xlink">
<defs>
<symbol id="icon-facebook" viewBox="0 0 32 32">
<path fill="#fff" style="fill: var(--color1, #fff)" d="M17.417 7.271l-0.461 0.010-0.422 0.048-0.393 0.096-0.353 0.108-0.324 0.135-0.291 0.154-0.256 0.183-0.244 0.202-0.207 0.202-0.186 0.231-0.167 0.241-0.127 0.252-0.128 0.26-0.097 0.26-0.079 0.26-0.058 0.26-0.048 0.26-0.029 0.25-0.020 0.241v2.355h-1.833v3.274h1.833v9.28h3.855v-9.28h2.598l0.343-3.274h-2.941v-1.93l0.019-0.221 0.049-0.173 0.068-0.154 0.089-0.116 0.108-0.096 0.127-0.057 0.118-0.038 0.118-0.020 0.118-0.009h2.068v-3.188l-2.844-0.010zM16.004-0.001l1.009 0.038 0.991 0.087 0.97 0.154 0.961 0.212 0.931 0.271 0.912 0.319 0.873 0.377 0.863 0.425 0.823 0.464 0.785 0.521 0.765 0.57 0.735 0.598 0.687 0.657 0.639 0.687 0.608 0.727 0.582 0.762 0.519 0.803 0.471 0.82 0.422 0.86 0.372 0.873 0.324 0.909 0.275 0.937 0.207 0.945 0.145 0.985 0.089 0.985 0.039 1.018-0.039 1.018-0.089 0.985-0.145 0.985-0.207 0.945-0.275 0.937-0.324 0.908-0.372 0.873-0.422 0.86-0.471 0.82-0.519 0.801-0.582 0.762-0.608 0.727-0.639 0.687-0.687 0.646-0.735 0.608-0.765 0.57-0.785 0.522-0.823 0.464-0.863 0.425-0.873 0.377-0.912 0.319-0.931 0.271-0.961 0.212-0.97 0.154-0.991 0.086-1.009 0.039-1.009-0.039-1.001-0.086-0.972-0.154-0.951-0.212-0.941-0.271-0.903-0.319-0.892-0.377-0.854-0.425-0.825-0.464-0.794-0.522-0.765-0.57-0.716-0.608-0.687-0.646-0.657-0.687-0.608-0.727-0.559-0.762-0.519-0.801-0.471-0.82-0.436-0.86-0.374-0.873-0.313-0.908-0.275-0.937-0.207-0.945-0.157-0.985-0.097-0.985-0.029-1.018 0.029-1.018 0.097-0.985 0.157-0.985 0.207-0.945 0.275-0.937 0.313-0.909 0.374-0.873 0.436-0.86 0.471-0.82 0.519-0.803 0.559-0.762 0.608-0.727 0.657-0.687 0.687-0.657 0.716-0.598 0.765-0.57 0.794-0.521 0.825-0.464 0.854-0.425 0.892-0.377 0.903-0.319 0.941-0.271 0.951-0.212 0.972-0.154 1.001-0.087 1.009-0.038z"></path>
</symbol>
<symbol id="icon-instagram" viewBox="0 0 32 32">
<path fill="#fff" style="fill: var(--color1, #fff)" d="M15.999 12.799l0.436 0.029 0.423 0.087 0.393 0.145 0.369 0.193 0.345 0.243 0.305 0.291 0.259 0.31 0.204 0.32 0.173 0.359 0.118 0.358 0.079 0.388 0.023 0.407-0.023 0.417-0.095 0.416-0.125 0.378-0.188 0.359-0.22 0.339-0.266 0.301-0.305 0.262-0.33 0.223-0.361 0.193-0.384 0.127-0.407 0.087-0.423 0.029-0.436-0.029-0.4-0.087-0.393-0.127-0.361-0.193-0.33-0.223-0.291-0.262-0.275-0.301-0.22-0.339-0.18-0.359-0.134-0.378-0.079-0.416-0.032-0.417 0.023-0.407 0.071-0.388 0.134-0.358 0.157-0.359 0.204-0.32 0.266-0.31 0.305-0.291 0.337-0.243 0.369-0.193 0.4-0.145 0.423-0.087 0.436-0.029z"></path>
<path fill="#fff" style="fill: var(--color1, #fff)" d="M22.544 8.937h0.387v3.055l-2.909 0.010-0.007-3.055 2.535-0.010z"></path>
<path fill="#fff" style="fill: var(--color1, #fff)" d="M10.417 6.908l-0.436 0.029-0.417 0.079-0.409 0.129-0.385 0.169-0.361 0.228-0.313 0.257-0.304 0.291-0.249 0.326-0.217 0.358-0.185 0.377-0.128 0.406-0.081 0.426-0.023 0.436v11.169l0.023 0.445 0.081 0.416 0.128 0.406 0.185 0.387 0.217 0.346 0.249 0.327 0.304 0.291 0.313 0.257 0.361 0.218 0.385 0.169 0.409 0.128 0.417 0.090 0.436 0.029h11.164l0.436-0.029 0.425-0.090 0.401-0.128 0.393-0.169 0.353-0.218 0.329-0.257 0.291-0.291 0.256-0.327 0.224-0.346 0.169-0.387 0.128-0.406 0.080-0.416 0.033-0.445v-11.169l-0.033-0.436-0.080-0.426-0.128-0.406-0.169-0.377-0.224-0.358-0.256-0.326-0.291-0.291-0.329-0.257-0.353-0.228-0.393-0.169-0.401-0.129-0.425-0.079-0.436-0.029zM16-0.001l1.018 0.039 0.995 0.089 0.972 0.145 0.956 0.218 0.931 0.268 0.915 0.316 0.883 0.387 0.858 0.416 0.819 0.465 0.794 0.525 0.753 0.575 0.737 0.595 0.691 0.655 0.634 0.684 0.611 0.727 0.582 0.762 0.513 0.803 0.474 0.813 0.417 0.863 0.385 0.883 0.32 0.912 0.265 0.931 0.217 0.951 0.145 0.982 0.096 0.991 0.025 1.011-0.025 1.018-0.096 0.991-0.145 0.98-0.217 0.951-0.265 0.921-0.32 0.912-0.385 0.881-0.417 0.863-0.474 0.822-0.513 0.803-0.582 0.753-0.611 0.727-0.634 0.694-0.691 0.644-0.737 0.604-0.753 0.564-0.794 0.525-0.819 0.465-0.858 0.426-0.883 0.375-0.915 0.317-0.931 0.278-0.956 0.208-0.972 0.145-0.995 0.089-1.018 0.039-1.011-0.039-1.004-0.089-0.972-0.145-0.947-0.208-0.94-0.278-0.908-0.317-0.89-0.375-0.851-0.426-0.826-0.465-0.794-0.525-0.753-0.564-0.727-0.604-0.691-0.644-0.65-0.694-0.611-0.727-0.561-0.753-0.522-0.803-0.474-0.822-0.425-0.863-0.377-0.881-0.313-0.912-0.272-0.921-0.209-0.951-0.145-0.98-0.105-0.991-0.025-1.018 0.025-1.011 0.105-0.991 0.145-0.982 0.209-0.951 0.272-0.931 0.313-0.912 0.377-0.883 0.425-0.863 0.474-0.813 0.522-0.803 0.561-0.762 0.611-0.727 0.65-0.684 0.691-0.655 0.727-0.595 0.753-0.575 0.794-0.525 0.826-0.465 0.851-0.416 0.89-0.387 0.908-0.316 0.94-0.268 0.947-0.218 0.972-0.145 1.004-0.089 1.011-0.039z"></path>
<path fill="#fff" style="fill: var(--color1, #fff)" d="M8.831 14.257h2.627l-0.145 0.436-0.116 0.458-0.063 0.458-0.023 0.487 0.031 0.527 0.077 0.516 0.132 0.497 0.186 0.477 0.233 0.448 0.272 0.419 0.311 0.39 0.349 0.351 0.372 0.321 0.42 0.273 0.436 0.234 0.467 0.185 0.49 0.137 0.513 0.087 0.521 0.029 0.528-0.029 0.497-0.087 0.497-0.137 0.467-0.185 0.436-0.234 0.412-0.273 0.388-0.321 0.342-0.351 0.311-0.39 0.272-0.419 0.233-0.448 0.186-0.477 0.132-0.497 0.077-0.516 0.031-0.527-0.016-0.487-0.077-0.458-0.109-0.458-0.156-0.436h2.634v7.328l-0.031 0.303-0.077 0.303-0.124 0.263-0.163 0.234-0.202 0.205-0.241 0.176-0.265 0.127-0.279 0.079-0.311 0.029h-10.812l-0.291-0.029-0.291-0.079-0.265-0.127-0.233-0.176-0.202-0.205-0.163-0.234-0.124-0.263-0.077-0.303-0.031-0.303v-7.328z"></path>
</symbol>
<symbol id="icon-twitter" viewBox="0 0 32 32">
<path fill="#fff" style="fill: var(--color1, #fff)" d="M16 32c-8.836-0-15.999-7.164-15.999-16 0-4.418 1.791-8.418 4.686-11.313v0c2.903-2.941 6.933-4.762 11.389-4.762 8.837 0 16 7.163 16 16 0 4.456-1.822 8.486-4.761 11.388l-0.002 0.002c-2.879 2.895-6.865 4.687-11.269 4.687-0.016 0-0.031-0-0.047-0h0.002zM7.468 21.776v0c1.602 1.059 3.567 1.69 5.68 1.69 0.008 0 0.015 0 0.023-0h-0.001c0.009 0 0.019 0 0.029 0 5.828 0 10.553-4.725 10.553-10.553 0-0.059-0-0.119-0.001-0.178l0 0.009c0-0.157 0-0.317-0.012-0.487 0.735-0.54 1.353-1.187 1.844-1.927l0.017-0.028c-0.623 0.283-1.346 0.491-2.103 0.591l-0.039 0.004c0.772-0.473 1.351-1.197 1.628-2.056l0.007-0.027c-0.678 0.416-1.468 0.732-2.311 0.904l-0.047 0.008c-0.679-0.733-1.647-1.19-2.722-1.19-2.048 0-3.708 1.66-3.708 3.708 0 0.021 0 0.041 0 0.062l-0-0.003c-0 0.013-0 0.029-0 0.045 0 0.288 0.032 0.569 0.092 0.839l-0.005-0.025c-3.107-0.169-5.835-1.662-7.65-3.92l-0.016-0.020c-0.318 0.547-0.507 1.204-0.509 1.905v0.001c0 0.001 0 0.002 0 0.003 0 1.293 0.649 2.435 1.64 3.117l0.013 0.008c-0.619-0.017-1.195-0.187-1.696-0.473l0.018 0.009v0.042c0 0.002 0 0.005 0 0.008 0 1.804 1.263 3.313 2.954 3.691l0.025 0.005c-0.284 0.079-0.61 0.125-0.947 0.125-0.010 0-0.019-0-0.029-0h0.001c-0.019 0-0.042 0.001-0.065 0.001-0.226 0-0.447-0.024-0.659-0.070l0.021 0.004c0.485 1.499 1.848 2.574 3.468 2.622l0.006 0c-1.254 0.999-2.861 1.604-4.609 1.607h-0.001c-0.021 0-0.046 0-0.070 0-0.288 0-0.573-0.018-0.851-0.053l0.033 0.003z"></path>
</symbol>
<symbol id="icon-miscellaneous_services" viewBox="0 0 24 24">
<path d="M14.156 13.688l1.406-2.391q0.141-0.281-0.094-0.469l-1.453-1.125q0.047-0.375 0.047-0.703t-0.047-0.703l1.453-1.125q0.234-0.234 0.094-0.469l-1.406-2.438q-0.141-0.234-0.422-0.141l-1.734 0.703q-0.563-0.422-1.172-0.703l-0.281-1.828q-0.047-0.281-0.328-0.281h-2.813q-0.281 0-0.328 0.281l-0.281 1.875q-0.656 0.234-1.172 0.656l-1.734-0.703q-0.281-0.094-0.422 0.188l-1.406 2.391q-0.188 0.281 0.047 0.469l1.5 1.125q-0.047 0.375-0.047 0.703t0.047 0.703l-1.5 1.125q-0.234 0.234-0.047 0.469l1.406 2.438q0.141 0.234 0.422 0.141l1.734-0.703q0.563 0.422 1.172 0.703l0.281 1.828q0.047 0.281 0.328 0.281h2.813q0.281 0 0.328-0.281l0.281-1.875q0.656-0.234 1.172-0.656l1.734 0.703q0.281 0.094 0.422-0.188zM8.813 11.016q-0.844 0-1.43-0.586t-0.586-1.43 0.586-1.43 1.43-0.586 1.43 0.586 0.586 1.43-0.586 1.43-1.43 0.586zM21.938 18.656l-0.984-0.703q0-0.141 0.023-0.234t0.023-0.234q0-0.234-0.047-0.422l0.938-0.75q0.188-0.141 0.047-0.281l-0.891-1.547q-0.047-0.188-0.281-0.094l-1.078 0.422q-0.375-0.281-0.797-0.422l-0.141-1.172q-0.047-0.234-0.234-0.234h-1.781q-0.188 0-0.234 0.188l-0.141 1.219q-0.234 0.047-0.422 0.164t-0.328 0.258l-1.125-0.469q-0.188-0.047-0.281 0.094l-0.891 1.594q-0.094 0.141 0.047 0.281l0.938 0.75q-0.047 0.188-0.047 0.422t0.047 0.422l-0.938 0.75q-0.141 0.141-0.047 0.281l0.891 1.547q0.094 0.188 0.281 0.094l1.125-0.422q0.328 0.281 0.75 0.422l0.141 1.172q0.047 0.188 0.234 0.188h1.781q0.234 0 0.234-0.188l0.188-1.172 0.375-0.188t0.375-0.234l1.125 0.422q0.141 0.094 0.234-0.094l0.938-1.547q0.094-0.141-0.047-0.281zM17.625 18.844q-0.563 0-0.961-0.398t-0.398-0.961 0.398-0.961 0.961-0.398 0.961 0.398 0.398 0.961-0.398 0.961-0.961 0.398z"></path>
</symbol>
<symbol id="icon-img-icon" viewBox="0 0 32 32">
<path fill="none" stroke="" style="" stroke-linejoin="miter" stroke-linecap="butt" stroke-miterlimit="10" stroke-width="2.237" d="M1.119 1.119h29.824v29.763h-29.824v-29.763z"></path>
<path fill="none" stroke="" style="stroke: var(--color1, )" stroke-linejoin="miter" stroke-linecap="butt" stroke-miterlimit="10" stroke-width="2.237" d="M1.119 21.541l7.904-7.895 6.784 6.771"></path>
<path fill="none" stroke="" style="stroke: var(--color1, )" stroke-linejoin="miter" stroke-linecap="butt" stroke-miterlimit="10" stroke-width="2.237" d="M4.44 30.946l19.74-19.695 6.768 6.753"></path>
</symbol>

<symbol id="icon-map-icons" viewBox="0 0 32 32">
<path fill="none" stroke="" style="" stroke-linejoin="miter" stroke-linecap="butt" stroke-miterlimit="10" stroke-width="2.2409" d="M1.12 1.12h29.859v29.759h-29.859v-29.759z"></path>
<path fill="none" stroke="" style="stroke: var(--color1, )" stroke-linejoin="miter" stroke-linecap="butt" stroke-miterlimit="10" stroke-width="2.2409" d="M1.119 23.184l14.736-14.687-7.383-7.361"></path>
<path fill="none" stroke="" style="stroke: var(--color1, )" stroke-linejoin="miter" stroke-linecap="butt" stroke-miterlimit="10" stroke-width="2.2409" d="M23.7 31.001l-10.504-10.468-10.393 10.357"></path>
<path fill="none" stroke="" style="stroke: var(--color1, )" stroke-linejoin="miter" stroke-linecap="butt" stroke-miterlimit="10" stroke-width="2.2409" d="M18.109 1.137l7.272 7.249-7.32 7.299 12.94 12.897"></path>
</symbol>
<symbol id="icon-Plane" viewBox="0 0 24 32">
<path fill="#fff" style="fill: var(--color1, #fff)" d="M0 31.997l4.719-32 19.281 25.226-13.358-1.94z"></path>
</symbol>
<symbol id="icon-share" viewBox="0 0 37 32">
<path fill="none" stroke="#fff" style="stroke: var(--color1, #fff)" stroke-linejoin="miter" stroke-linecap="butt" stroke-miterlimit="4" stroke-width="2.296" d="M35.878 13.605l-12.87-12.233c-0.12-0.137-0.296-0.223-0.492-0.223-0.007 0-0.014 0-0.020 0l0.001-0c-0.402 0.018-0.913 0.305-0.913 0.742v6.133c-0.004 0.191-0.144 0.348-0.326 0.38l-0.002 0c-12.798 1.992-18.189 11.719-20.090 21.812-0.073 0.398 0.459 0.769 0.703 0.459 4.67-5.975 10.352-9.873 19.338-9.95 0.216 0.037 0.379 0.221 0.383 0.444v6.022c0.036 0.401 0.37 0.713 0.778 0.713 0.212 0 0.404-0.085 0.545-0.222l-0 0 12.956-12.442c0.197-0.188 0.32-0.454 0.32-0.747 0-0.011-0-0.022-0.001-0.033l0 0.002c0-0.009 0-0.020 0-0.031 0-0.317-0.118-0.606-0.312-0.827l0.001 0.001z"></path>
</symbol>
<symbol id="icon-Favourite" viewBox="0 0 33 32">
<path fill="" stroke="" style="" stroke-linejoin="miter" stroke-linecap="butt" stroke-miterlimit="4" stroke-width="2.0269" d="M23.614 1.013h-0.077c-2.949 0.015-5.54 1.536-7.043 3.834l-0.020 0.032c-1.523-2.33-4.113-3.851-7.060-3.866h-0.076c-4.607 0.045-8.324 3.789-8.326 8.401v0c0.2 3.737 1.503 7.134 3.588 9.913l-0.034-0.047c4.479 6.118 11.912 11.47 11.912 11.47s7.434-5.352 11.91-11.471c2.051-2.731 3.355-6.129 3.552-9.82l0.002-0.045c-0.003-4.613-3.721-8.356-8.323-8.4l-0.004-0z"></path>
</symbol>
<symbol id="icon-back-arrow" viewBox="0 0 18 32">
<path fill="none" stroke="" style="" stroke-linejoin="miter" stroke-linecap="butt" stroke-miterlimit="4" stroke-width="3.187" d="M17.127 1.126l-14.873 14.873 14.873 14.873"></path>
</symbol>
<symbol id="icon-warning-icon" viewBox="0 0 14 32">
<path fill="#ff2d16" style="fill: var(--color1, #ff2d16)" d="M0 0v20.873h13.714v-20.873z"></path>
<path fill="#ff2d16" style="fill: var(--color1, #ff2d16)" d="M0 22.384l6.682 9.616 7.032-9.616z"></path>
<path fill="#fff" style="fill: var(--color2, #fff)" d="M5.125 5.283v-2.089h3.411v2.089l-0.851 8.252h-1.727zM5.182 14.763h3.296v2.765h-3.296z"></path>
</symbol>
<symbol id="icon-search1" viewBox="0 0 26 28">
<path d="M18 13c0-3.859-3.141-7-7-7s-7 3.141-7 7 3.141 7 7 7 7-3.141 7-7zM26 26c0 1.094-0.906 2-2 2-0.531 0-1.047-0.219-1.406-0.594l-5.359-5.344c-1.828 1.266-4.016 1.937-6.234 1.937-6.078 0-11-4.922-11-11s4.922-11 11-11 11 4.922 11 11c0 2.219-0.672 4.406-1.937 6.234l5.359 5.359c0.359 0.359 0.578 0.875 0.578 1.406z"></path>
</symbol>
<symbol id="icon-user-icon" viewBox="0 0 32 32">
<path fill="#294b5f" style="fill: var(--color1, #294b5f)" d="M16 17.999c4.97 0 9-4.029 9-9s-4.029-9-9-9c-4.97 0-9 4.029-9 9v0c0.002 4.97 4.030 8.998 9 9h0zM24.002 19.999h-3.445c-1.336 0.631-2.903 1-4.556 1s-3.22-0.369-4.623-1.028l0.066 0.028h-3.442c-4.419 0-8.001 3.582-8.002 8v1c0.001 1.656 1.343 2.999 3 3h26c1.656-0.001 2.999-1.343 3-3v-1c-0.001-4.418-3.582-7.999-8-8h-0z"></path>
</symbol>
<symbol id="icon-google" viewBox="0 0 32 32">
<path fill="#fff" style="fill: var(--color1, #fff)" d="M12.359 18.687h0.038l0.298 0.019 0.279 0.052 0.279 0.065 0.266 0.195 0.247 0.182 0.229 0.16 0.203 0.16 0.165 0.169 0.14 0.16 0.102 0.176 0.070 0.189 0.026 0.176 0.013 0.169-0.013 0.299-0.063 0.26-0.089 0.24-0.127 0.214-0.16 0.182-0.197 0.169-0.235 0.137-0.266 0.124-0.305 0.085-0.342 0.058-0.374 0.046-0.413 0.006-0.342-0.013-0.32-0.065-0.311-0.091-0.286-0.124-0.254-0.16-0.229-0.189-0.19-0.208-0.16-0.234-0.121-0.247-0.080-0.266-0.013-0.286 0.026-0.26 0.080-0.254 0.134-0.24 0.178-0.214 0.216-0.208 0.247-0.182 0.286-0.16 0.32-0.124 0.337-0.098 0.349-0.058 0.362-0.026z"></path>
<path fill="#fff" style="fill: var(--color1, #fff)" d="M11.956 9.651h0.038l0.258 0.045 0.246 0.080 0.252 0.141 0.234 0.186 0.208 0.224 0.19 0.256 0.164 0.288 0.138 0.313 0.107 0.345 0.063 0.345 0.019 0.294v0.269l-0.031 0.269-0.063 0.24-0.080 0.23-0.107 0.205-0.126 0.179-0.133 0.141-0.151 0.109-0.16 0.070-0.17 0.051-0.19 0.013h-0.013l-0.258-0.038-0.246-0.096-0.252-0.147-0.221-0.186-0.214-0.23-0.195-0.262-0.164-0.294-0.145-0.313-0.107-0.338-0.063-0.358-0.019-0.282v-0.275l0.031-0.256 0.050-0.24 0.088-0.224 0.107-0.205 0.12-0.179 0.17-0.16 0.19-0.122 0.208-0.070 0.227-0.026z"></path>
<path fill="#fff" style="fill: var(--color1, #fff)" d="M20.678 11.407l-0.137 0.030-0.122 0.080-0.080 0.119-0.030 0.15v2.702h-2.698l-0.152 0.030-0.122 0.080-0.080 0.12-0.022 0.135v0.772l0.022 0.15 0.080 0.12 0.122 0.080 0.152 0.030h2.698v2.702l0.030 0.135 0.080 0.12 0.122 0.080 0.137 0.030h0.767l0.152-0.030 0.114-0.080 0.076-0.12 0.030-0.135v-2.702h2.713l0.146-0.030 0.114-0.080 0.080-0.12 0.030-0.15v-0.772l-0.030-0.135-0.080-0.12-0.114-0.080-0.146-0.030h-2.713v-2.702l-0.030-0.15-0.076-0.119-0.114-0.080-0.152-0.030zM12.508 7.947l-0.517 0.030-0.524 0.090-0.532 0.15-0.448 0.188-0.433 0.226-0.4 0.254-0.372 0.293-0.32 0.32-0.281 0.345-0.24 0.36-0.19 0.391-0.137 0.39-0.091 0.414-0.030 0.413 0.030 0.487 0.091 0.458 0.129 0.442 0.19 0.413 0.24 0.391 0.281 0.345 0.32 0.316 0.35 0.277 0.4 0.233 0.426 0.188 0.456 0.142 0.486 0.090 0.494 0.037-0.046 0.263-0.022 0.248 0.030 0.32 0.080 0.315 0.152 0.3h-0.061l-0.532 0.022-0.509 0.068-0.502 0.105-0.48 0.135-0.457 0.18-0.441 0.21-0.395 0.24-0.372 0.27-0.334 0.3-0.296 0.33-0.25 0.352-0.198 0.382-0.16 0.4-0.106 0.413-0.030 0.4 0.023 0.292 0.061 0.286 0.091 0.27 0.129 0.27 0.198 0.301 0.24 0.285 0.289 0.255 0.334 0.232 0.365 0.218 0.4 0.195 0.448 0.166 0.48 0.142 0.524 0.113 0.539 0.075 0.554 0.053 0.57 0.022 0.509-0.022 0.486-0.053 0.486-0.075 0.456-0.12 0.502-0.172 0.463-0.203 0.426-0.248 0.38-0.277 0.342-0.301 0.289-0.345 0.25-0.361 0.205-0.375 0.137-0.406 0.091-0.42 0.030-0.427-0.023-0.443-0.038-0.405-0.080-0.383-0.114-0.36-0.167-0.33-0.19-0.32-0.228-0.301-0.281-0.285-0.326-0.286-0.372-0.277-0.19-0.143-0.182-0.15-0.167-0.16-0.152-0.15-0.13-0.15-0.122-0.128-0.076-0.12-0.061-0.105-0.022-0.075v-0.090l0.015-0.090 0.015-0.080 0.030-0.090 0.053-0.090 0.068-0.090 0.098-0.113 0.13-0.12 0.16-0.134 0.205-0.166 0.334-0.301 0.304-0.307 0.258-0.33 0.213-0.338 0.16-0.361 0.122-0.375 0.076-0.376 0.023-0.39-0.023-0.465-0.068-0.436-0.122-0.42-0.152-0.382-0.19-0.361-0.228-0.307h0.38l0.122-0.022 0.098-0.053 1.064-0.766 0.091-0.080 0.046-0.113 0.023-0.106-0.023-0.12-0.061-0.104-0.076-0.090-0.098-0.045-0.122-0.022zM16.004 0l1.010 0.044 0.988 0.090 0.973 0.15 0.966 0.21 0.927 0.27 0.912 0.316 0.88 0.382 0.858 0.421 0.821 0.473 0.791 0.518 0.76 0.57 0.73 0.602 0.691 0.653 0.646 0.69 0.608 0.72 0.57 0.757 0.518 0.8 0.471 0.818 0.426 0.863 0.38 0.88 0.32 0.909 0.266 0.931 0.213 0.953 0.152 0.983 0.091 0.99 0.030 1.006-0.030 1.013-0.091 0.991-0.152 0.982-0.213 0.946-0.266 0.931-0.32 0.915-0.38 0.88-0.426 0.863-0.471 0.818-0.518 0.8-0.57 0.758-0.608 0.72-0.646 0.69-0.691 0.653-0.73 0.6-0.76 0.571-0.791 0.518-0.821 0.473-0.858 0.42-0.88 0.376-0.912 0.32-0.927 0.27-0.966 0.21-0.973 0.15-0.988 0.090-1.010 0.038-1.010-0.038-1.004-0.090-0.973-0.15-0.95-0.21-0.942-0.27-0.897-0.32-0.89-0.376-0.851-0.42-0.836-0.473-0.79-0.518-0.76-0.571-0.72-0.6-0.692-0.653-0.646-0.69-0.615-0.72-0.554-0.758-0.524-0.8-0.471-0.818-0.426-0.863-0.372-0.88-0.32-0.915-0.274-0.931-0.205-0.946-0.152-0.982-0.098-0.991-0.030-1.013 0.030-1.006 0.098-0.99 0.152-0.983 0.205-0.953 0.274-0.931 0.32-0.909 0.372-0.88 0.426-0.863 0.471-0.818 0.524-0.8 0.554-0.757 0.615-0.72 0.646-0.69 0.692-0.653 0.72-0.602 0.76-0.57 0.79-0.518 0.836-0.473 0.851-0.421 0.89-0.382 0.897-0.316 0.942-0.27 0.95-0.21 0.973-0.15 1.004-0.090 1.010-0.044z"></path>
</symbol>
<symbol id="icon-culture" viewBox="0 0 18 32">
<path fill="#fff" style="fill: var(--color1, #fff)" d="M17.523 5.188c0.090-0.323 0.141-0.694 0.141-1.077 0-1.061-0.396-2.030-1.049-2.766l0.004 0.004c-0.795-0.828-1.911-1.343-3.147-1.343-0.013 0-0.026 0-0.040 0h-9.449c-0.332 0.007-0.599 0.278-0.599 0.612 0 0.094 0.021 0.182 0.059 0.262l-0.002-0.004c1.076 2.011 1.894 4.345 2.33 6.811l0.021 0.142c0 2.351-5.792 2.462-5.792 8.108 0 3.728 2.53 7.961 4.242 10.389 0.366 0.511 0.585 1.148 0.585 1.837 0 0.829-0.317 1.583-0.837 2.149l0.002-0.002c-0.148 0.178-0.238 0.409-0.238 0.661 0 0.57 0.461 1.033 1.031 1.036h6.617c0.57-0.007 1.030-0.471 1.030-1.042 0-0.249-0.087-0.477-0.232-0.656l0.002 0.002c-0.521-0.563-0.841-1.32-0.841-2.151 0-0.687 0.218-1.323 0.59-1.842l-0.007 0.010c1.703-2.426 4.242-6.661 4.242-10.389 0.002-0.058 0.003-0.126 0.003-0.194 0-1.227-0.381-2.364-1.031-3.301l0.013 0.019c-0.109-0.152-0.174-0.342-0.174-0.547 0-0.158 0.039-0.306 0.107-0.437l-0.002 0.005c0.943-1.794 1.77-3.885 2.369-6.071l0.052-0.223zM13.754 9.673c-0.158 0.329-0.49 0.553-0.873 0.553-0.192 0-0.37-0.056-0.521-0.152l0.004 0.002c-1.085-0.695-1.989-1.305-1.989-2.211 0.27-1.945 0.817-3.704 1.604-5.326l-0.046 0.105c0.149-0.343 0.485-0.578 0.876-0.578 0.010 0 0.020 0 0.029 0l-0.001-0h0.799c0.66 0.002 1.247 0.309 1.628 0.789l0.003 0.004c0.257 0.329 0.412 0.749 0.412 1.205 0 0.205-0.031 0.403-0.090 0.589l0.004-0.014c-0.54 1.954-1.167 3.623-1.923 5.219l0.083-0.194z"></path>
</symbol>
<symbol id="icon-hike" viewBox="0 0 38 32">
<path fill="#fff" style="fill: var(--color1, #fff)" d="M37.658 24.631v1.747h-18.536c-2.598 0-3.958-1.228-6.482-1.747-1.941-0.498-4.169-0.784-6.463-0.784-0.010 0-0.019 0-0.029 0h-6.14c-0-0.014-0-0.030-0-0.047 0-3.819 0.693-7.476 1.959-10.852l-0.070 0.213v-11.891c0-0.702 0.569-1.271 1.271-1.271v0h13.794c0.682 0.015 1.228 0.572 1.228 1.255 0 0.005-0 0.011-0 0.016v-0.001 3.308h-2.592c-0 0-0.001 0-0.001 0-0.267 0-0.483 0.216-0.483 0.483 0 0.013 0.001 0.025 0.001 0.038l-0-0.002c-0 0.006-0 0.012-0 0.019 0 0.261 0.211 0.472 0.472 0.472 0.004 0 0.008-0 0.012-0h2.634v2.448c-0.009 0.117-0.014 0.254-0.014 0.392s0.005 0.275 0.015 0.41l-0.001-0.018h-0.085l-2.437 0.548c-0.23 0.079-0.392 0.294-0.392 0.546 0 0.024 0.001 0.048 0.004 0.071l-0-0.003c0.065 0.217 0.263 0.373 0.498 0.373 0.041 0 0.081-0.005 0.12-0.014l-0.004 0.001 2.437-0.557c0.249 1.065 0.698 2 1.307 2.805l-0.013-0.018-1.889 1.482c-0.138 0.087-0.229 0.238-0.229 0.41 0 0.015 0.001 0.030 0.002 0.045l-0-0.002c0.004 0.253 0.21 0.456 0.464 0.456 0.019 0 0.039-0.001 0.057-0.004l-0.002 0c0.11-0.002 0.211-0.037 0.294-0.096l-0.002 0.001 1.957-1.55 0.066-0.066c0.135 0.158 0.283 0.297 0.446 0.418l0.007 0.005c0.623 0.519 1.304 1.078 2.041 1.72l-0.161 0.161-1.52 1.889c-0.082 0.091-0.133 0.213-0.133 0.347 0 0.014 0.001 0.029 0.002 0.043l-0-0.002c0.009 0.253 0.217 0.456 0.472 0.456 0.017 0 0.033-0.001 0.049-0.003l-0.002 0c0.008 0.001 0.017 0.001 0.027 0.001 0.141 0 0.264-0.075 0.332-0.188l0.001-0.002 1.559-1.889c0.058-0.058 0.094-0.138 0.095-0.226v-0c0.879 0.68 1.815 1.36 2.753 2.041-0.078 0.037-0.141 0.092-0.187 0.159l-0.001 0.002-1.332 2.107c-0.041 0.073-0.065 0.159-0.065 0.252 0 0.177 0.089 0.334 0.224 0.427l0.002 0.001c0.077 0.057 0.174 0.091 0.279 0.091 0.168 0 0.316-0.088 0.4-0.221l0.001-0.002 1.332-2.135c0.037-0.065 0.061-0.143 0.066-0.225l0-0.001c0.852 0.601 1.826 1.182 2.844 1.688l0.131 0.059c-0.036 0.038-0.068 0.081-0.094 0.128l-0.002 0.003-1.040 2.23c-0.039 0.071-0.061 0.155-0.061 0.245 0 0.287 0.232 0.519 0.519 0.519 0.222 0 0.412-0.14 0.486-0.337l0.001-0.004 1.040-2.268c0.007-0.020 0.012-0.042 0.012-0.066s-0.004-0.046-0.012-0.067l0 0.001c0.628 0.27 1.357 0.475 2.119 0.581l0.045 0.005 1.427 0.161c1.298 0.129 2.383 0.93 2.911 2.047l0.009 0.022c0.108 0.343 0.197 0.753 0.25 1.173l0.004 0.036z"></path>
<path fill="#fff" style="fill: var(--color1, #fff)" d="M6.226 26.973c0.008 0 0.016 0 0.025 0 2.275 0 4.484 0.283 6.594 0.815l-0.186-0.040c2.541 0.51 3.892 1.739 6.491 1.739h18.532v0.616c0 1.043-0.846 1.889-1.889 1.889h-0.745l-0.284-1.133h-0.568l-0.284 1.133h-2.251l-0.284-1.133h-0.568l-0.284 1.133h-2.257l-0.284-1.133h-0.557l-0.284 1.133h-2.257l-0.284-1.133h-0.568l-0.284 1.133h-2.257l-0.284-1.133h-0.568l-0.284 1.133h-2.003l-4.659-1.512c-0.107-0.031-0.229-0.049-0.355-0.049-0.444 0-0.838 0.219-1.078 0.555l-0.003 0.004-0.718 1.002h-1.927l-0.284-1.133h-0.568l-0.273 1.133h-2.255l-0.273-1.133h-0.568l-0.284 1.133h-2.257l-0.284-1.133h-0.568l-0.284 1.133h-0.434c-0 0-0 0-0.001 0-0.694 0-1.256-0.562-1.256-1.256 0-0.013 0-0.027 0.001-0.040l-0 0.002v-3.772z"></path>
</symbol>
<symbol id="icon-water" viewBox="0 0 64 32">
<path fill="#fff" style="fill: var(--color1, #fff)" d="M64.055 25.175v5.108c-2.546 0-4.266 1.72-6.773 1.72s-4.285-1.72-6.828-1.72c-1.245 0.072-2.404 0.369-3.461 0.851l0.060-0.025c-0.985 0.511-2.142 0.835-3.369 0.893l-0.019 0.001c-2.546 0-4.214-1.72-6.773-1.72s-4.285 1.72-6.84 1.72-4.214-1.72-6.773-1.72-4.285 1.72-6.84 1.72c-1.246-0.061-2.403-0.384-3.435-0.916l0.047 0.022c-0.992-0.459-2.147-0.756-3.363-0.825l-0.025-0.001c-2.562 0-4.285 1.72-6.828 1.72-1.035-0.019-2.010-0.263-2.881-0.685l0.041 0.018v-5.108c0.831 0.404 1.805 0.649 2.834 0.667l0.006 0c2.546 0 4.266-1.72 6.828-1.72s4.226 1.72 6.773 1.72 4.285-1.72 6.84-1.72 4.285 1.72 6.773 1.72 4.285-1.72 6.84-1.72 4.285 1.72 6.773 1.72 4.285-1.72 6.84-1.72 4.285 1.72 6.828 1.72 4.178-1.72 6.724-1.72z"></path>
<path fill="#fff" style="fill: var(--color1, #fff)" d="M64.055 0v5.111c-2.546 0-4.266 1.668-6.773 1.668s-4.285-1.668-6.828-1.668c-1.243 0.044-2.406 0.344-3.452 0.849l0.052-0.022c-0.988 0.494-2.148 0.799-3.375 0.838l-0.013 0c-2.546 0-4.214-1.668-6.773-1.668s-4.285 1.668-6.84 1.668-4.214-1.668-6.773-1.668-4.285 1.668-6.84 1.668c-1.24-0.041-2.399-0.346-3.437-0.86l0.049 0.022c-0.99-0.484-2.149-0.784-3.374-0.826l-0.014-0c-2.562 0-4.285 1.668-6.828 1.668-1.031-0.027-2.003-0.25-2.891-0.632l0.051 0.019v-5.099c0.837 0.362 1.809 0.585 2.83 0.612l0.010 0c2.546 0 4.266-1.668 6.828-1.668s4.226 1.668 6.773 1.668 4.285-1.668 6.84-1.668 4.285 1.668 6.773 1.668 4.285-1.668 6.84-1.668 4.285 1.668 6.773 1.668 4.285-1.668 6.84-1.668 4.285 1.668 6.828 1.668 4.178-1.68 6.724-1.68z"></path>
<path fill="#fff" style="fill: var(--color1, #fff)" d="M64.055 12.373v5.12c-2.546 0-4.266 1.668-6.773 1.668s-4.285-1.668-6.828-1.668c-1.243 0.044-2.406 0.344-3.452 0.849l0.052-0.022c-0.988 0.494-2.148 0.799-3.375 0.838l-0.013 0c-2.546 0-4.214-1.668-6.773-1.668s-4.285 1.668-6.84 1.668-4.214-1.668-6.773-1.668-4.285 1.668-6.84 1.668c-1.24-0.041-2.399-0.346-3.437-0.86l0.049 0.022c-0.99-0.484-2.149-0.784-3.374-0.826l-0.014-0c-2.562 0-4.285 1.668-6.828 1.668-1.031-0.027-2.003-0.25-2.891-0.632l0.051 0.019v-5.108c0.837 0.362 1.809 0.585 2.83 0.612l0.010 0c2.546 0 4.266-1.668 6.828-1.668s4.174 1.72 6.733 1.72 4.285-1.668 6.84-1.668 4.285 1.668 6.773 1.668 4.285-1.668 6.84-1.668 4.285 1.668 6.773 1.668 4.285-1.668 6.84-1.668 4.285 1.668 6.828 1.668 4.217-1.732 6.764-1.732z"></path>
</symbol>
<symbol id="icon-bike" viewBox="0 0 48 32">
<path fill="#fff" style="fill: var(--color1, #fff)" d="M39.25 13.55c2.025 0.009 3.908 0.605 5.492 1.626l-0.040-0.024 0.151-3.8c0.001-0.016 0.001-0.035 0.001-0.054 0-0.43-0.241-0.803-0.595-0.993l-0.006-0.003-7.6-4.049-3.349-5.9c-0.13-0.212-0.361-0.35-0.623-0.35-0.009 0-0.018 0-0.028 0.001l0.001-0h-4.255c-0.002-0-0.005-0-0.007-0-0.19 0-0.343 0.154-0.343 0.343 0 0.002 0 0.005 0 0.007v-0 1.851c-0 0.002-0 0.005-0 0.007 0 0.19 0.154 0.343 0.343 0.343 0.002 0 0.005-0 0.007-0h3.15l2.059 3.601c-1.076 0.435-1.991 1.063-2.743 1.848l-0.003 0.003c-1.827 1.633-4.252 2.632-6.909 2.632-1.559 0-3.037-0.343-4.364-0.959l0.064 0.027c-4.766-1.761-10.308-3.053-16.060-3.636l-0.29-0.024c-0.020-0.003-0.043-0.005-0.067-0.005-0.274 0-0.496 0.222-0.496 0.496 0 0.038 0.004 0.075 0.012 0.111l-0.001-0.003 0.35 2.45c0.035 0.164 0.124 0.302 0.248 0.399l0.001 0.001 3.349 1.75-0.551 2.548c0.598-0.127 1.285-0.2 1.99-0.2 0.039 0 0.078 0 0.116 0.001l-0.006-0c0.007-0 0.015-0 0.023-0 5.621 0 10.178 4.557 10.178 10.178 0 0.008 0 0.016-0 0.024v-0.001h10.601c-0-0.007-0-0.015-0-0.023 0-5.637 4.563-10.208 10.197-10.221h0.001z"></path>
<path fill="#fff" style="fill: var(--color1, #fff)" d="M39.6 6.552h0.599c0.001 0 0.002 0 0.002 0 0.305 0 0.553-0.246 0.556-0.551v-3.699c-0.003-0.303-0.248-0.549-0.551-0.551h-0.7c-1.305 0.028-2.352 1.093-2.352 2.402 0 1.327 1.076 2.403 2.403 2.403 0.018 0 0.035-0 0.053-0.001l-0.003 0z"></path>
<path fill="#fff" style="fill: var(--color1, #fff)" d="M8.252 15.501c-4.556 0-8.249 3.693-8.249 8.249s3.693 8.249 8.249 8.249c4.555 0 8.248-3.692 8.249-8.247v-0c-0.004-4.555-3.695-8.246-8.249-8.252h-0.001zM8.252 26.802c-1.684 0-3.049-1.365-3.049-3.049s1.365-3.049 3.049-3.049v0c1.684 0 3.049 1.365 3.049 3.049s-1.365 3.049-3.049 3.049v0z"></path>
<path fill="#fff" style="fill: var(--color1, #fff)" d="M39.252 15.501c-4.555 0.001-8.247 3.694-8.247 8.249s3.693 8.249 8.249 8.249c4.555 0 8.248-3.692 8.249-8.247v-0c-0.004-4.556-3.696-8.248-8.251-8.252h-0zM39.252 26.802c-1.684 0-3.049-1.365-3.049-3.049s1.365-3.049 3.049-3.049c1.684 0 3.049 1.365 3.049 3.049v0c-0.006 1.682-1.368 3.043-3.049 3.049h-0.001z"></path>
</symbol>
<symbol id="icon-camp" viewBox="0 0 47 32">
<path fill="#fff" style="fill: var(--color1, #fff)" d="M13.195 0l0.328 0.919c0.062 0.123 0.112 0.267 0.142 0.417l0.002 0.011 5.662 16.016 2.393 6.753 1.922 5.489 0.846 2.386h21.055c0.030 0.002 0.065 0.003 0.101 0.003 0.522 0 0.986-0.248 1.28-0.633l0.003-0.004c0.207-0.287 0.331-0.646 0.331-1.034 0-0.265-0.058-0.517-0.162-0.743l0.005 0.011-10.036-28.428c-0.23-0.669-0.846-1.144-1.575-1.164l-0.002-0zM10.244 1.785l-10.17 28.797c-0.045 0.113-0.070 0.245-0.070 0.382 0 0.222 0.067 0.428 0.183 0.599l-0.002-0.004c0.171 0.255 0.458 0.42 0.784 0.42 0.023 0 0.047-0.001 0.070-0.003l-0.003 0h9.334v-29.856zM13.732 11.598v20.402h7.21l-0.423-1.142-1.922-5.479-2.413-6.762v-0.122z"></path>
</symbol>
<symbol id="icon-climb" viewBox="0 0 32 32">
<path fill="#fff" style="fill: var(--color1, #fff)" d="M21.463 8.58v0c0.119 0.178 0.19 0.397 0.19 0.632 0 0.395-0.2 0.743-0.503 0.948l-0.004 0.003c-0.179 0.116-0.398 0.186-0.633 0.186h-9.116v3.134l8.978 16.828c0.085 0.155 0.135 0.34 0.135 0.537 0 0.434-0.243 0.811-0.601 1.002l-0.006 0.003c-0.151 0.081-0.33 0.129-0.52 0.129-0.005 0-0.011-0-0.016-0h-18.222c-0.002 0-0.005 0-0.008 0-0.628 0-1.136-0.509-1.136-1.136 0 0 0-0 0-0v0c0.014-0.201 0.078-0.384 0.181-0.54l-0.003 0.004 8.929-16.828v-12.243c-0.003-0.029-0.004-0.063-0.004-0.098 0-0.632 0.512-1.145 1.145-1.145s1.145 0.512 1.145 1.145c0 0.034-0.002 0.069-0.005 0.102l0-0.004h9.122c0.628 0 1.136 0.509 1.136 1.136v0c0 0.001 0 0.003 0 0.004 0 0.234-0.070 0.451-0.189 0.633l0.003-0.004-1.866 2.785zM31.715 30.233l-4.56-6.836c-0.207-0.304-0.551-0.501-0.941-0.504h-2.778l-3.092-5.148c-0.192-0.334-0.547-0.555-0.953-0.555-0.027 0-0.054 0.001-0.081 0.003l0.004-0c-0.425 0.016-0.788 0.263-0.971 0.618l-0.003 0.006-0.999 1.997 5.035 9.441c0.249 0.462 0.395 1.010 0.395 1.593 0 0.413-0.073 0.809-0.208 1.175l0.008-0.024h8.191c0.003 0 0.005 0 0.008 0 0.623 0 1.128-0.505 1.128-1.128 0-0.003 0-0.006-0-0.009v0c0-0.004 0-0.008 0-0.012 0-0.23-0.068-0.445-0.184-0.625l0.003 0.005z"></path>
</symbol>

<symbol id="icon-file-text" viewBox="0 0 32 32">
<path d="M27 0h-24c-1.65 0-3 1.35-3 3v26c0 1.65 1.35 3 3 3h24c1.65 0 3-1.35 3-3v-26c0-1.65-1.35-3-3-3zM26 28h-22v-24h22v24zM8 14h14v2h-14zM8 18h14v2h-14zM8 22h14v2h-14zM8 10h14v2h-14z"></path>
</symbol>
 <symbol xmlns="http://www.w3.org/2000/svg" viewBox="0 0 21.5 21.5" id="list-icon">
    <g id="list-icon" transform="translate(0.25 0.75)">
      <g id="Group_2746">
        <rect id="Rectangle_246" width="20" height="20" transform="translate(0.5)" fill="none" stroke="" stroke-miterlimit="10" stroke-width="1.5"></rect>
      </g>
      <g id="Group_2747">
        <g id="Group_542" transform="translate(3 4.001)">
          <line id="Line_50" x2="15.11" fill="none" stroke="" stroke-width="1.5"></line>
          <line id="Line_51" x2="15.11" transform="translate(0 3.935)" fill="none" stroke="" stroke-width="1.5"></line>
          <line id="Line_52" x2="15.11" transform="translate(0 7.869)" fill="none" stroke="" stroke-width="1.5"></line>
          <line id="Line_53" x2="15.11" transform="translate(0 11.804)" fill="none" stroke="" stroke-width="1.5"></line>
        </g>
      </g>
    </g>
  </symbol>
</defs>
</svg>
