<svg aria-hidden="true" style="position:absolute;width:0;height:0" xmlns="http://www.w3.org/2000/svg" xmlns:xlink="http://www.w3.org/1999/xlink" overflow="hidden"><defs><symbol id="icon-facebook" viewBox="0 0 32 32"><path d="M17.417 7.271l-.461.01-.422.048-.393.096-.353.108-.324.135-.291.154-.256.183-.244.202-.207.202-.186.231-.167.241-.127.252-.128.26-.097.26-.079.26-.058.26-.048.26-.029.25-.02.241v2.355h-1.833v3.274h1.833v9.28h3.855v-9.28h2.598l.343-3.274h-2.941v-1.93l.019-.221.049-.173.068-.154.089-.116.108-.096.127-.057.118-.038.118-.02.118-.009h2.068V7.277l-2.844-.01zM16.004-.001l1.009.038.991.087.97.154.961.212.931.271.912.319.873.377.863.425.823.464.785.521.765.57.735.598.687.657.639.687.608.727.582.762.519.803.471.82.422.86.372.873.324.909.275.937.207.945.145.985.089.985.039 1.018-.039 1.018-.089.985-.145.985-.207.945-.275.937-.324.908-.372.873-.422.86-.471.82-.519.801-.582.762-.608.727-.639.687-.687.646-.735.608-.765.57-.785.522-.823.464-.863.425-.873.377-.912.319-.931.271-.961.212-.97.154-.991.086-1.009.039-1.009-.039-1.001-.086-.972-.154-.951-.212-.941-.271-.903-.319-.892-.377-.854-.425-.825-.464-.794-.522-.765-.57-.716-.608-.687-.646-.657-.687-.608-.727-.559-.762-.519-.801-.471-.82-.436-.86-.374-.873-.313-.908-.275-.937-.207-.945-.157-.985-.097-.985-.029-1.018.029-1.018L.118 14l.157-.985.207-.945.275-.937.313-.909.374-.873.436-.86.471-.82.519-.803.559-.762.608-.727.657-.687.687-.657.716-.598.765-.57.794-.521.825-.464.854-.425.892-.377.903-.319.941-.271.951-.212.972-.154 1.001-.087 1.009-.038z"/></symbol><symbol id="icon-instagram" viewBox="0 0 32 32"><path d="M15.999 12.799l.436.029.423.087.393.145.369.193.345.243.305.291.259.31.204.32.173.359.118.358.079.388.023.407-.023.417-.095.416-.125.378-.188.359-.22.339-.266.301-.305.262-.33.223-.361.193-.384.127-.407.087-.423.029-.436-.029-.4-.087-.393-.127-.361-.193-.33-.223-.291-.262-.275-.301-.22-.339-.18-.359-.134-.378-.079-.416-.032-.417.023-.407.071-.388.134-.358.157-.359.204-.32.266-.31.305-.291.337-.243.369-.193.4-.145.423-.087.436-.029zM22.544 8.937h.387v3.055l-2.909.01-.007-3.055 2.535-.01z"/><path d="M10.417 6.908l-.436.029-.417.079-.409.129-.385.169-.361.228-.313.257-.304.291-.249.326-.217.358-.185.377-.128.406-.081.426-.023.436v11.169l.023.445.081.416.128.406.185.387.217.346.249.327.304.291.313.257.361.218.385.169.409.128.417.09.436.029h11.164l.436-.029.425-.09.401-.128.393-.169.353-.218.329-.257.291-.291.256-.327.224-.346.169-.387.128-.406.08-.416.033-.445V10.419l-.033-.436-.08-.426-.128-.406-.169-.377-.224-.358-.256-.326-.291-.291-.329-.257-.353-.228-.393-.169-.401-.129-.425-.079-.436-.029zM16-.001l1.018.039.995.089.972.145.956.218.931.268.915.316.883.387.858.416.819.465.794.525.753.575.737.595.691.655.634.684.611.727.582.762.513.803.474.813.417.863.385.883.32.912.265.931.217.951.145.982.096.991.025 1.011-.025 1.018-.096.991-.145.98-.217.951-.265.921-.32.912-.385.881-.417.863-.474.822-.513.803-.582.753-.611.727-.634.694-.691.644-.737.604-.753.564-.794.525-.819.465-.858.426-.883.375-.915.317-.931.278-.956.208-.972.145-.995.089L16 32l-1.011-.039-1.004-.089-.972-.145-.947-.208-.94-.278-.908-.317-.89-.375-.851-.426-.826-.465-.794-.525-.753-.564-.727-.604-.691-.644-.65-.694-.611-.727-.561-.753-.522-.803-.474-.822-.425-.863-.377-.881-.313-.912-.272-.921-.209-.951-.145-.98-.105-.991-.025-1.018.025-1.011.105-.991.145-.982.209-.951.272-.931.313-.912.377-.883.425-.863.474-.813.522-.803.561-.762.611-.727.65-.684.691-.655.727-.595.753-.575.794-.525.826-.465.851-.416.89-.387.908-.316.94-.268.947-.218.972-.145 1.004-.089L16-.001z"/><path d="M8.831 14.257h2.627l-.145.436-.116.458-.063.458-.023.487.031.527.077.516.132.497.186.477.233.448.272.419.311.39.349.351.372.321.42.273.436.234.467.185.49.137.513.087.521.029.528-.029.497-.087.497-.137.467-.185.436-.234.412-.273.388-.321.342-.351.311-.39.272-.419.233-.448.186-.477.132-.497.077-.516.031-.527-.016-.487-.077-.458-.109-.458-.156-.436h2.634v7.328l-.031.303-.077.303-.124.263-.163.234-.202.205-.241.176-.265.127-.279.079-.311.029H10.501l-.291-.029-.291-.079-.265-.127-.233-.176-.202-.205-.163-.234-.124-.263-.077-.303-.031-.303v-7.328z"/></symbol><symbol id="icon-twitter" viewBox="0 0 32 32"><path d="M16 32C7.164 32 .001 24.836.001 16A15.95 15.95 0 014.687 4.687 15.951 15.951 0 0116.076-.075c8.837 0 16 7.163 16 16 0 4.456-1.822 8.486-4.761 11.388l-.002.002a15.844 15.844 0 01-11.269 4.687h-.047.002zM7.468 21.776a10.297 10.297 0 005.68 1.69h.023-.001.029c5.828 0 10.553-4.725 10.553-10.553l-.001-.178v.009c0-.157 0-.317-.012-.487a7.597 7.597 0 001.844-1.927l.017-.028a7.522 7.522 0 01-2.103.591l-.039.004a3.77 3.77 0 001.628-2.056l.007-.027a7.195 7.195 0 01-2.311.904l-.047.008a3.708 3.708 0 00-6.43 2.518v.062-.003.045c0 .288.032.569.092.839l-.005-.025a10.516 10.516 0 01-7.65-3.92l-.016-.02a3.818 3.818 0 00-.509 1.905v.004c0 1.293.649 2.435 1.64 3.117l.013.008a3.607 3.607 0 01-1.696-.473l.018.009v.05a3.783 3.783 0 002.954 3.691l.025.005a3.58 3.58 0 01-.947.125h-.029.001l-.065.001c-.226 0-.447-.024-.659-.07l.021.004a3.766 3.766 0 003.468 2.622h.006a7.403 7.403 0 01-4.609 1.607H8.287c-.288 0-.573-.018-.851-.053l.033.003z"/></symbol><symbol id="icon-miscellaneous_services" viewBox="0 0 24 24"><path d="M14.156 13.688l1.406-2.391q.141-.281-.094-.469l-1.453-1.125q.047-.375.047-.703t-.047-.703l1.453-1.125q.234-.234.094-.469l-1.406-2.438q-.141-.234-.422-.141L12 4.827q-.563-.422-1.172-.703l-.281-1.828q-.047-.281-.328-.281H7.406q-.281 0-.328.281l-.281 1.875q-.656.234-1.172.656l-1.734-.703q-.281-.094-.422.188L2.063 6.703q-.188.281.047.469l1.5 1.125q-.047.375-.047.703t.047.703l-1.5 1.125q-.234.234-.047.469l1.406 2.438q.141.234.422.141l1.734-.703q.563.422 1.172.703l.281 1.828q.047.281.328.281h2.813q.281 0 .328-.281l.281-1.875q.656-.234 1.172-.656l1.734.703q.281.094.422-.188zm-5.343-2.672q-.844 0-1.43-.586T6.797 9t.586-1.43 1.43-.586 1.43.586.586 1.43-.586 1.43-1.43.586zm13.125 7.64l-.984-.703q0-.141.023-.234t.023-.234q0-.234-.047-.422l.938-.75q.188-.141.047-.281l-.891-1.547q-.047-.188-.281-.094l-1.078.422q-.375-.281-.797-.422l-.141-1.172q-.047-.234-.234-.234h-1.781q-.188 0-.234.188l-.141 1.219q-.234.047-.422.164t-.328.258l-1.125-.469q-.188-.047-.281.094l-.891 1.594q-.094.141.047.281l.938.75q-.047.188-.047.422t.047.422l-.938.75q-.141.141-.047.281l.891 1.547q.094.188.281.094l1.125-.422q.328.281.75.422l.141 1.172q.047.188.234.188h1.781q.234 0 .234-.188l.188-1.172.375-.188.375-.234 1.125.422q.141.094.234-.094l.938-1.547q.094-.141-.047-.281zm-4.313.188q-.563 0-.961-.398t-.398-.961.398-.961.961-.398.961.398.398.961-.398.961-.961.398z"/></symbol><symbol id="icon-img-icon" viewBox="0 0 32 32"><path fill="none" stroke-miterlimit="10" stroke-width="2.237" d="M1.119 1.119h29.824v29.763H1.119V1.119z"/><path fill="none" stroke="var(--color1, )" stroke-miterlimit="10" stroke-width="2.237" d="M1.119 21.541l7.904-7.895 6.784 6.771"/><path fill="none" stroke="var(--color1, )" stroke-miterlimit="10" stroke-width="2.237" d="M4.44 30.946l19.74-19.695 6.768 6.753"/></symbol><symbol id="icon-map-icons" viewBox="0 0 32 32"><path fill="none" stroke-miterlimit="10" stroke-width="2.241" d="M1.12 1.12h29.859v29.759H1.12V1.12z"/><path fill="none" stroke="var(--color1, )" stroke-miterlimit="10" stroke-width="2.241" d="M1.119 23.184L15.855 8.497 8.472 1.136M23.7 31.001L13.196 20.533 2.803 30.89M18.109 1.137l7.272 7.249-7.32 7.299 12.94 12.897"/></symbol><symbol id="icon-Plane" viewBox="0 0 24 32"><path d="M0 31.997l4.719-32L24 25.223l-13.358-1.94z"/></symbol><symbol id="icon-share" viewBox="0 0 37 32"><path fill="none" stroke="var(--color1, #fff)" stroke-width="2.296" d="M35.878 13.605L23.008 1.372a.652.652 0 00-.492-.223h-.02.001c-.402.018-.913.305-.913.742v6.133a.395.395 0 01-.326.38h-.002C8.458 10.396 3.067 20.123 1.166 30.216c-.073.398.459.769.703.459 4.67-5.975 10.352-9.873 19.338-9.95a.46.46 0 01.383.444v6.022a.781.781 0 001.323.491h0L35.869 15.24c.197-.188.32-.454.32-.747l-.001-.033V14.431a1.25 1.25 0 00-.312-.827l.001.001z"/></symbol><symbol id="icon-Favourite" viewBox="0 0 33 32"><path stroke-width="2.027" d="M23.614 1.013h-.077a8.453 8.453 0 00-7.043 3.834l-.02.032c-1.523-2.33-4.113-3.851-7.06-3.866h-.076a8.406 8.406 0 00-8.326 8.401A18.042 18.042 0 004.6 19.327l-.034-.047c4.479 6.118 11.912 11.47 11.912 11.47s7.434-5.352 11.91-11.471a17.942 17.942 0 003.552-9.82l.002-.045a8.405 8.405 0 00-8.323-8.4h-.004z"/></symbol><symbol id="icon-back-arrow" viewBox="0 0 18 32"><path fill="none" stroke-width="3.187" d="M17.127 1.126L2.254 15.999l14.873 14.873"/></symbol><symbol id="icon-warning-icon" viewBox="0 0 14 32"><path fill="var(--color1, #ff2d16)" d="M0 0v20.873h13.714V0zM0 22.384L6.682 32l7.032-9.616z"/><path fill="var(--color2, #fff)" d="M5.125 5.283V3.194h3.411v2.089l-.851 8.252H5.958zm.057 9.48h3.296v2.765H5.182z"/></symbol><symbol id="icon-search1" viewBox="0 0 26 28"><path d="M18 13c0-3.859-3.141-7-7-7s-7 3.141-7 7 3.141 7 7 7 7-3.141 7-7zm8 13c0 1.094-.906 2-2 2a1.96 1.96 0 01-1.406-.594l-5.359-5.344a10.971 10.971 0 01-6.234 1.937c-6.078 0-11-4.922-11-11s4.922-11 11-11 11 4.922 11 11c0 2.219-.672 4.406-1.937 6.234l5.359 5.359c.359.359.578.875.578 1.406z"/></symbol><symbol id="icon-user-icon" viewBox="0 0 32 32"><path fill="var(--color1, #294b5f)" d="M16 17.999a9 9 0 10-9-9 9.003 9.003 0 009 9zm8.002 2h-3.445c-1.336.631-2.903 1-4.556 1s-3.22-.369-4.623-1.028l.066.028H8.002a8.002 8.002 0 00-8.002 8v1a3.002 3.002 0 003 3h26a3.002 3.002 0 003-3v-1a8.002 8.002 0 00-8-8z"/></symbol><symbol id="icon-google" viewBox="0 0 32 32"><path d="M12.359 18.687h.038l.298.019.279.052.279.065.266.195.247.182.229.16.203.16.165.169.14.16.102.176.07.189.026.176.013.169-.013.299-.063.26-.089.24-.127.214-.16.182-.197.169-.235.137-.266.124-.305.085-.342.058-.374.046-.413.006-.342-.013-.32-.065-.311-.091-.286-.124-.254-.16-.229-.189-.19-.208-.16-.234-.121-.247-.08-.266-.013-.286.026-.26.08-.254.134-.24.178-.214.216-.208.247-.182.286-.16.32-.124.337-.098.349-.058.362-.026zM11.956 9.651h.038l.258.045.246.08.252.141.234.186.208.224.19.256.164.288.138.313.107.345.063.345.019.294v.269l-.031.269-.063.24-.08.23-.107.205-.126.179-.133.141-.151.109-.16.07-.17.051-.19.013h-.013l-.258-.038-.246-.096-.252-.147-.221-.186-.214-.23-.195-.262-.164-.294-.145-.313-.107-.338-.063-.358-.019-.282v-.275l.031-.256.05-.24.088-.224.107-.205.12-.179.17-.16.19-.122.208-.07.227-.026z"/><path d="M20.678 11.407l-.137.03-.122.08-.08.119-.03.15v2.702h-2.698l-.152.03-.122.08-.08.12-.022.135v.772l.022.15.08.12.122.08.152.03h2.698v2.702l.03.135.08.12.122.08.137.03h.767l.152-.03.114-.08.076-.12.03-.135v-2.702h2.713l.146-.03.114-.08.08-.12.03-.15v-.772l-.03-.135-.08-.12-.114-.08-.146-.03h-2.713v-2.702l-.03-.15-.076-.119-.114-.08-.152-.03zm-8.17-3.46l-.517.03-.524.09-.532.15-.448.188-.433.226-.4.254-.372.293-.32.32-.281.345-.24.36-.19.391-.137.39-.091.414-.03.413.03.487.091.458.129.442.19.413.24.391.281.345.32.316.35.277.4.233.426.188.456.142.486.09.494.037-.046.263-.022.248.03.32.08.315.152.3h-.061l-.532.022-.509.068-.502.105-.48.135-.457.18-.441.21-.395.24-.372.27-.334.3-.296.33-.25.352-.198.382-.16.4-.106.413-.03.4.023.292.061.286.091.27.129.27.198.301.24.285.289.255.334.232.365.218.4.195.448.166.48.142.524.113.539.075.554.053.57.022.509-.022.486-.053.486-.075.456-.12.502-.172.463-.203.426-.248.38-.277.342-.301.289-.345.25-.361.205-.375.137-.406.091-.42.03-.427-.023-.443-.038-.405-.08-.383-.114-.36-.167-.33-.19-.32-.228-.301-.281-.285-.326-.286-.372-.277-.19-.143-.182-.15-.167-.16-.152-.15-.13-.15-.122-.128-.076-.12-.061-.105-.022-.075v-.09l.015-.09.015-.08.03-.09.053-.09.068-.09.098-.113.13-.12.16-.134.205-.166.334-.301.304-.307.258-.33.213-.338.16-.361.122-.375.076-.376.023-.39-.023-.465-.068-.436-.122-.42-.152-.382-.19-.361-.228-.307h.38l.122-.022.098-.053 1.064-.766.091-.08.046-.113.023-.106-.023-.12-.061-.104-.076-.09-.098-.045-.122-.022zM16.004 0l1.01.044.988.09.973.15.966.21.927.27.912.316.88.382.858.421.821.473.791.518.76.57.73.602.691.653.646.69.608.72.57.757.518.8.471.818.426.863.38.88.32.909.266.931.213.953.152.983.091.99.03 1.006-.03 1.013-.091.991-.152.982-.213.946-.266.931-.32.915-.38.88-.426.863-.471.818-.518.8-.57.758-.608.72-.646.69-.691.653-.73.6-.76.571-.791.518-.821.473-.858.42-.88.376-.912.32-.927.27-.966.21-.973.15-.988.09-1.01.038-1.01-.038-1.004-.09-.973-.15-.95-.21-.942-.27-.897-.32-.89-.376-.851-.42-.836-.473-.79-.518-.76-.571-.72-.6-.692-.653-.646-.69-.615-.72-.554-.758-.524-.8-.471-.818-.426-.863-.372-.88-.32-.915-.274-.931-.205-.946-.152-.982-.098-.991-.03-1.013.03-1.006.098-.99.152-.983.205-.953.274-.931.32-.909.372-.88.426-.863.471-.818.524-.8.554-.757.615-.72.646-.69.692-.653.72-.602.76-.57.79-.518.836-.473.851-.421.89-.382.897-.316.942-.27.95-.21.973-.15 1.004-.09L16.004 0z"/></symbol><symbol id="icon-culture" viewBox="0 0 18 32"><path d="M17.523 5.188c.09-.323.141-.694.141-1.077 0-1.061-.396-2.03-1.049-2.766l.004.004A4.35 4.35 0 0013.472.006H3.983a.612.612 0 00-.54.874L3.441.876c1.076 2.011 1.894 4.345 2.33 6.811l.021.142C5.792 10.18 0 10.291 0 15.937c0 3.728 2.53 7.961 4.242 10.389a3.15 3.15 0 01.585 1.837c0 .829-.317 1.583-.837 2.149l.002-.002a1.036 1.036 0 00.793 1.697h6.617a1.043 1.043 0 00.798-1.698l.002.002a3.159 3.159 0 01-.841-2.151c0-.687.218-1.323.59-1.842l-.007.01c1.703-2.426 4.242-6.661 4.242-10.389a5.77 5.77 0 00-1.028-3.495l.013.019a.938.938 0 01-.067-.984l-.002.005c.943-1.794 1.77-3.885 2.369-6.071l.052-.223zm-3.769 4.485a.968.968 0 01-1.394.401l.004.002c-1.085-.695-1.989-1.305-1.989-2.211.27-1.945.817-3.704 1.604-5.326l-.046.105a.954.954 0 01.876-.578h.029-.001.799a2.08 2.08 0 011.628.789l.003.004a1.954 1.954 0 01.322 1.794l.004-.014a31.61 31.61 0 01-1.923 5.219l.083-.194z"/></symbol><symbol id="icon-hike" viewBox="0 0 38 32"><path d="M37.658 24.631v1.747H19.122c-2.598 0-3.958-1.228-6.482-1.747-1.941-.498-4.169-.784-6.463-.784H.008V23.8c0-3.819.693-7.476 1.959-10.852l-.07.213V1.27A1.27 1.27 0 013.168-.001h13.794a1.255 1.255 0 011.228 1.255v.016-.001 3.308h-2.592-.001a.483.483 0 00-.483.483l.001.038v-.002.019c0 .261.211.472.472.472h2.646v2.448a5.257 5.257 0 00.001.802l-.001-.018h-.085l-2.437.548a.577.577 0 00-.388.617v-.003a.52.52 0 00.618.359l-.004.001 2.437-.557c.249 1.065.698 2 1.307 2.805l-.013-.018-1.889 1.482a.484.484 0 00-.227.455v-.002a.463.463 0 00.521.452h-.002a.521.521 0 00.294-.096l-.002.001 1.957-1.55.066-.066c.135.158.283.297.446.418l.007.005c.623.519 1.304 1.078 2.041 1.72l-.161.161-1.52 1.889a.518.518 0 00-.131.39v-.002a.473.473 0 00.521.453h-.002a.386.386 0 00.359-.187l.001-.002 1.559-1.889a.324.324 0 00.095-.226c.879.68 1.815 1.36 2.753 2.041a.469.469 0 00-.187.159l-.001.002-1.332 2.107a.518.518 0 00.159.679l.002.001a.473.473 0 00.679-.13l.001-.002 1.332-2.135a.523.523 0 00.066-.225v-.001a21.929 21.929 0 002.844 1.688l.131.059a.63.63 0 00-.094.128l-.002.003-1.04 2.23a.519.519 0 10.944.427l.001-.004 1.04-2.268a.185.185 0 000-.133v.001c.628.27 1.357.475 2.119.581l.045.005 1.427.161a3.658 3.658 0 012.911 2c.047lNaN.022cNaN.343 NaN.753 NaN 1.173lNaN.036z"/><path d="M6.226 26.973h.025c2.275 0 4.484.283 6.594.815l-.186-.04c2.541.51 3.892 1.739 6.491 1.739h18.532v.616a1.89 1.89 0 01-1.889 1.889h-.745l-.284-1.133h-.568l-.284 1.133h-2.251l-.284-1.133h-.568l-.284 1.133h-2.257l-.284-1.133h-.557l-.284 1.133h-2.257l-.284-1.133h-.568l-.284 1.133h-2.257l-.284-1.133h-.568l-.284 1.133h-2.003l-4.659-1.512a1.323 1.323 0 00-1.433.506l-.003.004-.718 1.002H9.614l-.284-1.133h-.568l-.273 1.133H6.234l-.273-1.133h-.568l-.284 1.133H2.852l-.284-1.133H2l-.284 1.133h-.434-.001a1.256 1.256 0 01-1.256-1.256l.001-.04v.002-3.772z"/></symbol><symbol id="icon-water" viewBox="0 0 64 32"><path d="M64.055 25.175v5.108c-2.546 0-4.266 1.72-6.773 1.72s-4.285-1.72-6.828-1.72a9.638 9.638 0 00-3.461.851l.06-.025a8.189 8.189 0 01-3.369.893l-.019.001c-2.546 0-4.214-1.72-6.773-1.72s-4.285 1.72-6.84 1.72-4.214-1.72-6.773-1.72-4.285 1.72-6.84 1.72a8.35 8.35 0 01-3.435-.916l.047.022a9.323 9.323 0 00-3.363-.825l-.025-.001c-2.562 0-4.285 1.72-6.828 1.72a6.877 6.877 0 01-2.881-.685l.041.018v-5.108a6.784 6.784 0 002.834.667h.006c2.546 0 4.266-1.72 6.828-1.72s4.226 1.72 6.773 1.72 4.285-1.72 6.84-1.72 4.285 1.72 6.773 1.72 4.285-1.72 6.84-1.72 4.285 1.72 6.773 1.72 4.285-1.72 6.84-1.72 4.285 1.72 6.828 1.72 4.178-1.72 6.724-1.72zM64.055 0v5.111c-2.546 0-4.266 1.668-6.773 1.668s-4.285-1.668-6.828-1.668a8.605 8.605 0 00-3.452.849l.052-.022a8.163 8.163 0 01-3.375.838h-.013c-2.546 0-4.214-1.668-6.773-1.668s-4.285 1.668-6.84 1.668-4.214-1.668-6.773-1.668-4.285 1.668-6.84 1.668a8.331 8.331 0 01-3.437-.86l.049.022a8.375 8.375 0 00-3.374-.826h-.014c-2.562 0-4.285 1.668-6.828 1.668a7.805 7.805 0 01-2.891-.632l.051.019V1.068a7.691 7.691 0 002.83.612h.01C5.382 1.68 7.102.012 9.664.012S13.89 1.68 16.437 1.68 20.722.012 23.277.012 27.562 1.68 30.05 1.68 34.335.012 36.89.012s4.285 1.668 6.773 1.668S47.948.012 50.503.012s4.285 1.668 6.828 1.668S61.509 0 64.055 0zM64.055 12.373v5.12c-2.546 0-4.266 1.668-6.773 1.668s-4.285-1.668-6.828-1.668a8.605 8.605 0 00-3.452.849l.052-.022a8.163 8.163 0 01-3.375.838h-.013c-2.546 0-4.214-1.668-6.773-1.668s-4.285 1.668-6.84 1.668-4.214-1.668-6.773-1.668-4.285 1.668-6.84 1.668a8.331 8.331 0 01-3.437-.86l.049.022a8.375 8.375 0 00-3.374-.826h-.014c-2.562 0-4.285 1.668-6.828 1.668a7.805 7.805 0 01-2.891-.632l.051.019v-5.108a7.691 7.691 0 002.83.612h.01c2.546 0 4.266-1.668 6.828-1.668s4.174 1.72 6.733 1.72 4.285-1.668 6.84-1.668 4.285 1.668 6.773 1.668 4.285-1.668 6.84-1.668 4.285 1.668 6.773 1.668 4.285-1.668 6.84-1.668 4.285 1.668 6.828 1.668 4.217-1.732 6.764-1.732z"/></symbol><symbol id="icon-bike" viewBox="0 0 48 32"><path d="M39.25 13.55c2.025.009 3.908.605 5.492 1.626l-.04-.024.151-3.8.001-.054c0-.43-.241-.803-.595-.993l-.006-.003-7.6-4.049-3.349-5.9a.729.729 0 00-.623-.35l-.028.001h.001-4.262a.343.343 0 00-.343.343V2.212c0 .19.154.343.343.343h3.157l2.059 3.601a7.823 7.823 0 00-2.743 1.848l-.003.003a10.341 10.341 0 01-6.909 2.632c-1.559 0-3.037-.343-4.364-.959l.064.027C14.887 7.946 9.345 6.654 3.593 6.071l-.29-.024a.496.496 0 00-.551.602l-.001-.003.35 2.45a.684.684 0 00.248.399l.001.001 3.349 1.75-.551 2.548a9.742 9.742 0 012.106-.199h-.006.023c5.621 0 10.178 4.557 10.178 10.178v.024-.001H29.05v-.023c0-5.637 4.563-10.208 10.197-10.221h.001z"/><path d="M39.6 6.552h.601a.556.556 0 00.556-.551V2.302a.556.556 0 00-.551-.551h-.7a2.403 2.403 0 00.051 4.805l.053-.001h-.003zM8.252 15.501c-4.556 0-8.249 3.693-8.249 8.249s3.693 8.249 8.249 8.249a8.249 8.249 0 008.249-8.247A8.26 8.26 0 008.252 15.5h-.001zm0 11.301a3.049 3.049 0 110-6.098 3.049 3.049 0 110 6.098zM39.252 15.501a8.249 8.249 0 108.251 8.251 8.259 8.259 0 00-8.251-8.252zm0 11.301a3.049 3.049 0 113.049-3.049 3.06 3.06 0 01-3.049 3.049h-.001z"/></symbol><symbol id="icon-camp" viewBox="0 0 47 32"><path d="M13.195 0l.328.919c.062.123.112.267.142.417l.002.011 5.662 16.016 2.393 6.753 1.922 5.489.846 2.386h21.055a1.607 1.607 0 001.381-.63l.003-.004c.207-.287.331-.646.331-1.034 0-.265-.058-.517-.162-.743l.005.011L37.067 1.163a1.715 1.715 0 00-1.575-1.164h-.002zm-2.951 1.785L.074 30.582a1.062 1.062 0 00.113.981l-.002-.004a.94.94 0 00.854.417h-.003 9.334V2.12zm3.488 9.813V32h7.21l-.423-1.142-1.922-5.479-2.413-6.762v-.122z"/></symbol><symbol id="icon-climb" viewBox="0 0 32 32"><path d="M21.463 8.58a1.143 1.143 0 01-.313 1.58l-.004.003a1.165 1.165 0 01-.633.186h-9.116v3.134l8.978 16.828a1.134 1.134 0 01-.466 1.539l-.006.003c-.151.081-.33.129-.52.129H1.137a1.136 1.136 0 01-1.136-1.136c.014-.201.078-.384.181-.54l-.003.004 8.929-16.828V1.239a1.145 1.145 0 112.281.004v-.004h9.122c.628 0 1.136.509 1.136 1.136v.004c0 .234-.07.451-.189.633l.003-.004-1.866 2.785zm10.252 21.653l-4.56-6.836a1.146 1.146 0 00-.941-.504h-2.778l-3.092-5.148a1.097 1.097 0 00-1.034-.552h.004a1.14 1.14 0 00-.971.618l-.003.006-.999 1.997 5.035 9.441c.249.462.395 1.01.395 1.593 0 .413-.073.809-.208 1.175l.008-.024h8.199c.623 0 1.128-.505 1.128-1.128v-.009-.012c0-.23-.068-.445-.184-.625l.003.005z"/></symbol><symbol id="icon-email-cheker" viewBox="0 0 34 32"><path fill="var(--color1, #ff7f00)" d="M2.256 21.166c.535.443.974 1.001.93 1.371a6.27 6.27 0 00-.039.685v.075a6.172 6.172 0 006.066 6.171H9.222c.427 0 .843-.045 1.244-.13l-.039.007a2.095 2.095 0 011.901.643l.001.001a5.934 5.934 0 004.448 2.002 5.928 5.928 0 004.615-2.199l.009-.011a1.776 1.776 0 011.871-.557l-.013-.003a5.774 5.774 0 001.696.249 6.172 6.172 0 006.071-6.171v-.078.004c0-.399-.038-.79-.109-1.168l.006.039a2.226 2.226 0 01.685-1.867l.001-.001a6.328 6.328 0 001.93-4.557 6.333 6.333 0 00-2.245-4.843l-.009-.008c-.535-.443-.974-1.001-.93-1.371a6.27 6.27 0 00.039-.685v-.001-.074a6.172 6.172 0 00-6.066-6.171H24.319c-.427 0-.843.045-1.244.13l.039-.007a2.094 2.094 0 01-1.901-.643l-.001-.001C20.118.77 18.534.002 16.77.002s-3.349.769-4.437 1.989l-.005.006a2.096 2.096 0 01-1.914.642l.013.002a5.817 5.817 0 00-1.205-.123h-.004a6.172 6.172 0 00-6.071 6.171v.078-.004.003c0 .344.027.681.08 1.009l-.005-.036v.029c0 .66-.329 1.242-.833 1.592l-.006.004A6.336 6.336 0 000 16.318c0 1.941.872 3.678 2.246 4.842l.009.008zm6.4-4.624c.135-.229.478-.242.793.032l3.168 2.233a.951.951 0 00.492.158h.002c.336-.047.627-.214.833-.455l.002-.002L24.081 8.362c.633-.686 1.25-.933 1.653-.667.178.115.304.3.338.515l.001.004a.98.98 0 01-.249.764l.001-.001-12.187 14.798a.834.834 0 01-.631.334h-.002a.798.798 0 01-.684-.452l-.002-.005-3.577-6.448a.68.68 0 01-.083-.665l-.002.005z"/></symbol><symbol id="icon-file-text" viewBox="0 0 32 32"><path d="M27 0H3C1.35 0 0 1.35 0 3v26c0 1.65 1.35 3 3 3h24c1.65 0 3-1.35 3-3V3c0-1.65-1.35-3-3-3zm-1 28H4V4h22v24zM8 14h14v2H8zm0 4h14v2H8zm0 4h14v2H8zm0-12h14v2H8z"/></symbol><symbol xmlns="http://www.w3.org/2000/svg" viewBox="0 0 21.5 21.5" id="list-icon"><g id="list-icon" transform="translate(.25 .75)"><g id="Group_2746"><path id="Rectangle_246" transform="translate(.5)" fill="none" stroke-miterlimit="10" stroke-width="1.5" d="M0 0h20v20H0z"/></g><g id="Group_2747"><g id="Group_542" transform="translate(3 4.001)" fill="none" stroke-width="1.5"><path id="Line_50" d="M0 0h15.11"/><path id="Line_51" transform="translate(0 3.935)" d="M0 0h15.11"/><path id="Line_52" transform="translate(0 7.869)" d="M0 0h15.11"/><path id="Line_53" transform="translate(0 11.804)" d="M0 0h15.11"/></g></g></g></symbol><symbol id="icon-imail-blue" viewBox="0 0 32 32"><path fill="var(--color1, #91b9b4)" d="M32 16c0 8.837-7.163 16-16 16S0 24.837 0 16 7.163 0 16 0s16 7.163 16 16z"/><path fill="var(--color2, #fff)" d="M25.979 10.065l-6.187 6.147 6.187 6.147c.112-.224.178-.488.18-.768V10.834a1.783 1.783 0 00-.184-.779l.005.01zM17.227 17.087l7.907-7.868a1.751 1.751 0 00-.768-.18H7.548c-.28.002-.544.068-.779.184l.01-.005 7.907 7.868c.325.326.774.527 1.271.527s.946-.201 1.271-.527zM5.939 10.065a1.751 1.751 0 00-.18.768V21.59c.002.28.068.544.184.779l-.005-.01 6.187-6.147z"/><path fill="var(--color2, #fff)" d="M18.072 17.932c-.541.539-1.288.872-2.113.872s-1.571-.333-2.113-.872l-.875-.875-6.187 6.147c.224.112.488.178.768.18H24.37c.28-.002.544-.068.779-.184l-.01.005-6.187-6.147z"/></symbol><symbol id="icon-itwitter-blue" viewBox="0 0 32 32"><path fill="var(--color2, #fff)" d="M28.538 16.488c0 6.692-5.425 12.117-12.117 12.117S4.304 23.18 4.304 16.488c0-6.692 5.425-12.117 12.117-12.117s12.117 5.425 12.117 12.117z"/><path fill="var(--color1, #91b9b4)" d="M16.001 32C7.166 31.998.005 24.836.005 16.001c0-4.418 1.791-8.419 4.687-11.314A15.954 15.954 0 0116.15-.146c8.836 0 15.999 7.163 15.999 15.999a15.95 15.95 0 01-4.832 11.457l-.003.003A15.844 15.844 0 0116.045 32h-.047H16zM7.468 21.776a10.29 10.29 0 005.678 1.69h.025-.001.03c5.828 0 10.552-4.724 10.552-10.552l-.001-.179v.009c0-.158 0-.316-.012-.487a7.588 7.588 0 001.845-1.928l.017-.028a7.522 7.522 0 01-2.103.59l-.039.004a3.76 3.76 0 001.628-2.057l.007-.027a7.221 7.221 0 01-2.31.904l-.047.008a3.708 3.708 0 00-6.431 2.581v-.003.048c0 .287.032.567.092.836l-.005-.025a10.519 10.519 0 01-7.647-3.922l-.016-.021a3.816 3.816 0 00-.51 1.907V11.134c0 1.292.648 2.433 1.638 3.114l.013.008a3.617 3.617 0 01-1.696-.471l.018.009v.053a3.78 3.78 0 002.953 3.688l.025.005a3.572 3.572 0 01-.946.125h-.031.002l-.064.001c-.227 0-.448-.024-.661-.07l.021.004a3.765 3.765 0 003.468 2.625h.006a7.41 7.41 0 01-4.609 1.608H8.339a6.94 6.94 0 01-.906-.06l.035.004z"/></symbol><symbol id="icon-ifb-blue" viewBox="0 0 32 32"><path fill="var(--color2, #fff)" d="M28.485 17.609c0 6.68-5.415 12.095-12.095 12.095S4.295 24.289 4.295 17.609c0-6.68 5.415-12.095 12.095-12.095s12.095 5.415 12.095 12.095z"/><path fill="var(--color1, #91b9b4)" d="M17.416 7.272l-.461.009-.422.047-.392.097-.354.107-.324.135-.294.153-.256.184-.245.203-.206.203-.187.23-.167.241-.127.251-.128.26-.098.26-.078.261-.059.26-.048.26-.03.251-.02.242v2.356h-1.834v3.274h1.834v9.279h3.854v-9.279h2.599l.346-3.274h-2.941v-1.931l.018-.221.05-.174.068-.154.089-.115.108-.097.127-.058.115-.038.115-.02.115-.009h2.073V7.279l-2.844-.009zM16.004 0l1.01.038.992.088.97.154.962.212.932.271.912.319.872.377.863.425.824.461.786.521.765.576.735.598.691.657.638.691.608.725.576.761.52.806.471.82.422.859.372.878.324.909.275.936.206.946.146.985.089.985.04 1.015-.04 1.014-.089.985-.146.985-.206.946-.275.936-.324.908-.372.879-.422.859-.471.82-.52.806-.576.763-.608.725-.638.691-.691.646-.735.608-.765.57-.786.522-.824.461-.863.425-.872.377-.912.319-.932.271-.962.212-.97.154-.992.086-1.01.039-1.009-.039-1.001-.086-.971-.154-.951-.212-.941-.271-.903-.319-.892-.377-.854-.425-.824-.461-.794-.522-.765-.57-.715-.608-.691-.646-.657-.691-.608-.725-.559-.763-.519-.806-.471-.82-.431-.859-.373-.879-.313-.908-.275-.936-.206-.946-.157-.985-.098-.985-.03-1.014.03-1.015.098-.985.157-.985.206-.946.275-.936.313-.909.373-.878.431-.859.471-.82.519-.806.559-.761.608-.725.657-.691.691-.657.715-.598.765-.576.794-.521.824-.461.854-.425.892-.377.903-.319.941-.271.951-.212.971-.154 1.001-.088L16.004 0z"/></symbol><g id="close-btnn" transform="translate(-1836.439 -798.939)" fill="none" stroke="#91b9b4" stroke-width="3"><path id="Line_61" data-name="Line 61" transform="translate(1837.5 800)" d="M13.333 0L0 13.333"/><path id="Line_62" data-name="Line 62" transform="rotate(90 525.417 1325.417)" d="M13.333 0L0 13.333"/></g><g id="icon-open" data-name="Group 1286" fill="#fff"><path id="Path_804" data-name="Path 804" d="M555.069 891.525a.689.689 0 11.687-.691.692.692 0 01-.687.691zm0-2.661a2.39 2.39 0 00-1.759.974 1.738 1.738 0 00-.421 1.452 18.924 18.924 0 002.18 3.931 26.782 26.782 0 001.971-3.355c0-.01.01-.02.014-.03a3.414 3.414 0 00.2-.546 1.739 1.739 0 00-.421-1.452 2.39 2.39 0 00-1.759-.974z" transform="translate(-545.313 -888.864)"/><path id="Path_805" data-name="Path 805" d="M517.878 912.207l5.165 1.371V901.7l-5.165-1.371z" transform="translate(-517.878 -897.859)"/><path id="Path_806" data-name="Path 806" d="M551.324 910.909a.668.668 0 01-.549-.283 34.508 34.508 0 01-2.533-4.137l-.162.044v11.875l2.56-.677 2.608-.694v-8.483a42.768 42.768 0 01-1.375 2.072.668.668 0 01-.549.283z" transform="translate(-541.568 -902.689)"/><path id="Path_807" data-name="Path 807" d="M578.556 900.645c-.013.068-.02.138-.037.206a4.989 4.989 0 01-.219.637v10.966l5.164 1.371v-11.876z" transform="translate(-565.272 -898.105)"/></g><path id="icon-copy" data-name="Path 917" d="M412.993 524.871V522h7.653a.958.958 0 00.957-.957v-3.827h2.87v7.653zm11.48-9.566H421.6v-2.87a.958.958 0 00-.957-.957H408.21a.958.958 0 00-.957.957v8.61a.958.958 0 00.957.957h2.87v2.87a1.916 1.916 0 001.913 1.913h11.48a1.916 1.916 0 001.913-1.913v-7.653a1.916 1.916 0 00-1.913-1.913z" transform="translate(-407.253 -511.478)" fill="#fff"/><svg id="Component_16_11" data-name="Component 16 – 11" xmlns="http://www.w3.org/2000/svg" width="32" height="32"><circle id="Ellipse_124" data-name="Ellipse 124" cx="16" cy="16" r="16" fill="#00a38b"/><g id="photo-pointIcon" data-name="Group 1268" transform="translate(7 9)"><g id="Group_1267" data-name="Group 1267" fill="#fff"><path id="Path_801" data-name="Path 801" d="M455.825 473.253h-1.968l-.273-1.73a.748.748 0 00-.747-.638h-4.045a.763.763 0 00-.747.638l-.273 1.73h-2.66v-.327a.528.528 0 00-.529-.529h-1.513a.528.528 0 00-.527.529v.345a2.01 2.01 0 00-1.986 2.023v7.489a2.035 2.035 0 002.04 2.04h13.211a2.037 2.037 0 002.041-2.04v-7.489a2.012 2.012 0 00-2.024-2.041zm-11.334 8.837a.656.656 0 01-1.312 0V476a.656.656 0 111.312 0zm4.738-9.876a.2.2 0 01.2-.2h2.77a.2.2 0 01.2.2v.856a.2.2 0 01-.2.2h-2.77a.2.2 0 01-.2-.2zm1.586 10.9a4.063 4.063 0 114.063-4.063 4.066 4.066 0 01-4.063 4.06z" transform="translate(-440.557 -470.885)"/><path id="Path_802" data-name="Path 802" d="M446.99 474.209a1.821 1.821 0 101.821 1.822 1.828 1.828 0 00-1.821-1.822z" transform="translate(-436.477 -467.604)"/></g></g></svg></defs></svg>