<svg xmlns="http://www.w3.org/2000/svg" width="22" height="22"><path d="M11 22A11 11 0 013.222 3.222a11 11 0 1115.556 15.556A10.925 10.925 0 0111 22zm-5.866-7.029a7.143 7.143 0 003.92 1.162 7.255 7.255 0 007.274-7.371c0-.108 0-.218-.008-.335a5.177 5.177 0 001.28-1.344 5.315 5.315 0 01-1.473.409 2.573 2.573 0 001.124-1.432 5.043 5.043 0 01-1.621.627 2.549 2.549 0 00-4.42 1.771 2.628 2.628 0 00.06.59A7.235 7.235 0 016 6.339a2.657 2.657 0 00-.35 1.31A2.6 2.6 0 006.786 9.8a2.494 2.494 0 01-1.154-.319v.029a2.6 2.6 0 002.048 2.546 2.507 2.507 0 01-.67.086 2.142 2.142 0 01-.484-.045A2.584 2.584 0 008.914 13.9a5.12 5.12 0 01-3.169 1.105 4.637 4.637 0 01-.611-.034z" fill="#fff"/></svg>