<svg xmlns="http://www.w3.org/2000/svg" width="20.93" height="10.456"><g data-name="Group 1350" fill="#fff"><path data-name="Path 823" d="M20.93 8.226v1.669c-.832 0-1.394.562-2.213.562s-1.4-.562-2.231-.562a3.154 3.154 0 00-1.111.27 2.723 2.723 0 01-1.107.292c-.832 0-1.377-.562-2.213-.562s-1.4.562-2.235.562-1.377-.562-2.213-.562-1.4.562-2.235.562a2.74 2.74 0 01-1.107-.292 3.106 3.106 0 00-1.107-.27c-.837 0-1.4.562-2.231.562a2.252 2.252 0 01-.928-.218V8.57a2.252 2.252 0 00.928.218c.832 0 1.394-.562 2.231-.562s1.381.562 2.213.562 1.4-.562 2.235-.562 1.4.562 2.213.562 1.4-.562 2.235-.562 1.4.562 2.213.562 1.4-.562 2.235-.562 1.4.562 2.231.562 1.365-.562 2.197-.562z"/><path data-name="Path 824" d="M20.93 0v1.67c-.832 0-1.394.545-2.213.545s-1.4-.545-2.231-.545a2.819 2.819 0 00-1.111.27 2.71 2.71 0 01-1.107.274c-.832 0-1.377-.545-2.213-.545s-1.4.545-2.235.545-1.377-.545-2.213-.545-1.4.545-2.235.545a2.727 2.727 0 01-1.107-.274 2.78 2.78 0 00-1.107-.27c-.837 0-1.4.545-2.231.545a2.557 2.557 0 01-.928-.2V.349a2.557 2.557 0 00.928.2c.832 0 1.394-.545 2.231-.545s1.381.545 2.213.545 1.4-.545 2.235-.545 1.4.545 2.213.545 1.4-.545 2.235-.545 1.4.545 2.213.545 1.4-.545 2.235-.545 1.4.545 2.231.545S20.098 0 20.93 0z"/><path data-name="Path 825" d="M20.93 4.043v1.673c-.832 0-1.394.545-2.213.545s-1.4-.545-2.231-.545a2.819 2.819 0 00-1.111.27 2.71 2.71 0 01-1.107.274c-.832 0-1.377-.545-2.213-.545s-1.4.545-2.235.545-1.377-.545-2.213-.545-1.4.545-2.235.545a2.727 2.727 0 01-1.107-.274 2.78 2.78 0 00-1.107-.27c-.837 0-1.4.545-2.231.545a2.558 2.558 0 01-.928-.2V4.392a2.557 2.557 0 00.928.2c.832 0 1.394-.545 2.231-.545s1.364.562 2.2.562 1.4-.545 2.235-.545 1.4.545 2.213.545 1.4-.545 2.235-.545 1.4.545 2.213.545 1.4-.545 2.235-.545 1.4.545 2.231.545 1.378-.566 2.21-.566z"/></g></svg>