<svg xmlns="http://www.w3.org/2000/svg" width="20.93" height="10.456" viewBox="0 0 20.93 10.456">
  <g id="water" transform="translate(0.535 -1.966)">
    <g id="Group_1350" data-name="Group 1350" transform="translate(-38.868 -519.604)">
      <path id="Path_823" data-name="Path 823" d="M32.36,42.31v1.669c-.832,0-1.394.562-2.213.562s-1.4-.562-2.231-.562a3.154,3.154,0,0,0-1.111.27,2.723,2.723,0,0,1-1.107.292h0c-.832,0-1.377-.562-2.213-.562s-1.4.562-2.235.562-1.377-.562-2.213-.562-1.4.562-2.235.562a2.74,2.74,0,0,1-1.107-.292,3.106,3.106,0,0,0-1.107-.27c-.837,0-1.4.562-2.231.562a2.252,2.252,0,0,1-.928-.218V42.654a2.252,2.252,0,0,0,.928.218c.832,0,1.394-.562,2.231-.562s1.381.562,2.213.562,1.4-.562,2.235-.562,1.4.562,2.213.562,1.4-.562,2.235-.562,1.4.562,2.213.562,1.4-.562,2.235-.562,1.4.562,2.231.562S31.528,42.31,32.36,42.31Z" transform="translate(26.903 487.486)" fill="#fff"/>
      <path id="Path_824" data-name="Path 824" d="M32.36,23.43V25.1c-.832,0-1.394.545-2.213.545s-1.4-.545-2.231-.545a2.819,2.819,0,0,0-1.111.27,2.71,2.71,0,0,1-1.107.274h0c-.832,0-1.377-.545-2.213-.545s-1.4.545-2.235.545-1.377-.545-2.213-.545-1.4.545-2.235.545a2.727,2.727,0,0,1-1.107-.274,2.78,2.78,0,0,0-1.107-.27c-.837,0-1.4.545-2.231.545a2.557,2.557,0,0,1-.928-.2V23.779a2.557,2.557,0,0,0,.928.2c.832,0,1.394-.545,2.231-.545s1.381.545,2.213.545,1.4-.545,2.235-.545,1.4.545,2.213.545,1.4-.545,2.235-.545,1.4.545,2.213.545,1.4-.545,2.235-.545,1.4.545,2.231.545S31.528,23.43,32.36,23.43Z" transform="translate(26.903 498.14)" fill="#fff"/>
      <path id="Path_825" data-name="Path 825" d="M32.36,32.71v1.673c-.832,0-1.394.545-2.213.545s-1.4-.545-2.231-.545a2.819,2.819,0,0,0-1.111.27,2.71,2.71,0,0,1-1.107.274h0c-.832,0-1.377-.545-2.213-.545s-1.4.545-2.235.545-1.377-.545-2.213-.545-1.4.545-2.235.545a2.727,2.727,0,0,1-1.107-.274,2.78,2.78,0,0,0-1.107-.27c-.837,0-1.4.545-2.231.545a2.558,2.558,0,0,1-.928-.2V33.059a2.557,2.557,0,0,0,.928.2c.832,0,1.394-.545,2.231-.545s1.364.562,2.2.562,1.4-.545,2.235-.545,1.4.545,2.213.545,1.4-.545,2.235-.545,1.4.545,2.213.545,1.4-.545,2.235-.545,1.4.545,2.231.545S31.528,32.71,32.36,32.71Z" transform="translate(26.903 492.903)" fill="#fff"/>
    </g>
  </g>
</svg>
