<?xml version="1.0" standalone="no"?>
<!DOCTYPE svg PUBLIC "-//W3C//DTD SVG 1.1//EN" "http://www.w3.org/Graphics/SVG/1.1/DTD/svg11.dtd" >
<svg xmlns="http://www.w3.org/2000/svg" xmlns:xlink="http://www.w3.org/1999/xlink" version="1.1">
<metadata>
Created by FontForge 20170731 at Wed Sep  8 10:22:56 2021
 By Aleksey,,,
Copyright (c) 2017 by Dino dos Santos, Pedro leal. All rights reserved.
</metadata>
<defs>
<font id="CertoSans-Medium" horiz-adv-x="1368" >
  <font-face 
    font-family="Certo Sans Medium"
    font-weight="500"
    font-stretch="normal"
    units-per-em="2048"
    panose-1="0 0 6 0 0 0 0 0 0 0"
    ascent="1608"
    descent="-440"
    x-height="1106"
    cap-height="1434"
    bbox="-1563 -575 2623 2073"
    underline-thickness="102"
    underline-position="-307"
    unicode-range="U+0020-FB02"
  />
<missing-glyph horiz-adv-x="1024" 
d="M840 1608v-2048h-650v2048h650zM682 1470h-338v-67h133v-76h-135v-67h340v67h-135v76h135v67zM547 1206h-205v-213h340v70h-135v143zM477 1137v-74h-67v74h67zM682 938h-340v-68h135v-75h-135v-68h205v143h135v68zM682 815h-68v-135h-272v-70h340v205zM682 565h-205v-114
h70v47h67v-97h-204v164h-68v-231h340v231zM682 211h-340v-231h340v231zM614 143v-96h-204v96h204zM682 -68h-340v-67h143l-143 -96v-68h340v68h-209l143 96h66v67z" />
    <glyph glyph-name="fi" unicode="fi" horiz-adv-x="1312" 
d="M698 1364q-54 0 -85 -4t-57 -15t-38 -34t-18 -57.5t-6 -90.5v-57h682v-1106h-308v897h-374v-897h-308v897h-155v184l155 25v43q0 110 18.5 188t55.5 131t100 83.5t143.5 43.5t194.5 13h478v-244h-478z" />
    <glyph glyph-name="fl" unicode="fl" horiz-adv-x="1312" 
d="M698 1608h478v-1608h-308v1364h-170q-54 0 -85 -4t-57 -15t-38 -34t-18 -57.5t-6 -90.5v-57h219v-209h-219v-897h-308v897h-155v184l155 25v43q0 110 18.5 188t55.5 131t100 83.5t143.5 43.5t194.5 13z" />
    <glyph glyph-name=".notdef" horiz-adv-x="1024" 
d="M840 1608v-2048h-650v2048h650zM682 1470h-338v-67h133v-76h-135v-67h340v67h-135v76h135v67zM547 1206h-205v-213h340v70h-135v143zM477 1137v-74h-67v74h67zM682 938h-340v-68h135v-75h-135v-68h205v143h135v68zM682 815h-68v-135h-272v-70h340v205zM682 565h-205v-114
h70v47h67v-97h-204v164h-68v-231h340v231zM682 211h-340v-231h340v231zM614 143v-96h-204v96h204zM682 -68h-340v-67h143l-143 -96v-68h340v68h-209l143 96h66v67z" />
    <glyph glyph-name=".null" horiz-adv-x="0" 
 />
    <glyph glyph-name="nonmarkingreturn" horiz-adv-x="682" 
 />
    <glyph glyph-name="space" unicode=" " horiz-adv-x="491" 
 />
    <glyph glyph-name="exclam" unicode="!" horiz-adv-x="495" 
d="M168 375l-74 878v181h307v-181l-73 -878h-160zM92 0v252h309v-252h-309z" />
    <glyph glyph-name="quotedbl" unicode="&#x22;" horiz-adv-x="909" 
d="M154 991l-70 355v241h309v-241l-69 -355h-170zM565 991l-69 355v241h309v-241l-70 -355h-170z" />
    <glyph glyph-name="numbersign" unicode="#" horiz-adv-x="1605" 
d="M1522 866h-340l-41 -288h319v-209h-348l-53 -369h-215l53 369h-289l-53 -369h-215l53 369h-309v209h338l41 288h-318v211h349l51 357h215l-51 -357h288l52 357h215l-52 -357h310v-211zM926 578l41 288h-289l-41 -288h289z" />
    <glyph glyph-name="dollar" unicode="$" horiz-adv-x="1363" 
d="M1280 428q0 -195 -109.5 -302.5t-357.5 -133.5v-197h-242v193q-274 7 -487 53v235q249 -44 487 -47v359q-72 6 -129.5 17t-123.5 40t-110.5 72.5t-74 118.5t-29.5 174q0 199 109.5 308t357.5 130v190h242v-186q214 -13 395 -59v-236q-268 47 -395 51v-360
q78 -7 137 -18.5t124.5 -40.5t107.5 -72.5t70 -117t28 -171.5zM418 1034q0 -78 38 -114.5t115 -49.5v326q-92 -14 -122.5 -51t-30.5 -111zM813 242q91 16 122.5 52.5t31.5 108.5q0 76 -38 112.5t-116 49.5v-323z" />
    <glyph glyph-name="percent" unicode="%" horiz-adv-x="1873" 
d="M446 719q-179 0 -266.5 82t-87.5 270v29q0 182 88.5 266t265.5 84h29q178 0 266 -83.5t88 -266.5v-29q0 -181 -88.5 -266.5t-265.5 -85.5h-29zM317 0l1012 1434h217l-1014 -1434h-215zM446 905h29q115 0 115 150v59q0 79 -27.5 115.5t-87.5 36.5h-29q-59 0 -86.5 -36.5
t-27.5 -115.5v-59q0 -150 114 -150zM1397 -20q-179 0 -267 81.5t-88 268.5v28q0 184 89 268.5t266 84.5h28q177 0 266 -84.5t89 -268.5v-28q0 -350 -355 -350h-28zM1397 166h28q115 0 115 149v60q0 78 -27.5 114.5t-87.5 36.5h-28q-59 0 -87 -36.5t-28 -114.5v-60
q0 -149 115 -149z" />
    <glyph glyph-name="ampersand" unicode="&#x26;" horiz-adv-x="1488" 
d="M1253 356l133 -114v-242h-153l-137 115q-160 -135 -434 -135q-279 0 -418.5 105.5t-139.5 293.5v31q0 211 256 338q-137 152 -137 319q0 127 71.5 216t191 130t278.5 41q125 0 223.5 -12t243.5 -43v-236q-127 31 -222.5 44.5t-224.5 13.5q-126 -3 -187.5 -33.5
t-61.5 -112.5q0 -29 9.5 -57t20 -47t36.5 -47.5t40 -41t49 -44.5l344 -295q2 18 2 55v213h248v-238q0 -115 -31 -217zM672 213q152 3 235 61l-379 320q-116 -67 -116 -174v-17q0 -88 65.5 -139.5t194.5 -50.5z" />
    <glyph glyph-name="quotesingle" unicode="'" horiz-adv-x="475" 
d="M154 991l-70 355v241h309v-241l-69 -355h-170z" />
    <glyph glyph-name="parenleft" unicode="(" horiz-adv-x="845" 
d="M485 823v-213q0 -240 17 -398.5t55.5 -250.5t92 -129t134.5 -37h41v-205h-41q-105 0 -183 21t-142.5 71.5t-106.5 132.5t-71 206.5t-41.5 289t-12.5 385.5v41q0 259 19 443.5t59 314.5t107.5 205.5t156.5 109t215 33.5h41v-205h-41q-81 0 -134.5 -37t-92 -129
t-55.5 -250.5t-17 -398.5z" />
    <glyph glyph-name="parenright" unicode=")" horiz-adv-x="845" 
d="M360 823q0 240 -17 398.5t-55.5 250.5t-92 129t-134.5 37h-41v205h41q126 0 215 -33.5t156.5 -109t107.5 -205.5t59 -314.5t19 -443.5v-41q0 -221 -12.5 -385.5t-41.5 -289t-71 -206.5t-106.5 -132.5t-142.5 -71.5t-183 -21h-41v205h41q81 0 134.5 37t92 129t55.5 250.5
t17 398.5v213z" />
    <glyph glyph-name="asterisk" unicode="*" horiz-adv-x="747" 
d="M666 1212l-146 -65l146 -66l-91 -155l-126 94l16 -160h-180l16 160l-127 -94l-90 155l147 66l-147 65l90 156l127 -94l-16 160h180l-16 -160l126 94z" />
    <glyph glyph-name="plus" unicode="+" horiz-adv-x="1034" 
d="M412 283v329h-328v209h328v330h211v-330h327v-209h-327v-329h-211z" />
    <glyph glyph-name="comma" unicode="," horiz-adv-x="475" 
d="M57 -287l125 287h-98v309h309v-309l-166 -287h-170z" />
    <glyph glyph-name="hyphen" unicode="-" horiz-adv-x="882" 
d="M84 449v208h717v-208h-717z" />
    <glyph glyph-name="period" unicode="." horiz-adv-x="475" 
d="M84 0v309h309v-309h-309z" />
    <glyph glyph-name="slash" unicode="/" horiz-adv-x="1224" 
d="M74 0l819 1434h258l-819 -1434h-258z" />
    <glyph glyph-name="zero" unicode="0" horiz-adv-x="1388" 
d="M674 -20q-114 0 -195 12t-147 44t-107.5 83t-69.5 132.5t-39.5 188.5t-11.5 256v41q0 144 11 249t38.5 187t69.5 134t107.5 86t147.5 47.5t196 13.5h41q112 0 194 -13.5t147 -47.5t107 -86t70 -134t39.5 -187t11.5 -249v-41q0 -144 -11.5 -249t-39.5 -186.5t-70 -134
t-107 -86t-147 -47t-194 -13.5h-41zM674 223h41q103 0 157.5 32t79.5 114.5t25 240.5v213q0 158 -25 240.5t-79.5 114.5t-157.5 32h-41q-104 0 -158.5 -32t-79 -114t-24.5 -241v-213q0 -159 24.5 -241t79 -114t158.5 -32z" />
    <glyph glyph-name="one" unicode="1" horiz-adv-x="720" 
d="M268 0v1157h-237v184l544 113v-1454h-307z" />
    <glyph glyph-name="two" unicode="2" horiz-adv-x="1284" 
d="M399 244h793v-244h-1100v244q0 103 26.5 184.5t71 135t102.5 94.5t122 67.5t128 48.5t122 43t102.5 45.5t71 62t26.5 87.5v14q0 66 -21.5 104t-80.5 58.5t-166 21.5q-215 0 -453 -41v242q208 43 463 43q202 0 329 -50t181.5 -139.5t54.5 -224.5v-28q0 -86 -26.5 -154
t-71 -112t-102.5 -78.5t-122 -59.5t-128 -48t-122 -50.5t-102.5 -61t-71 -85.5t-26.5 -119z" />
    <glyph glyph-name="three" unicode="3" horiz-adv-x="1253" 
d="M922 733q127 -37 188 -115t61 -208v-41q0 -189 -149 -289t-451 -100q-291 0 -499 43v241q104 -18 248 -29.5t241 -11.5q172 0 237.5 40.5t65.5 133.5v31q0 66 -21.5 102.5t-80.5 56t-166 19.5h-262v225h231q147 0 204.5 42t57.5 139v30q0 93 -57 129.5t-199 38.5
q-95 0 -235 -11.5t-244 -29.5v242q208 43 498 43q545 0 545 -379v-41q0 -220 -213 -301z" />
    <glyph glyph-name="four" unicode="4" horiz-adv-x="1355" 
d="M1294 563v-244h-186v-319h-307v319h-750v244l721 871h336v-871h186zM336 563h465v567z" />
    <glyph glyph-name="five" unicode="5" horiz-adv-x="1284" 
d="M637 872q151 0 259 -27.5t172.5 -82t94 -129t29.5 -174.5v-41q0 -208 -143 -323t-447 -115q-131 0 -275 12t-235 31v241q103 -18 252.5 -29.5t247.5 -11.5q87 0 145 13.5t90 40.5t45 61.5t13 83.5v31q0 69 -22 109t-86 62.5t-179 22.5h-465v787h977v-244h-709v-318h236z
" />
    <glyph glyph-name="six" unicode="6" 
d="M823 907q461 0 461 -409v-33q0 -88 -17.5 -160t-58.5 -133.5t-105 -103t-161 -65t-223 -23.5h-41q-168 0 -278 37.5t-176 125t-93 217t-27 326.5v51q0 186 35 318t112.5 222.5t203 133.5t305.5 43q244 0 452 -43v-242q-238 41 -442 41q-204 -1 -281 -91.5t-77 -313.5
v-131q41 66 153 178q38 16 63 25.5t80 19.5t115 10zM977 451v32q0 106 -58 157t-214 52q-121 0 -293 -49v-33q0 -210 57 -298.5t209 -88.5h41q135 0 196.5 61t61.5 167z" />
    <glyph glyph-name="seven" unicode="7" horiz-adv-x="1202" 
d="M1161 1434v-244q-21 -30 -61 -87q-76 -108 -113 -161.5t-98 -148t-91 -153t-69.5 -146t-58 -158.5t-32 -158.5t-13.5 -177.5h-308q0 133 35 269t77.5 235.5t130.5 234.5t140 203.5t160 205.5l33 42h-852v244h1120z" />
    <glyph glyph-name="eight" unicode="8" horiz-adv-x="1347" 
d="M971 733q62 -27 108 -54.5t91.5 -68.5t69.5 -97t24 -124v-31q0 -182 -140 -280t-450 -98q-159 0 -274 26t-183.5 76.5t-100.5 118.5t-32 157v31q0 62 24.5 115.5t70 95.5t93 73t109.5 60q-54 28 -95 56.5t-82 69t-63 92t-22 110.5v31q0 362 555 362q553 0 553 -362v-31
q0 -52 -15 -97.5t-38.5 -78t-59 -62.5t-68 -49.5t-75.5 -40.5zM426 1057v-15q0 -41 18.5 -74.5t57 -60t70 -42.5t83.5 -38q5 -2 7 -3t5.5 -2.5t6.5 -2.5q9 4 34.5 15t36 15.5t33.5 15.5t33.5 17.5t29 18.5t27 21.5t21 24t18 28t9.5 31t4 36.5v15q0 82 -58 123.5t-188 40.5
q-131 -1 -189.5 -42t-58.5 -122zM956 383v14q0 28 -9 52t-19.5 41.5t-35.5 36t-41 29t-53 26t-53.5 22t-59.5 21.5q-7 3 -11 4q-52 -19 -85.5 -32t-75 -35t-65 -44t-40.5 -53.5t-17 -67.5v-14q0 -56 22.5 -91t86.5 -56.5t174 -20.5t173.5 22t86 55.5t22.5 90.5z" />
    <glyph glyph-name="nine" unicode="9" 
d="M688 1454q169 0 279.5 -37.5t177 -125.5t93 -216.5t26.5 -326.5v-52q0 -186 -35 -318t-113.5 -222t-204 -133t-305.5 -43q-244 0 -452 43v241q238 -41 442 -41q206 1 283 91.5t77 314.5v131q-18 -28 -41 -56t-65 -71.5t-49 -50.5q-124 -56 -256 -56q-461 0 -461 410v33
q0 111 28.5 196.5t92.5 152t175 101.5t267 35h41zM664 741q117 0 292 50v32q0 210 -57 298.5t-211 88.5h-41q-134 0 -195 -61t-61 -166v-33q0 -106 58 -157t215 -52z" />
    <glyph glyph-name="colon" unicode=":" horiz-adv-x="475" 
d="M84 688v309h309v-309h-309zM84 0v309h309v-309h-309z" />
    <glyph glyph-name="semicolon" unicode=";" horiz-adv-x="475" 
d="M84 688v309h309v-309h-309zM57 -287l125 287h-98v309h309v-309l-166 -287h-170z" />
    <glyph glyph-name="less" unicode="&#x3c;" horiz-adv-x="1034" 
d="M950 1081v-211l-557 -153l557 -154v-211l-866 260v209z" />
    <glyph glyph-name="equal" unicode="=" horiz-adv-x="1034" 
d="M84 801v209h866v-209h-866zM84 424v209h866v-209h-866z" />
    <glyph glyph-name="greater" unicode="&#x3e;" horiz-adv-x="1034" 
d="M84 1081l866 -260v-209l-866 -260v211l555 154l-555 153v211z" />
    <glyph glyph-name="question" unicode="?" horiz-adv-x="1183" 
d="M514 1454q303 0 434 -98t131 -307v-64q0 -196 -114.5 -294.5t-374.5 -110.5l-37 -205h-160l-55 217v194h4l-4 17h168q158 1 212 42.5t54 153.5v15q0 112 -54 153.5t-212 42.5q-217 0 -455 -41v242q208 43 463 43zM317 0v252h310v-252h-310z" />
    <glyph glyph-name="at" unicode="@" horiz-adv-x="1681" 
d="M842 1290q144 0 251 -15t191 -51t138.5 -90.5t90.5 -138.5t51 -191t15 -251q0 -72 -7.5 -130t-28 -112.5t-53.5 -91t-86.5 -58.5t-125.5 -22h-299l-21 174q-56 -119 -86 -159q-95 -31 -192 -31q-111 0 -175.5 61t-64.5 170q0 125 77 184.5t239 75.5l202 21v45
q0 49 -29.5 72t-99.5 24q-88 2 -307 -31v216q177 34 359 34q180 0 255.5 -67t75.5 -205v-463h66q53 0 85.5 21.5t52.5 87.5t20 184q0 127 -10 216t-37.5 159t-69 112t-110.5 69.5t-155.5 37.5t-211.5 10t-211.5 -10t-155.5 -37.5t-110.5 -69.5t-69 -112t-37.5 -159t-10 -216
t10 -216t37.5 -159t69 -112t110.5 -69.5t155.5 -37.5t211.5 -10q253 0 370 49l39 -129q-149 -53 -409 -53q-144 0 -251 15t-191 51t-139 90.5t-91 138.5t-51 191t-15 251t15 251t51 191t91 138.5t139 90.5t191 51t251 15zM958 340v147l-122 -12q-78 -6 -109 -27t-31 -65
q0 -70 99 -70q80 0 163 27z" />
    <glyph glyph-name="A" unicode="A" 
d="M1024 0l-113 354h-487l-105 -354h-288l438 1440h395l473 -1440h-313zM496 598h338l-177 557z" />
    <glyph glyph-name="B" unicode="B" horiz-adv-x="1394" 
d="M1071 729q219 -78 219 -315v-41q0 -88 -26.5 -154t-86.5 -116.5t-165.5 -76.5t-255.5 -26h-611v1434h570q121 0 213 -17t152.5 -48t98.5 -77.5t54 -101.5t16 -125v-41q0 -210 -178 -295zM453 1190v-359h262q121 0 174 39.5t53 124.5v41q0 84 -51.5 119t-175.5 35h-262z
M983 401v41q0 89 -52 126.5t-175 37.5h-303v-362h303q122 0 174.5 36.5t52.5 120.5z" />
    <glyph glyph-name="C" unicode="C" horiz-adv-x="1361" 
d="M735 -20q-122 0 -209.5 12.5t-161 43.5t-120.5 82.5t-79.5 132.5t-46.5 189t-14 256v41q0 148 14 256t46.5 189t79.5 132.5t120.5 83t161 44t209.5 12.5h41q229 0 498 -61v-248q-258 65 -498 65h-41q-125 0 -192 -31.5t-99 -115t-32 -240.5v-213q0 -157 32 -240.5
t99 -115t192 -31.5h41q236 0 498 66v-248q-269 -61 -498 -61h-41z" />
    <glyph glyph-name="D" unicode="D" horiz-adv-x="1470" 
d="M756 1434q125 0 214.5 -13.5t159.5 -47t114 -84t72 -131t39 -181t11 -240.5v-41q0 -140 -11 -240.5t-39 -181t-72 -130.5t-114 -83.5t-159.5 -47t-214.5 -13.5h-611v1434h611zM1059 618v197q0 116 -13 186t-49 114t-92 59.5t-149 15.5h-303v-946h303q124 0 187 31.5
t89.5 110t26.5 232.5z" />
    <glyph glyph-name="E" unicode="E" horiz-adv-x="1327" 
d="M1239 1190h-786v-348h594v-244h-594v-354h786v-244h-1094v1434h1094v-244z" />
    <glyph glyph-name="F" unicode="F" horiz-adv-x="1228" 
d="M1198 1190h-745v-399h594v-244h-594v-547h-308v1434h1053v-244z" />
    <glyph glyph-name="G" unicode="G" horiz-adv-x="1421" 
d="M735 1210q-125 0 -192 -31.5t-99 -115t-32 -240.5v-213q0 -157 32 -240.5t99 -115t192 -31.5h41q104 0 211 17v505h287v-704q-269 -61 -498 -61h-41q-122 0 -209.5 12.5t-161 43.5t-120.5 82.5t-79.5 132.5t-46.5 189t-14 256v41q0 148 14 256t46.5 189t79.5 132.5
t120.5 83t161 44t209.5 12.5h41q229 0 498 -61v-248q-258 65 -498 65h-41z" />
    <glyph glyph-name="H" unicode="H" horiz-adv-x="1470" 
d="M1016 1434h307v-1434h-307v598h-563v-598h-308v1434h308v-592h563v592z" />
    <glyph glyph-name="I" unicode="I" horiz-adv-x="598" 
d="M145 0v1434h308v-1434h-308z" />
    <glyph glyph-name="J" unicode="J" horiz-adv-x="753" 
d="M299 1434h307v-975q0 -138 -27 -226t-91.5 -140t-157 -72.5t-236.5 -20.5h-59v244h59q67 0 102 5.5t61 27t34 60t8 107.5v990z" />
    <glyph glyph-name="K" unicode="K" horiz-adv-x="1372" 
d="M1341 0h-348l-362 606h-178v-606h-308v1434h308v-603h190l369 603h313l-432 -697z" />
    <glyph glyph-name="L" unicode="L" horiz-adv-x="1228" 
d="M453 244h745v-244h-1053v1434h308v-1190z" />
    <glyph glyph-name="M" unicode="M" horiz-adv-x="1886" 
d="M1739 1434v-1434h-307v1001l-379 -999h-271l-374 989v-991h-263v1434h443l356 -977l373 977h422z" />
    <glyph glyph-name="N" unicode="N" horiz-adv-x="1490" 
d="M1092 1434h254v-1434h-330l-617 993v-993h-254v1434h330l617 -994v994z" />
    <glyph glyph-name="O" unicode="O" horiz-adv-x="1470" 
d="M715 -20q-94 0 -166 6.5t-134.5 23.5t-107 42.5t-80.5 66.5t-58.5 93.5t-37.5 125.5t-21 159.5t-6 198.5v41q0 145 11 249t39.5 186.5t72 134.5t114 86t160 47.5t214.5 13.5h41q125 0 214.5 -13.5t159.5 -47.5t114 -86t72 -134.5t39 -186.5t11 -249v-41q0 -145 -11 -249
t-39 -186.5t-72 -134t-114 -85.5t-159.5 -47.5t-214.5 -13.5h-41zM715 223h41q75 0 124 10.5t85.5 35t56 70.5t28.5 110t9 161v213q0 97 -9 161t-28.5 110t-56 70.5t-85.5 35t-124 10.5h-41q-94 0 -150 -16t-92 -61t-48.5 -117t-12.5 -193v-213q0 -121 12.5 -193t48.5 -117
t92 -61t150 -16z" />
    <glyph glyph-name="P" unicode="P" horiz-adv-x="1337" 
d="M719 1434q289 0 411.5 -107t122.5 -354v-41q0 -247 -122.5 -353t-411.5 -106h-266v-473h-308v1434h574zM946 932v41q0 124 -51.5 170.5t-175.5 46.5h-266v-473h266q124 0 175.5 46t51.5 169z" />
    <glyph glyph-name="Q" unicode="Q" horiz-adv-x="1470" 
d="M756 1454q125 0 214.5 -13.5t159.5 -47.5t114 -86t72 -134.5t39 -186.5t11 -249v-41q0 -197 -21 -322.5t-76.5 -211.5t-145.5 -126t-234 -52q1 -41 5.5 -69.5t15 -49.5t24 -32.5t38.5 -18.5t52 -9t70 -2h59v-243h-59q-139 0 -230 19t-155.5 67.5t-94 130.5t-32.5 207
q-116 8 -195 34.5t-135.5 75.5t-88 132.5t-45.5 195t-14 274.5v41q0 145 11 249t39.5 186.5t72 134.5t114 86t160 47.5t214.5 13.5h41zM1059 610v213q0 97 -9 161t-28.5 110t-56 70.5t-85.5 35t-124 10.5h-41q-94 0 -150 -16t-92 -61t-48.5 -117t-12.5 -193v-213
q0 -121 12.5 -193t48.5 -117t92 -61t150 -16h41q75 0 124 10.5t85.5 35t56 70.5t28.5 110t9 161z" />
    <glyph glyph-name="R" unicode="R" horiz-adv-x="1357" 
d="M1262 0h-342l-291 535h-176v-535h-308v1434h594q142 0 242 -28t159.5 -84t86 -133t26.5 -183v-41q0 -172 -72 -274t-237 -138zM453 1190v-412h266q127 0 177 45t50 142v41q0 95 -50 139.5t-177 44.5h-266z" />
    <glyph glyph-name="S" unicode="S" horiz-adv-x="1363" 
d="M731 854q50 -3 84 -6t83.5 -10.5t84 -17t77 -26t71.5 -38t59 -53t48 -70.5t29 -91t11 -114q0 -224 -144.5 -336t-476.5 -112q-301 0 -573 61v235q350 -53 510 -53q96 0 161.5 7t107.5 19.5t64.5 35.5t31 50t8.5 68q0 39 -9.5 67.5t-30.5 47t-47.5 30t-66.5 18t-81 10
t-98 7.5q-13 1 -20 1q-53 3 -95.5 8t-97.5 17.5t-97 31t-85 51t-71 75t-46 104.5t-18 139q0 110 32 191t102.5 138.5t186.5 86t280 28.5q213 0 501 -61v-238q-298 53 -440 53q-91 0 -152.5 -6.5t-101 -18t-60.5 -33.5t-28.5 -48.5t-7.5 -67.5q0 -26 5 -48t12.5 -38t23 -29
t28 -22t38.5 -16t42.5 -10.5t50.5 -7t54 -5t61 -4.5z" />
    <glyph glyph-name="T" unicode="T" horiz-adv-x="1253" 
d="M1223 1434v-244h-443v-1190h-307v1190h-442v244h1192z" />
    <glyph glyph-name="U" unicode="U" horiz-adv-x="1523" 
d="M453 1434v-856q0 -98 11.5 -161t43 -109t88 -65.5t145.5 -19.5h41q71 0 120.5 13.5t82.5 39.5t51 70.5t25.5 99t7.5 132.5v856h307v-770q0 -151 -15.5 -256t-54.5 -190.5t-106.5 -135.5t-170 -76t-247.5 -26h-41q-122 0 -212 15.5t-157 51.5t-110 87.5t-69.5 131
t-37 174.5t-10.5 224v770h308z" />
    <glyph glyph-name="V" unicode="V" 
d="M1049 1434h288l-438 -1440h-395l-471 1440h311l367 -1151z" />
    <glyph glyph-name="W" unicode="W" horiz-adv-x="1990" 
d="M1686 1434h274l-371 -1440h-368l-228 1028l-229 -1028h-369l-362 1440h301l264 -1084l240 1084h344l235 -1078z" />
    <glyph glyph-name="X" unicode="X" horiz-adv-x="1441" 
d="M1368 0h-342l-326 504l-333 -504h-291l479 727l-459 707h342l310 -476l305 476h295l-453 -703z" />
    <glyph glyph-name="Y" unicode="Y" horiz-adv-x="1335" 
d="M1026 1434h289l-477 -934v-500h-308v500l-510 934h320l354 -662z" />
    <glyph glyph-name="Z" unicode="Z" horiz-adv-x="1314" 
d="M453 238h774v-238h-1139v238l746 958h-715v238h1079v-238z" />
    <glyph glyph-name="bracketleft" unicode="[" horiz-adv-x="763" 
d="M227 -410v2253h516v-201h-258v-1851h258v-201h-516z" />
    <glyph glyph-name="backslash" unicode="\" horiz-adv-x="1224" 
d="M1151 0h-258l-819 1434h258z" />
    <glyph glyph-name="bracketright" unicode="]" horiz-adv-x="763" 
d="M537 -410h-517v201h259v1851h-259v201h517v-2253z" />
    <glyph glyph-name="asciicircum" unicode="^" horiz-adv-x="921" 
d="M74 352l282 729h209l283 -729h-219l-168 439l-168 -439h-219z" />
    <glyph glyph-name="underscore" unicode="_" horiz-adv-x="985" 
d="M84 -287v209h819v-209h-819z" />
    <glyph glyph-name="grave" unicode="`" horiz-adv-x="677" 
d="M575 1249h-198l-275 342h310z" />
    <glyph glyph-name="a" unicode="a" horiz-adv-x="1196" 
d="M633 1126q230 0 329 -86.5t99 -265.5v-774h-283l-24 217q-61 -121 -113 -194q-123 -43 -250 -43q-152 0 -240 84t-88 221q0 155 95 233.5t293 97.5l303 31v76q0 66 -40.5 93.5t-138.5 27.5q-154 3 -403 -41v278q215 45 461 45zM754 252v205l-205 -19q-97 -9 -137.5 -34
t-40.5 -82q0 -106 143 -109q44 0 117 12.5t123 26.5z" />
    <glyph glyph-name="b" unicode="b" horiz-adv-x="1298" 
d="M805 1126q210 0 304.5 -121.5t94.5 -410.5v-82q0 -194 -47.5 -312t-139.5 -169t-239 -51q-120 0 -217 43q-66 101 -119 219l-24 -242h-283v1587h307v-723q66 126 138 219q110 43 225 43zM897 502v102q0 162 -42.5 215t-170.5 53q-108 3 -242 -38v-562q138 -42 242 -39
q127 0 170 54.5t43 214.5z" />
    <glyph glyph-name="c" unicode="c" horiz-adv-x="1214" 
d="M653 872q-52 0 -86.5 -3.5t-65 -14t-48 -28.5t-30 -49t-17.5 -73t-5 -102v-98q0 -90 11 -142t42.5 -81.5t75.5 -38.5t123 -9h21q232 0 452 41v-249q-242 -45 -452 -45h-27q-167 0 -271 26t-168.5 92.5t-89 168.5t-24.5 265v41q0 163 24.5 265t89 169t168.5 93t271 26h27
q210 0 452 -45v-250q-220 41 -452 41h-21z" />
    <glyph glyph-name="d" unicode="d" horiz-adv-x="1298" 
d="M1161 0h-282l-25 242q-63 -125 -135 -219q-114 -43 -225 -43q-211 0 -305.5 121.5t-94.5 410.5v82q0 287 102.5 409.5t321.5 122.5q118 0 219 -43q59 -91 117 -219v723h307v-1587zM612 233q110 -3 242 39v562q-120 38 -242 38q-126 0 -168.5 -54t-42.5 -214v-102
q0 -111 18.5 -167t62 -78.5t130.5 -23.5z" />
    <glyph glyph-name="e" unicode="e" horiz-adv-x="1234" 
d="M1141 573v-122h-738q3 -70 17 -112.5t46 -66t74 -31.5t113 -8h21q214 0 452 41v-249q-261 -45 -452 -45h-25q-168 0 -272.5 26t-169 92.5t-89 168.5t-24.5 265v41q0 110 9 188t31.5 142.5t59.5 104.5t95.5 68t135.5 39t183 11h21q106 0 182.5 -11t135 -39t95 -68
t59 -104.5t31.5 -142.5t9 -188zM608 883q-66 0 -102.5 -8t-61 -34.5t-33 -70.5t-10.5 -123h433q-2 79 -10 123t-32.5 70.5t-60.5 34.5t-102 8h-21z" />
    <glyph glyph-name="f" unicode="f" horiz-adv-x="733" 
d="M698 1364q-54 0 -85 -4t-57 -15t-38 -34t-18 -57.5t-6 -90.5v-57h219v-209h-219v-897h-308v897h-155v184l155 25v43q0 110 18.5 188t55.5 131t100 83.5t143.5 43.5t194.5 13h60v-244h-60z" />
    <glyph glyph-name="g" unicode="g" horiz-adv-x="1298" 
d="M879 1106h282v-995q0 -163 -24.5 -265t-89 -169t-169.5 -93t-272 -26h-24q-222 0 -443 36v238q215 -31 443 -31h20q78 0 122.5 9.5t76 39t42.5 81.5t11 141v188q-66 -131 -135 -217q-104 -45 -225 -45q-210 0 -305 121t-95 403v82q0 280 102.5 401t321.5 121
q118 0 219 -43q59 -91 117 -219zM612 244q103 -3 242 37v544q-130 37 -242 37q-126 0 -168.5 -54t-42.5 -214v-82q0 -84 9 -133.5t34 -80.5t63.5 -42t104.5 -12z" />
    <glyph glyph-name="h" unicode="h" horiz-adv-x="1298" 
d="M1161 0h-307v709q0 70 -36.5 102.5t-121.5 32.5q-102 0 -254 -39v-805h-307v1587h307v-751q68 140 148 247q42 16 114.5 29.5t135.5 13.5q157 0 239 -81t82 -236v-809z" />
    <glyph glyph-name="i" unicode="i" horiz-adv-x="579" 
d="M111 1266v260h358v-260h-358zM442 0h-307v1106h307v-1106z" />
    <glyph glyph-name="j" unicode="j" horiz-adv-x="579" 
d="M111 1266v260h358v-260h-358zM-129 -440v243h59q45 0 72.5 2.5t53 10t39 20.5t23.5 36t13.5 54.5t3.5 77.5v1102h307v-1088q0 -138 -27 -226t-91.5 -140t-157 -72t-236.5 -20h-59z" />
    <glyph glyph-name="k" unicode="k" horiz-adv-x="1239" 
d="M868 0l-297 465h-129v-465h-307v1587h307v-932h131l306 451h313l-363 -522l379 -584h-340z" />
    <glyph glyph-name="l" unicode="l" horiz-adv-x="579" 
d="M442 0h-307v1587h307v-1587z" />
    <glyph glyph-name="m" unicode="m" horiz-adv-x="2015" 
d="M1556 1126q158 0 241 -81t83 -236v-809h-307v709q0 70 -36.5 102.5t-121.5 32.5q-118 0 -254 -35v-809h-307v709q0 70 -36.5 102.5t-121.5 32.5q-110 0 -254 -37v-807h-307v1106h283l24 -268q70 140 148 245q42 16 114.5 29.5t135.5 13.5q145 0 226 -69t93 -203
q61 124 137 229q42 17 116 30t144 13z" />
    <glyph glyph-name="n" unicode="n" horiz-adv-x="1298" 
d="M1161 0h-307v709q0 70 -36.5 102.5t-121.5 32.5q-110 0 -254 -37v-807h-307v1106h283l24 -268q70 140 148 245q42 16 114.5 29.5t135.5 13.5q157 0 239 -81t82 -236v-809z" />
    <glyph glyph-name="o" unicode="o" horiz-adv-x="1265" 
d="M612 -20q-108 0 -186.5 11t-137 38.5t-95.5 67.5t-59.5 104.5t-31 142.5t-8.5 188v41q0 110 8.5 187.5t31 142t59.5 105t95.5 68t137 39t186.5 11.5h41q109 0 187.5 -11.5t137 -39t95 -68t59 -105t31 -142t8.5 -187.5v-41q0 -110 -8.5 -188t-31 -142.5t-59 -104.5
t-95.5 -67.5t-137 -38.5t-187 -11h-41zM612 223h41q49 0 80.5 3.5t56.5 15.5t38.5 29t22 50t11 72t2.5 101v118q0 62 -2.5 101t-11 72t-22 50t-38.5 29t-56.5 15.5t-80.5 3.5h-41q-49 0 -80 -3.5t-56 -15.5t-38.5 -29t-22.5 -49.5t-11.5 -72t-2.5 -101.5v-118
q0 -62 2.5 -101.5t11.5 -72t22.5 -49.5t38.5 -29t56 -15.5t80 -3.5z" />
    <glyph glyph-name="p" unicode="p" horiz-adv-x="1298" 
d="M805 1126q210 0 304.5 -121.5t94.5 -410.5v-82q0 -194 -47.5 -312t-139.5 -169t-239 -51q-120 0 -217 43q-66 101 -119 219v-662h-307v1526h283l24 -242q66 126 138 219q110 43 225 43zM897 502v102q0 162 -42.5 215t-170.5 53q-108 3 -242 -38v-562q138 -42 242 -39
q127 0 170 54.5t43 214.5z" />
    <glyph glyph-name="q" unicode="q" horiz-adv-x="1298" 
d="M1161 -420h-307v662q-63 -125 -135 -219q-114 -43 -225 -43q-211 0 -305.5 121.5t-94.5 410.5v82q0 287 102.5 409.5t321.5 122.5q118 0 219 -43q59 -91 117 -219l25 242h282v-1526zM612 233q110 -3 242 39v562q-120 38 -242 38q-126 0 -168.5 -54t-42.5 -214v-102
q0 -111 18.5 -167t62 -78.5t130.5 -23.5z" />
    <glyph glyph-name="r" unicode="r" horiz-adv-x="878" 
d="M418 1106l24 -268q70 140 148 245q40 16 121.5 29.5t146.5 13.5v-292q-287 0 -416 -27v-807h-307v1106h283z" />
    <glyph glyph-name="s" unicode="s" horiz-adv-x="1155" 
d="M627 678q174 -17 241 -38q149 -44 192 -167q21 -58 21 -137q0 -86 -28 -149.5t-90 -111t-168.5 -71.5t-257.5 -24q-255 0 -463 43v223q237 -44 424 -41q114 0 174 12.5t81 37.5t21 71q0 63 -62 83q-39 14 -181 22q-10 1 -17 1q-52 4 -93.5 10t-94.5 19.5t-92 38t-74 60
t-53.5 91t-18.5 125.5q0 173 118 261.5t376 88.5q230 0 442 -41v-221q-230 40 -395 37q-94 0 -145.5 -12.5t-70 -37t-18.5 -67.5q0 -16 3.5 -29.5t11.5 -23t16 -16.5t23.5 -12.5t27.5 -8.5t33 -5.5t35 -4t40 -3.5t42 -3z" />
    <glyph glyph-name="t" unicode="t" horiz-adv-x="784" 
d="M764 897h-270v-473q0 -118 31 -154.5t130 -36.5h109v-233h-133q-106 0 -175.5 11t-124.5 38t-85 77.5t-45 125.5t-15 186v459h-155v184l155 25l50 328h258v-328h270v-209z" />
    <glyph glyph-name="u" unicode="u" horiz-adv-x="1298" 
d="M459 -20q-158 0 -241 81t-83 236v809h307v-727q0 -70 37 -102.5t123 -32.5q108 0 252 37v825h307v-1106h-282l-25 252q-81 -147 -145 -229q-41 -16 -114.5 -29.5t-135.5 -13.5z" />
    <glyph glyph-name="v" unicode="v" horiz-adv-x="1292" 
d="M961 1106h301l-406 -1112h-385l-438 1112h340l307 -819z" />
    <glyph glyph-name="w" unicode="w" horiz-adv-x="1949" 
d="M1634 1106h285l-369 -1112h-344l-225 727l-209 -727h-344l-395 1112h311l272 -809l222 809h307l237 -797z" />
    <glyph glyph-name="x" unicode="x" horiz-adv-x="1218" 
d="M1186 0l-352 -2l-244 344l-246 -342h-313l407 559l-387 547h355l221 -313l227 313h311l-385 -531z" />
    <glyph glyph-name="y" unicode="y" horiz-adv-x="1253" 
d="M920 1106h303l-396 -1106q-39 -109 -90.5 -186.5t-112 -127t-144.5 -77.5t-175 -38.5t-215 -10.5v243q105 0 171 7.5t126 31.5t99 69t69 118h-133l-389 1077h311l291 -838z" />
    <glyph glyph-name="z" unicode="z" horiz-adv-x="1165" 
d="M463 219h635v-219h-1030v219l624 658h-614v229h995v-229z" />
    <glyph glyph-name="braceleft" unicode="{" horiz-adv-x="835" 
d="M565 1028q0 -236 -211 -311q211 -75 211 -311v-422q0 -97 42.5 -143t148.5 -46h59v-205h-59q-107 0 -188 22t-130.5 57.5t-80 88t-41.5 106.5t-11 120v422q0 98 -42 152t-144 54h-35v209h35q102 0 144 54.5t42 152.5v422q0 66 11 120t41.5 106.5t80 88t130.5 57t188 21.5
h59v-205h-59q-106 0 -148.5 -45.5t-42.5 -142.5v-422z" />
    <glyph glyph-name="bar" unicode="|" horiz-adv-x="524" 
d="M156 -205v1843h211v-1843h-211z" />
    <glyph glyph-name="braceright" unicode="}" horiz-adv-x="815" 
d="M717 821h37v-209h-37q-102 0 -144.5 -54t-42.5 -152v-422q0 -66 -11 -120t-41.5 -106.5t-79.5 -88t-130 -57.5t-188 -22h-60v205h60q106 0 149 46t43 143v422q0 236 209 311q-209 75 -209 311v422q0 96 -43 142t-149 46h-60v205h60q107 0 188 -21.5t130 -57t79.5 -88
t41.5 -106.5t11 -120v-422q0 -98 42.5 -152.5t144.5 -54.5z" />
    <glyph glyph-name="asciitilde" unicode="~" horiz-adv-x="897" 
d="M627 575q-59 0 -186 31t-195 31q-46 0 -90.5 -14.5t-71.5 -36.5v205q30 25 80 41t106 16q60 0 187 -31t194 -31q46 0 90.5 14.5t73.5 37.5v-205q-72 -58 -188 -58z" />
    <glyph glyph-name="exclamdown" unicode="&#xa1;" horiz-adv-x="495" 
d="M92 1106h309v-252h-309v252zM168 731h160l73 -878v-181h-307v181z" />
    <glyph glyph-name="cent" unicode="&#xa2;" horiz-adv-x="1214" 
d="M1126 831q-165 30 -333 39v-634q176 9 333 38v-249q-179 -33 -333 -41v-189h-242v187q-136 8 -223 39t-139.5 98.5t-73.5 164.5t-21 248v41q0 151 21 248.5t73.5 164.5t139.5 98.5t223 39.5v187h242v-189q154 -8 333 -41v-250zM401 504q0 -140 32.5 -196t117.5 -68v626
q-85 -12 -117.5 -68t-32.5 -196v-98z" />
    <glyph glyph-name="sterling" unicode="&#xa3;" horiz-adv-x="1284" 
d="M762 1208q-262 0 -262 -215q0 -73 37 -186h448v-182h-383q29 -96 29 -162q0 -138 -96 -219h667v-244h-1108v244h23q99 3 153 52t54 128q0 68 -45 201h-185v182h125q-26 96 -26 182q0 217 132.5 340t376.5 123q220 0 500 -57v-236q-213 49 -440 49z" />
    <glyph glyph-name="currency" unicode="&#xa4;" horiz-adv-x="1271" 
d="M1169 717q0 -317 -182 -443l150 -274h-211l-113 203q-81 -19 -176 -19q-97 0 -178 19l-113 -203h-211l150 274q-181 126 -181 443q0 316 181 442l-150 275h211l113 -203q77 18 178 18q99 0 176 -18l113 203h211l-150 -275q182 -126 182 -442zM315 717q0 -183 69.5 -252.5
t252.5 -69.5q182 0 251.5 69.5t69.5 252.5t-69 252t-252 69t-252.5 -69t-69.5 -252z" />
    <glyph glyph-name="yen" unicode="&#xa5;" horiz-adv-x="1335" 
d="M1315 1434l-432 -846h247v-182h-292v-406h-308v406h-288v182h241l-463 846h320l354 -662l332 662h289z" />
    <glyph glyph-name="brokenbar" unicode="&#xa6;" horiz-adv-x="524" 
d="M156 819v819h211v-819h-211zM156 -205v819h211v-819h-211z" />
    <glyph glyph-name="section" unicode="&#xa7;" horiz-adv-x="1155" 
d="M545 774q-179 11 -254 33q-150 45 -188 179q-15 52 -15 118q0 173 118 261.5t376 88.5q230 0 442 -41v-221q-215 37 -395 37q-138 0 -186 -25.5t-48 -89.5q0 -32 13.5 -51t44.5 -27.5t66.5 -11.5t94.5 -5q27 0 41 -1q400 -16 412 -275zM625 666q178 -11 253 -33
q149 -44 188 -178q15 -52 15 -119q0 -86 -28 -149.5t-90 -111t-168.5 -71.5t-257.5 -24q-255 0 -463 43v223q237 -44 424 -41q114 0 174 12.5t81 37.5t21 71q0 32 -13.5 51t-44.5 27.5t-66.5 11.5t-94.5 5q-27 0 -41 1q-400 16 -412 274z" />
    <glyph glyph-name="dieresis" unicode="&#xa8;" horiz-adv-x="890" 
d="M102 1266v260h271v-260h-271zM518 1266v260h270v-260h-270z" />
    <glyph glyph-name="copyright" unicode="&#xa9;" horiz-adv-x="1681" 
d="M842 -20q-144 0 -251 15t-191 51t-139 90.5t-91 138.5t-51 191t-15 251t15 251t51 191t91 138.5t139 90.5t191 51t251 15t251 -15t191 -51t138.5 -90.5t90.5 -138.5t51 -191t15 -251t-15 -251t-51 -191t-90.5 -138.5t-138.5 -90.5t-191 -51t-251 -15zM842 113
q125 0 211.5 10t155.5 37.5t110.5 69.5t69 112t37.5 159t10 216t-10 216t-37.5 159t-69 112t-110.5 69.5t-155.5 37.5t-211.5 10t-211.5 -10t-155.5 -37.5t-110.5 -69.5t-69 -112t-37.5 -159t-10 -216t10 -216t37.5 -159t69 -112t110.5 -69.5t155.5 -37.5t211.5 -10z
M831 272q-77 0 -131 7t-100 25.5t-74.5 49t-48.5 79t-28.5 114t-8.5 155.5v25q0 109 13 182.5t39.5 123t75 76.5t109.5 37.5t154 10.5h25q151 0 315 -37v-180q-178 41 -315 41h-25q-93 0 -127 -37t-34 -139v-178q0 -102 34 -139t127 -37h25q137 0 315 41v-183
q-179 -37 -315 -37h-25z" />
    <glyph glyph-name="ordfeminine" unicode="&#xaa;" horiz-adv-x="915" 
d="M324 641q-107 0 -170.5 55.5t-63.5 157.5q0 114 72.5 166t222.5 65l186 17v51q0 46 -27.5 69.5t-94.5 24.5q-113 3 -283 -28v196q163 29 323 29q159 0 228 -60.5t69 -185.5v-543h-196l-19 152q-39 -87 -75 -135q-87 -31 -172 -31zM449 971q-86 -9 -116 -27t-30 -61
q0 -80 103 -80q32 0 82.5 8t82.5 18v152zM41 573h833v-157h-833v157z" />
    <glyph glyph-name="guillemotleft" unicode="&#xab;" horiz-adv-x="1187" 
d="M432 961h268l-348 -408l348 -408h-268l-348 408zM836 961h268l-348 -408l348 -408h-268l-349 408z" />
    <glyph glyph-name="logicalnot" unicode="&#xac;" horiz-adv-x="1034" 
d="M950 449h-209v327h-657v209h866v-536z" />
    <glyph glyph-name="uni00AD" unicode="&#xad;" horiz-adv-x="882" 
d="M84 449v208h717v-208h-717z" />
    <glyph glyph-name="registered" unicode="&#xae;" horiz-adv-x="1681" 
d="M842 1454q144 0 251 -15t191 -51t138.5 -90.5t90.5 -138.5t51 -191t15 -251t-15 -251t-51 -191t-90.5 -138.5t-138.5 -90.5t-191 -51t-251 -15t-251 15t-191 51t-139 90.5t-91 138.5t-51 191t-15 251t15 251t51 191t91 138.5t139 90.5t191 51t251 15zM842 113
q125 0 211.5 10t155.5 37.5t110.5 69.5t69 112t37.5 159t10 216t-10 216t-37.5 159t-69 112t-110.5 69.5t-155.5 37.5t-211.5 10t-211.5 -10t-155.5 -37.5t-110.5 -69.5t-69 -112t-37.5 -159t-10 -216t10 -216t37.5 -159t69 -112t110.5 -69.5t155.5 -37.5t211.5 -10z
M1206 860q0 -96 -37 -156.5t-120 -87.5l178 -329h-246l-154 309h-90v-309h-229v860h381q172 0 244.5 -65t72.5 -197v-25zM737 979v-215h125q65 0 90 23t25 73v25q0 48 -25 71t-90 23h-125z" />
    <glyph glyph-name="macron" unicode="&#xaf;" horiz-adv-x="800" 
d="M102 1292v209h596v-209h-596z" />
    <glyph glyph-name="degree" unicode="&#xb0;" horiz-adv-x="923" 
d="M446 719q-179 0 -266.5 82t-87.5 270v29q0 182 88.5 266t265.5 84h29q178 0 266 -83.5t88 -266.5v-29q0 -181 -88.5 -266.5t-265.5 -85.5h-29zM446 905h29q62 0 88.5 37t26.5 113v59q0 81 -26 116.5t-89 35.5h-29q-61 0 -87.5 -36t-26.5 -116v-59q0 -75 27 -112.5
t87 -37.5z" />
    <glyph glyph-name="plusminus" unicode="&#xb1;" horiz-adv-x="1034" 
d="M412 494v327h-328v211h328v328h211v-328h327v-211h-327v-327h-211zM84 180v209h866v-209h-866z" />
    <glyph glyph-name="uni00B2" unicode="&#xb2;" horiz-adv-x="931" 
d="M311 721h547v-189h-786v189q0 92 29.5 159t76.5 103t103.5 60.5t113 39.5t103.5 32t76.5 46.5t29.5 73.5v10q0 62 -36 89t-136 28q-124 3 -323 -29v187q147 30 331 30q214 0 309 -75t95 -218v-22q0 -67 -23 -118t-60.5 -80t-85.5 -52.5t-97.5 -37t-97.5 -33.5
t-85.5 -41.5t-60.5 -60t-23 -91.5z" />
    <glyph glyph-name="uni00B3" unicode="&#xb3;" horiz-adv-x="931" 
d="M682 1047q176 -52 176 -226v-28q0 -132 -106 -203.5t-324 -71.5q-204 0 -356 31v186q173 -28 348 -28q114 0 156 25t42 83v21q0 63 -35.5 88.5t-136.5 25.5h-190v172h170q94 0 131 26.5t37 86.5v20q0 59 -37 83t-129 24q-57 2 -158 -7t-184 -22v187q147 30 360 30
q388 0 388 -266v-29q0 -149 -152 -208z" />
    <glyph glyph-name="acute" unicode="&#xb4;" horiz-adv-x="677" 
d="M102 1249l164 342h309l-272 -342h-201z" />
    <glyph glyph-name="uni00B5" unicode="&#xb5;" horiz-adv-x="1298" 
d="M854 1106h307v-1106h-282l-25 252q-65 -118 -152 -229q-95 -43 -231 -43h-29q-4 -125 -33.5 -206t-93.5 -128.5t-155 -66.5t-230 -19h-59v243h59q45 0 72.5 2.5t53 10t39 20.5t23.5 36t13.5 54.5t3.5 77.5v1102h307v-727q0 -70 37 -102.5t123 -32.5q108 0 252 37v825z
" />
    <glyph glyph-name="paragraph" unicode="&#xb6;" horiz-adv-x="1347" 
d="M686 0v473h-57q-289 0 -412 106t-123 353v41q0 247 123 354t412 107h573v-1434h-201v1190h-112v-1190h-203z" />
    <glyph glyph-name="periodcentered" unicode="&#xb7;" horiz-adv-x="475" 
d="M84 397v312h309v-312h-309z" />
    <glyph glyph-name="cedilla" unicode="&#xb8;" horiz-adv-x="610" 
d="M299 -78q93 0 151 -38t58 -120v-20q0 -90 -58.5 -137t-164.5 -47q-99 0 -183 24v86h62q133 0 133 74v20q0 35 -33 53.5t-86 18.5v184h121v-98z" />
    <glyph glyph-name="uni00B9" unicode="&#xb9;" horiz-adv-x="708" 
d="M233 532v797h-161v141l401 80v-1018h-240z" />
    <glyph glyph-name="ordmasculine" unicode="&#xba;" horiz-adv-x="929" 
d="M451 641q-78 0 -134.5 8t-98.5 27.5t-68.5 48t-43 73.5t-22.5 99.5t-6 130.5v29q0 76 6 130.5t22.5 99.5t43 73.5t68.5 48t98.5 27.5t134.5 8h28q116 0 187 -18.5t112.5 -66t56.5 -117.5t15 -185v-29q0 -115 -15 -185t-56.5 -117.5t-112.5 -66t-187 -18.5h-28zM451 829
h28q85 0 108 29.5t23 136.5v95q0 107 -22.5 136t-108.5 29h-28q-86 0 -110 -29.5t-24 -135.5v-95q0 -106 24 -136t110 -30zM41 401v172h848v-172h-848z" />
    <glyph glyph-name="guillemotright" unicode="&#xbb;" horiz-adv-x="1187" 
d="M352 961l348 -408l-348 -408h-268l348 408l-348 408h268zM756 961l348 -408l-348 -408h-269l349 408l-349 408h269z" />
    <glyph glyph-name="onequarter" unicode="&#xbc;" horiz-adv-x="2197" 
d="M473 430h-240v797h-161v141l401 80v-1018zM1464 1434h217l-1011 -1434h-217zM2126 408v-189h-125v-219h-240v219h-520v189l498 596h262v-596h125zM1460 408h301v364z" />
    <glyph glyph-name="onehalf" unicode="&#xbd;" horiz-adv-x="2304" 
d="M473 430h-240v797h-161v141l401 80v-1018zM1464 1434h217l-1011 -1434h-217zM1686 188h546v-188h-786v188q0 92 29.5 159t76.5 103t103.5 60.5t113 39.5t103.5 32t76.5 46.5t29.5 73.5v11q0 61 -36 88t-136 28q-129 3 -323 -28v186q152 31 332 31q214 0 308.5 -75
t94.5 -218v-23q0 -76 -29.5 -131t-76.5 -85t-103.5 -51.5t-113 -39.5t-103.5 -41.5t-76.5 -64.5t-29.5 -101z" />
    <glyph glyph-name="threequarters" unicode="&#xbe;" horiz-adv-x="2369" 
d="M858 690q0 -132 -106 -203t-324 -71q-209 0 -356 30v187q179 -29 348 -29q114 0 156 25.5t42 83.5v20q0 63 -35.5 89t-136.5 26h-190v172h170q94 0 131 26.5t37 86.5v20q0 59 -37 83t-129 24q-57 2 -158 -7t-184 -22v186q152 31 360 31q388 0 388 -266v-29
q0 -150 -152 -209q90 -26 133 -81t43 -144v-29zM1636 1434h217l-1011 -1434h-217zM2298 408v-189h-125v-219h-240v219h-520v189l498 596h262v-596h125zM1632 408h301v364z" />
    <glyph glyph-name="questiondown" unicode="&#xbf;" horiz-adv-x="1183" 
d="M864 1106v-252h-309v252h309zM678 -104q214 0 452 41v-242q-208 -43 -462 -43q-302 0 -433 98.5t-131 306.5v64q0 198 114.5 296.5t375.5 108.5l37 205h160l53 -217v-195h-4l4 -16h-166q-158 0 -212 -42t-54 -155v-14q0 -112 53.5 -153.5t212.5 -42.5z" />
    <glyph glyph-name="Agrave" unicode="&#xc0;" 
d="M762 1577h-199l-274 342h309zM1024 0l-113 354h-487l-105 -354h-288l438 1440h395l473 -1440h-313zM496 598h338l-177 557z" />
    <glyph glyph-name="Aacute" unicode="&#xc1;" 
d="M1034 1919l-272 -342h-201l164 342h309zM1024 0l-113 354h-487l-105 -354h-288l438 1440h395l473 -1440h-313zM496 598h338l-177 557z" />
    <glyph glyph-name="Acircumflex" unicode="&#xc2;" 
d="M662 1763l-148 -186h-201l195 342h309l195 -342h-201zM1024 0l-113 354h-487l-105 -354h-288l438 1440h395l473 -1440h-313zM496 598h338l-177 557z" />
    <glyph glyph-name="Atilde" unicode="&#xc3;" 
d="M819 1569q-61 0 -166 30.5t-172 30.5q-92 0 -157 -51v205q68 55 182 55q59 0 164.5 -29.5t173.5 -29.5q90 0 157 49v-205q-68 -55 -182 -55zM1024 0l-113 354h-487l-105 -354h-288l438 1440h395l473 -1440h-313zM496 598h338l-177 557z" />
    <glyph glyph-name="Adieresis" unicode="&#xc4;" 
d="M590 1853v-260h-271v260h271zM1006 1853v-260h-271v260h271zM1024 0l-113 354h-487l-105 -354h-288l438 1440h395l473 -1440h-313zM496 598h338l-177 557z" />
    <glyph glyph-name="Aring" unicode="&#xc5;" 
d="M651 1567q-104 0 -160.5 21.5t-75 59t-18.5 103.5v21q0 65 18.5 102t75 58.5t160.5 21.5h21q104 0 160.5 -21.5t75 -58.5t18.5 -102v-21q0 -66 -18.5 -103.5t-75 -59t-160.5 -21.5h-21zM578 1772v-21q0 -35 14 -46t59 -11h21q44 0 57.5 11t13.5 46v21q0 35 -13.5 46
t-57.5 11h-21q-45 0 -59 -11t-14 -46zM1024 0l-113 354h-487l-105 -354h-288l438 1440h395l473 -1440h-313zM496 598h338l-177 557z" />
    <glyph glyph-name="AE" unicode="&#xc6;" horiz-adv-x="2127" 
d="M2040 1190h-787v-348h594v-244h-594v-354h787v-244h-1094v444h-395l-232 -444h-288l764 1434h1245v-244zM678 688h268v514z" />
    <glyph glyph-name="Ccedilla" unicode="&#xc7;" horiz-adv-x="1361" 
d="M735 1210q-125 0 -192 -31.5t-99 -115t-32 -240.5v-213q0 -157 32 -240.5t99 -115t192 -31.5h41q236 0 498 66v-248q-257 -58 -477 -61v-58q93 0 151 -38t58 -120v-20q0 -90 -59 -137t-165 -47q-98 0 -182 24v86h62q133 0 133 74v20q0 35 -33 53.5t-86 18.5v144
q-131 4 -222 26t-161 70t-110 130.5t-59.5 201t-19.5 288.5v41q0 148 14 256t46.5 189t79.5 132.5t120.5 83t161 44t209.5 12.5h41q229 0 498 -61v-248q-258 65 -498 65h-41z" />
    <glyph glyph-name="Egrave" unicode="&#xc8;" horiz-adv-x="1327" 
d="M721 1577h-199l-274 342h309zM1239 1190h-786v-348h594v-244h-594v-354h786v-244h-1094v1434h1094v-244z" />
    <glyph glyph-name="Eacute" unicode="&#xc9;" horiz-adv-x="1327" 
d="M995 1919l-272 -342h-201l164 342h309zM1239 1190h-786v-348h594v-244h-594v-354h786v-244h-1094v1434h1094v-244z" />
    <glyph glyph-name="Ecircumflex" unicode="&#xca;" horiz-adv-x="1327" 
d="M623 1763l-148 -186h-201l195 342h309l195 -342h-201zM1239 1190h-786v-348h594v-244h-594v-354h786v-244h-1094v1434h1094v-244z" />
    <glyph glyph-name="Edieresis" unicode="&#xcb;" horiz-adv-x="1327" 
d="M549 1853v-260h-270v260h270zM965 1853v-260h-271v260h271zM1239 1190h-786v-348h594v-244h-594v-354h786v-244h-1094v1434h1094v-244z" />
    <glyph glyph-name="Igrave" unicode="&#xcc;" horiz-adv-x="598" 
d="M399 1577h-198l-275 342h310zM145 0v1434h308v-1434h-308z" />
    <glyph glyph-name="Iacute" unicode="&#xcd;" horiz-adv-x="598" 
d="M199 1577l163 342h310l-273 -342h-200zM145 0v1434h308v-1434h-308z" />
    <glyph glyph-name="Icircumflex" unicode="&#xce;" horiz-adv-x="598" 
d="M649 1577h-200l-150 186l-147 -186h-201l194 342h310zM145 0v1434h308v-1434h-308z" />
    <glyph glyph-name="Idieresis" unicode="&#xcf;" horiz-adv-x="598" 
d="M-43 1593v260h270v-260h-270zM373 1593v260h270v-260h-270zM145 0v1434h308v-1434h-308z" />
    <glyph glyph-name="Eth" unicode="&#xd0;" horiz-adv-x="1470" 
d="M756 1434q125 0 215 -13.5t159.5 -47.5t113.5 -84.5t72 -131t39 -180.5t11 -240v-41q0 -140 -11 -240.5t-39 -181t-72 -130.5t-114 -83.5t-159.5 -47t-214.5 -13.5h-611v625h-145v184h145v625h611zM1059 618v197q0 94 -8.5 156t-28 106.5t-56 68t-86 34t-124.5 10.5h-303
v-381h344v-184h-344v-381h303q94 0 150 15t92 58.5t48.5 113.5t12.5 187z" />
    <glyph glyph-name="Ntilde" unicode="&#xd1;" horiz-adv-x="1490" 
d="M893 1569q-61 0 -166 30.5t-172 30.5q-93 0 -158 -51v205q68 55 183 55q59 0 164.5 -29.5t173.5 -29.5q90 0 157 49v-205q-68 -55 -182 -55zM1092 1434h254v-1434h-330l-617 993v-993h-254v1434h330l617 -994v994z" />
    <glyph glyph-name="Ograve" unicode="&#xd2;" horiz-adv-x="1470" 
d="M834 1577h-199l-275 342h310zM715 -20q-94 0 -166 6.5t-134.5 23.5t-107 42.5t-80.5 66.5t-58.5 93.5t-37.5 125.5t-21 159.5t-6 198.5v41q0 145 11 249t39.5 186.5t72 134.5t114 86t160 47.5t214.5 13.5h41q125 0 214.5 -13.5t159.5 -47.5t114 -86t72 -134.5t39 -186.5
t11 -249v-41q0 -145 -11 -249t-39 -186.5t-72 -134t-114 -85.5t-159.5 -47.5t-214.5 -13.5h-41zM715 223h41q75 0 124 10.5t85.5 35t56 70.5t28.5 110t9 161v213q0 97 -9 161t-28.5 110t-56 70.5t-85.5 35t-124 10.5h-41q-94 0 -150 -16t-92 -61t-48.5 -117t-12.5 -193v-213
q0 -121 12.5 -193t48.5 -117t92 -61t150 -16z" />
    <glyph glyph-name="Oacute" unicode="&#xd3;" horiz-adv-x="1470" 
d="M635 1577l164 342h309l-272 -342h-201zM715 -20q-94 0 -166 6.5t-134.5 23.5t-107 42.5t-80.5 66.5t-58.5 93.5t-37.5 125.5t-21 159.5t-6 198.5v41q0 145 11 249t39.5 186.5t72 134.5t114 86t160 47.5t214.5 13.5h41q125 0 214.5 -13.5t159.5 -47.5t114 -86t72 -134.5
t39 -186.5t11 -249v-41q0 -145 -11 -249t-39 -186.5t-72 -134t-114 -85.5t-159.5 -47.5t-214.5 -13.5h-41zM715 223h41q75 0 124 10.5t85.5 35t56 70.5t28.5 110t9 161v213q0 97 -9 161t-28.5 110t-56 70.5t-85.5 35t-124 10.5h-41q-94 0 -150 -16t-92 -61t-48.5 -117
t-12.5 -193v-213q0 -121 12.5 -193t48.5 -117t92 -61t150 -16z" />
    <glyph glyph-name="Ocircumflex" unicode="&#xd4;" horiz-adv-x="1470" 
d="M1085 1577h-200l-150 186l-147 -186h-201l195 342h309zM715 -20q-94 0 -166 6.5t-134.5 23.5t-107 42.5t-80.5 66.5t-58.5 93.5t-37.5 125.5t-21 159.5t-6 198.5v41q0 145 11 249t39.5 186.5t72 134.5t114 86t160 47.5t214.5 13.5h41q125 0 214.5 -13.5t159.5 -47.5
t114 -86t72 -134.5t39 -186.5t11 -249v-41q0 -145 -11 -249t-39 -186.5t-72 -134t-114 -85.5t-159.5 -47.5t-214.5 -13.5h-41zM715 223h41q75 0 124 10.5t85.5 35t56 70.5t28.5 110t9 161v213q0 97 -9 161t-28.5 110t-56 70.5t-85.5 35t-124 10.5h-41q-94 0 -150 -16
t-92 -61t-48.5 -117t-12.5 -193v-213q0 -121 12.5 -193t48.5 -117t92 -61t150 -16z" />
    <glyph glyph-name="Otilde" unicode="&#xd5;" horiz-adv-x="1470" 
d="M397 1784q68 55 183 55q59 0 164.5 -29.5t173.5 -29.5q90 0 157 49v-205q-68 -55 -182 -55q-61 0 -166 30.5t-172 30.5q-93 0 -158 -51v205zM715 -20q-94 0 -166 6.5t-134.5 23.5t-107 42.5t-80.5 66.5t-58.5 93.5t-37.5 125.5t-21 159.5t-6 198.5v41q0 145 11 249
t39.5 186.5t72 134.5t114 86t160 47.5t214.5 13.5h41q125 0 214.5 -13.5t159.5 -47.5t114 -86t72 -134.5t39 -186.5t11 -249v-41q0 -145 -11 -249t-39 -186.5t-72 -134t-114 -85.5t-159.5 -47.5t-214.5 -13.5h-41zM715 223h41q75 0 124 10.5t85.5 35t56 70.5t28.5 110t9 161
v213q0 97 -9 161t-28.5 110t-56 70.5t-85.5 35t-124 10.5h-41q-94 0 -150 -16t-92 -61t-48.5 -117t-12.5 -193v-213q0 -121 12.5 -193t48.5 -117t92 -61t150 -16z" />
    <glyph glyph-name="Odieresis" unicode="&#xd6;" horiz-adv-x="1470" 
d="M391 1593v260h271v-260h-271zM807 1593v260h270v-260h-270zM715 -20q-94 0 -166 6.5t-134.5 23.5t-107 42.5t-80.5 66.5t-58.5 93.5t-37.5 125.5t-21 159.5t-6 198.5v41q0 145 11 249t39.5 186.5t72 134.5t114 86t160 47.5t214.5 13.5h41q125 0 214.5 -13.5t159.5 -47.5
t114 -86t72 -134.5t39 -186.5t11 -249v-41q0 -145 -11 -249t-39 -186.5t-72 -134t-114 -85.5t-159.5 -47.5t-214.5 -13.5h-41zM715 223h41q75 0 124 10.5t85.5 35t56 70.5t28.5 110t9 161v213q0 97 -9 161t-28.5 110t-56 70.5t-85.5 35t-124 10.5h-41q-94 0 -150 -16
t-92 -61t-48.5 -117t-12.5 -193v-213q0 -121 12.5 -193t48.5 -117t92 -61t150 -16z" />
    <glyph glyph-name="multiply" unicode="&#xd7;" horiz-adv-x="1034" 
d="M244 295l-150 147l275 275l-275 274l150 148l272 -275l275 275l149 -148l-276 -274l276 -275l-149 -147l-275 274z" />
    <glyph glyph-name="Oslash" unicode="&#xd8;" horiz-adv-x="1470" 
d="M1202 1348q91 -74 127.5 -217.5t36.5 -393.5v-41q0 -145 -11 -249t-39 -186.5t-72 -134t-114 -85.5t-159.5 -47.5t-214.5 -13.5h-41q-183 0 -295 28l-76 -131h-199l119 205q-89 73 -124.5 216.5t-35.5 397.5v41q0 145 11 248.5t39.5 186.5t72 134.5t114 86t160 48
t214.5 13.5h41q175 0 288 -29l78 131h201zM412 610q0 -157 22 -235l477 817q-53 18 -155 18h-41q-94 0 -150 -15.5t-92 -60.5t-48.5 -117t-12.5 -194v-213zM1059 610v213q0 162 -25 238l-477 -819q65 -19 158 -19h41q94 0 150 15.5t92 60.5t48.5 117t12.5 194z" />
    <glyph glyph-name="Ugrave" unicode="&#xd9;" horiz-adv-x="1523" 
d="M860 1577h-198l-275 342h309zM453 1434v-856q0 -98 11.5 -161t43 -109t88 -65.5t145.5 -19.5h41q71 0 120.5 13.5t82.5 39.5t51 70.5t25.5 99t7.5 132.5v856h307v-770q0 -151 -15.5 -256t-54.5 -190.5t-106.5 -135.5t-170 -76t-247.5 -26h-41q-122 0 -212 15.5t-157 51.5
t-110 87.5t-69.5 131t-37 174.5t-10.5 224v770h308z" />
    <glyph glyph-name="Uacute" unicode="&#xda;" horiz-adv-x="1523" 
d="M662 1577l163 342h310l-273 -342h-200zM453 1434v-856q0 -98 11.5 -161t43 -109t88 -65.5t145.5 -19.5h41q71 0 120.5 13.5t82.5 39.5t51 70.5t25.5 99t7.5 132.5v856h307v-770q0 -151 -15.5 -256t-54.5 -190.5t-106.5 -135.5t-170 -76t-247.5 -26h-41q-122 0 -212 15.5
t-157 51.5t-110 87.5t-69.5 131t-37 174.5t-10.5 224v770h308z" />
    <glyph glyph-name="Ucircumflex" unicode="&#xdb;" horiz-adv-x="1523" 
d="M1110 1577h-201l-149 186l-148 -186h-200l194 342h309zM453 1434v-856q0 -98 11.5 -161t43 -109t88 -65.5t145.5 -19.5h41q71 0 120.5 13.5t82.5 39.5t51 70.5t25.5 99t7.5 132.5v856h307v-770q0 -151 -15.5 -256t-54.5 -190.5t-106.5 -135.5t-170 -76t-247.5 -26h-41
q-122 0 -212 15.5t-157 51.5t-110 87.5t-69.5 131t-37 174.5t-10.5 224v770h308z" />
    <glyph glyph-name="Udieresis" unicode="&#xdc;" horiz-adv-x="1523" 
d="M418 1593v260h270v-260h-270zM834 1593v260h270v-260h-270zM453 1434v-856q0 -98 11.5 -161t43 -109t88 -65.5t145.5 -19.5h41q71 0 120.5 13.5t82.5 39.5t51 70.5t25.5 99t7.5 132.5v856h307v-770q0 -151 -15.5 -256t-54.5 -190.5t-106.5 -135.5t-170 -76t-247.5 -26
h-41q-122 0 -212 15.5t-157 51.5t-110 87.5t-69.5 131t-37 174.5t-10.5 224v770h308z" />
    <glyph glyph-name="Yacute" unicode="&#xdd;" horiz-adv-x="1335" 
d="M1059 1919l-273 -342h-200l164 342h309zM1026 1434h289l-477 -934v-500h-308v500l-510 934h320l354 -662z" />
    <glyph glyph-name="Thorn" unicode="&#xde;" horiz-adv-x="1347" 
d="M719 1165q287 0 410.5 -102t123.5 -326v-41q0 -224 -123.5 -326t-410.5 -102h-266v-268h-308v1434h308v-269h266zM946 696v41q0 101 -52.5 143t-174.5 42h-266v-410h266q122 0 174.5 41.5t52.5 142.5z" />
    <glyph glyph-name="germandbls" unicode="&#xdf;" horiz-adv-x="1458" 
d="M1092 829q282 -79 282 -364v-41q0 -210 -143 -317t-445 -107h-168v246l177 -2q80 0 135 15t84 43.5t41 63.5t12 83v30q0 111 -60.5 163t-215.5 52h-173v236h142q132 0 191 50t59 159v30q0 99 -55.5 146.5t-180.5 48.5h-35q-129 0 -187 -46t-58 -175v-1143h-308v897h-155
v184l155 25v43q0 130 38 221t112 142.5t169.5 73.5t223.5 22h45q256 0 392.5 -98.5t136.5 -301.5v-30q0 -259 -211 -349z" />
    <glyph glyph-name="agrave" unicode="&#xe0;" horiz-adv-x="1196" 
d="M723 1249h-199l-274 342h309zM633 1126q230 0 329 -86.5t99 -265.5v-774h-283l-24 217q-61 -121 -113 -194q-123 -43 -250 -43q-152 0 -240 84t-88 221q0 155 95 233.5t293 97.5l303 31v76q0 66 -40.5 93.5t-138.5 27.5q-154 3 -403 -41v278q215 45 461 45zM754 252v205
l-205 -19q-97 -9 -137.5 -34t-40.5 -82q0 -106 143 -109q44 0 117 12.5t123 26.5z" />
    <glyph glyph-name="aacute" unicode="&#xe1;" horiz-adv-x="1196" 
d="M997 1591l-272 -342h-201l164 342h309zM633 1126q230 0 329 -86.5t99 -265.5v-774h-283l-24 217q-61 -121 -113 -194q-123 -43 -250 -43q-152 0 -240 84t-88 221q0 155 95 233.5t293 97.5l303 31v76q0 66 -40.5 93.5t-138.5 27.5q-154 3 -403 -41v278q215 45 461 45z
M754 252v205l-205 -19q-97 -9 -137.5 -34t-40.5 -82q0 -106 143 -109q44 0 117 12.5t123 26.5z" />
    <glyph glyph-name="acircumflex" unicode="&#xe2;" horiz-adv-x="1196" 
d="M623 1436l-148 -187h-201l195 342h309l195 -342h-201zM633 1126q230 0 329 -86.5t99 -265.5v-774h-283l-24 217q-61 -121 -113 -194q-123 -43 -250 -43q-152 0 -240 84t-88 221q0 155 95 233.5t293 97.5l303 31v76q0 66 -40.5 93.5t-138.5 27.5q-154 3 -403 -41v278
q215 45 461 45zM754 252v205l-205 -19q-97 -9 -137.5 -34t-40.5 -82q0 -106 143 -109q44 0 117 12.5t123 26.5z" />
    <glyph glyph-name="atilde" unicode="&#xe3;" horiz-adv-x="1196" 
d="M780 1241q-60 0 -165.5 31t-172.5 31q-91 0 -157 -52v205q68 55 182 55q59 0 164.5 -29.5t173.5 -29.5q91 0 158 49v-205q-68 -55 -183 -55zM633 1126q230 0 329 -86.5t99 -265.5v-774h-283l-24 217q-61 -121 -113 -194q-123 -43 -250 -43q-152 0 -240 84t-88 221
q0 155 95 233.5t293 97.5l303 31v76q0 66 -40.5 93.5t-138.5 27.5q-154 3 -403 -41v278q215 45 461 45zM754 252v205l-205 -19q-97 -9 -137.5 -34t-40.5 -82q0 -106 143 -109q44 0 117 12.5t123 26.5z" />
    <glyph glyph-name="adieresis" unicode="&#xe4;" horiz-adv-x="1196" 
d="M551 1526v-260h-270v260h270zM967 1526v-260h-271v260h271zM633 1126q230 0 329 -86.5t99 -265.5v-774h-283l-24 217q-61 -121 -113 -194q-123 -43 -250 -43q-152 0 -240 84t-88 221q0 155 95 233.5t293 97.5l303 31v76q0 66 -40.5 93.5t-138.5 27.5q-154 3 -403 -41v278
q215 45 461 45zM754 252v205l-205 -19q-97 -9 -137.5 -34t-40.5 -82q0 -106 143 -109q44 0 117 12.5t123 26.5z" />
    <glyph glyph-name="aring" unicode="&#xe5;" horiz-adv-x="1196" 
d="M614 1239q-104 0 -160.5 21.5t-75 59t-18.5 103.5v21q0 65 18.5 102t75 58.5t160.5 21.5h21q104 0 160.5 -21.5t75 -58.5t18.5 -102v-21q0 -66 -18.5 -103.5t-75 -59t-160.5 -21.5h-21zM541 1444v-21q0 -35 14 -46t59 -11h21q44 0 58 11t14 46v21q0 35 -14 46t-58 11h-21
q-45 0 -59 -11t-14 -46zM633 1126q230 0 329 -86.5t99 -265.5v-774h-283l-24 217q-61 -121 -113 -194q-123 -43 -250 -43q-152 0 -240 84t-88 221q0 155 95 233.5t293 97.5l303 31v76q0 66 -40.5 93.5t-138.5 27.5q-154 3 -403 -41v278q215 45 461 45zM754 252v205l-205 -19
q-97 -9 -137.5 -34t-40.5 -82q0 -106 143 -109q44 0 117 12.5t123 26.5z" />
    <glyph glyph-name="ae" unicode="&#xe6;" horiz-adv-x="1892" 
d="M1798 573v-122h-737q3 -70 16.5 -112.5t45.5 -66t74.5 -31.5t113.5 -8h20q215 0 453 41v-249q-261 -45 -453 -45h-24q-225 0 -343 51.5t-167 175.5q-57 -115 -109 -184q-45 -16 -134.5 -29.5t-162.5 -13.5q-152 0 -240 84t-88 221q0 155 95 233.5t293 97.5l301 31v62
q0 67 -41.5 100.5t-137.5 34.5q-151 3 -403 -41v278q218 45 453 45q213 0 303 -110q104 110 340 110h20q106 0 182.5 -11t135 -39t95 -68t59 -104.5t31.5 -142.5t9 -188zM1266 883q-67 0 -103.5 -8t-61 -34.5t-32.5 -70.5t-10 -123h432q-2 79 -10 123t-32.5 70.5t-60.5 34.5
t-102 8h-20zM514 213q43 0 129.5 11t138.5 24q-25 89 -28 209l-205 -19q-97 -9 -137.5 -34t-40.5 -82q0 -106 143 -109z" />
    <glyph glyph-name="ccedilla" unicode="&#xe7;" horiz-adv-x="1214" 
d="M653 872q-52 0 -86.5 -3.5t-65 -14t-48 -28.5t-30 -49t-17.5 -73t-5 -102v-98q0 -90 11 -142t42.5 -81.5t75.5 -38.5t123 -9h21q232 0 452 41v-249q-205 -39 -407 -45v-58q93 0 151 -38t58 -120v-20q0 -90 -58.5 -137t-164.5 -47q-99 0 -183 24v86h62q133 0 133 74v20
q0 35 -33 53.5t-86 18.5v144q-151 4 -246 32.5t-153.5 95.5t-81.5 167t-23 257v41q0 163 24.5 265t89 169t168.5 93t271 26h27q210 0 452 -45v-250q-220 41 -452 41h-21z" />
    <glyph glyph-name="egrave" unicode="&#xe8;" horiz-adv-x="1234" 
d="M715 1249h-199l-274 342h309zM1141 573v-122h-738q3 -70 17 -112.5t46 -66t74 -31.5t113 -8h21q214 0 452 41v-249q-261 -45 -452 -45h-25q-168 0 -272.5 26t-169 92.5t-89 168.5t-24.5 265v41q0 110 9 188t31.5 142.5t59.5 104.5t95.5 68t135.5 39t183 11h21
q106 0 182.5 -11t135 -39t95 -68t59 -104.5t31.5 -142.5t9 -188zM608 883q-66 0 -102.5 -8t-61 -34.5t-33 -70.5t-10.5 -123h433q-2 79 -10 123t-32.5 70.5t-60.5 34.5t-102 8h-21z" />
    <glyph glyph-name="eacute" unicode="&#xe9;" horiz-adv-x="1234" 
d="M987 1591l-272 -342h-201l164 342h309zM1141 573v-122h-738q3 -70 17 -112.5t46 -66t74 -31.5t113 -8h21q214 0 452 41v-249q-261 -45 -452 -45h-25q-168 0 -272.5 26t-169 92.5t-89 168.5t-24.5 265v41q0 110 9 188t31.5 142.5t59.5 104.5t95.5 68t135.5 39t183 11h21
q106 0 182.5 -11t135 -39t95 -68t59 -104.5t31.5 -142.5t9 -188zM608 883q-66 0 -102.5 -8t-61 -34.5t-33 -70.5t-10.5 -123h433q-2 79 -10 123t-32.5 70.5t-60.5 34.5t-102 8h-21z" />
    <glyph glyph-name="ecircumflex" unicode="&#xea;" horiz-adv-x="1234" 
d="M614 1436l-147 -187h-201l195 342h309l195 -342h-201zM1141 573v-122h-738q3 -70 17 -112.5t46 -66t74 -31.5t113 -8h21q214 0 452 41v-249q-261 -45 -452 -45h-25q-168 0 -272.5 26t-169 92.5t-89 168.5t-24.5 265v41q0 110 9 188t31.5 142.5t59.5 104.5t95.5 68
t135.5 39t183 11h21q106 0 182.5 -11t135 -39t95 -68t59 -104.5t31.5 -142.5t9 -188zM608 883q-66 0 -102.5 -8t-61 -34.5t-33 -70.5t-10.5 -123h433q-2 79 -10 123t-32.5 70.5t-60.5 34.5t-102 8h-21z" />
    <glyph glyph-name="edieresis" unicode="&#xeb;" horiz-adv-x="1234" 
d="M543 1526v-260h-271v260h271zM958 1526v-260h-270v260h270zM1141 573v-122h-738q3 -70 17 -112.5t46 -66t74 -31.5t113 -8h21q214 0 452 41v-249q-261 -45 -452 -45h-25q-168 0 -272.5 26t-169 92.5t-89 168.5t-24.5 265v41q0 110 9 188t31.5 142.5t59.5 104.5t95.5 68
t135.5 39t183 11h21q106 0 182.5 -11t135 -39t95 -68t59 -104.5t31.5 -142.5t9 -188zM608 883q-66 0 -102.5 -8t-61 -34.5t-33 -70.5t-10.5 -123h433q-2 79 -10 123t-32.5 70.5t-60.5 34.5t-102 8h-21z" />
    <glyph glyph-name="igrave" unicode="&#xec;" horiz-adv-x="579" 
d="M389 1249h-199l-274 342h309zM442 0h-307v1106h307v-1106z" />
    <glyph glyph-name="iacute" unicode="&#xed;" horiz-adv-x="579" 
d="M190 1249l164 342h310l-273 -342h-201zM442 0h-307v1106h307v-1106z" />
    <glyph glyph-name="icircumflex" unicode="&#xee;" horiz-adv-x="579" 
d="M639 1249h-201l-149 187l-148 -187h-200l194 342h309zM442 0h-307v1106h307v-1106z" />
    <glyph glyph-name="idieresis" unicode="&#xef;" horiz-adv-x="579" 
d="M-53 1266v260h270v-260h-270zM362 1266v260h271v-260h-271zM442 0h-307v1106h307v-1106z" />
    <glyph glyph-name="eth" unicode="&#xf0;" 
d="M999 1538q147 -74 211 -245t64 -476v-49q0 -201 -29.5 -343.5t-97 -244.5t-181 -151t-278.5 -49h-41q-156 0 -265.5 35t-171.5 101.5t-89 151.5t-27 197v33q0 204 117.5 306.5t343.5 102.5q134 0 256 -55q14 -15 49.5 -49.5t62 -62.5t44.5 -54v180q0 221 -37.5 327
t-130.5 144l-234 -233l-112 113l147 147q-206 0 -434 -41v242q205 43 450 43q125 0 211 -17l213 213l113 -112zM694 223q152 0 212.5 103t60.5 317v2q-172 47 -293 47q-157 -1 -215 -52t-58 -157v-32q0 -228 252 -228h41z" />
    <glyph glyph-name="ntilde" unicode="&#xf1;" horiz-adv-x="1298" 
d="M305 1456q68 55 182 55q59 0 164.5 -29.5t173.5 -29.5q91 0 158 49v-205q-68 -55 -182 -55q-61 0 -166 31t-172 31q-92 0 -158 -52v205zM1161 0h-307v709q0 70 -36.5 102.5t-121.5 32.5q-110 0 -254 -37v-807h-307v1106h283l24 -268q70 140 148 245q42 16 114.5 29.5
t135.5 13.5q157 0 239 -81t82 -236v-809z" />
    <glyph glyph-name="ograve" unicode="&#xf2;" horiz-adv-x="1265" 
d="M733 1249h-198l-275 342h309zM612 -20q-108 0 -186.5 11t-137 38.5t-95.5 67.5t-59.5 104.5t-31 142.5t-8.5 188v41q0 110 8.5 187.5t31 142t59.5 105t95.5 68t137 39t186.5 11.5h41q109 0 187.5 -11.5t137 -39t95 -68t59 -105t31 -142t8.5 -187.5v-41q0 -110 -8.5 -188
t-31 -142.5t-59 -104.5t-95.5 -67.5t-137 -38.5t-187 -11h-41zM612 223h41q49 0 80.5 3.5t56.5 15.5t38.5 29t22 50t11 72t2.5 101v118q0 62 -2.5 101t-11 72t-22 50t-38.5 29t-56.5 15.5t-80.5 3.5h-41q-49 0 -80 -3.5t-56 -15.5t-38.5 -29t-22.5 -49.5t-11.5 -72
t-2.5 -101.5v-118q0 -62 2.5 -101.5t11.5 -72t22.5 -49.5t38.5 -29t56 -15.5t80 -3.5z" />
    <glyph glyph-name="oacute" unicode="&#xf3;" horiz-adv-x="1265" 
d="M532 1249l164 342h310l-273 -342h-201zM612 -20q-108 0 -186.5 11t-137 38.5t-95.5 67.5t-59.5 104.5t-31 142.5t-8.5 188v41q0 110 8.5 187.5t31 142t59.5 105t95.5 68t137 39t186.5 11.5h41q109 0 187.5 -11.5t137 -39t95 -68t59 -105t31 -142t8.5 -187.5v-41
q0 -110 -8.5 -188t-31 -142.5t-59 -104.5t-95.5 -67.5t-137 -38.5t-187 -11h-41zM612 223h41q49 0 80.5 3.5t56.5 15.5t38.5 29t22 50t11 72t2.5 101v118q0 62 -2.5 101t-11 72t-22 50t-38.5 29t-56.5 15.5t-80.5 3.5h-41q-49 0 -80 -3.5t-56 -15.5t-38.5 -29t-22.5 -49.5
t-11.5 -72t-2.5 -101.5v-118q0 -62 2.5 -101.5t11.5 -72t22.5 -49.5t38.5 -29t56 -15.5t80 -3.5z" />
    <glyph glyph-name="ocircumflex" unicode="&#xf4;" horiz-adv-x="1265" 
d="M983 1249h-201l-149 187l-148 -187h-200l194 342h309zM612 -20q-108 0 -186.5 11t-137 38.5t-95.5 67.5t-59.5 104.5t-31 142.5t-8.5 188v41q0 110 8.5 187.5t31 142t59.5 105t95.5 68t137 39t186.5 11.5h41q109 0 187.5 -11.5t137 -39t95 -68t59 -105t31 -142
t8.5 -187.5v-41q0 -110 -8.5 -188t-31 -142.5t-59 -104.5t-95.5 -67.5t-137 -38.5t-187 -11h-41zM612 223h41q49 0 80.5 3.5t56.5 15.5t38.5 29t22 50t11 72t2.5 101v118q0 62 -2.5 101t-11 72t-22 50t-38.5 29t-56.5 15.5t-80.5 3.5h-41q-49 0 -80 -3.5t-56 -15.5
t-38.5 -29t-22.5 -49.5t-11.5 -72t-2.5 -101.5v-118q0 -62 2.5 -101.5t11.5 -72t22.5 -49.5t38.5 -29t56 -15.5t80 -3.5z" />
    <glyph glyph-name="otilde" unicode="&#xf5;" horiz-adv-x="1265" 
d="M295 1456q68 55 182 55q59 0 164.5 -29.5t173.5 -29.5q91 0 158 49v-205q-68 -55 -182 -55q-61 0 -166 31t-172 31q-92 0 -158 -52v205zM612 -20q-108 0 -186.5 11t-137 38.5t-95.5 67.5t-59.5 104.5t-31 142.5t-8.5 188v41q0 110 8.5 187.5t31 142t59.5 105t95.5 68
t137 39t186.5 11.5h41q109 0 187.5 -11.5t137 -39t95 -68t59 -105t31 -142t8.5 -187.5v-41q0 -110 -8.5 -188t-31 -142.5t-59 -104.5t-95.5 -67.5t-137 -38.5t-187 -11h-41zM612 223h41q49 0 80.5 3.5t56.5 15.5t38.5 29t22 50t11 72t2.5 101v118q0 62 -2.5 101t-11 72
t-22 50t-38.5 29t-56.5 15.5t-80.5 3.5h-41q-49 0 -80 -3.5t-56 -15.5t-38.5 -29t-22.5 -49.5t-11.5 -72t-2.5 -101.5v-118q0 -62 2.5 -101.5t11.5 -72t22.5 -49.5t38.5 -29t56 -15.5t80 -3.5z" />
    <glyph glyph-name="odieresis" unicode="&#xf6;" horiz-adv-x="1265" 
d="M289 1266v260h270v-260h-270zM705 1266v260h270v-260h-270zM612 -20q-108 0 -186.5 11t-137 38.5t-95.5 67.5t-59.5 104.5t-31 142.5t-8.5 188v41q0 110 8.5 187.5t31 142t59.5 105t95.5 68t137 39t186.5 11.5h41q109 0 187.5 -11.5t137 -39t95 -68t59 -105t31 -142
t8.5 -187.5v-41q0 -110 -8.5 -188t-31 -142.5t-59 -104.5t-95.5 -67.5t-137 -38.5t-187 -11h-41zM612 223h41q49 0 80.5 3.5t56.5 15.5t38.5 29t22 50t11 72t2.5 101v118q0 62 -2.5 101t-11 72t-22 50t-38.5 29t-56.5 15.5t-80.5 3.5h-41q-49 0 -80 -3.5t-56 -15.5
t-38.5 -29t-22.5 -49.5t-11.5 -72t-2.5 -101.5v-118q0 -62 2.5 -101.5t11.5 -72t22.5 -49.5t38.5 -29t56 -15.5t80 -3.5z" />
    <glyph glyph-name="divide" unicode="&#xf7;" horiz-adv-x="1073" 
d="M356 961v260h359v-260h-359zM84 612v209h905v-209h-905zM356 213v260h359v-260h-359z" />
    <glyph glyph-name="oslash" unicode="&#xf8;" horiz-adv-x="1265" 
d="M1024 1051q83 -56 115 -168.5t32 -309.5v-41q0 -110 -8.5 -188t-31 -142.5t-59 -104.5t-95.5 -67.5t-137 -38.5t-187 -11h-41q-121 0 -219 16l-71 -119h-187l107 178q-83 58 -115.5 169.5t-32.5 307.5v41q0 110 8.5 188t31 142.5t59.5 104.5t95.5 68t137 39t186.5 11h41
q129 0 221 -18l72 121h184zM401 494q0 -104 11 -158l323 543q-46 4 -82 4h-41q-49 0 -80.5 -3.5t-56.5 -15.5t-38.5 -29t-22 -50t-11 -72t-2.5 -101v-118zM864 494v118q0 107 -10 156l-324 -541q46 -4 82 -4h41q49 0 80 3.5t56 15.5t38.5 29t22.5 49.5t11.5 72t2.5 101.5z
" />
    <glyph glyph-name="ugrave" unicode="&#xf9;" horiz-adv-x="1298" 
d="M748 1249h-199l-275 342h310zM459 -20q-158 0 -241 81t-83 236v809h307v-727q0 -70 37 -102.5t123 -32.5q108 0 252 37v825h307v-1106h-282l-25 252q-81 -147 -145 -229q-41 -16 -114.5 -29.5t-135.5 -13.5z" />
    <glyph glyph-name="uacute" unicode="&#xfa;" horiz-adv-x="1298" 
d="M549 1249l164 342h309l-272 -342h-201zM459 -20q-158 0 -241 81t-83 236v809h307v-727q0 -70 37 -102.5t123 -32.5q108 0 252 37v825h307v-1106h-282l-25 252q-81 -147 -145 -229q-41 -16 -114.5 -29.5t-135.5 -13.5z" />
    <glyph glyph-name="ucircumflex" unicode="&#xfb;" horiz-adv-x="1298" 
d="M997 1249h-200l-150 187l-147 -187h-201l195 342h309zM459 -20q-158 0 -241 81t-83 236v809h307v-727q0 -70 37 -102.5t123 -32.5q108 0 252 37v825h307v-1106h-282l-25 252q-81 -147 -145 -229q-41 -16 -114.5 -29.5t-135.5 -13.5z" />
    <glyph glyph-name="udieresis" unicode="&#xfc;" horiz-adv-x="1298" 
d="M305 1266v260h270v-260h-270zM721 1266v260h270v-260h-270zM459 -20q-158 0 -241 81t-83 236v809h307v-727q0 -70 37 -102.5t123 -32.5q108 0 252 37v825h307v-1106h-282l-25 252q-81 -147 -145 -229q-41 -16 -114.5 -29.5t-135.5 -13.5z" />
    <glyph glyph-name="yacute" unicode="&#xfd;" horiz-adv-x="1253" 
d="M1018 1591l-273 -342h-200l164 342h309zM920 1106h303l-396 -1106q-39 -109 -90.5 -186.5t-112 -127t-144.5 -77.5t-175 -38.5t-215 -10.5v243q105 0 171 7.5t126 31.5t99 69t69 118h-133l-389 1077h311l291 -838z" />
    <glyph glyph-name="thorn" unicode="&#xfe;" horiz-adv-x="1298" 
d="M805 1126q210 0 304.5 -121.5t94.5 -410.5v-82q0 -194 -47.5 -312t-139.5 -169t-239 -51q-120 0 -217 43q-66 101 -119 219v-662h-307v2007h307v-723q66 126 138 219q110 43 225 43zM897 502v102q0 162 -42.5 215t-170.5 53q-108 3 -242 -38v-562q138 -42 242 -39
q127 0 170 54.5t43 214.5z" />
    <glyph glyph-name="ydieresis" unicode="&#xff;" horiz-adv-x="1253" 
d="M571 1526v-260h-270v260h270zM987 1526v-260h-270v260h270zM920 1106h303l-396 -1106q-39 -109 -90.5 -186.5t-112 -127t-144.5 -77.5t-175 -38.5t-215 -10.5v243q105 0 171 7.5t126 31.5t99 69t69 118h-133l-389 1077h311l291 -838z" />
    <glyph glyph-name="Amacron" unicode="&#x100;" 
d="M961 1829v-209h-596v209h596zM1024 0l-113 354h-487l-105 -354h-288l438 1440h395l473 -1440h-313zM496 598h338l-177 557z" />
    <glyph glyph-name="amacron" unicode="&#x101;" horiz-adv-x="1196" 
d="M922 1501v-209h-596v209h596zM633 1126q230 0 329 -86.5t99 -265.5v-774h-283l-24 217q-61 -121 -113 -194q-123 -43 -250 -43q-152 0 -240 84t-88 221q0 155 95 233.5t293 97.5l303 31v76q0 66 -40.5 93.5t-138.5 27.5q-154 3 -403 -41v278q215 45 461 45zM754 252v205
l-205 -19q-97 -9 -137.5 -34t-40.5 -82q0 -106 143 -109q44 0 117 12.5t123 26.5z" />
    <glyph glyph-name="Abreve" unicode="&#x102;" 
d="M653 1589q-179 0 -247 74t-68 256h184q0 -101 28.5 -138.5t102.5 -37.5h21q73 0 101 38t28 138h184q0 -182 -67.5 -256t-245.5 -74h-21zM1024 0l-113 354h-487l-105 -354h-288l438 1440h395l473 -1440h-313zM496 598h338l-177 557z" />
    <glyph glyph-name="abreve" unicode="&#x103;" horiz-adv-x="1196" 
d="M614 1262q-179 0 -247 74t-68 255h184q0 -101 28.5 -138.5t102.5 -37.5h21q73 0 101 38t28 138h184q0 -182 -67.5 -255.5t-245.5 -73.5h-21zM633 1126q230 0 329 -86.5t99 -265.5v-774h-283l-24 217q-61 -121 -113 -194q-123 -43 -250 -43q-152 0 -240 84t-88 221
q0 155 95 233.5t293 97.5l303 31v76q0 66 -40.5 93.5t-138.5 27.5q-154 3 -403 -41v278q215 45 461 45zM754 252v205l-205 -19q-97 -9 -137.5 -34t-40.5 -82q0 -106 143 -109q44 0 117 12.5t123 26.5z" />
    <glyph glyph-name="Aogonek" unicode="&#x104;" 
d="M1122 -231q0 -99 133 -99h62v-86q-84 -24 -182 -24q-106 0 -165 47t-59 137v20q0 169 275 236h-162l-113 354h-487l-105 -354h-288l438 1440h395l473 -1440q-109 -44 -162 -94.5t-53 -116.5v-20zM496 598h338l-177 557z" />
    <glyph glyph-name="aogonek" unicode="&#x105;" horiz-adv-x="1196" 
d="M1061 0q-109 -44 -162 -94.5t-53 -116.5v-20q0 -99 133 -99h61v-86q-84 -24 -182 -24q-106 0 -164.5 47t-58.5 137v20q0 169 274 236h-131l-24 217q-61 -121 -113 -194q-123 -43 -250 -43q-152 0 -240 84t-88 221q0 155 95 233.5t293 97.5l303 31v76q0 66 -40.5 93.5
t-138.5 27.5q-154 3 -403 -41v278q215 45 461 45q230 0 329 -86.5t99 -265.5v-774zM754 252v205l-205 -19q-97 -9 -137.5 -34t-40.5 -82q0 -106 143 -109q44 0 117 12.5t123 26.5z" />
    <glyph glyph-name="Cacute" unicode="&#x106;" horiz-adv-x="1361" 
d="M637 1577l164 342h309l-272 -342h-201zM735 -20q-122 0 -209.5 12.5t-161 43.5t-120.5 82.5t-79.5 132.5t-46.5 189t-14 256v41q0 148 14 256t46.5 189t79.5 132.5t120.5 83t161 44t209.5 12.5h41q229 0 498 -61v-248q-258 65 -498 65h-41q-125 0 -192 -31.5t-99 -115
t-32 -240.5v-213q0 -157 32 -240.5t99 -115t192 -31.5h41q236 0 498 66v-248q-269 -61 -498 -61h-41z" />
    <glyph glyph-name="cacute" unicode="&#x107;" horiz-adv-x="1214" 
d="M559 1249l164 342h309l-272 -342h-201zM653 872q-52 0 -86.5 -3.5t-65 -14t-48 -28.5t-30 -49t-17.5 -73t-5 -102v-98q0 -90 11 -142t42.5 -81.5t75.5 -38.5t123 -9h21q232 0 452 41v-249q-242 -45 -452 -45h-27q-167 0 -271 26t-168.5 92.5t-89 168.5t-24.5 265v41
q0 163 24.5 265t89 169t168.5 93t271 26h27q210 0 452 -45v-250q-220 41 -452 41h-21z" />
    <glyph glyph-name="Cdotaccent" unicode="&#x10a;" horiz-adv-x="1361" 
d="M557 1593v260h358v-260h-358zM735 -20q-122 0 -209.5 12.5t-161 43.5t-120.5 82.5t-79.5 132.5t-46.5 189t-14 256v41q0 148 14 256t46.5 189t79.5 132.5t120.5 83t161 44t209.5 12.5h41q229 0 498 -61v-248q-258 65 -498 65h-41q-125 0 -192 -31.5t-99 -115t-32 -240.5
v-213q0 -157 32 -240.5t99 -115t192 -31.5h41q236 0 498 66v-248q-269 -61 -498 -61h-41z" />
    <glyph glyph-name="cdotaccent" unicode="&#x10b;" horiz-adv-x="1214" 
d="M479 1266v260h359v-260h-359zM653 872q-52 0 -86.5 -3.5t-65 -14t-48 -28.5t-30 -49t-17.5 -73t-5 -102v-98q0 -90 11 -142t42.5 -81.5t75.5 -38.5t123 -9h21q232 0 452 41v-249q-242 -45 -452 -45h-27q-167 0 -271 26t-168.5 92.5t-89 168.5t-24.5 265v41
q0 163 24.5 265t89 169t168.5 93t271 26h27q210 0 452 -45v-250q-220 41 -452 41h-21z" />
    <glyph glyph-name="Ccaron" unicode="&#x10c;" horiz-adv-x="1361" 
d="M1085 1919l-194 -342h-309l-195 342h201l147 -184l150 184h200zM735 -20q-122 0 -209.5 12.5t-161 43.5t-120.5 82.5t-79.5 132.5t-46.5 189t-14 256v41q0 148 14 256t46.5 189t79.5 132.5t120.5 83t161 44t209.5 12.5h41q229 0 498 -61v-248q-258 65 -498 65h-41
q-125 0 -192 -31.5t-99 -115t-32 -240.5v-213q0 -157 32 -240.5t99 -115t192 -31.5h41q236 0 498 66v-248q-269 -61 -498 -61h-41z" />
    <glyph glyph-name="ccaron" unicode="&#x10d;" horiz-adv-x="1214" 
d="M1008 1591l-195 -342h-309l-195 342h201l147 -184l150 184h201zM653 872q-52 0 -86.5 -3.5t-65 -14t-48 -28.5t-30 -49t-17.5 -73t-5 -102v-98q0 -90 11 -142t42.5 -81.5t75.5 -38.5t123 -9h21q232 0 452 41v-249q-242 -45 -452 -45h-27q-167 0 -271 26t-168.5 92.5
t-89 168.5t-24.5 265v41q0 163 24.5 265t89 169t168.5 93t271 26h27q210 0 452 -45v-250q-220 41 -452 41h-21z" />
    <glyph glyph-name="Dcaron" unicode="&#x10e;" horiz-adv-x="1470" 
d="M850 1577h-309l-195 342h201l147 -184l150 184h200zM756 1434q125 0 214.5 -13.5t159.5 -47t114 -84t72 -131t39 -181t11 -240.5v-41q0 -140 -11 -240.5t-39 -181t-72 -130.5t-114 -83.5t-159.5 -47t-214.5 -13.5h-611v1434h611zM1059 618v197q0 116 -13 186t-49 114
t-92 59.5t-149 15.5h-303v-946h303q124 0 187 31.5t89.5 110t26.5 232.5z" />
    <glyph glyph-name="dcaron" unicode="&#x10f;" horiz-adv-x="1347" 
d="M1534 1597v-206l-121 -222h-170l107 222h-86v206h270zM1161 0h-282l-25 242q-63 -125 -135 -219q-114 -43 -225 -43q-211 0 -305.5 121.5t-94.5 410.5v82q0 287 102.5 409.5t321.5 122.5q118 0 219 -43q59 -91 117 -219v723h307v-1587zM612 233q110 -3 242 39v562
q-120 38 -242 38q-126 0 -168.5 -54t-42.5 -214v-102q0 -111 18.5 -167t62 -78.5t130.5 -23.5z" />
    <glyph glyph-name="Dcroat" unicode="&#x110;" horiz-adv-x="1470" 
d="M756 1434q125 0 215 -13.5t159.5 -47.5t113.5 -84.5t72 -131t39 -180.5t11 -240v-41q0 -140 -11 -240.5t-39 -181t-72 -130.5t-114 -83.5t-159.5 -47t-214.5 -13.5h-611v625h-145v184h145v625h611zM1059 618v197q0 94 -8.5 156t-28 106.5t-56 68t-86 34t-124.5 10.5h-303
v-381h344v-184h-344v-381h303q94 0 150 15t92 58.5t48.5 113.5t12.5 187z" />
    <glyph glyph-name="dcroat" unicode="&#x111;" horiz-adv-x="1298" 
d="M1298 1434v-205h-137v-1229h-282l-25 242q-63 -125 -135 -219q-114 -43 -225 -43q-211 0 -305.5 121.5t-94.5 410.5v82q0 287 102.5 409.5t321.5 122.5q118 0 219 -43q59 -91 117 -219v365h-258v205h258v153h307v-153h137zM854 272v562q-120 38 -242 38
q-126 0 -168.5 -54t-42.5 -214v-102q0 -111 18.5 -167t62 -78.5t130.5 -23.5q110 -3 242 39z" />
    <glyph glyph-name="Emacron" unicode="&#x112;" horiz-adv-x="1327" 
d="M922 1829v-209h-596v209h596zM1239 1190h-786v-348h594v-244h-594v-354h786v-244h-1094v1434h1094v-244z" />
    <glyph glyph-name="emacron" unicode="&#x113;" horiz-adv-x="1234" 
d="M913 1501v-209h-596v209h596zM1141 573v-122h-738q3 -70 17 -112.5t46 -66t74 -31.5t113 -8h21q214 0 452 41v-249q-261 -45 -452 -45h-25q-168 0 -272.5 26t-169 92.5t-89 168.5t-24.5 265v41q0 110 9 188t31.5 142.5t59.5 104.5t95.5 68t135.5 39t183 11h21
q106 0 182.5 -11t135 -39t95 -68t59 -104.5t31.5 -142.5t9 -188zM608 883q-66 0 -102.5 -8t-61 -34.5t-33 -70.5t-10.5 -123h433q-2 79 -10 123t-32.5 70.5t-60.5 34.5t-102 8h-21z" />
    <glyph glyph-name="Edotaccent" unicode="&#x116;" horiz-adv-x="1327" 
d="M801 1853v-260h-359v260h359zM1239 1190h-786v-348h594v-244h-594v-354h786v-244h-1094v1434h1094v-244z" />
    <glyph glyph-name="edotaccent" unicode="&#x117;" horiz-adv-x="1234" 
d="M795 1526v-260h-359v260h359zM1141 573v-122h-738q3 -70 17 -112.5t46 -66t74 -31.5t113 -8h21q214 0 452 41v-249q-261 -45 -452 -45h-25q-168 0 -272.5 26t-169 92.5t-89 168.5t-24.5 265v41q0 110 9 188t31.5 142.5t59.5 104.5t95.5 68t135.5 39t183 11h21
q106 0 182.5 -11t135 -39t95 -68t59 -104.5t31.5 -142.5t9 -188zM608 883q-66 0 -102.5 -8t-61 -34.5t-33 -70.5t-10.5 -123h433q-2 79 -10 123t-32.5 70.5t-60.5 34.5t-102 8h-21z" />
    <glyph glyph-name="Eogonek" unicode="&#x118;" horiz-adv-x="1327" 
d="M1239 1190h-786v-348h594v-244h-594v-354h786v-244q-109 -44 -162 -94.5t-53 -116.5v-20q0 -99 133 -99h62v-86q-84 -24 -183 -24q-106 0 -164.5 47t-58.5 137v20q0 169 274 236h-942v1434h1094v-244z" />
    <glyph glyph-name="eogonek" unicode="&#x119;" horiz-adv-x="1234" 
d="M1141 573v-122h-738q3 -70 17 -112.5t46 -66t74 -31.5t113 -8h21q214 0 452 41v-249q-109 -44 -162 -94.5t-53 -116.5v-21q0 -98 133 -98h62v-86q-88 -25 -182 -25q-106 0 -165 47.5t-59 137.5v20q0 128 164 201q-105 -10 -190 -10h-25q-168 0 -272.5 26t-169 92.5
t-89 168.5t-24.5 265v41q0 110 9 188t31.5 142.5t59.5 104.5t95.5 68t135.5 39t183 11h21q106 0 182.5 -11t135 -39t95 -68t59 -104.5t31.5 -142.5t9 -188zM608 883q-66 0 -102.5 -8t-61 -34.5t-33 -70.5t-10.5 -123h433q-2 79 -10 123t-32.5 70.5t-60.5 34.5t-102 8h-21z
" />
    <glyph glyph-name="Ecaron" unicode="&#x11a;" horiz-adv-x="1327" 
d="M778 1577h-309l-195 342h201l148 -184l149 184h201zM1239 1190h-786v-348h594v-244h-594v-354h786v-244h-1094v1434h1094v-244z" />
    <glyph glyph-name="ecaron" unicode="&#x11b;" horiz-adv-x="1234" 
d="M770 1249h-309l-195 342h201l147 -184l150 184h201zM1141 573v-122h-738q3 -70 17 -112.5t46 -66t74 -31.5t113 -8h21q214 0 452 41v-249q-261 -45 -452 -45h-25q-168 0 -272.5 26t-169 92.5t-89 168.5t-24.5 265v41q0 110 9 188t31.5 142.5t59.5 104.5t95.5 68t135.5 39
t183 11h21q106 0 182.5 -11t135 -39t95 -68t59 -104.5t31.5 -142.5t9 -188zM608 883q-66 0 -102.5 -8t-61 -34.5t-33 -70.5t-10.5 -123h433q-2 79 -10 123t-32.5 70.5t-60.5 34.5t-102 8h-21z" />
    <glyph glyph-name="Gbreve" unicode="&#x11e;" horiz-adv-x="1421" 
d="M737 1589q-179 0 -247 74t-68 256h184q0 -101 28.5 -138.5t102.5 -37.5h21q73 0 101 38t28 138h184q0 -182 -67.5 -256t-245.5 -74h-21zM735 1210q-125 0 -192 -31.5t-99 -115t-32 -240.5v-213q0 -157 32 -240.5t99 -115t192 -31.5h41q104 0 211 17v505h287v-704
q-269 -61 -498 -61h-41q-122 0 -209.5 12.5t-161 43.5t-120.5 82.5t-79.5 132.5t-46.5 189t-14 256v41q0 148 14 256t46.5 189t79.5 132.5t120.5 83t161 44t209.5 12.5h41q229 0 498 -61v-248q-258 65 -498 65h-41z" />
    <glyph glyph-name="gbreve" unicode="&#x11f;" horiz-adv-x="1298" 
d="M655 1262q-179 0 -247 74t-68 255h184q0 -101 28.5 -138.5t102.5 -37.5h21q73 0 101 38t28 138h184q0 -182 -67.5 -255.5t-245.5 -73.5h-21zM879 1106h282v-995q0 -163 -24.5 -265t-89 -169t-169.5 -93t-272 -26h-24q-222 0 -443 36v238q215 -31 443 -31h20
q78 0 122.5 9.5t76 39t42.5 81.5t11 141v188q-66 -131 -135 -217q-104 -45 -225 -45q-210 0 -305 121t-95 403v82q0 280 102.5 401t321.5 121q118 0 219 -43q59 -91 117 -219zM612 244q103 -3 242 37v544q-130 37 -242 37q-126 0 -168.5 -54t-42.5 -214v-82q0 -84 9 -133.5
t34 -80.5t63.5 -42t104.5 -12z" />
    <glyph glyph-name="Gdotaccent" unicode="&#x120;" horiz-adv-x="1421" 
d="M926 1853v-260h-359v260h359zM735 1210q-125 0 -192 -31.5t-99 -115t-32 -240.5v-213q0 -157 32 -240.5t99 -115t192 -31.5h41q104 0 211 17v505h287v-704q-269 -61 -498 -61h-41q-122 0 -209.5 12.5t-161 43.5t-120.5 82.5t-79.5 132.5t-46.5 189t-14 256v41
q0 148 14 256t46.5 189t79.5 132.5t120.5 83t161 44t209.5 12.5h41q229 0 498 -61v-248q-258 65 -498 65h-41z" />
    <glyph glyph-name="gdotaccent" unicode="&#x121;" horiz-adv-x="1298" 
d="M485 1266v260h359v-260h-359zM879 1106h282v-995q0 -163 -24.5 -265t-89 -169t-169.5 -93t-272 -26h-24q-222 0 -443 36v238q215 -31 443 -31h20q78 0 122.5 9.5t76 39t42.5 81.5t11 141v188q-66 -131 -135 -217q-104 -45 -225 -45q-210 0 -305 121t-95 403v82
q0 280 102.5 401t321.5 121q118 0 219 -43q59 -91 117 -219zM612 244q103 -3 242 37v544q-130 37 -242 37q-126 0 -168.5 -54t-42.5 -214v-82q0 -84 9 -133.5t34 -80.5t63.5 -42t104.5 -12z" />
    <glyph glyph-name="uni0122" unicode="&#x122;" horiz-adv-x="1421" 
d="M735 1210q-125 0 -192 -31.5t-99 -115t-32 -240.5v-213q0 -157 32 -240.5t99 -115t192 -31.5h41q104 0 211 17v505h287v-704q-269 -61 -498 -61h-41q-122 0 -209.5 12.5t-161 43.5t-120.5 82.5t-79.5 132.5t-46.5 189t-14 256v41q0 148 14 256t46.5 189t79.5 132.5
t120.5 83t161 44t209.5 12.5h41q229 0 498 -61v-248q-258 65 -498 65h-41zM621 -356v206h270v-206l-121 -219h-170l107 219h-86z" />
    <glyph glyph-name="uni0123" unicode="&#x123;" horiz-adv-x="1298" 
d="M520 1255v207l121 219h170l-106 -219h86v-207h-271zM879 1106h282v-995q0 -163 -24.5 -265t-89 -169t-169.5 -93t-272 -26h-24q-222 0 -443 36v238q215 -31 443 -31h20q78 0 122.5 9.5t76 39t42.5 81.5t11 141v188q-66 -131 -135 -217q-104 -45 -225 -45q-210 0 -305 121
t-95 403v82q0 280 102.5 401t321.5 121q118 0 219 -43q59 -91 117 -219zM612 244q103 -3 242 37v544q-130 37 -242 37q-126 0 -168.5 -54t-42.5 -214v-82q0 -84 9 -133.5t34 -80.5t63.5 -42t104.5 -12z" />
    <glyph glyph-name="Hbar" unicode="&#x126;" horiz-adv-x="1470" 
d="M1470 1235v-182h-145v-1053h-307v598h-565v-598h-308v1053h-145v182h145v199h308v-199h565v199h307v-199h145zM1018 842v211h-565v-211h565z" />
    <glyph glyph-name="hbar" unicode="&#x127;" horiz-adv-x="1298" 
d="M840 1126q157 0 239 -81t82 -236v-809h-307v709q0 70 -36.5 102.5t-121.5 32.5q-102 0 -254 -39v-805h-307v1229h-135v205h135v153h307v-153h260v-205h-260v-393q68 140 148 247q42 16 114.5 29.5t135.5 13.5z" />
    <glyph glyph-name="Imacron" unicode="&#x12a;" horiz-adv-x="598" 
d="M2 1620v209h596v-209h-596zM145 0v1434h308v-1434h-308z" />
    <glyph glyph-name="imacron" unicode="&#x12b;" horiz-adv-x="579" 
d="M-8 1292v209h596v-209h-596zM442 0h-307v1106h307v-1106z" />
    <glyph glyph-name="Iogonek" unicode="&#x12e;" horiz-adv-x="598" 
d="M453 0q-109 -44 -162 -94.5t-53 -116.5v-20q0 -99 133 -99h61v-86q-84 -24 -182 -24q-106 0 -164.5 47t-58.5 137v20q0 169 274 236h-156v1434h308v-1434z" />
    <glyph glyph-name="iogonek" unicode="&#x12f;" horiz-adv-x="579" 
d="M111 1526h358v-260h-358v260zM444 0q-109 -44 -162 -94.5t-53 -116.5v-20q0 -99 133 -99h62v-86q-84 -24 -182 -24q-106 0 -165 47t-59 137v20q0 169 275 236h-158v1106h307v-1106h2z" />
    <glyph glyph-name="Idotaccent" unicode="&#x130;" horiz-adv-x="598" 
d="M121 1593v260h358v-260h-358zM145 0v1434h308v-1434h-308z" />
    <glyph glyph-name="dotlessi" unicode="&#x131;" horiz-adv-x="579" 
d="M442 0h-307v1106h307v-1106z" />
    <glyph glyph-name="uni0136" unicode="&#x136;" horiz-adv-x="1372" 
d="M893 737l448 -737h-348l-362 606h-178v-606h-308v1434h308v-603h190l369 603h313zM561 -356v206h270v-206l-120 -219h-170l106 219h-86z" />
    <glyph glyph-name="uni0137" unicode="&#x137;" horiz-adv-x="1239" 
d="M829 584l379 -584h-340l-297 465h-129v-465h-307v1587h307v-932h131l306 451h313zM471 -356v206h270v-206l-120 -219h-170l106 219h-86z" />
    <glyph glyph-name="Lacute" unicode="&#x139;" horiz-adv-x="1228" 
d="M692 1919l-272 -342h-201l164 342h309zM453 244h745v-244h-1053v1434h308v-1190z" />
    <glyph glyph-name="lacute" unicode="&#x13a;" horiz-adv-x="579" 
d="M184 1731l164 342h309l-272 -342h-201zM442 0h-307v1587h307v-1587z" />
    <glyph glyph-name="uni013B" unicode="&#x13b;" horiz-adv-x="1228" 
d="M453 244h745v-244h-1053v1434h308v-1190zM504 -356v206h270v-206l-121 -219h-170l107 219h-86z" />
    <glyph glyph-name="uni013C" unicode="&#x13c;" horiz-adv-x="579" 
d="M442 0h-307v1587h307v-1587zM430 -150v-206l-121 -219h-170l107 219h-86v206h270z" />
    <glyph glyph-name="Lcaron" unicode="&#x13d;" horiz-adv-x="1228" 
d="M453 244h745v-244h-1053v1434h308v-1190zM745 1008h-170l107 219h-86v207h272v-207z" />
    <glyph glyph-name="lcaron" unicode="&#x13e;" horiz-adv-x="630" 
d="M524 1169l109 222h-88v206h272v-206l-123 -222h-170zM442 0h-307v1587h307v-1587z" />
    <glyph glyph-name="Ldot" unicode="&#x13f;" horiz-adv-x="1310" 
d="M453 244h745v-244h-1053v1434h308v-1190zM1024 913v-280h-289v280h289z" />
    <glyph glyph-name="ldot" unicode="&#x140;" horiz-adv-x="868" 
d="M442 0h-307v1587h307v-1587zM578 633v280h290v-280h-290z" />
    <glyph glyph-name="Lslash" unicode="&#x141;" horiz-adv-x="1228" 
d="M453 244h743v-244h-1051v588l-145 -43v182l145 43v664h308v-574l247 72v-182l-247 -72v-434z" />
    <glyph glyph-name="lslash" unicode="&#x142;" horiz-adv-x="659" 
d="M639 981v-205l-156 -47v-729h-307v639l-156 -47v205l156 47v743h307v-653z" />
    <glyph glyph-name="Nacute" unicode="&#x143;" horiz-adv-x="1490" 
d="M1108 1919l-272 -342h-201l164 342h309zM1092 1434h254v-1434h-330l-617 993v-993h-254v1434h330l617 -994v994z" />
    <glyph glyph-name="nacute" unicode="&#x144;" horiz-adv-x="1298" 
d="M545 1249l164 342h309l-273 -342h-200zM1161 0h-307v709q0 70 -36.5 102.5t-121.5 32.5q-110 0 -254 -37v-807h-307v1106h283l24 -268q70 140 148 245q42 16 114.5 29.5t135.5 13.5q157 0 239 -81t82 -236v-809z" />
    <glyph glyph-name="uni0145" unicode="&#x145;" horiz-adv-x="1490" 
d="M1092 1434h254v-1434h-330l-617 993v-993h-254v1434h330l617 -994v994zM610 -356v206h271v-206l-121 -219h-170l106 219h-86z" />
    <glyph glyph-name="uni0146" unicode="&#x146;" horiz-adv-x="1298" 
d="M1161 0h-307v709q0 70 -36.5 102.5t-121.5 32.5q-110 0 -254 -37v-807h-307v1106h283l24 -268q70 140 148 245q42 16 114.5 29.5t135.5 13.5q157 0 239 -81t82 -236v-809zM788 -150v-206l-120 -219h-170l106 219h-86v206h270z" />
    <glyph glyph-name="Ncaron" unicode="&#x147;" horiz-adv-x="1490" 
d="M891 1577h-309l-195 342h201l147 -184l150 184h200zM1092 1434h254v-1434h-330l-617 993v-993h-254v1434h330l617 -994v994z" />
    <glyph glyph-name="ncaron" unicode="&#x148;" horiz-adv-x="1298" 
d="M993 1591l-194 -342h-310l-194 342h201l147 -184l150 184h200zM1161 0h-307v709q0 70 -36.5 102.5t-121.5 32.5q-110 0 -254 -37v-807h-307v1106h283l24 -268q70 140 148 245q42 16 114.5 29.5t135.5 13.5q157 0 239 -81t82 -236v-809z" />
    <glyph glyph-name="Eng" unicode="&#x14a;" horiz-adv-x="1490" 
d="M1092 1434h254v-1434q0 -248 -110.5 -344t-383.5 -96h-39v243h59q116 0 156.5 27.5t46.5 126.5l-676 1055v-1012h-254v1434h330l617 -975v975z" />
    <glyph glyph-name="eng" unicode="&#x14b;" horiz-adv-x="1298" 
d="M840 1126q157 0 239 -81t82 -236v-791q0 -137 -27.5 -225.5t-92 -140.5t-157 -72t-235.5 -20h-59v243h59q45 0 72.5 2.5t53 10t39 20.5t23.5 36t13.5 54.5t3.5 77.5v705q0 70 -36.5 102.5t-121.5 32.5q-110 0 -254 -37v-807h-307v1106h283l24 -268q70 140 148 245
q42 16 114.5 29.5t135.5 13.5z" />
    <glyph glyph-name="Omacron" unicode="&#x14c;" horiz-adv-x="1470" 
d="M438 1620v209h596v-209h-596zM715 -20q-94 0 -166 6.5t-134.5 23.5t-107 42.5t-80.5 66.5t-58.5 93.5t-37.5 125.5t-21 159.5t-6 198.5v41q0 145 11 249t39.5 186.5t72 134.5t114 86t160 47.5t214.5 13.5h41q125 0 214.5 -13.5t159.5 -47.5t114 -86t72 -134.5t39 -186.5
t11 -249v-41q0 -145 -11 -249t-39 -186.5t-72 -134t-114 -85.5t-159.5 -47.5t-214.5 -13.5h-41zM715 223h41q75 0 124 10.5t85.5 35t56 70.5t28.5 110t9 161v213q0 97 -9 161t-28.5 110t-56 70.5t-85.5 35t-124 10.5h-41q-94 0 -150 -16t-92 -61t-48.5 -117t-12.5 -193v-213
q0 -121 12.5 -193t48.5 -117t92 -61t150 -16z" />
    <glyph glyph-name="omacron" unicode="&#x14d;" horiz-adv-x="1265" 
d="M336 1292v209h596v-209h-596zM612 -20q-108 0 -186.5 11t-137 38.5t-95.5 67.5t-59.5 104.5t-31 142.5t-8.5 188v41q0 110 8.5 187.5t31 142t59.5 105t95.5 68t137 39t186.5 11.5h41q109 0 187.5 -11.5t137 -39t95 -68t59 -105t31 -142t8.5 -187.5v-41q0 -110 -8.5 -188
t-31 -142.5t-59 -104.5t-95.5 -67.5t-137 -38.5t-187 -11h-41zM612 223h41q49 0 80.5 3.5t56.5 15.5t38.5 29t22 50t11 72t2.5 101v118q0 62 -2.5 101t-11 72t-22 50t-38.5 29t-56.5 15.5t-80.5 3.5h-41q-49 0 -80 -3.5t-56 -15.5t-38.5 -29t-22.5 -49.5t-11.5 -72
t-2.5 -101.5v-118q0 -62 2.5 -101.5t11.5 -72t22.5 -49.5t38.5 -29t56 -15.5t80 -3.5z" />
    <glyph glyph-name="Ohungarumlaut" unicode="&#x150;" horiz-adv-x="1470" 
d="M457 1577l133 342h231l-174 -342h-190zM821 1577l133 342h232l-174 -342h-191zM715 -20q-94 0 -166 6.5t-134.5 23.5t-107 42.5t-80.5 66.5t-58.5 93.5t-37.5 125.5t-21 159.5t-6 198.5v41q0 145 11 249t39.5 186.5t72 134.5t114 86t160 47.5t214.5 13.5h41
q125 0 214.5 -13.5t159.5 -47.5t114 -86t72 -134.5t39 -186.5t11 -249v-41q0 -145 -11 -249t-39 -186.5t-72 -134t-114 -85.5t-159.5 -47.5t-214.5 -13.5h-41zM715 223h41q75 0 124 10.5t85.5 35t56 70.5t28.5 110t9 161v213q0 97 -9 161t-28.5 110t-56 70.5t-85.5 35
t-124 10.5h-41q-94 0 -150 -16t-92 -61t-48.5 -117t-12.5 -193v-213q0 -121 12.5 -193t48.5 -117t92 -61t150 -16z" />
    <glyph glyph-name="ohungarumlaut" unicode="&#x151;" horiz-adv-x="1265" 
d="M356 1249l133 342h232l-174 -342h-191zM721 1249l133 342h231l-174 -342h-190zM612 -20q-108 0 -186.5 11t-137 38.5t-95.5 67.5t-59.5 104.5t-31 142.5t-8.5 188v41q0 110 8.5 187.5t31 142t59.5 105t95.5 68t137 39t186.5 11.5h41q109 0 187.5 -11.5t137 -39t95 -68
t59 -105t31 -142t8.5 -187.5v-41q0 -110 -8.5 -188t-31 -142.5t-59 -104.5t-95.5 -67.5t-137 -38.5t-187 -11h-41zM612 223h41q49 0 80.5 3.5t56.5 15.5t38.5 29t22 50t11 72t2.5 101v118q0 62 -2.5 101t-11 72t-22 50t-38.5 29t-56.5 15.5t-80.5 3.5h-41q-49 0 -80 -3.5
t-56 -15.5t-38.5 -29t-22.5 -49.5t-11.5 -72t-2.5 -101.5v-118q0 -62 2.5 -101.5t11.5 -72t22.5 -49.5t38.5 -29t56 -15.5t80 -3.5z" />
    <glyph glyph-name="OE" unicode="&#x152;" horiz-adv-x="2240" 
d="M2152 1190h-786v-348h594v-244h-594v-354h786v-244h-987v133q-61 -81 -160 -117t-249 -36h-41q-94 0 -166 6.5t-134.5 23.5t-107 42.5t-80.5 66.5t-58.5 93.5t-37.5 125.5t-21 159.5t-6 198.5v41q0 145 11 249t39.5 186.5t72 134.5t114 86t160 47.5t214.5 13.5h41
q150 0 249 -36.5t160 -117.5v134h987v-244zM1059 610v213q0 97 -9 161t-28.5 110t-56 70.5t-85.5 35t-124 10.5h-41q-94 0 -150 -16t-92 -61t-48.5 -117t-12.5 -193v-213q0 -121 12.5 -193t48.5 -117t92 -61t150 -16h41q75 0 124 10.5t85.5 35t56 70.5t28.5 110t9 161z" />
    <glyph glyph-name="oe" unicode="&#x153;" horiz-adv-x="2004" 
d="M1911 573v-122h-737q3 -70 17 -112.5t45.5 -66t74.5 -31.5t114 -8h21q215 0 450 41v-249q-261 -45 -450 -45h-27q-147 0 -242 28.5t-153 93.5q-50 -65 -139 -93.5t-232 -28.5h-41q-108 0 -186.5 11t-137 38.5t-95.5 67.5t-59.5 104.5t-31 142.5t-8.5 188v41
q0 110 8.5 188t31 142.5t59.5 104.5t95.5 68t137 39t186.5 11h41q136 0 225 -29.5t140 -95.5q53 66 140 95.5t220 29.5h21q106 0 182.5 -11t135 -39t95 -68t59 -104.5t31.5 -142.5t9 -188zM864 494v118q0 62 -2.5 101.5t-11.5 72t-22.5 49.5t-38.5 29t-56 15.5t-80 3.5h-41
q-49 0 -80.5 -3.5t-56.5 -15.5t-38.5 -29t-22 -50t-11 -72t-2.5 -101v-118q0 -62 2.5 -101t11 -72t22 -50t38.5 -29t56.5 -15.5t80.5 -3.5h41q49 0 80 3.5t56 15.5t38.5 29t22.5 49.5t11.5 72t2.5 101.5zM1378 883q-66 0 -102.5 -8t-61 -34.5t-33 -70.5t-10.5 -123h433
q-2 79 -10 123t-32.5 70.5t-60.5 34.5t-102 8h-21z" />
    <glyph glyph-name="Racute" unicode="&#x154;" horiz-adv-x="1357" 
d="M1012 1919l-273 -342h-200l163 342h310zM1262 0h-342l-291 535h-176v-535h-308v1434h594q142 0 242 -28t159.5 -84t86 -133t26.5 -183v-41q0 -172 -72 -274t-237 -138zM453 1190v-412h266q127 0 177 45t50 142v41q0 95 -50 139.5t-177 44.5h-266z" />
    <glyph glyph-name="racute" unicode="&#x155;" horiz-adv-x="878" 
d="M317 1249l164 342h310l-273 -342h-201zM418 1106l24 -268q70 140 148 245q40 16 121.5 29.5t146.5 13.5v-292q-287 0 -416 -27v-807h-307v1106h283z" />
    <glyph glyph-name="uni0156" unicode="&#x156;" horiz-adv-x="1357" 
d="M944 553l318 -553h-342l-291 535h-176v-535h-308v1434h594q142 0 242 -28t159.5 -84t86 -133t26.5 -183v-41q0 -172 -72 -274t-237 -138zM453 1190v-412h266q127 0 177 45t50 142v41q0 95 -50 139.5t-177 44.5h-266zM522 -356v206h271v-206l-121 -219h-170l106 219h-86z
" />
    <glyph glyph-name="uni0157" unicode="&#x157;" horiz-adv-x="878" 
d="M418 1106l24 -268q70 140 148 245q40 16 121.5 29.5t146.5 13.5v-292q-287 0 -416 -27v-807h-307v1106h283zM434 -150v-206l-121 -219h-170l107 219h-86v206h270z" />
    <glyph glyph-name="Rcaron" unicode="&#x158;" horiz-adv-x="1357" 
d="M793 1577h-310l-194 342h200l148 -184l149 184h201zM1262 0h-342l-291 535h-176v-535h-308v1434h594q142 0 242 -28t159.5 -84t86 -133t26.5 -183v-41q0 -172 -72 -274t-237 -138zM453 1190v-412h266q127 0 177 45t50 142v41q0 95 -50 139.5t-177 44.5h-266z" />
    <glyph glyph-name="rcaron" unicode="&#x159;" horiz-adv-x="878" 
d="M766 1591l-195 -342h-309l-194 342h200l148 -184l149 184h201zM418 1106l24 -268q70 140 148 245q40 16 121.5 29.5t146.5 13.5v-292q-287 0 -416 -27v-807h-307v1106h283z" />
    <glyph glyph-name="Sacute" unicode="&#x15a;" horiz-adv-x="1363" 
d="M1079 1919l-272 -342h-201l164 342h309zM731 854q50 -3 84 -6t83.5 -10.5t84 -17t77 -26t71.5 -38t59 -53t48 -70.5t29 -91t11 -114q0 -224 -144.5 -336t-476.5 -112q-301 0 -573 61v235q350 -53 510 -53q96 0 161.5 7t107.5 19.5t64.5 35.5t31 50t8.5 68q0 39 -9.5 67.5
t-30.5 47t-47.5 30t-66.5 18t-81 10t-98 7.5q-13 1 -20 1q-53 3 -95.5 8t-97.5 17.5t-97 31t-85 51t-71 75t-46 104.5t-18 139q0 110 32 191t102.5 138.5t186.5 86t280 28.5q213 0 501 -61v-238q-298 53 -440 53q-91 0 -152.5 -6.5t-101 -18t-60.5 -33.5t-28.5 -48.5
t-7.5 -67.5q0 -26 5 -48t12.5 -38t23 -29t28 -22t38.5 -16t42.5 -10.5t50.5 -7t54 -5t61 -4.5z" />
    <glyph glyph-name="sacute" unicode="&#x15b;" horiz-adv-x="1155" 
d="M950 1591l-272 -342h-201l164 342h309zM627 678q174 -17 241 -38q149 -44 192 -167q21 -58 21 -137q0 -86 -28 -149.5t-90 -111t-168.5 -71.5t-257.5 -24q-255 0 -463 43v223q237 -44 424 -41q114 0 174 12.5t81 37.5t21 71q0 63 -62 83q-39 14 -181 22q-10 1 -17 1
q-52 4 -93.5 10t-94.5 19.5t-92 38t-74 60t-53.5 91t-18.5 125.5q0 173 118 261.5t376 88.5q230 0 442 -41v-221q-230 40 -395 37q-94 0 -145.5 -12.5t-70 -37t-18.5 -67.5q0 -16 3.5 -29.5t11.5 -23t16 -16.5t23.5 -12.5t27.5 -8.5t33 -5.5t35 -4t40 -3.5t42 -3z" />
    <glyph glyph-name="Scedilla" unicode="&#x15e;" horiz-adv-x="1363" 
d="M1278 428q0 -214 -131 -326t-430 -122v-58q93 0 151 -38t58 -120v-20q0 -90 -59 -137t-165 -47q-98 0 -182 24v86h62q133 0 133 74v20q0 35 -33 53.5t-86 18.5v144q-262 6 -512 61v235q350 -53 510 -53q96 0 161.5 7t107.5 19.5t64.5 35.5t31 50t8.5 68q0 39 -9.5 67.5
t-30.5 47t-47.5 30t-66.5 18t-81 10t-98 7.5q-13 1 -20 1q-53 3 -95.5 8t-97.5 17.5t-97 31t-85 51t-71 75t-46 104.5t-18 139q0 110 32 191t102.5 138.5t186.5 86t280 28.5q213 0 501 -61v-238q-298 53 -440 53q-91 0 -152.5 -6.5t-101 -18t-60.5 -33.5t-28.5 -48.5
t-7.5 -67.5q0 -26 5 -48t12.5 -38t23 -29t28 -22t38.5 -16t42.5 -10.5t50.5 -7t54 -5t61 -4.5q50 -3 84 -6t83.5 -10.5t84 -17t77 -26t71.5 -38t59 -53t48 -70.5t29 -91t11 -114z" />
    <glyph glyph-name="scedilla" unicode="&#x15f;" horiz-adv-x="1155" 
d="M1081 336q0 -165 -110.5 -254.5t-366.5 -99.5v-60q93 0 151 -38t58 -120v-20q0 -90 -58.5 -137t-164.5 -47q-98 0 -182 24v86h61q133 0 133 74v20q0 35 -33 53.5t-86 18.5v144q-234 6 -409 43v223q237 -44 424 -41q114 0 174 12.5t81 37.5t21 71q0 63 -62 83
q-39 14 -181 22q-10 1 -17 1q-52 4 -93.5 10t-94.5 19.5t-92 38t-74 60t-53.5 91t-18.5 125.5q0 173 118 261.5t376 88.5q230 0 442 -41v-221q-230 40 -395 37q-94 0 -145.5 -12.5t-70 -37t-18.5 -67.5q0 -16 3.5 -29.5t11.5 -23t16 -16.5t23.5 -12.5t27.5 -8.5t33 -5.5
t35 -4t40 -3.5t42 -3q174 -17 241 -38q149 -44 192 -167q21 -58 21 -137z" />
    <glyph glyph-name="Scaron" unicode="&#x160;" horiz-adv-x="1363" 
d="M862 1577h-309l-195 342h201l148 -184l149 184h201zM731 854q50 -3 84 -6t83.5 -10.5t84 -17t77 -26t71.5 -38t59 -53t48 -70.5t29 -91t11 -114q0 -224 -144.5 -336t-476.5 -112q-301 0 -573 61v235q350 -53 510 -53q96 0 161.5 7t107.5 19.5t64.5 35.5t31 50t8.5 68
q0 39 -9.5 67.5t-30.5 47t-47.5 30t-66.5 18t-81 10t-98 7.5q-13 1 -20 1q-53 3 -95.5 8t-97.5 17.5t-97 31t-85 51t-71 75t-46 104.5t-18 139q0 110 32 191t102.5 138.5t186.5 86t280 28.5q213 0 501 -61v-238q-298 53 -440 53q-91 0 -152.5 -6.5t-101 -18t-60.5 -33.5
t-28.5 -48.5t-7.5 -67.5q0 -26 5 -48t12.5 -38t23 -29t28 -22t38.5 -16t42.5 -10.5t50.5 -7t54 -5t61 -4.5z" />
    <glyph glyph-name="scaron" unicode="&#x161;" horiz-adv-x="1155" 
d="M733 1249h-309l-195 342h201l148 -184l149 184h201zM627 678q174 -17 241 -38q149 -44 192 -167q21 -58 21 -137q0 -86 -28 -149.5t-90 -111t-168.5 -71.5t-257.5 -24q-255 0 -463 43v223q237 -44 424 -41q114 0 174 12.5t81 37.5t21 71q0 63 -62 83q-39 14 -181 22
q-10 1 -17 1q-52 4 -93.5 10t-94.5 19.5t-92 38t-74 60t-53.5 91t-18.5 125.5q0 173 118 261.5t376 88.5q230 0 442 -41v-221q-230 40 -395 37q-94 0 -145.5 -12.5t-70 -37t-18.5 -67.5q0 -16 3.5 -29.5t11.5 -23t16 -16.5t23.5 -12.5t27.5 -8.5t33 -5.5t35 -4t40 -3.5
t42 -3z" />
    <glyph glyph-name="uni0162" unicode="&#x162;" horiz-adv-x="1253" 
d="M780 0h-92v-78q93 0 151 -38t58 -120v-20q0 -90 -58.5 -137t-164.5 -47q-98 0 -182 24v86h61q133 0 133 74v20q0 35 -33 53.5t-86 18.5v164h-94v1190h-442v244h1192v-244h-443v-1190z" />
    <glyph glyph-name="uni0163" unicode="&#x163;" horiz-adv-x="784" 
d="M764 897h-270v-473q0 -118 31 -154.5t130 -36.5h109v-233h-133q-59 0 -86 2v-80q93 0 151 -38t58 -120v-20q0 -90 -59 -137t-165 -47q-98 0 -182 24v86h62q133 0 133 74v20q0 35 -33 53.5t-86 18.5v180q-131 28 -184.5 122.5t-53.5 299.5v459h-155v184l155 25l50 328h258
v-328h270v-209z" />
    <glyph glyph-name="Tcaron" unicode="&#x164;" horiz-adv-x="1253" 
d="M782 1577h-309l-194 342h200l148 -184l149 184h201zM1223 1434v-244h-443v-1190h-307v1190h-442v244h1192z" />
    <glyph glyph-name="tcaron" unicode="&#x165;" horiz-adv-x="784" 
d="M598 1645h270v-207l-120 -219h-170l106 219h-86v207zM494 1434v-328h270v-209h-270v-473q0 -118 31 -154.5t130 -36.5h109v-233h-133q-106 0 -175.5 11t-124.5 38t-85 77.5t-45 125.5t-15 186v459h-155v184l155 25l50 328h258z" />
    <glyph glyph-name="Tbar" unicode="&#x166;" horiz-adv-x="1253" 
d="M1223 1190h-443v-457h238v-182h-238v-551h-307v551h-235v182h235v457h-440v244h1190v-244z" />
    <glyph glyph-name="tbar" unicode="&#x167;" horiz-adv-x="784" 
d="M764 897h-270v-209h270v-184h-270v-80q0 -118 31 -154.5t130 -36.5h109v-233h-133q-88 0 -150 7t-114.5 25.5t-84.5 49.5t-55 80.5t-32 116t-9 159.5v66h-153v184h153v209h-153v184l153 25l52 328h256v-328h270v-209z" />
    <glyph glyph-name="Umacron" unicode="&#x16a;" horiz-adv-x="1523" 
d="M463 1620v209h596v-209h-596zM453 1434v-856q0 -98 11.5 -161t43 -109t88 -65.5t145.5 -19.5h41q71 0 120.5 13.5t82.5 39.5t51 70.5t25.5 99t7.5 132.5v856h307v-770q0 -151 -15.5 -256t-54.5 -190.5t-106.5 -135.5t-170 -76t-247.5 -26h-41q-122 0 -212 15.5t-157 51.5
t-110 87.5t-69.5 131t-37 174.5t-10.5 224v770h308z" />
    <glyph glyph-name="umacron" unicode="&#x16b;" horiz-adv-x="1298" 
d="M350 1292v209h596v-209h-596zM459 -20q-158 0 -241 81t-83 236v809h307v-727q0 -70 37 -102.5t123 -32.5q108 0 252 37v825h307v-1106h-282l-25 252q-81 -147 -145 -229q-41 -16 -114.5 -29.5t-135.5 -13.5z" />
    <glyph glyph-name="Uring" unicode="&#x16e;" horiz-adv-x="1523" 
d="M752 1567q-104 0 -160.5 21.5t-75 59t-18.5 103.5v21q0 65 18.5 102t75 58.5t160.5 21.5h20q104 0 160.5 -21.5t75 -58.5t18.5 -102v-21q0 -66 -18.5 -103.5t-75 -59t-160.5 -21.5h-20zM752 1694h20q44 0 58 11t14 46v21q0 35 -14 46t-58 11h-20q-45 0 -59.5 -11
t-14.5 -46v-21q0 -35 14.5 -46t59.5 -11zM453 1434v-856q0 -98 11.5 -161t43 -109t88 -65.5t145.5 -19.5h41q71 0 120.5 13.5t82.5 39.5t51 70.5t25.5 99t7.5 132.5v856h307v-770q0 -151 -15.5 -256t-54.5 -190.5t-106.5 -135.5t-170 -76t-247.5 -26h-41q-122 0 -212 15.5
t-157 51.5t-110 87.5t-69.5 131t-37 174.5t-10.5 224v770h308z" />
    <glyph glyph-name="uring" unicode="&#x16f;" horiz-adv-x="1298" 
d="M639 1239q-104 0 -160.5 21.5t-75 59t-18.5 103.5v21q0 65 18.5 102t75 58.5t160.5 21.5h20q104 0 160.5 -21.5t75 -58.5t18.5 -102v-21q0 -66 -18.5 -103.5t-75 -59t-160.5 -21.5h-20zM639 1366h20q44 0 58 11t14 46v21q0 35 -14 46t-58 11h-20q-45 0 -59.5 -11
t-14.5 -46v-21q0 -35 14.5 -46t59.5 -11zM459 -20q-158 0 -241 81t-83 236v809h307v-727q0 -70 37 -102.5t123 -32.5q108 0 252 37v825h307v-1106h-282l-25 252q-81 -147 -145 -229q-41 -16 -114.5 -29.5t-135.5 -13.5z" />
    <glyph glyph-name="Uhungarumlaut" unicode="&#x170;" horiz-adv-x="1523" 
d="M483 1577l133 342h232l-174 -342h-191zM848 1577l133 342h231l-174 -342h-190zM453 1434v-856q0 -98 11.5 -161t43 -109t88 -65.5t145.5 -19.5h41q71 0 120.5 13.5t82.5 39.5t51 70.5t25.5 99t7.5 132.5v856h307v-770q0 -151 -15.5 -256t-54.5 -190.5t-106.5 -135.5
t-170 -76t-247.5 -26h-41q-122 0 -212 15.5t-157 51.5t-110 87.5t-69.5 131t-37 174.5t-10.5 224v770h308z" />
    <glyph glyph-name="uhungarumlaut" unicode="&#x171;" horiz-adv-x="1298" 
d="M371 1249l133 342h231l-174 -342h-190zM735 1249l133 342h232l-174 -342h-191zM459 -20q-158 0 -241 81t-83 236v809h307v-727q0 -70 37 -102.5t123 -32.5q108 0 252 37v825h307v-1106h-282l-25 252q-81 -147 -145 -229q-41 -16 -114.5 -29.5t-135.5 -13.5z" />
    <glyph glyph-name="Uogonek" unicode="&#x172;" horiz-adv-x="1523" 
d="M1069 1434h307v-770q0 -130 -11 -225t-39 -175.5t-75.5 -133.5t-120 -88t-172.5 -50q-98 -42 -145 -90.5t-47 -112.5v-20q0 -99 133 -99h62v-86q-84 -24 -183 -24q-106 0 -164.5 47t-58.5 137v20q0 147 205 216h-19q-122 0 -212 15.5t-157 51.5t-110 87.5t-69.5 131
t-37 174.5t-10.5 224v770h308v-856q0 -98 11.5 -161t43 -109t88 -65.5t145.5 -19.5h41q71 0 120.5 13.5t82.5 39.5t51 70.5t25.5 99t7.5 132.5v856z" />
    <glyph glyph-name="uogonek" unicode="&#x173;" horiz-adv-x="1298" 
d="M1161 0q-109 -44 -162 -94.5t-53 -116.5v-20q0 -99 133 -99h62v-86q-84 -24 -183 -24q-106 0 -164.5 47t-58.5 137v20q0 169 275 236h-131l-25 252q-81 -147 -145 -229q-41 -16 -114.5 -29.5t-135.5 -13.5q-158 0 -241 81t-83 236v809h307v-727q0 -70 37 -102.5
t123 -32.5q108 0 252 37v825h307v-1106z" />
    <glyph glyph-name="Wcircumflex" unicode="&#x174;" horiz-adv-x="1990" 
d="M991 1763l-147 -186h-201l195 342h309l194 -342h-200zM1686 1434h274l-371 -1440h-368l-228 1028l-229 -1028h-369l-362 1440h301l264 -1084l240 1084h344l235 -1078z" />
    <glyph glyph-name="wcircumflex" unicode="&#x175;" horiz-adv-x="1949" 
d="M985 1436l-147 -187h-201l194 342h310l194 -342h-200zM1634 1106h285l-369 -1112h-344l-225 727l-209 -727h-344l-395 1112h311l272 -809l222 809h307l237 -797z" />
    <glyph glyph-name="Ycircumflex" unicode="&#x176;" horiz-adv-x="1335" 
d="M684 1763l-147 -186h-201l194 342h310l194 -342h-200zM1026 1434h289l-477 -934v-500h-308v500l-510 934h320l354 -662z" />
    <glyph glyph-name="ycircumflex" unicode="&#x177;" horiz-adv-x="1253" 
d="M643 1436l-147 -187h-201l194 342h310l194 -342h-200zM920 1106h303l-396 -1106q-39 -109 -90.5 -186.5t-112 -127t-144.5 -77.5t-175 -38.5t-215 -10.5v243q105 0 171 7.5t126 31.5t99 69t69 118h-133l-389 1077h311l291 -838z" />
    <glyph glyph-name="Ydieresis" unicode="&#x178;" horiz-adv-x="1335" 
d="M612 1853v-260h-270v260h270zM1028 1853v-260h-270v260h270zM1026 1434h289l-477 -934v-500h-308v500l-510 934h320l354 -662z" />
    <glyph glyph-name="Zacute" unicode="&#x179;" horiz-adv-x="1314" 
d="M1061 1919l-273 -342h-200l164 342h309zM453 238h774v-238h-1139v238l746 958h-715v238h1079v-238z" />
    <glyph glyph-name="zacute" unicode="&#x17a;" horiz-adv-x="1165" 
d="M948 1591l-272 -342h-201l164 342h309zM463 219h635v-219h-1030v219l624 658h-614v229h995v-229z" />
    <glyph glyph-name="Zdotaccent" unicode="&#x17b;" horiz-adv-x="1314" 
d="M868 1853v-260h-358v260h358zM453 238h774v-238h-1139v238l746 958h-715v238h1079v-238z" />
    <glyph glyph-name="zdotaccent" unicode="&#x17c;" horiz-adv-x="1165" 
d="M754 1526v-260h-359v260h359zM463 219h635v-219h-1030v219l624 658h-614v229h995v-229z" />
    <glyph glyph-name="Zcaron" unicode="&#x17d;" horiz-adv-x="1314" 
d="M844 1577h-309l-195 342h201l147 -184l150 184h200zM453 238h774v-238h-1139v238l746 958h-715v238h1079v-238z" />
    <glyph glyph-name="zcaron" unicode="&#x17e;" horiz-adv-x="1165" 
d="M729 1249h-309l-195 342h201l147 -184l150 184h201zM463 219h635v-219h-1030v219l624 658h-614v229h995v-229z" />
    <glyph glyph-name="florin" unicode="&#x192;" horiz-adv-x="913" 
d="M891 1608h59l-35 -244h-59q-44 0 -72.5 -2.5t-54.5 -10t-41 -20.5t-28.5 -36t-21.5 -54.5t-15 -77.5l-9 -57h220l-29 -209h-219l-123 -879q-19 -137 -59 -225.5t-111.5 -140.5t-167 -72t-238.5 -20h-59l33 243h59q54 0 85.5 4t59.5 15t43.5 34t26.5 58t19 90l125 893
h-156l27 184l157 25l6 43q19 137 59 225.5t112 140.5t168 72.5t239 20.5z" />
    <glyph glyph-name="uni0218" unicode="&#x218;" horiz-adv-x="1363" 
d="M731 854q50 -3 84 -6t83.5 -10.5t84 -17t77 -26t71.5 -38t59 -53t48 -70.5t29 -91t11 -114q0 -224 -144.5 -336t-476.5 -112q-301 0 -573 61v235q350 -53 510 -53q96 0 161.5 7t107.5 19.5t64.5 35.5t31 50t8.5 68q0 39 -9.5 67.5t-30.5 47t-47.5 30t-66.5 18t-81 10
t-98 7.5q-13 1 -20 1q-53 3 -95.5 8t-97.5 17.5t-97 31t-85 51t-71 75t-46 104.5t-18 139q0 110 32 191t102.5 138.5t186.5 86t280 28.5q213 0 501 -61v-238q-298 53 -440 53q-91 0 -152.5 -6.5t-101 -18t-60.5 -33.5t-28.5 -48.5t-7.5 -67.5q0 -26 5 -48t12.5 -38t23 -29
t28 -22t38.5 -16t42.5 -10.5t50.5 -7t54 -5t61 -4.5zM530 -356v206h271v-206l-121 -219h-170l106 219h-86z" />
    <glyph glyph-name="uni0219" unicode="&#x219;" horiz-adv-x="1155" 
d="M627 678q174 -17 241 -38q149 -44 192 -167q21 -58 21 -137q0 -86 -28 -149.5t-90 -111t-168.5 -71.5t-257.5 -24q-255 0 -463 43v223q237 -44 424 -41q114 0 174 12.5t81 37.5t21 71q0 63 -62 83q-39 14 -181 22q-10 1 -17 1q-52 4 -93.5 10t-94.5 19.5t-92 38t-74 60
t-53.5 91t-18.5 125.5q0 173 118 261.5t376 88.5q230 0 442 -41v-221q-230 40 -395 37q-94 0 -145.5 -12.5t-70 -37t-18.5 -67.5q0 -16 3.5 -29.5t11.5 -23t16 -16.5t23.5 -12.5t27.5 -8.5t33 -5.5t35 -4t40 -3.5t42 -3zM418 -356v206h270v-206l-121 -219h-170l107 219h-86z
" />
    <glyph glyph-name="uni021A" unicode="&#x21a;" horiz-adv-x="1253" 
d="M1223 1434v-244h-443v-1190h-307v1190h-442v244h1192zM502 -356v206h270v-206l-121 -219h-170l107 219h-86z" />
    <glyph glyph-name="uni021B" unicode="&#x21b;" horiz-adv-x="784" 
d="M764 897h-270v-473q0 -118 31 -154.5t130 -36.5h109v-233h-133q-106 0 -175.5 11t-124.5 38t-85 77.5t-45 125.5t-15 186v459h-155v184l155 25l50 328h258v-328h270v-209zM360 -356v206h271v-206l-121 -219h-170l106 219h-86z" />
    <glyph glyph-name="circumflex" unicode="&#x2c6;" horiz-adv-x="903" 
d="M801 1249h-201l-149 187l-148 -187h-201l195 342h309z" />
    <glyph glyph-name="caron" unicode="&#x2c7;" horiz-adv-x="903" 
d="M801 1591l-195 -342h-309l-195 342h201l148 -184l149 184h201z" />
    <glyph glyph-name="breve" unicode="&#x2d8;" horiz-adv-x="854" 
d="M418 1262q-179 0 -247.5 74t-68.5 255h185q0 -101 28.5 -138.5t102.5 -37.5h20q73 0 101 38t28 138h185q0 -182 -67.5 -255.5t-246.5 -73.5h-20z" />
    <glyph glyph-name="dotaccent" unicode="&#x2d9;" horiz-adv-x="563" 
d="M102 1266v260h359v-260h-359z" />
    <glyph glyph-name="ring" unicode="&#x2da;" horiz-adv-x="733" 
d="M356 1239q-104 0 -160.5 21.5t-75 59t-18.5 103.5v21q0 65 18.5 102t75 58.5t160.5 21.5h21q104 0 160.5 -21.5t75 -58.5t18.5 -102v-21q0 -66 -18.5 -103.5t-75 -59t-160.5 -21.5h-21zM356 1366h21q44 0 58 11t14 46v21q0 35 -14 46t-58 11h-21q-45 0 -59 -11t-14 -46
v-21q0 -35 14 -46t59 -11z" />
    <glyph glyph-name="ogonek" unicode="&#x2db;" horiz-adv-x="630" 
d="M508 -416q-84 -24 -182 -24q-106 0 -165 47t-59 137v20q0 169 275 236h151q-109 -44 -162 -94.5t-53 -116.5v-20q0 -99 133 -99h62v-86z" />
    <glyph glyph-name="tilde" unicode="&#x2dc;" horiz-adv-x="882" 
d="M102 1456q68 55 183 55q59 0 164.5 -29.5t173.5 -29.5q90 0 157 49v-205q-68 -55 -182 -55q-60 0 -166 31t-172 31q-92 0 -158 -52v205z" />
    <glyph glyph-name="hungarumlaut" unicode="&#x2dd;" horiz-adv-x="933" 
d="M102 1249l134 342h231l-174 -342h-191zM467 1249l133 342h231l-174 -342h-190z" />
    <glyph glyph-name="gravecomb" unicode="&#x300;" horiz-adv-x="0" 
d="M-102 1249h-199l-274 342h309z" />
    <glyph glyph-name="acutecomb" unicode="&#x301;" horiz-adv-x="0" 
d="M-575 1249l163 342h310l-273 -342h-200z" />
    <glyph glyph-name="uni0302" unicode="&#x302;" horiz-adv-x="0" 
d="M-102 1249h-201l-150 187l-147 -187h-201l195 342h309z" />
    <glyph glyph-name="tildecomb" unicode="&#x303;" horiz-adv-x="0" 
d="M-780 1456q68 55 182 55q59 0 164.5 -29.5t173.5 -29.5q91 0 158 49v-205q-68 -55 -183 -55q-61 0 -166 31t-172 31q-91 0 -157 -52v205z" />
    <glyph glyph-name="uni0304" unicode="&#x304;" horiz-adv-x="0" 
d="M-698 1292v209h596v-209h-596z" />
    <glyph glyph-name="uni0306" unicode="&#x306;" horiz-adv-x="0" 
d="M-436 1262q-179 0 -247.5 74t-68.5 255h185q0 -101 28.5 -138.5t102.5 -37.5h20q73 0 101 38t28 138h185q0 -182 -67.5 -255.5t-246.5 -73.5h-20z" />
    <glyph glyph-name="uni0307" unicode="&#x307;" horiz-adv-x="0" 
d="M-461 1266v260h359v-260h-359z" />
    <glyph glyph-name="uni0308" unicode="&#x308;" horiz-adv-x="0" 
d="M-788 1266v260h270v-260h-270zM-373 1266v260h271v-260h-271z" />
    <glyph glyph-name="uni030A" unicode="&#x30a;" horiz-adv-x="0" 
d="M-377 1239q-104 0 -160.5 21.5t-75 59t-18.5 103.5v21q0 65 18.5 102t75 58.5t160.5 21.5h21q104 0 160.5 -21.5t75 -58.5t18.5 -102v-21q0 -66 -18.5 -103.5t-75 -59t-160.5 -21.5h-21zM-377 1366h21q44 0 57.5 11t13.5 46v21q0 35 -13.5 46t-57.5 11h-21
q-45 0 -59.5 -11t-14.5 -46v-21q0 -35 14.5 -46t59.5 -11z" />
    <glyph glyph-name="uni030B" unicode="&#x30b;" horiz-adv-x="0" 
d="M-831 1249l133 342h231l-174 -342h-190zM-467 1249l133 342h232l-174 -342h-191z" />
    <glyph glyph-name="uni030C" unicode="&#x30c;" horiz-adv-x="0" 
d="M-102 1591l-195 -342h-309l-195 342h201l147 -184l150 184h201z" />
    <glyph glyph-name="uni0312" unicode="&#x312;" horiz-adv-x="0" 
d="M-393 1255v207l121 219h170l-107 -219h86v-207h-270z" />
    <glyph glyph-name="uni0326" unicode="&#x326;" horiz-adv-x="0" 
d="M-102 -150v-206l-121 -219h-170l106 219h-86v206h271z" />
    <glyph glyph-name="uni0327" unicode="&#x327;" horiz-adv-x="0" 
d="M-311 -78q93 0 151 -38t58 -120v-20q0 -90 -59 -137t-165 -47q-98 0 -182 24v86h62q133 0 133 74v20q0 35 -33 53.5t-86 18.5v184h121v-98z" />
    <glyph glyph-name="uni0328" unicode="&#x328;" horiz-adv-x="0" 
d="M-123 -416q-84 -24 -182 -24q-106 0 -164.5 47t-58.5 137v20q0 169 274 236h152q-109 -44 -162 -94.5t-53 -116.5v-20q0 -99 133 -99h61v-86z" />
    <glyph glyph-name="uni0335" unicode="&#x335;" horiz-adv-x="0" 
d="M-870 637v160h798v-160h-798z" />
    <glyph glyph-name="uni0336" unicode="&#x336;" horiz-adv-x="0" 
d="M-1563 637v160h1489v-160h-1489z" />
    <glyph glyph-name="uni0337" unicode="&#x337;" horiz-adv-x="0" 
d="M-248 1229h166l-811 -1352h-166z" />
    <glyph glyph-name="uni0338" unicode="&#x338;" horiz-adv-x="0" 
d="M-260 1556h178l-967 -1679h-176z" />
    <glyph glyph-name="uni0394" unicode="&#x394;" horiz-adv-x="1374" 
d="M868 1440l473 -1440h-1310l442 1440h395zM385 209h580l-301 932z" />
    <glyph glyph-name="uni03A9" unicode="&#x3a9;" horiz-adv-x="1470" 
d="M1366 870q0 -228 -81 -352t-263 -166v-127h324v-225h-529v578q128 9 185 73.5t57 208.5v60q0 161 -68.5 225.5t-234.5 64.5h-41q-166 0 -234.5 -64.5t-68.5 -225.5v-60q0 -145 56 -209t185 -73v-578h-528v225h324v125q-184 40 -264.5 161t-80.5 359v41q0 293 139 418
t472 125h41q333 0 471.5 -125t138.5 -418v-41z" />
    <glyph glyph-name="uni03BC" unicode="&#x3bc;" horiz-adv-x="1298" 
d="M854 1106h307v-1106h-282l-25 252q-65 -118 -152 -229q-95 -43 -231 -43h-29q-4 -125 -33.5 -206t-93.5 -128.5t-155 -66.5t-230 -19h-59v243h59q45 0 72.5 2.5t53 10t39 20.5t23.5 36t13.5 54.5t3.5 77.5v1102h307v-727q0 -70 37 -102.5t123 -32.5q108 0 252 37v825z
" />
    <glyph glyph-name="pi" unicode="&#x3c0;" horiz-adv-x="1398" 
d="M186 0v897h-155v209h1337v-209h-156v-897h-307v897h-411v-897h-308z" />
    <glyph glyph-name="Wgrave" unicode="&#x1e80;" horiz-adv-x="1990" 
d="M1092 1577h-199l-275 342h310zM1686 1434h274l-371 -1440h-368l-228 1028l-229 -1028h-369l-362 1440h301l264 -1084l240 1084h344l235 -1078z" />
    <glyph glyph-name="wgrave" unicode="&#x1e81;" horiz-adv-x="1949" 
d="M1083 1249h-198l-275 342h310zM1634 1106h285l-369 -1112h-344l-225 727l-209 -727h-344l-395 1112h311l272 -809l222 809h307l237 -797z" />
    <glyph glyph-name="Wacute" unicode="&#x1e82;" horiz-adv-x="1990" 
d="M1366 1919l-272 -342h-201l164 342h309zM1686 1434h274l-371 -1440h-368l-228 1028l-229 -1028h-369l-362 1440h301l264 -1084l240 1084h344l235 -1078z" />
    <glyph glyph-name="wacute" unicode="&#x1e83;" horiz-adv-x="1949" 
d="M1358 1591l-273 -342h-200l164 342h309zM1634 1106h285l-369 -1112h-344l-225 727l-209 -727h-344l-395 1112h311l272 -809l222 809h307l237 -797z" />
    <glyph glyph-name="Wdieresis" unicode="&#x1e84;" horiz-adv-x="1990" 
d="M920 1853v-260h-271v260h271zM1335 1853v-260h-270v260h270zM1686 1434h274l-371 -1440h-368l-228 1028l-229 -1028h-369l-362 1440h301l264 -1084l240 1084h344l235 -1078z" />
    <glyph glyph-name="wdieresis" unicode="&#x1e85;" horiz-adv-x="1949" 
d="M911 1526v-260h-270v260h270zM1327 1526v-260h-270v260h270zM1634 1106h285l-369 -1112h-344l-225 727l-209 -727h-344l-395 1112h311l272 -809l222 809h307l237 -797z" />
    <glyph glyph-name="Ygrave" unicode="&#x1ef2;" horiz-adv-x="1335" 
d="M784 1577h-198l-275 342h310zM1026 1434h289l-477 -934v-500h-308v500l-510 934h320l354 -662z" />
    <glyph glyph-name="ygrave" unicode="&#x1ef3;" horiz-adv-x="1253" 
d="M743 1249h-198l-275 342h310zM920 1106h303l-396 -1106q-39 -109 -90.5 -186.5t-112 -127t-144.5 -77.5t-175 -38.5t-215 -10.5v243q105 0 171 7.5t126 31.5t99 69t69 118h-133l-389 1077h311l291 -838z" />
    <glyph glyph-name="endash" unicode="&#x2013;" horiz-adv-x="1189" 
d="M84 449v208h1024v-208h-1024z" />
    <glyph glyph-name="emdash" unicode="&#x2014;" horiz-adv-x="1599" 
d="M84 449v208h1434v-208h-1434z" />
    <glyph glyph-name="quoteleft" unicode="&#x2018;" horiz-adv-x="475" 
d="M418 1587l-125 -287h100v-309h-309v309l164 287h170z" />
    <glyph glyph-name="quoteright" unicode="&#x2019;" horiz-adv-x="475" 
d="M57 991l125 287h-98v309h309v-309l-166 -287h-170z" />
    <glyph glyph-name="quotesinglbase" unicode="&#x201a;" horiz-adv-x="475" 
d="M57 -287l125 287h-98v309h309v-309l-166 -287h-170z" />
    <glyph glyph-name="quotedblleft" unicode="&#x201c;" horiz-adv-x="888" 
d="M418 1587l-125 -287h100v-309h-309v309l164 287h170zM831 1587l-124 -287h100v-309h-311v309l166 287h169z" />
    <glyph glyph-name="quotedblright" unicode="&#x201d;" horiz-adv-x="888" 
d="M57 991l125 287h-98v309h309v-309l-166 -287h-170zM471 991l125 287h-100v309h311v-309l-166 -287h-170z" />
    <glyph glyph-name="quotedblbase" unicode="&#x201e;" horiz-adv-x="888" 
d="M57 -287l125 287h-98v309h309v-309l-166 -287h-170zM471 -287l125 287h-100v309h311v-309l-166 -287h-170z" />
    <glyph glyph-name="dagger" unicode="&#x2020;" horiz-adv-x="985" 
d="M903 1253v-211h-305v-1247h-211v1247h-303v211h303v385h211v-385h305z" />
    <glyph glyph-name="daggerdbl" unicode="&#x2021;" horiz-adv-x="985" 
d="M903 1042h-305v-651h305v-211h-305v-385h-211v385h-303v211h303v651h-303v211h303v385h211v-385h305v-211z" />
    <glyph glyph-name="bullet" unicode="&#x2022;" horiz-adv-x="776" 
d="M379 248q-93 0 -149.5 14t-89.5 50.5t-44.5 89.5t-11.5 141v20q0 88 11.5 141t44.5 89.5t89.5 50.5t149.5 14h20q93 0 149.5 -14t89.5 -50.5t44.5 -89.5t11.5 -141v-20q0 -88 -11.5 -141t-44.5 -89.5t-89.5 -50.5t-149.5 -14h-20z" />
    <glyph glyph-name="ellipsis" unicode="&#x2026;" horiz-adv-x="1302" 
d="M84 0v309h309v-309h-309zM496 0v309h311v-309h-311zM909 0v309h310v-309h-310z" />
    <glyph glyph-name="perthousand" unicode="&#x2030;" horiz-adv-x="2715" 
d="M446 719q-179 0 -266.5 82t-87.5 270v29q0 182 88.5 266t265.5 84h29q178 0 266 -83.5t88 -266.5v-29q0 -181 -88.5 -266.5t-265.5 -85.5h-29zM317 0l1012 1434h217l-1014 -1434h-215zM446 905h29q115 0 115 150v59q0 79 -27.5 115.5t-87.5 36.5h-29q-59 0 -86.5 -36.5
t-27.5 -115.5v-59q0 -150 114 -150zM1397 -20q-179 0 -267 81.5t-88 268.5v28q0 184 89 268.5t266 84.5h28q177 0 266 -84.5t89 -268.5v-28q0 -350 -355 -350h-28zM2238 -20q-179 0 -266.5 81.5t-87.5 268.5v28q0 184 88.5 268.5t265.5 84.5h29q178 0 267 -84.5t89 -268.5
v-28q0 -179 -89.5 -264.5t-266.5 -85.5h-29zM1397 166h28q115 0 115 149v60q0 78 -27.5 114.5t-87.5 36.5h-28q-59 0 -87 -36.5t-28 -114.5v-60q0 -149 115 -149zM2238 166h29q117 0 117 149v60q0 78 -28.5 114.5t-88.5 36.5h-29q-59 0 -86.5 -36.5t-27.5 -114.5v-60
q0 -149 114 -149z" />
    <glyph glyph-name="guilsinglleft" unicode="&#x2039;" horiz-adv-x="784" 
d="M432 961h268l-348 -408l348 -408h-268l-348 408z" />
    <glyph glyph-name="guilsinglright" unicode="&#x203a;" horiz-adv-x="784" 
d="M352 961l348 -408l-348 -408h-268l348 408l-348 408h268z" />
    <glyph glyph-name="fraction" unicode="&#x2044;" horiz-adv-x="1228" 
d="M0 0l1012 1434h217l-1012 -1434h-217z" />
    <glyph glyph-name="Euro" unicode="&#x20ac;" horiz-adv-x="1486" 
d="M860 1210q-152 0 -223 -48t-92 -179h346v-182h-356v-168h356v-182h-346q21 -131 92.5 -179.5t222.5 -48.5h41q243 0 498 68v-250q-269 -61 -498 -61h-41q-123 0 -212 13t-162.5 44t-121.5 85.5t-79 135t-45 193.5h-166v182h153v63v41v64h-153v182h166q14 113 45 193.5
t79 135t121.5 85.5t162.5 44t212 13h41q229 0 498 -61v-250q-252 67 -498 67h-41z" />
    <glyph glyph-name="trademark" unicode="&#x2122;" horiz-adv-x="1996" 
d="M823 1434v-185h-256v-676h-239v676h-256v185h751zM1925 1434v-861h-239v549l-207 -547h-168l-205 539v-541h-193v861h322l176 -496l186 496h328z" />
    <glyph glyph-name="oneeighth" unicode="&#x215b;" horiz-adv-x="2361" 
d="M473 430h-240v797h-161v141l401 80v-1018zM1464 1434h217l-1011 -1434h-217zM2093 514q90 -41 143.5 -96t53.5 -142v-22q0 -268 -422 -268t-422 268v22q0 82 55 137.5t146 100.5q-37 20 -64 39t-55 46.5t-43 63t-15 76.5v23q0 126 100.5 191t297.5 65q397 0 397 -256v-23
q0 -82 -47 -133.5t-125 -91.5zM1710 733v-10q0 -27 12.5 -49t36 -38.5t45.5 -28t52 -24.5q4 -2 6.5 -3t5.5 -2q87 38 113 59q44 35 44 86v10q0 53 -37 80t-120 27q-84 -1 -121 -27.5t-37 -79.5zM2050 274v11q0 29 -12.5 51.5t-39.5 39.5t-51 27.5t-65 25.5q-9 3 -14 5
q-36 -13 -56 -21.5t-48 -23t-42 -28t-25 -33.5t-11 -43v-11q0 -54 39.5 -81t142.5 -27q103 1 142.5 28t39.5 80z" />
    <glyph glyph-name="threeeighths" unicode="&#x215c;" horiz-adv-x="2533" 
d="M858 690q0 -132 -106 -203t-324 -71q-209 0 -356 30v187q179 -29 348 -29q114 0 156 25.5t42 83.5v20q0 63 -35.5 89t-136.5 26h-190v172h170q94 0 131 26.5t37 86.5v20q0 59 -37 83t-129 24q-57 2 -158 -7t-184 -22v186q152 31 360 31q388 0 388 -266v-29
q0 -150 -152 -209q90 -26 133 -81t43 -144v-29zM1636 1434h217l-1011 -1434h-217zM2265 514q90 -41 143.5 -96t53.5 -142v-22q0 -268 -422 -268t-422 268v22q0 82 55 137.5t146 100.5q-37 20 -64 39t-55 46.5t-43 63t-15 76.5v23q0 126 100.5 191t297.5 65q397 0 397 -256
v-23q0 -82 -47 -133.5t-125 -91.5zM1882 733v-10q0 -27 12.5 -49t36 -38.5t45.5 -28t52 -24.5q4 -2 6.5 -3t5.5 -2q87 38 113 58q45 36 45 87v10q0 53 -37 80t-121 27q-84 -1 -121 -27.5t-37 -79.5zM2222 274v11q0 29 -12.5 51.5t-39.5 39.5t-51 27.5t-65 25.5q-9 3 -14 5
q-36 -13 -56 -21.5t-48 -23t-42 -28t-25 -33.5t-11 -43v-11q0 -54 39.5 -81t142.5 -27q103 1 142.5 28t39.5 80z" />
    <glyph glyph-name="fiveeighths" unicode="&#x215d;" horiz-adv-x="2543" 
d="M858 725q0 -145 -102.5 -227t-321.5 -82q-215 0 -362 30v187q179 -29 354 -29q111 0 151.5 31t40.5 96v21q0 66 -38.5 95.5t-149.5 29.5h-330v557h701v-189h-492v-196h154q214 0 304.5 -74.5t90.5 -220.5v-29zM1647 1434h217l-1012 -1434h-217zM2275 514
q90 -41 143.5 -96t53.5 -142v-22q0 -268 -422 -268t-422 268v22q0 82 55 137.5t146 100.5q-50 27 -84.5 53t-63 72t-28.5 100v23q0 256 397 256t397 -256v-23q0 -82 -47 -133.5t-125 -91.5zM1892 733v-10q0 -27 12.5 -49t36 -38.5t45.5 -28t52 -24.5q8 -3 12 -5
q87 38 113 58q45 36 45 87v10q0 53 -37 80t-121 27q-84 -1 -121 -27.5t-37 -79.5zM2232 274v11q0 29 -12.5 51.5t-39.5 39.5t-51 27.5t-65 25.5q-9 3 -14 5q-36 -13 -56 -21.5t-48 -23t-42 -28t-25 -33.5t-11 -43v-11q0 -54 39.5 -81t142.5 -27q103 1 142.5 28t39.5 80z" />
    <glyph glyph-name="seveneighths" unicode="&#x215e;" horiz-adv-x="2340" 
d="M506 430h-242q0 90 22.5 180t52.5 159t84 152.5t93.5 136t104.5 133.5q29 36 43 54h-592v189h798v-189q-21 -30 -73 -105t-71 -103.5t-59 -92t-56 -97.5t-42 -92.5t-36 -103.5t-18.5 -103t-8.5 -118zM1442 1434h217l-1012 -1434h-217zM2071 514q42 -19 73 -38.5t61 -48
t46 -67t16 -84.5v-22q0 -268 -422 -268t-422 268v22q0 82 55 137.5t146 100.5q-50 27 -84.5 53t-63 72t-28.5 100v23q0 256 397 256q197 0 297.5 -65t100.5 -191v-23q0 -82 -47 -133.5t-125 -91.5zM1688 733v-10q0 -27 11.5 -48.5t38 -40t43.5 -27t53 -24.5q3 -1 4 -1.5
l3 -1.5l4 -2q87 38 113 58q45 36 45 87v10q0 53 -37 80t-121 27q-84 -1 -120.5 -27.5t-36.5 -79.5zM2028 274v11q0 29 -11 50.5t-43 40.5t-47.5 26t-66.5 26q-3 2 -5 2.5t-5 1.5t-5 2q-36 -13 -56 -21.5t-48 -23t-42 -28t-25 -33.5t-11 -43v-11q0 -54 39.5 -81t142.5 -27
q103 1 143 28t40 80z" />
    <glyph glyph-name="partialdiff" unicode="&#x2202;" 
d="M616 1608q186 0 307.5 -38t202 -131t114.5 -243t34 -379v-49q0 -134 -11.5 -239.5t-38 -195.5t-70 -154t-107.5 -109.5t-150.5 -67.5t-198.5 -22h-41q-156 0 -267 35t-175 101.5t-92.5 152t-28.5 196.5v33q0 225 113.5 331.5t347.5 106.5q134 0 256 -55
q14 -15 49.5 -49.5t62 -62.5t44.5 -54v151q0 104 -7 178.5t-25 131t-44 92t-68 57t-92.5 30t-122.5 9.5q-207 0 -442 -41v242q205 43 450 43zM698 223q151 0 210 102.5t59 317.5v31q-172 47 -293 47q-109 -1 -169 -28t-82 -76t-22 -134v-32q0 -105 61 -166.5t195 -61.5h41z
" />
    <glyph glyph-name="emptyset" unicode="&#x2205;" horiz-adv-x="1271" 
d="M987 1161q182 -124 182 -444q0 -270 -131 -401.5t-401 -131.5q-96 0 -180 19l-111 -203h-211l152 272q-183 128 -183 445q0 270 131.5 401t401.5 131q93 0 178 -16l111 201h211zM315 717q0 -188 74 -256l318 575q-23 2 -70 2q-183 0 -252.5 -69t-69.5 -252zM637 395
q182 0 251.5 69.5t69.5 252.5q0 191 -75 258l-318 -578q23 -2 72 -2z" />
    <glyph glyph-name="product" unicode="&#x220f;" horiz-adv-x="1470" 
d="M145 0v1434h1178v-1434h-307v1208h-563v-1208h-308z" />
    <glyph glyph-name="summation" unicode="&#x2211;" horiz-adv-x="1314" 
d="M453 238h774v-238h-1139v238l387 497l-356 461v238h1079v-238h-715l336 -461z" />
    <glyph glyph-name="minus" unicode="&#x2212;" horiz-adv-x="1034" 
d="M84 612v209h866v-209h-866z" />
    <glyph glyph-name="radical" unicode="&#x221a;" horiz-adv-x="1437" 
d="M1417 1434l-438 -1440h-395l-205 618h-295v209h537l167 -528l340 1141h289z" />
    <glyph glyph-name="infinity" unicode="&#x221e;" horiz-adv-x="1720" 
d="M1253 1274q363 0 363 -555q0 -553 -363 -553h-28q-41 0 -79.5 12t-67 28t-59 47t-48.5 53t-43 63.5t-35.5 61t-32.5 61.5q-18 -35 -24.5 -47.5t-26 -47.5t-31 -50.5t-33.5 -45.5t-39 -44.5t-42.5 -35t-49.5 -30.5t-55 -17.5t-63 -7.5h-29q-363 0 -363 553q0 555 363 555
h29q59 0 110 -21.5t82 -44.5t67 -76t49 -77t43 -87q9 -17 13 -26q62 127 91 170q104 157 264 162h10h28zM516 473q42 0 75.5 19t59.5 56.5t43 70.5t38 83q5 11 7 17q-5 11 -19.5 44t-20 45.5t-20 40.5t-24 39.5t-26 30.5t-32 27t-36.5 14.5t-45 6.5h-16q-165 0 -162 -248
q1 -131 42 -188.5t120 -57.5h16zM1382 719q3 248 -161 248h-17q-24 0 -45 -6.5t-36.5 -14.5t-32 -27t-26 -30.5t-24 -39.5t-20 -40.5t-20 -45.5t-19.5 -44q52 -119 80 -160q59 -86 143 -86h17q79 0 119.5 57.5t41.5 188.5z" />
    <glyph glyph-name="integral" unicode="&#x222b;" horiz-adv-x="913" 
d="M891 1608h59l-35 -244h-59q-44 0 -72.5 -2.5t-54.5 -10t-41 -20.5t-28.5 -36t-21.5 -54.5t-15 -77.5l-9 -57h220l-29 -209h-219l-123 -879q-19 -137 -59 -225.5t-111.5 -140.5t-167 -72t-238.5 -20h-59l33 243h59q54 0 85.5 4t59.5 15t43.5 34t26.5 58t19 90l125 893
h-156l27 184l157 25l6 43q19 137 59 225.5t112 140.5t168 72.5t239 20.5z" />
    <glyph glyph-name="approxequal" unicode="&#x2248;" horiz-adv-x="897" 
d="M627 764q-59 0 -186 30.5t-195 30.5q-46 0 -90.5 -14.5t-71.5 -36.5v205q65 55 186 55q60 0 187 -29.5t194 -29.5q97 0 164 49v-205q-73 -55 -188 -55zM627 393q-59 0 -186 31t-195 31q-46 0 -90.5 -15t-71.5 -37v205q30 25 80 40.5t106 15.5q60 0 187 -30t194 -30
q97 0 164 49v-204q-74 -56 -188 -56z" />
    <glyph glyph-name="notequal" unicode="&#x2260;" horiz-adv-x="1034" 
d="M950 801h-307l-43 -168h350v-209h-405l-113 -424h-215l113 424h-246v209h301l43 168h-344v209h399l113 424h215l-113 -424h252v-209z" />
    <glyph glyph-name="lessequal" unicode="&#x2264;" horiz-adv-x="1034" 
d="M950 1221v-209l-557 -156l557 -154v-208l-866 258v209zM950 180h-866v209h866v-209z" />
    <glyph glyph-name="greaterequal" unicode="&#x2265;" horiz-adv-x="1034" 
d="M84 1221l866 -260v-209l-866 -258v208l555 154l-555 156v209zM84 180v209h866v-209h-866z" />
    <glyph glyph-name="lozenge" unicode="&#x25ca;" horiz-adv-x="1306" 
d="M469 -2l-365 719l365 723h369l364 -723l-364 -719h-369zM653 209l256 508l-256 508l-256 -508z" />
    <glyph glyph-name="i.loclTRK" horiz-adv-x="579" 
d="M111 1266v260h358v-260h-358zM442 0h-307v1106h307v-1106z" />
    <glyph glyph-name="j.alt" horiz-adv-x="579" 
d="M111 1266v260h358v-260h-358zM-70 -197q45 0 72.5 2.5t53 10t39 20.5t23.5 36t13.5 54.5t3.5 77.5v1102h307v-1088q0 -138 -27 -226t-91.5 -140t-157 -72t-236.5 -20v243z" />
    <glyph glyph-name="zero.lf" horiz-adv-x="1388" 
d="M674 -20q-114 0 -195 12t-147 44t-107.5 83t-69.5 132.5t-39.5 188.5t-11.5 256v41q0 144 11 249t38.5 187t69.5 134t107.5 86t147.5 47.5t196 13.5h41q112 0 194 -13.5t147 -47.5t107 -86t70 -134t39.5 -187t11.5 -249v-41q0 -144 -11.5 -249t-39.5 -186.5t-70 -134
t-107 -86t-147 -47t-194 -13.5h-41zM674 223h41q103 0 157.5 32t79.5 114.5t25 240.5v213q0 158 -25 240.5t-79.5 114.5t-157.5 32h-41q-104 0 -158.5 -32t-79 -114t-24.5 -241v-213q0 -159 24.5 -241t79 -114t158.5 -32z" />
    <glyph glyph-name="one.lf" horiz-adv-x="720" 
d="M268 0v1157h-237v184l544 113v-1454h-307z" />
    <glyph glyph-name="two.lf" horiz-adv-x="1284" 
d="M399 244h793v-244h-1100v244q0 103 26.5 184.5t71 135t102.5 94.5t122 67.5t128 48.5t122 43t102.5 45.5t71 62t26.5 87.5v14q0 66 -21.5 104t-80.5 58.5t-166 21.5q-215 0 -453 -41v242q208 43 463 43q202 0 329 -50t181.5 -139.5t54.5 -224.5v-28q0 -86 -26.5 -154
t-71 -112t-102.5 -78.5t-122 -59.5t-128 -48t-122 -50.5t-102.5 -61t-71 -85.5t-26.5 -119z" />
    <glyph glyph-name="three.lf" horiz-adv-x="1253" 
d="M922 733q127 -37 188 -115t61 -208v-41q0 -189 -149 -289t-451 -100q-291 0 -499 43v241q104 -18 248 -29.5t241 -11.5q172 0 237.5 40.5t65.5 133.5v31q0 66 -21.5 102.5t-80.5 56t-166 19.5h-262v225h231q147 0 204.5 42t57.5 139v30q0 93 -57 129.5t-199 38.5
q-95 0 -235 -11.5t-244 -29.5v242q208 43 498 43q545 0 545 -379v-41q0 -220 -213 -301z" />
    <glyph glyph-name="four.lf" horiz-adv-x="1355" 
d="M1294 563v-244h-186v-319h-307v319h-750v244l721 871h336v-871h186zM336 563h465v567z" />
    <glyph glyph-name="five.lf" horiz-adv-x="1284" 
d="M637 872q151 0 259 -27.5t172.5 -82t94 -129t29.5 -174.5v-41q0 -208 -143 -323t-447 -115q-131 0 -275 12t-235 31v241q103 -18 252.5 -29.5t247.5 -11.5q87 0 145 13.5t90 40.5t45 61.5t13 83.5v31q0 69 -22 109t-86 62.5t-179 22.5h-465v787h977v-244h-709v-318h236z
" />
    <glyph glyph-name="six.lf" 
d="M823 907q461 0 461 -409v-33q0 -88 -17.5 -160t-58.5 -133.5t-105 -103t-161 -65t-223 -23.5h-41q-168 0 -278 37.5t-176 125t-93 217t-27 326.5v51q0 186 35 318t112.5 222.5t203 133.5t305.5 43q244 0 452 -43v-242q-238 41 -442 41q-204 -1 -281 -91.5t-77 -313.5
v-131q14 22 34.5 48t36 42.5t44 46.5t38.5 41q38 16 63 25.5t80 19.5t115 10zM977 451v32q0 106 -58 157t-214 52q-121 0 -293 -49v-33q0 -210 57 -298.5t209 -88.5h41q135 0 196.5 61t61.5 167z" />
    <glyph glyph-name="seven.lf" horiz-adv-x="1202" 
d="M1161 1434v-244q-21 -30 -61 -87q-76 -108 -113 -161.5t-98 -148t-91 -153t-69.5 -146t-58 -158.5t-32 -158.5t-13.5 -177.5h-308q0 133 35 269t77.5 235.5t130.5 234.5t140 203.5t160 205.5l33 42h-852v244h1120z" />
    <glyph glyph-name="eight.lf" horiz-adv-x="1347" 
d="M971 733q62 -27 108 -54.5t91.5 -68.5t69.5 -97t24 -124v-31q0 -182 -140 -280t-450 -98q-159 0 -274 26t-183.5 76.5t-100.5 118.5t-32 157v31q0 62 24.5 115.5t70 95.5t93 73t109.5 60q-54 28 -95 56.5t-82 69t-63 92t-22 110.5v31q0 362 555 362q553 0 553 -362v-31
q0 -52 -15 -97.5t-38.5 -78t-59 -62.5t-68 -49.5t-75.5 -40.5zM426 1057v-15q0 -41 18.5 -74.5t57 -60t70 -42.5t83.5 -38q5 -2 7 -3t5.5 -2.5t6.5 -2.5q9 4 34.5 15t36 15.5t33.5 15.5t33.5 17.5t29 18.5t27 21.5t21 24t18 28t9.5 31t4 36.5v15q0 82 -58 123.5t-188 40.5
q-131 -1 -189.5 -42t-58.5 -122zM956 383v14q0 28 -9 52t-19.5 41.5t-35.5 36t-41 29t-53 26t-53.5 22t-59.5 21.5q-7 3 -11 4q-52 -19 -85.5 -32t-75 -35t-65 -44t-40.5 -53.5t-17 -67.5v-14q0 -56 22.5 -91t86.5 -56.5t174 -20.5t173.5 22t86 55.5t22.5 90.5z" />
    <glyph glyph-name="nine.lf" 
d="M688 1454q169 0 279.5 -37.5t177 -125.5t93 -216.5t26.5 -326.5v-52q0 -186 -35 -318t-113.5 -222t-204 -133t-305.5 -43q-244 0 -452 43v241q238 -41 442 -41q206 1 283 91.5t77 314.5v131q-18 -28 -41 -56t-65 -71.5t-49 -50.5q-124 -56 -256 -56q-461 0 -461 410v33
q0 111 28.5 196.5t92.5 152t175 101.5t267 35h41zM664 741q117 0 292 50v32q0 210 -57 298.5t-211 88.5h-41q-134 0 -195 -61t-61 -166v-33q0 -106 58 -157t215 -52z" />
    <glyph glyph-name="zero.osf" horiz-adv-x="1388" 
d="M674 -20q-307 0 -438.5 127t-131.5 425v41q0 287 133.5 420t436.5 133h41q302 0 435.5 -133t133.5 -420v-41q0 -288 -133 -420t-436 -132h-41zM674 223h41q146 0 204 70.5t58 228.5v62q0 158 -58 228.5t-204 70.5h-41q-147 0 -204.5 -70t-57.5 -229v-62q0 -159 57.5 -229
t204.5 -70z" />
    <glyph glyph-name="one.osf" horiz-adv-x="712" 
d="M268 0v829h-237v185l544 112v-1126h-307z" />
    <glyph glyph-name="two.osf" horiz-adv-x="1284" 
d="M401 244h791v-244h-1098v244q0 85 26.5 150.5t71 106.5t102 70t121.5 45t128 27.5t121.5 20.5t102 21t71 33t26.5 52v8q0 60 -55 84t-211 25q-94 2 -221 -9.5t-234 -31.5v235q202 45 463 45q306 0 435.5 -80t129.5 -262v-30q0 -79 -26.5 -137.5t-71 -93t-102 -57.5
t-121.5 -35t-128 -20.5t-121.5 -19t-102 -26.5t-71 -46t-26.5 -75z" />
    <glyph glyph-name="three.osf" horiz-adv-x="1253" 
d="M922 406q127 -37 188 -115.5t61 -208.5v-41q0 -189 -149 -289t-451 -100q-291 0 -499 43v242q104 -18 248 -29.5t241 -11.5q172 0 237.5 40.5t65.5 133.5v30q0 66 -21.5 103t-80.5 56.5t-166 19.5h-262v225h231q147 0 204.5 42t57.5 138v31q0 93 -57 129.5t-199 38.5
q-95 0 -235 -11.5t-244 -29.5v241q208 43 498 43q545 0 545 -378v-41q0 -220 -213 -301z" />
    <glyph glyph-name="four.osf" horiz-adv-x="1355" 
d="M1294 244v-244h-186v-328h-307v328h-750v244l721 862h336v-862h186zM336 244h465v563z" />
    <glyph glyph-name="five.osf" horiz-adv-x="1284" 
d="M637 545q151 0 259 -27.5t172.5 -82.5t94 -129.5t29.5 -174.5v-41q0 -208 -143 -323t-447 -115q-131 0 -275 12t-235 31v242q103 -18 252.5 -29.5t247.5 -11.5q87 0 145 13t90 40t45 61.5t13 83.5v31q0 69 -22 109t-86 62.5t-179 22.5h-465v787h977v-244h-709v-317h236z
" />
    <glyph glyph-name="six.osf" 
d="M823 907q461 0 461 -409v-33q0 -88 -17.5 -160t-58.5 -133.5t-105 -103t-161 -65t-223 -23.5h-41q-168 0 -278 37.5t-176 125t-93 217t-27 326.5v51q0 186 35 318t112.5 222.5t203 133.5t305.5 43q244 0 452 -43v-242q-238 41 -442 41q-204 -1 -281 -91.5t-77 -313.5
v-131q14 22 34.5 48t36 42.5t44 46.5t38.5 41q38 16 63 25.5t80 19.5t115 10zM977 451v32q0 106 -58 157t-214 52q-121 0 -293 -49v-33q0 -210 57 -298.5t209 -88.5h41q135 0 196.5 61t61.5 167z" />
    <glyph glyph-name="seven.osf" horiz-adv-x="1202" 
d="M1161 1106v-244q-21 -30 -61 -87q-76 -108 -113 -161.5t-98 -148t-91 -153t-69.5 -146t-58 -158.5t-32 -158.5t-13.5 -177.5h-308q0 133 35 269t77.5 235.5t130.5 234.5t140 203.5t160 205.5l33 42h-852v244h1120z" />
    <glyph glyph-name="eight.osf" horiz-adv-x="1347" 
d="M971 733q62 -27 108 -54.5t91.5 -68.5t69.5 -97t24 -124v-31q0 -182 -140 -280t-450 -98q-159 0 -274 26t-183.5 76.5t-100.5 118.5t-32 157v31q0 62 24.5 115.5t70 95.5t93 73t109.5 60q-54 28 -95 56.5t-82 69t-63 92t-22 110.5v31q0 362 555 362q553 0 553 -362v-31
q0 -52 -15 -97.5t-38.5 -78t-59 -62.5t-68 -49.5t-75.5 -40.5zM426 1057v-15q0 -41 18.5 -74.5t57 -60t70 -42.5t83.5 -38q5 -2 7 -3t5.5 -2.5t6.5 -2.5q9 4 34.5 15t36 15.5t33.5 15.5t33.5 17.5t29 18.5t27 21.5t21 24t18 28t9.5 31t4 36.5v15q0 82 -58 123.5t-188 40.5
q-131 -1 -189.5 -42t-58.5 -122zM956 383v14q0 28 -9 52t-19.5 41.5t-35.5 36t-41 29t-53 26t-53.5 22t-59.5 21.5q-7 3 -11 4q-52 -19 -85.5 -32t-75 -35t-65 -44t-40.5 -53.5t-17 -67.5v-14q0 -56 22.5 -91t86.5 -56.5t174 -20.5t173.5 22t86 55.5t22.5 90.5z" />
    <glyph glyph-name="nine.osf" 
d="M688 1126q169 0 279.5 -37.5t177 -125.5t93 -216.5t26.5 -326.5v-51q0 -186 -35 -318t-113.5 -222.5t-204 -133.5t-305.5 -43q-244 0 -452 43v242q238 -41 442 -41q206 1 283 91t77 314v131q-18 -28 -41 -56t-65 -71.5t-49 -50.5q-122 -55 -256 -55q-461 0 -461 409v33
q0 111 28.5 196.5t92.5 152t175 101.5t267 35h41zM664 414q120 0 292 49v33q0 210 -57 298.5t-211 88.5h-41q-134 0 -195 -61.5t-61 -166.5v-32q0 -106 58 -157t215 -52z" />
    <glyph glyph-name="zero.tf" 
d="M664 -20q-111 0 -190.5 12t-144.5 44t-106 83t-68.5 132.5t-39 188.5t-11.5 256v41q0 173 17.5 291.5t55 203.5t104.5 132.5t158.5 68.5t224.5 21h41q109 0 189.5 -13.5t144.5 -47.5t105.5 -86.5t69 -134t39 -187t11.5 -248.5v-41q0 -143 -11.5 -248.5t-39 -187t-69 -134
t-105.5 -86t-144 -47t-190 -13.5h-41zM664 223h41q98 0 150 32t76.5 115t24.5 240v213q0 157 -24.5 240t-76.5 115t-150 32h-41q-74 0 -120 -16t-77 -60t-43 -118t-12 -193v-213q0 -119 12 -193t43 -118t77 -60t120 -16z" />
    <glyph glyph-name="one.tf" 
d="M125 0v209l395 16v932h-395v184l702 113v-1229l416 -16v-209h-1118z" />
    <glyph glyph-name="two.tf" 
d="M412 244h852v-244h-1160v244q0 103 28.5 184.5t76.5 135t110.5 94.5t131.5 67.5t138 48.5t131.5 43t110.5 45.5t76.5 62t28.5 87.5v14q0 67 -22.5 104t-87 58t-183.5 22q-251 0 -489 -41v242q208 43 499 43q129 0 228.5 -18t167.5 -52t111.5 -85.5t63 -115t19.5 -143.5
v-28q0 -86 -28.5 -154t-76.5 -112t-110.5 -78.5t-131.5 -59.5t-137.5 -48t-131 -50.5t-110.5 -61t-76.5 -85.5t-28.5 -119z" />
    <glyph glyph-name="three.tf" 
d="M1006 733q133 -37 195.5 -115t62.5 -208v-41q0 -389 -631 -389q-133 0 -287 12.5t-242 30.5v241q100 -18 259.5 -29.5t259.5 -11.5q131 0 204.5 19.5t101 55.5t27.5 99v31q0 66 -22.5 102.5t-87.5 56t-187 19.5h-294v225h264q113 0 177 20t89 58t25 103v30
q0 94 -61.5 130.5t-225.5 37.5q-99 0 -253 -11.5t-255 -29.5v242q88 18 241.5 30.5t286.5 12.5q289 0 431.5 -92t142.5 -287v-41q0 -221 -221 -301z" />
    <glyph glyph-name="four.tf" 
d="M1327 563v-244h-229v-319h-307v319h-750v244l721 871h336v-871h229zM326 563h465v570z" />
    <glyph glyph-name="five.tf" 
d="M709 872q152 0 260 -27.5t172.5 -82t93.5 -129t29 -174.5v-41q0 -209 -142.5 -323.5t-447.5 -114.5q-136 0 -310 12.5t-260 30.5v241q99 -17 278 -29t284 -12q85 0 143 13.5t89.5 40.5t44.5 61.5t13 83.5v31q0 51 -11.5 85t-42.5 60t-88 37.5t-144 11.5h-525v787h1037
v-244h-768v-318h295z" />
    <glyph glyph-name="six.tf" 
d="M809 907q455 0 455 -409v-33q0 -111 -28.5 -196.5t-91.5 -152t-172.5 -101.5t-262.5 -35h-45q-163 0 -270 37.5t-172 125t-91.5 217t-26.5 326.5v51q0 186 35 318t111.5 222.5t200 133.5t299.5 43q234 0 442 -43v-242q-238 41 -432 41q-197 -1 -272.5 -91.5t-75.5 -313.5
v-131q47 76 149 178q122 55 248 55zM956 451v32q0 105 -56.5 156.5t-205.5 52.5q-110 0 -282 -49v-33q0 -209 54.5 -298t197.5 -89h45q128 0 187.5 61.5t59.5 166.5z" />
    <glyph glyph-name="seven.tf" 
d="M1274 1434v-244q-21 -31 -63 -90q-76 -108 -112.5 -161.5t-97.5 -147.5t-91 -152.5t-69.5 -145t-58 -157.5t-32 -158.5t-13.5 -177.5h-307q0 133 35 269t77.5 235.5t130.5 234.5t140 203.5t160 205.5l33 42h-912v244h1180z" />
    <glyph glyph-name="eight.tf" 
d="M981 733q61 -27 106.5 -54.5t90 -68.5t68.5 -97t24 -124v-31q0 -378 -586 -378t-586 378v31q0 62 24.5 115.5t69.5 95.5t91.5 72.5t107.5 60.5q-53 28 -93 56.5t-80 69t-61.5 92t-21.5 110.5v31q0 362 549 362t549 -362v-31q0 -64 -21 -117.5t-60 -92.5t-78.5 -65.5
t-92.5 -52.5zM436 1057v-15q0 -41 18.5 -74.5t57 -60t70 -42.5t83.5 -38q5 -2 7 -3t5.5 -2.5t6.5 -2.5q9 4 34.5 15t36 15.5t33.5 15.5t33.5 17.5t29 18.5t27 21.5t21 24t18 28t9.5 31t4 36.5v15q0 82 -58 123.5t-188 40.5q-131 -1 -189.5 -42t-58.5 -122zM967 383v14
q0 38 -15.5 69.5t-39 53t-62 41.5t-72.5 33.5t-82 30.5q-8 3 -12 4q-52 -19 -85.5 -32t-75 -35t-65 -44t-40.5 -53.5t-17 -67.5v-14q0 -56 22.5 -91t86.5 -56.5t174 -20.5t174 22t86.5 56t22.5 90z" />
    <glyph glyph-name="nine.tf" 
d="M705 1454q163 0 269.5 -37.5t171.5 -125t91.5 -217t26.5 -326.5v-52q0 -372 -150 -544t-498 -172q-234 0 -442 43v241q238 -41 432 -41q198 1 274 92t76 314v131q-47 -76 -149 -178q-41 -18 -62.5 -26t-74.5 -19t-111 -11q-455 0 -455 410v33q0 111 28.5 196.5t91.5 152
t172 101.5t261 35h48zM674 741q107 0 282 50v32q0 209 -54.5 298t-196.5 89h-48q-127 0 -186 -61t-59 -166v-33q0 -106 56 -157t206 -52z" />
    <glyph glyph-name="zero.tosf" 
d="M664 -20q-300 0 -430 127.5t-130 424.5v41q0 286 132 419.5t428 133.5h41q295 0 427 -133.5t132 -419.5v-41q0 -287 -132 -419.5t-427 -132.5h-41zM664 223h41q138 0 194.5 70.5t56.5 228.5v62q0 158 -56.5 228.5t-194.5 70.5h-41q-139 0 -195.5 -70.5t-56.5 -228.5v-62
q0 -158 56.5 -228.5t195.5 -70.5z" />
    <glyph glyph-name="one.tosf" 
d="M125 0v209l395 16v604h-395v185l702 112v-901l416 -16v-209h-1118z" />
    <glyph glyph-name="two.tosf" 
d="M412 244h852v-244h-1160v244q0 95 36 166t94 111.5t133 69t153 40.5t153 25t133 23t94 33t36 58v8q0 41 -24.5 63.5t-94 34t-201.5 11.5q-223 3 -462 -41v235q202 45 471 45q232 0 367.5 -36.5t193 -109.5t57.5 -196v-30q0 -79 -28.5 -137.5t-76.5 -93t-110.5 -57.5
t-131.5 -35t-137.5 -20.5t-131 -19t-110.5 -26.5t-76.5 -46t-28.5 -75z" />
    <glyph glyph-name="three.tosf" 
d="M1006 406q132 -37 195 -115.5t63 -208.5v-41q0 -389 -631 -389q-133 0 -287 12.5t-242 30.5v242q100 -18 259.5 -29.5t259.5 -11.5q131 0 204.5 19.5t101 55.5t27.5 99v30q0 66 -22.5 103t-88 56.5t-186.5 19.5h-294v225h264q167 0 229 41.5t62 138.5v31
q0 94 -61.5 130.5t-225.5 37.5q-99 0 -253 -11.5t-255 -29.5v241q88 18 241.5 30.5t286.5 12.5q289 0 431.5 -92t142.5 -286v-41q0 -221 -221 -301z" />
    <glyph glyph-name="four.tosf" 
d="M1327 244v-244h-229v-328h-307v328h-750v244l721 862h336v-862h229zM326 244h465v563z" />
    <glyph glyph-name="five.tosf" 
d="M709 545q290 0 422.5 -106t132.5 -308v-41q0 -207 -152.5 -322.5t-468.5 -115.5q-133 0 -292.5 12.5t-246.5 30.5v242q100 -17 265 -29t266 -12q173 0 247 50.5t74 147.5v31q0 101 -63.5 147.5t-222.5 46.5h-525v787h1037v-244h-768v-317h295z" />
    <glyph glyph-name="six.tosf" 
d="M813 907q451 0 451 -409v-33q0 -111 -28.5 -196.5t-91.5 -152t-172.5 -101.5t-262.5 -35h-41q-165 0 -272.5 37.5t-173 125t-92 217t-26.5 326.5v51q0 186 35 318t111.5 222.5t200 133.5t299.5 43q244 0 452 -43v-242q-238 41 -442 41q-197 -1 -272.5 -91.5t-75.5 -313.5
v-131q9 15 21.5 32t22.5 29t27 31.5t24.5 28t28 30.5t25.5 27q122 55 252 55zM956 451v32q0 105 -56.5 156.5t-205.5 52.5q-110 0 -282 -49v-33q0 -209 55.5 -298t200.5 -89h41q128 0 187.5 61.5t59.5 166.5z" />
    <glyph glyph-name="seven.tosf" 
d="M1274 1106v-244q-21 -31 -63 -90q-76 -108 -112.5 -161.5t-97.5 -147.5t-91 -152.5t-69.5 -145t-58 -157.5t-32 -158.5t-13.5 -177.5h-307q0 133 35 269t77.5 235.5t130.5 234.5t140 203.5t160 205.5l33 42h-912v244h1180z" />
    <glyph glyph-name="eight.tosf" 
d="M981 733q61 -27 106.5 -54.5t90 -68.5t68.5 -97t24 -124v-31q0 -89 -31.5 -157t-99.5 -118.5t-182.5 -76.5t-272.5 -26q-311 0 -448.5 97.5t-137.5 280.5v31q0 62 24 116t68.5 96t91.5 72.5t109 59.5q-54 30 -93.5 58t-79.5 68t-61.5 91.5t-21.5 110.5v31q0 362 549 362
t549 -362v-31q0 -64 -21 -117.5t-60 -92.5t-78.5 -65.5t-92.5 -52.5zM436 1057v-15q0 -41 18.5 -74.5t57 -60t70 -42.5t83.5 -38q5 -2 7 -3t5.5 -2.5t6.5 -2.5q9 4 34.5 15t36 15.5t33.5 15.5t33.5 17.5t29 18.5t27 21.5t21 24t18 28t9.5 31t4 36.5v15q0 82 -58 123.5
t-188 40.5q-131 -1 -189.5 -42t-58.5 -122zM967 383v14q0 38 -15.5 69.5t-39 53t-62 41.5t-72.5 33.5t-82 30.5q-8 3 -12 4q-52 -19 -85.5 -32t-75 -35t-65 -44t-40.5 -53.5t-17 -67.5v-14q0 -56 22.5 -91t86.5 -56.5t174 -20.5t174 22t86.5 56t22.5 90z" />
    <glyph glyph-name="nine.tosf" 
d="M698 1126q165 0 273 -37.5t174 -125t92.5 -217t26.5 -326.5v-51q0 -372 -150.5 -544.5t-497.5 -172.5q-244 0 -452 43v242q238 -41 442 -41q198 1 274 91.5t76 313.5v131q-9 -15 -21.5 -32t-22.5 -29t-27 -31.5t-24.5 -28t-28 -30.5t-25.5 -27q-38 -16 -63 -25.5
t-78 -19.5t-111 -10q-451 0 -451 409v33q0 111 28.5 196.5t91.5 152t172 101.5t261 35h41zM674 414q110 0 282 49v33q0 209 -55.5 298t-202.5 89h-41q-127 0 -186 -61.5t-59 -166.5v-32q0 -106 56 -157t206 -52z" />
    <glyph glyph-name="zero.subs" horiz-adv-x="989" 
d="M479 -117q-82 0 -139.5 8.5t-105 30.5t-77 57.5t-49.5 92.5t-28 132.5t-8 180.5v29q0 151 19 245.5t68 153t124 80.5t196 22h29q121 0 196 -22t124 -80.5t68 -153t19 -245.5v-29q0 -201 -37.5 -307.5t-123 -150.5t-246.5 -44h-29zM479 72h29q97 0 132.5 48.5t35.5 190.5
v176q0 142 -35.5 191t-132.5 49h-29q-96 0 -132 -49t-36 -191v-176q0 -142 36 -190.5t132 -48.5z" />
    <glyph glyph-name="one.subs" horiz-adv-x="708" 
d="M233 -102v796h-161v142l401 79v-1017h-240z" />
    <glyph glyph-name="two.subs" horiz-adv-x="931" 
d="M311 86h547v-188h-786v188q0 92 29.5 159t76.5 103t103.5 60.5t113 39.5t103.5 32t76.5 46.5t29.5 73.5v10q0 62 -36 89t-136 28q-124 3 -323 -29v187q147 30 331 30q215 0 309.5 -74.5t94.5 -217.5v-23q0 -67 -23 -118t-60.5 -80t-85.5 -52.5t-97.5 -37t-97.5 -33.5
t-85.5 -41.5t-60.5 -60t-23 -91.5z" />
    <glyph glyph-name="three.subs" horiz-adv-x="931" 
d="M682 412q176 -52 176 -226v-28q0 -132 -106 -203.5t-324 -71.5q-204 0 -356 31v186q173 -28 348 -28q114 0 156 25t42 83v21q0 63 -35.5 88.5t-136.5 25.5h-190v172h170q94 0 131 26.5t37 86.5v21q0 59 -37 82.5t-129 23.5q-57 2 -158 -7t-184 -22v187q147 30 360 30
q388 0 388 -266v-28q0 -150 -152 -209z" />
    <glyph glyph-name="four.subs" horiz-adv-x="1028" 
d="M956 305v-188h-125v-219h-239v219h-520v188l497 596h262v-596h125zM291 305h301v365z" />
    <glyph glyph-name="five.subs" horiz-adv-x="931" 
d="M463 516q214 0 304.5 -74.5t90.5 -220.5v-28q0 -146 -102.5 -228t-321.5 -82q-210 0 -362 31v186q173 -28 354 -28q111 0 151.5 31t40.5 96v20q0 66 -38.5 95.5t-149.5 29.5h-330v557h701v-188h-492v-197h154z" />
    <glyph glyph-name="six.subs" horiz-adv-x="989" 
d="M594 532q160 0 240.5 -69t80.5 -215v-21q0 -80 -20.5 -140.5t-65.5 -107.5t-125 -71.5t-192 -24.5h-29q-121 0 -199 25t-126 85.5t-67 151.5t-19 232v37q0 260 107 380.5t362 120.5q180 0 323 -30v-187q-194 32 -315 29q-135 0 -186.5 -57.5t-51.5 -198.5v-109
q11 16 27 36t28.5 33.5t32.5 35t29 31.5q90 34 166 34zM676 215v21q0 67 -38 100t-140 33q-61 2 -187 -29v-29q0 -129 37.5 -184t134.5 -55h29q164 0 164 143z" />
    <glyph glyph-name="seven.subs" horiz-adv-x="942" 
d="M870 901v-188q-21 -30 -73 -105t-71 -103.5t-59 -92t-56 -97.5t-42 -92.5t-36 -103.5t-18.5 -103t-8.5 -118h-242q0 90 22.5 180t52.5 159t84 152.5t93.5 136t104.5 133.5q29 36 43 54h-592v188h798z" />
    <glyph glyph-name="eight.subs" horiz-adv-x="989" 
d="M719 412q42 -19 73 -38.5t61 -48t46 -67t16 -84.5v-22q0 -269 -421 -269q-422 0 -422 269v22q0 82 54.5 137.5t145.5 100.5q-50 27 -84.5 53t-63 72t-28.5 100v22q0 126 100.5 191t297.5 65q397 0 397 -256v-22q0 -82 -47 -133.5t-125 -91.5zM336 631v-10
q0 -28 12.5 -50.5t43 -42t46 -27.5t56.5 -26q88 38 115 61q41 36 42 85v10q0 53 -36.5 79.5t-120.5 26.5q-84 -1 -121 -27.5t-37 -78.5zM676 172v10q0 24 -10 44t-23.5 33.5t-39 27t-45 21t-53.5 20.5q-7 3 -11 4q-45 -17 -70 -28t-55 -29.5t-44 -41t-14 -51.5v-10
q0 -54 40 -81.5t143 -27.5q103 1 142.5 28.5t39.5 80.5z" />
    <glyph glyph-name="nine.subs" horiz-adv-x="989" 
d="M506 915q120 0 197.5 -25t125.5 -85.5t67 -151t19 -231.5v-37q0 -261 -105.5 -381.5t-360.5 -120.5q-174 0 -326 31v186q193 -31 315 -28q135 0 186.5 57.5t51.5 198.5v108q-13 -21 -32 -43.5t-47.5 -52t-37.5 -39.5q-87 -35 -164 -35q-162 0 -242.5 69.5t-80.5 215.5v20
q0 165 93 254.5t312 89.5h29zM489 430q67 -2 187 29v28q0 130 -36.5 185t-133.5 55h-29q-166 0 -166 -143v-21q0 -67 38.5 -100t139.5 -33z" />
    <glyph glyph-name="zero.dnom" horiz-adv-x="989" 
d="M479 -14q-98 0 -163 13t-115 44.5t-76.5 90t-39.5 143t-13 210.5v29q0 201 37.5 307.5t123 150.5t246.5 44h29q161 0 246.5 -44t123 -150.5t37.5 -307.5v-29q0 -151 -19 -245.5t-68 -153t-124 -80.5t-196 -22h-29zM479 174h29q97 0 132.5 49t35.5 191v176
q0 142 -35.5 190.5t-132.5 48.5h-29q-96 0 -132 -48.5t-36 -190.5v-176q0 -142 36 -191t132 -49z" />
    <glyph glyph-name="one.dnom" horiz-adv-x="708" 
d="M233 0v797h-161v141l401 80v-1018h-240z" />
    <glyph glyph-name="two.dnom" horiz-adv-x="931" 
d="M311 188h547v-188h-786v188q0 92 29.5 159t76.5 103t103.5 60.5t113 39.5t103.5 32t76.5 46.5t29.5 73.5v11q0 61 -36 88t-136 28q-129 3 -323 -28v186q152 31 331 31q214 0 309 -75t95 -218v-23q0 -67 -23 -118t-60.5 -80t-85.5 -52.5t-97.5 -37t-97.5 -33.5
t-85.5 -41.5t-60.5 -60t-23 -91.5z" />
    <glyph glyph-name="three.dnom" horiz-adv-x="931" 
d="M682 514q90 -26 133 -81t43 -144v-29q0 -132 -106 -203t-324 -71q-209 0 -356 30v187q179 -29 348 -29q114 0 156 25.5t42 83.5v20q0 63 -35.5 89t-136.5 26h-190v172h170q94 0 131 26t37 86v21q0 59 -37 82.5t-129 23.5q-58 2 -159 -6.5t-183 -21.5v186q152 31 360 31
q388 0 388 -266v-29q0 -150 -152 -209z" />
    <glyph glyph-name="four.dnom" horiz-adv-x="1028" 
d="M956 408v-189h-125v-219h-239v219h-520v189l497 596h262v-596h125zM291 408h301v364z" />
    <glyph glyph-name="five.dnom" horiz-adv-x="931" 
d="M463 618q214 0 304.5 -74.5t90.5 -219.5v-29q0 -145 -102.5 -227t-321.5 -82q-215 0 -362 30v187q179 -29 354 -29q111 0 151.5 31t40.5 96v21q0 66 -38.5 95t-149.5 29h-330v558h701v-189h-492v-197h154z" />
    <glyph glyph-name="six.dnom" horiz-adv-x="989" 
d="M594 635q160 0 240.5 -69.5t80.5 -215.5v-20q0 -80 -20.5 -140.5t-65.5 -107.5t-125 -71.5t-192 -24.5h-29q-121 0 -199 25t-126 85.5t-67 151t-19 231.5v37q0 260 107 381t362 121q175 0 323 -31v-186q-170 28 -315 28q-135 0 -186.5 -57.5t-51.5 -198.5v-108
q14 21 32.5 43t47.5 53t37 39q2 1 12.5 5t14.5 5.5t14 5t16.5 5t17.5 4.5t20 4t21 3t24.5 2.5t25.5 0.5zM676 317v21q0 67 -37.5 99.5t-140.5 33.5q-61 2 -187 -29v-28q0 -130 37.5 -185t134.5 -55h29q164 0 164 143z" />
    <glyph glyph-name="seven.dnom" horiz-adv-x="942" 
d="M870 1004v-189q-21 -30 -73 -105t-71 -103.5t-59 -92t-56 -97.5t-42 -92.5t-36 -103.5t-18.5 -103t-8.5 -118h-242q0 90 22.5 180t52.5 159t84 152.5t93.5 136t104.5 133.5q29 36 43 54h-592v189h798z" />
    <glyph glyph-name="eight.dnom" horiz-adv-x="989" 
d="M719 514q42 -19 73 -38.5t61 -48t46 -67t16 -84.5v-22q0 -268 -421 -268q-422 0 -422 268v22q0 82 54.5 137.5t145.5 100.5q-50 27 -84.5 53t-63 72t-28.5 100v23q0 126 100.5 191t297.5 65q397 0 397 -256v-23q0 -82 -47 -133.5t-125 -91.5zM336 733v-10q0 -27 12.5 -49
t36 -38.5t45.5 -28t52 -24.5q4 -2 6.5 -3t5.5 -2q87 38 113 59q43 36 44 86v10q0 53 -37 80t-120 27q-84 -1 -121 -27.5t-37 -79.5zM676 274v11q0 29 -12.5 51.5t-39.5 39.5t-51 27.5t-65 25.5q-9 3 -14 5q-37 -14 -56.5 -22t-47.5 -22.5t-42.5 -28t-25.5 -33.5t-11 -43v-11
q0 -54 40 -81t143 -27q103 1 142.5 28t39.5 80z" />
    <glyph glyph-name="nine.dnom" horiz-adv-x="989" 
d="M506 1018q120 0 197.5 -25t125.5 -85.5t67 -151.5t19 -232v-37q0 -261 -105.5 -381t-360.5 -120q-179 0 -326 30v187q179 -29 315 -29q135 0 186.5 57.5t51.5 198.5v109q-13 -21 -31.5 -43.5t-48.5 -53.5t-37 -39q-85 -34 -164 -34q-162 0 -242.5 69t-80.5 215v21
q0 165 93 254.5t312 89.5h29zM489 532q67 -2 187 29v29q0 130 -36.5 184.5t-133.5 54.5h-29q-166 0 -166 -143v-20q0 -66 38.5 -99.5t139.5 -34.5z" />
    <glyph glyph-name="zero.numr" horiz-adv-x="989" 
d="M479 416q-82 0 -139.5 8.5t-105 30.5t-77 57.5t-49.5 92.5t-28 132.5t-8 180.5v28q0 201 37.5 307.5t123 150.5t246.5 44h29q161 0 246.5 -44t123 -150.5t37.5 -307.5v-28q0 -201 -37.5 -307.5t-123 -150.5t-246.5 -44h-29zM479 604h29q97 0 132.5 49t35.5 191v176
q0 142 -35.5 191t-132.5 49h-29q-96 0 -132 -49t-36 -191v-176q0 -142 36 -191t132 -49z" />
    <glyph glyph-name="one.numr" horiz-adv-x="708" 
d="M233 430v797h-161v141l401 80v-1018h-240z" />
    <glyph glyph-name="two.numr" horiz-adv-x="931" 
d="M311 618h547v-188h-786v188q0 92 29.5 159t76.5 103t103.5 60.5t113 40t103.5 32.5t76.5 46.5t29.5 73.5v10q0 62 -36 89t-136 28q-124 3 -323 -29v186q152 31 331 31q214 0 309 -75t95 -218v-22q0 -76 -29.5 -131t-76.5 -85t-103.5 -51.5t-113.5 -40t-104 -41.5
t-76.5 -64.5t-29.5 -101.5z" />
    <glyph glyph-name="three.numr" horiz-adv-x="931" 
d="M682 944q90 -26 133 -81t43 -144v-29q0 -132 -106 -203t-324 -71q-209 0 -356 30v187q179 -29 348 -29q114 0 156 25.5t42 83.5v20q0 63 -35.5 89t-136.5 26h-190v172h170q94 0 131 26.5t37 86.5v20q0 59 -37 83t-129 24q-57 2 -158 -7t-184 -22v186q152 31 360 31
q388 0 388 -266v-29q0 -150 -152 -209z" />
    <glyph glyph-name="four.numr" horiz-adv-x="1028" 
d="M956 838v-189h-125v-219h-239v219h-520v189l497 596h262v-596h125zM291 838h301v364z" />
    <glyph glyph-name="five.numr" horiz-adv-x="931" 
d="M463 1049q214 0 304.5 -74.5t90.5 -220.5v-29q0 -145 -102.5 -227t-321.5 -82q-215 0 -362 30v187q179 -29 354 -29q111 0 151.5 31t40.5 96v21q0 66 -38.5 95.5t-149.5 29.5h-330v557h701v-189h-492v-196h154z" />
    <glyph glyph-name="six.numr" horiz-adv-x="989" 
d="M594 1065q160 0 240.5 -69.5t80.5 -215.5v-20q0 -80 -20.5 -140.5t-65.5 -107.5t-125 -71.5t-192 -24.5h-29q-121 0 -199 25t-126 85.5t-67 151t-19 231.5v37q0 260 107 381t362 121q175 0 323 -31v-186q-176 29 -315 29q-135 0 -186.5 -57.5t-51.5 -198.5v-109
q14 21 32.5 43t47.5 53t37 39q2 1 12.5 5t14.5 5.5t14 5t16.5 5t17.5 4.5t20 4t21 3t24.5 2.5t25.5 0.5zM676 748v20q0 67 -37.5 99.5t-140.5 33.5q-61 2 -187 -29v-28q0 -130 37.5 -185t134.5 -55h29q164 0 164 144z" />
    <glyph glyph-name="seven.numr" horiz-adv-x="942" 
d="M870 1434v-189q-21 -30 -73 -105t-71 -103.5t-59 -92t-56 -97.5t-42 -92.5t-36 -103.5t-18.5 -103t-8.5 -118h-242q0 90 22.5 180t52.5 159t84 152.5t93.5 136t104.5 133.5q29 36 43 54h-592v189h798z" />
    <glyph glyph-name="eight.numr" horiz-adv-x="989" 
d="M719 944q90 -41 143 -95.5t53 -141.5v-23q0 -268 -421 -268q-422 0 -422 268v23q0 82 54.5 137t145.5 100q-50 27 -84.5 53t-63 72t-28.5 100v23q0 126 100.5 191t297.5 65q397 0 397 -256v-23q0 -82 -47 -133.5t-125 -91.5zM336 1163v-10q0 -27 12.5 -49t36 -38.5
t45.5 -28t52 -24.5q4 -2 6.5 -3t5.5 -2q87 38 113 59q43 36 44 86v10q0 53 -37 80t-120 27q-84 -1 -121 -27.5t-37 -79.5zM676 705v10q0 29 -12.5 51.5t-39.5 39.5t-51 27.5t-65 25.5q-9 3 -14 5q-37 -14 -56.5 -22t-47.5 -22.5t-42.5 -28t-25.5 -33.5t-11 -43v-10
q0 -54 40 -81.5t143 -27.5q103 1 142.5 28.5t39.5 80.5z" />
    <glyph glyph-name="nine.numr" horiz-adv-x="989" 
d="M506 1448q120 0 197.5 -25t125.5 -85.5t67 -151.5t19 -232v-36q0 -261 -105.5 -381.5t-360.5 -120.5q-179 0 -326 30v187q179 -29 315 -29q135 0 186.5 57.5t51.5 198.5v109q-13 -21 -32 -43.5t-47.5 -52t-37.5 -39.5q-87 -35 -164 -35q-162 0 -242.5 69t-80.5 215v21
q0 165 93 254.5t312 89.5h29zM489 963q70 -2 187 28v29q0 130 -36.5 185t-133.5 55h-29q-166 0 -166 -144v-20q0 -66 38 -99t140 -34z" />
    <glyph glyph-name="zero.sups" horiz-adv-x="989" 
d="M479 518q-82 0 -139.5 8.5t-105 30.5t-77 57.5t-49.5 92.5t-28 132.5t-8 180.5v29q0 151 19 245.5t68 153t124 80.5t196 22h29q121 0 196 -22t124 -80.5t68 -153t19 -245.5v-29q0 -201 -37.5 -307.5t-123 -150.5t-246.5 -44h-29zM479 707h29q97 0 132.5 48.5t35.5 190.5
v176q0 142 -35.5 191t-132.5 49h-29q-96 0 -132 -49t-36 -191v-176q0 -142 36 -190.5t132 -48.5z" />
    <glyph glyph-name="four.sups" horiz-adv-x="1028" 
d="M956 940v-188h-125v-220h-239v220h-520v188l497 596h262v-596h125zM291 940h301v365z" />
    <glyph glyph-name="five.sups" horiz-adv-x="931" 
d="M463 1151q214 0 304.5 -74.5t90.5 -220.5v-29q0 -145 -102.5 -227t-321.5 -82q-210 0 -362 31v186q173 -28 354 -28q111 0 151.5 31t40.5 96v20q0 66 -38.5 95.5t-149.5 29.5h-330v557h701v-188h-492v-197h154z" />
    <glyph glyph-name="six.sups" horiz-adv-x="989" 
d="M594 1167q160 0 240.5 -69t80.5 -215v-21q0 -80 -20.5 -140.5t-65.5 -107.5t-125 -71.5t-192 -24.5h-29q-121 0 -199 25t-126 85.5t-67 151.5t-19 232v37q0 260 107 380.5t362 120.5q180 0 323 -30v-187q-176 29 -315 29q-135 0 -186.5 -57.5t-51.5 -198.5v-109
q11 16 27 36t28.5 33.5t32.5 35t29 31.5q90 34 166 34zM676 850v20q0 67 -37.5 100t-140.5 34q-61 2 -187 -29v-29q0 -129 37.5 -184t134.5 -55h29q164 0 164 143z" />
    <glyph glyph-name="seven.sups" horiz-adv-x="942" 
d="M870 1536v-188q-20 -29 -72.5 -105t-71 -103.5t-59.5 -92t-56.5 -98t-41.5 -92.5t-36 -103.5t-18.5 -103t-8.5 -118.5h-242q0 50 7.5 100t16 91.5t29.5 91.5t35 83t45.5 84t47 76t55 78t53 70.5t57.5 73t54 68.5h-592v188h798z" />
    <glyph glyph-name="eight.sups" horiz-adv-x="989" 
d="M719 1047q42 -19 73 -38.5t61 -48t46 -67t16 -84.5v-23q0 -268 -421 -268q-422 0 -422 268v23q0 82 54.5 137.5t145.5 100.5q-50 27 -84.5 53t-63 72t-28.5 100v22q0 126 100.5 191t297.5 65q397 0 397 -256v-22q0 -82 -47 -133.5t-125 -91.5zM336 1266v-11
q0 -27 12.5 -49t36 -38.5t45.5 -28t52 -24.5q4 -2 6.5 -3t5.5 -2q87 38 113 59q43 36 44 86v11q0 53 -36.5 79.5t-120.5 26.5q-84 -1 -121 -27.5t-37 -78.5zM676 807v10q0 24 -10 44t-23.5 33.5t-39 27t-45 21t-53.5 20.5q-7 3 -11 4q-45 -17 -70 -28t-55 -29.5t-44 -41
t-14 -51.5v-10q0 -54 40 -81.5t143 -27.5q103 1 142.5 28.5t39.5 80.5z" />
    <glyph glyph-name="nine.sups" horiz-adv-x="989" 
d="M506 1550q120 0 197.5 -25t125.5 -85.5t67 -151t19 -231.5v-37q0 -261 -105.5 -381.5t-360.5 -120.5q-174 0 -326 31v186q173 -28 315 -28q135 0 186.5 57.5t51.5 198.5v108q-13 -21 -32 -43.5t-47.5 -52t-37.5 -39.5q-87 -35 -164 -35q-162 0 -242.5 69.5t-80.5 215.5
v20q0 165 93 254.5t312 89.5h29zM489 1065q67 -2 187 29v28q0 130 -36.5 185t-133.5 55h-29q-166 0 -166 -143v-21q0 -66 38 -99t140 -34z" />
    </font>
</defs>
</svg>
