<?xml version="1.0" standalone="no"?>
<!DOCTYPE svg PUBLIC "-//W3C//DTD SVG 1.1//EN" "http://www.w3.org/Graphics/SVG/1.1/DTD/svg11.dtd" >
<svg xmlns="http://www.w3.org/2000/svg" xmlns:xlink="http://www.w3.org/1999/xlink" version="1.1">
<metadata>
Created by FontForge 20170731 at Wed Sep  8 10:22:57 2021
 By Aleksey,,,
Copyright (c) 2017 by Dino dos Santos, Pedro leal. All rights reserved.
</metadata>
<defs>
<font id="CertoSans-Light" horiz-adv-x="1249" >
  <font-face 
    font-family="Certo Sans Light"
    font-weight="100"
    font-stretch="normal"
    units-per-em="2048"
    panose-1="0 0 2 0 0 0 0 0 0 0"
    ascent="1608"
    descent="-440"
    x-height="1106"
    cap-height="1434"
    bbox="-1475 -522 2355 2058"
    underline-thickness="102"
    underline-position="-307"
    unicode-range="U+0020-FB02"
  />
<missing-glyph horiz-adv-x="1024" 
d="M840 1608v-2048h-650v2048h650zM682 1470h-338v-67h133v-76h-135v-67h340v67h-135v76h135v67zM547 1206h-205v-213h340v70h-135v143zM477 1137v-74h-67v74h67zM682 938h-340v-68h135v-75h-135v-68h205v143h135v68zM682 815h-68v-135h-272v-70h340v205zM682 565h-205v-114
h70v47h67v-97h-204v164h-68v-231h340v231zM682 211h-340v-231h340v231zM614 143v-96h-204v96h204zM682 -68h-340v-67h143l-143 -96v-68h340v68h-209l143 96h66v67z" />
    <glyph glyph-name="fi" unicode="fi" horiz-adv-x="1167" 
d="M655 1475q-67 0 -107.5 -3.5t-75.5 -15.5t-52.5 -31t-30.5 -56t-16.5 -83t-3.5 -119v-61h614v-1106h-143v983h-471v-983h-144v983h-184v102l184 21v61q0 127 19.5 208t69 135t131.5 76t210 22h328v-133h-328z" />
    <glyph glyph-name="fl" unicode="fl" horiz-adv-x="1167" 
d="M655 1608h328v-1608h-143v1475h-185q-67 0 -107.5 -3.5t-75.5 -15.5t-52.5 -31t-30.5 -56t-16.5 -83t-3.5 -119v-61h266v-123h-266v-983h-144v983h-184v102l184 21v61q0 127 19.5 208t69 135t131.5 76t210 22z" />
    <glyph glyph-name=".notdef" horiz-adv-x="1024" 
d="M840 1608v-2048h-650v2048h650zM682 1470h-338v-67h133v-76h-135v-67h340v67h-135v76h135v67zM547 1206h-205v-213h340v70h-135v143zM477 1137v-74h-67v74h67zM682 938h-340v-68h135v-75h-135v-68h205v143h135v68zM682 815h-68v-135h-272v-70h340v205zM682 565h-205v-114
h70v47h67v-97h-204v164h-68v-231h340v231zM682 211h-340v-231h340v231zM614 143v-96h-204v96h204zM682 -68h-340v-67h143l-143 -96v-68h340v68h-209l143 96h66v67z" />
    <glyph glyph-name=".null" horiz-adv-x="0" 
 />
    <glyph glyph-name="nonmarkingreturn" horiz-adv-x="682" 
 />
    <glyph glyph-name="space" unicode=" " horiz-adv-x="491" 
 />
    <glyph glyph-name="exclam" unicode="!" horiz-adv-x="389" 
d="M154 307l-31 1024v103h143v-103l-30 -1024h-82zM102 0v184h185v-184h-185z" />
    <glyph glyph-name="quotedbl" unicode="&#x22;" horiz-adv-x="696" 
d="M143 1116l-41 287v184h185v-184l-41 -287h-103zM451 1116l-41 287v184h184v-184l-41 -287h-102z" />
    <glyph glyph-name="numbersign" unicode="#" horiz-adv-x="1556" 
d="M1454 891h-354l-47 -328h340v-123h-357l-63 -440h-133l63 440h-328l-63 -440h-133l63 440h-340v123h357l47 328h-342v123h360l60 420h133l-60 -420h328l59 420h134l-60 -420h336v-123zM920 563l47 328h-328l-47 -328h328z" />
    <glyph glyph-name="dollar" unicode="$" horiz-adv-x="1269" 
d="M1167 389q0 -193 -114 -292.5t-367 -114.5v-187h-123v185q-186 4 -461 51v137q88 -17 133 -25t140.5 -18.5t187.5 -11.5v546q-50 4 -89.5 9.5t-87 18.5t-83 31t-71 48t-58.5 69t-37 95t-14 125q0 191 104.5 286.5t335.5 110.5v186h123v-184q155 -4 420 -57v-137
q-223 56 -420 61v-535q63 -5 105.5 -10.5t97.5 -17.5t91.5 -29.5t74.5 -47t60.5 -68.5t37 -96t14.5 -128zM266 1055q0 -61 17 -106t42.5 -72t67 -44.5t79.5 -25t91 -12.5v524q-90 -5 -147.5 -22t-91 -50.5t-46 -78.5t-12.5 -113zM686 115q101 5 167 23.5t103.5 53.5
t52.5 81.5t15 115.5q0 47 -10 84.5t-25.5 63.5t-42 45.5t-52 31t-64 19.5t-69.5 11.5t-75 6.5v-536z" />
    <glyph glyph-name="percent" unicode="%" horiz-adv-x="1536" 
d="M393 758q-150 0 -220.5 82t-70.5 247v29q0 170 70 251t221 81h29q153 0 223 -81t70 -251v-29q0 -163 -71 -246t-222 -83h-29zM143 0l1076 1434h153l-1075 -1434h-154zM393 881h29q72 0 110.5 47.5t38.5 136.5v74q0 97 -37.5 141.5t-111.5 44.5h-29q-73 0 -110 -44.5
t-37 -141.5v-74q0 -89 38 -136.5t109 -47.5zM1112 -20q-150 0 -220.5 82t-70.5 247v29q0 170 70 251t221 81h29q153 0 223 -81t70 -251v-29q0 -163 -71 -246t-222 -83h-29zM1112 102h29q72 0 110.5 48t38.5 137v73q0 97 -37.5 142t-111.5 45h-29q-147 0 -147 -187v-73
q0 -89 38 -137t109 -48z" />
    <glyph glyph-name="ampersand" unicode="&#x26;" horiz-adv-x="1392" 
d="M1122 266l148 -143v-123h-62l-161 156q-80 -87 -196.5 -133t-256.5 -46q-214 0 -342.5 103t-128.5 297v20q0 122 81.5 217.5t205.5 153.5q-76 78 -120 160.5t-44 187.5q0 112 64.5 189.5t168.5 113t238 35.5q115 0 196.5 -13t192.5 -44v-137q-99 33 -182 47t-207 14
q-75 -2 -130 -11t-102 -31t-71.5 -63t-24.5 -100q0 -49 13.5 -92t44.5 -85.5t59 -73t78 -79.5l432 -417q28 85 28 192v205h144v-205q0 -169 -66 -295zM594 111q240 3 354 137l-444 428q-107 -42 -172.5 -112t-65.5 -167v-20q0 -125 82 -197t246 -69z" />
    <glyph glyph-name="quotesingle" unicode="'" horiz-adv-x="389" 
d="M143 1116l-41 287v184h185v-184l-41 -287h-103z" />
    <glyph glyph-name="parenleft" unicode="(" horiz-adv-x="778" 
d="M389 737v-41q0 -267 16.5 -446.5t55.5 -299.5t101 -173t155 -53h41v-134h-41q-111 0 -191 43t-134 126.5t-86.5 220t-46 308.5t-13.5 408v41q0 235 13.5 407t46 309t86.5 220t134 126.5t191 43.5h41v-133h-41q-93 0 -155 -53t-101 -173.5t-55.5 -300t-16.5 -446.5z" />
    <glyph glyph-name="parenright" unicode=")" horiz-adv-x="778" 
d="M389 737q0 267 -16.5 446.5t-55.5 300t-101 173.5t-155 53h-41v133h41q111 0 191 -43.5t134 -126.5t86.5 -220t46 -309t13.5 -407v-41q0 -236 -13.5 -408t-46 -308.5t-86.5 -220t-134 -126.5t-191 -43h-41v134h41q93 0 155 53t101 173t55.5 299.5t16.5 446.5v41z" />
    <glyph glyph-name="asterisk" unicode="*" horiz-adv-x="757" 
d="M655 1237l-200 -90l200 -90l-61 -107l-178 131l24 -221h-123l25 221l-178 -131l-62 107l203 90l-203 90l62 106l178 -131l-25 222h123l-24 -222l178 131z" />
    <glyph glyph-name="plus" unicode="+" horiz-adv-x="1024" 
d="M451 307v348h-349v123h349v348h122v-348h349v-123h-349v-348h-122z" />
    <glyph glyph-name="comma" unicode="," horiz-adv-x="389" 
d="M72 -287l92 287h-62v184h185v-184l-113 -287h-102z" />
    <glyph glyph-name="hyphen" unicode="-" horiz-adv-x="921" 
d="M102 492v122h717v-122h-717z" />
    <glyph glyph-name="period" unicode="." horiz-adv-x="389" 
d="M102 0v184h185v-184h-185z" />
    <glyph glyph-name="slash" unicode="/" horiz-adv-x="1167" 
d="M102 0l820 1434h143l-819 -1434h-144z" />
    <glyph glyph-name="zero" unicode="0" horiz-adv-x="1310" 
d="M635 -20q-150 0 -245 33t-156.5 117.5t-86 219t-24.5 346.5v41q0 213 23.5 346.5t84 218.5t156.5 118.5t248 33.5h41q150 0 245 -33.5t156.5 -118t86 -219t24.5 -346.5v-41q0 -212 -24.5 -346.5t-86 -219t-156.5 -117.5t-245 -33h-41zM635 113h41q91 0 149 14t103.5 49
t69 103t35 167t11.5 250v41q0 126 -7 214.5t-25 155.5t-44 107t-69.5 64.5t-95.5 33.5t-127 9h-41q-76 0 -127.5 -9t-95 -33.5t-70 -64.5t-44.5 -107t-25 -155.5t-7 -214.5v-41q0 -126 7 -214.5t25 -155t44 -106.5t70 -64.5t95.5 -33.5t127.5 -9z" />
    <glyph glyph-name="one" unicode="1" horiz-adv-x="634" 
d="M307 0v1249h-266v103l410 102v-1454h-144z" />
    <glyph glyph-name="two" unicode="2" horiz-adv-x="1187" 
d="M246 133h839v-133h-983v133q0 117 28 209.5t75.5 153t109 107t129.5 76.5t136 56.5t129.5 53.5t109 59t75.5 81.5t28 114.5v21q0 71 -15.5 116t-56 77.5t-109.5 46.5t-178 16q-220 3 -420 -41v137q185 37 420 37q260 0 381 -94.5t121 -294.5v-21q0 -86 -28 -151.5
t-75.5 -108t-109 -75.5t-129.5 -59.5t-135.5 -54t-129 -66.5t-109 -89t-75.5 -128t-28 -179z" />
    <glyph glyph-name="three" unicode="3" horiz-adv-x="1167" 
d="M819 729q246 -65 246 -330v-41q0 -378 -533 -378q-270 0 -450 36v138q75 -16 201 -28.5t249 -12.5q213 0 301.5 57.5t88.5 187.5v41q0 94 -29 147.5t-108 81t-222 27.5h-225v133h194q191 0 270 59.5t79 196.5v41q0 132 -79.5 183t-269.5 53q-229 3 -430 -41v137
q185 37 430 37q240 0 366 -88t126 -281v-41q0 -234 -205 -315z" />
    <glyph glyph-name="four" unicode="4" horiz-adv-x="1269" 
d="M1208 481v-133h-225v-348h-143v348h-779v133l758 953h164v-953h225zM215 481h625v785z" />
    <glyph glyph-name="five" unicode="5" horiz-adv-x="1187" 
d="M584 829q258 0 379.5 -99.5t121.5 -301.5v-41q0 -195 -128 -301t-384 -106q-123 0 -259.5 10.5t-211.5 25.5v138q73 -16 209.5 -28.5t261.5 -12.5q106 0 179 18.5t114 56t58.5 85.5t17.5 114v41q0 71 -15.5 118.5t-55 82.5t-110 51t-177.5 16h-441v738h861v-134h-717
v-471h297z" />
    <glyph glyph-name="six" unicode="6" horiz-adv-x="1290" 
d="M727 911q123 0 214 -32t144 -90.5t78 -134.5t25 -171v-41q0 -77 -16.5 -143.5t-54.5 -126t-95 -101.5t-142.5 -66.5t-193.5 -24.5h-41q-152 0 -254 44t-161 138t-83 221.5t-24 312.5v41q0 379 146 548t458 169q214 0 399 -37v-137q-199 43 -399 41q-177 -2 -276.5 -60
t-142 -182t-42.5 -342v-20q41 54 103 110q37 19 56.5 27.5t67 25t105.5 24t129 7.5zM1044 442v41q0 73 -16 124t-56.5 90.5t-114 59.5t-183.5 21q-47 0 -93 -4t-78 -9t-73 -16t-59.5 -17t-57.5 -19.5t-47 -16.5q0 -129 10 -219t35 -162.5t68 -115t108.5 -64.5t157.5 -22h41
q188 0 273 89.5t85 239.5z" />
    <glyph glyph-name="seven" unicode="7" horiz-adv-x="1105" 
d="M1065 1434v-134q-73 -107 -108 -158.5t-98 -148t-94.5 -150t-81 -140t-74 -144t-56 -136.5t-46.5 -142.5t-25.5 -136.5t-10.5 -144h-143q0 108 19 214t59 210.5t84 196.5t112.5 202t125 194t139.5 204q13 18 19.5 27.5t16.5 24.5t19 27h-881v134h1024z" />
    <glyph glyph-name="eight" unicode="8" horiz-adv-x="1269" 
d="M823 731q60 -25 100.5 -45t91 -54.5t80.5 -70.5t51 -89t21 -116v-20q0 -185 -128 -272t-404 -87t-404.5 87t-128.5 272v20q0 218 347 371q-63 32 -110.5 63.5t-95.5 75.5t-74 99.5t-26 119.5v21q0 348 492 348q491 0 491 -348v-21q0 -51 -11 -94.5t-34.5 -77t-48.5 -59.5
t-64 -49.5t-69.5 -38.5t-75.5 -35zM287 1085q0 -27 6 -51t19.5 -45.5t27 -38t38.5 -34t43 -29.5t51 -28t51.5 -24.5t56.5 -24.5t55 -24q26 12 71 30t71.5 29.5t63 30t58.5 37.5t43.5 44t31 57t9.5 71v21q0 109 -81 163.5t-267 51.5q-188 -3 -268 -55t-80 -160v-21zM1024 336
v20q0 34 -10 64t-23.5 52.5t-41.5 45.5t-48.5 37t-61.5 32.5t-63.5 28t-71.5 28t-69 26.5q-175 -70 -238 -106q-151 -88 -151 -208v-20q0 -56 16.5 -95t58 -70.5t119.5 -46t195 -13.5t195 16.5t119.5 46t58 68.5t16.5 94z" />
    <glyph glyph-name="nine" unicode="9" horiz-adv-x="1290" 
d="M645 1454q122 0 211.5 -30t149 -85.5t95.5 -145.5t51 -199.5t15 -256.5v-41q0 -379 -146 -547.5t-458 -168.5q-219 0 -399 36v138q199 -43 399 -41q261 3 361 132t100 451v21q-45 -60 -102 -111q-37 -19 -57 -27.5t-67 -25t-105.5 -24t-129.5 -7.5q-123 0 -214 32
t-144 90.5t-78 134.5t-25 171v41q0 77 16.5 143.5t54.5 126t95 102t142.5 67t193.5 24.5h41zM616 655q47 0 93 4t78 9t73 16t59.5 17t57.5 19.5t47 16.5q0 161 -16 265.5t-58.5 179t-116 107t-188.5 32.5h-41q-188 0 -273 -90t-85 -240v-41q0 -73 16 -124t56.5 -90.5
t114 -59.5t183.5 -21z" />
    <glyph glyph-name="colon" unicode=":" horiz-adv-x="389" 
d="M102 717v184h185v-184h-185zM102 0v184h185v-184h-185z" />
    <glyph glyph-name="semicolon" unicode=";" horiz-adv-x="389" 
d="M102 717v184h185v-184h-185zM72 -287l92 287h-62v184h185v-184l-113 -287h-102z" />
    <glyph glyph-name="less" unicode="&#x3c;" horiz-adv-x="1024" 
d="M922 1004v-123l-596 -164l596 -164v-123l-820 225v123z" />
    <glyph glyph-name="equal" unicode="=" horiz-adv-x="1024" 
d="M102 819v123h820v-123h-820zM102 492v122h820v-122h-820z" />
    <glyph glyph-name="greater" unicode="&#x3e;" horiz-adv-x="1024" 
d="M102 1004l820 -226v-123l-820 -225v123l596 164l-596 164v123z" />
    <glyph glyph-name="question" unicode="?" horiz-adv-x="1105" 
d="M481 1454q263 0 382.5 -100.5t119.5 -329.5v-20q0 -227 -118.5 -328t-379.5 -103l-24 -266h-82l-31 266v134h133q109 2 177.5 16.5t109.5 51t56.5 90t15.5 139.5v20q0 86 -15.5 139.5t-56.5 90t-109.5 51t-177.5 16.5q-220 3 -420 -41v137q185 37 420 37zM328 0v184h184
v-184h-184z" />
    <glyph glyph-name="at" unicode="@" horiz-adv-x="1720" 
d="M860 1290q144 0 251 -15t191 -51t138.5 -90.5t90.5 -138.5t51 -191t15 -251q0 -72 -7.5 -129t-27.5 -110.5t-52.5 -89t-86 -56.5t-125.5 -21h-243l-11 129q-43 -64 -79 -102q-97 -43 -217 -43q-110 0 -178 60t-68 165q0 66 23 112t68.5 73t101 41t134.5 20l215 19v114
q0 62 -37.5 93t-119.5 32q-135 2 -301 -31v134q154 30 313 30q153 0 221 -58.5t68 -186.5v-490h110q53 0 85 22t51.5 88.5t19.5 184.5q0 127 -10 216t-37.5 159t-69 112t-110.5 69.5t-155.5 37.5t-211.5 10t-211.5 -10t-155.5 -37.5t-110.5 -69.5t-69 -112t-37.5 -159
t-10 -216t10 -216t37.5 -159t69 -112t110.5 -69.5t155.5 -37.5t211.5 -10q254 0 371 49l39 -129q-149 -53 -410 -53q-144 0 -251 15t-191 51t-138.5 90.5t-90.5 138.5t-51 191t-15 251t15 251t51 191t90.5 138.5t138.5 90.5t191 51t251 15zM1044 295v217l-190 -14
q-124 -9 -166.5 -37t-42.5 -90q0 -114 141 -117q45 -1 124 12t134 29z" />
    <glyph glyph-name="A" unicode="A" horiz-adv-x="1228" 
d="M1034 0l-157 461h-545l-148 -461h-143l471 1444h174l502 -1444h-154zM375 594h456l-235 694z" />
    <glyph glyph-name="B" unicode="B" horiz-adv-x="1331" 
d="M985 733q223 -76 223 -323v-41q0 -179 -112 -274t-369 -95h-543v1434h502q132 0 226 -24t149.5 -71.5t80.5 -112t25 -151.5v-41q0 -209 -182 -301zM328 1300v-512h358q183 0 260.5 57.5t77.5 188.5v41q0 128 -75 176.5t-263 48.5h-358zM1065 369v41q0 137 -76 191
t-262 54h-399v-522h399q185 0 261.5 53t76.5 183z" />
    <glyph glyph-name="C" unicode="C" horiz-adv-x="1290" 
d="M717 -20q-166 0 -275 33.5t-182.5 116.5t-105 219.5t-31.5 346.5v41q0 210 31.5 346.5t105 220t182.5 117t275 33.5h41q191 0 430 -61v-133q-229 61 -430 61h-41q-104 0 -173.5 -14t-126 -50t-88 -102.5t-47.5 -167.5t-16 -250v-41q0 -124 10 -214t34.5 -155.5
t57.5 -106.5t86.5 -65t114.5 -33t148 -9h41q201 0 430 61v-133q-239 -61 -430 -61h-41z" />
    <glyph glyph-name="D" unicode="D" horiz-adv-x="1392" 
d="M717 1434q110 0 190.5 -14.5t143.5 -48.5t104 -85.5t67 -131.5t37 -180.5t11 -236.5v-41q0 -137 -11 -237.5t-37 -180.5t-67 -131t-104 -85t-143.5 -48t-190.5 -14h-533v1434h533zM1126 696v41q0 121 -7 205.5t-26.5 149.5t-47.5 103.5t-76.5 63t-107 33t-144.5 8.5h-389
v-1167h389q86 0 144.5 8.5t107 33t76.5 63t47.5 103.5t26.5 149.5t7 205.5z" />
    <glyph glyph-name="E" unicode="E" 
d="M1147 1300h-819v-512h594v-133h-594v-522h819v-133h-963v1434h963v-134z" />
    <glyph glyph-name="F" unicode="F" horiz-adv-x="1146" 
d="M1106 1300h-778v-552h594v-134h-594v-614h-144v1434h922v-134z" />
    <glyph glyph-name="G" unicode="G" horiz-adv-x="1372" 
d="M717 1321q-104 0 -173.5 -14t-126 -50t-88 -102.5t-47.5 -167.5t-16 -250v-41q0 -124 10 -214t34.5 -155.5t57.5 -106.5t86.5 -65t114.5 -33t148 -9h41q148 0 286 30v574h144v-676q-239 -61 -430 -61h-41q-166 0 -275 33.5t-182.5 116.5t-105 219.5t-31.5 346.5v41
q0 210 31.5 346.5t105 220t182.5 117t275 33.5h41q191 0 430 -61v-133q-229 61 -430 61h-41z" />
    <glyph glyph-name="H" unicode="H" horiz-adv-x="1392" 
d="M1065 1434h143v-1434h-143v655h-737v-655h-144v1434h144v-646h737v646z" />
    <glyph glyph-name="I" unicode="I" horiz-adv-x="512" 
d="M184 0v1434h144v-1434h-144z" />
    <glyph glyph-name="J" unicode="J" horiz-adv-x="675" 
d="M348 1434h144v-994q0 -127 -19.5 -208t-69.5 -134.5t-132 -75.5t-210 -22h-30v133h30q67 0 107.5 3t76 15.5t53 31t30.5 55.5t16.5 83t3.5 119v994z" />
    <glyph glyph-name="K" unicode="K" horiz-adv-x="1208" 
d="M1167 0h-174l-430 655h-235v-655h-144v1434h144v-646h241l414 646h164l-461 -707z" />
    <glyph glyph-name="L" unicode="L" horiz-adv-x="1146" 
d="M328 133h778v-133h-922v1434h144v-1301z" />
    <glyph glyph-name="M" unicode="M" horiz-adv-x="1740" 
d="M1556 1434v-1434h-143v1239l-481 -1239h-144l-471 1239v-1239h-133v1434h205l481 -1260l471 1260h215z" />
    <glyph glyph-name="N" unicode="N" horiz-adv-x="1433" 
d="M1116 1434h133v-1434h-184l-748 1239v-1239h-133v1434h185l747 -1239v1239z" />
    <glyph glyph-name="O" unicode="O" horiz-adv-x="1392" 
d="M676 -20q-110 0 -190.5 14t-143.5 48.5t-104 87t-67 134.5t-37 186t-11 246v41q0 142 11 245.5t37 185.5t67 135t104 87.5t143.5 49t190.5 14.5h41q110 0 190.5 -14.5t143.5 -49t104 -87.5t67 -135t37 -185.5t11 -245.5v-41q0 -142 -11 -246t-37 -186t-67 -134.5
t-104 -87t-143.5 -48.5t-190.5 -14h-41zM676 113h41q86 0 144.5 8.5t107 33.5t76.5 64.5t47.5 107t26.5 155t7 214.5v41q0 127 -7 214.5t-26.5 155t-47.5 107.5t-76.5 65t-107 33.5t-144.5 8.5h-41q-86 0 -144.5 -8.5t-107 -33.5t-77 -65t-48 -107.5t-26.5 -155t-7 -214.5
v-41q0 -127 7 -214.5t26.5 -155t48 -107t77 -64.5t107 -33.5t144.5 -8.5z" />
    <glyph glyph-name="P" unicode="P" horiz-adv-x="1269" 
d="M686 1434q256 0 368.5 -103.5t112.5 -347.5v-41q0 -244 -112.5 -347t-368.5 -103h-358v-492h-144v1434h502zM1024 942v41q0 97 -17.5 158t-60 96.5t-103.5 49t-157 13.5h-358v-675h358q96 0 157 13.5t103.5 49t60 96.5t17.5 158z" />
    <glyph glyph-name="Q" unicode="Q" horiz-adv-x="1392" 
d="M717 1454q110 0 190.5 -14.5t143.5 -49t104 -87.5t67 -135t37 -185.5t11 -245.5v-41q0 -205 -23 -335.5t-82.5 -216t-153.5 -122.5t-243 -42q1 -67 5 -111t17.5 -78t31.5 -51.5t53 -29t75 -14.5t105 -3h30v-133h-30q-126 0 -207 21.5t-131 72.5t-70 128.5t-22 197.5
q-149 5 -243 42t-153.5 122.5t-82.5 216t-23 335.5v41q0 142 11 245.5t37 185.5t67 135t104 87.5t143.5 49t190.5 14.5h41zM1126 696v41q0 127 -7 214.5t-26.5 155t-47.5 107.5t-76.5 65t-107 33.5t-144.5 8.5h-41q-86 0 -144.5 -8.5t-107 -33.5t-77 -65t-48 -107.5
t-26.5 -155t-7 -214.5v-41q0 -127 7 -214.5t26.5 -155t48 -107t77 -64.5t107 -33.5t144.5 -8.5h41q86 0 144.5 8.5t107 33.5t76.5 64.5t47.5 107t26.5 155t7 214.5z" />
    <glyph glyph-name="R" unicode="R" horiz-adv-x="1290" 
d="M1167 983q0 -196 -95.5 -296t-319.5 -112l374 -575h-174l-364 573h-260v-573h-144v1434h502q176 0 283.5 -48t152.5 -136.5t45 -225.5v-41zM1024 983v41q0 76 -15.5 126t-54 85t-103.5 50t-165 15h-358v-593h358q100 0 165 15t103.5 50t54 85t15.5 126z" />
    <glyph glyph-name="S" unicode="S" horiz-adv-x="1269" 
d="M645 788q72 -5 113 -9t104 -15.5t99.5 -27.5t81 -45.5t68 -69t40 -98.5t16.5 -134q0 -210 -135 -309.5t-438 -99.5q-204 0 -492 51v137q271 -55 492 -55q173 0 267 29.5t128.5 87t34.5 159.5q0 58 -14 102t-40 71t-59.5 44.5t-77 26t-87 13t-94.5 7.5q-8 0 -13 0.5t-12 1
t-13 0.5q-58 4 -96 8t-94.5 15t-94 27.5t-80 46.5t-67.5 69.5t-42 99.5t-17 134q0 209 125 304t407 95q170 0 451 -57v-137q-242 61 -451 61q-158 0 -242.5 -27t-115.5 -82t-31 -157q0 -174 141 -229q66 -27 222 -37h1h1h1h1h1h1h1h1l1 -1h1h1h1h1h1h1h1z" />
    <glyph glyph-name="T" unicode="T" horiz-adv-x="1167" 
d="M1126 1434v-134h-471v-1300h-143v1300h-471v134h1085z" />
    <glyph glyph-name="U" unicode="U" horiz-adv-x="1474" 
d="M328 1434v-799q0 -118 9 -197t33.5 -145t68 -103t112 -57t166.5 -20h41q98 0 166.5 20t112 57t68 103t33.5 145t9 197v799h143v-799q0 -136 -14 -235t-49.5 -181.5t-95.5 -133t-152.5 -78t-220.5 -27.5h-41q-128 0 -220.5 27.5t-153 78t-96 133t-49.5 181.5t-14 235v799
h144z" />
    <glyph glyph-name="V" unicode="V" horiz-adv-x="1228" 
d="M1044 1434h144l-471 -1444h-174l-502 1444h154l438 -1289z" />
    <glyph glyph-name="W" unicode="W" horiz-adv-x="1812" 
d="M1638 1434h134l-400 -1444h-170l-299 1227l-305 -1227h-168l-389 1444h154l325 -1244l309 1244h164l303 -1254z" />
    <glyph glyph-name="X" unicode="X" horiz-adv-x="1341" 
d="M1219 0h-164l-391 616l-388 -616h-153l463 737h2l-443 697h164l363 -572l372 572h154l-450 -691z" />
    <glyph glyph-name="Y" unicode="Y" horiz-adv-x="1146" 
d="M983 1434h143l-471 -963v-471h-143v471l-492 963h164l408 -818z" />
    <glyph glyph-name="Z" unicode="Z" horiz-adv-x="1228" 
d="M272 123h854v-123h-1024v123l834 1188h-813v123h983v-123z" />
    <glyph glyph-name="bracketleft" unicode="[" horiz-adv-x="696" 
d="M246 -410v2253h430v-123h-287v-2007h287v-123h-430z" />
    <glyph glyph-name="backslash" unicode="\" horiz-adv-x="1167" 
d="M1065 0h-143l-820 1434h144z" />
    <glyph glyph-name="bracketright" unicode="]" horiz-adv-x="696" 
d="M451 -410h-431v123h287v2007h-287v123h431v-2253z" />
    <glyph glyph-name="asciicircum" unicode="^" horiz-adv-x="757" 
d="M92 430l225 574h123l226 -574h-134l-153 389l-154 -389h-133z" />
    <glyph glyph-name="underscore" unicode="_" horiz-adv-x="1024" 
d="M102 -205v123h820v-123h-820z" />
    <glyph glyph-name="grave" unicode="`" horiz-adv-x="552" 
d="M451 1260h-123l-226 317h185z" />
    <glyph glyph-name="a" unicode="a" horiz-adv-x="1167" 
d="M614 1126q193 0 281 -74.5t88 -242.5v-809h-133l-10 154q-48 -63 -103 -113q-49 -25 -135.5 -43t-171.5 -18q-146 0 -237 76.5t-91 219.5q0 73 23 127.5t61 88.5t99 57t123.5 33.5t148.5 17.5l283 23v186q0 181 -226 184q-200 2 -399 -41v138q180 36 399 36zM840 174v326
l-277 -21q-100 -7 -162.5 -21.5t-96.5 -39.5t-46 -55t-12 -76q0 -86 55 -129t152 -45q68 -1 188.5 18t198.5 43z" />
    <glyph glyph-name="b" unicode="b" 
d="M727 1126q143 0 227.5 -47t128 -164.5t43.5 -320.5v-82q0 -152 -26 -256t-80.5 -164.5t-130 -86t-182.5 -25.5q-153 0 -277 63q-52 47 -102 113l-11 -156h-133v1587h144v-637q50 66 102 113q50 26 131.5 44.5t165.5 18.5zM983 512v82q0 89 -6 151t-21.5 107t-37 72
t-59 43t-79.5 21t-106 5q-79 1 -174.5 -17.5t-171.5 -45.5v-754q76 -27 171.5 -45.5t174.5 -17.5q95 0 150 14.5t93 58.5t52 120.5t14 205.5z" />
    <glyph glyph-name="c" unicode="c" horiz-adv-x="1146" 
d="M614 993q-54 0 -91.5 -2.5t-74.5 -10t-61 -20.5t-46.5 -35t-35 -52.5t-22.5 -74t-13.5 -98.5t-3.5 -127v-41q0 -96 6.5 -162.5t25 -114.5t42 -75t66.5 -42.5t89 -20t119 -4.5h21q210 0 399 41v-134q-193 -40 -399 -40h-21q-97 0 -168 10.5t-127.5 36.5t-92.5 66.5
t-59.5 103.5t-33.5 144t-10 191v41q0 110 10 191t33.5 144t59.5 103.5t92.5 67t127.5 37t168 10.5h21q201 0 399 -41v-133q-189 41 -399 41h-21z" />
    <glyph glyph-name="d" unicode="d" 
d="M1065 0h-133l-10 156q-48 -63 -103 -113q-50 -26 -131.5 -44.5t-165.5 -18.5q-143 0 -227.5 47t-128 164.5t-43.5 320.5v82q0 152 26 256t81 164.5t130.5 86t182.5 25.5q152 0 276 -63q55 -50 103 -113v637h143v-1587zM575 113q80 -1 175.5 17.5t171.5 45.5v754
q-73 26 -169.5 44.5t-177.5 18.5q-95 0 -150 -14.5t-93 -58.5t-52 -120.5t-14 -205.5v-82q0 -89 6 -150.5t22 -106.5t37 -71.5t58.5 -42.5t79.5 -21.5t106 -6.5z" />
    <glyph glyph-name="e" unicode="e" horiz-adv-x="1167" 
d="M1044 502h-778q1 -89 8.5 -150.5t26.5 -105.5t43 -69.5t66.5 -40t87.5 -19t116 -4.5h21q210 0 399 41v-134q-193 -40 -399 -40h-21q-97 0 -168 10.5t-127.5 36.5t-92.5 66.5t-59.5 103.5t-33.5 144t-10 191v41q0 133 13 223t42 156.5t82.5 103t128 53.5t184.5 17h21
q110 0 184.5 -17t128 -53.5t82.5 -103t42 -156.5t13 -223v-71zM573 993q-69 0 -111 -4t-80 -18t-57 -37t-33.5 -66.5t-19.5 -99.5t-6 -143h635q-1 87 -6 143t-19.5 99.5t-33.5 66.5t-57 37t-80 18t-111 4h-21z" />
    <glyph glyph-name="f" unicode="f" horiz-adv-x="655" 
d="M655 1608h31v-133h-31q-67 0 -107.5 -3.5t-75.5 -15.5t-52.5 -31t-30.5 -56t-16.5 -83t-3.5 -119v-61h266v-123h-266v-983h-144v983h-184v102l184 21v61q0 127 19.5 208t69 135t131.5 76t210 22z" />
    <glyph glyph-name="g" unicode="g" 
d="M932 1106h133v-993q0 -166 -23 -269.5t-81.5 -168.5t-150 -90t-237.5 -25h-20q-201 0 -399 41v133q189 -41 399 -41h20q73 0 119 4.5t89 20t67 43t42 75t25 114.5t7 163v43q-48 -63 -103 -113q-50 -26 -131.5 -44.5t-165.5 -18.5q-143 0 -227.5 47t-128 164.5
t-43.5 320.5v82q0 152 26 256t81 164.5t130.5 86t182.5 25.5q152 0 276 -63q55 -50 103 -113zM575 113q80 -1 175.5 17.5t171.5 45.5v754q-73 26 -169.5 44.5t-177.5 18.5q-95 0 -150 -14.5t-93 -58.5t-52 -120.5t-14 -205.5v-82q0 -89 6 -150.5t22 -106.5t37 -71.5
t58.5 -42.5t79.5 -21.5t106 -6.5z" />
    <glyph glyph-name="h" unicode="h" 
d="M1065 0h-143v809q0 98 -52 141t-174 43q-67 0 -178 -19.5t-190 -43.5v-930h-144v1587h144v-637q50 66 102 113q49 25 139.5 44t178.5 19q155 0 236 -76.5t81 -230.5v-819z" />
    <glyph glyph-name="i" unicode="i" horiz-adv-x="512" 
d="M164 1290v164h184v-164h-184zM328 0h-144v1106h144v-1106z" />
    <glyph glyph-name="j" unicode="j" horiz-adv-x="512" 
d="M164 1290v164h184v-164h-184zM-133 -440v133h31q67 0 107.5 3t75.5 15.5t52.5 31t30.5 55.5t16.5 83t3.5 119v1106h144v-1106q0 -127 -19.5 -208t-69 -134.5t-131.5 -75.5t-210 -22h-31z" />
    <glyph glyph-name="k" unicode="k" horiz-adv-x="1085" 
d="M874 0l-411 532h-135v-532h-144v1587h144v-932h168l364 451h154l-418 -524l448 -582h-170z" />
    <glyph glyph-name="l" unicode="l" horiz-adv-x="512" 
d="M328 0h-144v1587h144v-1587z" />
    <glyph glyph-name="m" unicode="m" horiz-adv-x="1986" 
d="M1485 1126q155 0 236 -76.5t81 -230.5v-819h-143v809q0 98 -51.5 141t-173.5 43q-81 0 -192.5 -17.5t-190.5 -41.5q14 -49 14 -115v-819h-143v809q0 98 -52 141t-174 43q-68 0 -179 -18.5t-189 -42.5v-932h-144v1106h133l11 -154q45 60 102 111q49 25 139.5 44t178.5 19
q235 0 296 -174q43 57 103 111q50 25 143.5 44t194.5 19z" />
    <glyph glyph-name="n" unicode="n" 
d="M1065 0h-143v809q0 98 -52 141t-174 43q-68 0 -179 -18.5t-189 -42.5v-932h-144v1106h133l11 -154q45 60 102 111q49 25 139.5 44t178.5 19q155 0 236 -76.5t81 -230.5v-819z" />
    <glyph glyph-name="o" unicode="o" horiz-adv-x="1208" 
d="M584 -20q-97 0 -166 10.5t-122 37t-85 66t-52.5 104t-28 143t-7.5 191.5v41q0 112 7.5 190.5t28 143.5t53 104.5t85 66.5t121.5 37.5t166 10.5h41q97 0 166 -10.5t121.5 -37.5t85 -66.5t52.5 -104.5t27.5 -143.5t7.5 -190.5v-41q0 -113 -7.5 -191.5t-27.5 -143
t-52.5 -104t-85 -66t-121.5 -37t-166 -10.5h-41zM584 113h41q58 0 96.5 2t74 10.5t56 19.5t39 35.5t27 52t15 74.5t8 97.5t1.5 127.5v41q0 77 -1.5 127.5t-8 97.5t-15 74.5t-27 52t-39 36t-56 20t-74 10.5t-96.5 2h-41q-58 0 -96.5 -2t-74 -10.5t-56.5 -20t-39.5 -36
t-27 -52t-15 -74.5t-8 -97.5t-1.5 -127.5v-41q0 -103 3 -163.5t16.5 -112.5t31.5 -76t57.5 -41.5t85.5 -21.5t124 -4z" />
    <glyph glyph-name="p" unicode="p" 
d="M727 1126q143 0 227.5 -47t128 -164.5t43.5 -320.5v-82q0 -152 -26 -256t-80.5 -164.5t-130 -86t-182.5 -25.5q-153 0 -277 63q-52 47 -102 113v-576h-144v1526h133l11 -156q50 66 102 113q50 26 131.5 44.5t165.5 18.5zM983 512v82q0 89 -6 151t-21.5 107t-37 72t-59 43
t-79.5 21t-106 5q-79 1 -174.5 -17.5t-171.5 -45.5v-754q76 -27 171.5 -45.5t174.5 -17.5q95 0 150 14.5t93 58.5t52 120.5t14 205.5z" />
    <glyph glyph-name="q" unicode="q" 
d="M1065 -420h-143v576q-48 -63 -103 -113q-50 -26 -131.5 -44.5t-165.5 -18.5q-143 0 -227.5 47t-128 164.5t-43.5 320.5v82q0 152 26 256t81 164.5t130.5 86t182.5 25.5q152 0 276 -63q55 -50 103 -113l10 156h133v-1526zM575 113q80 -1 175.5 17.5t171.5 45.5v754
q-73 26 -169.5 44.5t-177.5 18.5q-95 0 -150 -14.5t-93 -58.5t-52 -120.5t-14 -205.5v-82q0 -89 6 -150.5t22 -106.5t37 -71.5t58.5 -42.5t79.5 -21.5t106 -6.5z" />
    <glyph glyph-name="r" unicode="r" horiz-adv-x="747" 
d="M317 1106l11 -154q45 60 102 111q51 26 131 44.5t166 18.5v-153q-85 0 -135 -1.5t-128.5 -11t-135.5 -28.5v-932h-144v1106h133z" />
    <glyph glyph-name="s" unicode="s" horiz-adv-x="1105" 
d="M573 625q61 -5 101 -10t89.5 -15t81.5 -24t65 -37.5t51.5 -54.5t30.5 -76t12 -101q0 -168 -117.5 -247.5t-364.5 -79.5q-240 0 -420 36v138q200 -44 420 -41q134 1 207.5 21t102 60.5t28.5 112.5q0 47 -17 80t-34.5 50.5t-68.5 29.5t-75.5 14.5t-99.5 8.5q-15 1 -22 2
q-51 4 -86 7.5t-84 13t-82 23t-69.5 37.5t-58 55t-36 77.5t-14.5 103.5q0 159 110 238t320 79q229 0 409 -36v-138q-200 43 -409 41q-160 -1 -223.5 -43.5t-63.5 -140.5q0 -45 18.5 -78t39.5 -50t70.5 -29.5t76 -15.5t91.5 -9q7 -1 11.5 -1.5t9.5 -0.5z" />
    <glyph glyph-name="t" unicode="t" horiz-adv-x="716" 
d="M696 983h-327v-563q0 -64 2 -103.5t10 -75t21 -54t36.5 -32t55 -18t79.5 -4.5h123v-133h-133q-71 0 -121 8t-89 28.5t-62.5 50.5t-39 79t-21 109t-5.5 145v563h-184v102l184 21l21 328h123v-328h327v-123z" />
    <glyph glyph-name="u" unicode="u" 
d="M502 -20q-156 0 -237 76.5t-81 230.5v819h144v-809q0 -98 51.5 -141t173.5 -43q67 0 178.5 19.5t190.5 43.5v930h143v-1106h-133l-10 156q-56 -71 -103 -113q-49 -25 -139 -44t-178 -19z" />
    <glyph glyph-name="v" unicode="v" horiz-adv-x="1064" 
d="M881 1106h143l-399 -1116h-164l-420 1116h154l352 -959z" />
    <glyph glyph-name="w" unicode="w" horiz-adv-x="1761" 
d="M1587 1106h133l-358 -1116h-164l-315 930l-299 -930h-164l-379 1116h154l315 -956l299 956h164l315 -956z" />
    <glyph glyph-name="x" unicode="x" horiz-adv-x="1044" 
d="M1004 0l-168 -2l-322 459l-319 -457h-154l401 559l-381 547h168l306 -434l294 434h154l-377 -537z" />
    <glyph glyph-name="y" unicode="y" horiz-adv-x="1064" 
d="M881 1106h143l-399 -1106q-46 -128 -103 -213t-135.5 -135.5t-172.5 -71t-224 -20.5v133q85 0 144.5 7.5t114 26.5t95.5 54t78 88t72 131h-74l-379 1106h154l333 -1008z" />
    <glyph glyph-name="z" unicode="z" horiz-adv-x="1044" 
d="M252 123h711v-123h-881v123l690 860h-670v123h840v-123z" />
    <glyph glyph-name="braceleft" unicode="{" horiz-adv-x="778" 
d="M502 1024q0 -131 -48.5 -205t-146.5 -102q98 -28 146.5 -102t48.5 -205v-451q0 -119 47.5 -177t167.5 -58h41v-134h-41q-83 0 -147 21t-103.5 55.5t-64.5 83.5t-34.5 99.5t-9.5 109.5v451q0 119 -48 182t-177 63h-31v123h31q67 0 112.5 17.5t69.5 52.5t33.5 76.5
t9.5 99.5v451q0 59 9.5 109.5t34.5 99.5t64.5 83t103.5 55t147 21h41v-133h-41q-120 0 -167.5 -58t-47.5 -177v-451z" />
    <glyph glyph-name="bar" unicode="|" horiz-adv-x="552" 
d="M205 -205v1843h143v-1843h-143z" />
    <glyph glyph-name="braceright" unicode="}" horiz-adv-x="737" 
d="M645 778h31v-123h-31q-129 0 -177 -63t-48 -182v-451q0 -59 -9.5 -109.5t-34.5 -99.5t-64.5 -83.5t-103.5 -55.5t-147 -21h-41v134h41q120 0 167.5 58t47.5 177v451q0 131 48.5 205t146.5 102q-98 28 -146.5 102t-48.5 205v451q0 119 -47.5 177t-167.5 58h-41v133h41
q83 0 147 -21t103.5 -55t64.5 -83t34.5 -99.5t9.5 -109.5v-451q0 -58 9.5 -99.5t33.5 -76.5t69.5 -52.5t112.5 -17.5z" />
    <glyph glyph-name="asciitilde" unicode="~" horiz-adv-x="839" 
d="M584 625q-54 0 -174.5 25.5t-163.5 25.5q-77 0 -144 -41v123q51 41 154 41q54 0 174.5 -25.5t163.5 -25.5q77 0 143 40v-122q-51 -41 -153 -41z" />
    <glyph glyph-name="exclamdown" unicode="&#xa1;" horiz-adv-x="389" 
d="M102 1106h185v-184h-185v184zM154 799h82l30 -1024v-103h-143v103z" />
    <glyph glyph-name="cent" unicode="&#xa2;" horiz-adv-x="1146" 
d="M1034 952q-162 35 -348 41v-880q186 6 348 41v-134q-168 -34 -348 -40v-185h-123v185q-130 5 -212 33t-134.5 93.5t-73 166.5t-20.5 259v41q0 158 20.5 259t73 167t134.5 94t212 33v185h123v-185q174 -5 348 -41v-133zM266 532q0 -90 6 -154t21.5 -111t36.5 -75.5
t56.5 -46t76 -24t100.5 -8.5v880q-60 -2 -100.5 -8.5t-76 -24.5t-56.5 -46.5t-36.5 -75.5t-21.5 -111t-6 -154v-41z" />
    <glyph glyph-name="sterling" unicode="&#xa3;" horiz-adv-x="1187" 
d="M655 1321q-160 0 -243.5 -79.5t-83.5 -227.5q0 -104 41 -236h512v-123h-465q60 -154 74 -219q12 -57 12 -108q0 -131 -92 -195h696v-133h-1004v133q118 0 187 57t69 138q0 28 -4.5 57.5t-16.5 67.5t-19.5 60.5t-27 73t-26.5 68.5h-162v123h119q-37 137 -37 236
q0 204 130 322t341 118q170 0 451 -57v-137q-242 61 -451 61z" />
    <glyph glyph-name="currency" unicode="&#xa4;" horiz-adv-x="1310" 
d="M1188 717q0 -328 -195 -453l154 -264h-143l-125 213q-106 -29 -224 -29q-121 0 -223 29l-125 -213h-143l153 264q-194 124 -194 453q0 328 194 452l-153 265h143l125 -213q98 28 223 28q126 0 224 -28l125 213h143l-154 -265q195 -125 195 -452zM266 717q0 -211 89 -300
t300 -89t300 89t89 300t-89 300t-300 89t-300 -89t-89 -300z" />
    <glyph glyph-name="yen" unicode="&#xa5;" horiz-adv-x="1146" 
d="M1126 1434l-440 -902h297v-122h-328v-410h-143v410h-328v122h297l-461 902h164l408 -818l391 818h143z" />
    <glyph glyph-name="brokenbar" unicode="&#xa6;" horiz-adv-x="552" 
d="M205 819v819h143v-819h-143zM205 -205v819h143v-819h-143z" />
    <glyph glyph-name="section" unicode="&#xa7;" horiz-adv-x="1105" 
d="M543 817q-63 7 -101 12t-89.5 15.5t-82 24.5t-64.5 37.5t-52 54.5t-29.5 75.5t-11.5 100.5q0 159 110 238t320 79q224 0 409 -37v-137q-200 43 -409 41q-160 -1 -223.5 -43.5t-63.5 -140.5q0 -47 17 -80t34.5 -50.5t68.5 -29.5t75.5 -14.5t99.5 -8.5q5 -1 7.5 -1t7 -0.5
t7.5 -0.5q45 -4 81.5 -8t82.5 -12.5t80 -21.5t64.5 -31t46.5 -44t16 -59zM573 627q44 -5 71.5 -8t66 -9t63 -12.5t56 -16.5t51 -23t42 -30t35.5 -38.5t24.5 -48.5t16.5 -60.5t5 -73.5q0 -168 -117.5 -247.5t-364.5 -79.5q-240 0 -420 36v138q200 -44 420 -41q134 1 207.5 21
t102 60.5t28.5 112.5q0 47 -17 80t-34.5 50.5t-68.5 29.5t-75.5 14.5t-99.5 8.5q-15 1 -22 2q-45 4 -81.5 8t-82.5 12.5t-80 21.5t-64.5 31t-46.5 44t-16 59z" />
    <glyph glyph-name="dieresis" unicode="&#xa8;" horiz-adv-x="737" 
d="M102 1290v164h185v-164h-185zM451 1290v164h184v-164h-184z" />
    <glyph glyph-name="copyright" unicode="&#xa9;" horiz-adv-x="1720" 
d="M860 -20q-144 0 -251 15t-191 51t-138.5 90.5t-90.5 138.5t-51 191t-15 251t15 251t51 191t90.5 138.5t138.5 90.5t191 51t251 15t251 -15t191 -51t138.5 -90.5t90.5 -138.5t51 -191t15 -251t-15 -251t-51 -191t-90.5 -138.5t-138.5 -90.5t-191 -51t-251 -15zM860 113
q125 0 211.5 10t155.5 37.5t110.5 69.5t69 112t37.5 159t10 216t-10 216t-37.5 159t-69 112t-110.5 69.5t-155.5 37.5t-211.5 10t-211.5 -10t-155.5 -37.5t-110.5 -69.5t-69 -112t-37.5 -159t-10 -216t10 -216t37.5 -159t69 -112t110.5 -69.5t155.5 -37.5t211.5 -10z
M850 272q-106 0 -173.5 19t-113.5 68t-65 131.5t-19 211.5v25q0 129 19 211.5t65 131.5t113.5 68t173.5 19h24q127 0 281 -37v-121q-146 39 -281 39h-24q-66 0 -106.5 -11t-69 -42.5t-40 -85.5t-11.5 -141v-86q0 -116 23 -176.5t69.5 -82.5t134.5 -22h24q135 0 281 39v-121
q-154 -37 -281 -37h-24z" />
    <glyph glyph-name="ordfeminine" unicode="&#xaa;" horiz-adv-x="880" 
d="M317 641q-101 0 -163 54t-62 151q0 115 77.5 163.5t231.5 61.5l195 16v109q0 56 -35 85t-110 30q-128 2 -281 -29v135q150 27 295 27t209.5 -55.5t64.5 -176.5v-557h-133l-10 125q-33 -57 -74 -100q-84 -39 -205 -39zM428 989q-115 -9 -153.5 -35.5t-38.5 -83.5
q0 -55 34 -82.5t95 -27.5q41 0 113 11.5t118 25.5v204zM41 573h799v-122h-799v122z" />
    <glyph glyph-name="guillemotleft" unicode="&#xab;" horiz-adv-x="1024" 
d="M451 922h163l-348 -369l348 -369h-163l-349 369zM758 922h164l-349 -369l349 -369h-164l-348 369z" />
    <glyph glyph-name="logicalnot" unicode="&#xac;" horiz-adv-x="1024" 
d="M922 481h-123v348h-697v123h820v-471z" />
    <glyph glyph-name="uni00AD" unicode="&#xad;" horiz-adv-x="921" 
d="M102 492v122h717v-122h-717z" />
    <glyph glyph-name="registered" unicode="&#xae;" horiz-adv-x="1720" 
d="M860 1454q144 0 251 -15t191 -51t138.5 -90.5t90.5 -138.5t51 -191t15 -251t-15 -251t-51 -191t-90.5 -138.5t-138.5 -90.5t-191 -51t-251 -15t-251 15t-191 51t-138.5 90.5t-90.5 138.5t-51 191t-15 251t15 251t51 191t90.5 138.5t138.5 90.5t191 51t251 15zM860 113
q125 0 211.5 10t155.5 37.5t110.5 69.5t69 112t37.5 159t10 216t-10 216t-37.5 159t-69 112t-110.5 69.5t-155.5 37.5t-211.5 10t-211.5 -10t-155.5 -37.5t-110.5 -69.5t-69 -112t-37.5 -159t-10 -216t10 -216t37.5 -159t69 -112t110.5 -69.5t155.5 -37.5t211.5 -10z
M901 1147q162 0 230.5 -62.5t68.5 -189.5v-25q0 -108 -48.5 -169t-160.5 -78l203 -336h-164l-192 329h-127v-329h-144v860h334zM1057 870v25q0 71 -35.5 102t-128.5 31h-182v-293h182q93 0 128.5 31.5t35.5 103.5z" />
    <glyph glyph-name="macron" unicode="&#xaf;" horiz-adv-x="655" 
d="M102 1311v123h451v-123h-451z" />
    <glyph glyph-name="degree" unicode="&#xb0;" horiz-adv-x="817" 
d="M393 758q-150 0 -220.5 82t-70.5 247v29q0 170 70 251t221 81h29q153 0 223 -81t70 -251v-29q0 -163 -71 -246t-222 -83h-29zM393 881h29q78 0 113.5 46t35.5 138v74q0 100 -34.5 143t-114.5 43h-29q-78 0 -112.5 -43.5t-34.5 -142.5v-74q0 -184 147 -184z" />
    <glyph glyph-name="plusminus" unicode="&#xb1;" horiz-adv-x="1024" 
d="M451 522v348h-349v123h349v348h122v-348h349v-123h-349v-348h-122zM102 276v123h820v-123h-820z" />
    <glyph glyph-name="uni00B2" unicode="&#xb2;" horiz-adv-x="882" 
d="M225 655h576v-123h-719v123q0 100 31 174t80.5 115t109.5 70t119.5 49t109 42.5t80.5 59.5t31 90v13q0 86 -46.5 121t-180.5 38q-149 3 -303 -28v125q141 26 305 26q192 0 280 -69t88 -209v-17q0 -60 -19 -106.5t-51.5 -76t-74.5 -52.5t-89 -40.5t-93.5 -35.5t-88.5 -42
t-74.5 -55t-51.5 -80t-19 -112z" />
    <glyph glyph-name="uni00B3" unicode="&#xb3;" horiz-adv-x="882" 
d="M627 1044q88 -25 131 -80t43 -149v-29q0 -268 -391 -268q-181 0 -328 27v125q141 -29 326 -29q138 0 193.5 36t55.5 116v26q0 88 -47.5 124t-179.5 36h-168v117h148q121 0 170 36.5t49 122.5v25q0 83 -49 114t-170 33q-163 3 -314 -28v125q141 26 320 26q356 0 356 -260
v-28q0 -161 -145 -218z" />
    <glyph glyph-name="acute" unicode="&#xb4;" horiz-adv-x="552" 
d="M102 1260l164 317h185l-226 -317h-123z" />
    <glyph glyph-name="uni00B5" unicode="&#xb5;" 
d="M922 1106h143v-1106h-133l-10 156q-56 -71 -103 -113q-49 -25 -139 -44t-178 -19q-110 0 -174 43v-23q0 -127 -19.5 -208t-69 -134.5t-131.5 -75.5t-210 -22h-31v133h31q67 0 107.5 3t75.5 15.5t52.5 31t30.5 55.5t16.5 83t3.5 119v1106h144v-809q0 -98 51.5 -141
t173.5 -43q67 0 178.5 19.5t190.5 43.5v930z" />
    <glyph glyph-name="paragraph" unicode="&#xb6;" horiz-adv-x="1290" 
d="M696 0v492h-92q-256 0 -368.5 103t-112.5 347v41q0 244 112.5 347.5t368.5 103.5h502v-1434h-143v1300h-123v-1300h-144z" />
    <glyph glyph-name="periodcentered" unicode="&#xb7;" horiz-adv-x="389" 
d="M102 461v184h185v-184h-185z" />
    <glyph glyph-name="cedilla" unicode="&#xb8;" horiz-adv-x="542" 
d="M246 -92q76 0 135 -41t59 -113v-20q0 -82 -55 -128t-149 -46q-72 0 -134 20v62h52q143 0 143 92v20q0 45 -35 68.5t-98 23.5v174h82v-112z" />
    <glyph glyph-name="uni00B9" unicode="&#xb9;" horiz-adv-x="665" 
d="M260 532v850h-178v95l321 73v-1018h-143z" />
    <glyph glyph-name="ordmasculine" unicode="&#xba;" horiz-adv-x="880" 
d="M426 641q-107 0 -171 17.5t-102.5 65t-51.5 117t-13 187.5v29q0 118 13 187.5t51.5 117t102.5 65t171 17.5h29q107 0 171 -17.5t102.5 -65t51.5 -117t13 -187.5v-29q0 -118 -13 -187.5t-51.5 -117t-102.5 -65t-171 -17.5h-29zM426 764h29q47 0 75 2.5t52 13.5t35.5 25.5
t19.5 46t10 68.5t2 98v49q0 61 -2 98t-10 68.5t-19.5 46t-35.5 25.5t-52 13.5t-75 2.5h-29q-40 0 -66 -2.5t-48.5 -8t-35.5 -18.5t-23 -29.5t-14 -46t-6 -63.5t-2 -86v-49q0 -52 2 -86t6 -63.5t14 -46t23 -29.5t35.5 -18.5t48.5 -8t66 -2.5zM41 451v122h799v-122h-799z" />
    <glyph glyph-name="guillemotright" unicode="&#xbb;" horiz-adv-x="1024" 
d="M266 922l348 -369l-348 -369h-164l349 369l-349 369h164zM573 922l349 -369l-349 -369h-163l348 369l-348 369h163z" />
    <glyph glyph-name="onequarter" unicode="&#xbc;" horiz-adv-x="2107" 
d="M403 430h-143v850h-178v94l321 74v-1018zM1475 1434h153l-1075 -1434h-154zM2025 358v-122h-147v-236h-143v236h-537v122l520 646h160v-646h147zM1339 358h396v492z" />
    <glyph glyph-name="onehalf" unicode="&#xbd;" horiz-adv-x="2203" 
d="M403 430h-143v850h-178v94l321 74v-1018zM1475 1434h153l-1075 -1434h-154zM1546 123h576v-123h-719v123q0 100 31 174t80.5 115t109.5 70t119.5 49t109 42.5t80.5 59.5t31 90v12q0 86 -46.5 121.5t-180.5 38.5q-145 3 -303 -29v125q147 27 305 27q192 0 280 -69t88 -210
v-16q0 -60 -19 -106.5t-51.5 -76t-74.5 -52.5t-89 -40.5t-93.5 -35.5t-88.5 -42t-74.5 -55t-51.5 -80t-19 -112z" />
    <glyph glyph-name="threequarters" unicode="&#xbe;" horiz-adv-x="2283" 
d="M801 684q0 -268 -391 -268q-187 0 -328 26v125q136 -28 326 -28q138 0 193.5 35.5t55.5 115.5v27q0 88 -47.5 124t-179.5 36h-168v116h148q121 0 170 37t49 123v25q0 83 -49 114t-170 33q-158 3 -314 -29v125q147 27 320 27q356 0 356 -260v-29q0 -160 -145 -217
q88 -25 131 -80t43 -149v-29zM1651 1434h153l-1075 -1434h-154zM2202 358v-122h-148v-236h-143v236h-537v122l520 646h160v-646h148zM1516 358h395v492z" />
    <glyph glyph-name="questiondown" unicode="&#xbf;" horiz-adv-x="1105" 
d="M778 1106v-184h-184v184h184zM625 -215q219 -3 419 41v-137q-185 -37 -419 -37q-263 0 -382.5 100.5t-119.5 329.5v20q0 227 118.5 327.5t379.5 102.5l24 267h82l31 -267v-133h-133q-109 0 -177.5 -15t-109.5 -51.5t-56.5 -90.5t-15.5 -140v-20q0 -86 15.5 -139.5
t56.5 -90t109.5 -51t177.5 -16.5z" />
    <glyph glyph-name="Agrave" unicode="&#xc0;" horiz-adv-x="1228" 
d="M666 1587h-123l-226 318h185zM1034 0l-157 461h-545l-148 -461h-143l471 1444h174l502 -1444h-154zM375 594h456l-235 694z" />
    <glyph glyph-name="Aacute" unicode="&#xc1;" horiz-adv-x="1228" 
d="M891 1905l-225 -318h-123l164 318h184zM1034 0l-157 461h-545l-148 -461h-143l471 1444h174l502 -1444h-154zM375 594h456l-235 694z" />
    <glyph glyph-name="Acircumflex" unicode="&#xc2;" horiz-adv-x="1228" 
d="M604 1782l-153 -195h-123l184 318h184l185 -318h-123zM1034 0l-157 461h-545l-148 -461h-143l471 1444h174l502 -1444h-154zM375 594h456l-235 694z" />
    <glyph glyph-name="Atilde" unicode="&#xc3;" horiz-adv-x="1228" 
d="M727 1608q-54 0 -133.5 25.5t-122.5 25.5q-66 0 -133 -41v123q51 41 143 41q54 0 133.5 -25.5t122.5 -25.5q66 0 133 41v-123q-51 -41 -143 -41zM1034 0l-157 461h-545l-148 -461h-143l471 1444h174l502 -1444h-154zM375 594h456l-235 694z" />
    <glyph glyph-name="Adieresis" unicode="&#xc4;" horiz-adv-x="1228" 
d="M522 1782v-164h-184v164h184zM870 1782v-164h-184v164h184zM1034 0l-157 461h-545l-148 -461h-143l471 1444h174l502 -1444h-154zM375 594h456l-235 694z" />
    <glyph glyph-name="Aring" unicode="&#xc5;" horiz-adv-x="1228" 
d="M594 1577q-90 0 -137.5 18.5t-62.5 51.5t-15 94v20q0 61 15 94t62.5 51.5t137.5 18.5h20q90 0 137.5 -18.5t62.5 -51.5t15 -94v-20q0 -61 -15 -94t-62.5 -51.5t-137.5 -18.5h-20zM502 1761v-20q0 -46 15.5 -59t76.5 -13h20q61 0 77 13t16 59v20q0 46 -16 59t-77 13h-20
q-61 0 -76.5 -13t-15.5 -59zM1034 0l-157 461h-545l-148 -461h-143l471 1444h174l502 -1444h-154zM375 594h456l-235 694z" />
    <glyph glyph-name="AE" unicode="&#xc6;" horiz-adv-x="1925" 
d="M1823 1300h-819v-512h593v-133h-593v-522h819v-133h-963v502h-409l-267 -502h-143l768 1434h1014v-134zM520 635h340v643z" />
    <glyph glyph-name="Ccedilla" unicode="&#xc7;" horiz-adv-x="1290" 
d="M717 1321q-104 0 -173.5 -14t-126 -50t-88 -102.5t-47.5 -167.5t-16 -250v-41q0 -124 10 -214t34.5 -155.5t57.5 -106.5t86.5 -65t114.5 -33t148 -9h41q201 0 430 61v-133q-239 -61 -430 -61v-72q76 0 135 -41t59 -113v-20q0 -82 -55 -128t-149 -46q-72 0 -134 20v62h52
q143 0 143 92v20q0 45 -35 68.5t-98 23.5v134q-154 4 -255.5 40.5t-170 120t-98 218t-29.5 337.5v41q0 210 31.5 346.5t105 220t182.5 117t275 33.5h41q191 0 430 -61v-133q-229 61 -430 61h-41z" />
    <glyph glyph-name="Egrave" unicode="&#xc8;" 
d="M645 1587h-123l-225 318h184zM1147 1300h-819v-512h594v-133h-594v-522h819v-133h-963v1434h963v-134z" />
    <glyph glyph-name="Eacute" unicode="&#xc9;" 
d="M870 1905l-225 -318h-123l164 318h184zM1147 1300h-819v-512h594v-133h-594v-522h819v-133h-963v1434h963v-134z" />
    <glyph glyph-name="Ecircumflex" unicode="&#xca;" 
d="M584 1782l-154 -195h-123l185 318h184l184 -318h-123zM1147 1300h-819v-512h594v-133h-594v-522h819v-133h-963v1434h963v-134z" />
    <glyph glyph-name="Edieresis" unicode="&#xcb;" 
d="M502 1782v-164h-185v164h185zM850 1782v-164h-184v164h184zM1147 1300h-819v-512h594v-133h-594v-522h819v-133h-963v1434h963v-134z" />
    <glyph glyph-name="Igrave" unicode="&#xcc;" horiz-adv-x="512" 
d="M317 1587h-122l-226 318h185zM184 0v1434h144v-1434h-144z" />
    <glyph glyph-name="Iacute" unicode="&#xcd;" horiz-adv-x="512" 
d="M195 1587l163 318h185l-226 -318h-122zM184 0v1434h144v-1434h-144z" />
    <glyph glyph-name="Icircumflex" unicode="&#xce;" horiz-adv-x="512" 
d="M532 1587h-122l-154 195l-154 -195h-122l184 318h184zM184 0v1434h144v-1434h-144z" />
    <glyph glyph-name="Idieresis" unicode="&#xcf;" horiz-adv-x="512" 
d="M-10 1618v164h184v-164h-184zM338 1618v164h184v-164h-184zM184 0v1434h144v-1434h-144z" />
    <glyph glyph-name="Eth" unicode="&#xd0;" horiz-adv-x="1392" 
d="M717 1434q110 0 190.5 -14.5t143.5 -48.5t104 -85.5t67 -131.5t37 -180.5t11 -236.5v-41q0 -137 -11 -237.5t-37 -180.5t-67 -131t-104 -85t-143.5 -48t-190.5 -14h-533v655h-184v123h184v656h533zM1126 696v41q0 121 -7 205.5t-26.5 149.5t-47.5 103.5t-76.5 63t-107 33
t-144.5 8.5h-389v-522h450v-123h-450v-522h389q86 0 144.5 8.5t107 33t76.5 63t47.5 103.5t26.5 149.5t7 205.5z" />
    <glyph glyph-name="Ntilde" unicode="&#xd1;" horiz-adv-x="1433" 
d="M829 1608q-54 0 -133.5 25.5t-122.5 25.5q-66 0 -133 -41v123q51 41 144 41q54 0 133.5 -25.5t122.5 -25.5q66 0 133 41v-123q-51 -41 -144 -41zM1116 1434h133v-1434h-184l-748 1239v-1239h-133v1434h185l747 -1239v1239z" />
    <glyph glyph-name="Ograve" unicode="&#xd2;" horiz-adv-x="1392" 
d="M758 1587h-123l-225 318h184zM676 -20q-110 0 -190.5 14t-143.5 48.5t-104 87t-67 134.5t-37 186t-11 246v41q0 142 11 245.5t37 185.5t67 135t104 87.5t143.5 49t190.5 14.5h41q110 0 190.5 -14.5t143.5 -49t104 -87.5t67 -135t37 -185.5t11 -245.5v-41q0 -142 -11 -246
t-37 -186t-67 -134.5t-104 -87t-143.5 -48.5t-190.5 -14h-41zM676 113h41q86 0 144.5 8.5t107 33.5t76.5 64.5t47.5 107t26.5 155t7 214.5v41q0 127 -7 214.5t-26.5 155t-47.5 107.5t-76.5 65t-107 33.5t-144.5 8.5h-41q-86 0 -144.5 -8.5t-107 -33.5t-77 -65t-48 -107.5
t-26.5 -155t-7 -214.5v-41q0 -127 7 -214.5t26.5 -155t48 -107t77 -64.5t107 -33.5t144.5 -8.5z" />
    <glyph glyph-name="Oacute" unicode="&#xd3;" horiz-adv-x="1392" 
d="M635 1587l164 318h184l-225 -318h-123zM676 -20q-110 0 -190.5 14t-143.5 48.5t-104 87t-67 134.5t-37 186t-11 246v41q0 142 11 245.5t37 185.5t67 135t104 87.5t143.5 49t190.5 14.5h41q110 0 190.5 -14.5t143.5 -49t104 -87.5t67 -135t37 -185.5t11 -245.5v-41
q0 -142 -11 -246t-37 -186t-67 -134.5t-104 -87t-143.5 -48.5t-190.5 -14h-41zM676 113h41q86 0 144.5 8.5t107 33.5t76.5 64.5t47.5 107t26.5 155t7 214.5v41q0 127 -7 214.5t-26.5 155t-47.5 107.5t-76.5 65t-107 33.5t-144.5 8.5h-41q-86 0 -144.5 -8.5t-107 -33.5
t-77 -65t-48 -107.5t-26.5 -155t-7 -214.5v-41q0 -127 7 -214.5t26.5 -155t48 -107t77 -64.5t107 -33.5t144.5 -8.5z" />
    <glyph glyph-name="Ocircumflex" unicode="&#xd4;" horiz-adv-x="1392" 
d="M973 1587h-123l-154 195l-153 -195h-123l184 318h184zM676 -20q-110 0 -190.5 14t-143.5 48.5t-104 87t-67 134.5t-37 186t-11 246v41q0 142 11 245.5t37 185.5t67 135t104 87.5t143.5 49t190.5 14.5h41q110 0 190.5 -14.5t143.5 -49t104 -87.5t67 -135t37 -185.5
t11 -245.5v-41q0 -142 -11 -246t-37 -186t-67 -134.5t-104 -87t-143.5 -48.5t-190.5 -14h-41zM676 113h41q86 0 144.5 8.5t107 33.5t76.5 64.5t47.5 107t26.5 155t7 214.5v41q0 127 -7 214.5t-26.5 155t-47.5 107.5t-76.5 65t-107 33.5t-144.5 8.5h-41q-86 0 -144.5 -8.5
t-107 -33.5t-77 -65t-48 -107.5t-26.5 -155t-7 -214.5v-41q0 -127 7 -214.5t26.5 -155t48 -107t77 -64.5t107 -33.5t144.5 -8.5z" />
    <glyph glyph-name="Otilde" unicode="&#xd5;" horiz-adv-x="1392" 
d="M430 1741q51 41 143 41q54 0 133.5 -25.5t122.5 -25.5q67 0 134 41v-123q-51 -41 -144 -41q-54 0 -133.5 25.5t-122.5 25.5q-66 0 -133 -41v123zM676 -20q-110 0 -190.5 14t-143.5 48.5t-104 87t-67 134.5t-37 186t-11 246v41q0 142 11 245.5t37 185.5t67 135t104 87.5
t143.5 49t190.5 14.5h41q110 0 190.5 -14.5t143.5 -49t104 -87.5t67 -135t37 -185.5t11 -245.5v-41q0 -142 -11 -246t-37 -186t-67 -134.5t-104 -87t-143.5 -48.5t-190.5 -14h-41zM676 113h41q86 0 144.5 8.5t107 33.5t76.5 64.5t47.5 107t26.5 155t7 214.5v41
q0 127 -7 214.5t-26.5 155t-47.5 107.5t-76.5 65t-107 33.5t-144.5 8.5h-41q-86 0 -144.5 -8.5t-107 -33.5t-77 -65t-48 -107.5t-26.5 -155t-7 -214.5v-41q0 -127 7 -214.5t26.5 -155t48 -107t77 -64.5t107 -33.5t144.5 -8.5z" />
    <glyph glyph-name="Odieresis" unicode="&#xd6;" horiz-adv-x="1392" 
d="M430 1618v164h184v-164h-184zM778 1618v164h185v-164h-185zM676 -20q-110 0 -190.5 14t-143.5 48.5t-104 87t-67 134.5t-37 186t-11 246v41q0 142 11 245.5t37 185.5t67 135t104 87.5t143.5 49t190.5 14.5h41q110 0 190.5 -14.5t143.5 -49t104 -87.5t67 -135t37 -185.5
t11 -245.5v-41q0 -142 -11 -246t-37 -186t-67 -134.5t-104 -87t-143.5 -48.5t-190.5 -14h-41zM676 113h41q86 0 144.5 8.5t107 33.5t76.5 64.5t47.5 107t26.5 155t7 214.5v41q0 127 -7 214.5t-26.5 155t-47.5 107.5t-76.5 65t-107 33.5t-144.5 8.5h-41q-86 0 -144.5 -8.5
t-107 -33.5t-77 -65t-48 -107.5t-26.5 -155t-7 -214.5v-41q0 -127 7 -214.5t26.5 -155t48 -107t77 -64.5t107 -33.5t144.5 -8.5z" />
    <glyph glyph-name="multiply" unicode="&#xd7;" horiz-adv-x="1024" 
d="M211 328l-88 88l303 301l-303 301l88 88l301 -303l301 303l88 -88l-303 -301l303 -301l-88 -88l-301 303z" />
    <glyph glyph-name="Oslash" unicode="&#xd8;" horiz-adv-x="1392" 
d="M1108 1354q88 -75 125 -222t37 -395v-41q0 -142 -11 -246t-37 -186t-67 -134.5t-104 -87t-143.5 -48.5t-190.5 -14h-41q-193 0 -297 45l-82 -148h-133l115 209q-84 76 -120 221.5t-36 388.5v41q0 142 11 245.5t37 185.5t67 135t104 87.5t143.5 49t190.5 14.5h41
q184 0 289 -43l79 145h134zM266 696q0 -191 19 -304.5t65 -174.5l590 1075q-83 29 -223 29h-41q-86 0 -144.5 -8.5t-107 -33.5t-77 -65t-48 -107.5t-26.5 -155t-7 -214.5v-41zM1126 696v41q0 198 -20 312.5t-70 175.5l-592 -1080q73 -32 232 -32h41q86 0 144.5 8.5t107 33.5
t76.5 64.5t47.5 107t26.5 155t7 214.5z" />
    <glyph glyph-name="Ugrave" unicode="&#xd9;" horiz-adv-x="1474" 
d="M799 1587h-123l-225 318h184zM328 1434v-799q0 -118 9 -197t33.5 -145t68 -103t112 -57t166.5 -20h41q98 0 166.5 20t112 57t68 103t33.5 145t9 197v799h143v-799q0 -136 -14 -235t-49.5 -181.5t-95.5 -133t-152.5 -78t-220.5 -27.5h-41q-128 0 -220.5 27.5t-153 78
t-96 133t-49.5 181.5t-14 235v799h144z" />
    <glyph glyph-name="Uacute" unicode="&#xda;" horiz-adv-x="1474" 
d="M676 1587l164 318h184l-225 -318h-123zM328 1434v-799q0 -118 9 -197t33.5 -145t68 -103t112 -57t166.5 -20h41q98 0 166.5 20t112 57t68 103t33.5 145t9 197v799h143v-799q0 -136 -14 -235t-49.5 -181.5t-95.5 -133t-152.5 -78t-220.5 -27.5h-41q-128 0 -220.5 27.5
t-153 78t-96 133t-49.5 181.5t-14 235v799h144z" />
    <glyph glyph-name="Ucircumflex" unicode="&#xdb;" horiz-adv-x="1474" 
d="M1014 1587h-123l-154 195l-153 -195h-123l184 318h184zM328 1434v-799q0 -118 9 -197t33.5 -145t68 -103t112 -57t166.5 -20h41q98 0 166.5 20t112 57t68 103t33.5 145t9 197v799h143v-799q0 -136 -14 -235t-49.5 -181.5t-95.5 -133t-152.5 -78t-220.5 -27.5h-41
q-128 0 -220.5 27.5t-153 78t-96 133t-49.5 181.5t-14 235v799h144z" />
    <glyph glyph-name="Udieresis" unicode="&#xdc;" horiz-adv-x="1474" 
d="M471 1618v164h184v-164h-184zM819 1618v164h185v-164h-185zM328 1434v-799q0 -118 9 -197t33.5 -145t68 -103t112 -57t166.5 -20h41q98 0 166.5 20t112 57t68 103t33.5 145t9 197v799h143v-799q0 -136 -14 -235t-49.5 -181.5t-95.5 -133t-152.5 -78t-220.5 -27.5h-41
q-128 0 -220.5 27.5t-153 78t-96 133t-49.5 181.5t-14 235v799h144z" />
    <glyph glyph-name="Yacute" unicode="&#xdd;" horiz-adv-x="1146" 
d="M870 1905l-225 -318h-123l164 318h184zM983 1434h143l-471 -963v-471h-143v471l-492 963h164l408 -818z" />
    <glyph glyph-name="Thorn" unicode="&#xde;" horiz-adv-x="1290" 
d="M686 1126q252 0 366.5 -94t114.5 -295v-41q0 -201 -114.5 -295t-366.5 -94h-358v-307h-144v1434h144v-308h358zM1024 696v41q0 145 -75.5 200.5t-262.5 55.5h-358v-553h358q187 0 262.5 55.5t75.5 200.5z" />
    <glyph glyph-name="germandbls" unicode="&#xdf;" horiz-adv-x="1351" 
d="M963 825q141 -35 213.5 -125.5t72.5 -248.5v-41q0 -196 -128 -303t-384 -107h-225v137l225 -4q106 0 179 19t114 56.5t58.5 86t17.5 115.5v41q0 161 -83 229t-296 68h-215v133h184q168 0 248 68t80 229v41q0 133 -75 193.5t-232 62.5h-21q-48 0 -83 -2.5t-71 -10.5
t-61 -21.5t-47.5 -36.5t-36 -55.5t-21 -78t-7.5 -103.5v-1167h-144v983h-184v102l184 21v61q0 237 119 339t352 102h21q207 0 328.5 -98t121.5 -291v-41q0 -262 -204 -353z" />
    <glyph glyph-name="agrave" unicode="&#xe0;" horiz-adv-x="1167" 
d="M666 1260h-123l-226 317h185zM614 1126q193 0 281 -74.5t88 -242.5v-809h-133l-10 154q-48 -63 -103 -113q-49 -25 -135.5 -43t-171.5 -18q-146 0 -237 76.5t-91 219.5q0 73 23 127.5t61 88.5t99 57t123.5 33.5t148.5 17.5l283 23v186q0 181 -226 184q-200 2 -399 -41
v138q180 36 399 36zM840 174v326l-277 -21q-100 -7 -162.5 -21.5t-96.5 -39.5t-46 -55t-12 -76q0 -86 55 -129t152 -45q68 -1 188.5 18t198.5 43z" />
    <glyph glyph-name="aacute" unicode="&#xe1;" horiz-adv-x="1167" 
d="M891 1577l-225 -317h-123l164 317h184zM614 1126q193 0 281 -74.5t88 -242.5v-809h-133l-10 154q-48 -63 -103 -113q-49 -25 -135.5 -43t-171.5 -18q-146 0 -237 76.5t-91 219.5q0 73 23 127.5t61 88.5t99 57t123.5 33.5t148.5 17.5l283 23v186q0 181 -226 184
q-200 2 -399 -41v138q180 36 399 36zM840 174v326l-277 -21q-100 -7 -162.5 -21.5t-96.5 -39.5t-46 -55t-12 -76q0 -86 55 -129t152 -45q68 -1 188.5 18t198.5 43z" />
    <glyph glyph-name="acircumflex" unicode="&#xe2;" horiz-adv-x="1167" 
d="M604 1454l-153 -194h-123l184 317h184l185 -317h-123zM614 1126q193 0 281 -74.5t88 -242.5v-809h-133l-10 154q-48 -63 -103 -113q-49 -25 -135.5 -43t-171.5 -18q-146 0 -237 76.5t-91 219.5q0 73 23 127.5t61 88.5t99 57t123.5 33.5t148.5 17.5l283 23v186
q0 181 -226 184q-200 2 -399 -41v138q180 36 399 36zM840 174v326l-277 -21q-100 -7 -162.5 -21.5t-96.5 -39.5t-46 -55t-12 -76q0 -86 55 -129t152 -45q68 -1 188.5 18t198.5 43z" />
    <glyph glyph-name="atilde" unicode="&#xe3;" horiz-adv-x="1167" 
d="M727 1280q-54 0 -133.5 25.5t-122.5 25.5q-66 0 -133 -41v123q51 41 143 41q54 0 133.5 -25.5t122.5 -25.5q66 0 133 41v-123q-51 -41 -143 -41zM614 1126q193 0 281 -74.5t88 -242.5v-809h-133l-10 154q-48 -63 -103 -113q-49 -25 -135.5 -43t-171.5 -18
q-146 0 -237 76.5t-91 219.5q0 73 23 127.5t61 88.5t99 57t123.5 33.5t148.5 17.5l283 23v186q0 181 -226 184q-200 2 -399 -41v138q180 36 399 36zM840 174v326l-277 -21q-100 -7 -162.5 -21.5t-96.5 -39.5t-46 -55t-12 -76q0 -86 55 -129t152 -45q68 -1 188.5 18t198.5 43
z" />
    <glyph glyph-name="adieresis" unicode="&#xe4;" horiz-adv-x="1167" 
d="M522 1454v-164h-184v164h184zM870 1454v-164h-184v164h184zM614 1126q193 0 281 -74.5t88 -242.5v-809h-133l-10 154q-48 -63 -103 -113q-49 -25 -135.5 -43t-171.5 -18q-146 0 -237 76.5t-91 219.5q0 73 23 127.5t61 88.5t99 57t123.5 33.5t148.5 17.5l283 23v186
q0 181 -226 184q-200 2 -399 -41v138q180 36 399 36zM840 174v326l-277 -21q-100 -7 -162.5 -21.5t-96.5 -39.5t-46 -55t-12 -76q0 -86 55 -129t152 -45q68 -1 188.5 18t198.5 43z" />
    <glyph glyph-name="aring" unicode="&#xe5;" horiz-adv-x="1167" 
d="M594 1249q-90 0 -137.5 18.5t-62.5 51.5t-15 94v21q0 46 8 74t30.5 49.5t65.5 30.5t111 9h20q68 0 111 -9t65.5 -30.5t30.5 -49.5t8 -74v-21q0 -61 -15 -94t-62.5 -51.5t-137.5 -18.5h-20zM502 1434v-21q0 -46 15.5 -59t76.5 -13h20q61 0 77 13t16 59v21q0 46 -16 58.5
t-77 12.5h-20q-61 0 -76.5 -12.5t-15.5 -58.5zM614 1126q193 0 281 -74.5t88 -242.5v-809h-133l-10 154q-48 -63 -103 -113q-49 -25 -135.5 -43t-171.5 -18q-146 0 -237 76.5t-91 219.5q0 73 23 127.5t61 88.5t99 57t123.5 33.5t148.5 17.5l283 23v186q0 181 -226 184
q-200 2 -399 -41v138q180 36 399 36zM840 174v326l-277 -21q-100 -7 -162.5 -21.5t-96.5 -39.5t-46 -55t-12 -76q0 -86 55 -129t152 -45q68 -1 188.5 18t198.5 43z" />
    <glyph glyph-name="ae" unicode="&#xe6;" horiz-adv-x="1884" 
d="M1761 502h-778q1 -89 8.5 -150.5t26.5 -105.5t43 -69.5t66.5 -40t87.5 -19t116 -4.5h21q210 0 399 41v-134q-193 -40 -399 -40h-21q-175 0 -276 39t-152 133q-49 -65 -100 -111q-45 -23 -163.5 -42t-209.5 -19q-146 0 -237 76.5t-91 219.5q0 73 23 127.5t61 88.5t99 57
t123.5 33.5t148.5 17.5l283 23v186q0 181 -226 184q-200 2 -399 -41v138q180 36 399 36q246 0 316 -143q45 78 131 110.5t229 32.5h21q110 0 184.5 -17t128 -53.5t82.5 -103t42 -156.5t13 -223v-71zM1290 993q-69 0 -111 -4t-80 -18t-57 -37t-33.5 -66.5t-19.5 -99.5
t-6 -143h635q-1 87 -6 143t-19.5 99.5t-33.5 66.5t-57 37t-80 18t-111 4h-21zM453 113q68 -2 214 17t226 40q-53 123 -53 362v-32l-277 -21q-100 -7 -162.5 -21.5t-96.5 -39.5t-46 -55t-12 -76q0 -86 55 -129t152 -45z" />
    <glyph glyph-name="ccedilla" unicode="&#xe7;" horiz-adv-x="1146" 
d="M614 993q-54 0 -91.5 -2.5t-74.5 -10t-61 -20.5t-46.5 -35t-35 -52.5t-22.5 -74t-13.5 -98.5t-3.5 -127v-41q0 -96 6.5 -162.5t25 -114.5t42 -75t66.5 -42.5t89 -20t119 -4.5h21q210 0 399 41v-134q-190 -37 -368 -40v-72q76 0 135 -41t59 -113v-20q0 -82 -55.5 -128
t-149.5 -46q-71 0 -133 20v62h51q144 0 144 92v20q0 45 -35 68.5t-98 23.5v134q-136 2 -222 29t-141 92.5t-76.5 167.5t-21.5 263v41q0 110 10 191t33.5 144t59.5 103.5t92.5 67t127.5 37t168 10.5h21q201 0 399 -41v-133q-189 41 -399 41h-21z" />
    <glyph glyph-name="egrave" unicode="&#xe8;" horiz-adv-x="1167" 
d="M645 1260h-123l-225 317h184zM1044 502h-778q1 -89 8.5 -150.5t26.5 -105.5t43 -69.5t66.5 -40t87.5 -19t116 -4.5h21q210 0 399 41v-134q-193 -40 -399 -40h-21q-97 0 -168 10.5t-127.5 36.5t-92.5 66.5t-59.5 103.5t-33.5 144t-10 191v41q0 133 13 223t42 156.5
t82.5 103t128 53.5t184.5 17h21q110 0 184.5 -17t128 -53.5t82.5 -103t42 -156.5t13 -223v-71zM573 993q-69 0 -111 -4t-80 -18t-57 -37t-33.5 -66.5t-19.5 -99.5t-6 -143h635q-1 87 -6 143t-19.5 99.5t-33.5 66.5t-57 37t-80 18t-111 4h-21z" />
    <glyph glyph-name="eacute" unicode="&#xe9;" horiz-adv-x="1167" 
d="M870 1577l-225 -317h-123l164 317h184zM1044 502h-778q1 -89 8.5 -150.5t26.5 -105.5t43 -69.5t66.5 -40t87.5 -19t116 -4.5h21q210 0 399 41v-134q-193 -40 -399 -40h-21q-97 0 -168 10.5t-127.5 36.5t-92.5 66.5t-59.5 103.5t-33.5 144t-10 191v41q0 133 13 223
t42 156.5t82.5 103t128 53.5t184.5 17h21q110 0 184.5 -17t128 -53.5t82.5 -103t42 -156.5t13 -223v-71zM573 993q-69 0 -111 -4t-80 -18t-57 -37t-33.5 -66.5t-19.5 -99.5t-6 -143h635q-1 87 -6 143t-19.5 99.5t-33.5 66.5t-57 37t-80 18t-111 4h-21z" />
    <glyph glyph-name="ecircumflex" unicode="&#xea;" horiz-adv-x="1167" 
d="M584 1454l-154 -194h-123l185 317h184l184 -317h-123zM1044 502h-778q1 -89 8.5 -150.5t26.5 -105.5t43 -69.5t66.5 -40t87.5 -19t116 -4.5h21q210 0 399 41v-134q-193 -40 -399 -40h-21q-97 0 -168 10.5t-127.5 36.5t-92.5 66.5t-59.5 103.5t-33.5 144t-10 191v41
q0 133 13 223t42 156.5t82.5 103t128 53.5t184.5 17h21q110 0 184.5 -17t128 -53.5t82.5 -103t42 -156.5t13 -223v-71zM573 993q-69 0 -111 -4t-80 -18t-57 -37t-33.5 -66.5t-19.5 -99.5t-6 -143h635q-1 87 -6 143t-19.5 99.5t-33.5 66.5t-57 37t-80 18t-111 4h-21z" />
    <glyph glyph-name="edieresis" unicode="&#xeb;" horiz-adv-x="1167" 
d="M502 1454v-164h-185v164h185zM850 1454v-164h-184v164h184zM1044 502h-778q1 -89 8.5 -150.5t26.5 -105.5t43 -69.5t66.5 -40t87.5 -19t116 -4.5h21q210 0 399 41v-134q-193 -40 -399 -40h-21q-97 0 -168 10.5t-127.5 36.5t-92.5 66.5t-59.5 103.5t-33.5 144t-10 191v41
q0 133 13 223t42 156.5t82.5 103t128 53.5t184.5 17h21q110 0 184.5 -17t128 -53.5t82.5 -103t42 -156.5t13 -223v-71zM573 993q-69 0 -111 -4t-80 -18t-57 -37t-33.5 -66.5t-19.5 -99.5t-6 -143h635q-1 87 -6 143t-19.5 99.5t-33.5 66.5t-57 37t-80 18t-111 4h-21z" />
    <glyph glyph-name="igrave" unicode="&#xec;" horiz-adv-x="512" 
d="M317 1260h-122l-226 317h185zM328 0h-144v1106h144v-1106z" />
    <glyph glyph-name="iacute" unicode="&#xed;" horiz-adv-x="512" 
d="M195 1260l163 317h185l-226 -317h-122zM328 0h-144v1106h144v-1106z" />
    <glyph glyph-name="icircumflex" unicode="&#xee;" horiz-adv-x="512" 
d="M532 1260h-122l-154 194l-154 -194h-122l184 317h184zM328 0h-144v1106h144v-1106z" />
    <glyph glyph-name="idieresis" unicode="&#xef;" horiz-adv-x="512" 
d="M-10 1290v164h184v-164h-184zM338 1290v164h184v-164h-184zM328 0h-144v1106h144v-1106z" />
    <glyph glyph-name="eth" unicode="&#xf0;" horiz-adv-x="1310" 
d="M915 1550q141 -69 207 -244t66 -507v-41q0 -147 -16 -263t-54 -214.5t-98.5 -163.5t-152 -101t-212.5 -36h-41q-108 0 -192.5 24.5t-140 66.5t-91.5 101.5t-51.5 126t-15.5 143.5v41q0 95 25 171t78 134.5t144 90.5t214 32q71 0 129 -7.5t105.5 -24t67 -25t56.5 -27.5
q7 -7 26.5 -23.5t28.5 -25t23 -22.5t24 -27v29v41q0 211 -23 340t-73.5 201.5t-138.5 103.5l-246 -246l-88 86l187 186q-62 5 -78 5q-201 2 -400 -41v137q185 37 400 37q114 0 198 -17l211 211l88 -86zM655 113q108 0 183 38t119 116t64 182t23 251q-3 1 -28 9.5t-32 11
t-32.5 10.5t-37.5 11l-38 9.5t-42.5 9t-43 7t-49 6.5t-50 3t-54.5 1q-110 -1 -183.5 -21t-114 -59.5t-57 -90.5t-16.5 -124v-41q0 -329 348 -329h41z" />
    <glyph glyph-name="ntilde" unicode="&#xf1;" 
d="M358 1413q51 41 144 41q54 0 133.5 -25.5t122.5 -25.5q66 0 133 41v-123q-51 -41 -143 -41q-54 0 -133.5 25.5t-122.5 25.5q-67 0 -134 -41v123zM1065 0h-143v809q0 98 -52 141t-174 43q-68 0 -179 -18.5t-189 -42.5v-932h-144v1106h133l11 -154q45 60 102 111
q49 25 139.5 44t178.5 19q155 0 236 -76.5t81 -230.5v-819z" />
    <glyph glyph-name="ograve" unicode="&#xf2;" horiz-adv-x="1208" 
d="M666 1260h-123l-226 317h185zM584 -20q-97 0 -166 10.5t-122 37t-85 66t-52.5 104t-28 143t-7.5 191.5v41q0 112 7.5 190.5t28 143.5t53 104.5t85 66.5t121.5 37.5t166 10.5h41q97 0 166 -10.5t121.5 -37.5t85 -66.5t52.5 -104.5t27.5 -143.5t7.5 -190.5v-41
q0 -113 -7.5 -191.5t-27.5 -143t-52.5 -104t-85 -66t-121.5 -37t-166 -10.5h-41zM584 113h41q58 0 96.5 2t74 10.5t56 19.5t39 35.5t27 52t15 74.5t8 97.5t1.5 127.5v41q0 77 -1.5 127.5t-8 97.5t-15 74.5t-27 52t-39 36t-56 20t-74 10.5t-96.5 2h-41q-58 0 -96.5 -2
t-74 -10.5t-56.5 -20t-39.5 -36t-27 -52t-15 -74.5t-8 -97.5t-1.5 -127.5v-41q0 -103 3 -163.5t16.5 -112.5t31.5 -76t57.5 -41.5t85.5 -21.5t124 -4z" />
    <glyph glyph-name="oacute" unicode="&#xf3;" horiz-adv-x="1208" 
d="M543 1260l164 317h184l-225 -317h-123zM584 -20q-97 0 -166 10.5t-122 37t-85 66t-52.5 104t-28 143t-7.5 191.5v41q0 112 7.5 190.5t28 143.5t53 104.5t85 66.5t121.5 37.5t166 10.5h41q97 0 166 -10.5t121.5 -37.5t85 -66.5t52.5 -104.5t27.5 -143.5t7.5 -190.5v-41
q0 -113 -7.5 -191.5t-27.5 -143t-52.5 -104t-85 -66t-121.5 -37t-166 -10.5h-41zM584 113h41q58 0 96.5 2t74 10.5t56 19.5t39 35.5t27 52t15 74.5t8 97.5t1.5 127.5v41q0 77 -1.5 127.5t-8 97.5t-15 74.5t-27 52t-39 36t-56 20t-74 10.5t-96.5 2h-41q-58 0 -96.5 -2
t-74 -10.5t-56.5 -20t-39.5 -36t-27 -52t-15 -74.5t-8 -97.5t-1.5 -127.5v-41q0 -103 3 -163.5t16.5 -112.5t31.5 -76t57.5 -41.5t85.5 -21.5t124 -4z" />
    <glyph glyph-name="ocircumflex" unicode="&#xf4;" horiz-adv-x="1208" 
d="M881 1260h-123l-154 194l-153 -194h-123l184 317h184zM584 -20q-97 0 -166 10.5t-122 37t-85 66t-52.5 104t-28 143t-7.5 191.5v41q0 112 7.5 190.5t28 143.5t53 104.5t85 66.5t121.5 37.5t166 10.5h41q97 0 166 -10.5t121.5 -37.5t85 -66.5t52.5 -104.5t27.5 -143.5
t7.5 -190.5v-41q0 -113 -7.5 -191.5t-27.5 -143t-52.5 -104t-85 -66t-121.5 -37t-166 -10.5h-41zM584 113h41q58 0 96.5 2t74 10.5t56 19.5t39 35.5t27 52t15 74.5t8 97.5t1.5 127.5v41q0 77 -1.5 127.5t-8 97.5t-15 74.5t-27 52t-39 36t-56 20t-74 10.5t-96.5 2h-41
q-58 0 -96.5 -2t-74 -10.5t-56.5 -20t-39.5 -36t-27 -52t-15 -74.5t-8 -97.5t-1.5 -127.5v-41q0 -103 3 -163.5t16.5 -112.5t31.5 -76t57.5 -41.5t85.5 -21.5t124 -4z" />
    <glyph glyph-name="otilde" unicode="&#xf5;" horiz-adv-x="1208" 
d="M338 1413q51 41 143 41q54 0 133.5 -25.5t122.5 -25.5q66 0 133 41v-123q-51 -41 -143 -41q-54 0 -133.5 25.5t-122.5 25.5q-66 0 -133 -41v123zM584 -20q-97 0 -166 10.5t-122 37t-85 66t-52.5 104t-28 143t-7.5 191.5v41q0 112 7.5 190.5t28 143.5t53 104.5t85 66.5
t121.5 37.5t166 10.5h41q97 0 166 -10.5t121.5 -37.5t85 -66.5t52.5 -104.5t27.5 -143.5t7.5 -190.5v-41q0 -113 -7.5 -191.5t-27.5 -143t-52.5 -104t-85 -66t-121.5 -37t-166 -10.5h-41zM584 113h41q58 0 96.5 2t74 10.5t56 19.5t39 35.5t27 52t15 74.5t8 97.5t1.5 127.5
v41q0 77 -1.5 127.5t-8 97.5t-15 74.5t-27 52t-39 36t-56 20t-74 10.5t-96.5 2h-41q-58 0 -96.5 -2t-74 -10.5t-56.5 -20t-39.5 -36t-27 -52t-15 -74.5t-8 -97.5t-1.5 -127.5v-41q0 -103 3 -163.5t16.5 -112.5t31.5 -76t57.5 -41.5t85.5 -21.5t124 -4z" />
    <glyph glyph-name="odieresis" unicode="&#xf6;" horiz-adv-x="1208" 
d="M338 1290v164h184v-164h-184zM686 1290v164h184v-164h-184zM584 -20q-97 0 -166 10.5t-122 37t-85 66t-52.5 104t-28 143t-7.5 191.5v41q0 112 7.5 190.5t28 143.5t53 104.5t85 66.5t121.5 37.5t166 10.5h41q97 0 166 -10.5t121.5 -37.5t85 -66.5t52.5 -104.5
t27.5 -143.5t7.5 -190.5v-41q0 -113 -7.5 -191.5t-27.5 -143t-52.5 -104t-85 -66t-121.5 -37t-166 -10.5h-41zM584 113h41q58 0 96.5 2t74 10.5t56 19.5t39 35.5t27 52t15 74.5t8 97.5t1.5 127.5v41q0 77 -1.5 127.5t-8 97.5t-15 74.5t-27 52t-39 36t-56 20t-74 10.5
t-96.5 2h-41q-58 0 -96.5 -2t-74 -10.5t-56.5 -20t-39.5 -36t-27 -52t-15 -74.5t-8 -97.5t-1.5 -127.5v-41q0 -103 3 -163.5t16.5 -112.5t31.5 -76t57.5 -41.5t85.5 -21.5t124 -4z" />
    <glyph glyph-name="divide" unicode="&#xf7;" horiz-adv-x="1024" 
d="M420 932v164h184v-164h-184zM102 655v123h820v-123h-820zM420 338v164h184v-164h-184z" />
    <glyph glyph-name="oslash" unicode="&#xf8;" horiz-adv-x="1208" 
d="M948 1057q77 -55 107 -168t30 -316v-41q0 -113 -7.5 -191.5t-27.5 -143t-52.5 -104t-85 -66t-121.5 -37t-166 -10.5h-41q-139 0 -217 22l-70 -125h-133l94 172q-77 55 -106 167t-29 316v41q0 112 7.5 190.5t28 143.5t53 104.5t85 66.5t121.5 37.5t166 10.5h41
q139 0 217 -22l69 125h133zM266 532q0 -162 12 -242.5t48 -119.5l450 815q-55 8 -151 8h-41q-58 0 -96.5 -2t-74 -10.5t-56.5 -20t-39.5 -36t-27 -52t-15 -74.5t-8 -97.5t-1.5 -127.5v-41zM942 532v41q0 163 -11.5 243.5t-47.5 119.5l-451 -815q55 -8 152 -8h41q58 0 96.5 2
t74 10.5t56 19.5t39 35.5t27 52t15 74.5t8 97.5t1.5 127.5z" />
    <glyph glyph-name="ugrave" unicode="&#xf9;" 
d="M686 1260h-123l-225 317h184zM502 -20q-156 0 -237 76.5t-81 230.5v819h144v-809q0 -98 51.5 -141t173.5 -43q67 0 178.5 19.5t190.5 43.5v930h143v-1106h-133l-10 156q-56 -71 -103 -113q-49 -25 -139 -44t-178 -19z" />
    <glyph glyph-name="uacute" unicode="&#xfa;" 
d="M563 1260l164 317h184l-225 -317h-123zM502 -20q-156 0 -237 76.5t-81 230.5v819h144v-809q0 -98 51.5 -141t173.5 -43q67 0 178.5 19.5t190.5 43.5v930h143v-1106h-133l-10 156q-56 -71 -103 -113q-49 -25 -139 -44t-178 -19z" />
    <glyph glyph-name="ucircumflex" unicode="&#xfb;" 
d="M901 1260h-123l-153 194l-154 -194h-123l184 317h185zM502 -20q-156 0 -237 76.5t-81 230.5v819h144v-809q0 -98 51.5 -141t173.5 -43q67 0 178.5 19.5t190.5 43.5v930h143v-1106h-133l-10 156q-56 -71 -103 -113q-49 -25 -139 -44t-178 -19z" />
    <glyph glyph-name="udieresis" unicode="&#xfc;" 
d="M358 1290v164h185v-164h-185zM707 1290v164h184v-164h-184zM502 -20q-156 0 -237 76.5t-81 230.5v819h144v-809q0 -98 51.5 -141t173.5 -43q67 0 178.5 19.5t190.5 43.5v930h143v-1106h-133l-10 156q-56 -71 -103 -113q-49 -25 -139 -44t-178 -19z" />
    <glyph glyph-name="yacute" unicode="&#xfd;" horiz-adv-x="1064" 
d="M829 1577l-225 -317h-123l164 317h184zM881 1106h143l-399 -1106q-46 -128 -103 -213t-135.5 -135.5t-172.5 -71t-224 -20.5v133q85 0 144.5 7.5t114 26.5t95.5 54t78 88t72 131h-74l-379 1106h154l333 -1008z" />
    <glyph glyph-name="thorn" unicode="&#xfe;" 
d="M727 1126q143 0 227.5 -47t128 -164.5t43.5 -320.5v-82q0 -152 -26 -256t-80.5 -164.5t-130 -86t-182.5 -25.5q-153 0 -277 63q-52 47 -102 113v-576h-144v2007h144v-637q50 66 102 113q50 26 131.5 44.5t165.5 18.5zM983 512v82q0 89 -6 151t-21.5 107t-37 72t-59 43
t-79.5 21t-106 5q-79 1 -174.5 -17.5t-171.5 -45.5v-754q76 -27 171.5 -45.5t174.5 -17.5q95 0 150 14.5t93 58.5t52 120.5t14 205.5z" />
    <glyph glyph-name="ydieresis" unicode="&#xff;" horiz-adv-x="1064" 
d="M461 1454v-164h-185v164h185zM809 1454v-164h-184v164h184zM881 1106h143l-399 -1106q-46 -128 -103 -213t-135.5 -135.5t-172.5 -71t-224 -20.5v133q85 0 144.5 7.5t114 26.5t95.5 54t78 88t72 131h-74l-379 1106h154l333 -1008z" />
    <glyph glyph-name="Amacron" unicode="&#x100;" horiz-adv-x="1228" 
d="M829 1761v-123h-450v123h450zM1034 0l-157 461h-545l-148 -461h-143l471 1444h174l502 -1444h-154zM375 594h456l-235 694z" />
    <glyph glyph-name="amacron" unicode="&#x101;" horiz-adv-x="1167" 
d="M829 1434v-123h-450v123h450zM614 1126q193 0 281 -74.5t88 -242.5v-809h-133l-10 154q-48 -63 -103 -113q-49 -25 -135.5 -43t-171.5 -18q-146 0 -237 76.5t-91 219.5q0 73 23 127.5t61 88.5t99 57t123.5 33.5t148.5 17.5l283 23v186q0 181 -226 184q-200 2 -399 -41
v138q180 36 399 36zM840 174v326l-277 -21q-100 -7 -162.5 -21.5t-96.5 -39.5t-46 -55t-12 -76q0 -86 55 -129t152 -45q68 -1 188.5 18t198.5 43z" />
    <glyph glyph-name="Abreve" unicode="&#x102;" horiz-adv-x="1228" 
d="M594 1608q-143 0 -204.5 70.5t-61.5 226.5h112q0 -110 37.5 -152.5t116.5 -42.5h20q79 0 116.5 42.5t37.5 152.5h113q0 -156 -62 -226.5t-205 -70.5h-20zM1034 0l-157 461h-545l-148 -461h-143l471 1444h174l502 -1444h-154zM375 594h456l-235 694z" />
    <glyph glyph-name="abreve" unicode="&#x103;" horiz-adv-x="1167" 
d="M594 1280q-143 0 -204.5 70.5t-61.5 226.5h112q0 -110 37.5 -152.5t116.5 -42.5h20q79 0 116.5 42.5t37.5 152.5h113q0 -156 -62 -226.5t-205 -70.5h-20zM614 1126q193 0 281 -74.5t88 -242.5v-809h-133l-10 154q-48 -63 -103 -113q-49 -25 -135.5 -43t-171.5 -18
q-146 0 -237 76.5t-91 219.5q0 73 23 127.5t61 88.5t99 57t123.5 33.5t148.5 17.5l283 23v186q0 181 -226 184q-200 2 -399 -41v138q180 36 399 36zM840 174v326l-277 -21q-100 -7 -162.5 -21.5t-96.5 -39.5t-46 -55t-12 -76q0 -86 55 -129t152 -45q68 -1 188.5 18t198.5 43
z" />
    <glyph glyph-name="Aogonek" unicode="&#x104;" horiz-adv-x="1228" 
d="M973 -246q0 -60 35.5 -86t107.5 -26h51v-62q-62 -20 -133 -20q-94 0 -149.5 46t-55.5 128v20q0 159 236 246h-31l-157 461h-545l-148 -461h-143l471 1444h174l502 -1444q-107 -49 -161 -99t-54 -126v-21zM375 594h456l-235 694z" />
    <glyph glyph-name="aogonek" unicode="&#x105;" horiz-adv-x="1167" 
d="M983 0q-107 -49 -161 -99t-54 -126v-21q0 -60 35.5 -86t107.5 -26h52v-62q-62 -20 -134 -20q-94 0 -149 46t-55 128v20q0 160 235 246h-10l-10 154q-48 -63 -103 -113q-49 -25 -135.5 -43t-171.5 -18q-146 0 -237 76.5t-91 219.5q0 73 23 127.5t61 88.5t99 57t123.5 33.5
t148.5 17.5l283 23v186q0 181 -226 184q-200 2 -399 -41v138q180 36 399 36q193 0 281 -74.5t88 -242.5v-809zM840 174v326l-277 -21q-100 -7 -162.5 -21.5t-96.5 -39.5t-46 -55t-12 -76q0 -86 55 -129t152 -45q68 -1 188.5 18t198.5 43z" />
    <glyph glyph-name="Cacute" unicode="&#x106;" horiz-adv-x="1290" 
d="M655 1587l164 318h185l-226 -318h-123zM717 -20q-166 0 -275 33.5t-182.5 116.5t-105 219.5t-31.5 346.5v41q0 210 31.5 346.5t105 220t182.5 117t275 33.5h41q191 0 430 -61v-133q-229 61 -430 61h-41q-104 0 -173.5 -14t-126 -50t-88 -102.5t-47.5 -167.5t-16 -250v-41
q0 -124 10 -214t34.5 -155.5t57.5 -106.5t86.5 -65t114.5 -33t148 -9h41q201 0 430 61v-133q-239 -61 -430 -61h-41z" />
    <glyph glyph-name="cacute" unicode="&#x107;" horiz-adv-x="1146" 
d="M563 1260l164 317h184l-225 -317h-123zM614 993q-54 0 -91.5 -2.5t-74.5 -10t-61 -20.5t-46.5 -35t-35 -52.5t-22.5 -74t-13.5 -98.5t-3.5 -127v-41q0 -96 6.5 -162.5t25 -114.5t42 -75t66.5 -42.5t89 -20t119 -4.5h21q210 0 399 41v-134q-193 -40 -399 -40h-21
q-97 0 -168 10.5t-127.5 36.5t-92.5 66.5t-59.5 103.5t-33.5 144t-10 191v41q0 110 10 191t33.5 144t59.5 103.5t92.5 67t127.5 37t168 10.5h21q201 0 399 -41v-133q-189 41 -399 41h-21z" />
    <glyph glyph-name="Cdotaccent" unicode="&#x10a;" horiz-adv-x="1290" 
d="M625 1618v164h184v-164h-184zM717 -20q-166 0 -275 33.5t-182.5 116.5t-105 219.5t-31.5 346.5v41q0 210 31.5 346.5t105 220t182.5 117t275 33.5h41q191 0 430 -61v-133q-229 61 -430 61h-41q-104 0 -173.5 -14t-126 -50t-88 -102.5t-47.5 -167.5t-16 -250v-41
q0 -124 10 -214t34.5 -155.5t57.5 -106.5t86.5 -65t114.5 -33t148 -9h41q201 0 430 61v-133q-239 -61 -430 -61h-41z" />
    <glyph glyph-name="cdotaccent" unicode="&#x10b;" horiz-adv-x="1146" 
d="M532 1290v164h185v-164h-185zM614 993q-54 0 -91.5 -2.5t-74.5 -10t-61 -20.5t-46.5 -35t-35 -52.5t-22.5 -74t-13.5 -98.5t-3.5 -127v-41q0 -96 6.5 -162.5t25 -114.5t42 -75t66.5 -42.5t89 -20t119 -4.5h21q210 0 399 41v-134q-193 -40 -399 -40h-21q-97 0 -168 10.5
t-127.5 36.5t-92.5 66.5t-59.5 103.5t-33.5 144t-10 191v41q0 110 10 191t33.5 144t59.5 103.5t92.5 67t127.5 37t168 10.5h21q201 0 399 -41v-133q-189 41 -399 41h-21z" />
    <glyph glyph-name="Ccaron" unicode="&#x10c;" horiz-adv-x="1290" 
d="M993 1905l-184 -318h-184l-185 318h123l154 -195l153 195h123zM717 -20q-166 0 -275 33.5t-182.5 116.5t-105 219.5t-31.5 346.5v41q0 210 31.5 346.5t105 220t182.5 117t275 33.5h41q191 0 430 -61v-133q-229 61 -430 61h-41q-104 0 -173.5 -14t-126 -50t-88 -102.5
t-47.5 -167.5t-16 -250v-41q0 -124 10 -214t34.5 -155.5t57.5 -106.5t86.5 -65t114.5 -33t148 -9h41q201 0 430 61v-133q-239 -61 -430 -61h-41z" />
    <glyph glyph-name="ccaron" unicode="&#x10d;" horiz-adv-x="1146" 
d="M901 1577l-184 -317h-185l-184 317h123l154 -195l153 195h123zM614 993q-54 0 -91.5 -2.5t-74.5 -10t-61 -20.5t-46.5 -35t-35 -52.5t-22.5 -74t-13.5 -98.5t-3.5 -127v-41q0 -96 6.5 -162.5t25 -114.5t42 -75t66.5 -42.5t89 -20t119 -4.5h21q210 0 399 41v-134
q-193 -40 -399 -40h-21q-97 0 -168 10.5t-127.5 36.5t-92.5 66.5t-59.5 103.5t-33.5 144t-10 191v41q0 110 10 191t33.5 144t59.5 103.5t92.5 67t127.5 37t168 10.5h21q201 0 399 -41v-133q-189 41 -399 41h-21z" />
    <glyph glyph-name="Dcaron" unicode="&#x10e;" horiz-adv-x="1392" 
d="M748 1587h-185l-184 318h123l153 -195l154 195h123zM717 1434q110 0 190.5 -14.5t143.5 -48.5t104 -85.5t67 -131.5t37 -180.5t11 -236.5v-41q0 -137 -11 -237.5t-37 -180.5t-67 -131t-104 -85t-143.5 -48t-190.5 -14h-533v1434h533zM1126 696v41q0 121 -7 205.5
t-26.5 149.5t-47.5 103.5t-76.5 63t-107 33t-144.5 8.5h-389v-1167h389q86 0 144.5 8.5t107 33t76.5 63t47.5 103.5t26.5 149.5t7 205.5z" />
    <glyph glyph-name="dcaron" unicode="&#x10f;" horiz-adv-x="1290" 
d="M1065 0h-133l-10 156q-48 -63 -103 -113q-50 -26 -131.5 -44.5t-165.5 -18.5q-143 0 -227.5 47t-128 164.5t-43.5 320.5v82q0 152 26 256t81 164.5t130.5 86t182.5 25.5q152 0 276 -63q55 -50 103 -113v637h143v-1587zM1352 1587v-164l-103 -204h-102l92 204h-72v164h185
zM575 113q80 -1 175.5 17.5t171.5 45.5v754q-73 26 -169.5 44.5t-177.5 18.5q-95 0 -150 -14.5t-93 -58.5t-52 -120.5t-14 -205.5v-82q0 -89 6 -150.5t22 -106.5t37 -71.5t58.5 -42.5t79.5 -21.5t106 -6.5z" />
    <glyph glyph-name="Dcroat" unicode="&#x110;" horiz-adv-x="1392" 
d="M717 1434q110 0 190.5 -14.5t143.5 -48.5t104 -85.5t67 -131.5t37 -180.5t11 -236.5v-41q0 -137 -11 -237.5t-37 -180.5t-67 -131t-104 -85t-143.5 -48t-190.5 -14h-533v655h-184v123h184v656h533zM1126 696v41q0 121 -7 205.5t-26.5 149.5t-47.5 103.5t-76.5 63t-107 33
t-144.5 8.5h-389v-522h450v-123h-450v-522h389q86 0 144.5 8.5t107 33t76.5 63t47.5 103.5t26.5 149.5t7 205.5z" />
    <glyph glyph-name="dcroat" unicode="&#x111;" 
d="M1249 1382v-122h-184v-1260h-133l-10 156q-48 -63 -103 -113q-50 -26 -131.5 -44.5t-165.5 -18.5q-143 0 -227.5 47t-128 164.5t-43.5 320.5v82q0 152 26 256t81 164.5t130.5 86t182.5 25.5q152 0 276 -63q55 -50 103 -113v310h-308v122h308v205h143v-205h184zM922 176
v754q-73 26 -169.5 44.5t-177.5 18.5q-95 0 -150 -14.5t-93 -58.5t-52 -120.5t-14 -205.5v-82q0 -89 6 -150.5t22 -106.5t37 -71.5t58.5 -42.5t79.5 -21.5t106 -6.5q80 -1 175.5 17.5t171.5 45.5z" />
    <glyph glyph-name="Emacron" unicode="&#x112;" 
d="M809 1761v-123h-451v123h451zM1147 1300h-819v-512h594v-133h-594v-522h819v-133h-963v1434h963v-134z" />
    <glyph glyph-name="emacron" unicode="&#x113;" horiz-adv-x="1167" 
d="M809 1434v-123h-451v123h451zM1044 502h-778q1 -89 8.5 -150.5t26.5 -105.5t43 -69.5t66.5 -40t87.5 -19t116 -4.5h21q210 0 399 41v-134q-193 -40 -399 -40h-21q-97 0 -168 10.5t-127.5 36.5t-92.5 66.5t-59.5 103.5t-33.5 144t-10 191v41q0 133 13 223t42 156.5
t82.5 103t128 53.5t184.5 17h21q110 0 184.5 -17t128 -53.5t82.5 -103t42 -156.5t13 -223v-71zM573 993q-69 0 -111 -4t-80 -18t-57 -37t-33.5 -66.5t-19.5 -99.5t-6 -143h635q-1 87 -6 143t-19.5 99.5t-33.5 66.5t-57 37t-80 18t-111 4h-21z" />
    <glyph glyph-name="Edotaccent" unicode="&#x116;" 
d="M676 1782v-164h-184v164h184zM1147 1300h-819v-512h594v-133h-594v-522h819v-133h-963v1434h963v-134z" />
    <glyph glyph-name="edotaccent" unicode="&#x117;" horiz-adv-x="1167" 
d="M676 1454v-164h-184v164h184zM1044 502h-778q1 -89 8.5 -150.5t26.5 -105.5t43 -69.5t66.5 -40t87.5 -19t116 -4.5h21q210 0 399 41v-134q-193 -40 -399 -40h-21q-97 0 -168 10.5t-127.5 36.5t-92.5 66.5t-59.5 103.5t-33.5 144t-10 191v41q0 133 13 223t42 156.5
t82.5 103t128 53.5t184.5 17h21q110 0 184.5 -17t128 -53.5t82.5 -103t42 -156.5t13 -223v-71zM573 993q-69 0 -111 -4t-80 -18t-57 -37t-33.5 -66.5t-19.5 -99.5t-6 -143h635q-1 87 -6 143t-19.5 99.5t-33.5 66.5t-57 37t-80 18t-111 4h-21z" />
    <glyph glyph-name="Eogonek" unicode="&#x118;" 
d="M1147 1300h-819v-512h594v-133h-594v-522h819v-133q-107 -49 -161 -99t-54 -126v-21q0 -60 35.5 -86t107.5 -26h51v-62q-62 -20 -133 -20q-94 0 -149.5 46t-55.5 128v20q0 159 236 246h-840v1434h963v-134z" />
    <glyph glyph-name="eogonek" unicode="&#x119;" horiz-adv-x="1167" 
d="M1044 502h-778q1 -89 8.5 -150.5t26.5 -105.5t43 -69.5t66.5 -40t87.5 -19t116 -4.5h21q210 0 399 41v-134q-107 -49 -161 -99t-54 -126v-20q0 -60 36.5 -86.5t107.5 -26.5h51v-61q-65 -21 -133 -21q-94 0 -149.5 46t-55.5 128v21q0 135 168 217q-102 -12 -209 -12h-21
q-97 0 -168 10.5t-127.5 36.5t-92.5 66.5t-59.5 103.5t-33.5 144t-10 191v41q0 133 13 223t42 156.5t82.5 103t128 53.5t184.5 17h21q110 0 184.5 -17t128 -53.5t82.5 -103t42 -156.5t13 -223v-71zM573 993q-69 0 -111 -4t-80 -18t-57 -37t-33.5 -66.5t-19.5 -99.5t-6 -143
h635q-1 87 -6 143t-19.5 99.5t-33.5 66.5t-57 37t-80 18t-111 4h-21z" />
    <glyph glyph-name="Ecaron" unicode="&#x11a;" 
d="M676 1587h-184l-185 318h123l154 -195l153 195h123zM1147 1300h-819v-512h594v-133h-594v-522h819v-133h-963v1434h963v-134z" />
    <glyph glyph-name="ecaron" unicode="&#x11b;" horiz-adv-x="1167" 
d="M676 1260h-184l-185 317h123l154 -195l153 195h123zM1044 502h-778q1 -89 8.5 -150.5t26.5 -105.5t43 -69.5t66.5 -40t87.5 -19t116 -4.5h21q210 0 399 41v-134q-193 -40 -399 -40h-21q-97 0 -168 10.5t-127.5 36.5t-92.5 66.5t-59.5 103.5t-33.5 144t-10 191v41
q0 133 13 223t42 156.5t82.5 103t128 53.5t184.5 17h21q110 0 184.5 -17t128 -53.5t82.5 -103t42 -156.5t13 -223v-71zM573 993q-69 0 -111 -4t-80 -18t-57 -37t-33.5 -66.5t-19.5 -99.5t-6 -143h635q-1 87 -6 143t-19.5 99.5t-33.5 66.5t-57 37t-80 18t-111 4h-21z" />
    <glyph glyph-name="Gbreve" unicode="&#x11e;" horiz-adv-x="1372" 
d="M717 1608q-143 0 -204.5 70.5t-61.5 226.5h112q0 -110 37.5 -152.5t116.5 -42.5h20q79 0 116.5 42.5t37.5 152.5h113q0 -156 -62 -226.5t-205 -70.5h-20zM717 1321q-104 0 -173.5 -14t-126 -50t-88 -102.5t-47.5 -167.5t-16 -250v-41q0 -124 10 -214t34.5 -155.5
t57.5 -106.5t86.5 -65t114.5 -33t148 -9h41q148 0 286 30v574h144v-676q-239 -61 -430 -61h-41q-166 0 -275 33.5t-182.5 116.5t-105 219.5t-31.5 346.5v41q0 210 31.5 346.5t105 220t182.5 117t275 33.5h41q191 0 430 -61v-133q-229 61 -430 61h-41z" />
    <glyph glyph-name="gbreve" unicode="&#x11f;" 
d="M625 1280q-143 0 -205 70.5t-62 226.5h113q0 -110 37.5 -152.5t116.5 -42.5h20q79 0 116.5 42.5t37.5 152.5h112q0 -156 -61.5 -226.5t-204.5 -70.5h-20zM932 1106h133v-993q0 -166 -23 -269.5t-81.5 -168.5t-150 -90t-237.5 -25h-20q-201 0 -399 41v133q189 -41 399 -41
h20q73 0 119 4.5t89 20t67 43t42 75t25 114.5t7 163v43q-48 -63 -103 -113q-50 -26 -131.5 -44.5t-165.5 -18.5q-143 0 -227.5 47t-128 164.5t-43.5 320.5v82q0 152 26 256t81 164.5t130.5 86t182.5 25.5q152 0 276 -63q55 -50 103 -113zM575 113q80 -1 175.5 17.5
t171.5 45.5v754q-73 26 -169.5 44.5t-177.5 18.5q-95 0 -150 -14.5t-93 -58.5t-52 -120.5t-14 -205.5v-82q0 -89 6 -150.5t22 -106.5t37 -71.5t58.5 -42.5t79.5 -21.5t106 -6.5z" />
    <glyph glyph-name="Gdotaccent" unicode="&#x120;" horiz-adv-x="1372" 
d="M819 1782v-164h-184v164h184zM717 1321q-104 0 -173.5 -14t-126 -50t-88 -102.5t-47.5 -167.5t-16 -250v-41q0 -124 10 -214t34.5 -155.5t57.5 -106.5t86.5 -65t114.5 -33t148 -9h41q148 0 286 30v574h144v-676q-239 -61 -430 -61h-41q-166 0 -275 33.5t-182.5 116.5
t-105 219.5t-31.5 346.5v41q0 210 31.5 346.5t105 220t182.5 117t275 33.5h41q191 0 430 -61v-133q-229 61 -430 61h-41z" />
    <glyph glyph-name="gdotaccent" unicode="&#x121;" 
d="M543 1290v164h184v-164h-184zM932 1106h133v-993q0 -166 -23 -269.5t-81.5 -168.5t-150 -90t-237.5 -25h-20q-201 0 -399 41v133q189 -41 399 -41h20q73 0 119 4.5t89 20t67 43t42 75t25 114.5t7 163v43q-48 -63 -103 -113q-50 -26 -131.5 -44.5t-165.5 -18.5
q-143 0 -227.5 47t-128 164.5t-43.5 320.5v82q0 152 26 256t81 164.5t130.5 86t182.5 25.5q152 0 276 -63q55 -50 103 -113zM575 113q80 -1 175.5 17.5t171.5 45.5v754q-73 26 -169.5 44.5t-177.5 18.5q-95 0 -150 -14.5t-93 -58.5t-52 -120.5t-14 -205.5v-82
q0 -89 6 -150.5t22 -106.5t37 -71.5t58.5 -42.5t79.5 -21.5t106 -6.5z" />
    <glyph glyph-name="uni0122" unicode="&#x122;" horiz-adv-x="1372" 
d="M717 1321q-104 0 -173.5 -14t-126 -50t-88 -102.5t-47.5 -167.5t-16 -250v-41q0 -124 10 -214t34.5 -155.5t57.5 -106.5t86.5 -65t114.5 -33t148 -9h41q148 0 286 30v574h144v-676q-239 -61 -430 -61h-41q-166 0 -275 33.5t-182.5 116.5t-105 219.5t-31.5 346.5v41
q0 210 31.5 346.5t105 220t182.5 117t275 33.5h41q191 0 430 -61v-133q-229 61 -430 61h-41zM645 -317v163h184v-163l-102 -205h-102l92 205h-72z" />
    <glyph glyph-name="uni0123" unicode="&#x123;" 
d="M537 1260v163l102 205h102l-92 -205h72v-163h-184zM932 1106h133v-993q0 -166 -23 -269.5t-81.5 -168.5t-150 -90t-237.5 -25h-20q-201 0 -399 41v133q189 -41 399 -41h20q73 0 119 4.5t89 20t67 43t42 75t25 114.5t7 163v43q-48 -63 -103 -113q-50 -26 -131.5 -44.5
t-165.5 -18.5q-143 0 -227.5 47t-128 164.5t-43.5 320.5v82q0 152 26 256t81 164.5t130.5 86t182.5 25.5q152 0 276 -63q55 -50 103 -113zM575 113q80 -1 175.5 17.5t171.5 45.5v754q-73 26 -169.5 44.5t-177.5 18.5q-95 0 -150 -14.5t-93 -58.5t-52 -120.5t-14 -205.5v-82
q0 -89 6 -150.5t22 -106.5t37 -71.5t58.5 -42.5t79.5 -21.5t106 -6.5z" />
    <glyph glyph-name="Hbar" unicode="&#x126;" horiz-adv-x="1392" 
d="M1393 1178v-123h-185v-1055h-143v655h-737v-655h-144v1055h-184v123h184v256h144v-256h737v256h143v-256h185zM1065 788v267h-737v-267h737z" />
    <glyph glyph-name="hbar" unicode="&#x127;" 
d="M748 1126q155 0 236 -76.5t81 -230.5v-819h-143v809q0 98 -52 141t-174 43q-67 0 -178 -19.5t-190 -43.5v-930h-144v1260h-184v122h184v205h144v-205h307v-122h-307v-310q50 66 102 113q49 25 139.5 44t178.5 19z" />
    <glyph glyph-name="Imacron" unicode="&#x12a;" horiz-adv-x="512" 
d="M31 1638v123h450v-123h-450zM184 0v1434h144v-1434h-144z" />
    <glyph glyph-name="imacron" unicode="&#x12b;" horiz-adv-x="512" 
d="M31 1311v123h450v-123h-450zM328 0h-144v1106h144v-1106z" />
    <glyph glyph-name="Iogonek" unicode="&#x12e;" horiz-adv-x="512" 
d="M328 0q-107 -49 -161 -99t-54 -126v-21q0 -60 35.5 -86t107.5 -26h51v-62q-62 -20 -133 -20q-94 0 -149.5 46t-55.5 128v20q0 159 236 246h-21v1434h144v-1434z" />
    <glyph glyph-name="iogonek" unicode="&#x12f;" horiz-adv-x="512" 
d="M164 1454h184v-164h-184v164zM184 0v1106h144v-1106q-107 -49 -161 -99t-54 -126v-21q0 -60 35.5 -86t107.5 -26h51v-62q-62 -20 -133 -20q-94 0 -149.5 46t-55.5 128v20q0 159 236 246h-21z" />
    <glyph glyph-name="Idotaccent" unicode="&#x130;" horiz-adv-x="512" 
d="M164 1618v164h184v-164h-184zM184 0v1434h144v-1434h-144z" />
    <glyph glyph-name="dotlessi" unicode="&#x131;" horiz-adv-x="512" 
d="M328 0h-144v1106h144v-1106z" />
    <glyph glyph-name="uni0136" unicode="&#x136;" horiz-adv-x="1208" 
d="M686 727l481 -727h-174l-430 655h-235v-655h-144v1434h144v-646h241l414 646h164zM543 -317v163h184v-163l-102 -205h-103l92 205h-71z" />
    <glyph glyph-name="uni0137" unicode="&#x137;" horiz-adv-x="1085" 
d="M596 582l448 -582h-170l-411 532h-135v-532h-144v1587h144v-932h168l364 451h154zM471 -317v163h184v-163l-102 -205h-102l92 205h-72z" />
    <glyph glyph-name="Lacute" unicode="&#x139;" horiz-adv-x="1146" 
d="M543 1905l-226 -318h-122l163 318h185zM328 133h778v-133h-922v1434h144v-1301z" />
    <glyph glyph-name="lacute" unicode="&#x13a;" horiz-adv-x="512" 
d="M195 1741l163 317h185l-226 -317h-122zM328 0h-144v1587h144v-1587z" />
    <glyph glyph-name="uni013B" unicode="&#x13b;" horiz-adv-x="1146" 
d="M328 133h778v-133h-922v1434h144v-1301zM553 -317v163h184v-163l-102 -205h-103l93 205h-72z" />
    <glyph glyph-name="uni013C" unicode="&#x13c;" horiz-adv-x="512" 
d="M328 0h-144v1587h144v-1587zM358 -154v-163l-102 -205h-102l92 205h-72v163h184z" />
    <glyph glyph-name="Lcaron" unicode="&#x13d;" horiz-adv-x="1146" 
d="M328 133h778v-133h-922v1434h144v-1301zM553 1065h-102l92 205h-72v164h184v-164z" />
    <glyph glyph-name="lcaron" unicode="&#x13e;" horiz-adv-x="552" 
d="M328 0h-144v1587h144v-1587zM410 1219l92 204h-72v164h184v-164l-102 -204h-102z" />
    <glyph glyph-name="Ldot" unicode="&#x13f;" horiz-adv-x="1228" 
d="M328 133h778v-133h-922v1434h144v-1301zM844 850v-184h-185v184h185z" />
    <glyph glyph-name="ldot" unicode="&#x140;" horiz-adv-x="655" 
d="M328 0h-144v1587h144v-1587zM492 666v184h184v-184h-184z" />
    <glyph glyph-name="Lslash" unicode="&#x141;" horiz-adv-x="1146" 
d="M328 133h778v-133h-922v627l-184 -64v123l184 64v684h144v-635l266 92v-123l-266 -92v-543z" />
    <glyph glyph-name="lslash" unicode="&#x142;" horiz-adv-x="552" 
d="M532 911v-123l-184 -59v-729h-143v684l-185 -59v123l185 59v780h143v-735z" />
    <glyph glyph-name="Nacute" unicode="&#x143;" horiz-adv-x="1433" 
d="M993 1905l-225 -318h-123l164 318h184zM1116 1434h133v-1434h-184l-748 1239v-1239h-133v1434h185l747 -1239v1239z" />
    <glyph glyph-name="nacute" unicode="&#x144;" 
d="M563 1260l164 317h184l-225 -317h-123zM1065 0h-143v809q0 98 -52 141t-174 43q-68 0 -179 -18.5t-189 -42.5v-932h-144v1106h133l11 -154q45 60 102 111q49 25 139.5 44t178.5 19q155 0 236 -76.5t81 -230.5v-819z" />
    <glyph glyph-name="uni0145" unicode="&#x145;" horiz-adv-x="1433" 
d="M1116 1434h133v-1434h-184l-748 1239v-1239h-133v1434h185l747 -1239v1239zM625 -317v163h184v-163l-102 -205h-103l92 205h-71z" />
    <glyph glyph-name="uni0146" unicode="&#x146;" 
d="M1065 0h-143v809q0 98 -52 141t-174 43q-68 0 -179 -18.5t-189 -42.5v-932h-144v1106h133l11 -154q45 60 102 111q49 25 139.5 44t178.5 19q155 0 236 -76.5t81 -230.5v-819zM727 -154v-163l-102 -205h-103l92 205h-71v163h184z" />
    <glyph glyph-name="Ncaron" unicode="&#x147;" horiz-adv-x="1433" 
d="M799 1587h-185l-184 318h123l154 -195l153 195h123zM1116 1434h133v-1434h-184l-748 1239v-1239h-133v1434h185l747 -1239v1239z" />
    <glyph glyph-name="ncaron" unicode="&#x148;" 
d="M901 1577l-184 -317h-185l-184 317h123l154 -195l153 195h123zM1065 0h-143v809q0 98 -52 141t-174 43q-68 0 -179 -18.5t-189 -42.5v-932h-144v1106h133l11 -154q45 60 102 111q49 25 139.5 44t178.5 19q155 0 236 -76.5t81 -230.5v-819z" />
    <glyph glyph-name="Eng" unicode="&#x14a;" horiz-adv-x="1433" 
d="M1116 1434h133v-1434q0 -127 -19.5 -208t-69 -134.5t-131.5 -75.5t-210 -22h-31v133h31q73 0 115.5 4.5t78.5 17.5t53 40.5t26.5 69t11.5 107.5l-787 1307v-1239h-133v1434h185l747 -1239v1239z" />
    <glyph glyph-name="eng" unicode="&#x14b;" 
d="M748 1126q155 0 236 -76.5t81 -230.5v-819q0 -127 -19.5 -208t-69 -134.5t-131.5 -75.5t-210 -22h-31v133h31q67 0 107.5 3t76 15.5t53 31t30.5 55.5t16.5 83t3.5 119v809q0 98 -52 141t-174 43q-68 0 -179 -18.5t-189 -42.5v-932h-144v1106h133l11 -154q45 60 102 111
q49 25 139.5 44t178.5 19z" />
    <glyph glyph-name="Omacron" unicode="&#x14c;" horiz-adv-x="1392" 
d="M471 1638v123h451v-123h-451zM676 -20q-110 0 -190.5 14t-143.5 48.5t-104 87t-67 134.5t-37 186t-11 246v41q0 142 11 245.5t37 185.5t67 135t104 87.5t143.5 49t190.5 14.5h41q110 0 190.5 -14.5t143.5 -49t104 -87.5t67 -135t37 -185.5t11 -245.5v-41q0 -142 -11 -246
t-37 -186t-67 -134.5t-104 -87t-143.5 -48.5t-190.5 -14h-41zM676 113h41q86 0 144.5 8.5t107 33.5t76.5 64.5t47.5 107t26.5 155t7 214.5v41q0 127 -7 214.5t-26.5 155t-47.5 107.5t-76.5 65t-107 33.5t-144.5 8.5h-41q-86 0 -144.5 -8.5t-107 -33.5t-77 -65t-48 -107.5
t-26.5 -155t-7 -214.5v-41q0 -127 7 -214.5t26.5 -155t48 -107t77 -64.5t107 -33.5t144.5 -8.5z" />
    <glyph glyph-name="omacron" unicode="&#x14d;" horiz-adv-x="1208" 
d="M379 1311v123h450v-123h-450zM584 -20q-97 0 -166 10.5t-122 37t-85 66t-52.5 104t-28 143t-7.5 191.5v41q0 112 7.5 190.5t28 143.5t53 104.5t85 66.5t121.5 37.5t166 10.5h41q97 0 166 -10.5t121.5 -37.5t85 -66.5t52.5 -104.5t27.5 -143.5t7.5 -190.5v-41
q0 -113 -7.5 -191.5t-27.5 -143t-52.5 -104t-85 -66t-121.5 -37t-166 -10.5h-41zM584 113h41q58 0 96.5 2t74 10.5t56 19.5t39 35.5t27 52t15 74.5t8 97.5t1.5 127.5v41q0 77 -1.5 127.5t-8 97.5t-15 74.5t-27 52t-39 36t-56 20t-74 10.5t-96.5 2h-41q-58 0 -96.5 -2
t-74 -10.5t-56.5 -20t-39.5 -36t-27 -52t-15 -74.5t-8 -97.5t-1.5 -127.5v-41q0 -103 3 -163.5t16.5 -112.5t31.5 -76t57.5 -41.5t85.5 -21.5t124 -4z" />
    <glyph glyph-name="Ohungarumlaut" unicode="&#x150;" horiz-adv-x="1392" 
d="M481 1587l123 318h164l-164 -318h-123zM788 1587l123 318h164l-164 -318h-123zM676 -20q-110 0 -190.5 14t-143.5 48.5t-104 87t-67 134.5t-37 186t-11 246v41q0 142 11 245.5t37 185.5t67 135t104 87.5t143.5 49t190.5 14.5h41q110 0 190.5 -14.5t143.5 -49t104 -87.5
t67 -135t37 -185.5t11 -245.5v-41q0 -142 -11 -246t-37 -186t-67 -134.5t-104 -87t-143.5 -48.5t-190.5 -14h-41zM676 113h41q86 0 144.5 8.5t107 33.5t76.5 64.5t47.5 107t26.5 155t7 214.5v41q0 127 -7 214.5t-26.5 155t-47.5 107.5t-76.5 65t-107 33.5t-144.5 8.5h-41
q-86 0 -144.5 -8.5t-107 -33.5t-77 -65t-48 -107.5t-26.5 -155t-7 -214.5v-41q0 -127 7 -214.5t26.5 -155t48 -107t77 -64.5t107 -33.5t144.5 -8.5z" />
    <glyph glyph-name="ohungarumlaut" unicode="&#x151;" horiz-adv-x="1208" 
d="M389 1260l123 317h164l-164 -317h-123zM696 1260l123 317h164l-164 -317h-123zM584 -20q-97 0 -166 10.5t-122 37t-85 66t-52.5 104t-28 143t-7.5 191.5v41q0 112 7.5 190.5t28 143.5t53 104.5t85 66.5t121.5 37.5t166 10.5h41q97 0 166 -10.5t121.5 -37.5t85 -66.5
t52.5 -104.5t27.5 -143.5t7.5 -190.5v-41q0 -113 -7.5 -191.5t-27.5 -143t-52.5 -104t-85 -66t-121.5 -37t-166 -10.5h-41zM584 113h41q58 0 96.5 2t74 10.5t56 19.5t39 35.5t27 52t15 74.5t8 97.5t1.5 127.5v41q0 77 -1.5 127.5t-8 97.5t-15 74.5t-27 52t-39 36t-56 20
t-74 10.5t-96.5 2h-41q-58 0 -96.5 -2t-74 -10.5t-56.5 -20t-39.5 -36t-27 -52t-15 -74.5t-8 -97.5t-1.5 -127.5v-41q0 -103 3 -163.5t16.5 -112.5t31.5 -76t57.5 -41.5t85.5 -21.5t124 -4z" />
    <glyph glyph-name="OE" unicode="&#x152;" horiz-adv-x="2191" 
d="M2089 1300h-819v-512h594v-133h-594v-522h819v-133h-942v176q-56 -106 -158.5 -151t-271.5 -45h-41q-110 0 -190.5 14t-143.5 48.5t-104 87t-67 134.5t-37 186t-11 246v41q0 142 11 245.5t37 185.5t67 135t104 87.5t143.5 49t190.5 14.5h41q169 0 271.5 -45.5
t158.5 -151.5v177h942v-134zM1126 696v41q0 127 -7 214.5t-26.5 155t-47.5 107.5t-76.5 65t-107 33.5t-144.5 8.5h-41q-86 0 -144.5 -8.5t-107 -33.5t-77 -65t-48 -107.5t-26.5 -155t-7 -214.5v-41q0 -127 7 -214.5t26.5 -155t48 -107t77 -64.5t107 -33.5t144.5 -8.5h41
q86 0 144.5 8.5t107 33.5t76.5 64.5t47.5 107t26.5 155t7 214.5z" />
    <glyph glyph-name="oe" unicode="&#x153;" horiz-adv-x="1986" 
d="M1864 502h-779q1 -88 8.5 -150t27 -106t43.5 -69.5t66.5 -40t87.5 -19t116 -4.5h20q210 0 399 41v-134q-193 -40 -399 -40h-20q-170 0 -269 42t-147 142q-41 -101 -132.5 -142.5t-260.5 -41.5h-41q-97 0 -166 10.5t-122 37t-85 66t-52.5 104t-28 143t-7.5 191.5v41
q0 112 7.5 190.5t28 143.5t53 104.5t85 66.5t121.5 37.5t166 10.5h41q166 0 257.5 -40t133.5 -136q42 96 131 136t246 40h20q138 0 222.5 -25t137 -91t72 -168t19.5 -269v-71zM942 532v41q0 77 -1.5 127.5t-8 97.5t-15 74.5t-27 52t-39 36t-56 20t-74 10.5t-96.5 2h-41
q-58 0 -96.5 -2t-74 -10.5t-56.5 -20t-39.5 -36t-27 -52t-15 -74.5t-8 -97.5t-1.5 -127.5v-41q0 -103 3 -163.5t16.5 -112.5t31.5 -76t57.5 -41.5t85.5 -21.5t124 -4h41q58 0 96.5 2t74 10.5t56 19.5t39 35.5t27 52t15 74.5t8 97.5t1.5 127.5zM1393 993q-69 0 -111 -4
t-80 -18t-57 -37t-34 -66.5t-20 -99.5t-6 -143h635q-1 87 -6 143t-19.5 99.5t-33.5 66.5t-57 37t-80 18t-111 4h-20z" />
    <glyph glyph-name="Racute" unicode="&#x154;" horiz-adv-x="1290" 
d="M891 1905l-225 -318h-123l164 318h184zM1167 983q0 -196 -95.5 -296t-319.5 -112l374 -575h-174l-364 573h-260v-573h-144v1434h502q176 0 283.5 -48t152.5 -136.5t45 -225.5v-41zM1024 983v41q0 76 -15.5 126t-54 85t-103.5 50t-165 15h-358v-593h358q100 0 165 15
t103.5 50t54 85t15.5 126z" />
    <glyph glyph-name="racute" unicode="&#x155;" horiz-adv-x="747" 
d="M307 1260l164 317h184l-225 -317h-123zM317 1106l11 -154q45 60 102 111q51 26 131 44.5t166 18.5v-153q-85 0 -135 -1.5t-128.5 -11t-135.5 -28.5v-932h-144v1106h133z" />
    <glyph glyph-name="uni0156" unicode="&#x156;" horiz-adv-x="1290" 
d="M1167 983q0 -196 -95.5 -296t-319.5 -112l374 -575h-174l-364 573h-260v-573h-144v1434h502q176 0 283.5 -48t152.5 -136.5t45 -225.5v-41zM1024 983v41q0 76 -15.5 126t-54 85t-103.5 50t-165 15h-358v-593h358q100 0 165 15t103.5 50t54 85t15.5 126zM522 -317v163h185
v-163l-103 -205h-102l92 205h-72z" />
    <glyph glyph-name="uni0157" unicode="&#x157;" horiz-adv-x="747" 
d="M317 1106l11 -154q45 60 102 111q51 26 131 44.5t166 18.5v-153q-85 0 -135 -1.5t-128.5 -11t-135.5 -28.5v-932h-144v1106h133zM358 -154v-163l-102 -205h-102l92 205h-72v163h184z" />
    <glyph glyph-name="Rcaron" unicode="&#x158;" horiz-adv-x="1290" 
d="M696 1587h-184l-184 318h123l153 -195l154 195h123zM1167 983q0 -196 -95.5 -296t-319.5 -112l374 -575h-174l-364 573h-260v-573h-144v1434h502q176 0 283.5 -48t152.5 -136.5t45 -225.5v-41zM1024 983v41q0 76 -15.5 126t-54 85t-103.5 50t-165 15h-358v-593h358
q100 0 165 15t103.5 50t54 85t15.5 126z" />
    <glyph glyph-name="rcaron" unicode="&#x159;" horiz-adv-x="747" 
d="M645 1577l-184 -317h-185l-184 317h123l154 -195l153 195h123zM317 1106l11 -154q45 60 102 111q51 26 131 44.5t166 18.5v-153q-85 0 -135 -1.5t-128.5 -11t-135.5 -28.5v-932h-144v1106h133z" />
    <glyph glyph-name="Sacute" unicode="&#x15a;" horiz-adv-x="1269" 
d="M932 1905l-225 -318h-123l164 318h184zM645 788q72 -5 113 -9t104 -15.5t99.5 -27.5t81 -45.5t68 -69t40 -98.5t16.5 -134q0 -210 -135 -309.5t-438 -99.5q-204 0 -492 51v137q271 -55 492 -55q173 0 267 29.5t128.5 87t34.5 159.5q0 58 -14 102t-40 71t-59.5 44.5
t-77 26t-87 13t-94.5 7.5q-8 0 -13 0.5t-12 1t-13 0.5q-58 4 -96 8t-94.5 15t-94 27.5t-80 46.5t-67.5 69.5t-42 99.5t-17 134q0 209 125 304t407 95q170 0 451 -57v-137q-242 61 -451 61q-158 0 -242.5 -27t-115.5 -82t-31 -157q0 -174 141 -229q66 -27 222 -37h1h1h1h1h1
h1h1h1l1 -1h1h1h1h1h1h1h1z" />
    <glyph glyph-name="sacute" unicode="&#x15b;" horiz-adv-x="1105" 
d="M840 1577l-226 -317h-122l163 317h185zM573 625q61 -5 101 -10t89.5 -15t81.5 -24t65 -37.5t51.5 -54.5t30.5 -76t12 -101q0 -168 -117.5 -247.5t-364.5 -79.5q-240 0 -420 36v138q200 -44 420 -41q134 1 207.5 21t102 60.5t28.5 112.5q0 47 -17 80t-34.5 50.5
t-68.5 29.5t-75.5 14.5t-99.5 8.5q-15 1 -22 2q-51 4 -86 7.5t-84 13t-82 23t-69.5 37.5t-58 55t-36 77.5t-14.5 103.5q0 159 110 238t320 79q229 0 409 -36v-138q-200 43 -409 41q-160 -1 -223.5 -43.5t-63.5 -140.5q0 -45 18.5 -78t39.5 -50t70.5 -29.5t76 -15.5t91.5 -9
q7 -1 11.5 -1.5t9.5 -0.5z" />
    <glyph glyph-name="Scedilla" unicode="&#x15e;" horiz-adv-x="1269" 
d="M1167 389q0 -202 -126 -302t-406 -107v-72q76 0 135 -41t59 -113v-20q0 -82 -55 -128t-149 -46q-71 0 -133 20v62h51q143 0 143 92v20q0 45 -35 68.5t-98 23.5v134q-181 4 -451 51v137q271 -55 492 -55q173 0 267 29.5t128.5 87t34.5 159.5q0 58 -14 102t-40 71
t-59.5 44.5t-77 26t-87 13t-94.5 7.5q-8 0 -13 0.5t-12 1t-13 0.5q-58 4 -96 8t-94.5 15t-94 27.5t-80 46.5t-67.5 69.5t-42 99.5t-17 134q0 209 125 304t407 95q170 0 451 -57v-137q-242 61 -451 61q-158 0 -242.5 -27t-115.5 -82t-31 -157q0 -174 141 -229q66 -27 222 -37
h1h1h1h1h1h1h1h1l1 -1h1h1h1h1h1h1h1q72 -5 113 -9t104 -15.5t99.5 -27.5t81 -45.5t68 -69t40 -98.5t16.5 -134z" />
    <glyph glyph-name="scedilla" unicode="&#x15f;" horiz-adv-x="1105" 
d="M1004 307q0 -161 -108 -241t-333 -86v-72q76 0 135.5 -41t59.5 -113v-20q0 -82 -55.5 -128t-149.5 -46q-71 0 -133 20v62h51q143 0 143 92v20q0 45 -35 68.5t-98 23.5v134q-209 3 -379 36v138q200 -44 420 -41q134 1 207.5 21t102 60.5t28.5 112.5q0 47 -17 80
t-34.5 50.5t-68.5 29.5t-75.5 14.5t-99.5 8.5q-15 1 -22 2q-51 4 -86 7.5t-84 13t-82 23t-69.5 37.5t-58 55t-36 77.5t-14.5 103.5q0 159 110 238t320 79q229 0 409 -36v-138q-200 43 -409 41q-160 -1 -223.5 -43.5t-63.5 -140.5q0 -45 18.5 -78t39.5 -50t70.5 -29.5
t76 -15.5t91.5 -9q7 -1 11.5 -1.5t9.5 -0.5q61 -5 101 -10t89.5 -15t81.5 -24t65 -37.5t51.5 -54.5t30.5 -76t12 -101z" />
    <glyph glyph-name="Scaron" unicode="&#x160;" horiz-adv-x="1269" 
d="M737 1587h-184l-184 318h123l153 -195l154 195h123zM645 788q72 -5 113 -9t104 -15.5t99.5 -27.5t81 -45.5t68 -69t40 -98.5t16.5 -134q0 -210 -135 -309.5t-438 -99.5q-204 0 -492 51v137q271 -55 492 -55q173 0 267 29.5t128.5 87t34.5 159.5q0 58 -14 102t-40 71
t-59.5 44.5t-77 26t-87 13t-94.5 7.5q-8 0 -13 0.5t-12 1t-13 0.5q-58 4 -96 8t-94.5 15t-94 27.5t-80 46.5t-67.5 69.5t-42 99.5t-17 134q0 209 125 304t407 95q170 0 451 -57v-137q-242 61 -451 61q-158 0 -242.5 -27t-115.5 -82t-31 -157q0 -174 141 -229q66 -27 222 -37
h1h1h1h1h1h1h1h1l1 -1h1h1h1h1h1h1h1z" />
    <glyph glyph-name="scaron" unicode="&#x161;" horiz-adv-x="1105" 
d="M645 1260h-184l-185 317h123l154 -195l154 195h122zM573 625q61 -5 101 -10t89.5 -15t81.5 -24t65 -37.5t51.5 -54.5t30.5 -76t12 -101q0 -168 -117.5 -247.5t-364.5 -79.5q-240 0 -420 36v138q200 -44 420 -41q134 1 207.5 21t102 60.5t28.5 112.5q0 47 -17 80
t-34.5 50.5t-68.5 29.5t-75.5 14.5t-99.5 8.5q-15 1 -22 2q-51 4 -86 7.5t-84 13t-82 23t-69.5 37.5t-58 55t-36 77.5t-14.5 103.5q0 159 110 238t320 79q229 0 409 -36v-138q-200 43 -409 41q-160 -1 -223.5 -43.5t-63.5 -140.5q0 -45 18.5 -78t39.5 -50t70.5 -29.5
t76 -15.5t91.5 -9q7 -1 11.5 -1.5t9.5 -0.5z" />
    <glyph glyph-name="uni0162" unicode="&#x162;" horiz-adv-x="1167" 
d="M655 0h-30v-92q76 0 135 -41t59 -113v-20q0 -82 -55.5 -128t-149.5 -46q-71 0 -133 20v62h51q144 0 144 92v20q0 45 -35 68.5t-98 23.5v154h-31v1300h-471v134h1085v-134h-471v-1300z" />
    <glyph glyph-name="uni0163" unicode="&#x163;" horiz-adv-x="716" 
d="M696 983h-327v-563q0 -64 2 -103.5t10 -75t21 -54t36.5 -32t55 -18t79.5 -4.5h123v-133h-133q-43 0 -61 2v-94q76 0 135 -41t59 -113v-20q0 -82 -55 -128t-149 -46q-72 0 -134 20v62h52q143 0 143 92v20q0 45 -35 68.5t-98 23.5v166q-114 26 -154.5 116t-40.5 292v563
h-184v102l184 21l21 328h123v-328h327v-123z" />
    <glyph glyph-name="Tcaron" unicode="&#x164;" horiz-adv-x="1167" 
d="M676 1587h-184l-185 318h123l154 -195l153 195h123zM1126 1434v-134h-471v-1300h-143v1300h-471v134h1085z" />
    <glyph glyph-name="tcaron" unicode="&#x165;" horiz-adv-x="716" 
d="M573 1219h-102l92 204h-71v164h184v-164zM696 983h-327v-563q0 -64 2 -103.5t10 -75t21 -54t36.5 -32t55 -18t79.5 -4.5h123v-133h-133q-71 0 -121 8t-89 28.5t-62.5 50.5t-39 79t-21 109t-5.5 145v563h-184v102l184 21l21 328h123v-328h327v-123z" />
    <glyph glyph-name="Tbar" unicode="&#x166;" horiz-adv-x="1167" 
d="M1126 1300h-471v-563h267v-123h-267v-614h-143v614h-266v123h266v563h-471v134h1085v-134z" />
    <glyph glyph-name="tbar" unicode="&#x167;" horiz-adv-x="716" 
d="M696 983h-327v-358h327v-123h-327v-82q0 -64 2 -103.5t10 -75t21 -54t36.5 -32t55 -18t79.5 -4.5h123v-133h-133q-71 0 -121 8t-89 28.5t-62.5 50.5t-39 79t-21 109t-5.5 145v82h-184v123h184v358h-184v102l184 21l21 328h123v-328h327v-123z" />
    <glyph glyph-name="Umacron" unicode="&#x16a;" horiz-adv-x="1474" 
d="M512 1638v123h451v-123h-451zM328 1434v-799q0 -118 9 -197t33.5 -145t68 -103t112 -57t166.5 -20h41q98 0 166.5 20t112 57t68 103t33.5 145t9 197v799h143v-799q0 -136 -14 -235t-49.5 -181.5t-95.5 -133t-152.5 -78t-220.5 -27.5h-41q-128 0 -220.5 27.5t-153 78
t-96 133t-49.5 181.5t-14 235v799h144z" />
    <glyph glyph-name="umacron" unicode="&#x16b;" 
d="M399 1311v123h451v-123h-451zM502 -20q-156 0 -237 76.5t-81 230.5v819h144v-809q0 -98 51.5 -141t173.5 -43q67 0 178.5 19.5t190.5 43.5v930h143v-1106h-133l-10 156q-56 -71 -103 -113q-49 -25 -139 -44t-178 -19z" />
    <glyph glyph-name="Uring" unicode="&#x16e;" horiz-adv-x="1474" 
d="M727 1577q-90 0 -137.5 18.5t-62.5 51.5t-15 94v20q0 61 15 94t62.5 51.5t137.5 18.5h21q90 0 137.5 -18.5t62.5 -51.5t15 -94v-20q0 -61 -15 -94t-62.5 -51.5t-137.5 -18.5h-21zM727 1669h21q61 0 76.5 13t15.5 59v20q0 46 -15.5 59t-76.5 13h-21q-61 0 -76.5 -13
t-15.5 -59v-20q0 -46 15.5 -59t76.5 -13zM328 1434v-799q0 -118 9 -197t33.5 -145t68 -103t112 -57t166.5 -20h41q98 0 166.5 20t112 57t68 103t33.5 145t9 197v799h143v-799q0 -136 -14 -235t-49.5 -181.5t-95.5 -133t-152.5 -78t-220.5 -27.5h-41q-128 0 -220.5 27.5
t-153 78t-96 133t-49.5 181.5t-14 235v799h144z" />
    <glyph glyph-name="uring" unicode="&#x16f;" 
d="M614 1249q-90 0 -137.5 18.5t-62.5 51.5t-15 94v21q0 46 8 74t30.5 49.5t65.5 30.5t111 9h21q68 0 111 -9t65.5 -30.5t30.5 -49.5t8 -74v-21q0 -61 -15 -94t-62.5 -51.5t-137.5 -18.5h-21zM614 1341h21q61 0 76.5 13t15.5 59v21q0 46 -15.5 58.5t-76.5 12.5h-21
q-61 0 -76.5 -12.5t-15.5 -58.5v-21q0 -46 15.5 -59t76.5 -13zM502 -20q-156 0 -237 76.5t-81 230.5v819h144v-809q0 -98 51.5 -141t173.5 -43q67 0 178.5 19.5t190.5 43.5v930h143v-1106h-133l-10 156q-56 -71 -103 -113q-49 -25 -139 -44t-178 -19z" />
    <glyph glyph-name="Uhungarumlaut" unicode="&#x170;" horiz-adv-x="1474" 
d="M522 1587l123 318h164l-164 -318h-123zM829 1587l123 318h164l-164 -318h-123zM328 1434v-799q0 -118 9 -197t33.5 -145t68 -103t112 -57t166.5 -20h41q98 0 166.5 20t112 57t68 103t33.5 145t9 197v799h143v-799q0 -136 -14 -235t-49.5 -181.5t-95.5 -133t-152.5 -78
t-220.5 -27.5h-41q-128 0 -220.5 27.5t-153 78t-96 133t-49.5 181.5t-14 235v799h144z" />
    <glyph glyph-name="uhungarumlaut" unicode="&#x171;" 
d="M410 1260l122 317h164l-164 -317h-122zM717 1260l123 317h164l-164 -317h-123zM502 -20q-156 0 -237 76.5t-81 230.5v819h144v-809q0 -98 51.5 -141t173.5 -43q67 0 178.5 19.5t190.5 43.5v930h143v-1106h-133l-10 156q-56 -71 -103 -113q-49 -25 -139 -44t-178 -19z" />
    <glyph glyph-name="Uogonek" unicode="&#x172;" horiz-adv-x="1474" 
d="M1147 1434h143v-799q0 -118 -10.5 -207t-36 -166.5t-68 -130t-108 -88.5t-154.5 -51q-96 -46 -146 -96t-50 -121v-21q0 -60 35.5 -86t107.5 -26h51v-62q-62 -20 -133 -20q-94 0 -149.5 46t-55.5 128v20q0 140 187 226h-2h-41q-128 0 -220.5 27.5t-153 78t-96 133
t-49.5 181.5t-14 235v799h144v-799q0 -118 9 -197t33.5 -145t68 -103t112 -57t166.5 -20h41q98 0 166.5 20t112 57t68 103t33.5 145t9 197v799z" />
    <glyph glyph-name="uogonek" unicode="&#x173;" 
d="M1065 0q-107 -49 -161 -99t-54 -126v-21q0 -60 35.5 -86t107.5 -26h51v-62q-62 -20 -133 -20q-94 0 -149 46t-55 128v20q0 160 235 246h-10l-10 156q-56 -71 -103 -113q-49 -25 -139 -44t-178 -19q-156 0 -237 76.5t-81 230.5v819h144v-809q0 -98 51.5 -141t173.5 -43
q67 0 178.5 19.5t190.5 43.5v930h143v-1106z" />
    <glyph glyph-name="Wcircumflex" unicode="&#x174;" horiz-adv-x="1812" 
d="M901 1782l-153 -195h-123l184 318h184l185 -318h-123zM1638 1434h134l-400 -1444h-170l-299 1227l-305 -1227h-168l-389 1444h154l325 -1244l309 1244h164l303 -1254z" />
    <glyph glyph-name="wcircumflex" unicode="&#x175;" horiz-adv-x="1761" 
d="M891 1454l-154 -194h-123l185 317h184l184 -317h-123zM1587 1106h133l-358 -1116h-164l-315 930l-299 -930h-164l-379 1116h154l315 -956l299 956h164l315 -956z" />
    <glyph glyph-name="Ycircumflex" unicode="&#x176;" horiz-adv-x="1146" 
d="M584 1782l-154 -195h-123l185 318h184l184 -318h-123zM983 1434h143l-471 -963v-471h-143v471l-492 963h164l408 -818z" />
    <glyph glyph-name="ycircumflex" unicode="&#x177;" horiz-adv-x="1064" 
d="M543 1454l-154 -194h-123l185 317h184l184 -317h-123zM881 1106h143l-399 -1106q-46 -128 -103 -213t-135.5 -135.5t-172.5 -71t-224 -20.5v133q85 0 144.5 7.5t114 26.5t95.5 54t78 88t72 131h-74l-379 1106h154l333 -1008z" />
    <glyph glyph-name="Ydieresis" unicode="&#x178;" horiz-adv-x="1146" 
d="M502 1782v-164h-185v164h185zM850 1782v-164h-184v164h184zM983 1434h143l-471 -963v-471h-143v471l-492 963h164l408 -818z" />
    <glyph glyph-name="Zacute" unicode="&#x179;" horiz-adv-x="1228" 
d="M932 1905l-225 -318h-123l164 318h184zM272 123h854v-123h-1024v123l834 1188h-813v123h983v-123z" />
    <glyph glyph-name="zacute" unicode="&#x17a;" horiz-adv-x="1044" 
d="M778 1577l-225 -317h-123l164 317h184zM252 123h711v-123h-881v123l690 860h-670v123h840v-123z" />
    <glyph glyph-name="Zdotaccent" unicode="&#x17b;" horiz-adv-x="1228" 
d="M737 1782v-164h-184v164h184zM272 123h854v-123h-1024v123l834 1188h-813v123h983v-123z" />
    <glyph glyph-name="zdotaccent" unicode="&#x17c;" horiz-adv-x="1044" 
d="M584 1454v-164h-185v164h185zM252 123h711v-123h-881v123l690 860h-670v123h840v-123z" />
    <glyph glyph-name="Zcaron" unicode="&#x17d;" horiz-adv-x="1228" 
d="M737 1587h-184l-184 318h123l153 -195l154 195h123zM272 123h854v-123h-1024v123l834 1188h-813v123h983v-123z" />
    <glyph glyph-name="zcaron" unicode="&#x17e;" horiz-adv-x="1044" 
d="M584 1260h-185l-184 317h123l154 -195l153 195h123zM252 123h711v-123h-881v123l690 860h-670v123h840v-123z" />
    <glyph glyph-name="florin" unicode="&#x192;" horiz-adv-x="778" 
d="M799 1608h30l-18 -133h-31q-67 0 -108 -3.5t-77.5 -15.5t-57 -31t-38.5 -56t-28 -83t-20 -119l-9 -61h267l-19 -123h-266l-137 -983q-17 -127 -48 -208t-88.5 -134.5t-142 -75.5t-213.5 -22h-31l19 133h31q67 0 107.5 3t78 15.5t57.5 31t38 55.5t28 83t20 119l138 983
h-185l15 102l188 21l8 61q23 169 73.5 262t149.5 136t269 43z" />
    <glyph glyph-name="uni0218" unicode="&#x218;" horiz-adv-x="1269" 
d="M645 788q72 -5 113 -9t104 -15.5t99.5 -27.5t81 -45.5t68 -69t40 -98.5t16.5 -134q0 -210 -135 -309.5t-438 -99.5q-204 0 -492 51v137q271 -55 492 -55q173 0 267 29.5t128.5 87t34.5 159.5q0 58 -14 102t-40 71t-59.5 44.5t-77 26t-87 13t-94.5 7.5q-8 0 -13 0.5t-12 1
t-13 0.5q-58 4 -96 8t-94.5 15t-94 27.5t-80 46.5t-67.5 69.5t-42 99.5t-17 134q0 209 125 304t407 95q170 0 451 -57v-137q-242 61 -451 61q-158 0 -242.5 -27t-115.5 -82t-31 -157q0 -174 141 -229q66 -27 222 -37h1h1h1h1h1h1h1h1l1 -1h1h1h1h1h1h1h1zM512 -317v163h184
v-163l-102 -205h-102l92 205h-72z" />
    <glyph glyph-name="uni0219" unicode="&#x219;" horiz-adv-x="1105" 
d="M573 625q61 -5 101 -10t89.5 -15t81.5 -24t65 -37.5t51.5 -54.5t30.5 -76t12 -101q0 -168 -117.5 -247.5t-364.5 -79.5q-240 0 -420 36v138q200 -44 420 -41q134 1 207.5 21t102 60.5t28.5 112.5q0 47 -17 80t-34.5 50.5t-68.5 29.5t-75.5 14.5t-99.5 8.5q-15 1 -22 2
q-51 4 -86 7.5t-84 13t-82 23t-69.5 37.5t-58 55t-36 77.5t-14.5 103.5q0 159 110 238t320 79q229 0 409 -36v-138q-200 43 -409 41q-160 -1 -223.5 -43.5t-63.5 -140.5q0 -45 18.5 -78t39.5 -50t70.5 -29.5t76 -15.5t91.5 -9q7 -1 11.5 -1.5t9.5 -0.5zM440 -317v163h185
v-163l-103 -205h-102l92 205h-72z" />
    <glyph glyph-name="uni021A" unicode="&#x21a;" horiz-adv-x="1167" 
d="M1126 1434v-134h-471v-1300h-143v1300h-471v134h1085zM502 -317v163h184v-163l-102 -205h-103l92 205h-71z" />
    <glyph glyph-name="uni021B" unicode="&#x21b;" horiz-adv-x="716" 
d="M696 983h-327v-563q0 -64 2 -103.5t10 -75t21 -54t36.5 -32t55 -18t79.5 -4.5h123v-133h-133q-71 0 -121 8t-89 28.5t-62.5 50.5t-39 79t-21 109t-5.5 145v563h-184v102l184 21l21 328h123v-328h327v-123zM379 -317v163h184v-163l-102 -205h-103l93 205h-72z" />
    <glyph glyph-name="circumflex" unicode="&#x2c6;" horiz-adv-x="757" 
d="M655 1260h-123l-153 194l-154 -194h-123l185 317h184z" />
    <glyph glyph-name="caron" unicode="&#x2c7;" horiz-adv-x="757" 
d="M655 1577l-184 -317h-184l-185 317h123l154 -195l153 195h123z" />
    <glyph glyph-name="breve" unicode="&#x2d8;" horiz-adv-x="757" 
d="M369 1280q-143 0 -205 70.5t-62 226.5h113q0 -110 37.5 -152.5t116.5 -42.5h20q79 0 116.5 42.5t37.5 152.5h112q0 -156 -61.5 -226.5t-204.5 -70.5h-20z" />
    <glyph glyph-name="dotaccent" unicode="&#x2d9;" horiz-adv-x="389" 
d="M102 1290v164h185v-164h-185z" />
    <glyph glyph-name="ring" unicode="&#x2da;" horiz-adv-x="655" 
d="M317 1249q-90 0 -137.5 18.5t-62.5 51.5t-15 94v21q0 46 8 74t30.5 49.5t65.5 30.5t111 9h21q68 0 111 -9t65.5 -30.5t30.5 -49.5t8 -74v-21q0 -61 -15 -94t-62.5 -51.5t-137.5 -18.5h-21zM317 1341h21q61 0 76.5 13t15.5 59v21q0 46 -15.5 58.5t-76.5 12.5h-21
q-61 0 -76.5 -12.5t-15.5 -58.5v-21q0 -46 15.5 -59t76.5 -13z" />
    <glyph glyph-name="ogonek" unicode="&#x2db;" horiz-adv-x="563" 
d="M440 -420q-62 -20 -133 -20q-94 0 -149.5 46t-55.5 128v20q0 159 236 246h123q-107 -49 -161 -99t-54 -126v-21q0 -60 35.5 -86t107.5 -26h51v-62z" />
    <glyph glyph-name="tilde" unicode="&#x2dc;" horiz-adv-x="737" 
d="M102 1413q51 41 144 41q54 0 133.5 -25.5t122.5 -25.5q66 0 133 41v-123q-51 -41 -143 -41q-54 0 -133.5 25.5t-122.5 25.5q-67 0 -134 -41v123z" />
    <glyph glyph-name="hungarumlaut" unicode="&#x2dd;" horiz-adv-x="798" 
d="M102 1260l123 317h164l-164 -317h-123zM410 1260l122 317h164l-164 -317h-122z" />
    <glyph glyph-name="gravecomb" unicode="&#x300;" horiz-adv-x="0" 
d="M-102 1260h-123l-226 317h185z" />
    <glyph glyph-name="acutecomb" unicode="&#x301;" horiz-adv-x="0" 
d="M-451 1260l164 317h185l-226 -317h-123z" />
    <glyph glyph-name="uni0302" unicode="&#x302;" horiz-adv-x="0" 
d="M-102 1260h-123l-154 194l-153 -194h-123l184 317h184z" />
    <glyph glyph-name="tildecomb" unicode="&#x303;" horiz-adv-x="0" 
d="M-635 1413q51 41 143 41q54 0 133.5 -25.5t122.5 -25.5q67 0 134 41v-123q-51 -41 -144 -41q-54 0 -133.5 25.5t-122.5 25.5q-66 0 -133 -41v123z" />
    <glyph glyph-name="uni0304" unicode="&#x304;" horiz-adv-x="0" 
d="M-553 1311v123h451v-123h-451z" />
    <glyph glyph-name="uni0306" unicode="&#x306;" horiz-adv-x="0" 
d="M-389 1280q-143 0 -204.5 70.5t-61.5 226.5h112q0 -110 37.5 -152.5t116.5 -42.5h20q79 0 116.5 42.5t37.5 152.5h113q0 -156 -62 -226.5t-205 -70.5h-20z" />
    <glyph glyph-name="uni0307" unicode="&#x307;" horiz-adv-x="0" 
d="M-287 1290v164h185v-164h-185z" />
    <glyph glyph-name="uni0308" unicode="&#x308;" horiz-adv-x="0" 
d="M-635 1290v164h184v-164h-184zM-287 1290v164h185v-164h-185z" />
    <glyph glyph-name="uni030A" unicode="&#x30a;" horiz-adv-x="0" 
d="M-338 1249q-90 0 -137.5 18.5t-62.5 51.5t-15 94v21q0 46 8 74t30.5 49.5t65.5 30.5t111 9h21q68 0 111 -9t65.5 -30.5t30.5 -49.5t8 -74v-21q0 -61 -15 -94t-62.5 -51.5t-137.5 -18.5h-21zM-338 1341h21q61 0 76.5 13t15.5 59v21q0 46 -15.5 58.5t-76.5 12.5h-21
q-61 0 -76.5 -12.5t-15.5 -58.5v-21q0 -46 15.5 -59t76.5 -13z" />
    <glyph glyph-name="uni030B" unicode="&#x30b;" horiz-adv-x="0" 
d="M-696 1260l123 317h163l-163 -317h-123zM-389 1260l123 317h164l-164 -317h-123z" />
    <glyph glyph-name="uni030C" unicode="&#x30c;" horiz-adv-x="0" 
d="M-102 1577l-185 -317h-184l-184 317h123l153 -195l154 195h123z" />
    <glyph glyph-name="uni0312" unicode="&#x312;" horiz-adv-x="0" 
d="M-307 1260v163l102 205h103l-93 -205h72v-163h-184z" />
    <glyph glyph-name="uni0326" unicode="&#x326;" horiz-adv-x="0" 
d="M-102 -154v-163l-103 -205h-102l92 205h-72v163h185z" />
    <glyph glyph-name="uni0327" unicode="&#x327;" horiz-adv-x="0" 
d="M-297 -92q76 0 135.5 -41t59.5 -113v-20q0 -82 -55.5 -128t-149.5 -46q-71 0 -133 20v62h51q143 0 143 92v20q0 45 -35 68.5t-98 23.5v174h82v-112z" />
    <glyph glyph-name="uni0328" unicode="&#x328;" horiz-adv-x="0" 
d="M-123 -420q-62 -20 -133 -20q-94 0 -149.5 46t-55.5 128v20q0 159 236 246h123q-107 -49 -161 -99t-54 -126v-21q0 -60 35.5 -86t107.5 -26h51v-62z" />
    <glyph glyph-name="uni0335" unicode="&#x335;" horiz-adv-x="0" 
d="M-860 655v123h778v-123h-778z" />
    <glyph glyph-name="uni0336" unicode="&#x336;" horiz-adv-x="0" 
d="M-1475 655v123h1393v-123h-1393z" />
    <glyph glyph-name="uni0337" unicode="&#x337;" horiz-adv-x="0" 
d="M-215 1229h133l-747 -1352h-134z" />
    <glyph glyph-name="uni0338" unicode="&#x338;" horiz-adv-x="0" 
d="M-215 1556h133l-932 -1679h-133z" />
    <glyph glyph-name="uni0394" unicode="&#x394;" horiz-adv-x="1228" 
d="M686 1444l502 -1444h-1147l471 1444h174zM225 123h768l-397 1165z" />
    <glyph glyph-name="uni03A9" unicode="&#x3a9;" horiz-adv-x="1392" 
d="M1270 860q0 -239 -87 -368.5t-272 -167.5v-191h338v-133h-471v442q122 5 196 44.5t113 130.5t39 243v41q0 123 -23 204t-74.5 129t-125.5 67.5t-186 19.5h-41q-112 0 -186 -19.5t-126 -67.5t-75 -129t-23 -204v-41q0 -152 39 -243t113 -130.5t196 -44.5v-442h-471v133
h338v193q-185 37 -271.5 166t-86.5 368v41q0 292 130.5 422.5t422.5 130.5h41q292 0 422.5 -130.5t130.5 -422.5v-41z" />
    <glyph glyph-name="uni03BC" unicode="&#x3bc;" 
d="M922 1106h143v-1106h-133l-10 156q-56 -71 -103 -113q-49 -25 -139 -44t-178 -19q-110 0 -174 43v-23q0 -127 -19.5 -208t-69 -134.5t-131.5 -75.5t-210 -22h-31v133h31q67 0 107.5 3t75.5 15.5t52.5 31t30.5 55.5t16.5 83t3.5 119v1106h144v-809q0 -98 51.5 -141
t173.5 -43q67 0 178.5 19.5t190.5 43.5v930z" />
    <glyph glyph-name="pi" unicode="&#x3c0;" horiz-adv-x="1331" 
d="M225 0v983h-184v123h1249v-123h-184v-983h-143v983h-594v-983h-144z" />
    <glyph glyph-name="Wgrave" unicode="&#x1e80;" horiz-adv-x="1812" 
d="M963 1587h-123l-226 318h185zM1638 1434h134l-400 -1444h-170l-299 1227l-305 -1227h-168l-389 1444h154l325 -1244l309 1244h164l303 -1254z" />
    <glyph glyph-name="wgrave" unicode="&#x1e81;" horiz-adv-x="1761" 
d="M952 1260h-123l-225 317h184zM1587 1106h133l-358 -1116h-164l-315 930l-299 -930h-164l-379 1116h154l315 -956l299 956h164l315 -956z" />
    <glyph glyph-name="Wacute" unicode="&#x1e82;" horiz-adv-x="1812" 
d="M1188 1905l-225 -318h-123l164 318h184zM1638 1434h134l-400 -1444h-170l-299 1227l-305 -1227h-168l-389 1444h154l325 -1244l309 1244h164l303 -1254z" />
    <glyph glyph-name="wacute" unicode="&#x1e83;" horiz-adv-x="1761" 
d="M1178 1577l-226 -317h-123l164 317h185zM1587 1106h133l-358 -1116h-164l-315 930l-299 -930h-164l-379 1116h154l315 -956l299 956h164l315 -956z" />
    <glyph glyph-name="Wdieresis" unicode="&#x1e84;" horiz-adv-x="1812" 
d="M819 1782v-164h-184v164h184zM1167 1782v-164h-184v164h184zM1638 1434h134l-400 -1444h-170l-299 1227l-305 -1227h-168l-389 1444h154l325 -1244l309 1244h164l303 -1254z" />
    <glyph glyph-name="wdieresis" unicode="&#x1e85;" horiz-adv-x="1761" 
d="M809 1454v-164h-184v164h184zM1157 1454v-164h-184v164h184zM1587 1106h133l-358 -1116h-164l-315 930l-299 -930h-164l-379 1116h154l315 -956l299 956h164l315 -956z" />
    <glyph glyph-name="Ygrave" unicode="&#x1ef2;" horiz-adv-x="1146" 
d="M645 1587h-123l-225 318h184zM983 1434h143l-471 -963v-471h-143v471l-492 963h164l408 -818z" />
    <glyph glyph-name="ygrave" unicode="&#x1ef3;" horiz-adv-x="1064" 
d="M604 1260h-123l-225 317h184zM881 1106h143l-399 -1106q-46 -128 -103 -213t-135.5 -135.5t-172.5 -71t-224 -20.5v133q85 0 144.5 7.5t114 26.5t95.5 54t78 88t72 131h-74l-379 1106h154l333 -1008z" />
    <glyph glyph-name="endash" unicode="&#x2013;" horiz-adv-x="1228" 
d="M102 492v122h1024v-122h-1024z" />
    <glyph glyph-name="emdash" unicode="&#x2014;" horiz-adv-x="1638" 
d="M102 492v122h1434v-122h-1434z" />
    <glyph glyph-name="quoteleft" unicode="&#x2018;" horiz-adv-x="389" 
d="M317 1587l-92 -287h62v-184h-185v184l113 287h102z" />
    <glyph glyph-name="quoteright" unicode="&#x2019;" horiz-adv-x="389" 
d="M72 1116l92 287h-62v184h185v-184l-113 -287h-102z" />
    <glyph glyph-name="quotesinglbase" unicode="&#x201a;" horiz-adv-x="389" 
d="M72 -287l92 287h-62v184h185v-184l-113 -287h-102z" />
    <glyph glyph-name="quotedblleft" unicode="&#x201c;" horiz-adv-x="696" 
d="M317 1587l-92 -287h62v-184h-185v184l113 287h102zM625 1587l-93 -287h62v-184h-184v184l112 287h103z" />
    <glyph glyph-name="quotedblright" unicode="&#x201d;" horiz-adv-x="696" 
d="M72 1116l92 287h-62v184h185v-184l-113 -287h-102zM379 1116l92 287h-61v184h184v-184l-113 -287h-102z" />
    <glyph glyph-name="quotedblbase" unicode="&#x201e;" horiz-adv-x="696" 
d="M72 -287l92 287h-62v184h185v-184l-113 -287h-102zM379 -287l92 287h-61v184h184v-184l-113 -287h-102z" />
    <glyph glyph-name="dagger" unicode="&#x2020;" horiz-adv-x="1024" 
d="M922 1239v-143h-338v-1301h-144v1301h-338v143h338v399h144v-399h338z" />
    <glyph glyph-name="daggerdbl" unicode="&#x2021;" horiz-adv-x="1024" 
d="M922 1096h-338v-758h338v-143h-338v-400h-144v400h-338v143h338v758h-338v143h338v399h144v-399h338v-143z" />
    <glyph glyph-name="bullet" unicode="&#x2022;" horiz-adv-x="757" 
d="M369 276q-81 0 -132.5 14t-81.5 47t-41.5 81.5t-11.5 124.5v20q0 76 11.5 124t41.5 81.5t81.5 47t132.5 13.5h20q81 0 132 -13.5t81.5 -47t41.5 -81.5t11 -124v-20q0 -151 -54.5 -209t-211.5 -58h-20z" />
    <glyph glyph-name="ellipsis" unicode="&#x2026;" horiz-adv-x="1003" 
d="M102 0v184h185v-184h-185zM410 0v184h184v-184h-184zM717 0v184h184v-184h-184z" />
    <glyph glyph-name="perthousand" unicode="&#x2030;" horiz-adv-x="2252" 
d="M393 758q-150 0 -220.5 82t-70.5 247v29q0 170 70 251t221 81h29q153 0 223 -81t70 -251v-29q0 -163 -71 -246t-222 -83h-29zM143 0l1076 1434h153l-1075 -1434h-154zM393 881h29q72 0 110.5 47.5t38.5 136.5v74q0 97 -37.5 141.5t-111.5 44.5h-29q-73 0 -110 -44.5
t-37 -141.5v-74q0 -89 38 -136.5t109 -47.5zM1112 -20q-150 0 -220.5 82t-70.5 247v29q0 170 70 251t221 81h29q153 0 223 -81t70 -251v-29q0 -163 -71 -246t-222 -83h-29zM1829 -20q-150 0 -220.5 82t-70.5 247v29q0 170 70 251t221 81h29q152 0 222 -81t70 -251v-29
q0 -163 -70.5 -246t-221.5 -83h-29zM1112 102h29q72 0 110.5 48t38.5 137v73q0 97 -37.5 142t-111.5 45h-29q-147 0 -147 -187v-73q0 -89 38 -137t109 -48zM1829 102h29q72 0 110.5 48t38.5 137v73q0 97 -37.5 142t-111.5 45h-29q-148 0 -148 -187v-73q0 -89 38.5 -137
t109.5 -48z" />
    <glyph glyph-name="guilsinglleft" unicode="&#x2039;" horiz-adv-x="716" 
d="M451 922h163l-348 -369l348 -369h-163l-349 369z" />
    <glyph glyph-name="guilsinglright" unicode="&#x203a;" horiz-adv-x="716" 
d="M266 922l348 -369l-348 -369h-164l349 369l-349 369h164z" />
    <glyph glyph-name="fraction" unicode="&#x2044;" horiz-adv-x="1228" 
d="M0 0l1075 1434h154l-1075 -1434h-154z" />
    <glyph glyph-name="Euro" unicode="&#x20ac;" horiz-adv-x="1433" 
d="M860 1321q-87 0 -149 -9.5t-114.5 -34t-86.5 -67t-57 -108.5t-33 -160h440v-123h-448q-2 -27 -2 -82v-41q0 -55 2 -82h448v-122h-440q10 -94 33 -160t57 -108.5t86.5 -67t114.5 -34t149 -9.5h41q201 0 430 61v-133q-239 -61 -430 -61h-41q-144 0 -244 25t-172.5 84.5
t-112.5 157.5t-55 245h-194v122h186q-2 27 -2 82v41q0 55 2 82h-186v123h194q15 147 55 245t112.5 157.5t172.5 84.5t244 25h41q191 0 430 -61v-133q-229 61 -430 61h-41z" />
    <glyph glyph-name="trademark" unicode="&#x2122;" horiz-adv-x="1863" 
d="M770 1434v-119h-272v-742h-144v742h-272v119h688zM1782 1434v-861h-144v672l-258 -672h-116l-254 668v-668h-121v861h196l248 -660l246 660h203z" />
    <glyph glyph-name="oneeighth" unicode="&#x215b;" horiz-adv-x="2260" 
d="M403 430h-143v850h-178v94l321 74v-1018zM1475 1434h153l-1075 -1434h-154zM1952 512q39 -17 67 -31t60.5 -37t52.5 -47.5t33.5 -60.5t13.5 -78v-16q0 -129 -93 -192.5t-296 -63.5q-202 0 -294.5 63t-92.5 193v16q0 150 229 252q-42 23 -73 43.5t-63 50.5t-49 68t-17 82
v16q0 248 360 248t360 -248v-16q0 -50 -16 -89.5t-47.5 -68t-61 -46.5t-73.5 -38zM1573 748q0 -19 6 -36.5t13 -30.5t24 -27t27 -22t35 -21t35 -18t39.5 -18t37.5 -16q13 6 44 18.5t45.5 19t39 19t36.5 24t26 28t20 36.5t6 44v14q0 69 -50 103.5t-167 33.5t-167 -35
t-50 -102v-14zM2036 248v12q0 19 -4 36t-14 31.5t-18.5 25.5t-27 23t-29.5 19t-36 17.5t-36.5 15.5t-40.5 16t-40 15q-42 -16 -61 -24t-54 -24.5t-52.5 -30t-38.5 -32.5t-29.5 -41t-8.5 -47v-12q0 -73 52 -109t192 -35q141 1 193.5 36.5t52.5 107.5z" />
    <glyph glyph-name="threeeighths" unicode="&#x215c;" horiz-adv-x="2437" 
d="M801 684q0 -268 -391 -268q-187 0 -328 26v125q136 -28 326 -28q138 0 193.5 35.5t55.5 115.5v27q0 88 -47.5 124t-179.5 36h-168v116h148q121 0 170 37t49 123v25q0 83 -49 114t-170 33q-158 3 -314 -29v125q147 27 320 27q356 0 356 -260v-29q0 -160 -145 -217
q88 -25 131 -80t43 -149v-29zM1651 1434h153l-1075 -1434h-154zM2128 512q39 -17 67 -31t60.5 -37t52.5 -47.5t33.5 -60.5t13.5 -78v-16q0 -129 -93 -192.5t-296 -63.5q-202 0 -294.5 63t-92.5 193v16q0 150 229 252q-42 23 -73 43.5t-63 50.5t-49 68t-17 82v16
q0 248 360 248q361 0 361 -248v-16q0 -50 -16 -89.5t-48 -68t-61.5 -46.5t-73.5 -38zM1749 748q0 -19 6 -36.5t13 -30.5t24 -27t27 -22t35 -21t35 -18t39.5 -18t37.5 -16q13 6 44 18.5t45.5 19t39 19t36.5 24t26 28t20 36.5t6 44v14q0 69 -50 103.5t-167 33.5t-167 -35
t-50 -102v-14zM2212 248v12q0 19 -4 36t-14 31.5t-18.5 25.5t-27 23t-29.5 19t-36 17.5t-36.5 15.5t-40.5 16t-40 15q-42 -16 -61 -24t-54 -24.5t-52.5 -30t-38.5 -32.5t-29.5 -41t-8.5 -47v-12q0 -73 52 -109t192 -35q141 1 193.5 36.5t52.5 107.5z" />
    <glyph glyph-name="fiveeighths" unicode="&#x215d;" horiz-adv-x="2437" 
d="M801 709q0 -139 -94 -216t-285 -77q-199 0 -340 26v125q136 -28 338 -28q132 0 184.5 43.5t52.5 128.5v26q0 89 -48.5 128.5t-182.5 39.5h-315v529h632v-123h-499v-289h192q191 0 278 -71t87 -214v-28zM1651 1434h153l-1075 -1434h-154zM2128 512q39 -17 67 -31t60.5 -37
t52.5 -47.5t33.5 -60.5t13.5 -78v-16q0 -129 -93 -192.5t-296 -63.5q-202 0 -294.5 63t-92.5 193v16q0 150 229 252q-42 23 -73 43.5t-63 50.5t-49 68t-17 82v16q0 248 360 248q361 0 361 -248v-16q0 -50 -16 -89.5t-48 -68t-61.5 -46.5t-73.5 -38zM1749 748q0 -19 6 -36.5
t13 -30.5t24 -27t27 -22t35 -21t35 -18t39.5 -18t37.5 -16q13 6 44 18.5t45.5 19t39 19t36.5 24t26 28t20 36.5t6 44v14q0 69 -50 103.5t-167 33.5t-167 -35t-50 -102v-14zM2212 248v12q0 19 -4 36t-14 31.5t-18.5 25.5t-27 23t-29.5 19t-36 17.5t-36.5 15.5t-40.5 16
t-40 15q-42 -16 -61 -24t-54 -24.5t-52.5 -30t-38.5 -32.5t-29.5 -41t-8.5 -47v-12q0 -73 52 -109t192 -35q141 1 193.5 36.5t52.5 107.5z" />
    <glyph glyph-name="seveneighths" unicode="&#x215e;" horiz-adv-x="2254" 
d="M424 430h-143q0 49 7 98.5t15.5 91.5t28.5 93t34 86t44.5 89t47 82.5t55.5 86.5t56 82t61 87t60 85h-608v123h741v-123q-175 -260 -225 -344q-142 -241 -167 -435q-7 -51 -7 -102zM1468 1434h154l-1075 -1434h-154zM1946 512q39 -17 67 -31t60.5 -37t52.5 -47.5
t33.5 -60.5t13.5 -78v-16q0 -129 -93 -192.5t-296 -63.5q-202 0 -294.5 63t-92.5 193v16q0 150 229 252q-43 23 -73.5 43.5t-63 50.5t-49.5 68t-17 82v16q0 248 361 248q360 0 360 -248v-16q0 -50 -16 -89.5t-47.5 -68t-61 -46.5t-73.5 -38zM1567 748q0 -19 6 -36.5
t13 -30.5t24 -27t27 -22t35 -21t35 -18t39.5 -18t37.5 -16q13 6 44 18.5t45.5 19t39 19t36.5 24t26 28t20 36.5t6 44v14q0 69 -50 103.5t-167 33.5t-167 -35t-50 -102v-14zM2030 248v12q0 19 -4 36t-14 31.5t-18.5 25.5t-27 23t-29.5 19t-36 17.5t-36.5 15.5t-40.5 16
t-40 15q-42 -16 -61 -24t-54 -24.5t-52.5 -30t-38.5 -32.5t-29.5 -41t-8.5 -47v-12q0 -73 52 -109t192 -35q141 1 193.5 36.5t52.5 107.5z" />
    <glyph glyph-name="partialdiff" unicode="&#x2202;" horiz-adv-x="1310" 
d="M584 1608q108 0 188 -13.5t150.5 -48t118 -93.5t81.5 -148.5t50 -214.5t16 -291v-41q0 -148 -15 -263t-51 -214.5t-95 -164t-149.5 -100.5t-211.5 -36h-41q-108 0 -193.5 24.5t-142.5 66.5t-95 101.5t-54.5 126t-16.5 143.5v41q0 95 25 171t78 134.5t144 90.5t214 32
q71 0 129 -7.5t105.5 -24t67 -25t56.5 -27.5q80 -71 102 -98v29v41q0 142 -9.5 244t-32.5 178.5t-56.5 124t-87.5 76.5t-118 40.5t-156 12.5q-201 2 -400 -41v137q185 37 400 37zM666 113q87 0 151 25.5t106.5 72.5t68.5 121.5t37.5 162t14.5 205.5q-3 1 -28 9.5t-32 11
t-32.5 10.5t-37.5 11l-38 9.5t-42.5 9t-43 7t-49 6.5t-50 3t-54.5 1q-110 -1 -183.5 -21t-114 -59.5t-57 -90.5t-16.5 -124v-41q0 -150 85.5 -239.5t273.5 -89.5h41z" />
    <glyph glyph-name="emptyset" unicode="&#x2205;" horiz-adv-x="1310" 
d="M993 1169q195 -125 195 -452q0 -270 -131.5 -401.5t-401.5 -131.5q-121 0 -223 29l-125 -213h-143l153 264q-194 124 -194 453q0 270 131 401t401 131q126 0 224 -28l125 213h143zM266 717q0 -246 125 -330l412 705q-60 14 -148 14q-211 0 -300 -89t-89 -300zM655 328
q211 0 300 89t89 300q0 247 -124 330l-412 -705q60 -14 147 -14z" />
    <glyph glyph-name="product" unicode="&#x220f;" horiz-adv-x="1392" 
d="M184 0v1434h1024v-1434h-143v1300h-737v-1300h-144z" />
    <glyph glyph-name="summation" unicode="&#x2211;" horiz-adv-x="1228" 
d="M272 123h854v-123h-1024v123l426 608l-405 580v123h983v-123h-813l405 -580z" />
    <glyph glyph-name="minus" unicode="&#x2212;" horiz-adv-x="1024" 
d="M102 655v123h820v-123h-820z" />
    <glyph glyph-name="radical" unicode="&#x221a;" horiz-adv-x="1331" 
d="M1311 1434l-471 -1444h-174l-232 665h-332v123h439l215 -633l411 1289h144z" />
    <glyph glyph-name="infinity" unicode="&#x221e;" horiz-adv-x="1720" 
d="M1249 1214q348 0 348 -491q0 -492 -348 -492h-20q-67 0 -125 28t-103.5 80t-77 102.5t-63.5 117.5q-33 -68 -64 -118t-76 -102t-103 -80t-125 -28h-21q-348 0 -348 492q0 491 348 491h21q46 0 86 -10t69.5 -25t57 -41.5t46 -50t39 -61t33 -63.5t30.5 -68q5 -11 7 -16
q61 137 97 190q92 134 244 144q14 1 28 1h20zM492 375q27 0 51 6t45.5 19.5t38 27t34 38.5t29.5 43t28 51t24.5 51.5t24.5 56.5t24 55q-12 26 -30 71t-29.5 71.5t-30 63t-37.5 58.5t-44 43.5t-57 31t-71 9.5h-21q-109 0 -163.5 -81t-51.5 -267q3 -188 55 -268t160 -80h21z
M1464 723q3 186 -51.5 267t-163.5 81h-20q-39 0 -71 -9.5t-57 -31t-44 -43.5t-37.5 -58.5t-30 -63t-29.5 -71.5t-30 -71q8 -17 24 -55t24.5 -56.5t24.5 -51.5t28 -51t29.5 -43t34 -38.5t38 -27t45.5 -19.5t51 -6h20q108 0 160 80t55 268z" />
    <glyph glyph-name="integral" unicode="&#x222b;" horiz-adv-x="778" 
d="M799 1608h30l-18 -133h-31q-67 0 -108 -3.5t-77.5 -15.5t-57 -31t-38.5 -56t-28 -83t-20 -119l-9 -61h267l-19 -123h-266l-137 -983q-17 -127 -48 -208t-88.5 -134.5t-142 -75.5t-213.5 -22h-31l19 133h31q67 0 107.5 3t78 15.5t57.5 31t38 55.5t28 83t20 119l138 983
h-185l15 102l188 21l8 61q23 169 73.5 262t149.5 136t269 43z" />
    <glyph glyph-name="approxequal" unicode="&#x2248;" horiz-adv-x="839" 
d="M584 788q-54 0 -174.5 26t-163.5 26q-77 0 -144 -41v123q51 41 154 41q54 0 174.5 -26t163.5 -26q76 0 143 41v-123q-51 -41 -153 -41zM584 471q-54 0 -174.5 25.5t-163.5 25.5q-77 0 -144 -41v123q51 41 154 41q54 0 174.5 -25.5t163.5 -25.5q76 0 143 41v-123
q-51 -41 -153 -41z" />
    <glyph glyph-name="notequal" unicode="&#x2260;" horiz-adv-x="1024" 
d="M922 819h-320l-57 -205h377v-122h-410l-133 -492h-133l133 492h-277v122h310l57 205h-367v123h400l133 492h133l-133 -492h287v-123z" />
    <glyph glyph-name="lessequal" unicode="&#x2264;" horiz-adv-x="1024" 
d="M922 1085v-122l-596 -164l596 -164v-123l-820 225v123zM922 276h-820v123h820v-123z" />
    <glyph glyph-name="greaterequal" unicode="&#x2265;" horiz-adv-x="1024" 
d="M102 1085l820 -225v-123l-820 -225v123l596 164l-596 164v122zM102 276v123h820v-123h-820z" />
    <glyph glyph-name="lozenge" unicode="&#x25ca;" horiz-adv-x="1239" 
d="M522 -10l-399 727l399 727h195l399 -727l-399 -727h-195zM621 94l331 623l-331 622l-334 -622z" />
    <glyph glyph-name="i.loclTRK" horiz-adv-x="512" 
d="M164 1290v164h184v-164h-184zM328 0h-144v1106h144v-1106z" />
    <glyph glyph-name="j.alt" horiz-adv-x="512" 
d="M164 1290v164h184v-164h-184zM-102 -307q67 0 107.5 3t75.5 15.5t52.5 31t30.5 55.5t16.5 83t3.5 119v1106h144v-1106q0 -127 -19.5 -208t-69 -134.5t-131.5 -75.5t-210 -22v133z" />
    <glyph glyph-name="zero.lf" horiz-adv-x="1310" 
d="M635 -20q-150 0 -245 33t-156.5 117.5t-86 219t-24.5 346.5v41q0 213 23.5 346.5t84 218.5t156.5 118.5t248 33.5h41q150 0 245 -33.5t156.5 -118t86 -219t24.5 -346.5v-41q0 -212 -24.5 -346.5t-86 -219t-156.5 -117.5t-245 -33h-41zM635 113h41q91 0 149 14t103.5 49
t69 103t35 167t11.5 250v41q0 126 -7 214.5t-25 155.5t-44 107t-69.5 64.5t-95.5 33.5t-127 9h-41q-76 0 -127.5 -9t-95 -33.5t-70 -64.5t-44.5 -107t-25 -155.5t-7 -214.5v-41q0 -126 7 -214.5t25 -155t44 -106.5t70 -64.5t95.5 -33.5t127.5 -9z" />
    <glyph glyph-name="one.lf" horiz-adv-x="634" 
d="M307 0v1249h-266v103l410 102v-1454h-144z" />
    <glyph glyph-name="two.lf" horiz-adv-x="1187" 
d="M246 133h839v-133h-983v133q0 117 28 209.5t75.5 153t109 107t129.5 76.5t136 56.5t129.5 53.5t109 59t75.5 81.5t28 114.5v21q0 71 -15.5 116t-56 77.5t-109.5 46.5t-178 16q-220 3 -420 -41v137q185 37 420 37q260 0 381 -94.5t121 -294.5v-21q0 -86 -28 -151.5
t-75.5 -108t-109 -75.5t-129.5 -59.5t-135.5 -54t-129 -66.5t-109 -89t-75.5 -128t-28 -179z" />
    <glyph glyph-name="three.lf" horiz-adv-x="1167" 
d="M819 729q246 -65 246 -330v-41q0 -378 -533 -378q-270 0 -450 36v138q75 -16 201 -28.5t249 -12.5q213 0 301.5 57.5t88.5 187.5v41q0 94 -29 147.5t-108 81t-222 27.5h-225v133h194q191 0 270 59.5t79 196.5v41q0 132 -79.5 183t-269.5 53q-229 3 -430 -41v137
q185 37 430 37q240 0 366 -88t126 -281v-41q0 -234 -205 -315z" />
    <glyph glyph-name="four.lf" horiz-adv-x="1269" 
d="M1208 481v-133h-225v-348h-143v348h-779v133l758 953h164v-953h225zM215 481h625v785z" />
    <glyph glyph-name="five.lf" horiz-adv-x="1187" 
d="M584 829q258 0 379.5 -99.5t121.5 -301.5v-41q0 -195 -128 -301t-384 -106q-123 0 -259.5 10.5t-211.5 25.5v138q73 -16 209.5 -28.5t261.5 -12.5q106 0 179 18.5t114 56t58.5 85.5t17.5 114v41q0 71 -15.5 118.5t-55 82.5t-110 51t-177.5 16h-441v738h861v-134h-717
v-471h297z" />
    <glyph glyph-name="six.lf" horiz-adv-x="1290" 
d="M727 911q123 0 214 -32t144 -90.5t78 -134.5t25 -171v-41q0 -77 -16.5 -143.5t-54.5 -126t-95 -101.5t-142.5 -66.5t-193.5 -24.5h-41q-152 0 -254 44t-161 138t-83 221.5t-24 312.5v41q0 379 146 548t458 169q214 0 399 -37v-137q-199 43 -399 41q-177 -2 -276.5 -60
t-142 -182t-42.5 -342v-20q41 54 103 110q37 19 56.5 27.5t67 25t105.5 24t129 7.5zM1044 442v41q0 73 -16 124t-56.5 90.5t-114 59.5t-183.5 21q-47 0 -93 -4t-78 -9t-73 -16t-59.5 -17t-57.5 -19.5t-47 -16.5q0 -129 10 -219t35 -162.5t68 -115t108.5 -64.5t157.5 -22h41
q188 0 273 89.5t85 239.5z" />
    <glyph glyph-name="seven.lf" horiz-adv-x="1105" 
d="M1065 1434v-134q-73 -107 -108 -158.5t-98 -148t-94.5 -150t-81 -140t-74 -144t-56 -136.5t-46.5 -142.5t-25.5 -136.5t-10.5 -144h-143q0 108 19 214t59 210.5t84 196.5t112.5 202t125 194t139.5 204q13 18 19.5 27.5t16.5 24.5t19 27h-881v134h1024z" />
    <glyph glyph-name="eight.lf" horiz-adv-x="1269" 
d="M823 731q60 -25 100.5 -45t91 -54.5t80.5 -70.5t51 -89t21 -116v-20q0 -185 -128 -272t-404 -87t-404.5 87t-128.5 272v20q0 218 347 371q-63 32 -110.5 63.5t-95.5 75.5t-74 99.5t-26 119.5v21q0 348 492 348q491 0 491 -348v-21q0 -51 -11 -94.5t-34.5 -77t-48.5 -59.5
t-64 -49.5t-69.5 -38.5t-75.5 -35zM287 1085q0 -27 6 -51t19.5 -45.5t27 -38t38.5 -34t43 -29.5t51 -28t51.5 -24.5t56.5 -24.5t55 -24q26 12 71 30t71.5 29.5t63 30t58.5 37.5t43.5 44t31 57t9.5 71v21q0 109 -81 163.5t-267 51.5q-188 -3 -268 -55t-80 -160v-21zM1024 336
v20q0 34 -10 64t-23.5 52.5t-41.5 45.5t-48.5 37t-61.5 32.5t-63.5 28t-71.5 28t-69 26.5q-175 -70 -238 -106q-151 -88 -151 -208v-20q0 -56 16.5 -95t58 -70.5t119.5 -46t195 -13.5t195 16.5t119.5 46t58 68.5t16.5 94z" />
    <glyph glyph-name="nine.lf" horiz-adv-x="1290" 
d="M645 1454q122 0 211.5 -30t149 -85.5t95.5 -145.5t51 -199.5t15 -256.5v-41q0 -379 -146 -547.5t-458 -168.5q-219 0 -399 36v138q199 -43 399 -41q261 3 361 132t100 451v21q-45 -60 -102 -111q-37 -19 -57 -27.5t-67 -25t-105.5 -24t-129.5 -7.5q-123 0 -214 32
t-144 90.5t-78 134.5t-25 171v41q0 77 16.5 143.5t54.5 126t95 102t142.5 67t193.5 24.5h41zM616 655q47 0 93 4t78 9t73 16t59.5 17t57.5 19.5t47 16.5q0 161 -16 265.5t-58.5 179t-116 107t-188.5 32.5h-41q-188 0 -273 -90t-85 -240v-41q0 -73 16 -124t56.5 -90.5
t114 -59.5t183.5 -21z" />
    <glyph glyph-name="zero.osf" horiz-adv-x="1310" 
d="M635 -20q-144 0 -244 36t-158.5 109.5t-84 172t-25.5 234.5v41q0 135 25.5 234t84 172.5t159 110t243.5 36.5h41q143 0 243.5 -36.5t159 -110t84 -172.5t25.5 -234v-41q0 -136 -25.5 -234.5t-84 -172t-158.5 -109.5t-244 -36h-41zM635 113h41q107 0 178.5 24.5t113.5 78
t59 129t17 187.5v41q0 224 -79.5 322t-288.5 98h-41q-107 0 -178.5 -24.5t-113.5 -78.5t-59.5 -129.5t-17.5 -187.5v-41q0 -112 17.5 -187.5t59.5 -129t113.5 -78t178.5 -24.5z" />
    <glyph glyph-name="one.osf" horiz-adv-x="634" 
d="M307 0v922h-266v102l410 102v-1126h-144z" />
    <glyph glyph-name="two.osf" horiz-adv-x="1187" 
d="M246 133h839v-133h-983v133q0 97 28 171.5t75.5 119.5t109 77.5t129.5 50t136 31t129.5 27.5t109 33t75.5 53t28 82v21q0 72 -29.5 112t-107 60t-222.5 22q-220 3 -420 -41v138q180 36 420 36q261 0 381.5 -79t120.5 -248v-21q0 -76 -28 -130.5t-75.5 -84.5t-109 -50.5
t-129.5 -33t-135.5 -25.5t-129 -35t-109 -55t-75.5 -91.5t-28 -139.5z" />
    <glyph glyph-name="three.osf" horiz-adv-x="1167" 
d="M819 401q123 -33 184.5 -113t61.5 -216v-41q0 -379 -533 -379q-265 0 -450 37v137q75 -16 201 -28.5t249 -12.5q213 0 301.5 58t88.5 188v41q0 94 -29 147.5t-108 81t-222 27.5h-225v133h194q191 0 270 59.5t79 196.5v41q0 132 -79 182.5t-270 52.5q-229 3 -430 -41v138
q180 36 430 36q240 0 366 -87.5t126 -280.5v-41q0 -235 -205 -316z" />
    <glyph glyph-name="four.osf" horiz-adv-x="1269" 
d="M1208 133v-133h-225v-328h-143v328h-779v133l758 973h164v-973h225zM215 133h625v803z" />
    <glyph glyph-name="five.osf" horiz-adv-x="1187" 
d="M584 502q258 0 379.5 -100t121.5 -302v-41q0 -195 -128 -301t-384 -106q-121 0 -258 11t-213 26v137q73 -16 209.5 -28.5t261.5 -12.5q106 0 179 18.5t114 56t58.5 85.5t17.5 114v41q0 71 -15.5 118.5t-55 83t-110 51.5t-177.5 16h-441v737h861v-133h-717v-471h297z" />
    <glyph glyph-name="six.osf" horiz-adv-x="1290" 
d="M727 911q123 0 214 -32t144 -90.5t78 -134.5t25 -171v-41q0 -77 -16.5 -143.5t-54.5 -126t-95 -101.5t-142.5 -66.5t-193.5 -24.5h-41q-152 0 -254 44t-161 138t-83 221.5t-24 312.5v41q0 379 146 548t458 169q214 0 399 -37v-137q-199 43 -399 41q-177 -2 -276.5 -60
t-142 -182t-42.5 -342v-20q41 54 103 110q37 19 56.5 27.5t67 25t105.5 24t129 7.5zM1044 442v41q0 73 -16 124t-56.5 90.5t-114 59.5t-183.5 21q-47 0 -93 -4t-78 -9t-73 -16t-59.5 -17t-57.5 -19.5t-47 -16.5q0 -129 10 -219t35 -162.5t68 -115t108.5 -64.5t157.5 -22h41
q188 0 273 89.5t85 239.5z" />
    <glyph glyph-name="seven.osf" horiz-adv-x="1105" 
d="M1065 1106v-133q-65 -95 -97 -143t-89.5 -134.5t-87 -135.5t-76 -127.5t-71 -130.5t-58 -123.5t-50 -128t-34 -122.5t-24.5 -129t-7 -127h-143q0 108 17 211.5t63 217t80.5 191t117 208t121.5 189.5t142 207q12 17 18.5 26.5t16.5 24t18 26.5h-881v133h1024z" />
    <glyph glyph-name="eight.osf" horiz-adv-x="1269" 
d="M823 731q60 -25 100.5 -45t91 -54.5t80.5 -70.5t51 -89t21 -116v-20q0 -185 -128 -272t-404 -87t-404.5 87t-128.5 272v20q0 218 347 371q-63 32 -110.5 63.5t-95.5 75.5t-74 99.5t-26 119.5v21q0 348 492 348q491 0 491 -348v-21q0 -51 -11 -94.5t-34.5 -77t-48.5 -59.5
t-64 -49.5t-69.5 -38.5t-75.5 -35zM287 1085q0 -27 6 -51t19.5 -45.5t27 -38t38.5 -34t43 -29.5t51 -28t51.5 -24.5t56.5 -24.5t55 -24q26 12 71 30t71.5 29.5t63 30t58.5 37.5t43.5 44t31 57t9.5 71v21q0 109 -81 163.5t-267 51.5q-188 -3 -268 -55t-80 -160v-21zM1024 336
v20q0 34 -10 64t-23.5 52.5t-41.5 45.5t-48.5 37t-61.5 32.5t-63.5 28t-71.5 28t-69 26.5q-175 -70 -238 -106q-151 -88 -151 -208v-20q0 -56 16.5 -95t58 -70.5t119.5 -46t195 -13.5t195 16.5t119.5 46t58 68.5t16.5 94z" />
    <glyph glyph-name="nine.osf" horiz-adv-x="1290" 
d="M645 1126q152 0 254 -44t161 -138t83 -221.5t24 -312.5v-41q0 -379 -146 -548t-458 -169q-214 0 -399 37v137q199 -43 399 -41q177 2 276.5 60t142 182t42.5 342v20q-43 -57 -102 -110q-37 -19 -57 -27.5t-67 -25t-105.5 -24t-129.5 -7.5q-123 0 -214 32t-144 90.5
t-78 134.5t-25 171v41q0 77 16.5 143.5t54.5 126t95 101.5t142.5 66.5t193.5 24.5h41zM616 328q47 0 93 4t78 9t73 16t59.5 17t57.5 19.5t47 16.5q0 129 -10 219t-35 162.5t-68 115t-108.5 64.5t-157.5 22h-41q-188 0 -273 -89.5t-85 -239.5v-41q0 -73 16 -124t56.5 -90.5
t114 -59.5t183.5 -21z" />
    <glyph glyph-name="zero.tf" horiz-adv-x="1290" 
d="M625 -20q-146 0 -239 33t-153.5 117.5t-85 219t-24.5 346.5v41q0 170 15.5 287.5t49.5 203t93.5 134t142 70.5t201.5 22h41q146 0 239 -33.5t153 -118t84.5 -219.5t24.5 -346v-41q0 -170 -16 -288.5t-50.5 -203t-95 -133t-141.5 -70t-198 -21.5h-41zM625 113h41
q73 0 123 9t92 33.5t67.5 64.5t43.5 106.5t25 155.5t7 214v41q0 151 -11.5 250.5t-34.5 167t-67.5 103t-101 49.5t-143.5 14h-41q-87 0 -143.5 -14t-101 -49.5t-68 -103t-35 -167.5t-11.5 -250v-41q0 -125 7 -214t25 -155.5t43.5 -106.5t68 -64.5t92.5 -33.5t123 -9z" />
    <glyph glyph-name="one.tf" horiz-adv-x="1290" 
d="M143 0v123l410 10v1116h-410v103l553 102v-1321l451 -10v-123h-1004z" />
    <glyph glyph-name="two.tf" horiz-adv-x="1290" 
d="M266 133h901v-133h-1044v133q0 117 30 209.5t81 153t117 107t139.5 76.5t146.5 56.5t139 53.5t117 59t81 81.5t30 114.5v21q0 95 -31 147t-115.5 79.5t-243.5 29.5q-121 1 -246 -11.5t-204 -29.5v137q185 37 450 37q281 0 407 -93.5t126 -295.5v-21q0 -86 -30 -151.5
t-81 -108t-117 -75.5t-139.5 -59.5t-146.5 -54t-139 -66.5t-117 -89t-81 -128t-30 -179z" />
    <glyph glyph-name="three.tf" horiz-adv-x="1290" 
d="M913 729q129 -34 191.5 -114t62.5 -216v-41q0 -192 -139 -285t-424 -93q-124 0 -265 10.5t-216 25.5v138q73 -16 214.5 -28.5t266.5 -12.5q234 0 327 57t93 188v41q0 71 -16 116.5t-59 78.5t-119 47t-195 14h-256v133h225q212 0 295.5 59t83.5 197v41q0 133 -83.5 183.5
t-295.5 52.5q-121 1 -252.5 -11.5t-208.5 -29.5v137q77 15 209 26t252 11q261 0 391.5 -87.5t130.5 -281.5v-41q0 -236 -213 -315z" />
    <glyph glyph-name="four.tf" horiz-adv-x="1290" 
d="M1249 481v-133h-286v-348h-144v348h-778v133l758 953h164v-953h286zM195 481h624v785z" />
    <glyph glyph-name="five.tf" horiz-adv-x="1290" 
d="M666 829q258 0 379.5 -99.5t121.5 -301.5v-41q0 -195 -128 -301t-384 -106q-128 0 -294 11t-238 25v138q70 -15 236.5 -28t295.5 -13q106 0 179 18.5t114 56t58.5 85.5t17.5 114v41q0 71 -15.5 118.5t-55 82.5t-110 51t-177.5 16h-502v738h921v-134h-778v-471h359z" />
    <glyph glyph-name="six.tf" horiz-adv-x="1290" 
d="M717 911q120 0 208.5 -32t140.5 -90.5t76.5 -134.5t24.5 -171v-41q0 -97 -27 -177.5t-83.5 -146t-153.5 -102t-227 -36.5h-51q-116 0 -201.5 29.5t-143 85.5t-92.5 145t-50 199t-15 257v41q0 378 145 547.5t449 169.5q204 0 389 -37v-137q-199 43 -389 41
q-253 -3 -352 -132.5t-99 -451.5v-20q41 54 103 110q37 19 56.5 27.5t66 25t102.5 24t123 7.5zM1024 442v41q0 73 -16 124t-55.5 90.5t-111 59.5t-177.5 21q-44 0 -88 -4t-75 -9t-71.5 -16t-59 -17t-57 -19.5t-47.5 -16.5q0 -161 15.5 -265.5t56 -178.5t110 -106.5
t177.5 -32.5h51q181 0 264.5 90t83.5 239z" />
    <glyph glyph-name="seven.tf" horiz-adv-x="1290" 
d="M1167 1434v-134q-73 -107 -108 -158.5t-98 -148t-94.5 -150t-81 -140t-74 -144t-56 -136.5t-46.5 -142.5t-25.5 -136.5t-10.5 -144h-143q0 108 19 214t59 210.5t84 196.5t112.5 202t125 194t139.5 204q13 18 19.5 27.5t16.5 24.5t19 27h-901v134h1044z" />
    <glyph glyph-name="eight.tf" horiz-adv-x="1290" 
d="M834 731q60 -25 100.5 -45t91 -54.5t80.5 -70.5t51 -89t21 -116v-20q0 -185 -128.5 -272t-404.5 -87t-404 87t-128 272v20q0 218 346 371q-63 32 -110.5 63.5t-95 75.5t-73.5 99.5t-26 119.5v21q0 348 491 348q492 0 492 -348v-21q0 -51 -11 -94.5t-34.5 -77t-48.5 -59.5
t-64 -49.5t-69.5 -38.5t-75.5 -35zM297 1085q0 -27 6 -51t19.5 -45.5t27 -38t38.5 -34t43 -29.5t51 -28t51.5 -24.5t56.5 -24.5t55 -24q26 12 71 30t71.5 29.5t63 30t58.5 37.5t43.5 44t31 57t9.5 71v21q0 109 -81 163.5t-267 51.5q-188 -3 -268 -55t-80 -160v-21zM1034 336
v20q0 34 -10 64t-23.5 52.5t-41.5 45.5t-48.5 37t-61.5 32.5t-63.5 28t-71.5 28t-69 26.5q-175 -70 -238 -106q-151 -88 -151 -208v-20q0 -56 16.5 -95t58 -70.5t119.5 -46t195 -13.5t195 16.5t119.5 46t58 68.5t16.5 94z" />
    <glyph glyph-name="nine.tf" horiz-adv-x="1290" 
d="M666 1454q144 0 242 -44.5t154.5 -138t80.5 -222t24 -312.5v-41q0 -378 -145 -547t-449 -169q-209 0 -389 36v138q199 -43 389 -41q254 3 352.5 132.5t98.5 450.5v21q-45 -60 -102 -111q-36 -18 -56.5 -27t-67 -25.5t-102.5 -24t-123 -7.5q-120 0 -208.5 32t-140.5 90.5
t-76.5 134.5t-24.5 171v41q0 97 27 178t83.5 146t153.5 102t227 37h52zM627 655q52 -1 99 3.5t97.5 17t70.5 17.5t75 25l55 19q0 161 -15.5 265.5t-56 179t-110 107t-176.5 32.5h-52q-181 0 -264.5 -90t-83.5 -240v-41q0 -73 16 -124t55.5 -90.5t111.5 -59.5t178 -21z" />
    <glyph glyph-name="zero.tosf" horiz-adv-x="1290" 
d="M625 -20q-140 0 -238 36.5t-155.5 109t-83 171.5t-25.5 235v41q0 135 25.5 234t83 172.5t155.5 110t238 36.5h41q140 0 238 -36.5t155 -110t82.5 -172.5t25.5 -234v-41q0 -136 -25.5 -235t-82.5 -171.5t-155 -109t-238 -36.5h-41zM625 113h41q201 0 279.5 98t78.5 321v41
q0 223 -78.5 321.5t-279.5 98.5h-41q-201 0 -280 -98.5t-79 -321.5v-41q0 -111 17.5 -187t58.5 -129.5t110.5 -78t172.5 -24.5z" />
    <glyph glyph-name="one.tosf" horiz-adv-x="1290" 
d="M143 0v123l410 10v789h-410v102l553 102v-993l451 -10v-123h-1004z" />
    <glyph glyph-name="two.tosf" horiz-adv-x="1290" 
d="M266 133h901v-133h-1044v133q0 97 30 171.5t81 119.5t117 77.5t139.5 50t146.5 31t139 27.5t117 33t81 53t30 82v21q0 73 -31 112.5t-115 59.5t-244 22q-250 2 -450 -41v138q180 36 450 36q282 0 407.5 -78.5t125.5 -248.5v-21q0 -69 -24.5 -120t-67 -81t-99 -52.5
t-120 -33t-130 -24t-130 -25.5t-120 -36.5t-99 -57t-67 -87.5t-24.5 -128z" />
    <glyph glyph-name="three.tosf" horiz-adv-x="1290" 
d="M913 401q129 -34 191.5 -113.5t62.5 -215.5v-41q0 -192 -139.5 -285.5t-423.5 -93.5q-122 0 -264 11t-217 26v137q73 -16 214.5 -28.5t266.5 -12.5q234 0 327 57.5t93 188.5v41q0 71 -16 116.5t-59 78.5t-119 47t-195 14h-256v133h225q212 0 295.5 59t83.5 197v41
q0 133 -83.5 183t-295.5 52q-121 1 -252.5 -11.5t-208.5 -29.5v138q76 15 207.5 25.5t253.5 10.5q261 0 391.5 -87t130.5 -281v-41q0 -237 -213 -316z" />
    <glyph glyph-name="four.tosf" horiz-adv-x="1290" 
d="M1249 133v-133h-286v-328h-144v328h-778v133l758 973h164v-973h286zM195 133h624v803z" />
    <glyph glyph-name="five.tosf" horiz-adv-x="1290" 
d="M666 502q247 0 374 -101.5t127 -300.5v-41q0 -193 -138.5 -300t-403.5 -107q-124 0 -276 11t-226 26v137q71 -15 223 -28t279 -13q110 0 188 19t124 55.5t66.5 85.5t20.5 114v41q0 139 -81 204t-277 65h-502v737h921v-133h-778v-471h359z" />
    <glyph glyph-name="six.tosf" horiz-adv-x="1290" 
d="M717 911q120 0 208.5 -32t140.5 -90.5t76.5 -134.5t24.5 -171v-41q0 -97 -27 -177.5t-83.5 -146t-153.5 -102t-227 -36.5h-41q-119 0 -206.5 29.5t-146 85.5t-94 145.5t-50.5 199t-15 256.5v41q0 378 145 547.5t449 169.5q214 0 399 -37v-137q-199 43 -399 41
q-253 -3 -352 -132.5t-99 -451.5v-20q41 54 103 110q37 19 56.5 27.5t66 25t102.5 24t123 7.5zM1024 442v41q0 73 -16 124t-55.5 90.5t-111 59.5t-177.5 21q-44 0 -88 -4t-75 -9t-71.5 -16t-59 -17t-57 -19.5t-47.5 -16.5q0 -128 10 -218.5t34.5 -163t66.5 -115t105.5 -64.5
t152.5 -22h41q181 0 264.5 90t83.5 239z" />
    <glyph glyph-name="seven.tosf" horiz-adv-x="1290" 
d="M1167 1106v-133q-65 -95 -97 -143t-89.5 -134.5t-87 -135.5t-76 -127.5t-71 -130.5t-58 -123.5t-50 -128t-34 -122.5t-24.5 -129t-7 -127h-143q0 108 17 211.5t63 217t80.5 191t117 208t121.5 189.5t142 207q35 51 53 77h-901v133h1044z" />
    <glyph glyph-name="eight.tosf" horiz-adv-x="1290" 
d="M834 731q60 -25 100.5 -45t91 -54.5t80.5 -70.5t51 -89t21 -116v-20q0 -185 -128.5 -272t-404.5 -87t-404 87t-128 272v20q0 218 346 371q-63 32 -110.5 63.5t-95 75.5t-73.5 99.5t-26 119.5v21q0 348 491 348q492 0 492 -348v-21q0 -51 -11 -94.5t-34.5 -77t-48.5 -59.5
t-64 -49.5t-69.5 -38.5t-75.5 -35zM297 1085q0 -27 6 -51t19.5 -45.5t27 -38t38.5 -34t43 -29.5t51 -28t51.5 -24.5t56.5 -24.5t55 -24q26 12 71 30t71.5 29.5t63 30t58.5 37.5t43.5 44t31 57t9.5 71v21q0 109 -81 163.5t-267 51.5q-188 -3 -268 -55t-80 -160v-21zM1034 336
v20q0 34 -10 64t-23.5 52.5t-41.5 45.5t-48.5 37t-61.5 32.5t-63.5 28t-71.5 28t-69 26.5q-175 -70 -238 -106q-151 -88 -151 -208v-20q0 -56 16.5 -95t58 -70.5t119.5 -46t195 -13.5t195 16.5t119.5 46t58 68.5t16.5 94z" />
    <glyph glyph-name="nine.tosf" horiz-adv-x="1290" 
d="M655 1126q119 0 206.5 -29.5t146 -85.5t94 -145.5t50.5 -199t15 -256.5v-41q0 -378 -145 -547.5t-449 -169.5q-214 0 -399 37v137q199 -43 399 -41q253 3 352 132.5t99 451.5v20q-43 -57 -102 -110q-36 -18 -56.5 -27t-67 -25.5t-102.5 -24t-123 -7.5q-120 0 -208.5 32
t-140.5 90.5t-76.5 134.5t-24.5 171v41q0 97 27 177.5t83.5 146t153.5 102t227 36.5h41zM627 328q52 -1 99 3.5t97.5 17t70.5 17.5t75 24l55 20q0 128 -10 218.5t-34.5 163t-66.5 115t-105.5 64.5t-152.5 22h-41q-181 0 -264.5 -90t-83.5 -239v-41q0 -73 16 -124t55.5 -90.5
t111.5 -59.5t178 -21z" />
    <glyph glyph-name="zero.subs" horiz-adv-x="940" 
d="M455 -117q-110 0 -179 22.5t-114 81t-62.5 153t-17.5 245.5v29q0 198 34.5 304.5t113.5 151.5t225 45h28q111 0 180.5 -23t114.5 -82t62.5 -153t17.5 -243v-29q0 -150 -17.5 -244t-62.5 -153t-114.5 -82t-180.5 -23h-28zM455 6h28q93 0 140.5 27.5t69.5 103t22 225.5v74
q0 150 -22 226t-69.5 103.5t-140.5 27.5h-28q-92 0 -139 -27.5t-69 -103.5t-22 -226v-74q0 -113 10.5 -181t39 -108t69.5 -53.5t111 -13.5z" />
    <glyph glyph-name="one.subs" horiz-adv-x="665" 
d="M260 -102v850h-178v94l321 73v-1017h-143z" />
    <glyph glyph-name="two.subs" horiz-adv-x="882" 
d="M225 20h576v-122h-719v122q0 100 31 174t80.5 115t109.5 70.5t119.5 49.5t109 42t80.5 59.5t31 90.5v12q0 86 -46.5 121.5t-180.5 38.5q-145 3 -303 -29v125q141 26 305 26q192 0 280 -69t88 -209v-16q0 -60 -19 -106.5t-51.5 -76t-74.5 -52.5t-89 -41t-93.5 -36
t-88.5 -42t-74.5 -55t-51.5 -80t-19 -112z" />
    <glyph glyph-name="three.subs" horiz-adv-x="882" 
d="M627 410q88 -25 131 -80.5t43 -149.5v-28q0 -269 -391 -269q-181 0 -328 27v125q141 -29 326 -29q138 0 193.5 36t55.5 116v26q0 88 -47.5 124t-179.5 36h-168v117h148q121 0 170 37t49 123v24q0 83 -49 114.5t-170 33.5q-158 3 -314 -29v125q141 26 320 26
q356 0 356 -260v-28q0 -160 -145 -217z" />
    <glyph glyph-name="four.subs" horiz-adv-x="991" 
d="M909 256v-123h-147v-235h-144v235h-536v123l520 645h160v-645h147zM223 256h395v492z" />
    <glyph glyph-name="five.subs" horiz-adv-x="882" 
d="M436 489q191 0 278 -70.5t87 -213.5v-29q0 -139 -94 -216t-285 -77q-193 0 -340 27v125q141 -29 338 -29q132 0 184.5 43.5t52.5 128.5v27q0 89 -48.5 128.5t-182.5 39.5h-315v528h632v-123h-499v-289h192z" />
    <glyph glyph-name="six.subs" horiz-adv-x="940" 
d="M535 535q166 0 244.5 -77t78.5 -218v-27q0 -149 -88 -239.5t-281 -90.5h-28q-111 0 -184.5 29t-116.5 93.5t-60.5 154.5t-17.5 223v31q0 264 103.5 382.5t332.5 118.5q154 0 295 -26v-125q-157 31 -293 29q-167 -1 -231 -81.5t-64 -279.5v-45q33 46 86 96q1 0 18.5 8
t23.5 10.5t24.5 9.5t32 9.5t34.5 7t43.5 6t47.5 1.5zM715 209v27q0 93 -50.5 138t-185.5 46q-33 1 -63.5 -1.5t-62 -10t-45.5 -11t-48 -15t-35 -11.5v-9q0 -194 49.5 -275t186.5 -81h28q118 0 172 55t54 148z" />
    <glyph glyph-name="seven.subs" horiz-adv-x="905" 
d="M823 901v-123q-175 -259 -223 -341q-143 -239 -169 -432q-7 -53 -7 -107h-143q0 49 7 98.5t15.5 91.5t28 93t34 86t44.5 88t47.5 83t55.5 86.5t55.5 82t61.5 87t60 84.5h-608v123h741z" />
    <glyph glyph-name="eight.subs" horiz-adv-x="940" 
d="M631 410q39 -17 67 -31t60.5 -37t52.5 -47.5t33.5 -60.5t13.5 -78v-17q0 -129 -93 -192.5t-296 -63.5q-202 0 -294.5 63t-92.5 193v17q0 150 229 252q-43 23 -73.5 43.5t-62.5 50t-49 67.5t-17 82v17q0 247 360 247t360 -247v-17q0 -50 -16 -89t-47.5 -67.5t-61 -46.5
t-73.5 -38zM252 645q0 -19 6 -36.5t13.5 -30.5t23.5 -27t27 -22t35 -20.5t35.5 -17.5t39.5 -17.5t37 -16.5q14 6 44 18t45 19t39.5 19.5t37 24t26 27.5t19.5 36t6 44v14q0 69 -50 104t-167 34t-167 -35.5t-50 -102.5v-14zM715 145v13q0 21 -6.5 40.5t-14 33t-26.5 28.5
t-30 23t-39 21t-39.5 17.5t-46 17.5t-44.5 17q-43 -17 -60.5 -24.5t-54 -24t-53.5 -29.5t-38 -32t-29.5 -41t-8.5 -47v-13q0 -35 10.5 -60t36.5 -45t75 -29.5t122 -8.5q97 1 152 19t74.5 47.5t19.5 76.5z" />
    <glyph glyph-name="nine.subs" horiz-adv-x="940" 
d="M479 915q110 0 183.5 -29t116.5 -93t61 -154t18 -223v-31q0 -264 -103.5 -383t-332.5 -119q-148 0 -295 27v125q158 -32 291 -29q167 1 232 82t65 279v45q-28 -38 -86 -97q-2 -1 -16 -7t-19.5 -8.5t-21 -8.5t-25.5 -8.5t-27.5 -7t-33.5 -6.5t-37 -3.5t-43 -1.5
q-166 0 -245 77t-79 218v27q0 149 88 239t281 90h28zM459 379q28 0 56.5 2t48.5 5.5t46.5 10t38 10t36.5 11.5t30 10v8q0 195 -49.5 276t-186.5 81h-28q-119 0 -172.5 -55t-53.5 -148v-27q0 -93 50 -138t184 -46z" />
    <glyph glyph-name="zero.dnom" horiz-adv-x="940" 
d="M455 -14q-110 0 -179 22t-114 80.5t-62.5 153t-17.5 245.5v29q0 149 17.5 243t62.5 153.5t114 82.5t179 23h28q110 0 180 -23t114.5 -82.5t62.5 -153.5t18 -243v-29q0 -150 -17.5 -244t-62.5 -152.5t-114.5 -81.5t-180.5 -23h-28zM455 109h28q93 0 140.5 27.5t69.5 103
t22 225.5v74q0 150 -22 225.5t-69.5 103t-140.5 27.5h-28q-70 0 -111 -13.5t-69.5 -53.5t-39 -108t-10.5 -181v-74q0 -113 10.5 -181t39 -108t69.5 -53.5t111 -13.5z" />
    <glyph glyph-name="one.dnom" horiz-adv-x="665" 
d="M260 0v850h-178v94l321 74v-1018h-143z" />
    <glyph glyph-name="two.dnom" horiz-adv-x="882" 
d="M225 123h576v-123h-719v123q0 100 31 174t80.5 115t109.5 70t119.5 49t109 42.5t80.5 59.5t31 90v12q0 86 -46.5 121.5t-180.5 38.5q-145 3 -303 -29v125q147 27 305 27q192 0 280 -69t88 -210v-16q0 -60 -19 -106.5t-51.5 -76t-74.5 -52.5t-89 -40.5t-93.5 -35.5
t-88.5 -42t-74.5 -55t-51.5 -80t-19 -112z" />
    <glyph glyph-name="three.dnom" horiz-adv-x="882" 
d="M627 512q88 -25 131 -80t43 -149v-29q0 -268 -391 -268q-187 0 -328 26v125q136 -28 326 -28q138 0 193.5 35.5t55.5 115.5v27q0 88 -47.5 123.5t-179.5 35.5h-168v117h148q121 0 170 37t49 123v25q0 83 -49 114t-170 33q-158 3 -314 -29v125q147 27 320 27
q356 0 356 -260v-29q0 -160 -145 -217z" />
    <glyph glyph-name="four.dnom" horiz-adv-x="991" 
d="M909 358v-122h-147v-236h-144v236h-536v122l520 646h160v-646h147zM223 358h395v492z" />
    <glyph glyph-name="five.dnom" horiz-adv-x="882" 
d="M436 592q191 0 278 -71t87 -214v-28q0 -139 -94 -216t-285 -77q-199 0 -340 26v125q136 -28 338 -28q132 0 184.5 43.5t52.5 128.5v26q0 89 -48.5 128.5t-182.5 39.5h-315v529h632v-123h-499v-289h192z" />
    <glyph glyph-name="six.dnom" horiz-adv-x="940" 
d="M535 637q166 0 244.5 -77t78.5 -218v-27q0 -149 -88 -239t-281 -90h-28q-111 0 -184.5 29t-116.5 93t-60.5 154t-17.5 223v31q0 264 103.5 383t332.5 119q148 0 295 -27v-125q-145 29 -293 29q-167 0 -231 -80.5t-64 -279.5v-46q35 49 86 97q1 0 16 7t19.5 9t21 8t26 8.5
t28 7t34 6.5t36.5 3.5t43 1.5zM715 311v27q0 61 -19 98.5t-71.5 60.5t-145.5 25q-33 1 -63.5 -1.5t-62 -10t-45.5 -11t-48 -15t-35 -11.5v-8q0 -194 49.5 -275t186.5 -81h28q118 0 172 54.5t54 147.5z" />
    <glyph glyph-name="seven.dnom" horiz-adv-x="905" 
d="M823 1004v-123q-175 -260 -225 -344q-142 -241 -167 -435q-7 -51 -7 -102h-143q0 49 7 98.5t15.5 91.5t28.5 93t34 86t44.5 89t47 82.5t55.5 86.5t56 82t61 87t60 85h-608v123h741z" />
    <glyph glyph-name="eight.dnom" horiz-adv-x="940" 
d="M631 512q39 -17 67 -31t60.5 -37t52.5 -47.5t33.5 -60.5t13.5 -78v-16q0 -129 -93 -192.5t-296 -63.5q-202 0 -294.5 63t-92.5 193v16q0 150 229 252q-42 23 -73 43.5t-63 50.5t-49 68t-17 82v16q0 248 360 248t360 -248v-16q0 -50 -16 -89.5t-47.5 -68t-61 -46.5
t-73.5 -38zM252 748q0 -19 6 -36.5t13 -30.5t24 -27t27 -22t35 -21t35 -18t39.5 -18t37.5 -16q13 6 44 18.5t45.5 19t39 19t36.5 24t26 28t20 36.5t6 44v14q0 69 -50 103.5t-167 33.5t-167 -35t-50 -102v-14zM715 248v12q0 19 -4 36t-14 31.5t-18.5 25.5t-27 23t-29.5 19
t-36 17.5t-36.5 15.5t-40.5 16t-40 15q-42 -16 -61 -24t-54 -24.5t-52.5 -30t-38.5 -32.5t-29.5 -41t-8.5 -47v-12q0 -73 52 -109t192 -35q141 1 193.5 36.5t52.5 107.5z" />
    <glyph glyph-name="nine.dnom" horiz-adv-x="940" 
d="M479 1018q110 0 183.5 -29t116.5 -93.5t61 -154.5t18 -223v-31q0 -264 -103.5 -382.5t-332.5 -118.5q-154 0 -295 26v125q140 -28 291 -28q167 0 232 80.5t65 279.5v45q-25 -35 -86 -96q-2 -1 -16 -7t-19.5 -8.5t-21 -8.5t-25.5 -8.5t-27.5 -7t-33.5 -6.5t-37 -3.5
t-43 -1.5q-166 0 -245 77t-79 218v26q0 149 88 239.5t281 90.5h28zM459 481q28 0 56.5 2t48.5 5.5t46.5 10t38 10t36.5 11.5t30 10v9q0 194 -49.5 275t-186.5 81h-28q-119 0 -172.5 -55t-53.5 -148v-26q0 -92 50 -137t184 -48z" />
    <glyph glyph-name="zero.numr" horiz-adv-x="940" 
d="M455 416q-110 0 -179 22.5t-114 81t-62.5 153t-17.5 245.5v28q0 149 17.5 243t62.5 153.5t114 82.5t179 23h28q110 0 180 -23t114.5 -82.5t62.5 -153.5t18 -243v-28q0 -150 -17.5 -244t-62.5 -153t-114.5 -82t-180.5 -23h-28zM455 539h28q93 0 140.5 27.5t69.5 103
t22 225.5v74q0 150 -22 225.5t-69.5 103t-140.5 27.5h-28q-70 0 -111 -13.5t-69.5 -53.5t-39 -108t-10.5 -181v-74q0 -113 10.5 -181t39 -108t69.5 -53.5t111 -13.5z" />
    <glyph glyph-name="one.numr" horiz-adv-x="665" 
d="M260 430v850h-178v94l321 74v-1018h-143z" />
    <glyph glyph-name="two.numr" horiz-adv-x="882" 
d="M225 553h576v-123h-719v123q0 100 31 174t80.5 115t109.5 70t119.5 49t109 42.5t80.5 59.5t31 90v12q0 86 -46.5 121.5t-180.5 38.5q-145 3 -303 -29v125q147 27 305 27q192 0 280 -69t88 -210v-16q0 -60 -19 -106.5t-51.5 -76t-74.5 -52.5t-89 -40.5t-93.5 -35.5
t-88.5 -42t-74.5 -55t-51.5 -80t-19 -112z" />
    <glyph glyph-name="three.numr" horiz-adv-x="882" 
d="M627 942q88 -25 131 -80t43 -149v-29q0 -268 -391 -268q-187 0 -328 26v125q136 -28 326 -28q138 0 193.5 35.5t55.5 115.5v27q0 88 -47.5 124t-179.5 36h-168v116h148q121 0 170 37t49 123v25q0 83 -49 114t-170 33q-158 3 -314 -29v125q147 27 320 27q356 0 356 -260
v-29q0 -160 -145 -217z" />
    <glyph glyph-name="four.numr" horiz-adv-x="991" 
d="M909 788v-122h-147v-236h-144v236h-536v122l520 646h160v-646h147zM223 788h395v492z" />
    <glyph glyph-name="five.numr" horiz-adv-x="882" 
d="M436 1022q191 0 278 -71t87 -214v-28q0 -139 -94 -216t-285 -77q-199 0 -340 26v125q136 -28 338 -28q132 0 184.5 43.5t52.5 128.5v26q0 89 -48.5 128.5t-182.5 39.5h-315v529h632v-123h-499v-289h192z" />
    <glyph glyph-name="six.numr" horiz-adv-x="940" 
d="M535 1067q166 0 244.5 -77t78.5 -218v-27q0 -149 -88 -239t-281 -90h-28q-111 0 -184.5 29t-116.5 93t-60.5 154t-17.5 223v31q0 264 103.5 383t332.5 119q148 0 295 -27v-125q-145 29 -293 29q-167 0 -231 -80.5t-64 -279.5v-45q33 46 86 96q1 0 16 7t19.5 9t21 8
t26 8.5t28 7t34 6.5t36.5 3.5t43 1.5zM715 741v27q0 61 -19 98.5t-71.5 60.5t-145.5 25q-33 1 -63.5 -1.5t-62 -10t-45.5 -11t-48 -15t-35 -11.5v-8q0 -194 49.5 -275t186.5 -81h28q118 0 172 54.5t54 147.5z" />
    <glyph glyph-name="seven.numr" horiz-adv-x="905" 
d="M823 1434v-123q-175 -260 -225 -344q-142 -241 -167 -435q-7 -51 -7 -102h-143q0 49 7 98.5t15.5 91.5t28.5 93t34 86t44.5 89t47 82.5t55.5 86.5t56 82t61 87t60 85h-608v123h741z" />
    <glyph glyph-name="eight.numr" horiz-adv-x="940" 
d="M631 942q39 -17 67 -31t60.5 -37t52.5 -47.5t33.5 -60.5t13.5 -78v-16q0 -129 -93 -192.5t-296 -63.5q-202 0 -294.5 63t-92.5 193v16q0 150 229 252q-42 23 -73 43.5t-63 50.5t-49 68t-17 82v16q0 248 360 248t360 -248v-16q0 -50 -16 -89.5t-47.5 -68t-61 -46.5
t-73.5 -38zM252 1178q0 -19 6 -36.5t13 -30.5t24 -27t27 -22t35 -21t35 -18t39.5 -18t37.5 -16q13 6 44 18.5t45.5 19t39 19t36.5 24t26 28t20 36.5t6 44v14q0 69 -50 103.5t-167 33.5t-167 -35t-50 -102v-14zM715 678v12q0 19 -4 36t-14 31.5t-18.5 25.5t-27 23t-29.5 19
t-36 17.5t-36.5 15.5t-40.5 16t-40 15q-42 -16 -61 -24t-54 -24.5t-52.5 -30t-38.5 -32.5t-29.5 -41t-8.5 -47v-12q0 -35 10.5 -60t36.5 -45t75 -29.5t122 -8.5q97 1 152 19t74.5 47.5t19.5 76.5z" />
    <glyph glyph-name="nine.numr" horiz-adv-x="940" 
d="M479 1448q110 0 183.5 -29t116.5 -93.5t61 -154.5t18 -223v-30q0 -264 -103.5 -383t-332.5 -119q-154 0 -295 26v125q140 -28 291 -28q167 0 232 80.5t65 279.5v45q-25 -35 -86 -96q-2 -1 -16 -7t-19.5 -8.5t-21 -8.5t-25.5 -8.5t-27.5 -7t-33.5 -6.5t-37 -3.5t-43 -1.5
q-166 0 -245 77t-79 218v26q0 149 88 239.5t281 90.5h28zM459 911q33 -1 64 2t62.5 10t46.5 11t47.5 15t35.5 12v8q0 194 -49.5 275t-186.5 81h-28q-119 0 -172.5 -55t-53.5 -148v-26q0 -92 50 -137t184 -48z" />
    <glyph glyph-name="zero.sups" horiz-adv-x="940" 
d="M455 518q-110 0 -179 22.5t-114 81t-62.5 153t-17.5 245.5v29q0 198 34.5 304.5t113.5 151.5t225 45h28q111 0 180.5 -23t114.5 -82t62.5 -153t17.5 -243v-29q0 -150 -17.5 -244t-62.5 -153t-114.5 -82t-180.5 -23h-28zM455 641h28q93 0 140.5 27.5t69.5 103t22 225.5v74
q0 150 -22 225.5t-69.5 103t-140.5 27.5h-28q-70 0 -111 -13.5t-69.5 -53.5t-39 -108t-10.5 -181v-74q0 -113 10.5 -181t39 -108t69.5 -53.5t111 -13.5z" />
    <glyph glyph-name="four.sups" horiz-adv-x="991" 
d="M909 891v-123h-147v-236h-144v236h-536v123l520 645h160v-645h147zM223 891h395v491z" />
    <glyph glyph-name="five.sups" horiz-adv-x="882" 
d="M436 1124q191 0 278 -70.5t87 -213.5v-29q0 -139 -94 -216t-285 -77q-193 0 -340 27v125q141 -29 338 -29q132 0 184.5 43.5t52.5 128.5v27q0 89 -48.5 128.5t-182.5 39.5h-315v528h632v-123h-499v-289h192z" />
    <glyph glyph-name="six.sups" horiz-adv-x="940" 
d="M535 1169q166 0 244.5 -77t78.5 -218v-26q0 -149 -88 -239.5t-281 -90.5h-28q-111 0 -184.5 29t-116.5 93.5t-60.5 154.5t-17.5 223v31q0 264 103.5 382.5t332.5 118.5q154 0 295 -26v-125q-140 28 -293 28q-167 0 -231 -80.5t-64 -279.5v-45q33 46 86 96q1 0 16 7
t19.5 9t21 8t26 8.5t28 7t34 6.5t36.5 3.5t43 1.5zM715 844v26q0 93 -50.5 137.5t-185.5 47.5q-33 1 -63.5 -1.5t-62 -10t-45.5 -11t-48 -15t-35 -11.5v-9q0 -194 49.5 -275t186.5 -81h28q118 0 172 55t54 148z" />
    <glyph glyph-name="seven.sups" horiz-adv-x="905" 
d="M823 1536v-123q-175 -260 -225 -344q-142 -241 -167 -435q-7 -51 -7 -102h-143q0 49 7 98.5t15.5 91.5t28.5 93t34 86t44.5 89t47 82.5t55.5 86.5t56 82t61 87t60 85h-608v123h741z" />
    <glyph glyph-name="eight.sups" horiz-adv-x="940" 
d="M631 1044q50 -21 83.5 -40t70 -49t55 -71t18.5 -93v-17q0 -129 -93 -192.5t-296 -63.5q-202 0 -294.5 63t-92.5 193v17q0 149 229 251q-42 23 -73 43.5t-63 50.5t-49 68t-17 82v17q0 247 360 247t360 -247v-17q0 -50 -16 -89.5t-47.5 -68t-61 -46.5t-73.5 -38zM252 1280
q0 -19 6 -36.5t13.5 -30.5t23.5 -27t27 -22t35 -20.5t35.5 -17.5t39.5 -17.5t37 -16.5q14 6 44 18t45 19t39.5 19.5t37 24t26 27.5t19.5 36t6 44v14q0 69 -50 104t-167 34t-167 -35.5t-50 -102.5v-14zM715 780v13q0 21 -6.5 40.5t-14 33t-26.5 28.5t-30 23t-39 21
t-39.5 17.5t-46 17.5t-44.5 17q-43 -17 -60.5 -24.5t-54 -24t-53.5 -29.5t-38 -32t-29.5 -41t-8.5 -47v-13q0 -35 10.5 -60t36.5 -45t75 -29.5t122 -8.5q97 1 152 19t74.5 47.5t19.5 76.5z" />
    <glyph glyph-name="nine.sups" horiz-adv-x="940" 
d="M479 1550q110 0 183.5 -29t116.5 -93t61 -154t18 -223v-31q0 -264 -103.5 -383t-332.5 -119q-148 0 -295 27v125q145 -29 291 -29q167 0 232 80.5t65 279.5v46q-28 -39 -86 -97q-2 -1 -16 -7t-19.5 -8.5t-21 -8.5t-25.5 -8.5t-27.5 -7t-33.5 -6.5t-37 -3.5t-43 -1.5
q-166 0 -245 77t-79 218v27q0 149 88 239t281 90h28zM459 1014q28 0 56.5 2t48.5 5.5t46.5 10t38 10t36.5 11.5t30 10v8q0 194 -49.5 275t-186.5 81h-28q-226 0 -226 -202v-27q0 -92 50 -136.5t184 -47.5z" />
    </font>
</defs>
</svg>
