<svg id="Group_1235" data-name="Group 1235" xmlns="http://www.w3.org/2000/svg" width="110.365" height="32.937" viewBox="0 0 110.365 32.937">
  <g id="Group_1241" data-name="Group 1241" transform="translate(0 0)">
    <g id="Group_1236" data-name="Group 1236">
      <g id="Group_1235-2" data-name="Group 1235">
        <path id="Path_835" data-name="Path 835" d="M164.79,44.5H72.008c-.338,0-.672,0-1.01,0-.282,0-.563.007-.848.011a13.565,13.565,0,0,0-1.848.145,6.712,6.712,0,0,0-1.752.516,5.952,5.952,0,0,0-1.493.971,5.222,5.222,0,0,0-1.086,1.335,5.035,5.035,0,0,0-.576,1.567,9.554,9.554,0,0,0-.165,1.648c-.009.253-.01.506-.015.758V70.486c0,.255.006.5.015.759a9.537,9.537,0,0,0,.165,1.648,5.021,5.021,0,0,0,.576,1.569,5.183,5.183,0,0,0,1.086,1.329,5.8,5.8,0,0,0,1.493.971,6.685,6.685,0,0,0,1.752.519,13.7,13.7,0,0,0,1.848.146c.285.006.565.009.848.009.338,0,.671,0,1.01,0H164.79c.332,0,.669,0,1,0,.281,0,.569,0,.85-.009a13.5,13.5,0,0,0,1.845-.146,6.79,6.79,0,0,0,1.76-.519,5.787,5.787,0,0,0,1.491-.971,5.356,5.356,0,0,0,1.09-1.329,5.032,5.032,0,0,0,.571-1.569,10.025,10.025,0,0,0,.172-1.648c0-.256,0-.5,0-.759.006-.3.006-.6.006-.9V52.352c0-.3,0-.6-.006-.9,0-.252,0-.506,0-.758a10.044,10.044,0,0,0-.172-1.648,5.045,5.045,0,0,0-.571-1.567,5.4,5.4,0,0,0-1.09-1.335,5.942,5.942,0,0,0-1.491-.971,6.818,6.818,0,0,0-1.76-.516,13.375,13.375,0,0,0-1.845-.145c-.281,0-.569-.009-.85-.011-.331,0-.668,0-1,0Z" transform="translate(-63.214 -44.5)" fill="#a2a2a2"/>
        <path id="Path_836" data-name="Path 836" d="M71.082,76.871c-.281,0-.556,0-.835-.009a13.042,13.042,0,0,1-1.726-.134,5.883,5.883,0,0,1-1.531-.451,5.015,5.015,0,0,1-1.29-.837,4.436,4.436,0,0,1-.942-1.15,4.342,4.342,0,0,1-.5-1.364,9.134,9.134,0,0,1-.154-1.544c-.006-.174-.014-.752-.014-.752V51.607s.008-.569.014-.736a9.1,9.1,0,0,1,.153-1.541,4.388,4.388,0,0,1,.5-1.369,4.494,4.494,0,0,1,.938-1.151,5.166,5.166,0,0,1,1.3-.842,5.832,5.832,0,0,1,1.527-.448,13.064,13.064,0,0,1,1.732-.135l.834-.01h94.932l.843.011a12.789,12.789,0,0,1,1.717.133,6,6,0,0,1,1.544.451,5.139,5.139,0,0,1,1.285.837,4.663,4.663,0,0,1,.946,1.156,4.421,4.421,0,0,1,.494,1.358A9.651,9.651,0,0,1,173,50.875c0,.233,0,.484,0,.733.006.309.006.6.006.9V69.74c0,.3,0,.591-.006.885,0,.268,0,.513,0,.766a9.454,9.454,0,0,1-.158,1.526,4.4,4.4,0,0,1-.5,1.375,4.6,4.6,0,0,1-.939,1.141,5,5,0,0,1-1.292.842,5.865,5.865,0,0,1-1.541.453,12.9,12.9,0,0,1-1.727.134c-.271.006-.554.009-.83.009l-1,0Z" transform="translate(-63.368 -44.655)"/>
      </g>
    </g>
    <g id="Group_1240" data-name="Group 1240" transform="translate(8.211 7.18)">
      <g id="Group_1238" data-name="Group 1238">
        <g id="Group_1237" data-name="Group 1237">
          <path id="Path_837" data-name="Path 837" d="M85.37,63.684a4.074,4.074,0,0,1,1.941-3.419,4.171,4.171,0,0,0-3.286-1.777c-1.383-.145-2.724.828-3.428.828s-1.8-.814-2.972-.789a4.377,4.377,0,0,0-3.683,2.245c-1.592,2.758-.4,6.81,1.121,9.039.762,1.091,1.655,2.31,2.822,2.267,1.142-.048,1.569-.729,2.948-.729s1.765.729,2.957.7c1.225-.021,2-1.1,2.734-2.2a9.021,9.021,0,0,0,1.25-2.546A3.939,3.939,0,0,1,85.37,63.684Z" transform="translate(-73.186 -54.148)" fill="#fff"/>
          <path id="Path_838" data-name="Path 838" d="M84.676,56.095a4.013,4.013,0,0,0,.917-2.875,4.082,4.082,0,0,0-2.641,1.367,3.815,3.815,0,0,0-.942,2.768A3.377,3.377,0,0,0,84.676,56.095Z" transform="translate(-74.74 -53.22)" fill="#fff"/>
        </g>
      </g>
      <g id="Group_1239" data-name="Group 1239" transform="translate(31.968 7.535)">
        <path id="Path_839" data-name="Path 839" d="M104.126,70.04h-3.9L99.293,72.8H97.642l3.691-10.225h1.715L106.74,72.8h-1.679Zm-3.495-1.275h3.089L102.2,64.279h-.043Z" transform="translate(-97.642 -62.408)" fill="#fff"/>
        <path id="Path_840" data-name="Path 840" d="M116.868,69.654c0,2.316-1.24,3.805-3.111,3.805a2.527,2.527,0,0,1-2.346-1.3h-.035v3.692h-1.53V65.925h1.481v1.24h.028a2.645,2.645,0,0,1,2.374-1.317C115.621,65.848,116.868,67.343,116.868,69.654Zm-1.573,0c0-1.509-.78-2.5-1.97-2.5-1.169,0-1.956,1.013-1.956,2.5s.786,2.508,1.956,2.508C114.516,72.162,115.3,71.176,115.3,69.654Z" transform="translate(-99.797 -62.985)" fill="#fff"/>
        <path id="Path_841" data-name="Path 841" d="M126.833,69.654c0,2.316-1.24,3.805-3.111,3.805a2.527,2.527,0,0,1-2.346-1.3h-.035v3.692h-1.53V65.925h1.481v1.24h.029a2.644,2.644,0,0,1,2.373-1.317C125.586,65.848,126.833,67.343,126.833,69.654Zm-1.573,0c0-1.509-.781-2.5-1.97-2.5-1.169,0-1.956,1.013-1.956,2.5s.786,2.508,1.956,2.508C124.48,72.162,125.26,71.176,125.26,69.654Z" transform="translate(-101.557 -62.985)" fill="#fff"/>
        <path id="Path_842" data-name="Path 842" d="M134.589,69.918c.114,1.014,1.1,1.68,2.445,1.68,1.289,0,2.217-.665,2.217-1.58,0-.794-.56-1.269-1.885-1.594l-1.325-.319c-1.878-.454-2.749-1.331-2.749-2.757,0-1.764,1.537-2.976,3.72-2.976,2.161,0,3.642,1.212,3.692,2.976H139.16c-.093-1.02-.936-1.636-2.169-1.636s-2.077.623-2.077,1.53c0,.723.539,1.149,1.857,1.474l1.126.277c2.1.5,2.97,1.339,2.97,2.835,0,1.913-1.524,3.111-3.947,3.111-2.268,0-3.8-1.17-3.9-3.019Z" transform="translate(-103.89 -62.371)" fill="#fff"/>
        <path id="Path_843" data-name="Path 843" d="M146,63.8v1.764h1.417v1.212H146v4.11c0,.639.283.936.907.936a4.676,4.676,0,0,0,.5-.035v1.2a4.185,4.185,0,0,1-.85.071c-1.509,0-2.1-.567-2.1-2.012V66.776h-1.084V65.564h1.084V63.8Z" transform="translate(-105.718 -62.623)" fill="#fff"/>
        <path id="Path_844" data-name="Path 844" d="M149.279,69.651c0-2.346,1.382-3.82,3.536-3.82s3.537,1.474,3.537,3.82-1.368,3.819-3.537,3.819S149.279,72,149.279,69.651Zm5.514,0c0-1.609-.738-2.559-1.978-2.559s-1.976.957-1.976,2.559.736,2.558,1.976,2.558S154.793,71.266,154.793,69.651Z" transform="translate(-106.76 -62.982)" fill="#fff"/>
        <path id="Path_845" data-name="Path 845" d="M159.4,65.925h1.46v1.269h.035a1.778,1.778,0,0,1,1.793-1.346,2.366,2.366,0,0,1,.524.057v1.431a2.15,2.15,0,0,0-.688-.092,1.542,1.542,0,0,0-1.594,1.715v4.422H159.4Z" transform="translate(-108.547 -62.985)" fill="#fff"/>
        <path id="Path_846" data-name="Path 846" d="M171.157,71.188a2.992,2.992,0,0,1-3.211,2.282c-2.169,0-3.514-1.453-3.514-3.784s1.353-3.855,3.45-3.855c2.063,0,3.36,1.417,3.36,3.677v.525h-5.265v.092a1.941,1.941,0,0,0,2.005,2.111,1.687,1.687,0,0,0,1.722-1.048Zm-5.174-2.225h3.728a1.793,1.793,0,0,0-1.829-1.892A1.888,1.888,0,0,0,165.983,68.963Z" transform="translate(-109.436 -62.982)" fill="#fff"/>
      </g>
    </g>
  </g>
  <g id="Group_1243" data-name="Group 1243" transform="translate(41.203 6.947)">
    <g id="Group_1242" data-name="Group 1242">
      <path id="Path_847" data-name="Path 847" d="M100.66,53.231a2.173,2.173,0,0,1,2.311,2.441,2.184,2.184,0,0,1-2.311,2.472H98.885V53.231Zm-1.012,4.218h.926a1.768,1.768,0,0,0,0-3.524h-.926Z" transform="translate(-98.885 -52.989)" fill="#fff"/>
      <path id="Path_848" data-name="Path 848" d="M104.9,56.532a1.757,1.757,0,1,1,1.75,1.928A1.7,1.7,0,0,1,104.9,56.532Zm2.744,0c0-.8-.361-1.274-.995-1.274s-.994.47-.994,1.274.358,1.277.994,1.277S107.639,57.338,107.639,56.532Z" transform="translate(-99.946 -53.232)" fill="#fff"/>
      <path id="Path_849" data-name="Path 849" d="M113.9,58.4h-.759l-.767-2.731h-.058l-.763,2.731h-.752L109.784,54.7h.742l.665,2.829h.054l.762-2.829h.7l.762,2.829h.058l.66-2.829h.732Z" transform="translate(-100.81 -53.247)" fill="#fff"/>
      <path id="Path_850" data-name="Path 850" d="M117.068,54.68h.7v.589h.055a1.111,1.111,0,0,1,1.107-.66,1.206,1.206,0,0,1,1.283,1.379v2.4h-.732V56.171c0-.6-.259-.893-.8-.893a.851.851,0,0,0-.885.94v2.17h-.732Z" transform="translate(-102.096 -53.232)" fill="#fff"/>
      <path id="Path_851" data-name="Path 851" d="M122.308,52.937h.732v5.155h-.732Z" transform="translate(-103.021 -52.937)" fill="#fff"/>
      <path id="Path_852" data-name="Path 852" d="M124.432,56.532a1.757,1.757,0,1,1,1.75,1.928A1.7,1.7,0,0,1,124.432,56.532Zm2.744,0c0-.8-.361-1.274-.995-1.274s-.994.47-.994,1.274.358,1.277.994,1.277S127.176,57.338,127.176,56.532Z" transform="translate(-103.396 -53.232)" fill="#fff"/>
      <path id="Path_853" data-name="Path 853" d="M129.615,57.338c0-.667.5-1.052,1.379-1.107l1-.058v-.32c0-.391-.259-.613-.759-.613-.408,0-.692.15-.773.412h-.708c.075-.637.674-1.045,1.515-1.045.93,0,1.454.463,1.454,1.246v2.534h-.7v-.521h-.058a1.248,1.248,0,0,1-1.114.582A1.12,1.12,0,0,1,129.615,57.338ZM132,57.022v-.31l-.906.058c-.511.035-.742.208-.742.535s.289.528.688.528A.874.874,0,0,0,132,57.022Z" transform="translate(-104.311 -53.232)" fill="#fff"/>
      <path id="Path_854" data-name="Path 854" d="M134.563,56.236c0-1.172.6-1.914,1.539-1.914a1.224,1.224,0,0,1,1.137.651h.054V52.937h.732v5.155h-.7v-.586h-.058a1.286,1.286,0,0,1-1.164.647C135.158,58.153,134.563,57.411,134.563,56.236Zm.756,0c0,.786.371,1.26.991,1.26s1-.48,1-1.257-.385-1.26-1-1.26S135.319,55.457,135.319,56.236Z" transform="translate(-105.185 -52.937)" fill="#fff"/>
      <path id="Path_855" data-name="Path 855" d="M142.444,56.532a1.757,1.757,0,1,1,1.75,1.928A1.7,1.7,0,0,1,142.444,56.532Zm2.744,0c0-.8-.361-1.274-.995-1.274s-.994.47-.994,1.274.358,1.277.994,1.277S145.188,57.338,145.188,56.532Z" transform="translate(-106.577 -53.232)" fill="#fff"/>
      <path id="Path_856" data-name="Path 856" d="M147.884,54.68h.7v.589h.055a1.11,1.11,0,0,1,1.106-.66,1.206,1.206,0,0,1,1.284,1.379v2.4H150.3V56.171c0-.6-.259-.893-.8-.893a.85.85,0,0,0-.885.94v2.17h-.732Z" transform="translate(-107.537 -53.232)" fill="#fff"/>
      <path id="Path_857" data-name="Path 857" d="M156.447,53.574v.94h.8v.617h-.8v1.906c0,.389.16.559.524.559a2.478,2.478,0,0,0,.279-.017v.609a2.338,2.338,0,0,1-.4.038c-.814,0-1.138-.287-1.138-1V55.13h-.589v-.617h.589v-.94Z" transform="translate(-108.816 -53.049)" fill="#fff"/>
      <path id="Path_858" data-name="Path 858" d="M158.919,52.937h.725V54.98h.058a1.142,1.142,0,0,1,1.131-.664A1.222,1.222,0,0,1,162.11,55.7v2.394h-.733V55.879c0-.592-.276-.893-.793-.893a.866.866,0,0,0-.933.94v2.166h-.732Z" transform="translate(-109.486 -52.937)" fill="#fff"/>
      <path id="Path_859" data-name="Path 859" d="M167.264,57.386a1.506,1.506,0,0,1-1.607,1.073,1.684,1.684,0,0,1-1.713-1.914,1.71,1.71,0,0,1,1.71-1.937c1.031,0,1.653.7,1.653,1.869v.255H164.69v.041a.98.98,0,0,0,.987,1.062.889.889,0,0,0,.882-.45Zm-2.574-1.195h1.872a.9.9,0,0,0-.912-.961A.948.948,0,0,0,164.69,56.191Z" transform="translate(-110.373 -53.232)" fill="#fff"/>
    </g>
  </g>
</svg>
