<svg xmlns="http://www.w3.org/2000/svg" width="194" height="44" viewBox="0 0 194 44">
  <g id="logo" transform="translate(753.907 -301.346)">
    <path id="Path_287" data-name="Path 287" d="M-662.149,307.556l.918-3.6,1,3.6Zm3.126,4.363h2.408l-2.993-10.454h-3.113l-2.754,10.454h2.221l.585-2.294h3.006Zm-10.15,0h2.394V301.495h-2.394Zm-4.137-3.023c0,.64-.346.953-1.21.953h-1.729V307.63h1.729c.865,0,1.21.313,1.21.968Zm-2.94-5.331h1.463c.865,0,1.211.283,1.211.923v.3c0,.64-.346.968-1.211.968h-1.463Zm3.924,3.053a2.232,2.232,0,0,0,1.144-2.129v-.3c0-1.638-.825-2.7-3.605-2.7h-3.858v10.424h4.124c2.78,0,3.6-1.087,3.6-2.725v-.3a2.2,2.2,0,0,0-1.41-2.278m-13.156.938.918-3.6,1,3.6Zm3.126,4.363h2.408l-2.993-10.454h-3.113l-2.754,10.454h2.222l.585-2.294h3.006Zm-12.637-8.354h1.516c.9,0,1.2.4,1.2,1.1v.3c0,.685-.292,1.087-1.2,1.087h-1.516Zm5.281,8.354-1.955-4.006c1.291-.417,1.783-1.429,1.783-2.948v-.3c0-2.04-.865-3.172-3.419-3.172h-4.084v10.424h2.394v-3.783h.931l1.7,3.783Zm-14.513-4.363.918-3.6,1,3.6Zm3.126,4.363h2.408l-2.993-10.454H-704.8l-2.754,10.454h2.222l.585-2.294h3.006Zm-13.608,0h2.394V301.495h-2.394Zm-4.137-4.289c0,1.742-.359,2.218-1.716,2.218h-1.756v-6.284h1.756c1.357,0,1.716.476,1.716,2.219Zm-1.716-6.136h-4.151v10.424h4.151c3.312,0,4.11-1.087,4.11-5.064v-.3c0-3.961-.8-5.063-4.11-5.063m-12.025,0h-2.394v5.525c0,3.8.759,5.048,4.018,5.048h.266c3.272,0,4.017-1.444,4.017-5.048v-5.525h-2.394v6.388c0,1.474-.306,2.115-1.623,2.115h-.266c-1.3,0-1.623-.64-1.623-2.115Zm-8.966,6.061.918-3.6,1,3.6Zm3.126,4.363h2.408l-2.993-10.454h-3.113l-2.754,10.454h2.221l.586-2.294h3.006Zm-11.014-6.388c-1.25-.09-1.9-.149-1.9-1.072,0-.745.253-1.028,2.182-1.028a20.891,20.891,0,0,1,2.847.342v-2a14.344,14.344,0,0,0-3.392-.432c-3.033,0-4.07,1.236-4.07,3.351,0,2.71,2.009,3.1,3.365,3.172,1.476.1,2.142.134,2.142,1.072,0,.745-.266,1.057-2.275,1.057a25.043,25.043,0,0,1-3.365-.343v2a17.712,17.712,0,0,0,3.924.417c3.086,0,4.15-1.251,4.15-3.365,0-2.815-2.049-3.068-3.6-3.172" transform="translate(0 0)" fill="#fff"/>
    <path id="Path_288" data-name="Path 288" d="M-737.284,462.306c0,2.916-.957,4.274-4.323,4.274h-4.851v-9.346h4.851c3.365,0,4.323,1.358,4.323,4.274Zm3.96,0v-.8c0-5.312-2.046-8.228-8.084-8.228h-9.009v27.958h3.96v-10.7h3.366l5.115,10.7h4.488l-5.445-10.9c4.125-.719,5.61-3.475,5.61-8.028" transform="translate(98.224 -136.692)" fill="#fff"/>
    <path id="Path_289" data-name="Path 289" d="M-664.487,467.883c0,7.429-1.122,8.987-5.51,8.987h-.66c-4.422,0-5.544-1.558-5.544-8.987v-2.876c0-7.429,1.122-8.986,5.544-8.986h.66c4.389,0,5.51,1.557,5.51,8.986Zm3.96-1.038v-.8c0-10.9-1.98-13.979-9.47-13.979h-.66c-7.524,0-9.5,3.075-9.5,13.979v.8c0,11.183,1.98,13.979,9.5,13.979h.66c7.49,0,9.47-3.035,9.47-13.979" transform="translate(50.617 -135.479)" fill="#fff"/>
    <path id="Path_290" data-name="Path 290" d="M-589.345,469.29h-6.2l2.97-11.942Zm7.227,11.623-7.821-28.118h-5.016l-7.26,28.118h3.762l1.914-7.709h8.25l2.079,7.709Z" transform="translate(-2.455 -136.207)" fill="#fff"/>
    <path id="Path_291" data-name="Path 291" d="M-507.986,468.616c0,7.109-1.122,8.667-5.51,8.667h-5.412v-20.05h5.412c4.389,0,5.51,1.557,5.51,8.667Zm3.96-.959v-.8c0-10.5-1.98-13.58-9.47-13.58h-9.372v27.958h9.372c7.49,0,9.47-3.035,9.47-13.58" transform="translate(-55.881 -136.691)" fill="#fff"/>
    <path id="Path_292" data-name="Path 292" d="M-737.141,365.127c0,7.429-1.122,8.987-5.51,8.987h-.66c-4.422,0-5.544-1.558-5.544-8.987v-2.876c0-7.429,1.122-8.987,5.544-8.987h.66c4.389,0,5.51,1.558,5.51,8.987Zm3.96-1.038v-.8c0-10.9-1.98-13.979-9.47-13.979h-.66c-7.524,0-9.5,3.075-9.5,13.979v.8c0,11.183,1.98,13.979,9.5,13.979h.66c7.491,0,9.47-3.036,9.47-13.979" transform="translate(-1.092 -32.722)" fill="#fff"/>
    <path id="Path_293" data-name="Path 293" d="M-653.6,354.476v-3.954H-669.77V378.48h3.96V367.337h9.57v-3.954h-9.57v-8.907Z" transform="translate(-57.012 -33.934)" fill="#fff"/>
    <path id="Path_294" data-name="Path 294" d="M-581.044,354.476v-3.954h-16.169V378.48h3.96V367.337h9.57v-3.954h-9.57v-8.907Z" transform="translate(-106.429 -33.934)" fill="#fff"/>
    <rect id="Rectangle_211" data-name="Rectangle 211" width="18.883" height="3.682" transform="translate(-679.331 329.765)" fill="#fff"/>
  </g>
</svg>
