<svg xmlns="http://www.w3.org/2000/svg" width="185" height="42" viewBox="0 0 185 42">
  <g id="logo-orange" transform="translate(753.907 -301.346)">
    <path id="Path_287" data-name="Path 287" d="M-666.405,307.274l.875-3.44.952,3.44Zm2.981,4.165h2.3l-2.854-9.979h-2.968l-2.626,9.979h2.118l.558-2.189h2.867Zm-9.679,0h2.283v-9.95H-673.1Zm-3.945-2.886c0,.611-.33.91-1.154.91h-1.649v-2.118h1.649c.825,0,1.154.3,1.154.924Zm-2.8-5.089h1.4c.825,0,1.155.27,1.155.881v.284c0,.611-.33.924-1.155.924h-1.4Zm3.742,2.914a2.132,2.132,0,0,0,1.091-2.033v-.284c0-1.564-.786-2.573-3.438-2.573h-3.679v9.95h3.932c2.651,0,3.438-1.038,3.438-2.6v-.285a2.1,2.1,0,0,0-1.345-2.175m-12.546.9.875-3.44.951,3.44Zm2.981,4.165h2.3l-2.854-9.979H-689.2l-2.626,9.979h2.119l.558-2.189h2.867Zm-12.051-7.974h1.446c.863,0,1.142.384,1.142,1.052v.285c0,.654-.279,1.037-1.142,1.037h-1.446Zm5.036,7.974-1.865-3.824c1.231-.4,1.7-1.364,1.7-2.814v-.285c0-1.947-.824-3.028-3.26-3.028h-3.894v9.95h2.283v-3.611h.888l1.624,3.611Zm-13.84-4.165.875-3.44.951,3.44Zm2.981,4.165h2.3l-2.854-9.979h-2.969l-2.626,9.979h2.119l.558-2.189h2.867Zm-12.976,0h2.283v-9.95h-2.283Zm-3.945-4.094c0,1.663-.343,2.118-1.637,2.118h-1.674v-6h1.674c1.294,0,1.637.455,1.637,2.118Zm-1.637-5.857h-3.958v9.95h3.958c3.159,0,3.92-1.038,3.92-4.833v-.284c0-3.781-.761-4.833-3.92-4.833m-11.467,0h-2.283v5.274c0,3.625.723,4.819,3.831,4.819h.254c3.12,0,3.831-1.379,3.831-4.819v-5.274h-2.283v6.1c0,1.407-.292,2.019-1.547,2.019h-.254c-1.243,0-1.548-.611-1.548-2.019Zm-8.55,5.786.875-3.44.951,3.44Zm2.981,4.165h2.3l-2.854-9.979h-2.968l-2.626,9.979h2.118l.558-2.189h2.867Zm-10.5-6.1c-1.193-.085-1.814-.142-1.814-1.023,0-.711.241-.981,2.081-.981a19.915,19.915,0,0,1,2.715.327v-1.9a13.665,13.665,0,0,0-3.235-.413c-2.892,0-3.882,1.18-3.882,3.2,0,2.587,1.915,2.956,3.209,3.028,1.408.1,2.042.128,2.042,1.023,0,.711-.254,1.009-2.169,1.009a23.857,23.857,0,0,1-3.209-.327v1.9a16.873,16.873,0,0,0,3.742.4c2.943,0,3.958-1.194,3.958-3.212,0-2.687-1.954-2.928-3.438-3.028" transform="translate(0 0)" fill="#ff7f00"/>
    <path id="Path_288" data-name="Path 288" d="M-737.894,461.9c0,2.783-.913,4.079-4.122,4.079h-4.626v-8.921h4.626c3.209,0,4.122,1.3,4.122,4.079Zm3.776,0v-.762c0-5.071-1.951-7.854-7.709-7.854h-8.591v26.687h3.776V469.75h3.21l4.878,10.218h4.28l-5.192-10.408c3.933-.686,5.349-3.317,5.349-7.663" transform="translate(93.505 -137.385)" fill="#ff7f00"/>
    <path id="Path_289" data-name="Path 289" d="M-665.214,467.164c0,7.091-1.07,8.578-5.255,8.578h-.63c-4.217,0-5.287-1.487-5.287-8.578V464.42c0-7.091,1.07-8.578,5.287-8.578h.63c4.185,0,5.255,1.487,5.255,8.578Zm3.776-.991v-.763c0-10.408-1.888-13.344-9.031-13.344h-.63c-7.175,0-9.063,2.936-9.063,13.344v.763c0,10.675,1.888,13.344,9.063,13.344h.63c7.143,0,9.031-2.9,9.031-13.344" transform="translate(44.848 -136.171)" fill="#ff7f00"/>
    <path id="Path_290" data-name="Path 290" d="M-589.942,468.54h-5.916l2.832-11.4Zm6.891,11.094-7.458-26.84h-4.783l-6.923,26.84h3.587l1.825-7.358h7.867l1.982,7.358Z" transform="translate(-9.378 -136.9)" fill="#ff7f00"/>
    <path id="Path_291" data-name="Path 291" d="M-508.676,467.919c0,6.786-1.07,8.273-5.255,8.273h-5.161V457.053h5.161c4.185,0,5.255,1.487,5.255,8.273ZM-504.9,467v-.763c0-10.027-1.888-12.962-9.031-12.962h-8.937v26.687h8.937c7.143,0,9.031-2.9,9.031-12.962" transform="translate(-64.007 -137.384)" fill="#ff7f00"/>
    <path id="Path_292" data-name="Path 292" d="M-737.868,364.408c0,7.091-1.07,8.578-5.255,8.578h-.629c-4.217,0-5.287-1.487-5.287-8.578v-2.745c0-7.091,1.07-8.578,5.287-8.578h.629c4.185,0,5.255,1.487,5.255,8.578Zm3.776-.991v-.762c0-10.408-1.888-13.344-9.031-13.344h-.629c-7.175,0-9.063,2.936-9.063,13.344v.762c0,10.675,1.888,13.344,9.063,13.344h.629c7.143,0,9.031-2.9,9.031-13.344" transform="translate(-1.092 -33.415)" fill="#ff7f00"/>
    <path id="Path_293" data-name="Path 293" d="M-654.351,354.3v-3.774H-669.77v26.687h3.776V366.572h9.126V362.8h-9.126v-8.5Z" transform="translate(-58.27 -34.626)" fill="#ff7f00"/>
    <path id="Path_294" data-name="Path 294" d="M-581.794,354.3v-3.774h-15.419v26.687h3.776V366.572h9.126V362.8h-9.126v-8.5Z" transform="translate(-108.761 -34.626)" fill="#ff7f00"/>
    <rect id="Rectangle_211" data-name="Rectangle 211" width="18.007" height="3.514" transform="translate(-682.791 328.473)" fill="#ff7f00"/>
  </g>
</svg>
