<svg id="Ministry_of_Culture" data-name="Ministry of Culture" xmlns="http://www.w3.org/2000/svg" xmlns:xlink="http://www.w3.org/1999/xlink" width="64" height="40" viewBox="0 0 64 40">
  <defs>
    <clipPath id="clip-path">
      <rect id="Rectangle_213" data-name="Rectangle 213" width="64" height="40" fill="none"/>
    </clipPath>
  </defs>
  <path id="Path_295" data-name="Path 295" d="M-428.593,426.72l-.577-.586-.577.586.577.586Z" transform="translate(431.587 -402.924)" fill="#fff"/>
  <path id="Path_296" data-name="Path 296" d="M-431.319,426.72l.577.586.576-.586-.576-.586Z" transform="translate(431.802 -402.924)" fill="#fff"/>
  <path id="Path_297" data-name="Path 297" d="M-417.371,426.666l-.577-.586-.577.586.577.586Z" transform="translate(430.051 -402.916)" fill="#fff"/>
  <g id="Group_502" data-name="Group 502" transform="translate(0 0)">
    <g id="Group_501" data-name="Group 501" clip-path="url(#clip-path)">
      <path id="Path_298" data-name="Path 298" d="M-430.262,431.253a2.144,2.144,0,0,1-.375-.033,1.2,1.2,0,0,1-.318-.1.583.583,0,0,1-.217-.179.456.456,0,0,1-.079-.275.564.564,0,0,1,.143-.371,1.349,1.349,0,0,1,.388-.3,2.678,2.678,0,0,1,.559-.218,4.038,4.038,0,0,1,.656-.124l.018,1.475a2.138,2.138,0,0,1-.775.128m10.854-.67a1.686,1.686,0,0,1-.466.065.9.9,0,0,1-.6-.174.632.632,0,0,1-.208-.514.935.935,0,0,1,.231-.645.734.734,0,0,1,.573-.261.63.63,0,0,1,.568.32,2.474,2.474,0,0,1,.263,1.035,1.02,1.02,0,0,1-.365.174m.655-1.566a1.178,1.178,0,0,0-1.094-.733,1.2,1.2,0,0,0-.554.133,1.381,1.381,0,0,0-.448.367,1.8,1.8,0,0,0-.3.549,2,2,0,0,0-.112.674,1.341,1.341,0,0,0,.347.984,1.273,1.273,0,0,0,.955.353,1.614,1.614,0,0,0,.521-.082,1.41,1.41,0,0,0,.43-.229v.641c0,.122-.2.214-.61.275s-7.343.092-8.143.092h-.213a1.02,1.02,0,0,1-.656-.169.675.675,0,0,1-.194-.564l.037-3.105-.73.128v.559a4.091,4.091,0,0,0-1.741.724,1.486,1.486,0,0,0-.623,1.2,1.139,1.139,0,0,0,.12.527,1.137,1.137,0,0,0,.323.39,1.452,1.452,0,0,0,.475.237,2.006,2.006,0,0,0,.586.083,1.824,1.824,0,0,0,.914-.22q.157,1.036,1.488,1.035h.213c.326,0,6.946,0,7.192-.014s.465-.025.656-.05a4.607,4.607,0,0,0,.494-.088,1.994,1.994,0,0,0,.383-.133.99.99,0,0,0,.509-.481,2.267,2.267,0,0,0,.147-.921,4.885,4.885,0,0,0-.374-2.161" transform="translate(431.878 -403.223)" fill="#fff"/>
    </g>
  </g>
  <path id="Path_299" data-name="Path 299" d="M-403.608,427.807l-.577-.586-.577.586.577.586Z" transform="translate(428.008 -403.087)" fill="#fff"/>
  <path id="Path_300" data-name="Path 300" d="M-402.036,427.807l-.577-.586-.577.586.577.586Z" transform="translate(427.784 -403.087)" fill="#fff"/>
  <path id="Path_301" data-name="Path 301" d="M-391.039,427.635l-.577-.586-.577.586.577.586Z" transform="translate(426.214 -403.061)" fill="#fff"/>
  <path id="Path_302" data-name="Path 302" d="M-390.83,429.61l.577-.586-.577-.585-.576.585Z" transform="translate(426.102 -403.269)" fill="#fff"/>
  <path id="Path_303" data-name="Path 303" d="M-391.826,429.024l-.577-.585-.577.585.577.586Z" transform="translate(426.327 -403.269)" fill="#fff"/>
  <g id="Group_504" data-name="Group 504" transform="translate(0 0)">
    <g id="Group_503" data-name="Group 503" clip-path="url(#clip-path)">
      <path id="Path_304" data-name="Path 304" d="M-404.942,431.6q-.85-.274-.85-.908a.879.879,0,0,1,.064-.338.888.888,0,0,1,.18-.276.808.808,0,0,1,.273-.183.869.869,0,0,1,.333-.064.879.879,0,0,1,.333.064.8.8,0,0,1,.272.183.874.874,0,0,1,.18.276.865.865,0,0,1,.065.338q0,.633-.85.908m18.725-4.737.027,4.489a.3.3,0,0,1-.1.22.722.722,0,0,1-.25.146,1.618,1.618,0,0,1-.346.077c-.129.015-6.581.022-6.722.022-.732,0-1.1-.188-1.1-.567,0-.048.012-.179.036-.394s.053-.448.083-.705l-.628-.074q-.018.12-.037.276t-.045.311l-.056.307c-.019.1-.034.185-.047.251a.635.635,0,0,1-.364.458c-.194.092-6.818.137-7.224.137-.185,0-.361,0-.527-.008s-.321-.016-.462-.028a1.47,1.47,0,0,0,.481-1.118,1.737,1.737,0,0,0-.116-.636,1.662,1.662,0,0,0-.314-.518,1.508,1.508,0,0,0-.462-.348,1.25,1.25,0,0,0-.558-.128,1.256,1.256,0,0,0-.559.128,1.509,1.509,0,0,0-.462.348,1.662,1.662,0,0,0-.314.518,1.734,1.734,0,0,0-.115.636,1.447,1.447,0,0,0,.48,1.118c-.148.012-.3.021-.471.028s-6.672.008-6.85.008a1,1,0,0,1-.652-.168.707.707,0,0,1-.2-.564l.037-4.351-.73.128.037,4.5q.019,1.282,1.506,1.283c.345,0,7.018-.028,7.349-.083a5.538,5.538,0,0,0,.942-.239,5.573,5.573,0,0,0,.941.239,6.3,6.3,0,0,0,1.017.083c.388,0,7.055-.055,7.336-.161a1.179,1.179,0,0,0,.6-.454,1.529,1.529,0,0,0,1.44.615c.23,0,6.769-.023,6.976-.069a1.663,1.663,0,0,0,.554-.23,1.253,1.253,0,0,0,.4-.421,1.261,1.261,0,0,0,.152-.646l.038-4.544Z" transform="translate(429.439 -403.004)" fill="#fff"/>
    </g>
  </g>
  <path id="Path_305" data-name="Path 305" d="M-379.258,426.868l.047,5.865h.641l.047-6Z" transform="translate(424.37 -403.064)" fill="#fff"/>
  <g id="Group_506" data-name="Group 506" transform="translate(0 0)">
    <g id="Group_505" data-name="Group 505" clip-path="url(#clip-path)">
      <path id="Path_306" data-name="Path 306" d="M-373.01,428.376l-.573-.578.573-.577.573.577Zm.3,3.051a2.367,2.367,0,0,0-.07-.591,1.542,1.542,0,0,0-.2-.468.992.992,0,0,0-.3-.306.719.719,0,0,0-.388-.111.78.78,0,0,0-.374.1.966.966,0,0,0-.31.261,1.357,1.357,0,0,0-.207.385,1.379,1.379,0,0,0-.079.467.738.738,0,0,0,.249.6,1.1,1.1,0,0,0,.72.206,1.578,1.578,0,0,0,.37-.042,1.006,1.006,0,0,0,.305-.119.766.766,0,0,0,.207-.174.323.323,0,0,0,.079-.206m-1.644-3.051-.572-.578.572-.577.573.577Zm2.272,2.969a1.354,1.354,0,0,1-.424,1.049,1.66,1.66,0,0,1-1.164.39,1.688,1.688,0,0,1-1.191-.38,1.428,1.428,0,0,1-.406-1.1,2.71,2.71,0,0,1,.129-.846,2.533,2.533,0,0,1,.346-.7,1.7,1.7,0,0,1,.508-.476,1.173,1.173,0,0,1,.613-.174,1.2,1.2,0,0,1,.623.174,1.655,1.655,0,0,1,.5.476,2.475,2.475,0,0,1,.337.71,2.95,2.95,0,0,1,.125.875" transform="translate(423.805 -403.076)" fill="#fff"/>
      <path id="Path_307" data-name="Path 307" d="M-371.86,434.229a6.465,6.465,0,0,0,.923-.421,4.787,4.787,0,0,0,.735-.5,2.609,2.609,0,0,0,.484-.522.9.9,0,0,0,.176-.5,1.462,1.462,0,0,0-.065-.376,4.3,4.3,0,0,0-.18-.5q-.116-.27-.272-.563t-.333-.568l.664-.367a4.207,4.207,0,0,1,.61,1.136,3.49,3.49,0,0,1,.222,1.164,2.284,2.284,0,0,1-.665,1.58,4.684,4.684,0,0,1-1.875,1.159Z" transform="translate(423.318 -403.478)" fill="#fff"/>
    </g>
  </g>
  <path id="Path_308" data-name="Path 308" d="M-366.97,426.868l.047,5.865h.641l.047-6Z" transform="translate(422.565 -403.064)" fill="#fff"/>
  <g id="Group_508" data-name="Group 508" transform="translate(0 0)">
    <g id="Group_507" data-name="Group 507" clip-path="url(#clip-path)">
      <path id="Path_309" data-name="Path 309" d="M-363.89,428.839l-.573-.577.573-.577.573.577Zm-1.69,5.057a6.469,6.469,0,0,0,.923-.421,4.751,4.751,0,0,0,.734-.5,2.617,2.617,0,0,0,.485-.522.9.9,0,0,0,.175-.5,1.454,1.454,0,0,0-.064-.376,4.275,4.275,0,0,0-.18-.5c-.077-.18-.168-.367-.272-.563s-.216-.384-.333-.568l.665-.367a4.233,4.233,0,0,1,.61,1.136,3.489,3.489,0,0,1,.222,1.164,2.283,2.283,0,0,1-.665,1.58,4.685,4.685,0,0,1-1.875,1.158Z" transform="translate(422.423 -403.145)" fill="#fff"/>
      <path id="Path_310" data-name="Path 310" d="M-359.243,432.274a1.758,1.758,0,0,0,.5-.073,1.173,1.173,0,0,0,.383-.183,2.45,2.45,0,0,0-.273-1.119.727.727,0,0,0-.651-.394.733.733,0,0,0-.587.266,1.035,1.035,0,0,0-.226.7.774.774,0,0,0,.226.6.876.876,0,0,0,.623.211m-1.469,1.9q2-.276,2.3-1.438a1.378,1.378,0,0,1-.43.211,1.781,1.781,0,0,1-.521.074,1.239,1.239,0,0,1-.979-.422,1.623,1.623,0,0,1-.369-1.109,2.188,2.188,0,0,1,.111-.709,1.788,1.788,0,0,1,.305-.563,1.363,1.363,0,0,1,.461-.371,1.281,1.281,0,0,1,.581-.133,1.256,1.256,0,0,1,1.122.646,3.449,3.449,0,0,1,.4,1.818,2.684,2.684,0,0,1-.189,1.016,2.56,2.56,0,0,1-.536.825,2.879,2.879,0,0,1-.836.59,3.664,3.664,0,0,1-1.09.316Z" transform="translate(421.728 -403.448)" fill="#fff"/>
    </g>
  </g>
  <path id="Path_311" data-name="Path 311" d="M-427.541,437.513l-1.665,2.845-1.664-2.845h-.754l-.255,5.468h.739l.188-4.165,1.517,2.549h.394l1.541-2.582.181,4.2h.77l-.255-5.468Z" transform="translate(431.879 -404.719)" fill="#fff"/>
  <path id="Path_312" data-name="Path 312" d="M-424.608,439.165h.737v3.812h-.737Zm.364-1.68.585.585-.585.585-.586-.585Z" transform="translate(430.914 -404.715)" fill="#fff"/>
  <g id="Group_510" data-name="Group 510" transform="translate(0 0)">
    <g id="Group_509" data-name="Group 509" clip-path="url(#clip-path)">
      <path id="Path_313" data-name="Path 313" d="M-422.505,443.172v-3.518c0-.051,0-.131-.009-.238h.7l.025.565c.049-.065.109-.135.179-.214a1.25,1.25,0,0,1,.261-.214,1.532,1.532,0,0,1,.362-.162,1.565,1.565,0,0,1,.468-.065,1.353,1.353,0,0,1,1.1.429,1.757,1.757,0,0,1,.357,1.163v2.254h-.733v-2.2a1.113,1.113,0,0,0-.227-.772.836.836,0,0,0-.644-.246,1,1,0,0,0-.529.129,1,1,0,0,0-.338.335,1.457,1.457,0,0,0-.183.469,2.5,2.5,0,0,0-.057.537v1.745Z" transform="translate(430.543 -404.885)" fill="#fff"/>
    </g>
  </g>
  <path id="Path_314" data-name="Path 314" d="M-417.484,439.165h.737v3.812h-.737Zm.364-1.68.585.585-.585.585-.585-.585Z" transform="translate(429.856 -404.715)" fill="#fff"/>
  <g id="Group_512" data-name="Group 512" transform="translate(0 0)">
    <g id="Group_511" data-name="Group 511" clip-path="url(#clip-path)">
      <path id="Path_315" data-name="Path 315" d="M-415.246,442.222a1.534,1.534,0,0,0,.49.323,1.665,1.665,0,0,0,.658.121,1.421,1.421,0,0,0,.611-.117.387.387,0,0,0,.244-.368.453.453,0,0,0-.052-.222.478.478,0,0,0-.18-.165,1.528,1.528,0,0,0-.334-.134q-.208-.061-.517-.134a3.158,3.158,0,0,1-.436-.129,1.409,1.409,0,0,1-.387-.214,1.036,1.036,0,0,1-.278-.322.927.927,0,0,1-.105-.457.887.887,0,0,1,.127-.481,1.1,1.1,0,0,1,.337-.347,1.63,1.63,0,0,1,.477-.214,2.046,2.046,0,0,1,.549-.073,2.408,2.408,0,0,1,.827.126,1.907,1.907,0,0,1,.608.351l-.4.5a1.5,1.5,0,0,0-.427-.259,1.6,1.6,0,0,0-.6-.1,1.186,1.186,0,0,0-.562.113.389.389,0,0,0-.212.372.385.385,0,0,0,.281.36,4.639,4.639,0,0,0,.736.222,4.521,4.521,0,0,1,.5.15,1.5,1.5,0,0,1,.407.218.986.986,0,0,1,.278.328,1.008,1.008,0,0,1,.1.469.935.935,0,0,1-.13.5,1.163,1.163,0,0,1-.35.361,1.675,1.675,0,0,1-.5.218,2.452,2.452,0,0,1-.6.072,2.1,2.1,0,0,1-1.612-.573Z" transform="translate(429.57 -404.879)" fill="#fff"/>
      <path id="Path_316" data-name="Path 316" d="M-410.708,439.822h-.683v-.605h.683v-1.228h.732v1.228h1.108v.605h-1.108v1.85a1,1,0,0,0,.143.623.5.5,0,0,0,.4.169.839.839,0,0,0,.35-.065,1.1,1.1,0,0,0,.277-.195l.334.445a1.564,1.564,0,0,1-.485.327,1.56,1.56,0,0,1-.59.1,1.109,1.109,0,0,1-.883-.323,1.509,1.509,0,0,1-.281-1.01Z" transform="translate(428.957 -404.685)" fill="#fff"/>
      <path id="Path_317" data-name="Path 317" d="M-407.253,443.178v-3.522c0-.048,0-.127-.009-.234h.7l.025.606a2,2,0,0,1,.171-.214,1.317,1.317,0,0,1,.256-.214,1.646,1.646,0,0,1,.351-.165,1.4,1.4,0,0,1,.46-.069,1.409,1.409,0,0,1,.225.016,1.193,1.193,0,0,1,.191.048l-.164.679a1.053,1.053,0,0,0-.374-.057,1.07,1.07,0,0,0-.436.088,1.047,1.047,0,0,0-.346.247,1.2,1.2,0,0,0-.233.367,1.173,1.173,0,0,0-.084.444v1.979Z" transform="translate(428.367 -404.891)" fill="#fff"/>
      <path id="Path_318" data-name="Path 318" d="M-403.7,444.109a.979.979,0,0,0,.187.129.553.553,0,0,0,.261.056.424.424,0,0,0,.224-.056.56.56,0,0,0,.172-.174,1.77,1.77,0,0,0,.145-.282q.071-.165.159-.384l.1-.242-1.693-3.724h.838l1.22,2.836,1.076-2.836h.8l-1.515,3.659q-.105.259-.215.57a3.628,3.628,0,0,1-.274.589,1.639,1.639,0,0,1-.4.465.938.938,0,0,1-.594.185,1.3,1.3,0,0,1-.48-.077,1.136,1.136,0,0,1-.342-.206Z" transform="translate(427.923 -404.901)" fill="#fff"/>
      <path id="Path_319" data-name="Path 319" d="M-395.683,442.649a1.188,1.188,0,0,0,.53-.116,1.243,1.243,0,0,0,.4-.308,1.31,1.31,0,0,0,.249-.436,1.538,1.538,0,0,0,.086-.505,1.516,1.516,0,0,0-.086-.5,1.343,1.343,0,0,0-.253-.441,1.3,1.3,0,0,0-.4-.31,1.147,1.147,0,0,0-.526-.117,1.172,1.172,0,0,0-.529.117,1.25,1.25,0,0,0-.4.307,1.331,1.331,0,0,0-.249.436,1.551,1.551,0,0,0-.086.505,1.507,1.507,0,0,0,.086.5,1.33,1.33,0,0,0,.253.436,1.283,1.283,0,0,0,.4.311,1.155,1.155,0,0,0,.525.116m0,.63a2.016,2.016,0,0,1-.806-.158,1.907,1.907,0,0,1-.631-.431,2.028,2.028,0,0,1-.414-.634,1.95,1.95,0,0,1-.152-.771,1.949,1.949,0,0,1,.152-.772,2.022,2.022,0,0,1,.414-.634,1.934,1.934,0,0,1,.631-.433,2.029,2.029,0,0,1,.806-.157,2.006,2.006,0,0,1,.8.157,1.98,1.98,0,0,1,.635.433,2.008,2.008,0,0,1,.419.634,1.978,1.978,0,0,1,.151.772,1.979,1.979,0,0,1-.151.771,2.015,2.015,0,0,1-.419.634,1.953,1.953,0,0,1-.635.431,1.994,1.994,0,0,1-.8.158" transform="translate(427.002 -404.879)" fill="#fff"/>
      <path id="Path_320" data-name="Path 320" d="M-391.825,439.727h-.685v-.606h.685v-.307a1.782,1.782,0,0,1,.11-.658,1.291,1.291,0,0,1,.293-.457,1.159,1.159,0,0,1,.42-.262,1.432,1.432,0,0,1,.5-.086,1.92,1.92,0,0,1,.591.093,1.408,1.408,0,0,1,.532.319l-.366.469a.989.989,0,0,0-.643-.25.667.667,0,0,0-.508.2,1,1,0,0,0-.192.695v.242h1.084v.606h-1.084v3.15h-.732Z" transform="translate(426.264 -404.59)" fill="#fff"/>
      <path id="Path_321" data-name="Path 321" d="M-382.179,441.934a1.947,1.947,0,0,1-.277.332,2.572,2.572,0,0,1-.457.35,2.764,2.764,0,0,1-.618.279,2.5,2.5,0,0,1-.773.113,2.806,2.806,0,0,1-1.1-.21,2.513,2.513,0,0,1-.854-.585,2.674,2.674,0,0,1-.558-.889,3.059,3.059,0,0,1-.2-1.119,3.044,3.044,0,0,1,.2-1.106,2.782,2.782,0,0,1,.558-.9,2.578,2.578,0,0,1,.858-.61,2.7,2.7,0,0,1,1.112-.223,2.623,2.623,0,0,1,.774.105,2.6,2.6,0,0,1,.6.263,2.318,2.318,0,0,1,.44.343,2.573,2.573,0,0,1,.3.355l-.555.468a3.247,3.247,0,0,0-.231-.286,1.6,1.6,0,0,0-.321-.27,1.884,1.884,0,0,0-.431-.2,1.8,1.8,0,0,0-.562-.081,1.828,1.828,0,0,0-.8.17,1.8,1.8,0,0,0-.6.46,2.019,2.019,0,0,0-.379.679,2.554,2.554,0,0,0-.13.823,2.472,2.472,0,0,0,.134.82,2,2,0,0,0,.379.667,1.74,1.74,0,0,0,.594.445,1.855,1.855,0,0,0,.782.162,1.9,1.9,0,0,0,.63-.094,1.815,1.815,0,0,0,.448-.222,1.719,1.719,0,0,0,.3-.263l.2-.222Z" transform="translate(425.48 -404.591)" fill="#fff"/>
      <path id="Path_322" data-name="Path 322" d="M-380.482,439.432h.734v2.2a1.121,1.121,0,0,0,.219.772.822.822,0,0,0,.635.238.983.983,0,0,0,.526-.129,1.034,1.034,0,0,0,.338-.336,1.368,1.368,0,0,0,.183-.468,2.726,2.726,0,0,0,.052-.537v-1.745h.734v3.526c0,.079,0,.156.008.231h-.7l-.025-.558c-.049.065-.109.134-.179.21a1.236,1.236,0,0,1-.261.205,1.624,1.624,0,0,1-.359.158,1.544,1.544,0,0,1-.463.065,1.334,1.334,0,0,1-1.092-.424,1.765,1.765,0,0,1-.351-1.159Z" transform="translate(424.548 -404.901)" fill="#fff"/>
    </g>
  </g>
  <rect id="Rectangle_219" data-name="Rectangle 219" width="0.739" height="5.468" transform="translate(48.492 32.794)" fill="#fff"/>
  <g id="Group_514" data-name="Group 514" transform="translate(0 0)">
    <g id="Group_513" data-name="Group 513" clip-path="url(#clip-path)">
      <path id="Path_323" data-name="Path 323" d="M-373.026,439.822h-.683v-.605h.683v-1.228h.732v1.228h1.108v.605h-1.108v1.85a1,1,0,0,0,.143.623.5.5,0,0,0,.4.169.836.836,0,0,0,.35-.065,1.1,1.1,0,0,0,.277-.195l.334.445a1.56,1.56,0,0,1-.484.327,1.568,1.568,0,0,1-.591.1,1.109,1.109,0,0,1-.883-.323,1.509,1.509,0,0,1-.281-1.01Z" transform="translate(423.582 -404.685)" fill="#fff"/>
      <path id="Path_324" data-name="Path 324" d="M-369.769,439.432h.734v2.2a1.12,1.12,0,0,0,.219.772.822.822,0,0,0,.634.238.984.984,0,0,0,.526-.129,1.034,1.034,0,0,0,.338-.336,1.356,1.356,0,0,0,.183-.468,2.726,2.726,0,0,0,.052-.537v-1.745h.734v3.526c0,.079,0,.156.009.231h-.7l-.025-.558c-.049.065-.109.134-.179.21a1.242,1.242,0,0,1-.261.205,1.628,1.628,0,0,1-.359.158,1.544,1.544,0,0,1-.463.065,1.333,1.333,0,0,1-1.091-.424,1.765,1.765,0,0,1-.351-1.159Z" transform="translate(423.02 -404.901)" fill="#fff"/>
      <path id="Path_325" data-name="Path 325" d="M-364.594,443.178v-3.522c0-.048,0-.127-.009-.234h.7l.025.606a2,2,0,0,1,.171-.214,1.308,1.308,0,0,1,.256-.214,1.635,1.635,0,0,1,.352-.165,1.4,1.4,0,0,1,.459-.069,1.407,1.407,0,0,1,.225.016,1.2,1.2,0,0,1,.191.048l-.164.679a1.053,1.053,0,0,0-.374-.057,1.068,1.068,0,0,0-.436.088,1.06,1.06,0,0,0-.346.247,1.215,1.215,0,0,0-.232.367,1.173,1.173,0,0,0-.084.444v1.979Z" transform="translate(422.283 -404.891)" fill="#fff"/>
      <path id="Path_326" data-name="Path 326" d="M-358.612,440.962a1.214,1.214,0,0,0-.309-.742,1,1,0,0,0-.782-.307,1.169,1.169,0,0,0-.468.089,1.127,1.127,0,0,0-.355.234,1.068,1.068,0,0,0-.227.335,1.081,1.081,0,0,0-.09.392Zm.66,1.656a2.424,2.424,0,0,1-.2.186,1.671,1.671,0,0,1-.338.218,2.655,2.655,0,0,1-.489.181,2.44,2.44,0,0,1-.64.077,2.149,2.149,0,0,1-.806-.146,1.771,1.771,0,0,1-.628-.412,1.835,1.835,0,0,1-.4-.638,2.28,2.28,0,0,1-.143-.824,2.131,2.131,0,0,1,.139-.771,1.826,1.826,0,0,1,.391-.622,1.852,1.852,0,0,1,.6-.417,1.862,1.862,0,0,1,.761-.154,1.766,1.766,0,0,1,.839.186,1.653,1.653,0,0,1,.574.493,2.1,2.1,0,0,1,.329.7,3.186,3.186,0,0,1,.105.823h-2.988a1.139,1.139,0,0,0,.11.461,1.171,1.171,0,0,0,.273.363,1.3,1.3,0,0,0,.39.242,1.225,1.225,0,0,0,.465.088,1.7,1.7,0,0,0,.79-.162,1.592,1.592,0,0,0,.447-.315Z" transform="translate(421.854 -404.881)" fill="#fff"/>
      <path id="Path_327" data-name="Path 327" d="M-372.964,401.73c-.4,5.377.089,10.733-.04,16.157-.024,1,.1,2.064.027,3.066-.009.118-.044.208-.225.211a2.453,2.453,0,0,0-.749,0c-.08-.718-.05-1.274-.115-1.893a37.948,37.948,0,0,1-.074-3.922c-.02-2.519-.235-5.085-.05-7.6a31.863,31.863,0,0,0,.027-3.263,23.66,23.66,0,0,1-.039-2.752,5.016,5.016,0,0,1,1.236-.008" transform="translate(423.661 -399.262)" fill="#fff"/>
      <path id="Path_328" data-name="Path 328" d="M-426.177,399.952c.443.043.638.174.673.667.051.738-.058,1.141.022,1.864.264,2.406-.3,4.845-.049,7.252.135,1.272.006,2.416.051,3.694.068,1.9-.019,4.055-.066,6.284h-5.971a5.662,5.662,0,0,1-.107-2.161,5.933,5.933,0,0,0,.05-1.025c-.013-1.4.074-2.646.063-4.046a16.025,16.025,0,0,0-.151-2.461c-.12-.718.066-1.976-.042-2.7-.135-.9-.207-6.3-.159-7.338,0,0,4.984-.1,5.686-.034" transform="translate(431.879 -398.998)" fill="#fff"/>
      <path id="Path_329" data-name="Path 329" d="M-412.507,401.434c-.343-.126-.291.275-.286.487,0,.195,0,.317-.005.579-.007.52.038,1.938.044,2.45.01.862.065,1.613.051,2.291-.028,1.277-.035,2.555.018,3.831.132,3.178-.023,6.364.073,9.523.008.274.182.35.435.414l.37.061c-.012-2.706.2-5.543.031-8.241-.072-1.125-.029-2.249-.032-3.378,0-1.082-.009-2.165.011-3.247.012-.657.005-1.313-.016-1.969a9.19,9.19,0,0,0-.2-2.6c-.134-.132-.263-.123-.489-.207" transform="translate(429.157 -399.219)" fill="#fff"/>
      <path id="Path_330" data-name="Path 330" d="M-419.451,418.464c.363-.008.292-.275.289-.49,0-.2.045-.32.05-.583.01-.524-.027-1.955-.031-2.471-.006-.868-.057-1.626-.038-2.31.035-1.288.047-2.575,0-3.862-.115-3.205.057-6.416-.022-9.6-.008-.276-.19-.29-.5-.3l-.433.02c0,2.729.028,5.632.067,8.536.016,1.137,0,2.023,0,3.16,0,1.091.021,1.962.019,3.054,0,.578-.027,1.216-.033,2.019a9.609,9.609,0,0,0,.147,2.618.516.516,0,0,0,.489.212" transform="translate(430.204 -398.836)" fill="#fff"/>
      <path id="Path_331" data-name="Path 331" d="M-410.271,420.424c-.332-.042-.377-.19-.366-.566.034-1.117-.038-3.5-.158-4.959a19.253,19.253,0,0,1,.088-3.976,20.909,20.909,0,0,0-.051-2.7c-.007-1.474.084-2.627.077-3.622,0-.612-.023-1.226-.052-1.838-.027-.571-.02-1.835-.016-1.974a2.256,2.256,0,0,1,.528-.015,1.84,1.84,0,0,1,.7.18,15.111,15.111,0,0,1,.1,2.5c0,.4-.028,2.074,0,2.475.045.668.021,1.341.026,2.012.005.855.057,1.707.056,2.562,0,1.085-.093,2.163-.118,3.247-.05,2,.2,4.574.183,6.243,0,.332.035.51-.322.51l-.67-.083" transform="translate(428.881 -399.123)" fill="#fff"/>
      <path id="Path_332" data-name="Path 332" d="M-375.276,419.376c.068-.829-.111-2.11-.114-2.777,0-.39-.045-2.006-.021-2.4.042-.647.01-1.3.01-1.948,0-.827.046-1.653.037-2.48-.011-1.05-.114-2.093-.15-3.141-.077-2.182.247-5.085.112-6.623a8.837,8.837,0,0,0-1.978-.133,23.416,23.416,0,0,0-.114,3.917c.015.962-.071,2.08-.051,3.507a30.072,30.072,0,0,1,.18,3.258,17.2,17.2,0,0,0-.06,3.849c.178,1.827.113,4.825.136,4.865Z" transform="translate(424.13 -398.99)" fill="#fff"/>
      <path id="Path_333" data-name="Path 333" d="M-368.155,419.4c.088-2.257.076-3.624.113-5.572.027-1.375-.2-3.119-.168-4.567a45.755,45.755,0,0,0-.134-6.035c-.048-.555.033-1.6.011-2.159-.014-.374-.028-.855-.043-1.228a9.439,9.439,0,0,0,3.261.095,23.379,23.379,0,0,1,6.025.014,3.743,3.743,0,0,1,.248,1.475,24.2,24.2,0,0,0-.019,2.684c.053,1.535-.236,2.892-.236,5.061,0,1.425.216,2.361.265,3.31.051.976-.12,1.794-.057,3.343.039.955.017,3.458.034,3.687,0,0-6.762.039-8.2-.132a2.758,2.758,0,0,0-1.1.024" transform="translate(422.821 -398.967)" fill="#fff"/>
      <path id="Path_334" data-name="Path 334" d="M-382.758,398.889c.037,3.371.068,7.108.235,10.154.056,1.015.027,2.288.067,3.447.018.515-.072,1.545-.113,2.23-.033.555-.019,1.11-.005,1.666a14.712,14.712,0,0,1-.024,1.847,3.6,3.6,0,0,0-1.1,0,4.547,4.547,0,0,1-.035-1.347c.071-4.045-.213-7-.146-10.726.022-1.209-.017-2.861-.113-4.066a16.871,16.871,0,0,1,.082-3.257,9.108,9.108,0,0,1,1.155.052" transform="translate(425.055 -398.835)" fill="#fff"/>
      <path id="Path_335" data-name="Path 335" d="M-369.7,399.078c.1,1.739.023,2.884.057,4.38.03,1.314.176,2.433.1,3.941-.069,1.3.065,2.6.093,3.908q.041,1.9.066,3.8c.022.982.045,1.871.046,2.855,0,.164-.02.516-.018.681a2.914,2.914,0,0,0-.689-.036,6.655,6.655,0,0,1-1.772-.072c-.212-.048-.034-3.476-.027-3.791q.033-1.932.021-3.864c-.005-1.3-.129-2.686-.154-3.988-.025-1.318.048-2.553.013-3.87s-.075-2.459-.109-3.788c-.008-.271.249-.412.681-.3.574.157,1.176-.031,1.7.135" transform="translate(423.35 -398.844)" fill="#fff"/>
      <path id="Path_336" data-name="Path 336" d="M-422.057,401.017a.867.867,0,0,1,.7.874c.011.637,0,1.2-.016,1.755-.017.619-.036,1.224-.028,1.9.034,2.751.154,5.378.03,8.227-.105,2.413.119,4.768.093,6.98-.741-.042-1.618-.108-2.334-.141.2-4.083.073-7.948.026-12.2-.027-2.39.369-4.254.033-7.437a6.208,6.208,0,0,1,1.492.042" transform="translate(430.699 -399.15)" fill="#fff"/>
      <path id="Path_337" data-name="Path 337" d="M-406.75,406.644a9.091,9.091,0,0,1,1.579-.762,2.971,2.971,0,0,0-2.57.223c-.712.449-.474,1.689-.566,2.484a5.1,5.1,0,0,1,1.556-1.944m-1.292,10.965c-.036.794.012,1.435.027,2.36a13.527,13.527,0,0,1,2.041.064c.755.046,1.555-.036,2.312.065a7.042,7.042,0,0,0-4.38-2.489m3.887-5.971a13.025,13.025,0,0,0-.274,1.295c-.021.179-.17,1.173-.17,1.173a.363.363,0,0,1-.134-.183,6.278,6.278,0,0,1-.326-2.371c.141-2.279.959-2.884.963-2.878-.368-.208-1.109.65-1.5,1.191-.52.724-.43,1.221-.5,2.344-.278-.055-.554-.516-.572-.856a5.083,5.083,0,0,1,1.554-4.063,4.175,4.175,0,0,0-1.18.2,2.976,2.976,0,0,0-1.553,1.454c-.726,1.4-.263,3.075-.364,4.608-.058.884.072,1.754.063,2.64-.007.668-.177.793.5.853a6.542,6.542,0,0,1,.793.121,7.534,7.534,0,0,1,3.97,2.211c.178-2.046.2-3.931.2-5.986,0-.811.135-2.55-.411-3.244s-.936,1.027-1.065,1.49m16.077-1.674c-.051-1.455-.04-4.2.07-5.664.124-1.625-.281-4.084-1.187-4.031a24.194,24.194,0,0,0-2.444.085c-.635.031-1.445.035-2.079.088a19.326,19.326,0,0,1-2.3-.047c-1.361,0-2.535.11-3.9.111-1.317,0-2.785-.033-4.1-.132a38.984,38.984,0,0,0-3.945-.238c-.184.005-.291.831-.327,1.842-.035.975-.1,3.085-.018,4.1a2.951,2.951,0,0,1,2.092-1.081,7.993,7.993,0,0,1,1.922.011,4.738,4.738,0,0,0-.815-.755,1.674,1.674,0,0,0-.754-.4c-.348-.05-.71-.017-1.061-.036a1.935,1.935,0,0,1,1.8-.633c.593.082,1.588,1.1,1.946.825.4-.31.242-1.529.769-1.661.43-.108.714,1.516.92,1.874a3.019,3.019,0,0,1,1.982-1.139c.406-.047,1.657.1,1.826.694a2.69,2.69,0,0,0-2.583,1.132,3.981,3.981,0,0,1,4.013.538,3.78,3.78,0,0,1,.767.82,1.078,1.078,0,0,1,.274.868c-.521-.1-1-.991-1.9-1.265a3.969,3.969,0,0,0-2.315.042c1.71.275,4.072,2.532,3.256,4.381-.264.6-.337.2-.43-.3a2.852,2.852,0,0,0-.566-1.325,7.1,7.1,0,0,0-.826-.932,2.939,2.939,0,0,0-1.506-.606c1.1.307,1.809,2.481,1.9,2.713a5.123,5.123,0,0,1,.241,1.807c.009.345.037,1.544-.4,1.659a6.142,6.142,0,0,0-2-4.565,5.627,5.627,0,0,1,.521,3.141,3.939,3.939,0,0,1-.389,1.6c-.057.117-.276.651-.363.669-.276.062-.129-1.625-.172-1.922-.051-.368-.721-2.861-1.424-2.249-.358.311-.176,1.712-.131,2.336.053.766.147,1.883.16,2.651a35.027,35.027,0,0,0,.28,4.308c1.841-.983,9.944-5.1,11.1-1.7,0,.108-.063.031-.063.031h0c-.792-1.176-2.954-.57-4.035-.24a27.83,27.83,0,0,0-5.51,2.508c2.866.007,7.283,0,10.556,0a1.326,1.326,0,0,0,1.332-1.366c-.019-.549-.034-1.206-.034-1.921,0-.8.042-1.671.064-2.47.044-1.6-.167-2.547-.224-4.145" transform="translate(428.521 -399.028)" fill="#fff"/>
      <path id="Path_338" data-name="Path 338" d="M-379.272,400.675a.218.218,0,0,1,.189.21c.054,2.212.1,4.2.246,6.489a19.329,19.329,0,0,1-.029,3.31c-.176,1.4.185,2.537.085,3.946-.132,1.858.145,3.384.039,5.243l-2.327.05c-.192.007-.366-.174-.339-.618s-.011-2.359-.011-3.8a39.661,39.661,0,0,0,.032-4.372c-.079-.788.11-1.628.063-2.42-.083-1.434-.129-2.687-.159-4.124-.018-.848,0-2.152-.025-2.985-.02-.581.109-1.008.431-1.152.37-.165,1.385.161,1.8.217" transform="translate(424.695 -399.07)" fill="#fff"/>
      <path id="Path_339" data-name="Path 339" d="M-418.089,417.46c-.023.537-.034.721-.034.923,0,.135.121.158.23.219.074.039.7.17.9.214a3.088,3.088,0,0,0,.613.062c.6-.009,1.2.2,1.8.141a.149.149,0,0,0,.056-.019.519.519,0,0,0,.264-.444c.07-.508-.07-.951.008-1.876s.009-3.43.015-4.033c.038-4.564-.224-4.639-.107-8.161a16.622,16.622,0,0,0-.128-2.956,8.443,8.443,0,0,1-.116-1.819.348.348,0,0,0-.323-.415c-1-.051-3.091.107-3.091.107a5.087,5.087,0,0,0-.107,1.515c.021.431-.063,1.14-.063,1.571,0,.487-.033.971-.011,1.455.06,1.3.1,2.606.055,3.909-.1,3.3.191,5.215.063,8.459Z" transform="translate(429.926 -398.902)" fill="#fff"/>
    </g>
  </g>
</svg>
