<svg xmlns="http://www.w3.org/2000/svg" width="72" height="72" viewBox="0 0 72 72">
  <g id="QR_Code" data-name="QR Code" transform="translate(11784 15502.307)">
    <g id="Group_2315" data-name="Group 2315" transform="translate(-11784 -15502.307)">
      <path id="Path_12186" data-name="Path 12186" d="M22.849-165.655h2.919v17.514H22.849Z" transform="translate(-22.849 165.655)" fill="#fff"/>
      <path id="Path_12187" data-name="Path 12187" d="M22.849-131.382h2.919v2.919H22.849Z" transform="translate(-22.849 148.652)" fill="#fff"/>
      <path id="Path_12188" data-name="Path 12188" d="M22.849-119.957h2.919v2.919H22.849Z" transform="translate(-22.849 142.984)" fill="#fff"/>
      <path id="Path_12189" data-name="Path 12189" d="M22.849-91.4h2.919V-79.72H22.849Z" transform="translate(-22.849 128.739)" fill="#fff"/>
      <path id="Path_12190" data-name="Path 12190" d="M22.849-62.835h2.919V-57H22.849Z" transform="translate(-22.849 114.614)" fill="#fff"/>
      <path id="Path_12191" data-name="Path 12191" d="M22.849-51.41h2.919v8.757H22.849Z" transform="translate(-22.849 108.815)" fill="#fff"/>
      <path id="Path_12192" data-name="Path 12192" d="M22.849-34.273h2.919v5.838H22.849Z" transform="translate(-22.849 100.435)" fill="#fff"/>
      <path id="Path_12193" data-name="Path 12193" d="M28.561-165.655H31.48v2.919H28.561Z" transform="translate(-25.642 165.655)" fill="#fff"/>
      <path id="Path_12194" data-name="Path 12194" d="M28.561-131.382H31.48v2.919H28.561Z" transform="translate(-25.642 148.652)" fill="#fff"/>
      <path id="Path_12195" data-name="Path 12195" d="M28.561-102.82H31.48V-99.9H28.561Z" transform="translate(-25.642 134.482)" fill="#fff"/>
      <path id="Path_12196" data-name="Path 12196" d="M28.561-85.684H31.48v2.919H28.561Z" transform="translate(-25.642 125.981)" fill="#fff"/>
      <path id="Path_12197" data-name="Path 12197" d="M28.561-62.835H31.48v2.919H28.561Z" transform="translate(-25.642 114.645)" fill="#fff"/>
      <path id="Path_12198" data-name="Path 12198" d="M28.561-28.561H31.48v2.919H28.561Z" transform="translate(-25.642 97.642)" fill="#fff"/>
      <path id="Path_12199" data-name="Path 12199" d="M34.273-165.655h2.919v2.919H34.273Z" transform="translate(-28.435 165.655)" fill="#fff"/>
      <path id="Path_12200" data-name="Path 12200" d="M34.273-154.231h2.919v8.757H34.273Z" transform="translate(-28.435 160.069)" fill="#fff"/>
      <path id="Path_12201" data-name="Path 12201" d="M34.273-131.382h2.919v2.919H34.273Z" transform="translate(-28.435 148.652)" fill="#fff"/>
      <path id="Path_12202" data-name="Path 12202" d="M34.273-114.245h2.919v5.838H34.273Z" transform="translate(-28.435 140.134)" fill="#fff"/>
      <path id="Path_12203" data-name="Path 12203" d="M34.273-97.108h2.919v2.919H34.273Z" transform="translate(-28.435 131.648)" fill="#fff"/>
      <path id="Path_12204" data-name="Path 12204" d="M34.273-79.971h2.919v5.838H34.273Z" transform="translate(-28.435 123.12)" fill="#fff"/>
      <path id="Path_12205" data-name="Path 12205" d="M34.273-62.835h2.919v2.919H34.273Z" transform="translate(-28.435 114.645)" fill="#fff"/>
      <path id="Path_12206" data-name="Path 12206" d="M34.273-51.41h2.919v8.757H34.273Z" transform="translate(-28.435 108.815)" fill="#fff"/>
      <path id="Path_12207" data-name="Path 12207" d="M34.273-28.561h2.919v2.919H34.273Z" transform="translate(-28.435 97.642)" fill="#fff"/>
      <path id="Path_12208" data-name="Path 12208" d="M39.986-165.655H42.9v2.919H39.986Z" transform="translate(-31.229 165.655)" fill="#fff"/>
      <path id="Path_12209" data-name="Path 12209" d="M39.986-154.231H42.9v8.757H39.986Z" transform="translate(-31.229 160.069)" fill="#fff"/>
      <path id="Path_12210" data-name="Path 12210" d="M39.986-131.382H42.9v2.919H39.986Z" transform="translate(-31.229 148.652)" fill="#fff"/>
      <path id="Path_12211" data-name="Path 12211" d="M39.986-119.957H42.9v5.838H39.986Z" transform="translate(-31.229 142.97)" fill="#fff"/>
      <path id="Path_12212" data-name="Path 12212" d="M39.986-102.82H42.9V-99.9H39.986Z" transform="translate(-31.229 134.482)" fill="#fff"/>
      <path id="Path_12213" data-name="Path 12213" d="M39.986-79.971H42.9v2.919H39.986Z" transform="translate(-31.229 123.147)" fill="#fff"/>
      <path id="Path_12214" data-name="Path 12214" d="M39.986-62.835H42.9v2.919H39.986Z" transform="translate(-31.229 114.645)" fill="#fff"/>
      <path id="Path_12215" data-name="Path 12215" d="M39.986-51.41H42.9v8.757H39.986Z" transform="translate(-31.229 108.815)" fill="#fff"/>
      <path id="Path_12216" data-name="Path 12216" d="M39.986-28.561H42.9v2.919H39.986Z" transform="translate(-31.229 97.642)" fill="#fff"/>
      <path id="Path_12217" data-name="Path 12217" d="M45.7-165.655h2.919v2.919H45.7Z" transform="translate(-34.022 165.655)" fill="#fff"/>
      <path id="Path_12218" data-name="Path 12218" d="M45.7-154.231h2.919v8.757H45.7Z" transform="translate(-34.022 160.069)" fill="#fff"/>
      <path id="Path_12219" data-name="Path 12219" d="M45.7-131.382h2.919v2.919H45.7Z" transform="translate(-34.022 148.652)" fill="#fff"/>
      <path id="Path_12220" data-name="Path 12220" d="M45.7-119.957h2.919v5.838H45.7Z" transform="translate(-34.022 142.97)" fill="#fff"/>
      <path id="Path_12221" data-name="Path 12221" d="M45.7-102.82h2.919v5.838H45.7Z" transform="translate(-34.022 134.463)" fill="#fff"/>
      <path id="Path_12222" data-name="Path 12222" d="M45.7-79.971h2.919v5.838H45.7Z" transform="translate(-34.022 123.12)" fill="#fff"/>
      <path id="Path_12223" data-name="Path 12223" d="M45.7-62.835h2.919v2.919H45.7Z" transform="translate(-34.022 114.645)" fill="#fff"/>
      <path id="Path_12224" data-name="Path 12224" d="M45.7-51.41h2.919v8.757H45.7Z" transform="translate(-34.022 108.815)" fill="#fff"/>
      <path id="Path_12225" data-name="Path 12225" d="M45.7-28.561h2.919v2.919H45.7Z" transform="translate(-34.022 97.642)" fill="#fff"/>
      <path id="Path_12226" data-name="Path 12226" d="M51.41-165.655h2.919v2.919H51.41Z" transform="translate(-37.018 165.655)" fill="#fff"/>
      <path id="Path_12227" data-name="Path 12227" d="M51.41-131.382h2.919v2.919H51.41Z" transform="translate(-37.018 148.652)" fill="#fff"/>
      <path id="Path_12228" data-name="Path 12228" d="M51.41-119.957h2.919v2.919H51.41Z" transform="translate(-37.018 142.984)" fill="#fff"/>
      <path id="Path_12229" data-name="Path 12229" d="M51.41-108.533h2.919v2.919H51.41Z" transform="translate(-37.018 137.316)" fill="#fff"/>
      <path id="Path_12230" data-name="Path 12230" d="M51.41-102.82h2.919V-99.9H51.41Z" transform="translate(-37.018 134.482)" fill="#fff"/>
      <path id="Path_12231" data-name="Path 12231" d="M51.41-85.684h2.919v5.838H51.41Z" transform="translate(-37.018 125.956)" fill="#fff"/>
      <path id="Path_12232" data-name="Path 12232" d="M51.41-62.835h2.919v2.919H51.41Z" transform="translate(-37.018 114.645)" fill="#fff"/>
      <path id="Path_12233" data-name="Path 12233" d="M51.41-28.561h2.919v2.919H51.41Z" transform="translate(-37.018 97.642)" fill="#fff"/>
      <path id="Path_12234" data-name="Path 12234" d="M57.122-165.655h2.919v17.514H57.122Z" transform="translate(-39.852 165.655)" fill="#fff"/>
      <path id="Path_12235" data-name="Path 12235" d="M57.122-131.382h2.919v2.919H57.122Z" transform="translate(-39.852 148.652)" fill="#fff"/>
      <path id="Path_12236" data-name="Path 12236" d="M57.122-119.957h2.919v2.919H57.122Z" transform="translate(-39.852 142.984)" fill="#fff"/>
      <path id="Path_12237" data-name="Path 12237" d="M57.122-108.533h2.919v2.919H57.122Z" transform="translate(-39.852 137.316)" fill="#fff"/>
      <path id="Path_12238" data-name="Path 12238" d="M57.122-97.108h2.919v2.919H57.122Z" transform="translate(-39.852 131.648)" fill="#fff"/>
      <path id="Path_12239" data-name="Path 12239" d="M57.122-85.684h2.919v2.919H57.122Z" transform="translate(-39.852 125.981)" fill="#fff"/>
      <path id="Path_12240" data-name="Path 12240" d="M57.122-74.259h2.919v2.919H57.122Z" transform="translate(-39.852 120.313)" fill="#fff"/>
      <path id="Path_12241" data-name="Path 12241" d="M57.122-62.835h2.919V-57H57.122Z" transform="translate(-39.852 114.614)" fill="#fff"/>
      <path id="Path_12242" data-name="Path 12242" d="M57.122-51.41h2.919v8.757H57.122Z" transform="translate(-39.852 108.815)" fill="#fff"/>
      <path id="Path_12243" data-name="Path 12243" d="M57.122-34.273h2.919v5.838H57.122Z" transform="translate(-39.852 100.435)" fill="#fff"/>
      <path id="Path_12244" data-name="Path 12244" d="M62.835-119.957h2.919v2.919H62.835Z" transform="translate(-42.686 142.984)" fill="#fff"/>
      <path id="Path_12245" data-name="Path 12245" d="M62.835-102.82h2.919V-99.9H62.835Z" transform="translate(-42.686 134.482)" fill="#fff"/>
      <path id="Path_12246" data-name="Path 12246" d="M62.835-85.684h2.919v8.757H62.835Z" transform="translate(-42.686 125.929)" fill="#fff"/>
      <path id="Path_12247" data-name="Path 12247" d="M68.547-165.655h2.919v8.757H68.547Z" transform="translate(-45.52 165.655)" fill="#fff"/>
      <path id="Path_12248" data-name="Path 12248" d="M68.547-142.806h2.919v2.919H68.547Z" transform="translate(-45.52 154.482)" fill="#fff"/>
      <path id="Path_12249" data-name="Path 12249" d="M68.547-131.382h2.919v2.919H68.547Z" transform="translate(-45.52 148.652)" fill="#fff"/>
      <path id="Path_12250" data-name="Path 12250" d="M68.547-119.957h2.919v5.838H68.547Z" transform="translate(-45.52 142.97)" fill="#fff"/>
      <path id="Path_12251" data-name="Path 12251" d="M68.547-97.108h2.919v5.838H68.547Z" transform="translate(-45.52 131.627)" fill="#fff"/>
      <path id="Path_12252" data-name="Path 12252" d="M68.547-74.259h2.919v2.919H68.547Z" transform="translate(-45.52 120.313)" fill="#fff"/>
      <path id="Path_12253" data-name="Path 12253" d="M68.547-68.547h2.919v8.757H68.547Z" transform="translate(-45.52 117.416)" fill="#fff"/>
      <path id="Path_12254" data-name="Path 12254" d="M68.547-51.41h2.919v5.838H68.547Z" transform="translate(-45.52 108.815)" fill="#fff"/>
      <path id="Path_12255" data-name="Path 12255" d="M68.547-28.561h2.919v2.919H68.547Z" transform="translate(-45.52 97.642)" fill="#fff"/>
      <path id="Path_12256" data-name="Path 12256" d="M74.259-159.943h2.919v2.919H74.259Z" transform="translate(-48.354 162.862)" fill="#fff"/>
      <path id="Path_12257" data-name="Path 12257" d="M74.259-142.806h2.919v2.919H74.259Z" transform="translate(-48.354 154.482)" fill="#fff"/>
      <path id="Path_12258" data-name="Path 12258" d="M74.259-102.82h2.919v17.514H74.259Z" transform="translate(-48.354 134.364)" fill="#fff"/>
      <path id="Path_12259" data-name="Path 12259" d="M74.259-57.122h2.919V-54.2H74.259Z" transform="translate(-48.354 111.811)" fill="#fff"/>
      <path id="Path_12260" data-name="Path 12260" d="M74.259-45.7h2.919v5.838H74.259Z" transform="translate(-48.354 106.022)" fill="#fff"/>
      <path id="Path_12261" data-name="Path 12261" d="M74.259-34.273h2.919v5.838H74.259Z" transform="translate(-48.354 100.435)" fill="#fff"/>
      <path id="Path_12262" data-name="Path 12262" d="M79.971-165.655H82.89v2.919H79.971Z" transform="translate(-51.188 165.655)" fill="#fff"/>
      <path id="Path_12263" data-name="Path 12263" d="M79.971-137.094H82.89v2.919H79.971Z" transform="translate(-51.188 151.486)" fill="#fff"/>
      <path id="Path_12264" data-name="Path 12264" d="M79.971-131.382H82.89v5.838H79.971Z" transform="translate(-51.188 148.641)" fill="#fff"/>
      <path id="Path_12265" data-name="Path 12265" d="M79.971-102.82H82.89V-99.9H79.971Z" transform="translate(-51.188 134.482)" fill="#fff"/>
      <path id="Path_12266" data-name="Path 12266" d="M79.971-85.684H82.89v2.919H79.971Z" transform="translate(-51.188 125.981)" fill="#fff"/>
      <path id="Path_12267" data-name="Path 12267" d="M79.971-45.7H82.89v2.919H79.971Z" transform="translate(-51.188 106.022)" fill="#fff"/>
      <path id="Path_12268" data-name="Path 12268" d="M85.684-154.231H88.6v2.919H85.684Z" transform="translate(-54.022 160.069)" fill="#fff"/>
      <path id="Path_12269" data-name="Path 12269" d="M85.684-142.806H88.6v5.838H85.684Z" transform="translate(-54.022 154.312)" fill="#fff"/>
      <path id="Path_12270" data-name="Path 12270" d="M85.684-125.669H88.6v5.838H85.684Z" transform="translate(-54.022 145.805)" fill="#fff"/>
      <path id="Path_12271" data-name="Path 12271" d="M85.684-102.82H88.6V-99.9H85.684Z" transform="translate(-54.022 134.482)" fill="#fff"/>
      <path id="Path_12272" data-name="Path 12272" d="M85.684-85.684H88.6v5.838H85.684Z" transform="translate(-54.022 125.956)" fill="#fff"/>
      <path id="Path_12273" data-name="Path 12273" d="M85.684-68.547H88.6v8.757H85.684Z" transform="translate(-54.022 117.416)" fill="#fff"/>
      <path id="Path_12274" data-name="Path 12274" d="M85.684-51.41H88.6v8.757H85.684Z" transform="translate(-54.022 108.815)" fill="#fff"/>
      <path id="Path_12275" data-name="Path 12275" d="M85.684-34.273H88.6v5.838H85.684Z" transform="translate(-54.022 100.435)" fill="#fff"/>
      <path id="Path_12276" data-name="Path 12276" d="M91.4-159.943h2.919v8.757H91.4Z" transform="translate(-56.856 162.862)" fill="#fff"/>
      <path id="Path_12277" data-name="Path 12277" d="M91.4-137.094h2.919v2.919H91.4Z" transform="translate(-56.856 151.486)" fill="#fff"/>
      <path id="Path_12278" data-name="Path 12278" d="M91.4-131.382h2.919v2.919H91.4Z" transform="translate(-56.856 148.652)" fill="#fff"/>
      <path id="Path_12279" data-name="Path 12279" d="M91.4-119.957h2.919v5.838H91.4Z" transform="translate(-56.856 142.97)" fill="#fff"/>
      <path id="Path_12280" data-name="Path 12280" d="M91.4-102.82h2.919v5.838H91.4Z" transform="translate(-56.856 134.463)" fill="#fff"/>
      <path id="Path_12281" data-name="Path 12281" d="M91.4-85.684h2.919v2.919H91.4Z" transform="translate(-56.856 125.981)" fill="#fff"/>
      <path id="Path_12282" data-name="Path 12282" d="M91.4-74.259h2.919v2.919H91.4Z" transform="translate(-56.856 120.313)" fill="#fff"/>
      <path id="Path_12283" data-name="Path 12283" d="M91.4-68.547h2.919v5.838H91.4Z" transform="translate(-56.856 117.449)" fill="#fff"/>
      <path id="Path_12284" data-name="Path 12284" d="M91.4-51.41h2.919v2.919H91.4Z" transform="translate(-56.856 108.815)" fill="#fff"/>
      <path id="Path_12285" data-name="Path 12285" d="M91.4-28.561h2.919v2.919H91.4Z" transform="translate(-56.856 97.642)" fill="#fff"/>
      <path id="Path_12286" data-name="Path 12286" d="M97.108-154.231h2.919v5.838H97.108Z" transform="translate(-59.689 160.069)" fill="#fff"/>
      <path id="Path_12287" data-name="Path 12287" d="M97.108-137.094h2.919v2.919H97.108Z" transform="translate(-59.689 151.486)" fill="#fff"/>
      <path id="Path_12288" data-name="Path 12288" d="M97.108-125.669h2.919v2.919H97.108Z" transform="translate(-59.689 145.818)" fill="#fff"/>
      <path id="Path_12289" data-name="Path 12289" d="M97.108-114.245h2.919v5.838H97.108Z" transform="translate(-59.689 140.134)" fill="#fff"/>
      <path id="Path_12290" data-name="Path 12290" d="M97.108-91.4h2.919v2.919H97.108Z" transform="translate(-59.689 128.815)" fill="#fff"/>
      <path id="Path_12291" data-name="Path 12291" d="M97.108-74.259h2.919v2.919H97.108Z" transform="translate(-59.689 120.313)" fill="#fff"/>
      <path id="Path_12292" data-name="Path 12292" d="M97.108-62.835h2.919V-57H97.108Z" transform="translate(-59.689 114.614)" fill="#fff"/>
      <path id="Path_12293" data-name="Path 12293" d="M97.108-45.7h2.919v5.838H97.108Z" transform="translate(-59.689 106.022)" fill="#fff"/>
      <path id="Path_12294" data-name="Path 12294" d="M102.82-165.655h2.919v2.919H102.82Z" transform="translate(-62.523 165.655)" fill="#fff"/>
      <path id="Path_12295" data-name="Path 12295" d="M102.82-154.231h2.919v2.919H102.82Z" transform="translate(-62.523 160.069)" fill="#fff"/>
      <path id="Path_12296" data-name="Path 12296" d="M102.82-137.094h2.919v2.919H102.82Z" transform="translate(-62.523 151.486)" fill="#fff"/>
      <path id="Path_12297" data-name="Path 12297" d="M102.82-131.382h2.919v5.838H102.82Z" transform="translate(-62.523 148.641)" fill="#fff"/>
      <path id="Path_12298" data-name="Path 12298" d="M102.82-114.245h2.919v2.919H102.82Z" transform="translate(-62.523 140.15)" fill="#fff"/>
      <path id="Path_12299" data-name="Path 12299" d="M102.82-62.835h2.919v2.919H102.82Z" transform="translate(-62.523 114.645)" fill="#fff"/>
      <path id="Path_12300" data-name="Path 12300" d="M102.82-45.7h2.919v2.919H102.82Z" transform="translate(-62.523 106.022)" fill="#fff"/>
      <path id="Path_12301" data-name="Path 12301" d="M102.82-34.273h2.919v2.919H102.82Z" transform="translate(-62.523 100.435)" fill="#fff"/>
      <path id="Path_12302" data-name="Path 12302" d="M108.533-125.669h2.919v2.919h-2.919Z" transform="translate(-65.357 145.818)" fill="#fff"/>
      <path id="Path_12303" data-name="Path 12303" d="M108.533-114.245h2.919v5.838h-2.919Z" transform="translate(-65.357 140.134)" fill="#fff"/>
      <path id="Path_12304" data-name="Path 12304" d="M108.533-102.82h2.919v14.595h-2.919Z" transform="translate(-65.357 134.393)" fill="#fff"/>
      <path id="Path_12305" data-name="Path 12305" d="M108.533-57.122h2.919V-54.2h-2.919Z" transform="translate(-65.357 111.811)" fill="#fff"/>
      <path id="Path_12306" data-name="Path 12306" d="M108.533-51.41h2.919v5.838h-2.919Z" transform="translate(-65.357 108.815)" fill="#fff"/>
      <path id="Path_12307" data-name="Path 12307" d="M114.245-159.943h2.919v2.919h-2.919Z" transform="translate(-68.191 162.862)" fill="#fff"/>
      <path id="Path_12308" data-name="Path 12308" d="M114.245-148.518h2.919v8.757h-2.919Z" transform="translate(-68.191 157.275)" fill="#fff"/>
      <path id="Path_12309" data-name="Path 12309" d="M114.245-131.382h2.919v14.595h-2.919Z" transform="translate(-68.191 148.603)" fill="#fff"/>
      <path id="Path_12310" data-name="Path 12310" d="M114.245-102.82h2.919v8.757h-2.919Z" transform="translate(-68.191 134.441)" fill="#fff"/>
      <path id="Path_12311" data-name="Path 12311" d="M114.245-74.259h2.919v2.919h-2.919Z" transform="translate(-68.191 120.313)" fill="#fff"/>
      <path id="Path_12312" data-name="Path 12312" d="M114.245-68.547h2.919v8.757h-2.919Z" transform="translate(-68.191 117.416)" fill="#fff"/>
      <path id="Path_12313" data-name="Path 12313" d="M114.245-51.41h2.919v8.757h-2.919Z" transform="translate(-68.191 108.815)" fill="#fff"/>
      <path id="Path_12314" data-name="Path 12314" d="M114.245-28.561h2.919v2.919h-2.919Z" transform="translate(-68.191 97.642)" fill="#fff"/>
      <path id="Path_12315" data-name="Path 12315" d="M119.957-119.957h2.919v5.838h-2.919Z" transform="translate(-71.025 142.97)" fill="#fff"/>
      <path id="Path_12316" data-name="Path 12316" d="M119.957-91.4h2.919V-79.72h-2.919Z" transform="translate(-71.025 128.739)" fill="#fff"/>
      <path id="Path_12317" data-name="Path 12317" d="M119.957-51.41h2.919v2.919h-2.919Z" transform="translate(-71.025 108.815)" fill="#fff"/>
      <path id="Path_12318" data-name="Path 12318" d="M119.957-39.986h2.919v2.919h-2.919Z" transform="translate(-71.025 103.228)" fill="#fff"/>
      <path id="Path_12319" data-name="Path 12319" d="M119.957-28.561h2.919v2.919h-2.919Z" transform="translate(-71.025 97.642)" fill="#fff"/>
      <path id="Path_12320" data-name="Path 12320" d="M125.669-165.655h2.919v17.514h-2.919Z" transform="translate(-73.859 165.655)" fill="#fff"/>
      <path id="Path_12321" data-name="Path 12321" d="M125.669-131.382h2.919v2.919h-2.919Z" transform="translate(-73.859 148.652)" fill="#fff"/>
      <path id="Path_12322" data-name="Path 12322" d="M125.669-108.533h2.919v2.919h-2.919Z" transform="translate(-73.859 137.316)" fill="#fff"/>
      <path id="Path_12323" data-name="Path 12323" d="M125.669-97.108h2.919v2.919h-2.919Z" transform="translate(-73.859 131.648)" fill="#fff"/>
      <path id="Path_12324" data-name="Path 12324" d="M125.669-85.684h2.919v2.919h-2.919Z" transform="translate(-73.859 125.981)" fill="#fff"/>
      <path id="Path_12325" data-name="Path 12325" d="M125.669-74.259h2.919v2.919h-2.919Z" transform="translate(-73.859 120.313)" fill="#fff"/>
      <path id="Path_12326" data-name="Path 12326" d="M125.669-62.835h2.919v2.919h-2.919Z" transform="translate(-73.859 114.645)" fill="#fff"/>
      <path id="Path_12327" data-name="Path 12327" d="M125.669-51.41h2.919v5.838h-2.919Z" transform="translate(-73.859 108.815)" fill="#fff"/>
      <path id="Path_12328" data-name="Path 12328" d="M131.382-165.655H134.3v2.919h-2.919Z" transform="translate(-76.693 165.655)" fill="#fff"/>
      <path id="Path_12329" data-name="Path 12329" d="M131.382-131.382H134.3v2.919h-2.919Z" transform="translate(-76.693 148.652)" fill="#fff"/>
      <path id="Path_12330" data-name="Path 12330" d="M131.382-114.245H134.3v5.838h-2.919Z" transform="translate(-76.693 140.134)" fill="#fff"/>
      <path id="Path_12331" data-name="Path 12331" d="M131.382-102.82H134.3V-99.9h-2.919Z" transform="translate(-76.693 134.482)" fill="#fff"/>
      <path id="Path_12332" data-name="Path 12332" d="M131.382-79.971H134.3v5.838h-2.919Z" transform="translate(-76.693 123.12)" fill="#fff"/>
      <path id="Path_12333" data-name="Path 12333" d="M131.382-51.41H134.3v2.919h-2.919Z" transform="translate(-76.693 108.815)" fill="#fff"/>
      <path id="Path_12334" data-name="Path 12334" d="M131.382-34.273H134.3v2.919h-2.919Z" transform="translate(-76.693 100.435)" fill="#fff"/>
      <path id="Path_12335" data-name="Path 12335" d="M137.094-165.655h2.919v2.919h-2.919Z" transform="translate(-79.689 165.655)" fill="#fff"/>
      <path id="Path_12336" data-name="Path 12336" d="M137.094-154.231h2.919v8.757h-2.919Z" transform="translate(-79.689 160.069)" fill="#fff"/>
      <path id="Path_12337" data-name="Path 12337" d="M137.094-131.382h2.919v2.919h-2.919Z" transform="translate(-79.689 148.652)" fill="#fff"/>
      <path id="Path_12338" data-name="Path 12338" d="M137.094-119.957h2.919v5.838h-2.919Z" transform="translate(-79.689 142.97)" fill="#fff"/>
      <path id="Path_12339" data-name="Path 12339" d="M137.094-91.4h2.919v5.838h-2.919Z" transform="translate(-79.689 128.792)" fill="#fff"/>
      <path id="Path_12340" data-name="Path 12340" d="M137.094-74.259h2.919v2.919h-2.919Z" transform="translate(-79.689 120.313)" fill="#fff"/>
      <path id="Path_12341" data-name="Path 12341" d="M137.094-68.547h2.919v8.757h-2.919Z" transform="translate(-79.689 117.416)" fill="#fff"/>
      <path id="Path_12342" data-name="Path 12342" d="M137.094-51.41h2.919v2.919h-2.919Z" transform="translate(-79.689 108.815)" fill="#fff"/>
      <path id="Path_12343" data-name="Path 12343" d="M137.094-39.986h2.919v2.919h-2.919Z" transform="translate(-79.689 103.228)" fill="#fff"/>
      <path id="Path_12344" data-name="Path 12344" d="M137.094-34.273h2.919v2.919h-2.919Z" transform="translate(-79.689 100.435)" fill="#fff"/>
      <path id="Path_12345" data-name="Path 12345" d="M142.806-165.655h2.919v2.919h-2.919Z" transform="translate(-82.482 165.655)" fill="#fff"/>
      <path id="Path_12346" data-name="Path 12346" d="M142.806-154.231h2.919v8.757h-2.919Z" transform="translate(-82.482 160.069)" fill="#fff"/>
      <path id="Path_12347" data-name="Path 12347" d="M142.806-131.382h2.919v2.919h-2.919Z" transform="translate(-82.482 148.652)" fill="#fff"/>
      <path id="Path_12348" data-name="Path 12348" d="M142.806-114.245h2.919v5.838h-2.919Z" transform="translate(-82.482 140.134)" fill="#fff"/>
      <path id="Path_12349" data-name="Path 12349" d="M142.806-102.82h2.919V-99.9h-2.919Z" transform="translate(-82.482 134.482)" fill="#fff"/>
      <path id="Path_12350" data-name="Path 12350" d="M142.806-85.684h2.919v5.838h-2.919Z" transform="translate(-82.482 125.956)" fill="#fff"/>
      <path id="Path_12351" data-name="Path 12351" d="M142.806-39.986h2.919v2.919h-2.919Z" transform="translate(-82.482 103.228)" fill="#fff"/>
      <path id="Path_12352" data-name="Path 12352" d="M142.806-28.561h2.919v2.919h-2.919Z" transform="translate(-82.482 97.642)" fill="#fff"/>
      <path id="Path_12353" data-name="Path 12353" d="M148.518-165.655h2.919v2.919h-2.919Z" transform="translate(-85.275 165.655)" fill="#fff"/>
      <path id="Path_12354" data-name="Path 12354" d="M148.518-154.231h2.919v8.757h-2.919Z" transform="translate(-85.275 160.069)" fill="#fff"/>
      <path id="Path_12355" data-name="Path 12355" d="M148.518-131.382h2.919v2.919h-2.919Z" transform="translate(-85.275 148.652)" fill="#fff"/>
      <path id="Path_12356" data-name="Path 12356" d="M148.518-119.957h2.919v5.838h-2.919Z" transform="translate(-85.275 142.97)" fill="#fff"/>
      <path id="Path_12357" data-name="Path 12357" d="M148.518-102.82h2.919V-99.9h-2.919Z" transform="translate(-85.275 134.482)" fill="#fff"/>
      <path id="Path_12358" data-name="Path 12358" d="M148.518-85.684h2.919v8.757h-2.919Z" transform="translate(-85.275 125.929)" fill="#fff"/>
      <path id="Path_12359" data-name="Path 12359" d="M148.518-68.547h2.919v2.919h-2.919Z" transform="translate(-85.275 117.479)" fill="#fff"/>
      <path id="Path_12360" data-name="Path 12360" d="M148.518-39.986h2.919v2.919h-2.919Z" transform="translate(-85.275 103.228)" fill="#fff"/>
      <path id="Path_12361" data-name="Path 12361" d="M148.518-34.273h2.919v2.919h-2.919Z" transform="translate(-85.275 100.435)" fill="#fff"/>
      <path id="Path_12362" data-name="Path 12362" d="M154.23-165.655h2.919v2.919H154.23Z" transform="translate(-88.069 165.655)" fill="#fff"/>
      <path id="Path_12363" data-name="Path 12363" d="M154.23-131.382h2.919v2.919H154.23Z" transform="translate(-88.069 148.652)" fill="#fff"/>
      <path id="Path_12364" data-name="Path 12364" d="M154.23-119.957h2.919v5.838H154.23Z" transform="translate(-88.069 142.97)" fill="#fff"/>
      <path id="Path_12365" data-name="Path 12365" d="M154.23-102.82h2.919V-99.9H154.23Z" transform="translate(-88.069 134.482)" fill="#fff"/>
      <path id="Path_12366" data-name="Path 12366" d="M154.23-91.4h2.919v5.838H154.23Z" transform="translate(-88.069 128.792)" fill="#fff"/>
      <path id="Path_12367" data-name="Path 12367" d="M154.23-74.259h2.919v2.919H154.23Z" transform="translate(-88.069 120.313)" fill="#fff"/>
      <path id="Path_12368" data-name="Path 12368" d="M154.23-68.547h2.919v2.919H154.23Z" transform="translate(-88.069 117.479)" fill="#fff"/>
      <path id="Path_12369" data-name="Path 12369" d="M154.23-57.122h2.919V-54.2H154.23Z" transform="translate(-88.069 111.811)" fill="#fff"/>
      <path id="Path_12370" data-name="Path 12370" d="M154.23-45.7h2.919v5.838H154.23Z" transform="translate(-88.069 106.022)" fill="#fff"/>
      <path id="Path_12371" data-name="Path 12371" d="M154.23-34.273h2.919v2.919H154.23Z" transform="translate(-88.069 100.435)" fill="#fff"/>
      <path id="Path_12372" data-name="Path 12372" d="M159.943-165.655h2.919v17.514h-2.919Z" transform="translate(-90.862 165.655)" fill="#fff"/>
      <path id="Path_12373" data-name="Path 12373" d="M159.943-131.382h2.919v2.919h-2.919Z" transform="translate(-90.862 148.652)" fill="#fff"/>
      <path id="Path_12374" data-name="Path 12374" d="M159.943-119.957h2.919v2.919h-2.919Z" transform="translate(-90.862 142.984)" fill="#fff"/>
      <path id="Path_12375" data-name="Path 12375" d="M159.943-108.533h2.919v2.919h-2.919Z" transform="translate(-90.862 137.316)" fill="#fff"/>
      <path id="Path_12376" data-name="Path 12376" d="M159.943-102.82h2.919v5.838h-2.919Z" transform="translate(-90.862 134.463)" fill="#fff"/>
      <path id="Path_12377" data-name="Path 12377" d="M159.943-85.684h2.919v5.838h-2.919Z" transform="translate(-90.862 125.956)" fill="#fff"/>
      <path id="Path_12378" data-name="Path 12378" d="M159.943-62.835h2.919V-57h-2.919Z" transform="translate(-90.862 114.614)" fill="#fff"/>
      <path id="Path_12379" data-name="Path 12379" d="M159.943-45.7h2.919v5.838h-2.919Z" transform="translate(-90.862 106.022)" fill="#fff"/>
      <path id="Path_12380" data-name="Path 12380" d="M159.943-34.273h2.919v5.838h-2.919Z" transform="translate(-90.862 100.435)" fill="#fff"/>
    </g>
  </g>
</svg>
