<svg xmlns="http://www.w3.org/2000/svg" width="22" height="22" viewBox="0 0 22 22">
  <path id="twitter" d="M11,22A11,11,0,0,1,3.222,3.222,11,11,0,1,1,18.778,18.778,10.925,10.925,0,0,1,11,22ZM5.134,14.971h0a7.143,7.143,0,0,0,3.92,1.162,7.255,7.255,0,0,0,7.274-7.371c0-.108,0-.218-.008-.335A5.177,5.177,0,0,0,17.6,7.083a5.315,5.315,0,0,1-1.473.409,2.573,2.573,0,0,0,1.124-1.432,5.043,5.043,0,0,1-1.621.627A2.549,2.549,0,0,0,11.21,8.458a2.628,2.628,0,0,0,.06.59A7.235,7.235,0,0,1,6,6.339a2.657,2.657,0,0,0-.35,1.31A2.6,2.6,0,0,0,6.786,9.8a2.494,2.494,0,0,1-1.154-.319V9.51A2.6,2.6,0,0,0,7.68,12.056a2.507,2.507,0,0,1-.67.086,2.142,2.142,0,0,1-.484-.045A2.584,2.584,0,0,0,8.914,13.9a5.12,5.12,0,0,1-3.169,1.105A4.637,4.637,0,0,1,5.134,14.971Z" fill="#fff"/>
</svg>
